/* XPM */
static char *_767_1a378640363beee0c3ef3de632259bab64245c044919d2d0e68132bc2ab10196[] = {
/* columns rows colors chars-per-pixel */
"64 64 45 1 ",
"  c black",
". c #002800",
"X c #202020",
"o c #2C2C2C",
"O c gray19",
"+ c #343434",
"@ c gray22",
"# c #400000",
"$ c #4C0000",
"% c #580000",
"& c #640000",
"* c #700000",
"= c #7C0000",
"- c #543C1C",
"; c #045800",
": c #047000",
"> c #744C28",
", c #400040",
"< c #480048",
"1 c #580058",
"2 c #6C0070",
"3 c gray25",
"4 c #484848",
"5 c #4C4C4C",
"6 c gray33",
"7 c gray36",
"8 c #646464",
"9 c #7C7C7C",
"0 c #880000",
"q c #980000",
"w c #A40000",
"e c #B00000",
"r c #BC0000",
"t c #C80000",
"y c #D40000",
"u c #E00000",
"i c #EC0000",
"p c #FC0000",
"a c #9C4C00",
"s c #B45400",
"d c #E46C00",
"f c #840084",
"g c #FFC0CB",
"h c #9C009C",
"j c #989898",
/* pixels */
"gggggggggggggww=gggggggggggggggggggggggggggggggg====gggggggggggg",
"ggggggggggggwrre0gggggggggggggggggggggggggggggg0q*%%=ggggggggggg",
"ggggggggggggerree0ggggggggggggggggggggggggggggeeq*##=ggggggggggg",
"gggggggg%*qqerree0ggggggggggggggggggggggggggggeeq*##%%==gggggggg",
"ggggggg%*qq==qe0e0ggggggggggggggggggggggggggg0q=*%###%%=gggggggg",
"ggggggg%*qq#%=q0ee0ggggggggggggggggggggggggggqq*%# ##$%=gggggggg",
"gggggggg%qq&%&q#0ee0ggggggggggggggggggggggggqq0*## #$%=ggggggggg",
"gggggggg*q%q=&q#0eeeggggggggggggggggggggggggqq*%% ###$%ggggggggg",
"ggggggg*q&#=&==%o0ee0gggiiue*gppyrwgpir0gg00q0*# ### #%ggggggggg",
"ggggggg=q$$=#*=%Xo0e00geippuqeqqq0*pyr0&r&*qq*# ,21< #%=gggggggg",
"gggggg*q&$=&o&ff1,$ee&=eeptqq&qyeqqpq0q*&$=**#  22<,  %=gggggggg",
"gggggg=q#=&ooXhf1,,=e=qttqpppw===*piq&*=&&$### ,21,,# #&gggggggg",
"ggggg*q&#&ooo2hh1,,o==qt=rpppw===*piq&*0=&&$#  22,,,#  &=ggggggg",
"gggg=q#=&oooo2hh2,,oo=0e&iiqet&wq0pe&=eq&*&$#  22%,,## #&ggggggg",
"ggg=q*&&Xooo2fhhw%,oo=00&w0iet=&&0rq&i*q&*&$# ==%,,,,# ##=gggggg",
"gg=qq*&XXoXofhhrh%%%o%==&w%iitq==ieqit%=%*&$ $==%$,,, # #&gggggg",
"ggqq*#XXoXoXfhhhrrrrrr=rrr=:.yqrieqi.;=rq&$**00*$,$,,  ##$=ggggg",
"g*qq##*XXoXo2fgrrrrrrr00rrrw==q====*=qrq#$ttt00%%#,,,   #$=ggggg",
"g*&q*qqXXXoXorrrrreeeey&=0q**tq=$tq&%*q*$$tttw*%%##,    ##$=gggg",
"gg&%qq%XXXeeq=*teeeq000$$*&%0e#&*e#&=%*%$*=======%$      ##&gggg",
"ggg%%*%X%qyye=*&eqq==0&0$%$&qq&*qq&*q$$$&&&&&%%====&$   ##&ggggg",
"ggggg**%*=yyeq=&q===**&*$$$ee=0eee0ee=$$$$$&&%#eeqq==$ ##%&ggggg",
"gggggg*ee=eeeq=*=*&&&*&&%$e94*     046=$$###*=qqeqq=&% ###gggggg",
"gggggge0qq0qqq=**&&&&*%%&&#896 ,,  9j4#$####&*=qqq=&%%%%##gggggg",
"ggggge0e0eq=====&&&$$&&%&%&$0$$11,$$0$#$###%%&*=qq=&%*0*#ggggggg",
"gggge0euuurr0==%&$$$$%*&%%%u9&w0000$90###$$$%%&====&*&*0#ggggggg",
"gg0g0euuuueq*&%#%$$$#$$***%rww&&&&&000#$$$$$%%&*=&&*0&&*#gg#gggg",
"g00e0uueueq*&0*&%%$#####%$=$&&$$$$$&&$#$$$$$##$&&=%$*==&%####ggg",
"gqqtiqqqqq**%e*&$##############  ###$#$$$$$$$# $$$&%%&*=*%#&#ggg",
"g=ti%%===**&%eq*%#############    ##$##$$$##$## $$$$&&%%$0&&qggg",
"geyt%&%***&gggeq&$##### ######    ##### ####$###  $$%&%%$$0q*ggg",
"geye&=&*&%ggggge=&$######             #########     $$%$$$q0$ggg",
"geye0q*$ggggggg$e0%$#########      ###########        $=00=&&ggg",
"g0yy0r*$gggggg$$*=0*##########    ###########         $0eeq*&%gg",
"ggey0y0ggggggqq=&&$#$#####            #####          &gqeeq*&%gg",
"ggeyep0gggggqq=&$##    ########  #######    ###  ###gggeee0*%%gg",
"gggtyype%ggrwq&###%###                     ###### ###gggee0*%%gg",
"gggqppqqe=wrq=%#%&%#           #           #$%%$#####gggqe*%%ggg",
"ggqpppq*eautq=#%&&# ## ##    #####      #  #%%%$##%$#ggappy%%ggg",
"ggppwpyqd*uwq*%#&=##%%$######%#gg####  #$###%%%%##%%##gydyy%%ggg",
"ggpwpwq*uuuq0*%#%&#$&%#######%Xggg###  #%$#$%*&&##%*##gpa*q%%ggg",
"ggrpwr**uutq=*$#&##$###g####XXXgggggg###%*$#&==&##%=##gyw**%%ggg",
"gggrw**wuue0*$$$$##$$#ggggg$$XXXggggggg#%*%#%*&&##%&##gyw**%%ggg",
"gggggggwuue0&&$%$#$$$#gggggg$$$XXggggggg#%%#$%%$##$$##ggy%%%%ggg",
"ggggggwtuuw0**0*$%%%#gggggggggg$$ggggggg####$&&$%$####ggg0%%gggg",
"ggggggwruttq*0q*##&*#gggggggggggggggggggg##$$==%&%####gggggggggg",
"ggggggwrwww0*q0*##&$#ggggggggggggggggggggg#&$==*&%####gggggggggg",
"gggggg=q0qq*q*######gggggggggggggggggggggg#=&=qq&%$#$##ggggggggg",
"gggggg*====**%$$%$ggggggggggggggggggggggggg%%0eq=&%#%##ggggggggg",
"ggggggg*qq**%##$%$gggggggggggggggggggggggggg#&eq0&&#%##ggggggggg",
"ggggggg*==&==#$&&$ggggggggggggggggggggggggggg#=q0&&#%##ggggggggg",
"gggggggg*e*eq$#$&gggggggggggggggggggggggggggg$$$***#%#gggggggggg",
"ggggggggg*&=*#%%$ggggggggggggggggggggggggggggg%&*q=#$#gggggggggg",
"gggggggggg%*=%*%ggggggggggggggggggggggggggggggg&*q=%##gggggggggg",
"gggggggggggrq&0$ggggggggggggggggggggggggggggggg%&qe%#ggggggggggg",
"gggggggggggrq&q$gggggggggggggggggggggggggggggggg*yr0#&gggggggggg",
"gggggggggggrq&q$#gggggggggggggggggggggggggggggg&0r0**%#ggggggggg",
"gggggggggryryry&&#ggggggggggggggggggggggggggggg&0e#*###ggggggggg",
"gggggggggrr=r=>e&#555555555555555566677888888gg&0e&0###ggggggggg",
"ggggggggg->#a#s=&#ooooooooooOOOOOO@@@@@@@344466g0e*q$#8ggggggggg",
"ggggggggggg88776543@@+++ooooooooooooooooo@@@@@340e=e$#678ggggggg",
"ggggggggggggg8776543@@@+++OOOOOOooooooooooooooO&yyeee=#4788ggggg",
"ggggggggggggggg87766653333@@@@@@@++++ooooooooooey>$&$&&#4678gggg",
"gggggggggggggggggggggggggggggggggggggg86554443@e=s#a#>-#35678ggg"
};
