/* XPM */
static char *_5595_97c8afadb9d8ea9d60b93820e9227df5967e0e825f5955caeb0c448de81c881b[] = {
/* columns rows colors chars-per-pixel */
"64 64 45 1 ",
"  c black",
". c #002800",
"X c #202020",
"o c #2C2C2C",
"O c gray19",
"+ c #343434",
"@ c gray22",
"# c #400000",
"$ c #4C0000",
"% c #580000",
"& c #640000",
"* c #700000",
"= c #7C0000",
"- c #543C1C",
"; c #045800",
": c #047000",
"> c #744C28",
", c #400040",
"< c #480048",
"1 c #580058",
"2 c #6C0070",
"3 c gray25",
"4 c #484848",
"5 c #4C4C4C",
"6 c gray33",
"7 c gray36",
"8 c #646464",
"9 c #7C7C7C",
"0 c #880000",
"q c #980000",
"w c #A40000",
"e c #B00000",
"r c #BC0000",
"t c #C80000",
"y c #D40000",
"u c #E00000",
"i c #EC0000",
"p c #FC0000",
"a c #9C4C00",
"s c #B45400",
"d c #E46C00",
"f c #840084",
"g c #FFC0CB",
"h c #9C009C",
"j c #989898",
/* pixels */
"gggggggggggggggggggggggggggggggggggggggggggggggggggggggggggggggg",
"gggggggggggggggggggggggggggggggggggggggggggggggggggggggggggggggg",
"gggggggggggww=gggggggggggggggggggggggggggggggggggggggggggggggggg",
"ggggggggggwrre0ggggggggggggggggggggggggggggggggggg=====ggggggggg",
"ggggggggggerree0ggggggggggggggggggggggggggggggggg0q*%%=ggggggggg",
"gggggg%*=qerreee0ggggggggggggggggggggggggggggggg0eq*##=ggggggggg",
"ggggg%*=q==qe0eee0ggggggggggggggggggggggggggggggqeq*##%%%=gggggg",
"gggggg%qq#%=q00eee0gggggggggggggggggggggggggggg0q=*%###$%%=ggggg",
"gggggg%qq&%&q#&0eee0gggggggggggggggggggggggggg0qq%##  #$$%=ggggg",
"ggggg%=q%q=&=qo&0eee0gggiiue*gppyrwgpir0gggg00q0%###  $$%=gggggg",
"ggggg%q=#=&==q#oo0eee0geippuqeqqq0*pyr0&r&&0==0% #####$$%=gggggg",
"ggggg&q*$&=o&*%oo$0eee=eeqpppw===*piq&**&$===*# ### ####%ggggggg",
"gggg*q*#&=ooX*&#oo&0e=qttriqet&wq0pe&=e=&&$### ##,h2<###%=gggggg",
"gggg*q##=ooof11#oo$00=qt=i0ipt=&&0rq&i*0=&&$# ##,h1<,#  %=gggggg",
"ggg&q*#=oXooh2,,ooo&0=0e&w%iitq==ieqit%q&*&$# ##h2<,,## #&=ggggg",
"gg&qq*XXXoX1hf1,oooo&%00&w=:.yqrieqi.;=q&*&$###$h&,,,,#  &=ggggg",
"g&qq*#XXoXofhh2,,ooo$%==&rrw==q====*=qr=%*&$###00,%,,,## #&=gggg",
"g&qq##*XXX1fhhw1%Xooo$=rrrq**tq=$tq&%*qrq&$$ #$e=%,$,,,# ##=gggg",
"gg&q*qqXX#fhhrhw%%XX#$00r0&%0e#&*e#&=%*q#$$ #$e0&$$,$,,,# #&gggg",
"gg&%qq%X#fhhrhrw0qttryw&=*$&qq&*qq&*q$$*$$00%e0&%$$$,,,, ##$=ggg",
"ggg%%%*%#fhhhrrwttttyw0$$%$ee=0eee0ee=$%$&ttq0*&$$$$$,,, $##$=gg",
"gggggg%%#2hhrrttttewq0&0$$e94*     046=$%%$&==%$##$$$,,  # ##$=g",
"ggggggg*%Xeeq=*tewwq=*&*$$#896     9j4###&$&#=q$##$$     #  ##&g",
"ggggggg%*qyye=*&wq0=&*&&%0%##*$   $*#####$&#&%====&     #####&gg",
"gggggggg*=yyeq=&q0=*&*%%&&%$$0$1, $0$$#$####==qqqq==#   ###%%&gg",
"gggggggge=eeeq=*&&&$$&%%*%%$0$$11,$$0$#$###&qqeeqqq=&#  ###*gggg",
"gggggggeqq0qqq=*&$$$$&&%%%%u9&w0000$90###$%*=qeeqq=&#$ ###%=gggg",
"gggggge00eq=====%$$$$%*&&*&rww&&&&&000#$$%%&*=qqqq&##$ ##%=ggggg",
"ggggge0euurr0==%%%$$#$$**$=0&&$$$$$&&%$$$%%%&*qqq=&##&&##%gggggg",
"gggge0euuueq*&%###$#$$##%$##### ######$$$%$%&*===&&#0&q&%ggggggg",
"g00g0euuueq*&%=*%############## #######$$$##%&&&&=%$*=*q*$gggggg",
"gq0e0uueqq**%e0*%#########           ########  $$$&%%&*qq&$ggggg",
"g=qtiqqq=**&%=&0*%############   ###########    $$$*0==*qq&ggggg",
"geti%%==**&gg=&$X&%$##########   ##########  #    $&0w0=qq&$gggg",
"geyt%&%*&%gggg$$*%#$#######         #####  ##     $$&ww0*q&$$$$g",
"geye&=&*gggggqq=&&$#$   ######   #####   ####      $$&w0*qq&$$$g",
"g0ye0q*$ggggqq=&$##    #               #          ##$$$*qq=&&$$g",
"ggyy0r*$gggrwq&###%###  # ####    ### #     #####  ###$0tq0*&%gg",
"ggey0y0gggwrq=%#%&%#           #         # #%%%######0ttqq0*&%gg",
"ggeyep0ggeutq=#%&&# ## ##    #####      #  #%%%$##%##tttqq*&%%gg",
"gggtyype%=uwq*%#&=##%%$#######XXX####  #$###%%%%##%%#tttq0*&%ggg",
"gggqppqqe=uq0*%#%&#$&%###g#####XXX###  #%$#$%*&&##%*0ttq0*&%gggg",
"ggqpppq*eatq=*$#&##$###gggggg####XXXg###%*$#&==&##%=tqq0**%ggggg",
"ggppwpyqd*e=*$$$$##$$%#ggggggggg####ggg#%*%#%*&&##%tqq0**%gggggg",
"ggpwpwq*a*e0&&$%##$$$#gggggggggggggggggg#%%##%%#qq0&&00%gggggggg",
"ggrpwr***uw%**0##%%%$#gggggggggggggggggg#####&&appyq&&%ggggggggg",
"gggrw***ttq*0q*##&*&#gggggggggggggggggggg##&#==d0qqq&&&ggggggggg",
"gggggrrwww0*q0*##&&&#gggggggggggggggggggg##=&=qa0*&&&&&ggggggggg",
"gggggqq*qq*q*#######gggggggggggggggggggggg#%%0eyw**&&&&ggggggggg",
"ggggg***qq**$##$$%ggggggggggggggggggggggggg##&eey&&&&&&ggggggggg",
"gggggg**==####$&&&ggggggggggggggggggggggggggg#=q00&&&&#ggggggggg",
"gggggggeqe*eq$#$&gggggggggggggggggggggggggggg$$$%**#%#gggggggggg",
"ggggggggq=$=##%$gggggggggggggggggggggggggggggg&&&=0###gggggggggg",
"gggggggggg$$=$&$ggggggggggggggggggggggggggggggg&*0q%##gggggggggg",
"gggggggggggw0$*$gggggggggggggggggggggggggggggggg&0e%#$gggggggggg",
"gggggggggggr0%*$gggggggggggggggggggggggggggggggg*yy0#&gggggggggg",
"gggggggggggrq&0$#gggggggggggggggggggggggggggggg&0y0**%#ggggggggg",
"gggggggggryryry&&#ggggggggggggggggggggggggggggg&0e#*###ggggggggg",
"gggggggggrr&r&>e&#555555555555555566677888888gg&0q&*###ggggggggg",
"ggggggggg->#a#s=&#ooooooooooOOOOOO@@@@@@@344466g0q*0$#8ggggggggg",
"ggggggggggg88776543@@+++ooooooooooooooooo@@@@@340e=e$#678ggggggg",
"ggggggggggggg8776543@@@+++OOOOOOooooooooooooooO&yyeee=#4788ggggg",
"ggggggggggggggg87766653333@@@@@@@++++ooooooooooey>$&$&&#4678gggg",
"gggggggggggggggggggggggggggggggggggggg86554443@e=s#a#>-#35678ggg"
};
