/* XPM */
static char *_676_a40533876b1af2f5523a4414fb62186808bbc19020dd24f675cd27d7a3060f41[] = {
/* columns rows colors chars-per-pixel */
"64 64 55 1 ",
"  c black",
". c #002800",
"X c #202020",
"o c #2C2C2C",
"O c gray19",
"+ c #343434",
"@ c gray22",
"# c #400000",
"$ c #4C0000",
"% c #580000",
"& c #640000",
"* c #700000",
"= c #7C0000",
"- c #543C1C",
"; c #044000",
": c #044C00",
"> c #045800",
", c #046400",
"< c #047000",
"1 c #047C00",
"2 c #404000",
"3 c #585400",
"4 c #706C00",
"5 c #744C28",
"6 c #400040",
"7 c #480048",
"8 c #580058",
"9 c #6C0070",
"0 c gray25",
"q c #484848",
"w c #4C4C4C",
"e c gray33",
"r c gray36",
"t c #646464",
"y c #7C7C7C",
"u c #880000",
"i c #980000",
"p c #A40000",
"a c #B00000",
"s c #BC0000",
"d c #C80000",
"f c #D40000",
"g c #E00000",
"h c #EC0000",
"j c #FC0000",
"k c #9C4C00",
"l c #B45400",
"z c #E46C00",
"x c #049800",
"c c #848400",
"v c #9C9C00",
"b c #840084",
"n c #FFC0CB",
"m c #9C009C",
"M c #989898",
/* pixels */
"nnnnnnnnnnnnnnnnnnnnnnnnnnnnnnnnnnnnnnnnnnnnnnnnnnnnnnnnnnnnnnnn",
"nnnnnnnnnnnnnnnnnnnnnnnnnnnnnnnnnnnnnnnnnnnnnnnn====nnnnnnnnnnnn",
"nnnnnnnnnnnnnnnnnnnnnnnnnnnnnnnnnnnnnnnnnnnnnnnui*%%=nnnnnnnnnnn",
"nnnnnnnnnnnnnnnnnnnnnnnnnnnnnnnnnnnnnnnnnnnnnnaai*##=nnnnnnnnnnn",
"nnnnnnnnnnnnnnnnnnnnnnnnnnnnnnnnnnnnnnnnnnnnnnaai*##%%==nnnnnnnn",
"nnnnnnnnnnnnpp=nnnnnnnnnnnnnnnnnnnnnnnnnnnnnnui=*%###%%=nnnnnnnn",
"nnnnnnnnnnnpssaunnnnnnnnnnnnnnnnnnnnnnnnnnnnnii*%# ##$%=nnnnnnnn",
"nnnnnnnnnnnassaaunnnnnnnnnnnnnnnnnnnnnnnnnnniiu*## #$%=nnnnnnnnn",
"nnnnnnn&=iiassaaaunnnnnnnnnnnnnnnnnnnnnnnnnnii*%% ###$%nnnnnnnnn",
"nnnnnn&=ii==iauaaaunnnnnhhganajjfspnjhsunnuuiu*# ### #%nnnnnnnnn",
"nnnnnn&=ii#%=iuuaaaunnnahgjgi=iiiuuffsu&s&*ii*# 6987 #%=nnnnnnnn",
"nnnnnnn&ii&%&ib88aaau&=agghida&ffisff=au&$=**#  9976  %=nnnnnnnn",
"nnnnnn&=i%i=&=m96uaaa=iddhuhda=*iuji&h*i&&$### 69866# #&nnnnnnnn",
"nnnnnn=i=#=&=8mb86ua==id=p%hhdi==haihd%i=&&$#  99666#  &=nnnnnnn",
"nnnnnnui*$&=Xbmm96uu#=ua&p=<.fishaih.>==&*&$#  99%66## #&nnnnnnn",
"nnnnn*i*#&=X8bmm96%>>=uu&si**gd=$gd&%*ss&*&$# ==%6666# ##=nnnnnn",
"nnnnnui##=oo82>,96oxx,==&i&%ua#&*a#&=%ii%*&$ $==%$666 # #&nnnnnn",
"nnnn=i*#=Xoo8><x<,oxv4>*su$&ii&*ii&*i$**=&$  uu*$6$66  ##$=nnnnn",
"nnn=ui*XXooo8,xvkxoxkkxuu*$aa=uaaauaa=*%#$  $uu%%#666   #$=nnnnn",
"nn=ui*#XXooo8,xkkx,xk3x&&%ayq*     uqe&$$$dddp*%%##6    ##$=nnnn",
"nn&ii=XX2:>>o,xk3x1xk3x$$$#tye     yMqo$$#=======%$      ##&nnnn",
"nnn=ii=X:xx1<1xk2kxkk2x>,%###       ###$&&&&&%%====&$   ##&nnnnn",
"nnn&=i=X>xv4xx1k23,k22x,x,###       ####$$$&&%#aaii==$ ##%&nnnnn",
"nnnn%ii=>14kk32323322,1x4x>##@     o####$###*=iiaii=&% ###nnnnnn",
"nnnnn%i=n>xk2k3323222kkc3x>##e     @###$####&*=iii=&%%%%##nnnnnn",
"nnnnnn%>>><xk22222222222x:%$$*$66 $&$$#$###%%&*=ii=&%*u*#nnnnnnn",
"nnnnnnn>xxxkk332222222,<:%&$$u$886$u$$###$$$%%&====&*&*u#nnnnnnn",
"nnnnnnn>14v32222222222>;%%%$p$$886$$u$#$$$$$%%&*=&&*u&&*#nn#nnnn",
"nnnnnnnn>111333222222>;***%it&&===&$eu#$$$$$##$&&=%$*==&%####nnn",
"nnnnnnnnn>>>1132222>>;##%$=uip=====uuu$$$$$$$# $$$&%%&*=*%#&#nnn",
"nnnnnnnnnnn>,<<,>>>;;## ###$&&$$$$$&&$#$$$##$#  $$$$&&%%$u&&innn",
"nnnnnnnnnnnn::::::;i&&###            #######$     $$%&%%$$ui*nnn",
"nnnnnnnnnnnnu&Xo@u#==&&######    ########### ##     $$%$$$iu$nnn",
"nnnnnnnnnnnnn=&$X&%$#%%% #####    ######### ###       $=uu=&&nnn",
"nnnnnnnnnnnnnn$$*%#$######          ###### #          $uaai*&%nn",
"nnnnnnnnnnnnnii=&&$#$   ######   #####               &niaai*&%nn",
"nnnnnnnnnnnnii=&$##    #              ##    ###  ###nnnaaau*%%nn",
"nnnnnnnnnnnspi&###%###  # ####    ### #    ###### ###nnnaau*%%nn",
"nnnnnnnnnnpsi=%#%&%#           #           #%%%######nnnia*%%nnn",
"nnnnnnnnnagdi=#%&&# ## ##    ##n##     ##  #%%%$##%##nnkjjf%%nnn",
"nnnnnnnnadgpi*%#&=##%%$######%#nn###  ##$###%%%%##%%##nfzff%%nnn",
"nnnnnnnndggiu*%#%&#$&%#######%Xnnn##  ##%$#$%*&&##%*##njk*i%%nnn",
"nnnnnnnaggdi=*$#&##$###n####XXXnnnnn####%*$#&==&##%=##nfp**%%nnn",
"nnnnnnnsgga=*$$$$##$$%#nnnn$$XXXnnnnnn##%*%#%*&&##%&##nfp**%%nnn",
"nnnnnnigggau&&$%##$$$#nnnnnn$$$XXnnnnnn##%%##%%#######nnf%%%%nnn",
"nnnnniagggp%**u##%%%$#nnnnnnnnn$$nnnnnnn#####&&#%$####nnnu%%nnnn",
"nnnnnsgdddi*ui*##&*&#nnnnnnnnnnnnnnnnnnnn##&#==*&%####nnnnnnnnnn",
"nnnnnsspppu*iu*##&&&#nnnnnnnnnnnnnnnnnnnn##=&=ii&%$####nnnnnnnnn",
"nnnnnii*ii*i*#######nnnnnnnnnnnnnnnnnnnnnn#%%uai=&%#%##nnnnnnnnn",
"nnnnn***ii**$##$$%nnnnnnnnnnnnnnnnnnnnnnnnn##&aiu&&#%##nnnnnnnnn",
"nnnnnn**==####$&&&nnnnnnnnnnnnnnnnnnnnnnnnnnn#=iu&&#%##nnnnnnnnn",
"nnnnnnnaia*ai$#$&nnnnnnnnnnnnnnnnnnnnnnnnnnnn$$$***#%#nnnnnnnnnn",
"nnnnnnnni=$=##%%nnnnnnnnnnnnnnnnnnnnnnnnnnnnnn&&*i=###nnnnnnnnnn",
"nnnnnnnnnn$*=%*%nnnnnnnnnnnnnnnnnnnnnnnnnnnnnnn&*i=%##nnnnnnnnnn",
"nnnnnnnnnnnsi&u$nnnnnnnnnnnnnnnnnnnnnnnnnnnnnnnn&ia%#nnnnnnnnnnn",
"nnnnnnnnnnnsi&i$nnnnnnnnnnnnnnnnnnnnnnnnnnnnnnnn*fsu#&nnnnnnnnnn",
"nnnnnnnnnnnsi&i$#nnnnnnnnnnnnnnnnnnnnnnnnnnnnnn&usu**%#nnnnnnnnn",
"nnnnnnnnnsfsfsf&&#nnnnnnnnnnnnnnnnnnnnnnnnnnnnn&ua#*###nnnnnnnnn",
"nnnnnnnnnss$s$5a&#wwwwwwwwwwwwwwwweeerrttttttnn&ua&u###nnnnnnnnn",
"nnnnnnntn-5#k#l=&#ooooooooooOOOOOO@@@@@@@0qqqeenua*i$#tnnnnnnnnn",
"nnnnnnnnnnnttrrewq0@@+++ooooooooooooooooo@@@@@0qua=a$#ertnnnnnnn",
"nnnnnnnnnnnnntrrewq0@@@+++OOOOOOooooooooooooooO&ffaaa=#qrttnnnnn",
"nnnnnnnnnnnnnnntrreeew0000@@@@@@@++++ooooooooooaf5$&$&&#qertnnnn",
"nnnnnnnnnnnnnnnnnnnnnnnnnnnnnnnnnnnnnntewwqqq0@a=l#k#5-#0wertnnn"
};
