/* XPM */
static char *_6260_86c6fe5e4ec80de9c5395b30bb0cfb157c46a2ec451135fe1b94688461c49fbc[] = {
/* columns rows colors chars-per-pixel */
"64 64 60 1 ",
"  c black",
". c gray11",
"X c #2C2C2C",
"o c gray22",
"O c #400000",
"+ c #4C0000",
"@ c #580000",
"# c #640000",
"$ c #700000",
"% c #7C0000",
"& c #543C1C",
"* c #404000",
"= c #585400",
"- c #706C00",
"; c #5C4020",
": c #744C28",
"> c #400040",
", c #580058",
"< c #6C0070",
"1 c #484848",
"2 c gray33",
"3 c gray36",
"4 c #646464",
"5 c gray44",
"6 c #7C7C7C",
"7 c #880000",
"8 c #980000",
"9 c #A40000",
"0 c #B00000",
"q c #BC0000",
"w c #C80000",
"e c #D40000",
"r c #E00000",
"t c #EC0000",
"y c #FC0000",
"u c #FC2020",
"i c #9C4C00",
"p c #B45400",
"a c #CC6000",
"s c #E46C00",
"d c #848400",
"f c #9C9C00",
"g c #B4AC00",
"h c #FC8820",
"j c #CCC400",
"k c #E4D800",
"l c #FCF420",
"z c #FCA85C",
"x c #840084",
"c c #FFC0CB",
"v c #9C009C",
"b c #B400B4",
"n c #C800CC",
"m c #E000E4",
"M c #FC00FC",
"N c #FC20FC",
"B c gray55",
"V c #989898",
"C c gray66",
"Z c #D0D0D0",
/* pixels */
"cccccccccccccccccccccccccccccccccccccccccccccccccccccccccccccccc",
"cccccccccccccccccccccccccccccccccccccccccccccccccccccccccccccccc",
"cccccccccccccccccccccccccccccccccccccccccccccccccccccccccccccccc",
"cccccccccccccccccccccccccccccccccccccccccccccccccccccccccccccccc",
"cccccccccccccccccccccccccccccccccccccccccccccccccccccccccccccccc",
"cccccccccccccccccccccccccccccccccccccccccccccccccccccccccccccccc",
"cccccccccccccccccccccccccccccccccccccccccccccccccccccccccccccccc",
"cccccccccccccccccccccccccccccccccccccccccccccccccccccccccccccccc",
"cccccccccccccccccccccccccccccccccccccccccccccccccccccccccccccccc",
"cccccccccccccccccccccccccccccccccccccccccccccccccccccccccccccccc",
"cccccccccccccccccccccccccccccccccccccccccccccccccccccccccccccccc",
"cccccccccccccccccccccccccccccccccccccccccccccccccccccccccccccccc",
"cccccccccccccccccccccccccccccccccccccccccccccccccccccccccccccccc",
"cccccccccccccccccccccccccccccccccccccccccccccccccccccccccccccccc",
"cccccccccccccccccccccccccccccccccccccccccccccccccccccccccccccccc",
"cccccccccccccccccccccccccccccccccccccccccccccccccccccccccccccccc",
"cccccccccccccccccccccccccccccccccccccccccccccccccccccccccccccccc",
"cccccccccccccccccccccccccccccccccccccccccccccccccccccccccccccccc",
"cccccccccccccccccccccccccccccccccccccccccccccccccccccccccccccccc",
"cccccccccccccccccccccccccccccccccccccccccccccccccccccccccccccccc",
"cccccccccccccccccccccccccccccccccccccccccccccccccccccccccccccccc",
"cccccccccccccccccccccccccccccccccccccccccccccccccccccccccccccccc",
"cccccccccccccccccccccccccccccccccccccccccccccccccccccccccccccccc",
"cccccccccccccccccccccccccccccccccccccccccccccccccccccccccccccccc",
"cccccccccccccccccccccccccccccccccccccccccccccccccccccccccccccccc",
"cccccccccccccccccccccccccccccccccccccccccccccccccccccccccccccccc",
"cccccccccccccccccccccccccccccccccccccccccccccccccccccccccccccccc",
"cccccccccccccccccccccccccccccccccccccccccccccccccccccccccccccccc",
"cccccccccccccccccccccccccccccccccccccccccccccccccccccccccccccccc",
"cccccccccccccccccccccccccccccccccccccccccccccccccccccccccccccccc",
"cccccccccccccccccccccccccccccccccccccccccccccccccccccccccccccccc",
"cccccccccccccccccccccccccccccccccccccccccccccccccccccccccccccccc",
"cccccccccccccccccccccccccccccccccccccccccccccccccccccccccccccccc",
"cccccccccccccccccccccccccccccccccccccccccccccccccccccccccccccccc",
"cccccccccccccccccccccccccccccccccccccccccccccccccccccccccccccccc",
"cccccccccccccccccccccccccccccccccccccccc=ccf-ccccccccccccccccccc",
"ccccccccccccccccccccccccc=fcccccccccccc-dgdd-=gcdccccccccccccccc",
"ccccccccccccccccccccccc--dgdggccccccccccnd-jd=fd=cd=cct-tccccccc",
"ccccccccccccccccccccccfjjjccgdcndc=*cfccc==dg-=-=cdcdtcc+ccccccc",
"cctccccccccccccccccccc-jj=dc=dcd=ckdgkdd*-ffjjdfccc==feq77+ccccc",
"cctccccccccccccj-cccc-c=ccdcf-ccc=llfddfldl-jj,dc=cj*7dcc8cccccc",
"cccccrf=-ccccccdjdc-f-gccx=-=fdfgjjl==-,lfg<gc=-g-g-7r-rcccccccc",
"ccckuc0kkdccccdjjjccd=ddcgjd=dd=fjjff-gd<glln<g,=c=--8-c7ccccccc",
"cccyc0dkkfcdjgdjjlg-cckyydlldjlc,kddfdkklgllgx<cgcg-rrj00ccccccc",
"ccctt=dkjfdcjjdddjjd-*gy%$lgdg*ccdj=g=-yy-gdc-xk,c=-tddcccqtcccc",
"ccccccc=glc*ccc=-=gcccd$n$g-=cxcjgckjd=y0$xklngk>se0g-@jc7ccqccc",
"cccc0ctf8ccdgj*jccfcddcccnvxxxkxe08cl,g$$$>lx<fxseel07ecc07ccccc",
"cccccccc@ccffcccOOOcdjccxvvB5xxny0g$kk,ck>lkxlnlekj0@$9eect7r0cc",
"cccccccccffcf-cOOOOdcc#vxx,52xvn00%pqqflfdkg-=-f0ll@@$%90edj07cc",
"ccccccttfdfkfc-@@@@OO#7vbxx-,vbn$%slleklvgflgfqlq877z0z0zieecccc",
"cccccc0t0=-f=-O$oo$O#77vxx07nvee+eneqkqqkq7$f8kebbeuh$i$:&99%ccc",
"cccccc7kd=t0=c@$oo0q88ettttte000e,qq77777+Ok77qbbxquOOOOOO$%%+cc",
"ccccccccc8=t=c$$www80ttttteeq007e,+7#qqq+#$qqq7bvrruOOOOOO###+cc",
"cccccccccccccc8ww0w0e0r0000887$$$0eO#777+#$777xbrrr0%OOOOO++++8c",
"ccccccccccdwwwww7%w0rr00077%%##@@7eOOObbOOO++><brr00OOOOOOO+++$c",
"cccccccccqwrrw7#@#%0qereqq0887%000>6VZ4OOOOOO><brr00OOOOO OOOO+c",
"ccccccccca8087@@$#%00qqeeee007%8$>>24BCOOOOOO><vrr00OOOOO OOOOOc",
"cccccccccii$$$$$#O#0%0qqqq008%$##>>X>11OOOOO>><vr#<@OvOOO    OOc",
"ccccccccci;#+++OOOO#,%%7777%$@b@+>x>>OOOOOO<>>Nx$0N@OOONO v  OOc",
"cccccccccc&&OOOOO,>,#,@+x+>+>++>++>>>>OOOOO,N>xNv$@vOOvOO  <OOOc",
"ccccccccccc443322222,,@,,,x,>O>>,,O,,b,OO,xvv<xNNv<xOv,O <OOOOvc",
"ccccccccccccc433222bv,,bxxxxxbxxxxxxxxxxxxvnbbnnvx,,,,,><.,>>>>c",
"ccccccccccccccc4mnbbbbbnnnnnnnnnnnnnnnnnnnnnnnbvv,,>>>>>>>>>>>>c",
"ccccccccccccccccccMMmmmmmnnnnbbbvvvvvvxxxxxxxxxxxxxx,xx<<<,>>ccc"
};
