/* XPM */
static char *_5781_5504a001a8363680c82ad97905925cbdfb5f61e341a1e83ac026e8930fa31bf7[] = {
/* columns rows colors chars-per-pixel */
"64 64 50 1 ",
"  c black",
". c #202020",
"X c #2C2C2C",
"o c gray19",
"O c #343434",
"+ c gray22",
"@ c #400000",
"# c #4C0000",
"$ c #580000",
"% c #640000",
"& c #700000",
"* c #7C0000",
"= c #543C1C",
"- c #404000",
"; c #585400",
": c #706C00",
"> c #744C28",
", c #400040",
"< c #480048",
"1 c #580058",
"2 c #6C0070",
"3 c gray25",
"4 c #484848",
"5 c #4C4C4C",
"6 c gray33",
"7 c gray36",
"8 c #646464",
"9 c #7C7C7C",
"0 c #880000",
"q c #980000",
"w c #A40000",
"e c #B00000",
"r c #BC0000",
"t c #C80000",
"y c #D40000",
"u c #E00000",
"i c #EC0000",
"p c #FC0000",
"a c #FC2020",
"s c #9C4C00",
"d c #B45400",
"f c #E46C00",
"g c #9C9C00",
"h c #B4AC00",
"j c #E4D800",
"k c #840084",
"l c #FFC0CB",
"z c #9C009C",
"x c #B400B4",
"c c #989898",
/* pixels */
"llllllllllllllllllllllllllllllllllllllllllllllllllllllllllllllll",
"lllllllllllllllllllllllllllllllllllllllllllllllll****lllllllllll",
"llllllllllllllllllllllllllllllllllllllllllllllll0q&$*lllllllllll",
"lllllllllllllww*lllllllllllllllllllllllllllllll0eq&@*lllllllllll",
"llllllllllllwrre0llllllllllllllllllllllllllllllqeq&@$$$*llllllll",
"llllllllllllerree0llllllllllllllllllllllllllll%q*&$@@@#$*lllllll",
"llllllll$&*qerreee0llllllllllllllllllllllllll%qq$@@  @##*lllllll",
"lllllll$&*q**qe0eee0llllllllllllllpwllllllll%q0&@@@  ##$llllllll",
"llllllll$qq@$*q00eee0lllllllllllppwwlllllll%*0&@ @@@ ##*llllllll",
"llllllll$qq%$%q@%0eee0%lliutlrppupwelpiill%00*@  @@@@@##*lllllll",
"lllllll$*q$q*%*qX%0eee0%iagqe;epyj0qiairr%***,2 @@@ @@ @$lllllll",
"lllllll$q*@*%**q@XX0e*@eipue&;yyhrj:pir0%##**221@@@  @  $*llllll",
"lllllll%q&#%*X%&$XX#0@*eeipgjh;::;:;yr0%%%#@@221,@   @@ $**lllll",
"llllll&q&@%*XX.&%@XX0*qttwtqjg;j;:;;q0q&&%%#@221,@    @  @*lllll",
"llllll&q@@*XXXk11@XX#*qtteqir%-:h;-jq*&**&%#@00<<,     @ @#*llll",
"lllll%q&@*X.XXz2,,tXX*0e*qqtpw-;-:uiq%&*%&%#@00$,,     @ @@#*lll",
"llll%qq&...X.1zk1,XXt*00%qqg00--;-q**%*0%&%#%00,$,     @# @@#*ll",
"lll%qq&@..X.Xkzz2,,xXX**%qyqet%w:0re%*e0$%# %00$,,      #  @@%ll",
"lll%qq@@&...1kzzw1$.kXX&%r0iet*%g0rq%e&q@#  000$$,      #@@@%lll",
"llll%q&qq..@kzzrzw$t...%$r$ietq**yeq0y$q@#tttw0$$       @@@@%lll",
"llll%$qq$.@kzzrzrw&k@x.$#w*wyyqrreqyyw%* @*******$#   z@@@*lllll",
"lllll$$$&$@kzzzrwkt$k@%0ww00**q*&**&*%%*%%#%@$*****%#  @k@*lllll",
"llllllll$$@2zzrwwww$11%%0w&$*&&$@$&&%$*%%$#%%*qqqqq**z @2*llllll",
"lllllllll&$.1kwwwwtx11*#%0%#&q0%&q0%$##%$#@@*qeeqqq*%$z@1*llllll",
"lllllllll$&...0qwttwwwq*##%#%0@%&0@%#@##,,@@qeeeqq*%##$$@l*zllll",
"llllllllll&.eeq*&t*qqq***$$%&0%&*0%&#@@,,122qqqqqq*%#&zk**llllll",
"llllllllll@qeyuuk%0kq%%%%%%%e*&&*00e&@@,,12kz******%&%k1*lzlllll",
"lllllllllll*eetu*,1&&%%%%$$494&@@@046X@%,,**&&z&*%%&0%1,$@l@llll",
"lllllllllll*etuq,xk1%$$$$$$9c+@@##@+9+@%&&*2@@#%%*$#&**%$@@@@lll",
"llllllllll0&&%*k,xk2$$$$%&*4986##$9c6X#**1###2 ###%$$%&z&$@%@lll",
"lllllllll0ete&%%*,,,##&%$#@@@@@@@@@@%@@#%2#@#@  ####%%$$#0%%qlll",
"llllllll0ete0%$k1,k@@@@@$$#@          #%@z@@#     ##%%$$##0q&lll",
"llllllllqee00$e,,1,@@@@@@@@@@@@   @@@@@@@@@@        ##*###q0#lll",
"lllllll0ee0*%ek%k,$#@ @@@@@@@@@   @@@@@@@@@          #####0e#lll",
"lll&qlleeq*%ee0%,021@, @@@@@@        @@@@   @@@       ##$*qq%lll",
"lllw*qqee%*ee0%%&0#,2     @@@@@   @@@@@@    @@@@  @@  %qqq*%%lll",
"lllw*ttq&*e%0&%$&%@2 ,2                  @@ @$$@# @@@llqetq&%$ll",
"lllw*tqt##$@@##%@@&q2@@@        @       @@@k2$k$## @@@lqttq&%$ll",
"llll%q*t#$@@#@@@@2&&###2@@    @@l@@     @@@ @$1$$#@@@@lett0&$$ll",
"llll%%tyqq%##@@@#$%$$2@@@@@@@$@lll@@@   @@k@kx%$%#@$@@llet0&$$ll",
"lllll0ppteq###@######@@@@@@@@$lllll@@   @%@kz2k%%#@$$@@lqe0&$lll",
"llllq&rpytq*##@@@@@@@@@@l@@@lllllllll@@@@%%1k01&%#@$$@@llq0&$lll",
"llllru0tpte*###@@@@@@@@lllllllllllllllll@kx%1*z**#@$@@@llq0$$lll",
"llllrr&0tppe*##@@@@@@lllllllllllllllllll@%*%@@**%@@@@@@lqq0$$lll",
"llllqqq&0qtyypee*@@llllllllllllllllllllll@%@k@k@@@@@@@lsppy$llll",
"llll&qq$%%qppqqee$@llllllllllllllllllllll@@%1&1@%$@@@@lyfyy$$lll",
"lllll&&$$qpppq&es$@lllllllllllllllllllllll@%&qq&%$@@@llps&q$$lll",
"lllllll&#ppwpyqf&$@llllllllllllllllllllllll@0tt%%$@@@@lyw&&$$lll",
"lllllllw*pwpwq&s&$ @lllllllllllllllllllllll@0tt%%$@$@@lly$$$$lll",
"lllllllw*rpwr&&&$$$@lllllllllllllllllllllll@0te%%$@$@@lll0$$$lll",
"llllllllw*rw&&&$$$$@lllllllllllllllllllllll#@e0*%$@$@@llllllllll",
"lllllllll&$&lllq%@##$@@lllllllllllllllllllll##*0%$@$@lllllllllll",
"llllllllllllllll0&@@%%&@lllllllllllllllllllll%*0%$@@@lllllllllll",
"llllllllllllllllqq@@%%&#lllllllllllllllllllll%*0%$@@llllllllllll",
"lllllllllllllllllrq%0###llllllllllllllllllllll%0%$@lllllllllllll",
"lllllllllllllllllrq%q#@llllllllllllllllllllll*&%e0@%llllllllllll",
"lllllllllllllllllrq%q#llllllllllllllllllllll*00%0&&$llllllllllll",
"lllllllllllllllryryry%%lllllllllllllllllllll&0e0@&@@llllllllllll",
"llllllllllllllrrr#r#>e%+5555555555666778888l%&e0#&@lllllllllllll",
"lllllllllllll8r=>@s@d*%XXXXXoooooo+++++++3466%e0#0#78lllllllllll",
"lllllllllll88776543++OOOXXXXXXXXXXXXXXXXX+++34e0$e#467788lllllll",
"lllllllllllll8776543+++OOOooooooXXXXXXXXXXXXo%ee*0**@457788lllll",
"lllllllllllllll87766653333+++++++OOOOXXXXXXXXee>#%#%%@+34678llll",
"llllllllllllllllllllllllllllllllllllll865543+e*d@s@>=@++35678lll"
};
