/* XPM */
static char *_2604_487d757a8ef7caaca6139c7bb62a6b9ccb4656163ddac0dc390c1c3a10049cc9[] = {
/* columns rows colors chars-per-pixel */
"64 64 55 1 ",
"  c black",
". c #202020",
"X c #2C2C2C",
"o c gray19",
"O c #343434",
"+ c gray22",
"@ c #400000",
"# c #4C0000",
"$ c #580000",
"% c #640000",
"& c #700000",
"* c #7C0000",
"= c #543C1C",
"- c #404000",
"; c #585400",
": c #706C00",
"> c #744C28",
", c #400040",
"< c #480048",
"1 c #580058",
"2 c #6C0070",
"3 c gray25",
"4 c #484848",
"5 c #4C4C4C",
"6 c gray33",
"7 c gray36",
"8 c #646464",
"9 c #7C7C7C",
"0 c #880000",
"q c #980000",
"w c #A40000",
"e c #B00000",
"r c #BC0000",
"t c #C80000",
"y c #D40000",
"u c #E00000",
"i c #EC0000",
"p c #FC0000",
"a c #FC2020",
"s c #9C4C00",
"d c #B45400",
"f c #E46C00",
"g c #848400",
"h c #9C9C00",
"j c #B4AC00",
"k c #CCC400",
"l c #E4D800",
"z c #840084",
"x c #FFC0CB",
"c c #9C009C",
"v c #B400B4",
"b c #C800CC",
"n c #E000E4",
"m c #FC20FC",
"M c #989898",
/* pixels */
"xxxxxxxxxxxxxxxxxxxxxxxxxxxxxxxxxxxxxxxxxxxxxxxxxxxxxxxxxxxxxxxx",
"xxxxxxxxxxxxxxxxxxxxxxxxxxxxxxxxxxxxxxxxxxxu0xxxxxxxxxxxxxxxxxxx",
"xxxxxxxxxxxxxxxxxxxxxxxxxxxxxxxxxxxxxxxxxxxxxxxxxxxxxxxxxxxxxxxx",
"xxxxxxxxxxxxxxxxxxxxxxgxu&xxxlxklxxxxaxxxxxxxxxxxxxxxxxxxxxxxxxx",
"xxxxxxxxxxxxxxxxxxxxxxgxxxxxx:xxhxxllgxxxxxxkxxxxxxxxxxxxxxxxxxx",
"xxxxxxxxxxxxxxxxxxxxxxxxxxxxxxxxxxxlljyxxxxxxhiixxxxxxxxxxxxxxxx",
"xxxxxxxxxxxxxxxxxxxxxxxiuh;:gxxxxxgljj&yxhiiplrrrxxxxxxxxxxxxxxx",
"xxxxxxxxxxxxxxxxxxxxxxlaiellhlhxxxll;h&-pgggyreeeqxxxxxxxxxxxxxx",
"xxxxxxxxxxxxxxxxxxxxxippegllkggl:phh::-gg;gg-eeeeq0xxxxxxxxxxxxx",
"xxxxxxxxxxxxxxxxxxxxxiii;glkhggkggjgg::gllg;:hke0*%#xxxxxxxxxxxx",
"xxxxxxxxxxww*xxxxxxxxiihg:lh;glgllg:gg;hklg-0*e0gk%@xxxxxxxxxxxx",
"xxxxxxxxxwrrq0xxxxxxxiie;:h;;;ggllggl:gkjgy0;gg*%&%#xxxxxxxxxxxx",
"xxxxxxxxxwuuuq0xxxxxxelg;ie;ljghgg:gggghg;0;;-e0%&%#xxxx***xxxxx",
"xxxxxxxxxwuuueerqq**x0e*q;i;jhgg::ll;kglgg::-*%&%#@2xxx0e&$*xxxx",
"xxxxx*00qerrrreeeeeeeq0*lh*i;;:g::lljg:g;g:-g#@21,@@00ee0&@*xxxx",
"xxxx*uuu***qeeqqqqqqq*#*h:%-h;;:k;gjg;::gh;&g#@0<<, q**&$$@$xxxx",
"xxxx*uuu@$%q@%++++**t*****-q*wl;h:::;-y;hh$;##@0$,, &&$$@@@@$*xx",
"xxxxx*rq%$eeqX+cccz+++kXX&%rkj*;:;k;kh*%:;@# #h0,$, @@@@@@  @$*x",
"xxxxxrr$q*eeq@cccc&0qvX.%kwejge&k:-h0e&4+%%%# %;$,,      @  @#*x",
"xxxxxrr@*00ee$ccc&rrr.zv%g08M4&4h;l@h4k99X%jh:00g$,     @@@ #$*x",
"xxxxxrw#%XXXe0cc&wrnrt.@*#%9M+ # - :-# +M+$hhg%ch:**    @@ @#*xx",
"xxxxxrq&.X+++%%%qrrw0z@1q*#49M#,vh,- l$M6X@;gj**qqqq** @@   @*xx",
"xxxxxr0@.+++qqqq*r*,1&b0***@@@2;21,;z2@@@@,,jcjebectq*%@@n   @xx",
"xxxxxr0@..+qrrrrnw,bz120&$#@2@,h1,nhv,1@v@,1k*qcetttn%n@%%@  @xx",
"xxxxxr&&000rrrrrw0,vmzb&&2###@1nz;1z1z@@@,,12c&qqtt2zcv12cv$$@xx",
"xxxxxr&qqeqqqqeew0b22v22b%%%1z@z,lv1z,@@2,,11zb2bqqznnvcnc1v1#@x",
"xxxxxrq$eyyyq*qq**11b1c%****&nc21,212n1#$%%1b@21*v*cnvcnnncvc1#x",
"xxxxx%*qppyyppppp*1c$22%*&nc*c2zv11v,01#@#c11@@@%%%*$z2znc2czc1x",
"xxxx%q*tppwppppqpp112n2b*****$01,1211#0#@n$21@b@c#nv%nvqv&&qvz1x",
"xxxx%q*wqepppeqqqs1nc2z2&000nu9%wv000#90$$$c1@z2#%##n2qqqvqv021x",
"xxxxx%%*$qppeq***f,@b,c22&&n$rnw&&@%%000$c$c1@z2 v#@#qeiitqq011x",
"xxxxr%%%w&eq*&&&&s,@2,b,c&&*****&%@%%v2%%%$c1@@   n#*etvitvq&,,x",
"xxxxr*.%%wr*&&%$##,@,,2,b%%00000*$@$*00**%$bqttq *qettttttq&&,,x",
"xxxxr**.X++&%$##2+,@@,,,2$$%%$@@@@@@@@@$%$zfyytteteeeeqq**&&#,,x",
"xxxxxr0.X++b++++b+,@n,2, #$**00*$@@@$****#sse000%$%$$$######$,,x",
"xxxxxrq.X++++++b++12 , ,2  ,####@@ @@#### ys0%%%%%&&%%$$$#@@@,xx",
"xxxxxxr%.+q++byyy021b2,c@                 pw%%%%%%$$$#, ,   @xxx",
"xxxxxxr%.Xb++yeqqq012212 2 v#####@ @######yy&%%%%% ,  , ,   @xxx",
"xxxxxxr%.X++bbqq*z02y2zv,b ###@@@@ @@@@@@ ,y0%%%%##n@@@    @@xxx",
"xxxxxxrq.X+bbbqqqqqeey20b  v v            @%0%###@v#1ntq   @xxxx",
"xxxxxxxr%b++bqeeeqe*0&0,,vv,2@z1@@ @@@@   @@@ncnnnz20z%@ v@@xxxx",
"xxxxxxxrqXX0teyyye*v&&,v2v2v@,,@@   @@@@  n%zcncncnz1@z$ @@xxxxx",
"xxxxxxxxr.q&0eyyye&&$$c1,2v,z11@     @@@  @zcbnnnnzcv1$@@@xxxxxx",
"xxxxxxxxxqru0eeeeq&#$$@,v,2,,z          nzbcnznnnvvc,,@@zxxxxxxx",
"xxxxxxxxxxrr0$qqq*##$$1$12,2 1 1       @@cnccbnvz2221v,z@xxxxxxx",
"xxxxxxxxbxqq$%****@@@@@@$,1,@@@        n@cvcbvzz@%$21,,@@xxxxxxx",
"xxxxxxxxxx&q0%%&&#@@@$$@@$,,2 1    @   x@nvzvzqcq%$$1,,@zxxxxxxx",
"xxxxxxxxxxxx0&@$$$@@@$$@,,2,,@@@ @@x@@ xxzvzv0tcq*$$1z,@xvxxxxxx",
"xxxxxxxxxxxx0&$@###@@$$@,,,,1@@xxxxxxxxxx2vnv0tvq*$$@,,@xxxxxxxx",
"xxxxxxxxxxxxxw$@@@@@$@@x,,1,xxxxxxxnxxxbz2czv*0vq*$$@,,@xxxxxxxx",
"xxxxxxxxxxxxxx*@@@@@@xxxx,x,1xxxxxxxxxxxxxczc#*cq*$$@,,@xxxxxxxx",
"xxxxxxxxxxxxxxxw%%@@@@xx1,x,xx2xxxxxxxxxxxzzcx*zq*$@@,,xxxxxxxxx",
"xxxxxxxxxxxxxxzx0&@@@@xxx,x,xxxxxxxxxxxxxnzxzx#1q*$$@,@xxxxxxxxx",
"xxxxxxxxxxxxxxbxqq@@%@xxxxx,xxxxxxxxxxxxxx2xzxx10*$$@,@xxxxxxxxx",
"xxxxxxxxxxxxxxxxrq%0#@xxxxx,xxvxxxxxxx1xxxxxzxx#*&%e0,xxxxxxxxxx",
"xxxxxxxxxxxxxxxxrq%q#%xxxvxxxxxxxxxxxxxxxxxx2xx*00%0&&xxxxxxxxxx",
"xxxxxxxxxxxxxxxxyy*y*%xxxxx,xxxxxxxxxxxxxxxx2xx&qe0@&@xxxxxxxxxx",
"xxxxxxxxxxxxxxxryyyry*%xxxxxxxxxxxxxxxxxxxxxxxxxqe0#&@xxxxxxxxxx",
"xxxxxxxxxxxxxxrrr#r#>*%+52,5555555666778888xxxxxew#&078xxxxxxxxx",
"xxxxxxxxxxxxx8r=>@s@d*%XX2,Xoooooo+++++++3466664e0$e#467xxxxxxxx",
"xxxxxxxxxxx88776543++OOOXXXXXXXXXXXXXXXXX++++++%ee*0**@48xxxxxxx",
"xxxxxxxxxxxxx8776543+++OOOooooooXXXXXXXXXXXXoooee>#%#%%@788xxxxx",
"xxxxxxxxxxxxxxx87766653333+++++++OOOOXXXXXXXXooe*d@s@>=@4678xxxx",
"xxxxxxxxxxxxxxxxxxxxxxxxxxxxxxxxxxxxxx86554333333333333335678xxx"
};
