/* XPM */
static char *_2538_8980f50e7408b03eddbd2603c8fed64bfdbf05a7077cf8179478249174813648[] = {
/* columns rows colors chars-per-pixel */
"64 64 45 1 ",
"  c black",
". c #002800",
"X c #202020",
"o c #2C2C2C",
"O c #343434",
"+ c gray22",
"@ c #400000",
"# c #4C0000",
"$ c #580000",
"% c #640000",
"& c #700000",
"* c #7C0000",
"= c #543C1C",
"- c #045800",
"; c #047000",
": c #744C28",
"> c #400040",
", c #480048",
"< c #580058",
"1 c #6C0070",
"2 c gray25",
"3 c #484848",
"4 c #4C4C4C",
"5 c gray33",
"6 c gray36",
"7 c #646464",
"8 c #7C7C7C",
"9 c #880000",
"0 c #980000",
"q c #A40000",
"w c #B00000",
"e c #BC0000",
"r c #C80000",
"t c #D40000",
"y c #E00000",
"u c #EC0000",
"i c #FC0000",
"p c #FC2020",
"a c #9C4C00",
"s c #B45400",
"d c #E46C00",
"f c #840084",
"g c #FFC0CB",
"h c #9C009C",
"j c #989898",
/* pixels */
"gggggggggggggggggggqq*&ggggggggggggggggggggggggggggggggggggggggg",
"ggggggggggggggggggqeew9&gggggggggggggggggggggggggggggggggggggggg",
"ggggggggggggggggggweerw&gggggggggggggggggggggggggggggggggggggggg",
"ggggggggggggggg$00weerw&gggggggggggggggggggggggggggggggggggggggg",
"gggggggggggggg$0e***0wr9&gggggggggggggggggggggggggggg*****gggggg",
"gggggggggggggg$0e*$%0wrw9ggggggggggggggggggggggggggg90&$$*gggggg",
"ggggggggggggggg9$0*%*0rww&ggggggggggggggggggggggggg9w0&@@*gggggg",
"gggggggggggggg9e9*%**0wrw9ggggggggggggggggggggggggg0w0&@@$$$*ggg",
"ggggggggggggg9e9$*11>%0rww9ggggggggggggggggggggggg9w*&$@@@#$$*gg",
"gggggggggggg9e9$$f1>>o0wuyr9eiiyrewgiuuggggggggg90w0$@@  @##$*gg",
"gggggggggg99e9$@1h1>>%owuyr9eiiyrewuiuueggggg90www9$@@@  ##$*ggg",
"gggggggeee0e9$%$fh1>>%wupy0wtww0090upuee#g90qwwq09$ @@@@@##$*ggg",
"ggggggge0&$$$$X$hh1>>@wuiyw&wiiteq9iue9%##0ww09*&@ @@@@@@ @$*ggg",
"gggggge0&@@$$Xo1hh1>>*wwuiy0w00099ete9%%%#@@&&@  >h<,@@ @ $*gggg",
"gggggg00$@9%Xoofhe%>*0rrqr00%0tw00e090&&%%#@@   >h<,>@  @ $*gggg",
"gggggg00&00%Xoofeh%$*0rrw0ue%9***9t0*&**&%#@    h1,>>@  @ $*gggg",
"gggggg0$00$Xooo1he%$*9w*00riq*w00yu0%&*%&%#    #h%>>>>  @ $&gggg",
"ggggggg0$&$XXoooeq%$*99%00y99%&*90**%*9%&%#    99>$>>>  @ @&gggg",
"ggggggg00&$XoXooq9%$$**%0t0wr%q09ew%*w9$%#    #w*$>#>>> @ @&gggg",
"ggggggg00&$XXoX0rrrrrr&%e9uwr*%%9e0%w&0@#    #w9%##>#>>>@ @&gggg",
"gggggggg0&$ww0rrryyyrr%$e$uur0**tw0tw$0@#&$##w9%$###>>>>@ @%gggg",
"gggggggg0&www0wwrqqqyr$#q*;.t0eew0t.-** @00009&%#####>>>@@@%gggg",
"gggggggg0&wtyw*y9q09q%9qqqq**0*&**&****%%#0*909$#####>> @@@%gggg",
"gggggggg00wtyw*%%*****%9q&$*&&$@$&&%$*%%$#%%9999#####   @@#*gggg",
"ggggggggyy0www0*&%&%%%#%9%#&09%&09%$##%$#@@$&9&***%    @@@@#*ggg",
"gggggggwyy09000*&%&&$$##@%#%9@%&9@%#@###@@@$$&%000**@  @@ @@#*gg",
"ggggggwyyyw0$***$$%&&%$$#@%&9%&*9%&#@@#@@@#$*%%w000*% @@@  @@%gg",
"gg99g9wwwe009$$$$$$$%%%%%%%w*&&*99w&@@@@##$%**ww00*%@ @@$@@@%ggg",
"gg09qwwww009&%$@@##$%%%%$$383&@@@935o@###$%%**0000%#@%@@$@$$%ggg",
"gg*0rq009*&&%$@@@###$$$$$$8j+@@##@+8+@$$&%**00000*%#$&$@@@gggggg",
"ggwru$$**&&$$$X*%$####$%&*3875##$8j5o#@#$$#$*000*%$##%&$@ggggggg",
"ggwtr$%$$$$$$XX*0*###&%$#@@@@@@@@@@%@@#%#@@$$***$*&&#$%&gggggggg",
"ggwtw%*%$gg$$XXX*00%@@@$$#@          #%@$@@@$$$$&9q0$$%&$ggggggg",
"ggwtw90&#ggg$$XXX*00*%$@@@@@@@   @@@@@@@@@@    %&9qq0$%&$ggggggg",
"ggqt9e&##gggg$XXX%#  $$$@@@@        @@@@@@     %&9qqq$%&$ggggggg",
"gg0ttiw$gggggg$X9%%@@@@      @   @@@@@@@       %%9qqq&$&$ggggggg",
"gg0ii00w*gggggg9*&%@###@@@     @           @@@@@%&9qr&$&$ggggggg",
"g0iii0&wagggggg9*&$##$$$#@@  @@g@@     @@@ @@@@@@%%&r&$9&$%%gggg",
"giiqit0d&ggggg99*%$#&&%$##@@@@ggg@@@   @@@@ @@@&9wrqr9&*&$%#gggg",
"giqiq0&a&ggggg9*q*$%*&%$##@@@ggggg@  ttt*@@@@&9wwrrq99$*&$#ggggg",
"geiqe&&&gggggg9r0*$*9&%$#@@#@gggggg#0tttwwwwwwrrrrq9rq9$&#gggggg",
"ggeq&&&gggggg9*r9$#r9&%#@##@@ggggggdtt0**&&&&&&&&&&9qq9$$ggggggg",
"ggggggggggggg9*q9$#r0*%@#%#@@gggggga*0***%999999999999&$$ggggggg",
"ggggggggggggg9*9*$@*9%#@$%#@gggggggq****&&$$$$$$$$&&&&$$gggggggg",
"gggggggggggggg$%%@@@@@@@@$@@gggggggg****&&@@@@#$$$$$$$gggggggggg",
"gggggggggggggg9$#w**@$#@#@@gggggggggg&**&%@@@@@@@@@@@@gggggggggg",
"ggggggggggggggg9&w**#&$##@gggggggggggggg@@@@@@$%@@@@@ggggggggggg",
"ggggggggggggggrq99&%#9%#@ggggggggggggggg$$$@@#%%@@@@$ggggggggggg",
"ggggggggggggggrq99*%#9%#@gggggggggggggg@999&@$%@@@@$gggggggggggg",
"ggggggggggggggrr9q*%#&%#@gggggggggggggg$9ee&$%$@@@gggggggggggggg",
"gggggggggggggggr0q9&#&&$@gggggggggggggg%9ee&%@@#@ggggggggggggggg",
"gggggggggggggggg0q9&%#%#ggggggggggggggg%*99&@@@ggggggggggggggggg",
"gggggggggggggggg909&%###gggggggggggggggg%9&$@@gggggggggggggggggg",
"ggggggggggggggggg&w9%$##gggggggggggggg*&%w9@%ggggggggggggggggggg",
"ggggggggggggggggggr9%$#gggggggggggggg*99%9&&$ggggggggggggggggggg",
"gggggggggggggggggwr9w$##ggggggggggggg&9w9@&@@ggggggggggggggggggg",
"ggggggggggggggggg0&&9%##@ggggggggggggg%&w9#&@ggggggggggggggggggg",
"ggggggggggggggggg*w&%9%#@gggggggggggggg%w9#9#ggggggggggggggggggg",
"ggggggggggggggggggw0%9%@@gggggggggggggg%ww*9**@ggggggggggggggggg",
"ggggggggggggggggggw0%9%@gg776654432++OOww:#%#%%@33556677gggggggg",
"ggggggggggggggggggw0%9#gg776544332+Oooow*s@a@:=@oooo+2355677gggg",
"ggggggggggggggggtyttw9##gggg7532++OOOooooooooooooooooo+235677ggg",
"gggggggggggggggt0t0w0:%#oooooooooooooooooooooooooooo+233567ggggg",
"ggggggggggggggg*=:*a*s*%oooOO+++++22233355677ggggggggggggggggggg"
};
