/* XPM */
static char *_208_f4915114f0305c6cb305719c2072265fce324176de327fc39014122950d043b4[] = {
/* columns rows colors chars-per-pixel */
"64 64 46 1 ",
"  c black",
". c #002800",
"X c #202020",
"o c #2C2C2C",
"O c gray19",
"+ c #343434",
"@ c gray22",
"# c #400000",
"$ c #4C0000",
"% c #580000",
"& c #640000",
"* c #700000",
"= c #7C0000",
"- c #543C1C",
"; c #045800",
": c #047000",
"> c #744C28",
", c #400040",
"< c #480048",
"1 c #580058",
"2 c #6C0070",
"3 c gray25",
"4 c #484848",
"5 c #4C4C4C",
"6 c gray33",
"7 c gray36",
"8 c #646464",
"9 c #7C7C7C",
"0 c #880000",
"q c #980000",
"w c #A40000",
"e c #B00000",
"r c #BC0000",
"t c #C80000",
"y c #D40000",
"u c #E00000",
"i c #EC0000",
"p c #FC0000",
"a c #FC2020",
"s c #9C4C00",
"d c #B45400",
"f c #E46C00",
"g c #840084",
"h c #FFC0CB",
"j c #9C009C",
"k c #989898",
/* pixels */
"hhhhhhhhhhhhhhhhhhhhhhhhhhhhhhhhhhhhhhhhhhhhhhhhhhhhhhhhhhhhhhhh",
"hhhhhhhhhhhhhhhhhhhhhhhhhhhhhhhhhhhhhhhhhhhhhhhhh====hhhhhhhhhhh",
"hhhhhhhhhhhhhhhhhhhhhhhhhhhhhhhhhhhhhhhhhhhhhhhh0q*%=hhhhhhhhhhh",
"hhhhhhhhhhhhhww=hhhhhhhhhhhhhhhhhhhhhhhhhhhhhhh0eq*#=hhhhhhhhhhh",
"hhhhhhhhhhhhwrre0hhhhhhhhhhhhhhhhhhhhhhhhhhhhhhqeq*#%%%=hhhhhhhh",
"hhhhhhhhhhhherree0hhhhhhhhhhhhhhhhhhhhhhhhhhhh&q=*%###$%=hhhhhhh",
"hhhhhhhh%*=qerreee0hhhhhhhhhhhhhhhhhhhhhhhhhh&qq%##  #$$=hhhhhhh",
"hhhhhhh%*=q==qe0eee0hhhhhhhhhhhhhhhhhhhhhhhh&q0*###  $$%hhhhhhhh",
"hhhhhhhh%qq#%=q00eee0hhhhhhhhhhhhhhhhhhhhhh&=0*# ### $$=hhhhhhhh",
"hhhhhhhh%qq&%&q#&0eee0&hhiuthrpputrehpiihh&00=#  #####$$=hhhhhhh",
"hhhhhhh%=q%q=&=qo&0eee0&iauqeyeeqq0qiairr&===,2 ### ## #%hhhhhhh",
"hhhhhhh%q=#=&==q#oo0e=#eipue*eppyrw0pir0&$$==221###  #  %=hhhhhh",
"hhhhhhh&q*$&=o&*%oo$0#=eeipuqeqqq00ryr0&&&$##221,#   ## %==hhhhh",
"hhhhhh*q*#&=ooX*&#oo0=qttwtqq&qyeqqrq0q**&&$#221,#    #  #=hhhhh",
"hhhhhh*q##=ooog11#oo$=qtteqir&0===0yq=*==*&$#00<<,     # #$=hhhh",
"hhhhh&q*#=oXooj2,,ooo=0e=qqtpw=eqquiq&*=&*&$#00%,,     # ##$=hhh",
"hhhh&qq*XXXoX1jg1,ooo=00&qqu00&*=0q==&=0&*&$&00,%,     #$ ##$=hh",
"hhh&qq*#XXoXogjj2,,ooo==&qyqet&wq0re&=e0%&$ &00%,,      $  ##&hh",
"hhh&qq##*XXX1gjjw1%Xooo*&r0iet=&&0rq&e*q#$  000%%,      $###&hhh",
"hhhh&q*qqXX#gjjrjw%%XXX&%r%iitq==yeqye%q#$tttw0%%       ####&hhh",
"hhhh&%qq%X#gjjrjrw*%#XX%$w=:.yqrreqy.;== #=======%$    ###=hhhhh",
"hhhhh%%%*%#gjjjrww=%##&0wwww==q=*==*====&&$&#%=====&$  ###=hhhhh",
"hhhhhhhh%%#2jjrwwww%ww&&0w*%=**%#%**&%=&&%$&&=qqqqq==$ ##=hhhhhh",
"hhhhhhhhh*%X1gwwwwttw==$&0&$*q0&*q0&%$$&%$##=qeeqqq=&%###=hhhhhh",
"hhhhhhhhh%*XXX0qwttwwwq=$$&$&0#&*0#&$#$$$###qeeeqq=&$$%%#hhhhhhh",
"hhhhhhhhhh*Xeeq=*t=qqq===%%&*0&*=0&*$##$###&qqqqqq=&$*0*#hhhhhhh",
"hhhhhhhhhh#qeye=*&0qq&&&&&&&e=**=00e*####&&========&*&*0#hhhhhhh",
"hhhhhhhhhhh=eeeq=&&**&&&&%%494*###046o#&&===****=&&*0&&*##h#hhhh",
"hhhhhhhhhhh=eeeq=*&&&%%%%%%9k@##$$#@9@#&**=%##$&&=%$*==&%####hhh",
"hhhhhhhhhh0**&===*&&%%%%&*=4986$$%9k6o$==%$$$# $$$&%%&*=*%#&#hhh",
"hhhhhhhhh0ete*&&=*&$$$*&%$##########&##$&$$#$#  $$$$&&%%$0&&qhhh",
"hhhhhhhh0ete0&%=&&######%%$#          $&#%##$     $$&&%%$$0q*hhh",
"hhhhhhhhqee00%e*$0#############   ##########        $$=$$$q0$hhh",
"hhhhhhh0ee0=&ee&&&%$# #######        ######          $$$$$0e$hhh",
"hhh*qhheeq=&ee0&&%%$##     ####   #######   ###       $$%=qq&hhh",
"hhhw=qqee&=ee0&&%$$#####        #           ####  ##  &qqq=&&hhh",
"hhhw=ttq*=e&0*&%$####$$###    ##h##      ## #%%#$ ###hhqetq*&%hh",
"hhhw=tqt$$%##$$###%&%$#######%#hhh###   ### #%%%$$ ###hqttq*&%hh",
"hhhh&q=t$%##$####%&%$########%hhhhh##   ### #%%%%$####hett0*%%hh",
"hhhh&&tyqq&$$###$$$$####h###hhhhhhhhh########*&%&$#%##hhet0*%%hh",
"hhhhh0ppteq$$$#$$######hhhhhhhhhhhhhhhhh#&###*&&&$#%%##hqe0*%hhh",
"hhhhq*rpytq=$$#######hhhhhhhhhhhhhhhhhhh#&&##0**&$#%%##hhq0*%hhh",
"hhhhru0tpte=$$$#hhhhhhhhhhhhhhhhhhhhhhhh#&=&#=0==$#%###hhq0%%hhh",
"hhhhrr*0tppe=$$##hhhhhhhhhhhhhhhhhhhhhhh#&=&##==&######hqq0%%hhh",
"hhhhqqq*0qtyypee=##hhhhhhhhhhhhhhhhhhhhhh#&###########hsppy%hhhh",
"hhhh*qq%&&qppqqee%#hhhhhhhhhhhhhhhhhhhhhh##&#**#&%####hyfyy%%hhh",
"hhhhh**%%qpppq*es%#hhhhhhhhhhhhhhhhhhhhhhh#&*qq*&%###hhps*q%%hhh",
"hhhhhhh*$ppwpyqf*%#hhhhhhhhhhhhhhhhhhhhhhhh#0tt&&%####hyw**%%hhh",
"hhhhhhhw=pwpwq*s*% #hhhhhhhhhhhhhhhhhhhhhhh#0tt&&%#%##hhy%%%%hhh",
"hhhhhhhw=rpwr***%%%#hhhhhhhhhhhhhhhhhhhhhhh#0te&&%#%##hhh0%%%hhh",
"hhhhhhhhw=rw***%%%%#hhhhhhhhhhhhhhhhhhhhhhh$#e0=&%#%##hhhhhhhhhh",
"hhhhhhhhh*%*hhhq&#$$%##hhhhhhhhhhhhhhhhhhhhh$$=0&%#%#hhhhhhhhhhh",
"hhhhhhhhhhhhhhhh0*##&&*#hhhhhhhhhhhhhhhhhhhhh&=0&%###hhhhhhhhhhh",
"hhhhhhhhhhhhhhhhqq##&&*$hhhhhhhhhhhhhhhhhhhhh&=0&%##hhhhhhhhhhhh",
"hhhhhhhhhhhhhhhhhrq&0$$$hhhhhhhhhhhhhhhhhhhhhh&0&%#hhhhhhhhhhhhh",
"hhhhhhhhhhhhhhhhhrq&q$#hhhhhhhhhhhhhhhhhhhhhh=*&e0#&hhhhhhhhhhhh",
"hhhhhhhhhhhhhhhhhrq&q$hhhhhhhhhhhhhhhhhhhhhh=00&0**%hhhhhhhhhhhh",
"hhhhhhhhhhhhhhhryryry&&hhhhhhhhhhhhhhhhhhhhh*0e0#*##hhhhhhhhhhhh",
"hhhhhhhhhhhhhhrrr$r$>e&@5555555555666778888h&*e0$*#hhhhhhhhhhhhh",
"hhhhhhhhhhhhh8r->#s#d=&oooooOOOOOO@@@@@@@3466&e0$0$78hhhhhhhhhhh",
"hhhhhhhhhhh88776543@@+++ooooooooooooooooo@@@34e0%e$467788hhhhhhh",
"hhhhhhhhhhhhh8776543@@@+++OOOOOOooooooooooooO&ee=0==#457788hhhhh",
"hhhhhhhhhhhhhhh87766653333@@@@@@@++++ooooooooee>$&$&&#@34678hhhh",
"hhhhhhhhhhhhhhhhhhhhhhhhhhhhhhhhhhhhhh865543@e=d#s#>-#@@35678hhh"
};
