/* XPM */
static char *_4709_2af1ffb0fae9888bb6a8fdf199fcf767d6e2c8c871929a53c48f05eac8b01920[] = {
/* columns rows colors chars-per-pixel */
"64 64 54 1 ",
"  c black",
". c #002800",
"X c #202020",
"o c #2C2C2C",
"O c gray19",
"+ c #343434",
"@ c gray22",
"# c #400000",
"$ c #4C0000",
"% c #580000",
"& c #640000",
"* c #700000",
"= c #7C0000",
"- c #543C1C",
"; c #044C00",
": c #045800",
"> c #046400",
", c #047000",
"< c #047C00",
"1 c #404000",
"2 c #585400",
"3 c #706C00",
"4 c #744C28",
"5 c #400040",
"6 c #480048",
"7 c #580058",
"8 c #6C0070",
"9 c gray25",
"0 c #484848",
"q c #4C4C4C",
"w c gray33",
"e c gray36",
"r c #646464",
"t c #7C7C7C",
"y c #880000",
"u c #980000",
"i c #A40000",
"p c #B00000",
"a c #BC0000",
"s c #C80000",
"d c #D40000",
"f c #E00000",
"g c #EC0000",
"h c #FC0000",
"j c #9C4C00",
"k c #B45400",
"l c #E46C00",
"z c #048800",
"x c #049800",
"c c #848400",
"v c #840084",
"b c #FFC0CB",
"n c #9C009C",
"m c #989898",
/* pixels */
"bbbbbbbbbbbbbbbbbbbbii=*bbbbbbbbbbbbbbbbbbbbbbbbbbbbbbbbbbbbbbbb",
"bbbbbbbbbbbbbbbbbbbigapy*bbbbbbbbbbbbbbbbbbbbbbbbbbbbbbbbbbbbbbb",
"bbbbbbbbbbbbbbbbb==psssp*%bbbbbbbbbbbbbbbbbbbbbbbbbbbbbbbbbbbbbb",
"bbbbbbbbbbbbbbbb=aupsssp*%%bbbbbbbbbbbbbbbbbbbbbbb=====bbbbbbbbb",
"bbbbbbbbbbbbbbbuaa===upgu*=%bbbbbbbbbbbbbbbbbbbbbyu*%%=bbbbbbbbb",
"bbbbbbbbbbbbbbuaau=%&upsgu*=%bbbbbbbbbbbbbbbbbbbypu*##=bbbbbbbbb",
"bbbbbbaaabbaaaau*%=885&uggu&=%bbbbbbbbbbbbbbbbbbupu*##%%%=bbbbbb",
"bbbbbaaaaaaaa=&###v855ouagp*@=%bbbbbbbbbbbbbbbbyu=*%###$%%=bbbbb",
"bbbbaa*%yyyyy****8n855&ypggu&o%%bbbbbbbbbbbbbbyuu%##  #$$%=bbbbb",
"bbbbau##%%%%%XXoovn855&pggfp*phhdaibhgaybbbbyyuy%###  $$%=bbbbbb",
"bbbbau##&XoooOOOOnn855#pghhfupuuuy*hday&a&&y==y% #####$$%=bbbbbb",
"bbbbbuuu&XoO+++@8nn855=pphsuu&udpuuhuyu*&$===*# ### ####%bbbbbbb",
"bbbbbu%u%Xo+@@@@vna&5=ussuhshi===*hgu&*=&&$### ##5n86###%=bbbbbb",
"bbbbbbu%*%o+@@@@van&%=us=agups&iuyhp&=py=&&$# ##5n765#  %=bbbbbb",
"bbbbbbuu*%o+@@@@8na&%=yp&gygps=&&yau&g*u&*&$# ##n8655## #&=bbbbb",
"bbbbbbuu*%o+@@@@@ai&%=yy&i%ggsu==gpugs%u&*&$###$n&5555#  &=bbbbb",
"bbbbbbuu*%o+@@@@@iy&%%==&i=,.duagpug.:==%*&$###yy5%555## #&=bbbb",
"bbbbbbbu*%o+@@@@usssss=aaaai==u====*=uaau&$$ #$p=%5$555# ##=bbbb",
"bbbbbbbuu%%+ppusssfffssyaau**su=$su&%*uu#$$ #$py&$$5$555# #&bbbb",
"bbbbbbbuu*%ppffppsiiiii&=y&%yp#&*p#&=%**$$yy%py&%$$$5555 ##$=bbb",
"bbbbbbbbu**pdff==yiuyy&$$*$&uu&*uu&*u$$%$&ssuy*&$$$$$555 $##$=bb",
"bbbbbbbpsffpdff=%&==&&&y$%$pp=ypppypp=$$%%$&==%$##$$$55  # ##$=b",
"bbyybypffffupppu=*&*&&y*$$pt0*     y0w=$#&$&#=u$##$$     #  ##&b",
"bbuyipffffayuuuu=*&yiyy$%$#rtw     tm0#$#$&#&%====&     #####&bb",
"bb=usssssauu%====%%&yyy%&&%$$*$   $*$$#$####==uuuu==#   ###%%&bb",
"bbpsgggaauuy*%%%%%%%%&yy&&%$$y$75 $y$$#$###&uuppuuu=&#  ###*bbbb",
"bbpdsggguy**%%&%##$$%&&&&%&$y$$775$$y$###$%*=uppuu=&#$ ###%=bbbb",
"bbp<<<<;%*%%%&%###$$$%*%%%%ft&iyyyy$ty#$$%%&*=uuuu&##$ ##%=bbbbb",
"bb<jjj2<;%%%u*o@=*&%$$$***%aii&&&&&yyy#$$%%%&*uuu=&##&&##%bbbbbb",
"b,2jj222<;bbu*o+=u=&$$##%$=$&&$$$$$&&$$$$%$%&*===&&#y&u&%bbbbbbb",
"bxjjj2123>bbu*$o+=u&&## ############$##$$$##%&&&&=%$*=*u*$bbbbbb",
"bjj2jj2c1x;bu*$o+&==&&###             #######  $$$&%%&*uu&$bbbbb",
"bj2j22131x;bbu*o@y#==&&%#####    ############## $$$*y==*uu&bbbbb",
"bjj2j111x,;bbu*$o&%$#%%%%#####    ############    $&yiy=uu&$bbbb",
"b,j2111x,:bbbbu*$o%#$######          #######      $$&iiy*u&$$$$b",
"bb,<zxx,:bbbbbuu=&&$#$   ######  ######      ###   $$&iy*uu&$$$b",
"bbb>>:;;bbbbuu=&%$##    #              ##   ##### ##$$$*uu=&&$$b",
"bbbbbbbbbbuui=%$###%%##  # ####   #### #    ###### ###$ysuy*&%bb",
"bbbbbbbbbuii=$###&&%#           #        #  #%%%#####yssuuy*&%bb",
"bbbbbbbbyii=&*%#%=&# ## ##    ##b##     ### #%%%$##%#sssuu*&%%bb",
"bbbbbbbyisu==%#%&###%%$######%#bbb###  ##&###&&&%##%%sssuy*&%bbb",
"bbbbbbupspu=%$#&###$&%#######%bbbbb##  ##&&#$==&&##%yssuy*&%bbbb",
"bbbbbupssp=*$$$##$$%####b###bbbbbbbbb####&=&#=yy=##%suuy**%bbbbb",
"bbbbbufffsy&&$%#$$$####bbbbbbbbbbbbbbbb##&y&#$==&##suuy**%bbbbbb",
"bbbbuuffff%**y#%%%$###bbbbbbbbbbbbbbbbbbb#######uuy&&yy%bbbbbbbb",
"bbbbafuppu*yu*#&*&###bbbbbbbbbbbbbbbbbbbb##&#**jhhdu&&%bbbbbbbbb",
"bbbbaauyyy*uy*#&&&##bbbbbbbbbbbbbbbbbbbbbb#u*uulyuuu&&&bbbbbbbbb",
"bbbbuu*uu*u*######bbbbbbbbbbbbbbbbbbbbbbbb###ysjy*&&&&&bbbbbbbbb",
"bbbb***uu**$##$%%bbbbbbbbbbbbbbbbbbbbbbbbbb##ysdi**&&&&bbbbbbbbb",
"bbbbb**==####$&&%bbbbbbbbbbbbbbbbbbbbbbbbbbb#yspd&&&&&&bbbbbbbbb",
"bbbbbbbp*pu$#$&&$bbbbbbbbbbbbbbbbbbbbbbbbbbbb#=uyy&&&&#bbbbbbbbb",
"bbbbbbbpu*u&##%##bbbbbbbbbbbbbbbbbbbbbbbbbbbb$$$%**#%#bbbbbbbbbb",
"bbbbbbbbu=$=##%%bbbbbbbbbbbbbbbbbbbbbbbbbbbbbb&&&=y###bbbbbbbbbb",
"bbbbbbbbbb$*=%*%bbbbbbbbbbbbbbbbbbbbbbbbbbbbbbb&*yu%##bbbbbbbbbb",
"bbbbbbbbbbbau&y$bbbbbbbbbbbbbbbbbbbbbbbbbbbbbbbb&yp%#bbbbbbbbbbb",
"bbbbbbbbbbbau&u$bbbbbbbbbbbbbbbbbbbbbbbbbbbbbbbb*day#&bbbbbbbbbb",
"bbbbbbbbbbbau&u$#bbbbbbbbbbbbbbbbbbbbbbbbbbbbbb&yay**%#bbbbbbbbb",
"bbbbbbbbbadadad&&#bbbbbbbbbbbbbbbbbbbbbbbbbbbbb&yp#*###bbbbbbbbb",
"bbbbbbbbbaa$a$4p&#qqqqqqqqqqqqqqqqwwweerrrrrrbb&yp&y###bbbbbbbbb",
"bbbbbbbbb-4#j#k=&#ooooooooooOOOOOO@@@@@@@9000wwbyp*u$#rbbbbbbbbb",
"bbbbbbbbbbbrreewq09@@+++ooooooooooooooooo@@@@@90yp=p$#werbbbbbbb",
"bbbbbbbbbbbbbreewq09@@@+++OOOOOOooooooooooooooO&ddppp=#0errbbbbb",
"bbbbbbbbbbbbbbbreewwwq9999@@@@@@@++++oooooooooopd4$&$&&#0werbbbb",
"bbbbbbbbbbbbbbbbbbbbbbbbbbbbbbbbbbbbbbrwqq0009@p=k#j#4-#9qwerbbb"
};
