/* XPM */
static char *_3604_ae1eb98096263f9988e5023dd906ab530849e5d1bb0b8c49b3e682106d4d0785[] = {
/* columns rows colors chars-per-pixel */
"64 64 55 1 ",
"  c black",
". c #202020",
"X c #2C2C2C",
"o c gray19",
"O c #343434",
"+ c gray22",
"@ c #400000",
"# c #4C0000",
"$ c #580000",
"% c #640000",
"& c #700000",
"* c #7C0000",
"= c #543C1C",
"- c #404000",
"; c #585400",
": c #706C00",
"> c #744C28",
", c #400040",
"< c #480048",
"1 c #580058",
"2 c #6C0070",
"3 c gray25",
"4 c #484848",
"5 c #4C4C4C",
"6 c gray33",
"7 c gray36",
"8 c #646464",
"9 c #7C7C7C",
"0 c #880000",
"q c #980000",
"w c #A40000",
"e c #B00000",
"r c #BC0000",
"t c #C80000",
"y c #D40000",
"u c #E00000",
"i c #EC0000",
"p c #FC0000",
"a c #FC2020",
"s c #9C4C00",
"d c #B45400",
"f c #E46C00",
"g c #848400",
"h c #9C9C00",
"j c #B4AC00",
"k c #CCC400",
"l c #E4D800",
"z c #840084",
"x c #FFC0CB",
"c c #9C009C",
"v c #B400B4",
"b c #C800CC",
"n c #E000E4",
"m c #FC20FC",
"M c #989898",
/* pixels */
"xxxxxxxxxxxxxxxxxxxxxxxxxxxxxxxxxxxxxxxxxxxxxxxxxxxxxxxxxxxxxxxx",
"xxxxxxxxxxxxxxxxxxxxxxxxxxxxxxxxxxxxxxxxxxxxxxxxxxxxxxxxxxxxxxxx",
"xxxxxxxxxxxxxxxxxxxxxxxxxxxxxxxxxxxaxxu0xxxxxxxxxxxxxxxxxxxxxxxx",
"xxxxxxxxxxxxxxxxxxxxxxxxu&xxxxxxxxaqxxxxxxxxxxxxxxxxxxxxxxxxxxxx",
"xxxxxxxxxxxxxxxxxxxxxxxxxxxlxxlxxaq&yxxxxxxxxxxxxxxxxxxxxxxxxxxx",
"xxxxxxxxxxxxxxxxxxxxxxxxxxxxxxhxll&l&yxhiixxxxxxxxxxxxxxxxxxxxxx",
"xxxxxxxxxxww*xxxxxxxxxxxiuhlxxxxll&h&&plrrrxxxxxxxxxx****xxxxxxx",
"xxxxxxxxxwrrq0xxxxxxxxxiaue:xl:phh::&hyr00%#xxxxxxxx0q&$*xxxxxxx",
"xxxxxxxxxwrreq00xxxxxxeipphl:;::j:l::iq0q%%%#xxxxxx0eq&@*xxxxxxx",
"xxxxxxxxxwrreeeq0*xxx*eeit:lljkh:;:;lrqhk&&%%#&&000qeq&@$xxxxxxx",
"xxxxx$&*qeqe0qeeeq**xqtthq:hlh;l;:ll:l%*e**&%@#qqqq0*&$@@$$*xxxx",
"xxxx$&*q***q00qeeeeq*qtteyh:h:h:j;ll:*%e&*%&%#1q00&&$@@  @#$*xxx",
"xxxx$$qq@$%q@%0qqeeeq0e*q0ie:l-:::::%*ky$0%&%#1,@@@@@@@  @##*xxx",
"xxxxx$qq%$%*qX%z***q0*0e*q0ih:-:l:lqle&*%&%#@21,@@   @@@ ##$xxxx",
"xxxx$*q$q***q@Xc2,,*#*00%qhietk-*h:q0y$0%&%#@0<<,   @@@@@##*xxxx",
"xxxx$q*@*%X%$$Xcz,tXXX**%q*wlyh-h:qlyw%0$l##@0$,,  @@@@ @@##*xxx",
"xxxx%q&#%*XX$$zcc,,XtXX&%rk0*wt-&wt&*%-q@# #%0,$,  @@    @ @*xxx",
"xxxx&q&@%*XXX$ccc,,vX.%0wwgk;y@k&y@%;;-*%%# %0$,, @@     @ @*xxx",
"xxxx&q&@*XXXX$cccw$.zv%%0wee%0@-&0@%e*#%%$# 00$$, @      @ @*xxx",
"xxxx%q&@*X.XXXccrw$t.@*#%e84e&%-*00e&4+%$#@@%c****%      @ @*xxx",
"xxx%qq&...X.XXrcrw&z@1q*#8M4&4 @@@ 4099X@@@@**qqqq**@    @ @*xxx",
"xx%qq&@..X.XX.crwzt$z0***9M+ # ,  ,# +M+@@@%qqbecqq*%@   @ @@#*x",
"xx%qq@@&......wwwwtv10&$#49M#,  ,  $$M6X,,@cqeeeqq*%@#   # @@#*x",
"xxx%q&qq......0uwttww&&$#####&1,,1 &##@,,12*qcqqqq%@@#@  #  @@%x",
"xxx%$qq$....eeuu&t*2q2%%%%*#10,11,,01##,,12c&qbqq*%@@%%@ #@@@%xx",
"xxxx$$$&#...eyu*,1&b0$%%%$$#0#,121,#0#$%,11zb2***%%v12cv$ @@@%xx",
"xxxxx&&&$#eeuuu,2z12&$$%$##u9%w0000#90@#%1b@21%%%*$#2221&@@@xxxx",
"xxxxxx&&ee**0tu,vmzc%2$#$$#rww%%%%%000@%c11@@@c##v%2c1c1q%#xxxxx",
"xxxxxxxee0uue0**22v2$,&#####%%## ##%%####21@b@#%###2zn*,qq%xxxxx",
"xxx&qxee0uuue&%%c12z,2@########@ @#####c#c1@z2 ##@#vzv0*qv%#xxxx",
"xxxw*qqeeuut0%$,b11c12@@@######@ @#####@@c1@@   @@#21wn0&v%####x",
"xxxw*ttq&eee0%$,z11c1,@@@@@@         @@@@b1@     n@,1%w0&qq%###x",
"xxxw*tqtq0$%%$,,,1@b,1 @@@@@@@@   @@@@@@@@,        ,,##&qq*%%##x",
"xxxx%q*tyyre%,,%,@$#@1   ,@@@@     @@@@   ,        ,,#&qtq0&%$xx",
"xxxx%%teeyiyee02,2    c                   ,        ,,qttqq0&%$xx",
"xxxxx0y*qyyye0%2,@  c    ,###@@  @@##@@             ,tttqq&%$xxx",
"xxxxx0eq*yyyre0$,@21c, c@  c@      @@     @@ ,,, ,  ,tttq0&%$xxx",
"xxxxxx0ee0eyyppppp*,zzc  @@,,@@  @@@@@@    @@,,,#n@@@ttq0&%$xxxx",
"xxxxxxxx&&0yppppqpp2cb2b,c @@@    @@@@    @z211zv#1ntqq0&&$xxxxx",
"xxxxxxxxxx0pppppees1,c2,  2              v@@v1n11@@tqq0&&$xxxxxx",
"xxxxxxxx0tqpppqeqf&#c1,c ,   @        @ @@@n 1nzqq0%%00$xxxxxxxx",
"xxxxxxxq&0qppwe&&s&$c,#,@@b@2    @     @@%z@c2vsppyq%%$xxxxxxxxx",
"xxxxxxxru0eree&&&&$@@,2,@,,    @@x@@   @@z@vzv2yfyyq%%%@xxxxxxxx",
"xxxxxxxrr0$*r&&&&$$,2,@,@@,@@@$xxxxx@@  @tv%nzvps&q%%%%@xxxxxxxx",
"xxxxxxxqq$%%###@@@@@@,@,2@@@@xxxxxxxxx@@@@*%zz,yw&&%%%%@xxxxxxxx",
"xxxxxxx&q0%%&&#@@@$$@@x,xxxxxxxxxxxxxxxn@@v@v1z,y%%%%%%@xxxxxxxx",
"xxxxxxxxx0&%0&$#@@$$@@x,xxxxxxxxxxxxxxxx@@@%z&1@%0%%%%@xxxxxxxxx",
"xxxxxxxxx0&%0&&#@@$$@xx1xxxxxxxxxxxxxxxxx@@%2qq&%$@,@@@xxxxxxxxx",
"xxxxxxxxxx0&%*&$#@$@@@xzxxxxxxxxxxxxxxxxxx@@20tt*%$,$@@xxxxxxxxx",
"xxxxxxxxxxxww0&$$@$@@@xzxxxxxxxxxxxxxxxnxxxx20te0*$,$@@xxxxxxxxx",
"xxxxxxxxxxxxxw*&$@@@@xxxxxxxxxxxxxxxxxxxxxxx2@eq0*$,$@xxxxxxxxxx",
"xxxxxxxxxxxxxxw&%@@#$@xxxxxxxxxxxxxxxxxxxxxx2#0qq*$,$xxxxxxxxxxx",
"xxxxxxxxxxxxxxx0&@@%%&xxxxxxxxxxxxxxxxxxxxxx1%*0q*@,@xxxxxxxxxxx",
"xxxxxxxxxxxxxxxqq@@%%#xxxxxxxxxxxxxxxxxxxxxxxx%*q*$@,xxxxxxxxxxx",
"xxxxxxxxxxxxxxxxrq%0#@xxxxxxxxxxxxxxxxxxxxxxxx%%0*$@xxxxxxxxxxxx",
"xxxxxxxxxxxxxxxxrq%q#xxxxxxxxxxxxxxxxxxxxxxxx**&%e0@%xxxxxxxxxxx",
"xxxxxxxxxxxxxxxxrq%q#xxxxxxxxxxxxxxxxxxxxxxxx*00%0&&$xxxxxxxxxxx",
"xxxxxxxxxxxxxxxryryry%xxxxxxxxxxxxxxxxxxxxxxx&qe0@&@xxxxxxxxxxxx",
"xxxxxxxxxxxxxxrrr#r#>e%+5555555555666778888xx&qe0#&@xxxxxxxxxxxx",
"xxxxxxxxxxxxx8r=>@s@d*%XXXXXoooooo+++++++3466%ew#&078xxxxxxxxxxx",
"xxxxxxxxxxx88776543++OOOXXXXXXXXXXXXXXXXX+++34e0$e#467788xxxxxxx",
"xxxxxxxxxxxxx8776543+++OOOooooooXXXXXXXXXXXXo%ee*0**@457788xxxxx",
"xxxxxxxxxxxxxxx87766653333+++++++OOOOXXXXXXXXee>#%#%%@+34678xxxx",
"xxxxxxxxxxxxxxxxxxxxxxxxxxxxxxxxxxxxxx865543+e*d@s@>=@++35678xxx"
};
