/* XPM */
static char *_3997_5c9a21c63e210e2c69c54a2827c43be230cccbd0e1b98168e3f498bc8e6bbc32[] = {
/* columns rows colors chars-per-pixel */
"64 64 64 1 ",
"  c black",
". c #2C2C2C",
"X c #343434",
"o c gray22",
"O c #400000",
"+ c #4C0000",
"@ c #580000",
"# c #640000",
"$ c #700000",
"% c #7C0000",
"& c #543C1C",
"* c #404000",
"= c #585400",
"- c #706C00",
"; c #6C4824",
": c #744C28",
"> c #400040",
", c #580058",
"< c #6C0070",
"1 c gray25",
"2 c #484848",
"3 c #4C4C4C",
"4 c gray33",
"5 c gray36",
"6 c #646464",
"7 c gray44",
"8 c #7C7C7C",
"9 c #880000",
"0 c #980000",
"q c #A40000",
"w c #B00000",
"e c #BC0000",
"r c #C80000",
"t c #D40000",
"y c #E00000",
"u c #EC0000",
"i c #FC0000",
"p c #FC2020",
"a c #9C4C00",
"s c #B45400",
"d c #E46C00",
"f c #848400",
"g c #9C9C00",
"h c #B4AC00",
"j c #FC8820",
"k c #CCC400",
"l c #E4D800",
"z c #FCF400",
"x c #FCF420",
"c c #840084",
"v c #FFC0CB",
"b c #9C009C",
"n c #B400B4",
"m c #C800CC",
"M c #E000E4",
"N c #FC00FC",
"B c #FC20FC",
"V c #FFC0CB",
"C c gray55",
"Z c #989898",
"A c gray66",
"S c #B4B4B4",
"D c #D0D0D0",
"F c #ECECEC",
/* pixels */
"vvvvvvvvvvvvvvvvvvvvvvvvvvvvvvvvvvvvvvvvvvvvvvvvvvvvvvvvvvvvvvvv",
"vvvvvvvvvvvvvvvvvvvvvvvvvvvvvvvvvvvvvvvvvvvvvvvvvvvvvvvvvvvvvvvv",
"vvvvvvvvvvvvvvvvvvvvvvvvvvvvvvvvvvvvvvvvvvvvvvvvvvvvvvvvvvvvvvvv",
"vvvvvvvvvvvvvvvvvvvvvvvvvvvvvvvvvvvvvvvvvvvvvvvvvvvvvvvvvvvvvvvv",
"vvvvvvvvvvvvvvvvvvvvvvvvvvvvvvvvvvvvvvvvvvvvvvvvvvvvvvvvvvvvvvvv",
"vvvvvvvvvvvvvvvvvvvvvvvvvvvvvvvvvvvvvvvvvvvvvvvvvvvvvvvvvvvvvvvv",
"vvvvvvvvvvvvvvvvvvvvvvvvvvvvvvvvvvvvvvvvvvvvgkk-vvvvvvvvvvvvvvvv",
"vvvvvvvvvvvvvvvvvvvvvvvvvvvvvvvvvvvvvvvvvvvvvkhhvvvgvvvuuuvvvvvv",
"vvvvvvvvvvvvvvvvvvvvvvvvvvvvvvvvvvvvvvvvvvvvvfffvgg-vvuiu$uvvvvv",
"vvvvvvvvvvvvvvvvvvvvvvvvvvvvvvvvvvvvvvvvvvvkz-gvvvggvvfte99vvvvv",
"vvvvvvvvuyg=--vvvvvvvvvvvvvvvvvvvvvvvvvvvv-zzf--vuw-vvf*9*+@vvvv",
"vvvvvvvlpuwll@vvhvvvvvvvvvvvvvvvvvvvvvvvv-kkkg=f=uw=gy=-=0$@+vvv",
"vvvvvvviiwfll-hfvvffv@vvvgxxgvvvvvvvvvvvvvgkhgf-=w9-=y*9=$@@vvvv",
"vvvvvvvuu=flkhg-=fzzf-vzv-xkkvvvvvvv-=-vvv=hf--=fk**-=9y=@@vvvvv",
"vvvvvvvvvvv-hg-*f-hf-=vk=h=ikvvvvvkfkghvvvvy-zz*kf*-y=u00vv9euvv",
"vvvvvvvvwvug==*-hf==-@-vvf=-gfvvvvv=hkk=vvvvvkz*==*f==yy=v99u@ev",
"vvvvvvvvvvvv@=0hxkffgg-=g=h=h%=hvvkkgzzfvvvfk*--=g0**0=gkvww9@@v",
"vvvvvvvvvvvvv0gkgkfggfzh-z=-=ugkv-fgzzkkvvgh-iiw-==k*fkvvvv@@@vv",
"vvvvvvuugf-lg=wg-fkgk=zz-fuw%fhfvvffkkirkxz--yw%zy=uw0#uwvvvvvvv",
"vvvvvvwuw=-g=w0=-ii0#fz-gzww%hh--k=-==$$-=xhiw@@-ffww9##gkvuvywv",
"vvvvvv9lf=uw-=hgii09%+h@fzzh-ff--=$=gf0r==fhi9fy*hy99##hgkvfkw9v",
"vvvvvvvvv0=u-=h%eqq9$+**g-h=ey-hue-fzkr-g--g9@=g-fh9##vvffwyw@@v",
"vvvvvvvvvvvvvhg%y09$++*uuw%=yy-e00+fkf-iit-fg==-fuh=9==v*w99$vvv",
"vvvvvvvv9vv-fh=h=++++%fuuw%%==fq$++@=-iitw0%fz-=h0@@k=uvvvv9##vv",
"vvvvvvvvvvvfhy-==gh=vvvk=%k%ezz=++fhzwitw0%@=gfkg@@-@---@vvv#+vv",
"vvvvvvvvvvw=fh-yyvvvvttw0$@=-zzie=ghzzie0%$@@@@zz-0@@fg=@vvvvvvv",
"vvvvvvvvvwuvvuwyyvwvttig%$ak-ggu0e@hezek%$@-@gwgzh@**g-@@vvvvvvv",
"vvvvvvvvvvvvvvww8FSvtkgwks+v@--z0e=fe@@@00-k=f@0k-*@=vvbbvvvvvvv",
"vvvvvvvvvwugvvvvFSSvtiiwdg+vvk-@@@@0e0gzz@hg@0-0**mrS0 r<Mvvvvvv",
"vvvvvvvvvvg-vvvvF8vvvww9k$+vveeezz=0-g#zzv=vv0k*f0dtF8wrr,bvvvvv",
"vvvvvvvvvvvvvvvvvvvvvekw9#+Mvvuezz#l#=zv>>0@ve-e*0ttFkq0kM,bvvvv",
"vvvvvvvvvvvvukvvvvvv0i99$+M<v=geg#>#c#>vv>>vv0=e=ktt8F@$00bbcvvv",
"vvvvvvvvvvvv-=vvvvvvei09$++vvvvf=#<l><vvvzc>vv-vvvt%@O9%9w0Obvvv",
"vvvvvvvvvvvvvvvvvvvvti09$@+vvv-vv@#zk><gvvgc>vgvvvw$%@@$%0w$Onvv",
"vvvvvvvvvvvvvvvvvvvvii09@#+#vvvvv>=kk>><,v>ccvzvvvv9@@@@%900OOvv",
"vvvvvvvvvvvvvvvvvvvvit09@#++lvvvvv>>c,>>b<e,c>=vvvlvw@#%%%90#Ovv",
"vvvvvvvvvvvvvvvv$=$$rr09@#++00vvvv>,<ze,><z0,<OO O=M@@@$$$$0$<vv",
"vvvvvvvvvvvvvvv$$$$$wr00@m++$$0v00=>wc,$<b,9$c%$9O$0999O#O$9$<vv",
"vvvvvvvvvvvvvvv$$++$0wm%@++#+$$0$$$$w9<9$bb9$$$@O990ee9Mc@$$$<vv",
"vvvvvvvvvvvvvv$$$++$$0%$@+m++++$$#,#<m99$$+,9tON99Mwme0Mb,@@#<vv",
"vvvvvvvvvvvvvv$$$$$+$$$$m+OmOOm$9w<ebeeb9++mr<,n9wbw0e0Mb,@@++vv",
"vvvvvvvvvvvvvv$9$.++$$0++mmmmO$9m9b9<9<99>+,9b9V9Mwppppbb< +++vv",
"vvvvvvvvvvvvv$9$$.++o$0m.Omcmbn$$0wtbyyyq+#0iiqNwypj$j$ja, ++vvv",
"vvvvvvvvvvvvv99$.o+#oo$..ccnC7nn9qmqqqqq%+%90rONwyps$a$:&0 mO>vv",
"vvvvvvvvvvvv$9$.ooo#omo$t0cm72cnq$$$$$$$#+#$$#bM$0pOOOOOOO  OOvv",
"vvvvvvvvvvvv9$.ooooo#oo$.t0ccttvn$#######+####mMc$w%OOOOOO <OOvv",
"vvvvvvvvvvvv0$.ooooo%ooo$tt%tw$0tm@+++++n+++++MMc>wwOOOOOO  OO>v",
"vvvvvvvvvvv9w.ooooooo%tuuuuut@@9mBm++$$++,m,OMnMc#%wOOOOO   OOvv",
"vvvvvvvvvvv9w.oooooouuuuuueqt$0wtZD60n09OM+00nnM<w$@OOOOO b nO>v",
"vvvvvvvvvvv9w9o0rroutttemm99t9%wt6CA0,<mc,+0cnMn<$@OOOOOO   <Ovv",
"vvvvvvvvvvvvw90rrwweytytq99%%%nw$.22++b+n+<OMnbn<m OOOO+>   O<vv",
"vvvvvvvvvvvv99wrww00etyt0$%%%$@,O,,>O+n+nm+cMMbcOOO><<<>>  nO>vv",
"vvvvvvvvvvvvwrw99%00wwc0%+++++#OO,,>OO,Om+OMcbc<O>O><<<>>  <Ovvv",
"vvvvvvvvvvvtrw9##m%0%ww%#OOcOO@cO,,>OOOO<OMOncM<OO>n><>>>  O<vmv",
"vvvvvvvvvvvte9##%#+%m%%@OO@+OO@@OO,>OO,OOO,,ncbOOO>><>,>> OOOv>v",
"vvvvvvvvvvveer#%##O%#,@OOO++O@@O  ,>,OOOOOOMcMbO>O>>>O,>  OOvvvv",
"vvvvvvvvvvve&:#0#vvv#@@OOOOOOOOOO ,>OO   +mc,M<OO>n>O,,> OOv>vvv",
"vvvvvvvvvvvvr&rrvvvvvv>   O  O  , ,>O,O +<bnMb>O>>OO,,> OOmvvvvv",
"vvvvvvvvvvvv0a:;vvvvv<vo    O ,  >>><OO +b<bb< <,>>,,+>OOOvvvvvv",
"vvvvvvvvvvvvvv;vv>>>>>>>>>      c>>> , +m Ob<>m>+>>>>>>>Ov>vvvmv",
"vvvvvvvvvvv66554321ooXc<,,,>>,>>>,c,>>>b>>cc<<<<,,,n>>>>>n>vvvvv",
"vvvvvvvvvvvvv6554321oooXXXc<<<<<<c<<<c<<<n<<b<<<<n<<<<n<<<<>>>vv",
"vvvvvvvvvvvvvvv65544431111oooooooXmbbcc<<<<<<<<<<<<<<<<<<<<<>vnv",
"vvvvvvvvvvvvvvvvvvvvvvvvvvvvvvvvvvvvvv64mmbbccc<<,,,,>>>>>456vvv"
};
