/* XPM */
static char *_0261_f23f466ed21580f252bfed19d67cbfbe8790468b0583be034509284497c228a9[] = {
/* columns rows colors chars-per-pixel */
"64 64 67 1 ",
"  c black",
". c gray11",
"X c #202020",
"o c #282828",
"O c #2C2C2C",
"+ c gray19",
"@ c #343434",
"# c gray22",
"$ c #400000",
"% c #4C0000",
"& c #580000",
"* c #640000",
"= c #700000",
"- c #7C0000",
"; c #543C1C",
": c #404000",
"> c #585400",
", c #706C00",
"< c #5C4020",
"1 c #744C28",
"2 c #400040",
"3 c #480048",
"4 c #500050",
"5 c #580058",
"6 c #6C0070",
"7 c #484848",
"8 c gray33",
"9 c gray36",
"0 c #646464",
"q c gray44",
"w c #7C7C7C",
"e c #880000",
"r c #980000",
"t c #A40000",
"y c #B00000",
"u c #BC0000",
"i c #C80000",
"p c #D40000",
"a c #E00000",
"s c #EC0000",
"d c #FC0000",
"f c #FC2020",
"g c #9C4C00",
"h c #B45400",
"j c #CC6000",
"k c #E46C00",
"l c #848400",
"z c #9C9C00",
"x c #B4AC00",
"c c #FC8820",
"v c #CCC400",
"b c #E4D800",
"n c #FCF420",
"m c #840084",
"M c #FFC0CB",
"N c #9C009C",
"B c #B400B4",
"V c #C800CC",
"C c #E000E4",
"Z c #FC00FC",
"A c #FC20FC",
"S c gray55",
"D c #989898",
"F c gray66",
"G c #B4B4B4",
"H c #D0D0D0",
"J c #ECECEC",
/* pixels */
"MMMMMMMMMMMMMMMMMMMMMMMMMMMMMMMMMMMMMMMMMMMMMMMMMMMMMMMMMMMMMMMM",
"MMMMMMMMMMMMMMMMMMMMMMMMMMMMMMMMMMMMMMMMMMMMMMMMMMMMMMMMMMMMMMMM",
"MMMMMMMMMMMMMMMMMMMMMMMMMMMMMMMMMMMMMMMMMMMMMMMMMMMMMMMMMMMMMMMM",
"MMMMMMMMMMMMMMMMMMMMMMMMMMMMMMMMMMMMMMMMMMMMMMMMMMMMMMMMMMMMMMMM",
"MMMMMMMMMMMMMMMMMMMMMMMMMMMMMMMMMMMMMMMMMMMMMMMMMMMMMMMMMMMMMMMM",
"MMMMMMMMMMMMMMMMMMMMMMMMMMMMMMMMMMMMMMMMMMMMMMMMMMMMMMMMMMMMMMMM",
"MMMMMMMMMMMMMMMMMMMMMMMMMMMMMMMMMMMMMMMMMMMMMMMMMMMMMMMMMMMMMMMM",
"MMMMMMMMMMMMMMMMMMMMMMMMMMMMMMMMMMMMMMMMMMMMMMMMMMMMMMMMMMMMMMMM",
"MMMMMMMMMMMMMMMMMMMMMMMMMMMMMMMMMMMMMMMMMMMMMMMMMMMMMMMMMMMMMMMM",
"MMMMMMMMMMMMMMMMMMMMMMMMMMMMMMMMMMMMMMMMMMMMMMMMMMMMMMMMMMMMMMMM",
"MMMMMMMMMMMMMMMMMMMMMMMMMMMMMMMMMMMMMMMMMMMMMMMMMMMMMMMMMMMMMMMM",
"MMMMMMMMMMMMMMMMMMMMMMMMMMMMMMMMMMMMMMMMMMMMMMMMMMMMMMMMMMMMMMMM",
"MMMMMMMMMMMMMMMMMMMMMMMMMMMMMMMMMMMMMMMMMMMMMMMMMMMMMMMMMMMMMMMM",
"MMMMMMMMMMMMMMMMMMMMMMMMMMMMMMMMMMMMMMMMMMMM,lMMMMMMMMssMMMMMMMM",
"MMMMMMMMMMMMMMMMMMMMMMMMMMMMMMMMMMMMMMMMMMMMlbvMMMMMsdsyyMMMMMMM",
"MMMMMMMMMMMMMMMMMMMMMMMMMMMMMMMMMMMMMMMMMMMMMvblMMvz,pyee&MMMMMM",
"MMMMMMMMMMMMMMMMMMMMM,xxMMMMMMMMMMMMMMMMMMMMMzz,Mzzl,:e:=&MMMMMM",
"MMMsMMMMMMMMMMMzMMMMMMxb,MMxzzMMMMMMMMMMMMMMMl,,MMl,>,>=&r%MMMMM",
"MMMsMMMMMMMMMMnnxzMMMMM,MMbbxz,MMMMMMMMMMMMMMMMMMMMM:e>MMrMMMMMM",
"MMMMMsaz>,MMMnnxlMMMMMMMMbbxz>MMMMMMMMMMMMMMMlMMMMMMea>aMMMMMMMM",
"MMMMbfsybbzMMnvv>MMMMMMMMzxz,MMMMMMMMMMMMMMM,zMMMMlxsurMMMMMMMMM",
"MMMMddylbblMMvnvMM>xMMvxMM,,>MMxlMMMMMMMMMMMbx:MMM,>uu>MMMMMMMMM",
"MMMMss>lbvxMMMvM,MzlMvnzMM>>lMMMzMlnnlMMMMM:xxMMMMMxlzvMMMMMMMMM",
"MMMMMMMM>xxlMMdiylbnMvzlMMl,lz>MMMvnvlnMvlMzl,MMMMMMvl>MMMMMMMMM",
"MM,MMMMszrlxMMitr>bbMM,,Mv,lMMMM,:lnlx:MMMn,z>>MMMMMMsyMMMeusMMM",
"MMMMMMMMM&MMMx,l--zzz:llMxn,n>znbz,vtxv>Mbx,>>,>bzMMMtzvMeesMuMM",
"MMMMMMMMMMMMMMvvx>d>x,xxx&>ldy,bbxz:l>,znbzz,>&>,lt>,xzvMyyeMMMM",
"MMMMMMMM:MnMMMvz-&>l&d>&xlx:y-&zvlt:xz>nzd>,>z&&d>tt&&llMMMMeMMM",
"MMMMMMMMlMtMMMzddi&d:d&>l&lln&v&zp%%>,>>&nbldd>>dlbx>&:yMMMMMMMM",
"MMMMMMMMzzxMMxydityyy&lbbddu-lzptpzpp,x5zbnxde,zznbdsyMMMMsMayMM",
"MMMMMMzzMzbbMMrittdye&,bbuu-->ztt,vee,>>>bnnl>du>b>vx>&vMMlvyeMM",
"MMMsszlzbzbblMx&i->&&&>zz>---%%>,pnl,n,2>dnnxduuel>>,>&&tyayMMMM",
"MMMysy>,zzyl>Mxxzdlt>t>,,::,>>t,vvlbbxz,5,zdnleeexlvvd&ttee=MMMM",
"MMMebl>syl,>,blaa&tttt::t%lnntz%pvvxx,ppt,dzl>ddnddvxt&ttle**MMM",
"MMMMMMr>s>>lxxlx&dl&:z&&z>%%:&d&lzxx5>ppt>n,ln&:dl&&ttlMxMM*%MMM",
"MMlMMMMMMMlxxaz,nn&&lnnautzt&ppyr>z>x5pt5>>>x,>d&kpreMMMMMMMMMMM",
"MMMMMMMMMMy>xzl,nMdt:nnuu-xtnplyrz>>p>vd=2>vxx>t>ppyxeMMMMMMMMMM",
"MMMMMMMMMysMM,,>>MMt&tMMxx=Mpldil=&>ppxll52,d,2MpppxtreuMMMMMMMM",
"MMMMMMMMMMMMMM>>MMMdtMvMMMMMddai-=nnvz,,plm,52m2ppyy&=etxpMMMMMM",
"MMMMMMMMMMMMMMMMMMMdM====Mvdxiiy-hnnvl,lnnl52n5my=-&&xGrettyMMMM",
"MMMMMMMMMMMMMxMawJGM=====Mddyu=-kgMpMM25nnln522m $$CrrJw=-tt-MMM",
"MMMMMMMMMMMMMsyaJGG==%==iddve%&&MMMMMMv2llm6N6u5u$=raaJv**=--%MM",
"MMMMMMMMMMMMMMyyJwM=%O@VdVieV%%MMvMMMM256mumVN5r$uuruuwJm&***%MM",
"MMMMMMMMMMMMMMMMMee*OOrddiye%%*MMMrrrrM2ymB=BVmemCyffffNN6%%%%rM",
"MMMMMMMMMMMMMMMMe=%OOOrdiVeV%V%Mttrr====yeee=VNeyafc=c=cg5$%%%=M",
"MMMMMMMMMMMMMMMe=OO+++rVyeVBC$Vrtteyyy6uNuuue=%5aafh=g=1;r$$$$%M",
"MMMMMMMMMMMMMMe=O+++++eeBrBBBVppe-tuuuuuuuutt%%6aaf$$$$$$$$$$$MM",
"MMMMMMMMMMMMMMr=O++@@@%eeV$BmmNBy*rpppppNaaat%u6aay-$$$$$$  $$MM",
"MMMMMMMMMMMMMeyO+@@@@@%===mpBSqBpyetttVttttt-ry6=ayy$$$$$$   $$M",
"MMMMMMMMMMMMMeyO@@@####=%%r-pq7mpy====***Bm*%rr62*-y$$$$$    $$M",
"MMMMMMMMMMMMMeye#######*###%%-pp%pVAVrrr=m5rrr662y=&$$$$$    $$M",
"MMMMMMMMMMMMM**ye#yurrpssssspyyyp5%e-B--%%-B-rm62=&$$$$$$    $$M",
"MMMMMMMMMMMMMM&*iiirysssssppuyyep5%e$5$%B%$%%rm62V$$$$$$  ...$$M",
"MMMMMMMMMMMMMMriiyiypyayyyyrre===yp$*===%*===6m62$22$$$2 ....$$M",
"MMMMMMMMMMMiiiiie-iyaayyyee--**CNyp$$$BB$$Z%%mm$2$222$22 .XXX$$M",
"MMMMMMMMMuiaaie*&*-yupapuuyCre-CyyCwDH0$$$$$$mm$2$222222..XX%$MM",
"MMMMMMMMMjryre&&=*-yyuupCppyyC-r=2280SF$$$$$5V6$$N22222$.XXo&$MM",
"MMMMMMMMMgg=====*$*y-yCuuuyyr-=*CNNON77$mV$BmN6Z222N262.6XoO*MMM",
"MMMMMMMMMg<*%%%$$$$*5--eCeB-=C&CN2-B2$$$Bm$6NN$55V2522$.XXo*$MMM",
"MMMMMMMMMM;;$$$$$525*5&$BB%B&B%BmB%22B$C$$BmVm52V5562B$6Xo*$MMMM",
"MMMMMMMMMMM00998888855&BNm66mNm65m$B622$V5mNN65555N56262222MMMMM",
"MMMMMMMMMMMMM0998888855Bm6656m5655B22N5$55NVNmVmZ666N55N5555552M",
"MMMMMMMMMMMMMMM09988BBBBN66555443322222222234556666666666666522M",
"MMMMMMMMMMMMMMMMMMMMMMMZCVVVVBBBNNNNNNmmmmmmmmmmmmmmmmm666522MMM"
};
