/* XPM */
static char *_286_b4d87eeaac74d474790cfaafcd9068496cb12136e71a3fcb872c973377520223[] = {
/* columns rows colors chars-per-pixel */
"64 64 61 1 ",
"  c black",
". c #202020",
"X c #2C2C2C",
"o c gray19",
"O c #343434",
"+ c gray22",
"@ c #400000",
"# c #4C0000",
"$ c #580000",
"% c #640000",
"& c #700000",
"* c #7C0000",
"= c #543C1C",
"- c #404000",
"; c #585400",
": c #706C00",
"> c #744C28",
", c #400040",
"< c #580058",
"1 c #6C0070",
"2 c gray25",
"3 c #484848",
"4 c #4C4C4C",
"5 c gray33",
"6 c gray36",
"7 c #646464",
"8 c #7C7C7C",
"9 c #880000",
"0 c #980000",
"q c #A40000",
"w c #B00000",
"e c #BC0000",
"r c #C80000",
"t c #D40000",
"y c #E00000",
"u c #EC0000",
"i c #FC0000",
"p c #FC2020",
"a c #9C4C00",
"s c #B45400",
"d c #E46C00",
"f c #FC5C5C",
"g c #848400",
"h c #9C9C00",
"j c #B4AC00",
"k c #CCC400",
"l c #E4D800",
"z c #FCF420",
"x c #840084",
"c c #FFC0CB",
"v c #9C009C",
"b c #B400B4",
"n c #C800CC",
"m c #E000E4",
"M c #FC00FC",
"N c #FC20FC",
"B c #FC40FC",
"V c gray66",
"C c #B4B4B4",
"Z c #D0D0D0",
"A c #ECECEC",
/* pixels */
"ccccccccccccccccccllhcccccj:-l-ccccgl::;l: gccchhccccccccccccccc",
"cccccccccccccccccclh:;cccgg;:hjjcccjkkjkghl-lc;hh:cccccccccccccc",
"cccccccccccccccccuyh::;;9yyy-llliiggjjggg;;gjjjhjg0wehuecccccccc",
"cccccccccccccccclpuwllg9y&yyqjllii9gtg:;:hjg%jg:;:0uiluueccccccc",
"cccccccccccccccuiiwgllg99gyyq&jjii9;g:ji;hh;tt:-g;0wte99u0cccccc",
"cccccccccccclccuuu;glk l;-qqq&hh***;l;:;-giw;tjl-:*0-9&&$ccccccc",
"cccccccccccccgc-:;-$;-;;gjg&&&hlh;:;j:ghlhuww:jj:jh0:;%:eueccccc",
"ccccccccccccuc0lwhhkhuu-jjjllj:;hrglglllhgww*::iuhl:9%:9u%cccccc",
"cccccccccccclcc-:hklhuw-jjg;h::;:h:hjlllh;:*%g:iw::9;%www9cccccc",
"ccccccccccccccuuhhllh-w;jgl;gg;ghl:-;lll:;;h;;h:jg-;;-j:%%cccccc",
"cccccccccccc0cuuw;:hgg;glu:hghljjhiy-rwggirggllgjg;-j-::##cccccc",
"ccccccccccccc$wlg;uw;-0-g:g:lgjlllyy&ww*;gr;:llg:wu--;hk: cywccc",
"ccccccccccccccc;:0;u;hg-$;liirflllg&&:**;l9l-gg;jw9-:jhk;gkw9ccc",
"ccccccccccccccc;;$-gllh$ -firw9lllj:;:k:hlj:-*;-*&&--:ggwywccccc",
"ccccccccccccccc-g -gllg*lh*rw9%hjjg:iwjhggg-gw-j-w*$;--w99&%cccc",
"cccccccccccccccc0;000;-*h:%&9wil:;:;ww;:hli&:r-;;tw*-$ccg9&%#ccc",
"cccccccccccccccccc*gr****;;k%%-ihiilii*;:iw09u&-jww*glcccccccccc",
"ccccccccccccccccccccgg;XX&%e;;-;i;ilyw*%;%09el09-t*%::tccccccccc",
"cccccccccccccccccccjjgg;%kqjjgw---hi***ee*%9uu0;tkt-cccccccccccc",
"cccccccccccccccccc:jkg;-%g9yy0&3-;i-;::*gytj*00%g--ccccccccccccc",
"cccccccccccccccccc;jj:;@zlj&0&j# ;;;-# yew$t*0l@h:cccccccccccccc",
"cccccccccccccccccccccx@<0g#0y&#;;l,: t*ewy@;*%@@0 cccccccccccccc",
"ccccccccccccccccNcccg&z9l*8AC@1,l<,g;1@@@@@@j@3+%wcccccccccccccc",
"ccccccccccccccNcbncmc**9ggACC;lx<bbkbl<t1gl1,c8VAcx<cccccccccccc",
"ccccccccccccccccvx*x*N*&&7A8#@lmllbxgx;@g1g1lCAA8wmw0ncccc***ccc",
"ccccccccccc&&*wwvxxtiiiw$8Z+;x@gllblxgll;xn1n,<,&<<x<v<mc9w&$*cc",
"cccccccccc&**9mwxxqiyw0&$38Z&mv1<,1<1mlk1xng<x,,#<<<N<m<mw9&@**c",
"cccccccccc**00*m0wiiw**&&&mv%g1xl<<1,g<#1ln1<n,<@@<<vN<mvm$$@$*c",
"cccccccccc*000m0ttii&&&&&%cc%$%<,<bv1#9#1$n0rr0 vvvv1vm<vmm*$**c",
"cccccccccc***00wiiww9&&&#%%%##%e%91v<<e%%xdttrrwr11m1xmm<vmb**cc",
"ccccccccc***$00wiie&w9%#m%%###ev19%%vbbe%auuwwwrrrrrrrwmvvxb*$*c",
"cccccccc*000$*0www#99##m1#n##%<%1n99&&#<9ttutwwqq00qwwrww0vvb**c",
"cccccccc*0000*%99%####n,v#v*0w1iviiv9&#nr1trw$**$&&&***0ww09v*cc",
"ccccccccc*0***%%%%###,1,n09qeeve1e1e9,%<9v1rw*$@9**0www**w0&0bcc",
"ccccccccc00*.**n%####,,,1&vqeeeemybqb<%vwv1r0&*$$&&**0www0*&00cc",
"ccccccccc*0*.Xenxx<11,,,<$*9qwwmrrmw&1%wrii$v<@x1$$$%%%****#@@cc",
"ccccccccc00X++9vxx+#1<,,#&&&&9999qqqqv%*qvqqv<@@ @@@#######$@1cc",
"ccccccccc0eX+X+19x++b1<,%#&99wwtviiyq*%0iiii99*&$$ ,@@@@@@@ @1cc",
"ccccccccc0eXvX++nv++b1<,%%#qrrrqwrrq*%*90rrwiq&$$$#m@@@    @@1cc",
"ccccccccc9eX++*n+nn+bttt9#b##*0*****%#%**%**9bMMmx19xm     @#1cc",
"ccccccccceem+++**xnntw0009wZNn$%%%%%b##%%%**bBmm*eee@%@ b  @##cc",
"ccccccccce9X++nnv+nt9$$&x99VV$*wNbxe$0ttw*%%Bmx*0eee<x$ @@ ###cc",
"ccccccccce%++++vnvvt$$$$&0&37NeNb1te*0b0tt0<Mx0vwne0<,,@@@ ##ccc",
"cccccccc%eX+++++vntnqq0w*9&,<1bbx0%%0ttb*0*xM9rvw0e0<,,@x  n#ccc",
"cccccccc9eXX++v+9neeeq9*b&&,,1bx00b@00<0t<%vm9rbw0n0@,,@xb  #ccc",
"ccccccccee9X+++0ttten0b&&$$,,<bx%b%b00v00v#nm9rbw0e0@,,@   1#ccc",
"cccccccceee9X+eeytyte&&&<$<@,1xxn**%%%n%%m#bmx9<*0e0@,@@    #ccc",
"cccccccccee0Xe0eetyt0&<#&&$<@@@xn####00##<nbmx#<%nn0@,@, 1  #ccc",
"ccccccccc090*e0ewwx0*##&&%%@@@@,1*1##b0#@m#bbx##%&yy9,,,  v#bccc",
"cccccccccc09*y0r*ww*%@@x@@$x@@@@,###0<1nx<#vbx,#9ye9&&,,   #1ccc",
"cccccccccc00n&0*n**$@@$#@@$$@,,@,#####v#b#1vbx,,0we@&@,, 1 #cccc",
"ccccccccccc00&0*%<$@@@##@$$,,1,<,<#x@#b#bn#vb1,,0we#&@,,  #bcccc",
"cccccccccccc0e0%#x@@@@@@$@@,,,,@,@@@@@<@n#@xb1,,wqwwww,,  #1cccc",
"ccccccccccccc00n%n@@@.@@@,@,1,,@,<@@@@@@1@@xb1,,w>&0&00,  #ccccc",
"ccccccccccccc0t%*%#@e@@@ , ,,<,@,@@@@@<@@@@<v<,%*s&a&>=0 ##ccccc",
"ccccccccccccte%*%*#c99.  , ,,,, , xc<@@@@@@#v<,w&$@@@@@@##cccccc",
"ccccccccccccte%0%**cc$$  , ,<,, ,ccccc   #n#vn,&$@@@@@@##ccccccc",
"cccccccccccceerr>r*%cc,1 1 ,, ,<1c,cccc ##v v<,n ,,,,#,#cccccccc",
"cccccccccccce=>#a0>%c1c+$1,,, ,4,455166 # v v<,n ,,,,#,c,ccccccc",
"cccccccccccccc7c##>#cccX,,,,1,,,,,,++++#n ccb,n,#,,,,c,,cc,ccccc",
"ccccccccccc77665432++OOOXXX,XXXX,XXXXXXX+2xnbvxx<<<<,,,,,,cccccc",
"ccccccccccccc7665432+++OOOooooooXXXXXXXXx+,,,x,,,,,,,,,,7ccccccc",
"ccccccccccccccc76655542222+++++++OOOOXXXXXXXXXXXXXXXXXXX3567cccc",
"cccccccccccccccccccccccccccccccccccccc75443222222222222224567ccc"
};
