/* XPM */
static char *_9679_7e1f58b983bfe2f56af0e50dea5af039f3a1ac01fd004d8262d56e104c3ac780[] = {
/* columns rows colors chars-per-pixel */
"64 64 63 1 ",
"  c black",
". c gray11",
"X c #2C2C2C",
"o c gray22",
"O c #400000",
"+ c #4C0000",
"@ c #580000",
"# c #640000",
"$ c #700000",
"% c #7C0000",
"& c #543C1C",
"* c #404000",
"= c #585400",
"- c #706C00",
"; c #5C4020",
": c #744C28",
"> c #400040",
", c #580058",
"< c #6C0070",
"1 c #484848",
"2 c gray33",
"3 c #646464",
"4 c gray44",
"5 c #7C7C7C",
"6 c #880000",
"7 c #980000",
"8 c #A40000",
"9 c #B00000",
"0 c #BC0000",
"q c #C80000",
"w c #D40000",
"e c #E00000",
"r c #EC0000",
"t c #FC0000",
"y c #FC2020",
"u c #9C4C00",
"i c #B45400",
"p c #CC6000",
"a c #E46C00",
"s c #FC7800",
"d c #848400",
"f c #9C9C00",
"g c #B4AC00",
"h c #FC8820",
"j c #CCC400",
"k c #E4D800",
"l c #FC9840",
"z c #FCA85C",
"x c #7400B4",
"c c #840084",
"v c #FFC0CB",
"b c #9C009C",
"n c #B400B4",
"m c #8000CC",
"M c #9800E4",
"N c #C800CC",
"B c #E000E4",
"V c #FC00FC",
"C c #FC20FC",
"Z c gray55",
"A c #989898",
"S c gray66",
"D c #D0D0D0",
/* pixels */
"vvvvvvvvvvvvvvvvvvvvvvvvvvvvvvvvvvvvvvvvvvvvvvvvvvvvvvvvvvvvvvvv",
"vvvvvvvvvvvvvvvvvvvvvvvvvvvvvvvvvvvvvvvvvvvvvvvvvvvvvvvvvvvvvvvv",
"vvvvvvvvvvvvvvvvvvvvvvvvvvvvvvvvvvvvvvvvvvvvvvvvvvvvvvvvvvvvvvvv",
"vvvvvvvvvvvvvvvvvvvvvvvvvvvvvvvvvvvvvvvvvvvvvvvvvvvvvvvvvvvvvvvv",
"vvvvvvvvvvvvvvvvvvvvvvvvvvvvvvvvvvvvvvvvvvvvvvvvvvvvvvvvvvvvvvvv",
"vvvvvvvvvvvvvvvvvvvvvvvvvvvvvvvvvvvvvvvvvvvvvvvvvvvvvvvvvvvvvvvv",
"vvvvvvvvvvvvvvvvvvvvvvvvvvvvvvvvvvvvvvvvvvvvvvvvvvvvvvvvvvvvvvvv",
"vvvvvvvvvvvvvvvvvvvvvvvvvvvvvvvvvvvvvvvvvvvvvvvvvvvvvvvvvvvvvvvv",
"vvvvvvvvvvvvvvvvvvvvvvvvvvvvvvvvvvvvvvvvvvvvvvvvvvvvvvvvvvvvvvvv",
"vvvvvvvvvvvvvvvvvvvvvvvvvvvvvvvvvvvvvvvvvvvvvvvvvvvvvvvvvvvvvvvv",
"vvvvvvvvvvvvvvvvvvvvvvvvvvvvvvvvvvvvvvvvvvvvvvvvvvvvvvvvvvvvvvvv",
"vvvvvvvvvvvvvvvvvvvvvvvvvvvvvvvvvvvvvvvvvvvvvvvvvvvvvvvvvvvvvvvv",
"vvvvvvvvvvvvvvvvvvvvvvvvvvvvvvvvvvvvvvvvvvvvvvvvvvvvvvvvvvvvvvvv",
"vvvvvvvvvvvvvvvvvvvvvvvvvvvvvvvvvvvvvvvvvvvvvvvvvvvvvvvvvvvvvvvv",
"vvvvvvvvvvvvvvvvvvvvvvvvvvvvvvvvvvvvvvvvvvvvvvvvvvvvvvvvvvvvvvvv",
"vvvvvvvvvvvvvvvvvvvvvvvvvvvvvvvvvvvvvvvvvvvvvvvvvvvvvvvvvvvvvvvv",
"vvvvvvvvvvvvvvvvvvvvvvvvvvvvvvvvvvvvvvvvvvvvvvvvvvvvvvvvvvvvvvvv",
"vvvvvvvvvvvvvvvvvvvvvvvvvvvvvvvvvvvvvvvvvvvvvvvvvvvvvvvvvvvvvvvv",
"vvvvvvvvvvvvvvvvvvvvvvvvvvvvvvvvvvvvvvvvvvvvvvvvvvvvvvvvvvvvvvvv",
"vvvvvvvvvvvvvvvvvvvvvvvvvvvvvvvvvvvvvvvvvvvvvvvvvvvvvvvvvvvvvvvv",
"vvvvvvvvvvvvvvvvvvvvvvvvvvvvvvvvvvvvvvvvvvvvvvvvvvvvvvvvvvvvvvvv",
"vvvvvvvvvvvvvvvvvvvvvvvvvvvvvvvvvvvvvvvvvvvvvvvvvvvvvvvvvvvvvvvv",
"vvvvvvvvvvvvvvvvvvvvvvvvvvvvvvvvvvvvvvvvvvvvvvvvvvvvvvvvvvvvvvvv",
"vvvvvvvvvvvvvvvvvvvvvvvvvvvvvvvvvvvvvvvvvvvvvvvvvvvvvvvvvvvvvvvv",
"vvvvvvvvvvvvvvvvvvvvvvvvvvvvvvvvvvvvvvvvvvvvvvvvvvvvvvvvvvvvvvvv",
"vvvvvvvvvvvvvvvvvvvvvvvvvvvvvvvvvvvvvvvvvvvvvvvvvvvvvvvvvvvvvvvv",
"vvvvvvvvvvvvvvvvvvvvvvvvvvvvvvvvvvvvvvvvvvvvvvvvvvvvvvvvvvvvvvvv",
"vvvvvvvvvvvvvvvvvvvvvvvvvvvvvvvvvvvvvvvvvvvvvvvvvvvvvvvvvvvvvvvv",
"vvvvvvvvvvvvvvvvvvvvvvvvvvvvvvvvvvvvvvvvvvvvvvvvvvvvvvvvvvvvvvvv",
"vvvvvvvvvvvvvvvvvvvvvvvvvvvvvvvvvvvvvvvvvvvvvvvvvvvvvvvvvvvvvvvv",
"vvvvvvvvvvvvvvvvvvvvvvvvvvvvvvvvvvvvvvvvvvvvvvvvvvvvvvvvvvvvvvvv",
"vvvvvvvvvvvvvvvvvvvvvvvvvvvvvvvvvvvvvvvvvvvvvvvvvvvvvvvvvvvvvvvv",
"vvvvvvvvvvvvvvvvvvvvvvvvvvvvvvvvvvvvvvvvvvvvvvvvvvvvvvvvvvvvvvvv",
"vvvvvvvvvvvvvvvvvvvvvvvvvvvvvvvvvvvvvvvvvvvvvvvvvvvvvvvvvvvvvvvv",
"vvvvvvvvvvvvvvvvvvvvvvvvvvvvvvvvvvvvvvvvvvvvvvvvvvvvvvvvvvvvvvvv",
"vvvvvvvvvvvvvvvvvvvvvvvvvvvvvvvvvvvvvvvvvvvvvvvvvvvvvvvvvvvvvvvv",
"vvvvvvvvvvvvvvvvvvvvvvvvvvvvvvvvvvvvvvvvvvvvvvvvvvvvvvvvvvvvvvvv",
"vvvvvvvvvvvvvvvvvvvvvvvvvvvvvvvvvvvvvvvvvvvvvvvvvvvvvvvvvvvvvvvv",
"vvvvvvvvvvvvvvvvvvvvvvvvvvvvvvvvvvvvvvvvvvvvvvvvvvvvvvvvvvvvvvvv",
"vvvvvvvvvvvvvvvvvvvvvvvvvvvvvvvvvvvvvvvvvvvvvvvvvvvvvvvvvvvvvvvv",
"vvvvvvvvvvvvvvvvvvvvvvvvvvvvvvvvvvvvvvvvvvvvvvvvvvvvvvvvvvvvvvvv",
"vvvvvvvvvvvvvvvvvvvvvvvvvvvvvvvvvvvvvvvvvvvvvvvvvvvvvvvvvvvvvvvv",
"vvvvvvvvvvvvvvvvvvvvvvvvvvvvvvvvvvvvvvvvvvvvvvvvvvvvvvvvvvvvvvvv",
"vvvvvvvvvvvvvvvvvvvvvvvvvvvvvvvvvvvvvvvvvvvvvvvvvvvvvvvvvvvvvvvv",
"vvvvvvvvvvvvvvvvvvvvvvvvvvvvvvvvvvvvvvvvvvvvvvvvvvvvvvvvvvvvvvvv",
"vvvvvvvvvvvvvvvvvvvvvvvvvvvNNdfjvvvvvvvvvvvvvvvvvas96vvvvvvvvvvv",
"vvvvvvvvvvvvvvvvvvvvvvvvvNNbbcncj97vvvvvvvvvvvvvaww996wvvvvvvvvv",
"vvvvvvvvvvvvvvvvOOOvvvvvNnbDANcN<97$vvv<bl<c<v<<wsap@$swwvvvvvvv",
"vvvvvvvvvvvvvvvOOOOOvv#NNg,A4cjdc9%i-bjbdNd->l0aspusu$%89wvvvvvv",
"vvvvvvvvvvvvvvv@@@@=f-6NbCc,,Cgdc<au-dfjlg-=l-Nsas66z9z9zuwwvvvv",
"vvvvvvvvvvvvvvO$oo=dfdfNgc96NbwwcwNzjzjzjd=*=-wannwyh$u$:&88%vvv",
"vvvvvvvvvvvvvv@$oo9-glwrahaiuu99w,00=sssbuu-ddgnnc0yOOOOOO$%%+vv",
"vvvvvvvvvvvvvv$$a=qglilplllw0996w,+6#zz****h-h6nbeeyOOOOOO###+vv",
"vvvvvvvvvvvvvv7aaiqli9p9haa776$$$9wO#uu6***666cneee9%OOOOO++++7v",
"vvvvvvvvvvvshhsi6%qlee99iuuu%##@@6wOOOnnO**++><9een9OOOO>OO+++$v",
"vvvvvvvvv0qeea6#@#%l0peihahi76%999>5AD3OO**OO><beBe9O>OOO OOOO+v",
"vvvvvvvvvp7p7i@@$#%l900wwwp996%7$>>23ZSOO**OO><9b09bO>OOO OOOOOv",
"vvvvvvvvvuu$$u$$#O#l%90000i97%$,#>>X>11OO*OO>><beCe<OOO>O    OOv",
"vvvvvvv7tu;#+u+OOOOl,%%666u%$@@@+>>>>OOOO*O>>><b9ee@OOOO>    OOv",
"vvvv------&&OuOOO,>-#,@+++>++>+>++>>>>OOO*O,>>cC9n<b>O>O>   OOOv",
"vv9tq6aljjjfdufjdgkgd*@>>>>>>O>>>>O>>>>>>,<<<<cCCb<cOO>O>  OOObv",
"vvvvvawwwagggg-----mmMcccc<<<<,,,,,,,,,xxxbbxbNNbc,,,,,><.,>>>>v",
"vvvv799977#vvvd3BNnnnnnNNMxxMNMxxMNNNMxxxxMNNxnbb,,>>>>>>>>>>>>v",
"vvvvvvvvvvvvvvvvvvVVBBBBBNNNNnnnbbbbbbcccccccccccccc,cc<<<,>>vvv"
};
