/* XPM */
static char *_0632_402fa7f98ae4bc07d64110ac0814a7284e59215b5b5b42a1fa1a065e1b8a2117[] = {
/* columns rows colors chars-per-pixel */
"64 64 29 1 ",
"  c #202020",
". c #2C2C2C",
"X c gray19",
"o c gray22",
"O c #640000",
"+ c #700000",
"@ c #7C0000",
"# c #484848",
"$ c gray33",
"% c gray36",
"& c #646464",
"* c gray44",
"= c #880000",
"- c #980000",
"; c #A40000",
": c #B00000",
"> c #BC0000",
", c #C80000",
"< c #D40000",
"1 c #E00000",
"2 c #FC0000",
"3 c #FC4040",
"4 c #FC5C5C",
"5 c #FC7C7C",
"6 c #9C9C00",
"7 c #CCC400",
"8 c #FCF420",
"9 c #980088",
"0 c #FC9C9C",
/* pixels */
"9999999999999999999999999999999999999999999999999999999999999999",
"9999999999999999999999999999999999999999999999999999999999999999",
"9999999999999999999999999999999999999999999999999999999999999999",
"9999999999999999999999999999999999999999999999999999999999999999",
"9999999999999999999999999999999999999999999999999999999999999999",
"9999999999999999999999999999999999999999999999999999999999999999",
"9999999999999999999999999999999999999999999999999999999999999999",
"9999999999999999999999999999999999999999999999999999999999999999",
"9999999999999999999999999999999999999999999999999999999999999999",
"9999999999999999999999999999999999999999999999999999999999999999",
"9999999999999999999999999999999999999999999999999999999999999999",
"9999999999999999999999999999999999999999999999999999999999999999",
"9999999999999999999999999999999999999999999999999999999999999999",
"9999999999999999999999999999999999999999999999999999999999999999",
"9999999999999999999999999999999999999999999999999999999999999999",
"9999999999999999999999999999999999999999999999999999999999999999",
"9999999999999999999999999999999999999999999999999999999999999999",
"9999999999999999999999999999999999999999999999999999999999999999",
"9999999999999999999999999999999999999999999999999999999999999999",
"9999999999999999999999999999999999999999999999999999999999999999",
"9999999999999999999999999999999999999999999999999999999999999999",
"9999999999999999999999999999999999999999999999999999999999999999",
"9999999999999999999999999999999999999999999999999999999999999999",
"999999999999999999999999999999999999999--99999999999999999999999",
"99999999999999999999999999999999;<:999,>;-9999999999999999999999",
"99999999999999999999999999999999<<,:9,1,>-9999999999999999999999",
"99999999999999999999999999$==;#9:44:%X2,>-9999999999999999999999",
"99999999999999999999999999$=:<;&$47-+X1,;-9999999999999999999999",
"999999999999999999999999999:<76%%--<05,;;99999999999999999999999",
"999999999999999999999999999:<6O..+<0873X;;9999999999999999999999",
"999999999999999999999999999-OO#oo##57043,;;999999999999999999999",
"9999999999999999999999999999O@ <.o@3344,2>-999999999999999999999",
"99999999999999999999999999999* 99<;-1;;>>>=999999999999999999999",
"99999999999999999999999999999999999---9--=9999999999999999999999",
"9999999999999999999999999999999999999999999999999999999999999999",
"9999999999999999999999999999999999999999999999999999999999999999",
"9999999999999999999999999999999999999999999999999999999999999999",
"9999999999999999999999999999999999999999999999999999999999999999",
"9999999999999999999999999999999999999999999999999999999999999999",
"9999999999999999999999999999999999999999999999999999999999999999",
"9999999999999999999999999999999999999999999999999999999999999999",
"9999999999999999999999999999999999999999999999999999999999999999",
"9999999999999999999999999999999999999999999999999999999999999999",
"9999999999999999999999999999999999999999999999999999999999999999",
"9999999999999999999999999999999999999999999999999999999999999999",
"9999999999999999999999999999999999999999999999999999999999999999",
"9999999999999999999999999999999999999999999999999999999999999999",
"9999999999999999999999999999999999999999999999999999999999999999",
"9999999999999999999999999999999999999999999999999999999999999999",
"9999999999999999999999999999999999999999999999999999999999999999",
"9999999999999999999999999999999999999999999999999999999999999999",
"9999999999999999999999999999999999999999999999999999999999999999",
"9999999999999999999999999999999999999999999999999999999999999999",
"9999999999999999999999999999999999999999999999999999999999999999",
"9999999999999999999999999999999999999999999999999999999999999999",
"9999999999999999999999999999999999999999999999999999999999999999",
"9999999999999999999999999999999999999999999999999999999999999999",
"9999999999999999999999999999999999999999999999999999999999999999",
"9999999999999999999999999999999999999999999999999999999999999999",
"9999999999999999999999999999999999999999999999999999999999999999",
"9999999999999999999999999999999999999999999999999999999999999999",
"9999999999999999999999999999999999999999999999999999999999999999",
"9999999999999999999999999999999999999999999999999999999999999999",
"9999999999999999999999999999999999999999999999999999999999999999"
};
