/* XPM */
static char *_2bf8b5b08124092a23a2f80e0e2fd77Ov7FLU62T6BP3nhb[] = {
/* columns rows colors chars-per-pixel */
"110 112 39 1 ",
"  c black",
". c #00001C",
"X c #28200C",
"o c #202020",
"O c gray15",
"+ c gray18",
"@ c gray19",
"# c #353535",
"$ c gray22",
"% c #3C3C3C",
"& c #400000",
"* c #580000",
"= c #640000",
"- c #700000",
"; c #7C0000",
": c #483818",
"> c #5C4020",
", c #744C28",
"< c #434343",
"1 c gray29",
"2 c #626262",
"3 c #717171",
"4 c #880000",
"5 c #980000",
"6 c #B00000",
"7 c #BC0000",
"8 c #EC0000",
"9 c #80502C",
"0 c #905C34",
"q c #A0643C",
"w c #A86840",
"e c #B47044",
"r c #BC7848",
"t c #D08050",
"y c #DC8854",
"u c #E88C58",
"i c #FC9C60",
"p c #FFC0CB",
"a c #FCB080",
/* pixels */
"pppppppppppppppppppppppppppppppppppppppppppppppppppppppppppppppppppppppppppppppppppppppppppppppppppppppppppppp",
"pppppppppppppppppppppppppppppppppppppppppppppppppppppppppppppppppppppppppppppppppppppppppppppppppppppppppppppp",
"pppppppppppppppppppppppppppppppppppppppppppppppppppppppppppppppppppppppppppppppppppppppppppppppppppppppppppppp",
"pppppppppppppppppppppppppppppppppppppppppppppppppppppppppppppppppppppppppppppppppppppppppppppppppppppppppppppp",
"pppppppppppppppppppppppppppppppppppppppppppppppppppppppppppppppppppppppppppppppppppppppppppppppppppppppppppppp",
"pppppppppppppppppppppppppppppppppppppppppppppppppppppppppppppppppppppppppppppppppppppppppppppppppppppppppppppp",
"pppppppppppppppppppppppppppppppppppppppppppppppppppppppppppppppppppppppppppppppppppppppppppppppppppppppppppppp",
"pppppppppppppppppppppppppppppppppppppppppppppppppppppppppppppppppppppppppppppppppppppppppppppppppppppppppppppp",
"pppppppppppppppppppppppppppppppppppppppppppppppppppppppppppppppppppppppppppppppppppppppppppppppppppppppppppppp",
"pppppppppppppppppppppppppppppppppppppppppppppppppppppppppppppppppppppppppppppppppppppppppppppppppppppppppppppp",
"pppppppppppppppppppppppppppppppppppppppppppppppppppppppppppppppppppppppppppppppppppppppppppppppppppppppppppppp",
"pppppppppppppppppppppppppppppppppppppppppppppppppppppppppppppppppppppppppppppppppppppppppppppppppppppppppppppp",
"pppppppppppppppppppppppppppppppppppppppppppppppppppppppppppppppppppppppppppppppppppppppppppppppppppppppppppppp",
"pppppppppppppppppppppppppppppppppppppppppppppppppppppppppppppppppppppppppppppppppppppppppppppppppppppppppppppp",
"pppppppppppppppppppppppppppppppppppppppppppppppppppppppppppppppppppppppppppppppppppppppppppppppppppppppppppppp",
"pppppppppppppppppppppppppppppppppppppppppppppppppppppppppppppppppppppppppppppppppppppppppppppppppppppppppppppp",
"pppppppppppppppppppppppppppppppppppppppppppppppppppppppppppppppppppppppppppppppppppppppppppppppppppppppppppppp",
"pppppppppppppppppppppppppppppppppppppppppppppppppppppppppppppppppppppppppppppppppppppppppppppppppppppppppppppp",
"pppppppppppppppppppppppppppppppppppppppppppppppppppppppppppppppppppppppppppppppppppppppppppppppppppppppppppppp",
"pppppppppppppppppppppppppppppppppppppppppppppppppppppppppppppppppppppppppppppppppppppppppppppppppppppppppppppp",
"pppppppppppppppppppppppppppppppppppppppppppppppppppppppppppppppppppppppppppppppppppppppppppppppppppppppppppppp",
"pppppppppppppppppppppppppppppppppppppppppppppppppppppppppppppppppppppppppppppppppppppppppppppppppppppppppppppp",
"pppppppppppppppppppppppppppppppppppppppppppppppppppppppppppppppppppppppppppppppppppppppppppppppppppppppppppppp",
"pppppppppppppppppppppppppppppppppppppppppppppppppppppppppppppppppppppppppppppppppppppppppppppppppppppppppppppp",
"pppppppppppppppppppppppppppppppppppppppppppppppppppppppppppppppppppppppppppppppppppppppppppppppppppppppppppppp",
"pppppppppppppppppppppppppppppppppppppppppppppppppppppppppppppppppppppppppppppppppppppppppppppppppppppppppppppp",
"pppppppppppppppppppppppppppppppppppppppppppppppppppppppppppppppppppppppppppppppppppppppppppppppppppppppppppppp",
"pppppppppppppppppppppppppppppppppppppppppppppppppppppppppppppppppppppppppppppppppppppppppppppppppppppppppppppp",
"pppppppppppppppppppppppppppppppppppppppppppppppppppppppppppppppppppppppppppppppppppppppppppppppppppppppppppppp",
"pppppppppppppppppppppppppppppppppppppppppppppppppppppppppppppppppppppppppppppppppppppppppppppppppppppppppppppp",
"pppppppppppppppppppppppppppppppppppppppppppppppppppppppppppppppppppppppppppppppppppppppppppppppppppppppppppppp",
"pppppppppppppppppppppppppppppppppppppppppppppppppppppppppppppppppppppppppppppppppppppppppppppppppppppppppppppp",
"pppppppppppppppppppppppppppppppppppppppppppppppppppppppppppppppppppppppppppppppppppppppppppppppppppppppppppppp",
"pppppppppppppppppppppppppppppppppppppppppppppppppppppppppppppppppppppppppppppppppppppppppppppppppppppppppppppp",
"pppppppppppppppppppppppppppppppppppppppppppppppppppppppppppppppppppppppppppppppppppppppppppppppppppppppppppppp",
"pppppppppppppppppppppppppppppppppppppppppppppppppppppppppppppppppppppppppppppppppppppppppppppppppppppppppppppp",
"pppppppppppppppppppppppppppppppppppppppppppppppppppppppppppppppppppppppppppppppppppppppppppppppppppppppppppppp",
"pppppppppppppppppppppppppppppppppppppppppppppppppppppppppppppppppppppppppppppppppppppppppppppppppppppppppppppp",
"pppppppppppppppppppppppppppppppppppppppppppppppppppppppppppppppppppppppppppppppppppppppppppppppppppppppppppppp",
"pppppppppppppppppppppppppppppppppppppppppppppppppppppppppppppppppppppppppppppppppppppppppppppppppppppppppppppp",
"pppppppppppppppppppppppppppppppppppppppppppppppppppppppppppppppppppppppppppppppppppppppppppppppppppppppppppppp",
"pppppppppppppppppppppppppppppppppppppppppppppppppppppppppppppppppppppppppppppppppppppppppppppppppppppppppppppp",
"pppppppppppppppppppppppppppppppppppppppppppppppppppppppppppppppppppppppppppppppppppppppppppppppppppppppppppppp",
"pppppppppppppppppppppppppppppppppppppppppppppppppppppppppppppppppppppppppppppppppppppppppppppppppppppppppppppp",
"pppppppppppppppppppppppppppppppppppppppppppppppppppppppppppppppppppppppppppppppppppppppppppppppppppppppppppppp",
"pppppppppppppppppppppppppppppppppppppppppppppppppppppppppppppppppppppppppppppppppppppppppppppppppppppppppppppp",
"pppppppppppppppppppppppppppppppppppppppppppppppppppppppppppppppppppppppppppppppppppppppppppppppppppppppppppppp",
"pppppppppppppppppppppppppppppppppppppppppppppppppppppppppppppppppppppppppppppppppppppppppppppppppppppppppppppp",
"pppppppppppppppppppppppppppppppppppppppppppppppppppppppppppppppppppppppppppppppppppppppppppppppppppppppppppppp",
"pppppppppppppppppppppppppppppppppppppppppppppppppppppppppppppppppppppppppppppppppppppppppppppppppppppppppppppp",
"pppppppppppppppppppppppppppppppppppppppppppppppppppppppppppppppppppppppppppppppppppppppppppppppppppppppppppppp",
"pppppppppppppppppppppppppppppppppppppppppppppppppppppppppppppppppppppppppppppppppppppppppppppppppppppppppppppp",
"pppppppppppppppppppppppppppppppppppppppppppppppppppppppppppppppppppppppppppppppppppppppppppppppppppppppppppppp",
"pppppppppppppppppppppppppppppppppppppppppppppppppppppppppppppppppppppppppppppppppppppppppppppppppppppppppppppp",
"pppppppppppppppppppppppppppppppppppppppppppppppppppppppppppppppppppppppppppppppppppppppppppppppppppppppppppppp",
"pppppppppppppppppppppppppppppppppppppppppppppppppppppppppppppppppppppppppppppppppppppppppppppppppppppppppppppp",
"pppppppppppppppppppppppppppppppppppppppppppppppppppppppppppppppppppppppppppppppppppppppppppppppppppppppppppppp",
"pppppppppppppppppppppppppppppppppppppppppppppppppppppppppppppppppppppppppppppppppppppppppppppppppppppppppppppp",
"pppppppppppppppppppppppppppppppppppppppppppppppppppppppppppppppppppppppppppppppppppppppppppppppppppppppppppppp",
"pppppppppppppppppppppppppppppppppppppppppppppppppppppppppppppppppppppppppppppppppppppppppppppppppppppppppppppp",
"pppppppppppppppppppppppppppppppppppppppppppppppppppppppppppppppppppppppppppppppppppppppppppppppppppppppppppppp",
"pppppppppppppppppppppppppppppppppppppppppppppppppppppppppppppppppppppppppppppppppppppppppppppppppppppppppppppp",
"pppppppppppppppppppppppppppppppppppppppppppppppppppppppppppppppppppppppppppppppppppppppppppppppppppppppppppppp",
"pppppppppppppppppppppppppppppppppppppppppppppppppppppppppppppppppppppppppppppppppppppppppppppppppppppppppppppp",
"pppppppppppppppppppppppppppppppppppppppppppppppppppppppppppppppppppppppppppppppppppppppppppppppppppppppppppppp",
"pppppppppppppppppppppppppppppppppppppppppppppppppppppppppppppppppppppppppppppppppppppppppppppppppppppppppppppp",
"pppppppppppppppppppppppppppppppppppppppppppppppppppppppppppppppppppppppppppppppppppppppppppppppppppppppppppppp",
"pppppppppppppppppppppppppppppppppppppppppppppppppppppppppppppppppppppppppppppppppppppppppppppppppppppppppppppp",
"pppppppppppppppppppppppppppppppppppppppppppppppppppppppppppppppppppppppppppppppppppppppppppppppppppppppppppppp",
"pppppppppppppppppppppppppppppppppppppppppppppppppppppppppppppppppppppppppppppppppppppppppppppppppppppppppppppp",
"pppppppppppppppppppppppppppppppppppppppppppppppppppppppppppppppppppppppppppppppppppppppppppppppppppppppppppppp",
"pppppppppppppppppppppppppppppppppppppppppppppppppppppppppppppppppppppppppppppppppppppppppppppppppppppppppppppp",
"pppppppppppppppppppppppppppppppppppppppppppppppppppppppppppppppppppppppppppppppppppppppppppppppppppppppppppppp",
"pppppppppppppppppppppppppppppppppppppppppppppppppppppppppppppppppppppppppppppppppppppppppppppppppppppppppppppp",
"pppppppppppppppppppppppppppppppppppppppppppppppppppppppppppppppppppppppppppppppppppppppppppppppppppppppppppppp",
"pppppppppppppppppppppppppppppppppppppppppppppppppppppppppppppppppppppppppppppppppppppppppppppppppppppppppppppp",
"pppppppppppppppppppppppppppppppppppppppppppppppppppppppppppppppppppppppppppppppppppppppppppppppppppppppppppppp",
"pppppppppppppppppppppppppppppppppppppppppppppppppppppppppppppppppppppppppppppppppppppppppppppppppppppppppppppp",
"pppppppppppppppppppppppppppppppppppppppppppppppppppppppppppppppppppppppppppppppppppppppppppppppppppppppppppppp",
"pppppppppppppppppppppppppppppppppppppppppppppppppppppppppppppppppppppppppppppppppppppppppppppppppppppppppppppp",
"ppppppppppppppppppppppppppppppppppppppppppppppppppppppp0errrre0ppppppppppppppppppppppppppppppppppppppppppppppp",
"pppppppppppppppppppppppppppppppppppppppppppppppppppppp0etuutree0pppppppppppppppppppppppppppppppppppppppppppppp",
"ppppppppppppppppppppppppppppppppppppppppppppppppppppp9weuaauteew9ppppppppppppppppppppppppppppppppppppppppppppp",
"pppppppppppppppppppppppppppppppppppppppppppppppppppp4444----444-9ppppppppppppppppppppppppppppppppppppppppppppp",
"pppppppppppppppppppppppppppppppppppppppppppppppO&46686457575885466=&&ppppppppppppppppppppppppppppppppppppppppp",
"ppppppppppppppppppppppppppppppppppppppppppp%%%%%&-4777444577557444==&=-%%ppppppppppppppppppppppppppppppppppppp",
"ppppppppppppppppppppppppppppppppppppppp#111%%O%%& -;444;44444444&=&=&%%%%%Oppppppppppppppppppppppppppppppppppp",
"ppppppppppppppppppppppppppppppppppppp##1111%OOO%&&&&4;4;=&& &&==& &&--%%%OOOOOOppppppppppppppppppppppppppppppp",
"ppppppppppppppppppppppppppppppppp%11111#O#1%O..O4OOO&44=O..  OOO=OOOO&OOOO   OOO  %ppppppppppppppppppppppppppp",
"ppppppppppppppppppppppppppppppp####111#O.O%OO     &;;4;& ..     ==                O%%Oppppppppp...@@@@pppppppp",
"pppppppppppppppppppppwtuut0>>######O%1#...OO   &&&;&&&;&       .=5444#112233<#     %OOOOOppppp...@@@@@@ppppppp",
"ppppppppppppppppppppp,uuuut0>##OOOOO+1#.     #22221%%%;&O.    ..55=<121<<<2233<<#     OOO%ppp...@@@@@@@ppppppp",
"pppppppppppppppppppti,uo$$$@@OOOOO..+%+. . #23211221<%==.O.  ...5=%<21<##<22221<22<<#   Oyyq...@@@@@@@@ppppppp",
"pppppppppppppppppppit,o$@@@@@OO......+..##132<<<<<121%&=&..  ...5=%<2<<OO<2<%%%%<222<<#+ yy...@@@@@@@@@ppppppp",
"ppppppppppppppppppqit@$@@@@@@@@O%.....##2322<<##O<<11%O==..  ...-OO<1#O..<<%%OO%<2%%O+++.....@@@@@@@@@@ppppppp",
"ppppppppppppppppppqit@@@@@@@@@@OO1   #2211121#OOOO%<<%O==&.  ...-OO<<#.. <<%OOO%%<%O oooo....@@@@@@@@@@ppppppp",
"ppppppppppppppppppqt0@@@@@@@@@@@ O  +1111##12%OOOOO%<%O===.  ...-.O##..  OO%OOO%%%O.   .oo...@@@@@@@@@@ppppppp",
"ppppppppppppppppppqww@@@@@@@@@@@ OO +o@o OO%1OOOO.O%%%O=.=.  O..-..OO.   ..%OOOO%%. .  ......oooo@@o@@@ppppppp",
"pppppppppppppp66666:X@@@@@@@@@@@o..oo@o   .OOOOOO..OOOO=.&.  O .&  ...   ..O...O%O.    ..  .oooooooooooppppppp",
"ppppppppppppp444444>>@@@@@@@@@ooo... oo    .OOOO....OOO&.&.  OO &   ..   .O.  .O%O.    ..  .ooooooooooo4pppppp",
"ppp556666664444444444@@@@@@@ooooo  .        .O%O....O.O&O&O O OO&OO   OO O%    .O.     ..  ooooooooooo6644pppp",
"ppp446666666666666655@@@@@oooooooo ..        .%O....O  &% OOO   &  OOOOOOO%O   .O.     ..  ooooooooooo44444ppp",
"ppppp;4444444444444455@@oooooooooo ..        .OO....O  &O O   **&         OO    .          ooooooooooppppppppp",
"ppppp;;;;;;;;;;;;;;;;5oooooooooooo .         ..%...O   & **----4444--*****  O  O o         $$$$$$$$$$ppppppppp",
"ppppppppppppppppppppp--oooooooooo$$.           OOOO ****-44445566665444--*** OOO o        oooooooooopppppppppp",
"pppppppppppppppppppppppoooooooo$$oo.   o       O   ==========44554===========    ooo      oooooooooppppppppppp",
"ppppppppppppppppppppppppooooo$$ooooo    o    oOOppppppppppppp=====pppppppppppppp    oo    oooooooopppppppppppp",
"pppppppppppppppppppppppppoo$$ooooooo    o  ooopppppppppppppppppppppppppppppppppppppp  ooo oooooooppppppppppppp",
"pppppppppppppppppppppppppp$oooooooooo   ooo  ppppppppppppppppppppppppppppppppppppppppp     ooooopppppppppppppp",
"pppppppppppppppppppppppppppoooooooooo  o   pppppppppppppppppppppppppppppppppppppppppppppp  ooooppppppppppppppp",
"ppppppppppppppppppppppppppppooooooooo    ppppppppppppppppppppppppppppppppppppppppppppppppppppppppppppppppppppp",
"pppppppppppppppppppppppppppppoooooooo  ppppppppppppppppppppppppppppppppppppppppppppppppppppppppppppppppppppppp"
};
