/* XPM */
static char * enemy_aiming_xpm[] = {
"107 107 70 1",
" 	c #980088",
".	c #383838",
"+	c #404040",
"@	c #4C4C4C",
"#	c #545454",
"$	c #484848",
"%	c #707070",
"&	c #646464",
"*	c #5C5C5C",
"=	c #282828",
"-	c #7C7C7C",
";	c #303030",
">	c #343434",
",	c #2C2C2C",
"'	c #8C8C8C",
")	c #989898",
"!	c #C0C0C0",
"~	c #A8A8A8",
"{	c #404000",
"]	c #403018",
"^	c #000000",
"/	c #585400",
"(	c #706C00",
"_	c #5C4020",
":	c #1C1C1C",
"<	c #202020",
"[	c #302410",
"}	c #905C34",
"|	c #483818",
"1	c #744C28",
"2	c #28200C",
"3	c #D08050",
"4	c #A86840",
"5	c #80502C",
"6	c #F0945C",
"7	c #FCA470",
"8	c #BC7848",
"9	c #FC9C60",
"0	c #FCB890",
"a	c #E88C58",
"b	c #DC8854",
"c	c #FCB080",
"d	c #FCFCFC",
"e	c #DCDCDC",
"f	c #D0D0D0",
"g	c #046B01",
"h	c #057201",
"i	c #0A8206",
"j	c #2AA226",
"k	c #ECECEC",
"l	c #B4B4B4",
"m	c #543C1C",
"n	c #0E860A",
"o	c #168E12",
"p	c #045701",
"q	c #1A9216",
"r	c #057901",
"s	c #128A0E",
"t	c #034301",
"u	c #046501",
"v	c #034A01",
"w	c #033601",
"x	c #022801",
"y	c #021401",
"z	c #B47044",
"A	c #CC6000",
"B	c #B45400",
"C	c #9C4C00",
"D	c #3AB236",
"E	c #032F01",
"                                                                                                           ",
"                                                                                                           ",
"                                                                                                           ",
"                                                                                                           ",
"                                                                                                           ",
"                                                  ...+@#$$                                                 ",
"                                                .$%%%%&&&*+.                                               ",
"                                               .$%%%%%*####=.                                              ",
"                                              .+&-%%%%&###+=..                                             ",
"                                              .#%-%%%%%###@;>.                                             ",
"                                              #*%-%%%%%*##+.,#                                             ",
"                                              +---%%%%%&##@+>.                                             ",
"                                              +-%%&&%%%&$$$@+>                                             ",
"                                             .&'))''''--%%**#$.                                            ",
"                                             @%!!!!!~~''%%####$                                            ",
"                                             #+{{]]]]]]]]]]{{^.                                            ",
"                                            .;^{/{/((__((/{/{^:.                                           ",
"                                           .<^[}(|^#]}}]#^|(}1<<.                                          ",
"                                           ^^^2344}567735}4431^^^                                          ",
"                                           ^^^^}8900800800a8}^^^^                                          ",
"                                            ^^^^4a7b}__}b7a4^^^^                                           ",
"                                              ^^}3769339673}^^                                             ",
"                                               21378_}}_8731^                                              ",
"                                               ^_8779009778_^                                              ",
"                                              ^^]4a7b44b7a4]^^                                             ",
"                                             ^^^^]46cccc64]^^^^                                            ",
"                                            ^^^^^^]111115]^^^^^^                                           ",
"                                            ^^~de^^^]]]]2^^^ff^^^g                                         ",
"                                      hijj&&^^-kle^^2]]m^^llff^^noonp                                      ",
"                                     ijjjj&&^q<)fe^^^^^^^^lf~^rnqqqqnni                                    ",
"                                    ijqsjj&&..q:+^^^pppp^^^^^iqqqqqqqqqn                                   ",
"                                   ijjssjj&&&.qsngttpggpihhhhnsqooooqqqqn                                  ",
"                                  ijossisqn&&&innnirrutnurrinnnqssnsioqqqn                                 ",
"                                 ijjsirrgqnn&&&iniinnirsinniinionrnnisoooq                                 ",
"                                ijosiruutnnu.&&&iiinnirsinniinionihngssssqg                                ",
"                               ijssiruppthgp..&&&iihihtihihiinnhhhggpiiroqg                                ",
"                              ijosirgpvwwvvpu..&..iphuriuhpiooonrgpvpggoqqi                                ",
"                             ijjsirgptwwwwvpgu.....phpriphpiiiithgpwvpssqqi                                ",
"                            ijosirgptwwxxxwvwxu<<...ggthggwtxxxxtwvwtiiiiqi                                ",
"                           ijjshggptwwxxwxxwvvtu<<...guhggtgthgtvvwxvvvuiqoi                               ",
"                           iiihtxxwwxxwwx wyvuthu<<<...gggtgtuhtuvywxtpisqqi                               ",
"                           jihwwxxxxxwxx  tywuthpt<<<<..ggtptphtuwytxtpnqqqo                               ",
"                          gojjnipvwxxx    wywvwptwv^^<<..tvvwtpwvwywxwwghiiii                              ",
"                          gojjjivwxx      xyywwptwtt^^<<<..tttpwwyyxwxwrrsqsr                              ",
"                          gojsrrwwxx      yyyyxwwwwtv^^^<<<..vwxyyyyxxwpnissru                             ",
"                          gosrrrvwxx      yyyxwttvwxwv^^^^<<..twxyyyyxxwrnrsru                             ",
"                          gnjsirgpwxx     yyyyywtvwyxxwv^^^^^^^yyyyyyyyxvgrsru                             ",
"                          gnjjsirgpwx      y^^^^yxxxxxyxxy^^^^^^^^y yxwwvnjsru                             ",
"                          gnjjsirgpwx      y^^^^yxxxxxyxxy^^^^^^^^y yxwwvnjsru                             ",
"                          pnovwwwwww^     y^^^^^^^^^ee))^^^^====^^ yxxwvnqsrru                             ",
"                          pnvww5bbba5     ^^^^^^^^^^eelf^^^^^^^^^^ xxwwnqqsrru                             ",
"                            wwzz66cca8_wvoogw^^^^^^^--)l^^^^^^yxxx wxwwnqqsrr                              ",
"                            __zz66}}8a8_iiooigxxxxxxxxyxxxxxxxxxxxxwwxwvvuirr                              ",
"                            wwzz66}}8a8wiiooighggrrrxxyxttttxxxxxxxwx5a09vurr                              ",
"                             1zzc6}}<<@@wvgioiggggrrvvyxtttttwwwwxxw130000vru                              ",
"                             1zzc6}}<%%;wwggioihgggrvvyxpppppvtttttw500bb09r                               ",
"                              116634@%~%;xwvgiiiggggvvyxgggpvtttttt_5b}bb00u                               ",
"                               14633@%~~%;xwvgiihhhhvvyxguvvttttttt58ab7777                                ",
"                                1111 <%~~%Axxvvpppppvvyxpvttttttttt44443777                                ",
"                                       %%%BAxwvvppppvvyxttttttttvppp44443b                                 ",
"                                       _C_CBAxxwwwwwwwyxwttttttvppppp443b                                  ",
"                                       ]_C_CB1xxxwwwwwyxwwttttvpuuuuuvw                                    ",
"                                        ]_C_CBxxxxxxxxyxxxwwtvpuuuuuuvw                                    ",
"                                         ]_C_Cxwwwxxyyyyxwxxxxxwwwwwwvw                                    ",
"                                         v]___xwppttwxxxwtttvvvvvvtttww                                    ",
"                                         uutwxxwppttwwwwwvgggghinhhutv                                     ",
"                                        urrruugguuptwwwwvggggghiniigvt                                     ",
"                                        rrrrrrggpvttwwwwvvgughhisrigptx                                    ",
"                                        hhrrsoigggptwwwwtvpugiiisrihgut                                    ",
"                                       hhhhnoqighrgtwxxwtvpghiiioriihut                                    ",
"                                       gggroqqighrgvwxywttvugiiiorirguw                                    ",
"                                       ggrsqjqighrgvwxyywtvuiiiiorihhutx                                   ",
"                                      ggrnqjjqggghgvwxy wwtpiiiioriirhtw                                   ",
"                                      grisjjjnuguggtwxy wwvpiiiisrirggtw                                   ",
"                                      ginojjngppuuptwy   wvuiiiinrirgutw                                   ",
"                                      hnojDqipttpupwxy   tvuiiiinriiiutw                                   ",
"                                     ghnqjDqgwtttvtxxy   tvpgiiinriiirpw                                   ",
"                                     hinqjDqpwwttwxxx    tvpgghinriiiupw                                   ",
"                                     hinqjDjpwwpwxxxx    wuhhhhhirruptww                                   ",
"                                    uginqjDjwwtpwxxxx    wuggggghrutttxw                                   ",
"                                    uginqjDiwwvuwxxxx    xvpgggghhttttxx                                   ",
"                                    uurnsqjuwttvuwxx     xtvpggghgttwtwx                                   ",
"                                   tvtgrsssvwtvvvtwx     xttpggphptwxtwx                                   ",
"                                   tttpghhgwwtvvtww     xttttpgghpwxwvwwx                                  ",
"                                   wwttvpguwwwwwwwx     xvttttpghpwwtvwpx                                  ",
"                                   xxwtttttwwwxxxwx     xwvvttpghvwwvvpwx                                  ",
"                                    <<xxEtxxxxyxxx       xx^wuuuiupvwxxx                                   ",
"                                    <<xxEtxxxxyxxx       xx^wuuuiupvwxxx                                   ",
"                                    ^^^^==<<::^^]         ^^<<<<;;<<^^]                                    ",
"                                    ^^^^==<<::^^x         ^^<<<<;;<<^^x                                    ",
"                                    ^^^::<<<<^^^          ^^^<<<<<<^^^                                     ",
"                                    ^^^::<<<<^^^          ^^^<<<<<<^^^                                     ",
"                                    ^^,,::<<<<^^          ^^^<<<<<<<^^                                     ",
"                                    ^^,,::<<<<^^          ^^^==<<<<<^^                                     ",
"                                    ^,,,,::<<^^           ^^:.==:<<<^^                                     ",
"                                   ^^..;;::^^^            ^^:=.=:<<<^^                                     ",
"                                  ^^;..;;::^^^             ^^:..::<<^^                                     ",
"                                  ^^;;;==^^^^^              ^:..::<<^^                                     ",
"                                  ^^;;=:<<<^^               ^^..=:^^^                                      ",
"                                  ^^;;=:<<<^                ^^..=:^^                                       ",
"                                  ^....::<<^                ^:...==^                                       ",
"                                 ^^....<<::^^              ^^:...==^^                                      ",
"                                ^<;....<<::^^^            ^^::<...=<:^                                     ",
"                               ^^<;;;;;::::^^^            ^^:<:...=<:^^                                    ",
"                              ^^^<<;;::::<<<^              ^^::::<<::^^^                                   ",
"                              ^^^<<<<<<<<<<<                <<<<<<<<<^^^                                   ",
"                              ^^<<<<<<<<<<<<                <<<<<<<<<<^^                                   "};
