/* XPM */
static char * enemy_captain_dead_1_xpm[] = {
"128 127 87 1",
" 	c #C12D8D",
".	c #9D0000",
"+	c #910000",
"@	c #840000",
"#	c #AE0000",
"$	c #010B7E",
"%	c #6A0000",
"&	c #ABABAB",
"*	c #737373",
"=	c #FFFEFF",
"-	c #530000",
";	c #8C0000",
">	c #800000",
",	c #010A6B",
"'	c #010758",
")	c #420000",
"!	c #232323",
"~	c #2F2F2F",
"{	c #616161",
"]	c #818101",
"^	c #000001",
"/	c #4B3B1B",
"(	c #83532F",
"_	c #9F633B",
":	c #434301",
"<	c #373701",
"[	c #AB6B43",
"}	c #F3975F",
"|	c #FF9F63",
"1	c #FFB383",
"2	c #DF8B57",
"3	c #D38353",
"4	c #5F5F01",
"5	c #9F9F01",
"6	c #FFDBC7",
"7	c #FFE3D3",
"8	c #FFCFB3",
"9	c #FFC7A7",
"0	c #939301",
"a	c #6B6B01",
"b	c #FFBB93",
"c	c #AFAF01",
"d	c #8B5B33",
"e	c #935F37",
"f	c #FFA773",
"g	c #EB8F5B",
"h	c #EBA377",
"i	c #FFBF9F",
"j	c #FFD7BF",
"k	c #777701",
"l	c #CB7F4F",
"m	c #BF7B4B",
"n	c #A3673F",
"o	c #3B3B3B",
"p	c #575757",
"q	c #676767",
"r	c #B77347",
"s	c #9F4F01",
"t	c #7F7F7F",
"u	c #8F8F8F",
"v	c #C3774B",
"w	c #EFBB9B",
"x	c #000000",
"y	c #774F2B",
"z	c #573F1F",
"A	c #2B230F",
"B	c #333333",
"C	c #5F4323",
"D	c #43331B",
"E	c #DFDFDF",
"F	c #1F1F1F",
"G	c #EFEFEF",
"H	c #373737",
"I	c #B7B7B7",
"J	c #D3D3D3",
"K	c #C3C3C3",
"L	c #BBBBBB",
"M	c #9B9B9B",
"N	c #4B4B4B",
"O	c #5B5B5B",
"P	c #FFFFFF",
"Q	c #7B7B7B",
"R	c #434343",
"S	c #C7C701",
"T	c #EFEF01",
"U	c #878701",
"V	c #0A0A0A",
"                                                                                                                                ",
"                                                                                                                                ",
"                                                                                                                                ",
"                                                                                                                                ",
"                                                                                                                                ",
"                                                                                                                                ",
"                                                                                                                                ",
"                                                                                                                                ",
"                                                                                                                                ",
"                                                                                                                                ",
"                                                                                                                                ",
"                                                                                                                                ",
"                                                                                                                                ",
"                                                                                                                                ",
"                                                                                                                                ",
"                                                                                                                                ",
"                                                                                                                                ",
"                                                                                                                                ",
"                                                                                                                                ",
"                                                                                                                                ",
"                                                                                                                                ",
"                                                                                                                                ",
"                                                                                                                                ",
"                                                      ..++@@@@                                                                  ",
"                                                    #.$$$$$$$$@@@@@                                                             ",
"                                                    $$$$$$$$$$$$$$$@%                                                           ",
"                                                   +$$&*$$$$$$$$$$$$$%%                                                         ",
"                                                   $$=&$$$$$$$$$$$$$$$$%-                                                       ",
"                                                   $*&$$;;;;;;;;>>>$$$$$,-                                                      ",
"                                                   $$$$;;;;;;;;;;;>>%$$,''-                                                     ",
"                                                    $$;;&*;;;;;;;>>>>%%'''')                                                    ",
"                                                    $$!~~~!!!*{]%>>>%%--''')                                                    ",
"                                                     ~!^^^^^^----------))'')                                                    ",
"                                                    ~!^^^/((____::::<<)))'')                                                    ",
"                                                    ~^^^/[}|1|23_4444:<))'')                                                    ",
"                                                   ~!^^/[516789}3000004<)'')                                                    ",
"                                                   ~^^^(0a[}b779}cc11c4<)')                                                     ",
"                                                   ~^^//(de_}b79fc1gg14<)                                                       ",
"                                                    ^^ehhhbi8jj9bfighk4<                                                        ",
"                                                     /lb1mbi998bb1f1hd::                                                        ",
"                                                      e__[3hb99bb11lndeo                                                        ",
"                                                       epqmmhibbb1grenes                                                        ",
"                                                       qt&umhff1b1rnnnes                                                        ",
"                                                       qdnhbff111vennn(                                                         ",
"                                                       ewwhff1f|[e_[r_(                                                         ",
"                                                       hwhhllvr__rmrrn(x                                                        ",
"                                                       emrn_e_nrlb9f[n(x                                                        ",
"                                                       yyyy[rnmhi9b2nezxu                                                       ",
"                                                         AAemlhiiig[(zBxuu                                                      ",
"                                                        A^^Crmmmre(CD^~xuuEEEEE                                                 ",
"                                                       ~^^^^zzzz^^^^^FxuuGEGGEEE                                                ",
"                                                     FHHIFFFxx&&uxxxxxuuJGGGGEKKEJK                                             ",
"                                                   GFFHH&IuuxxxxxxxxuuJJGGGEEKGGJEJE                                            ",
"                                                 GG=FFHH&J&uuuuu&&&&LJGGEGEJGGGKKKEEE                                           ",
"                                                GG=EFFHH&=&J&JJJJ====EGGEIJKKKEIIEEEEE                                          ",
"                                               GG=EEFFFH~MGN&===========EIJqIMM&JEGGGGE                                         ",
"                                              EG=EEJpFFF~MGGMJJJJJJJJJGGEGJp*MMKJGjjjbgE                                        ",
"                                             EGE=JKE&OFF~~JEMJIJEGGGGGGJGKJuqu&I&jbbbbglE                                       ",
"                                            EGGGKKLEGMFF~~KpMJKEGGLGEEGIGJJtNNutjbggjbg_lE                                      ",
"                                           uJGJIKJPPPEqFx~~JMK&ILKLJ&&MqGJJQqoRRgglljbfg_l                                      ",
"                                          GJ&=J&JJPP&JQFxF~~MKuMM&JJLKuqEJJQORooRNpjbggfl__                                     ",
"                                         JJGGG&MJKPGMMKOFxF~~&tIMKJEKJMtEJJ*poRN  bbggfl_l_                                     ",
"                                         JJGGE&uJLMt&GJuOxxx~~uuIELEKEMQJKu*poRN  bggfl_gl_                                     ",
"                                        JEI&EE&uEIIG&GIEKFFxxF~~&EIJKKu*JItqRRNq    fl_gl__                                     ",
"                                        GJKI&II*JIIGIG&EKtFxxFF~~J&IMu*uuI*pNRq      ggl__                                      ",
"                                       GGEJKKtMq&ILGIE&t&*pFxxFF~~uuQ**Mtt*NRO                                                  ",
"                                      GGGGJKIIqq*u&Gt&t**MupFxxFF~~~O*MuutNpRq                                                  ",
"                                      GKJEJMKtppqu&&&*uuuutFpFFxxFF~~*p*ppHRN                                                   ",
"                                     KMOOMKKMMO q*MQtuuqqqQK*pxxxxFF~~~*pHHHq                                                   ",
"                                     MbbbOMKMO   QuMt*qNNNN*NNxxxxxxxFFFxHHH                                                    ",
"                                     b|l||OMO    *uu*q!FxSTTSxFxxxxxxxxxxxHH                                                    ",
"                                    b|l__b|O      *qFxFFx5SS5xxxxxxxxxxxxxxH                                                    ",
"                                    |l_CC|l        xxFFxxkUUkxFFFFFFFFxxxxxx                                                    ",
"                                    |||lCll       xxFF*MMttttttIuMuutQtqHHxxx                                                   ",
"                                    llll_         xFpMKMuM&&KKKJJJJJJKM&uHHxx                                                   ",
"                                     ||||_        FMIEJL&uLEEEEEEEJJJJKL&&tHH                                                   ",
"                                      llll        FuJJKK&tJEEEEEEEJJJKLKJ&tqH                                                   ",
"                                       ___        IIEEKL&tJEEEEEEEEEKKLJJM*qH                                                   ",
"                                                  uLKLLIKtJEEJJJEEEEKKIJ&uqqq                                                   ",
"                                                 u&&uuQMM**q*q*tQMIIIIKKM**tuq                                                  ",
"                                                &IEGJuq**NoNRQuLuMtuMKLMuq*uQq                                                  ",
"                                                IJJJGGtqpoop*MKK&KKMutuu**QuqO                                                  ",
"                                               IJJGEGEuqNoROqM&LJGEEKMt*tqutqq                                                  ",
"                                               IJGGGGL*qqNRpOuKEGGGGGEJMqqMtqO                                                  ",
"                                              IKJGGGE&**QqRppu&EEGEGGEEELt*q*O                                                  ",
"                                              JJEGGEJMtuMqNppt&EEJEGGEEEJKqQ*O                                                  ",
"                                             LJJGGEJJuu&MqNNO*MJEJEGGEEEJL*Qpp                                                  ",
"                                             LJJGGEJJI&KqOpNNqMKJJEGGEEEJKM*N                                                   ",
"                                            IKJGGEJJJKLuOuqpNpMLJJEGGEEEJIMqqN                                                  ",
"                                            KKJGGEJJJKMOuMqpppMIEJEEGEEEJ&*qtN                                                  ",
"                                            KJEGGJJJK&tQKMpNpO&&EJEEGEEJK&tOtN                                                  ",
"                                           LJEGGJKKKKJ&MMqNNqqIIEJEEGEEJK&tO*p                                                  ",
"                                          KKJGGEEEJKKJuM*ONN  IKJJEEGEEJK&QqQp                                                  ",
"                                          EEJGGEEEEEGGGM*qNN  KJEJEEGEEJK&Q*up                                                  ",
"                                          GEEGGEIKKEEGEI*ppq MEEJJKJEJJ&K&***p                                                  ",
"                                          EJGGJJut&&KKJJuNN tuJK&IIJEKIMM&t*p                                                   ",
"                                          EEEGEJuttu&&&&tNNx*tM&&&&JE&&&q**q                                                    ",
"                                          GG&JELMuu*quu*NNNxqQM&&&&&L&&It*pq                                                    ",
"                                           G&&EE&Mt*qqqpNNxxp*t&&M&M&&MMutqqO                                                   ",
"                                           &Qt&EE&Mt*OOqNxxxNNQuMMMM&MMMutOpqN                                                  ",
"                                            QQI&EJMuttqNxxxxNNOtuMM&&MMMQQppqp                                                  ",
"                                             QQuMEMtQQxxxxxxxNp*tMM&IMMt*qppqN                                                  ",
"                                              QQMMuuQxxFxxxxxxpqqtuuMMQq*ONqqH                                                  ",
"                                                 xxxxxxxxxxxxxNpqq*tt***ONNqRH                                                  ",
"                                                  xxxxxxxxxxxxF~NO***QqpNNpo~~                                                  ",
"                                                   xxxFFxFxxxxVFNpqpNNRRoHoo~                                                   ",
"                                                    xFxx~xxxxxxVVVVVVVVxVVxx                                                    ",
"                                                     x~FxxxxxxxF~~~~~FFxVVxx                                                    ",
"                                                      xxxxxxxxxxF~~FVVVVVVxx                                                    ",
"                                                       FFFFxxxFxxVVVVVFVVVxx                                                    ",
"                                                        FxxFFFxxxF~FFFVVVVxx                                                    ",
"                                                         FxxxxFxxx~FVVVVVVxxx                                                   ",
"                                                         FxxxxxFxxx~FVVVVxxxx                                                   ",
"                                                        xxxxxxxxxxxxxxxxxxxxx                                                   ",
"                                                        ~~FFxxxxxxxxxxxxxxxxx                                                   ",
"                                                       xxxxxxxxx  xxxxxxxxxxx                                                   ",
"                                                      F~~~~~FFxx  xxxxxxxxxxx                                                   ",
"                                                      xxxxxxxxxx   xxFFxxxxxx                                                   ",
"                                                      xxxxxxxxx     FxxFxxxxFx                                                  ",
"                                                                    ~xxxFFFFFx                                                  ",
"                                                                    xxxxxFxxxx                                                  ",
"                                                                   ~oo~FVVFxxx                                                  ",
"                                                                  x~~~~xxxFxxx                                                  ",
"                                                                 !ooooo!FFVFxx                                                  ",
"                                                                FFFFFFFFFVVVxx                                                  ",
"                                                                xxxxxxVVVVVVx                                                   ",
"                                                                xxxxxxVVVVVV                                                    "};
