/* XPM */
static char * enemy_PM_aiming_xpm[] = {
"106 107 65 1",
" 	c #FCC0CB",
".	c #383838",
"+	c #4D4D4D",
"@	c #323232",
"#	c #171717",
"$	c #292929",
"%	c #222222",
"&	c #646464",
"*	c #1E1E1E",
"=	c #434343",
"-	c #000000",
";	c #2E2E2E",
">	c #353535",
",	c #252525",
"'	c #3C3C3C",
")	c #848400",
"!	c #5C4020",
"~	c #28200C",
"{	c #B47044",
"]	c #FCCC18",
"^	c #80502C",
"/	c #483818",
"(	c #A0643C",
"_	c #E46C00",
":	c #D08050",
"<	c #905C34",
"[	c #FC9C60",
"}	c #E88C58",
"|	c #BC7848",
"1	c #A86840",
"2	c #FCB080",
"3	c #FCB890",
"4	c #FCC4A4",
"5	c #FCA470",
"6	c #FCD4BC",
"7	c #DC8854",
"8	c #F0945C",
"9	c #4C4C4C",
"0	c #7C7C7C",
"a	c #A8A8A8",
"b	c #7C0000",
"c	c #D0D0D0",
"d	c #00001C",
"e	c #262626",
"f	c #403018",
"g	c #4A4A4A",
"h	c #303030",
"i	c #5B5B5B",
"j	c #525252",
"k	c #626262",
"l	c #717171",
"m	c #000040",
"n	c #4040FC",
"o	c #7C80FC",
"p	c #9C9CFC",
"q	c #00007C",
"r	c #989898",
"s	c #000098",
"t	c #000058",
"u	c #545454",
"v	c #8C8C8C",
"w	c #707070",
"x	c #744C28",
"y	c #202020",
"z	c #656565",
"                                                                                                          ",
"                                                                                                          ",
"                                                                                                          ",
"                                                                                                          ",
"                                                  ..++++++.@                                              ",
"                                                 @##.++++.##@                                             ",
"                                                $$%%#.&&.#*%%$                                            ",
"                                               $$=%%#----#*%%$$                                           ",
"                                               $@=%########%%@$                                           ",
"                                               ;>>%##----####>;$                                          ",
"                                              >>>####-..-#####>>                                          ",
"                                              >,>####----#####>>                                          ",
"                                              ##,,>'''''''''>,##                                          ",
"                                              )!~,,,,,,,,,,,,,~)                                          ",
"                                             {]^!~~~~/!!/~~~~~^]{                                         ",
"                                             (_:<~.%~~<<~~%.~<:_(                                         ",
"                                             {([}|1^^|2}<^^1([:({                                         ",
"                                             {([3345:}6[}:54[7[({                                         ",
"                                              (7[[[|(:((<(|[77|(                                          ",
"                                              ({:78(5}1:<(^8|11(                                          ",
"                                               :||8(90aa09^8((1                                           ",
"                                               7||8(-bbbb-^8((1                                           ",
"                                               7|{8^9acca9^8(11                                           ",
"                                               !||81|5445|1[11!-                                          ",
"                                          '---d!<|}::1111::}1<!----                                       ",
"                                     e=-------d-!<|}[33322[{<!--;>>--dee                                  ",
"                                    e'dd------e---<}5[322[}<f---;>e-'g'dd                                 ",
"                                   ==dde------e----^((((((^f---d;e-eg'-d=d                                ",
"                                  =eeee;------ed-h--f!!!f-------------e=ged                               ",
"                                 ee=e>e'------'d--h--!f--h----eeee---d=g'eed                              ",
"                                 ee-eee'------';d-------9---'iig';eeedg'ddded                             ",
"                                e''---';e-----gg>ddddddddd'ji''gg'';eeg'dddded                            ",
"                                eee--d';e------gg>>ddde--'gi''''';eeeegk'edd'e                            ",
"                               ee''e-d;eee-----'gggedde=ii'>>>>;;;eedeegk'edd'd                           ",
"                               e=>>e-d;eee------>ggeddeg'>>>>>>;;eeedg>>ggged'e                           ",
"                               eg>e--d;ee;e------>geddeg''''';;;eeeddk'>gkg'ed'e                          ",
"                              e=g=>e-d;ee>;------>geddegeddddddddddddggkkkg>edd'd                         ",
"                              ejj>e--d>ee>>;----->>edde'eeeeeeeeedddde=gkkg='ed'dd                        ",
"                              ejgee--d'ee>>>>----->edde'eeeeeeeddddddd==gkg=='d'ed                        ",
"                             =ej=>>e-d''e;>>>----->edde'ee;;;;;;eed>dde>>>>>''--eed                       ",
"                             ==j'ee--d'g'eee>>-----edde'ee;;;;;;eed>ddddeeeeee--eed                       ",
"                             eigge---de'g''e>>------ddeeeeeeeeeeeed>dd-dddddddegeedd                      ",
"                             eiigg=>;-de'''=>>e------ddeeeeeeeeeeed>d--eddddddegeedd                      ",
"                             ellli'>>;-deddddddd-----ddeeeeeeeeeededdd-dee''kg''e-dd                      ",
"                             ===;;;;ee--eemmnnooppqqdd-ddeeeeeqommed---deeddk'g'--dd                      ",
"                             e;;======qqppppppppppprrrd----ddmssmd----''kgkkg'e''---                      ",
"                             e;;======sqqqqqqqqqqqqqqnnnnnnnnnsqqt---gkkkgg>'gdd'---                      ",
"                             e========sssssssssssssqsqqqqqqqqqs--s''kkg''''g'edd'ddd                      ",
"                              ========sssssssssssssq-sssssssssssss>>''''''e'geeedddd                      ",
"                              ee==jh&&tssssssssssssq---------t----u9h>eeeee'gedd---                       ",
"                              ee==h0rvttsssssssssssqqs--sqsf1<----uu9heeeeee'-dd--                        ",
"                              eeee&w&--/{/----ttttts---(:::||11!~-h9u.heeeee'd---                         ",
"                               eeeu&--/::{/---tqtqss---(:111111^!-d.u9heeedded--                          ",
"                               edd9u-/1:}2[22<tqtqss--(//x:1111^!-dh9.hddddde--                           ",
"                                dd.9-x1{22[22<tqtqss--(<{:81111^!-dd..hddddd--                            ",
"                                 e..-x77[::<!!tqtqss--f^xx<<11<^/-ddhhyd----                              ",
"                                   .-x|722777<tqtqss---<1::1<^x!f-dyyydd--                                ",
"                                    ex(|[21(<<!d--------!^^^^!/f--------                                  ",
"                                    ee<(7:<<!!!d---------!!!!f----------e                                 ",
"                                    eee<77771<d-------------eeeeeedddd---                                 ",
"                                   eeeee1{{<<xd-------------eeeeeedddd---e                                ",
"                                   eeeeeeeeeeedddddd------dddddddddddddd-e                                ",
"                                   ee'''''''eddddddd------dddddddddd--dd-e                                ",
"                                   e'dddddddddddddddd----dddddddde'''edddee                               ",
"                                   ddeee'=='eeeedd-d---dddeeeedddddddd;'eee                               ",
"                                   eeee'g=='''eeed-de>'eee;;;eeeeee'g'ee'ee                               ",
"                                   ee'''zjj'''eeed-de>>;;;;;;;;;;ee'g''ed'e                               ",
"                                   eeee'zj='''eeed--e>>>'g'''';eeeeeg'>'dde                               ",
"                                  eee'ggj=='''e--d---;'gg'''';eeeeeeg';>dde                               ",
"                                  eeee'zj='';;e--d---;>g'';;eeeeeeee'ge;ed                                ",
"                                  eeee'zj='';;---d---e>'';eeeeee'>'e>keee-                                ",
"                                  eegggj'''';;ee-d--de'';;;;''=gj='e'k'eed                                ",
"                                 eee'gzjjj'';;ddee--d >;e'gggjjjg>ee'kge>d                                ",
"                                 eee'gzj'';;ee----ed- ;;'iiiijj''ede'gke>d                                ",
"                                 eg''gg='';;ee--dddd   e>ijjj>>eddde'gkeee                                ",
"                                 e'ggzzzzj;;eedddddd   e>j>>>ed''ee'=gk''ed                               ",
"                                 eeeezzj'';;eeed-ddd   ee'eee''ee''=ggkg>>e                               ",
"                                 eeeeezj;;;;;;edd-dd    eee''>>'=ggggglg>>ed                              ",
"                                 eee'g==;;;;;;;;e-dd    eeee>''=gggglllje>>d                              ",
"                                 eee=zj';;eeee--eedd     eee>''=gjkk=='gee>ed                             ",
"                                eeee=zj'=;;;e----'e     e>>>=ggjjk'=eeee'eeed                             ",
"                                ee=jiiggg====;dddd'     >'''jjjjg=='eeee'''ed'                            ",
"                                e=giii='''''''';eddd   e>ggggggg='''g'eee>''''                            ",
"                                egjjgg'edddddddd;eddd  e>gggggg='''gg'eeee''''                            ",
"                                 egggg'eddddddddd;edd  e>gggggg'''gkg'eedddd''                            ",
"                                 >;ggg'eddddddeeeeddd  e>''''''''glkg'eedded''                            ",
"                                  ;>ggg'eddddeeddddd   eeeee;;;e'glkg'eedded-'                            ",
"                                   ;;gg'dddddddd----    edd;;;ee'ggg'eeeeed'-                             ",
"                                     y--------------     edddeee'''eeeeeee--d                             ",
"                                     -yyyy----------      --yy---dddddddddddd                             ",
"                                      -dy-----------       d.yyydddd-----dddd                             ",
"                                       --yddd--------      d.yyyyddd-----dddd                             ",
"                                        dy-dd-----yy--     d.hyyddddd--dddddd                             ",
"                                        -.yy--------d-     dh.yyydddd--ddddd                              ",
"                                        -yy---------d-      d...yyddd--dddd                               ",
"                                        -..yyyyy----d-      dhhh.hhhy--dddd                               ",
"                                       -ydd----y----d-       dyhyyddd--ddd                                ",
"                                       -ydddd--y----d-       -yhhy--d--ddd                                ",
"                                     ddyddddd-y----d--       ddyhhhy-----d                                ",
"                                    dy.yyyyyyy----          dyhhhydd-----d                                ",
"                                    ddddddd--y----          dhyhhdddd--ddd                                ",
"                                    -dddddd--y----          dhyyyyddd--dddd                               ",
"                                    -dddddd-----d           dhyydddddddddddd                              ",
"                                                            dhyyu9yyyyyyyy.dd                             ",
"                                                             dyy.ddddddddd.dd                             ",
"                                                              ddddddd--dddydd                             ",
"                                                               dddddddddddddd                             "};
