/* XPM */
static char *_99c1478c274485ab0c8424e4f732fdd7YlHXpIX3odqlthl[] = {
/* columns rows colors chars-per-pixel */
"114 112 43 1 ",
"  c black",
". c #00001C",
"X c #131313",
"o c #28200C",
"O c #202020",
"+ c gray15",
"@ c gray18",
"# c gray19",
"$ c #353535",
"% c gray22",
"& c #3C3C3C",
"* c #400000",
"= c #580000",
"- c #640000",
"; c #700000",
": c #7C0000",
"> c #403018",
", c #483818",
"< c #5C4020",
"1 c #744C28",
"2 c #434343",
"3 c gray29",
"4 c #4C4C4C",
"5 c gray32",
"6 c #626262",
"7 c #880000",
"8 c #980000",
"9 c #B00000",
"0 c #BC0000",
"q c #C80000",
"w c #E00000",
"e c #80502C",
"r c #905C34",
"t c #A0643C",
"y c #A86840",
"u c #B47044",
"i c #BC7848",
"p c #D08050",
"a c #DC8854",
"s c #E88C58",
"d c #F0945C",
"f c #FC9C60",
"g c #FFC0CB",
/* pixels */
"gggggggggggggggggggggggggggggggggggggggggggggggggggggggggggggggggggggggggggggggggggggggggggggggggggggggggggggggggg",
"gggggggggggggggggggggggggggggggggggggggggggggggggggggggggggggggggggggggggggggggggggggggggggggggggggggggggggggggggg",
"gggggggggggggggggggggggggggggggggggggggggggggggggggggggggggggggggggggggggggggggggggggggggggggggggggggggggggggggggg",
"gggggggggggggggggggggggggggggggggggggggggggggggggggggggggggggggggggggggggggggggggggggggggggggggggggggggggggggggggg",
"gggggggggggggggggggggggggggggggggggggggggggggggggggggggggggggggggggggggggggggggggggggggggggggggggggggggggggggggggg",
"gggggggggggggggggggggggggggggggggggggggggggggggggggggggggggggggggggggggggggggggggggggggggggggggggggggggggggggggggg",
"gggggggggggggggggggggggggggggggggggggggggggggggggggggggggggggggggggggggggggggggggggggggggggggggggggggggggggggggggg",
"gggggggggggggggggggggggggggggggggggggggggggggggggggggggggggggggggggggggggggggggggggggggggggggggggggggggggggggggggg",
"gggggggggggggggggggggggggggggggggggggggggggggggggggggggggggggggggggggggggggggggggggggggggggggggggggggggggggggggggg",
"gggggggggggggggggggggggggggggggggggggggggggggggggggggggggggggggggggggggggggggggggggggggggggggggggggggggggggggggggg",
"gggggggggggggggggggggggggggggggggggggggggggggggggggggggggggggggggggggggggggggggggggggggggggggggggggggggggggggggggg",
"gggggggggggggggggggggggggggggggggggggggggggggggggggggggggggggggggggggggggggggggggggggggggggggggggggggggggggggggggg",
"gggggggggggggggggggggggggggggggggggggggggggggggggggggggggggggggggggggggggggggggggggggggggggggggggggggggggggggggggg",
"gggggggggggggggggggggggggggggggggggggggggggggggggggggggggggggggggggggggggggggggggggggggggggggggggggggggggggggggggg",
"gggggggggggggggggggggggggggggggggggggggggggggggggggggggggggggggggggggggggggggggggggggggggggggggggggggggggggggggggg",
"gggggggggggggggggggggggggggggggggggggggggggggggggggggggggggggggggggggggggggggggggggggggggggggggggggggggggggggggggg",
"gggggggggggggggggggggggggggggggggggggggggggggggggggggggggggggggggggggggggggggggggggggggggggggggggggggggggggggggggg",
"gggggggggggggggggggggggggggggggggggggggggggggggggggggggggggggggggggggggggggggggggggggggggggggggggggggggggggggggggg",
"gggggggggggggggggggggggggggggggggggggggggggggggggggggggggggggggggggggggggggggggggggggggggggggggggggggggggggggggggg",
"gggggggggggggggggggggggggggggggggggggggggggggggggggggggggggggggggggggggggggggggggggggggggggggggggggggggggggggggggg",
"gggggggggggggggggggggggggggggggggggggggggggggggggggggggggggggggggggggggggggggggggggggggggggggggggggggggggggggggggg",
"gggggggggggggggggggggggggggggggggggggggggggggggggggggggggggggggggggggggggggggggggggggggggggggggggggggggggggggggggg",
"gggggggggggggggggggggggggggggggggggggggggggggggggggggggggggggggggggggggggggggggggggggggggggggggggggggggggggggggggg",
"gggggggggggggggggggggggggggggggggggggggggggggggggggggggggggggggggggggggggggggggggggggggggggggggggggggggggggggggggg",
"gggggggggggggggggggggggggggggggggggggggggggggggggggggggggggggggggggggggggggggggggggggggggggggggggggggggggggggggggg",
"gggggggggggggggggggggggggggggggggggggggggggggggggggggggggggggggggggggggggggggggggggggggggggggggggggggggggggggggggg",
"gggggggggggggggggggggggggggggggggggggggggggggggggggggggggggggggggggggggggggggggggggggggggggggggggggggggggggggggggg",
"gggggggggggggggggggggggggggggggggggggggggggggggggggggggggggggggggggggggggggggggggggggggggggggggggggggggggggggggggg",
"gggggggggggggggggggggggggggggggggggggggggggggggggggggggggggggggggggggggggggggggggggggggggggggggggggggggggggggggggg",
"gggggggggggggggggggggggggggggggggggggggggggggggggggggggggggggggggggggggggggggggggggggggggggggggggggggggggggggggggg",
"gggggggggggggggggggggggggggggggggggggggggggggggggggggggggggggggggggggggggggggggggggggggggggggggggggggggggggggggggg",
"gggggggggggggggggggggggggggggggggggggggggggggggggggggggggggggggggggggggggggggggggggggggggggggggggggggggggggggggggg",
"gggggggggggggggggggggggggggggggggggggggggggggggggggggggggggggggggggggggggggggggggggggggggggggggggggggggggggggggggg",
"gggggggggggggggggggggggggggggggggggggggggggggggggggggggggggggggggggggggggggggggggggggggggggggggggggggggggggggggggg",
"gggggggggggggggggggggggggggggggggggggggggggggggggggggggggggggggggggggggggggggggggggggggggggggggggggggggggggggggggg",
"gggggggggggggggggggggggggggggggggggggggggggggggggggggggggggggggggggggggggggggggggggggggggggggggggggggggggggggggggg",
"gggggggggggggggggggggggggggggggggggggggggggggggggggggggggggggggggggggggggggggggggggggggggggggggggggggggggggggggggg",
"ggggggggggggggggggggggggggggggggggggggggg8:ggggggggggggggggggggggggggggggggggggggggggggggggggggggggggggggggggggggg",
"ggggggggggggggggggggggggggggggggggggggggg;0ggggggggggggggggggggggggggggggggggggggggggggggggggggggggggggggggggggggg",
"gggggggggggggggggggggggggggggggggggggggggggggggggggggggggggggggggggg;ggggggggggggggggggggggggggggggggggggggggggggg",
"gggggggggggggggggggggggggggggggggggggggggggggggggg0ggggggggggggggggggggggggggggggggggggggggggggggggggggggggggggggg",
"gggggggggggggggggggggggggggggggggggggggggggggggggggggggggggggggggggggggggggggggggggggggggggggggggggggggggggggggggg",
"gggggggggggggggggggggggggggggggggggggggggggggggggggggggggggggggggggg;ggggggggggggggggggggggggggggggggggggggggggggg",
"ggggggggggggggggggggggggggggggggggggggggggggg:ggggggg.........gggggggggggggggggggggggggggggggggggggggggggggggggggg",
"ggggggggggggggggggggggggggggggggggggggggggggggggggg.............gggggggggggggggggggggggggggggggggggggggggggggggggg",
"ggggggggggggggggggggggggggggggggggggggggggg0gggg:gg..............gggg;g:gggggggggggggggggggggggggggggggggggggggggg",
"gggggggggggggggggggggggggggggggggggggggggggggggggg.............. gg;gggggggggggggggggggggggggggggggggggggggggggggg",
"gggggggggggggggggggggggggggggggggggggggggggggg0ggg...X,,.,,.,,.. ggggggggggggggggggggggggggggggggggggggggggggggggg",
"ggggggggggggggggggggggggggggggggggggggg8:gggggg-:gXXX>>.1tt, >>  gggggg:gggggggggggggggggggggggggggggggggggggggggg",
"ggggggggggggggggggggggggggggggggggggggg:8ggggggg-gXXX>>>>>>>>>>  gg;:ggggg7ggggggggggggggggggggggggggggggggggggggg",
"ggggggggggggggggggggggggggggggggggggggggggggg:ggggo>>rrppppprre> ggggggggggggggggggggggggggggggggggggggggggggggggg",
"ggggggggggggggggggggggggggggggggggggggggggg0gggg->ootu9sss9siute>ogg;gq:gggggggggggggggggggggggggggggggggggggggggg",
"ggggggggggggggggggggggggggggggggggggggggggggggg:g-ootipsssssdit9oog;gg::g7gggggggggggggggggggggggggggggggggggggggg",
"gggggggggggggggggggggggggggggggggggggggggggggg0gg>-orris9sssir<ooo ggggggggggggggggggggggggggggggggggggggggggggggg",
"ggggggggggggggggggggggggggggggggggggggggggggggggg  o-rripp9e-+--.9;+7+gggggggggggggggggggggggggggggggggggggggggggg",
"gggggggggggggggggggggggggggggggggggggggggggggg:gg : -&&-&+ +++&&9&w&;&+++++ggggggggggggggggggggggggggggggggggggggg",
"gggggggggggggggggggggggggggggggggggggggg*gggg++++-&&-+9++9 +99-+9;;7&;& 8&*+++++gggggggggggggggggggggggggggggggggg",
"gggggggggggggggggggggggggggggggggggggggggg+&&::&&&-:+-..-+ ;97+++9q;;&&  &++&&&++++ggggggggggggggggggggggggggggggg",
"ggggggggggggggggggggggggggggggggggggggg+++&3*::3&++:+.--.+ ;.-.;w7w&&;363&+.+33&+.+++ggggggggggggggggggggggggggggg",
"ggggggggggggggggggggggggggggggggggggg+++&&++&366:&++:9-.-9 *99*;;;*;*66*&++.+&&+.+&&&++ggggggggggggggggggggggggggg",
"ggggggggggggggggggggggggggggggggggg++&3&+++.&3*66*&-+:9*9*9.;*;*;*=+q+++++...++..+&33&&##ggggggggggggggggggggggggg",
"ggggggggggggggggggggggggggggggggg++&&3&++...*363&++--9::9...****.;*q*....*........++&34%##gggggggggggggggggggggggg",
"ggggggggggggggggggggggggggggggg+++&33&+... .&3&*+.**;.+:********&&&++.......    ....+%44&aaaaagggggggggggggggggggg",
"gggggggggggggggggggggggggggggg+++&3&&++... .&*&+++***;:**+*&&&*++++&&&++... .   .....#%++erpaaaggggggggggggggggggg",
"ggggggggggggggggggggggggggggg++....+&&+..   +&&&&&++****...........++++++.  +.  .+...##....<>ypaaggggggggggggggggg",
"gggggggggggggggggggggggggggg+++++...+++..   +&&++:q......OO444O     ...+++. +.. .+.. O#...>t1<paa<gggggggggggggggg",
"gggggggggggggggggggggggggggO+&&+&+....+.    +&+++::..    ##%%%#          ++.++. .&+. OO...e1teeup<fggggggggggggggg",
"gggggggggggggggggggggggggO###O+++&+.+... .  +&....      +++..&&&&&&&++     + ++++&&+.OO...e1tee<<<fggggggggggggggg",
"gggggggggggggggggggggggg++O#%%#++&& + .  .  ++.      ..+&&&  &&&&&&&&&&++   ggggggg++ OO..>11ee<<eaggggggggggggggg",
"ggggggggggggggggggggggg++++++###+&&+    .+.      ...+++&&&&  3333&&&&&&&&++  ggggggggg OO+.e<<et<aaggggggggggggggg",
"ggggggggggggggggggggggpssy+...##+++     +++    ..+++&&&&&&&  333333++++++++++ggggggggggggggge<,uu<<ggggggggggggggg",
"gggggggggggggggggggggppsp<+...###..   ++ggg   +++++++++++++  ++++++...........ggggggggggggggg<<uuttggggggggggggggg",
"gggggggggggggggggggpfspy>><>...##.. ++ggggg +++.........         ...+++&&&&&+++ggggggggggggggggaaggggggggggggggggg",
"ggggggggggggggggggyffiy>><e<>..##.++gggggg++++.........        ...++&&&&&333&&++gggggggggggggggaaggggggggggggggggg",
"ggggggggggggggggggyfffiyy<<1>..#O+ggggggg++....++++++....      .++&&&&&&336633&+gggggggggggggggggggggggggggggggggg",
"ggggggggggggggggggyipsffp><1,..OOggggggg++...++++++++++++..   ..++&&&+++&&36633&+ggggggggggggggggggggggggggggggggg",
"gggggggggggggggggggtiippr>,<> +gggggggg  ..++++@@@@@@@@@+.      .++++..+&33&&&&++ggO...ggggggggggggggggggggggggggg",
"gggggggggggggggggggttyyr>><1>gggggggggg  .++@$&&&&&&&&$@+.      .+++...+&3&++++++gO.O..++ggggggggggggggggggggggggg",
"gggggggggggggggggggaaffffr><>gggggggggg..+@$&33333&&&&$@+..    ..+++...++&++...  O...OO###gggggggggggggggggggggggg",
"gggggggggggggggggggyyyyyr<>>gggggggggg+..+@&3333&&@@@&$@+..    .+++....++++.... O....######ggggggggggggggggggggggg",
"ggggggggggggggggggggyiiaii1ggggggggggg+++@$&553222&@@@@@@.     ..++..........  O....#######ggggggggggggggggggggggg",
"gggggggggggggggggggggrr11<<ggggggggggg+@@$&355332222&++++. .   ..++..........  O...########ggggggggggggggggggggggg",
"ggggggggggggggggggggggggggggggggggggg++@$&3553333&222&.... +gggg+    ..  ...   O..OO#######ggggggggggggggggggggggg",
"ggggggggggggggggggggggggggggggggggggg+@$&35555332&@@22+.  .+ggggg    ..  ...   ...OOOO#####ggggggggggggggggggggggg",
"gggggggggggggggggggggggggggggggggggg++$$$2222552&@@++2&.  .gggggggg++..  ..   ....OOOOOO###ggggggggggggggggggggggg",
"gggggggggggggggggggggggggggggggggggg+@@@@@@@@$22@..  @&.  .gggggggggg..  ..   ....OOOOOOOO#ggggggggggggggggggggggg",
"ggggggggggggggggggggggggggggggggggg+++++++++++$2+..  .@  +gggggggggggg+       ...OOOOOOOOOgggggggggggggggggggggggg",
"ggggggggggggggggggggggggggggggggggg+++......+++2+. .  @..gggggggggggggg      ....OOOOOOOOOgggggggggggggggggggggggg",
"ggggggggggggggggggggggggggggggggggg+..........+$$+     +gggggggggggggggg+    .. OOOOOOOOOggggggggggggggggggggggggg",
"gggggggggggggggggggggggggggggggggg+...       ..+$+   ..gggggggggggggggggg    .. #%%OOOOOOggggggggggggggggggggggggg",
"gggggggggggggggggggggggggggggggggg+.           ..@+  ++ggggggggggggggggggg+    OOO#%%OOOgggggggggggggggggggggggggg",
"gggggggggggggggggggggggggggggggggg.            ..@@  +gggggggggggggggggggg+    OOOOO#%%Ogggggggggggggggggggggggggg",
"ggggggggggggggggggggggggggggggggg.               .@+ gggggggggggggggggggggg    OOOOOOOOggggggggggggggggggggggggggg",
"ggggggggggggggggggggggggggggggggg.#              .@@ gggggggggggggggggggggg    OOOOOOOOggggggggggggggggggggggggggg",
"ggggggggggggggggggggggggggggggggg.#              .@+gggggggggggggggggggggggg++ OOOOOOOgggggggggggggggggggggggggggg",
"ggggggggggggggggggggggggggggggggg.#           O  .@+ggggggggggggggggggggggggg  OOOOOOggggggggggggggggggggggggggggg",
"ggggggggggggggggggggggggggggggggg.#           O  ..ggggggggggggggggggggggggggggOOOOggggggggggggggggggggggggggggggg",
"ggggggggggggggggggggggggggggggggg.#           O  ..ggggggggggggggggggggggggggggggggggggggggggggggggggggggggggggggg",
"ggggggggggggggggggggggggggggggggg #O          O+++gggggggggggggggggggggggggggggggggggggggggggggggggggggggggggggggg",
"ggggggggggggggggggggggggggggggggg #OOO       O ggggggggggggggggggggggggggggggggggggggggggggggggggggggggggggggggggg",
"gggggggggggggggggggggggggggggggggg O         O ggggggggggggggggggggggggggggggggggggggggggggggggggggggggggggggggggg",
"gggggggggggggggggggggggggggggggggg O        O gggggggggggggggggggggggggggggggggggggggggggggggggggggggggggggggggggg",
"gggggggggggggggggggggggggggggggg  O    OO    ggggggggggggggggggggggggggggggggggggggggggggggggggggggggggggggggggggg",
"ggggggggggggggggggggggggggggg O#####%OO  O   ggggggggggggggggggggggggggggggggggggggggggggggggggggggggggggggggggggg",
"gggggggggggggggggggggggggggg #      %         gggggggggggggggggggggggggggggggggggggggggggggggggggggggggggggggggggg",
"gggggggggggggggggggggggggggg #      #          ggggggggggggggggggggggggggggggggggggggggggggggggggggggggggggggggggg",
"gggggggggggggggggggggggggggg                   ggggggggggggggggggggggggggggggggggggggggggggggggggggggggggggggggggg",
"gggggggggggggggggggggggggggg                   ggggggggggggggggggggggggggggggggggggggggggggggggggggggggggggggggggg",
"ggggggggggggggggggggggggggggg                  ggggggggggggggggggggggggggggggggggggggggggggggggggggggggggggggggggg",
"gggggggggggggggggggggggggggggggg               ggggggggggggggggggggggggggggggggggggggggggggggggggggggggggggggggggg",
"gggggggggggggggggggggggggggggggggggggggggggggggggggggggggggggggggggggggggggggggggggggggggggggggggggggggggggggggggg",
"gggggggggggggggggggggggggggggggggggggggggggggggggggggggggggggggggggggggggggggggggggggggggggggggggggggggggggggggggg"
};
