/* XPM */
static char * enemy_PM_xpm[] = {
"109 113 74 1",
" 	c #FCC0CB",
".	c #4D4D4D",
"+	c #353535",
"@	c #171717",
"#	c #2E2E2E",
"$	c #292929",
"%	c #222222",
"&	c #646464",
"*	c #1E1E1E",
"=	c black",
"-	c #323232",
";	c #383838",
">	c #252525",
",	c #404040",
"'	c #848400",
")	c #4C4C4C",
"!	c #6C4824",
"~	c #B47044",
"{	c #FCC008",
"]	c #80502C",
"^	c #484848",
"/	c #885830",
"(	c #A0643C",
"_	c #E46C00",
":	c #C87C4C",
"<	c #28200C",
"[	c #905C34",
"}	c #FC9C60",
"|	c #E88C58",
"1	c #BC7848",
"2	c #FCB080",
"3	c #D08050",
"4	c #FCB890",
"5	c #FCC4A4",
"6	c #FCA470",
"7	c #FCD4BC",
"8	c #DC8854",
"9	c #F0945C",
"0	c #A86840",
"a	c #483818",
"b	c #744C28",
"c	c #1C1C1C",
"d	c #9C6038",
"e	c #543C1C",
"f	c #262626",
"g	c #303030",
"h	c #00001C",
"i	c #3C3C3C",
"j	c #656565",
"k	c #5B5B5B",
"l	c #202020",
"m	c #382C14",
"n	c #1F1F1F",
"o	c #525252",
"p	c #4A4A4A",
"q	c #1A1A1A",
"r	c #626262",
"s	c #7C7C7C",
"t	c #6A6A6A",
"u	c #434343",
"v	c #717171",
"w	c #787878",
"x	c #4040FC",
"y	c #7C80FC",
"z	c #9C9CFC",
"A	c #000058",
"B	c #7F7F7F",
"C	c #00007C",
"D	c #000098",
"E	c #2C2C2C",
"F	c #403018",
"G	c #5C4020",
"H	c #545454",
"I	c #343434",
"                                                                                                             ",
"                                                                                                             ",
"                                               ..........                                                    ",
"                                              +@@......@@#                                                   ",
"                                             $$%%@.&&.@*%%$                                                  ",
"                                            $$+%%@====@*%%$$                                                 ",
"                                            $++%@@@@@@@@%%-$                                                 ",
"                                            +++%@@====@@@@-#$                                                ",
"                                           +++@@@@=;;=@@@@@++                                                ",
"                                           #>+@@@@====@@@@@++                                                ",
"                                           ,@>>+++++++++++>@,                                                ",
"                                           '),>>>>>>>>>>>>>!'                                                ",
"                                          ~{]),,,,^))^,,,,,/{~                                               ",
"                                          (_:/<;%<<[[<<%;</:_(                                               ",
"                                          ~~}|1(]]12|[]]((}3(~                                               ",
"                                          ~~}44563|7}|365}8}(~                                               ",
"                                           ~8}}}1(:((/(1}881(                                                ",
"                                           ~~:89(6|(:[(]91(((                                                ",
"                                           (:1:9(666:::]9((0[                                                ",
"                                           (8119]:]]]]:]9((0[                                                ",
"                                           (81~9096556909((0[                                                ",
"                                           (~119330000333[[]a                                                ",
"                                            b~1||45225833[]a                                                 ",
"                                            /b~1|6246683~]aa                                                 ",
"                                            //b]133[[331]aaa                                                 ",
"                                           c//~ddb!aaaeaa[[a=                                                ",
"                                          f=g~~:]d:[[[eaa[aa=h=                                              ",
"                                       ===i==g::]d::::[ea[a==h====                                           ",
"                                 jk=======h===l:dd::::[eam===h=======n#                                      ",
"                                koof======hh===<a!]d(!em<===hh=======hhhi                                    ",
"                               kjo+#======pfh====<<aa<<=======qn##n##iii###                                  ",
"                              rkpfq+======iph==s==m]]m==s==h=f=qq##++iiii###+                                ",
"                             jjpihnt======fpfh==;==aa==;===hf=njpiiupjjiu+++#                                ",
"                            tvpuu##p======q+f+ihh=hh====qfiiih+f#+i++ppifhhhfi#                              ",
"                           jwippj+#uh=====tuffpffnqh=hh##iuifhhff++hfippifhhfih                              ",
"                          twwwwtinnp#======#ff+p###q=hh#++iifffhff+hfippiifiiihh                             ",
"                         kkrpuipiqnk#n=====pffipi##q=hq#++#hhhhhhf#=hfiiffffiihhh                            ",
"                        tpj+iupiiqnipf======nfiipi#q=hhf++#iiiiif=h==fiifhhhfifhhi                           ",
"                        pjiiokoppqnik#h======ffippin=qfpi+fhhhhff=h==fffhf+iiffhhfi                          ",
"                       twk#kkourpqqffkn======ffiippi=qfpi+fhhhhff=h==hfhf++iiiffhhf                          ",
"                       owtpokojk+fhqffhh=====hffiip#=qfpiffhhhhff=h==fhf+iipp++ffhff                         ",
"                      kjtvjopuvonf==ffnhu=====qf#iii=hfi+ffhhhhff=h=hfhf+ipppp+ffhff                         ",
"                      kwwvwvjkpqq#==fffhqhh===hf###f=hhffffhhhhfh=h=hf=ffippppi##hffh                        ",
"                     kttktwvkifn#===f#i#hq=====hn#fh=hhuffffffff==hhfi=ffiippiifhhhhh                        ",
"                     trii##fnhhhq===n#iqqh======hf#+=hqpifhhhhhhhhffff==fffffffhhhhhhh                       ",
"                    tvr+ippkrouhh===hf#nnfh======qh#=hhuifhhhhhhffiif====fiprppifhhhhh                       ",
"                    ttopkkrkkpnfn====qqqn#nh=====hhh=hhifffhhfffiiffh===fiffffffifhhhh                       ",
"                    tourjkiiiiiiinn==fhn+#qfq====hhh=hhhhhhhhhhhhhhhhhhfiffilppffihhhh                       ",
"                    tttkorttkkki+nnff#n+nhxyyzyyzzzzyzzzx=AAAAAAAAAAAAAAAAAAAApihfhhhh                       ",
"                     tkittBwvpi+ffnqf+hhxxxxxxxxxxxxxxxxA=xxxCCCCCCCCDDDDDDDDAipihhhhh                       ",
"                     tjktBwpp#up+llElhhyxCCCCCCCCCCCCCCCA=AAAAAAAAAAAAAAAAAAAAhiihhhh                        ",
"                      ##ojiipipuEElllAyxCCCCCCCCCCCCCCCCA=======AAAAA!!e=====hhiihhhh                        ",
"                      ##kkiuopiElElhhDCCCCDDDDDDDDDDDDDDA======b!!!!!!!!!=h;;fhhhhh=                         ",
"                       #op+ok++ElhhhhCCDDAAAAAAAAAAAAAAAA======b(3((b[(((eh;Elhhhhh                          ",
"                       o#upkr#ElhhhhhCCCAAAAA===========h=======abb[(((([[=lEEhhh=                           ",
"                         #uourElhf]~]CCCAA=DD=====AAAAAA=======a[~39((((]]==EEhhh                            ",
"                         ##uovElh](}}}}||[aDD=====DDDDDA=======a]bb[[((/]a==;E=h                             ",
"                           #+#Elh(8}}}}|([aAA=====CxCxCA========[(33(/]bem==El=                              ",
"                           ###Elh[8}}84[F<<=======CyCyCA======f==G]]]]Gam===l=                               ",
"                             HEl#[:}}88]a<<=======CxCxCA====hhf===GGGem======                                ",
"                               l#f[3|4[F<<<=======CxCxCA====hhff==========I                                  ",
"                                 p[(3/beFF========CDCDCA==hhhhff==========                                   ",
"                                  i((/F<<=========CDCDCA=hhhhfffffffhh===                                    ",
"                                  wff!(!#qhh=============hffffhhhhff#fhh                                     ",
"                                  wvfqfnqnqqh====hqqqqqqqqqqqqqqqhhhhhhh                                     ",
"                                   kpqh==n#ffh=hqqqqqqqhqqqqqqqqqhhhhhh                                      ",
"                                   wunfffffnnhhhhhhh=h=hhhhhhhhhh==hhhh                                      ",
"                                    tn#fnnhhhh=======h=hhqqhhhhhhhhq==h                                      ",
"                                   ffnhhhqh===hhhhh==h=hnff#f#i#fhhhhhh                                      ",
"                                   fnnhqhhhhh====h===h=hfffiiiuuinnhqqq                                      ",
"                                   f#qhhqhhqhhh=====hh=hnffiiiopoinhqqn                                      ",
"                                   f+++nhnffnhnhh====h=hhhff#ipkrifhq#f                                      ",
"                                   fopi#fiu#nhhhnnh==hhh=hff#ipooi+nhn#                                      ",
"                                   fip+#pkpi#+qqqqh==h===q#+iuupop+#hhn                                      ",
"                                   ipui#iju+#iifhh===hhh#pkkkkkkkp+fqhn                                      ",
"                                   frpopujp#ippf=q===hhnippuiiipkifqqqq                                      ",
"                                    fpopujuf#upunn===hh==q#++uppopnqqn#                                      ",
"                                    fui+jkpqnf#iin===hh==qf##iiprkphnhn                                      ",
"                                    fu#irkp+qnnnnf==hhhhhnf##+#ukoufqqq                                      ",
"                                    #i+ojo+#qqnnnn==hh=hnffuokkoopu##fh                                      ",
"                                    #uojjkpii##nnf==hhq#ppkkokpkrruupnh                                      ",
"                                    porkjop#iipqnhq=hhf+ppppuiirjohn+nh                                      ",
"                                    jkpkjoufqii#qnqhhnhhn###+iiop#hhhqh                                      ",
"                                   ioifkjoi#fq#if===hn==hfff#iuppi#hqhh                                      ",
"                                   p#fprjppi+##nf==hhqhhq#+##iuokp#nhhh                                      ",
"                                   piukjjkopifqqhh=hhqf#iuuupppkruffhhhf                                     ",
"                                   okkjjjjrjrkopin==hnqnf#+iiuuokpi#hhhf                                     ",
"                                  vokjrkjppiuppppi==hnhhhhhhqfiokroinhhq                                     ",
"                                  vtkkkkjkuifhf#ii==hhnhhhhhhn+pokop#hhh                                     ",
"                                  vvjokkjrkuf=hqqn==hhfqhhhhhnipppopf==h                                     ",
"                                  vvt+okkjkif=hh=q==hhnqhhhhfiupppin==hh                                     ",
"                                   vk#ipkpuif=hh====hhnhhhhhnpppuifq=hh=                                     ",
"                                   vpof+ouiui==h====hnhhhfhhqup+fnh==h==                                     ",
"                                    iipfiuii#fh=hhhl  ===#f#huunh===hh=                                      ",
"                                    i=fp#qqnnhqnfh=h  =;lhn#ffffnn=====                                      ",
"                                    l==hhhnnnnhh====  h;llhhhhhhhhhhhh                                       ",
"                                    =;llh===h=====h=  h;lllhhh=====hhh                                       ",
"                                     hlhhhh=======h=  h;Elhhhh=====hhh                                       ",
"                                     hhlhhh=======h=  h^;llhhhh==hhhh                                        ",
"                                      hlhhhh=====h=   h^;;llhhh==hhh                                         ",
"                                      =l=hhh=======    h^l;EEEl==hhh                                         ",
"                                      =;ll========      hlElhhh==hhh                                         ",
"                                      =l;=========      =hlE==h==hhh                                         ",
"                                      =l==========h    hlEEEEl=====hh                                        ",
"                                     =;;lllllllll==h  h,EEElhh=====hhh                                       ",
"                                    hl==========l=hh  hElEEhhhh==hhhhh                                       ",
"                                    h;hhhhhhh===l=hh  hEllllhhh==hhhhh                                       ",
"                                   hlhhhhhhhh==l==hh  hEllhhhhhhhhhhhhh                                      ",
"                                   ;;lllllllll;===hh  hEllH^lllllllll;hh                                     ",
"                                  ============l===hh  h;ll;hhhhhhhhhh;hh                                     ",
"                                  ============l===h    h;lhhhhh==hhhhlhh                                     ",
"                                   =hhhhhh======hh      hhhhhhhhhhhhhhhh                                     ",
"                                                                                                             "};
