/* XPM */
static char *result[] = {
/* columns rows colors chars-per-pixel */
"113 112 43 1 ",
"  c black",
". c #00001C",
"X c #28200C",
"o c #202020",
"O c gray15",
"+ c gray18",
"@ c gray19",
"# c #353535",
"$ c gray22",
"% c #3C3C3C",
"& c #4C0000",
"* c #640000",
"= c #700000",
"- c #7C0000",
"; c #403018",
": c #483818",
"> c #5C4020",
", c #744C28",
"< c #434343",
"1 c gray29",
"2 c gray32",
"3 c #5B5B5B",
"4 c #656565",
"5 c #6A6A6A",
"6 c #717171",
"7 c gray47",
"8 c gray50",
"9 c #880000",
"0 c #A40000",
"q c #B00000",
"w c #BC0000",
"e c #D40000",
"r c #80502C",
"t c #905C34",
"y c #A0643C",
"u c #A86840",
"i c #B47044",
"p c #BC7848",
"a c #D08050",
"s c #DC8854",
"d c #E88C58",
"f c #FC9C60",
"g c #FFC0CB",
/* pixels */
"ggggggggggggggggggggggggggggggggggggggggggggggggggggggggggggggggggggggggggggggggggggggggggggggggggggggggggggggggg",
"ggggggggggggggggggggggggggggggggggggggggggggggggggggggggggggggggggggggggggggggggggggggggggggggggggggggggggggggggg",
"ggggggggggggggggggggggggggggggggggggggggggggggggggggggggggggggggggggggggggggggggggggggggggggggggggggggggggggggggg",
"ggggggggggggggggggggggggggggggggggggggggggggggggggggggggggggggggggggggggggggggggggggggggggggggggggggggggggggggggg",
"ggggggggggggggggggggggggggggggggggggggggggggggggggggggggggggggggggggggggggggggggggggggggggggggggggggggggggggggggg",
"ggggggggggggggggggggggggggggggggggggggggggggggggggggggggggggggggggggggggggggggggggggggggggggggggggggggggggggggggg",
"ggggggggggggggggggggggggggggggggggggggggggggggggggggggggggggggggggggggggggggggggggggggggggggggggggggggggggggggggg",
"ggggggggggggggggggggggggggggggggggggggggggggggggggggggggggggggggggggggggggggggggggggggggggggggggggggggggggggggggg",
"ggggggggggggggggggggggggggggggggggggggggggggggggggggggggggggggggggggggggggggggggggggggggggggggggggggggggggggggggg",
"ggggggggggggggggggggggggggggggggggggggggggggggggggggggggggggggggggggggggggggggggggggggggggggggggggggggggggggggggg",
"ggggggggggggggggggggggggggggggggggggggggggggggggggggggggggggggggggggggggggggggggggggggggggggggggggggggggggggggggg",
"ggggggggggggggggggggggggggggggggggggggggggggggggggggggggggggggggggggggggggggggggggggggggggggggggggggggggggggggggg",
"ggggggggggggggggggggggggggggggggggggggggggggggggggggggggggggggggggggggggggggggggggggggggggggggggggggggggggggggggg",
"ggggggggggggggggggggggggggggggggggggggggggggggggggggggggggggggggggggggggggggggggggggggggggggggggggggggggggggggggg",
"ggggggggggggggggggggggggggggggggggggggggggggggggggggggggggggggggggggggggggggggggggggggggggggggggggggggggggggggggg",
"ggggggggggggggggggggggggggggggggggggggggggggggggggggggggggggggggggggggggggggggggggggggggggggggggggggggggggggggggg",
"ggggggggggggggggggggggggggggggggggggggggggggggggggggggggggggggggggggggggggggggggggggggggggggggggggggggggggggggggg",
"ggggggggggggggggggggggggggggggggggggggggggggggggggggggggggggggggggggggggggggggggggggggggggggggggggggggggggggggggg",
"ggggggggggggggggggggggggggggggggggggggggggggggggggggggggggggggggggggggggggggggggggggggggggggggggggggggggggggggggg",
"ggggggggggggggggggggggggggggggggggggggggggggggggggggggggggggggggggggggggggggggggggggggggggggggggggggggggggggggggg",
"ggggggggggggggggggggggggggggggggggggggggggggggggggggggggggggggggggggggggggggggggggggggggggggggggggggggggggggggggg",
"ggggggggggggggggggggggggggggggggggggggggggggggggggggggggggggggggggggggggggggggggggggggggggggggggggggggggggggggggg",
"ggggggggggggggggggggggggggggggggggggggggggggggggggggggggggggggggggggggggggggggggggggggggggggggggggggggggggggggggg",
"ggggggggggggggggggggggggggggggggggggggggggggggggggggggggggggggggggggggggggggggggggggggggggggggggggggggggggggggggg",
"ggggggggggggggggggggggggggggggggggggggggggggggggggggggggggggggggggggggggggggggggggggggggggggggggggggggggggggggggg",
"ggggggggggggggggggggggggggggggggggggggggggggggggggggggggggggggggggggggggggggggggggggggggggggggggggggggggggggggggg",
"ggggggggggggggggggggggggggggggggggggggggggggggggggggggggggggggggggggggggggggggggggggggggggggggggggggggggggggggggg",
"ggggggggggggggggggggggggggggggggggggggggggggggggggggggggggggggggggggggggggggggggggggggggggggggggggggggggggggggggg",
"ggggggggggggggggggggggggggggggggggggggggggggggggggggggggggggggggggggggggggggggggggggggggggggggggggggggggggggggggg",
"ggggggggggggggggggggggggggggggggggggggggggggggggggggggggggggggggggggggggggggggggggggggggggggggggggggggggggggggggg",
"ggggggggggggggggggggggggggggggggggggggggggggggggggggggggggggggggggggggggggggggggggggggggggggggggggggggggggggggggg",
"ggggggggggggggggggggggggggggggggggggggggggggggggggggggggggggggggggggggggggggggggggggggggggggggggggggggggggggggggg",
"ggggggggggggggggggggggggggggggggggggggggggggggggggggggggggggggggggggggggggggggggggggggggggggggggggggggggggggggggg",
"ggggggggggggggggggggggggggggggggggggggggggggggggggggggggggggggggggggggggggggggggggggggggggggggggggggggggggggggggg",
"ggggggggggggggggggggggggggggggggggggggggggggggggggggggggggggggggggggggggggggggggggggggggggggggggggggggggggggggggg",
"ggggggggggggggggggggggggggggggggggggggggggggggggggggggggggggggggggggggggggggggggggggggggggggggggggggggggggggggggg",
"ggggggggggggggggggggggggggggggggggggggggggggggggggggggggggggggggggggggggggggggggggggggggggggggggggggggggggggggggg",
"ggggggggggggggggggggggggggggggggggggggggggggggggggggggggggggggggggggggggggggggggggggggggggggggggggggggggggggggggg",
"ggggggggggggggggggggggggggggggggggggggggggggggggggggggggggggggggggggggggggggggggggggggggggggggggggggggggggggggggg",
"ggggggggggggggggggggggggggggggggggggggggggggggggggggggggggggggggggggggggggggggggggggggggggggggggggggggggggggggggg",
"ggggggggggggggggggggggggggggggggggggggggggggggggggggggggggggggggggggggggggggggggggggggggggggggggggggggggggggggggg",
"ggggggggggggggggggggggggggggggggggggggggggggggggggggggggggggggggggggggggggggggggggggggggggggggggggggggggggggggggg",
"ggggggggggggggggggggggggggggggggggggggggggggggggggggggggggggggggggggggggggggggggggggggggggggggggggggggggggggggggg",
"ggggggggggggggggggggggggggggggggggggggggggggggggggggggggggggggggggggggggggggggggggggggggggggggggggggggggggggggggg",
"ggggggggggggggggggggggggggggggggggggggggggggggggggggggggggggggggggggggggggggggggggggggggggggggggggggggggggggggggg",
"ggggggggggggggggggggggggggggggggggggggggggggggggggggggggggggggggggggggggggggggggggggggggggggggggggggggggggggggggg",
"ggggggggggggggggggggggggggggggggggggggggggggggggggggggggggggggggggggggggggggggggggggggggggggggggggggggggggggggggg",
"ggggggggggggggggggggggggggggggggggggggggggggggggggggggggggggggggggggggggggggggggggggggggggggggggggggggggggggggggg",
"ggggggggggggggggggggggggggggggggggggggggggggggggggggggggggggggggggggggggggggggggggggggggggggggggggggggggggggggggg",
"ggggggggggggggggggggggggggggggggggggggggggggggggggggggggggggggggggggggggggggggggggggggggggggggggggggggggggggggggg",
"ggggggggggggggggggggggggggggggggggggggggggggggggggggggggggggggggggggggggg9ggggggggggggggggggggggggggggggggggggggg",
"gggggggggggggggggggggggggggggggggggggggggggggggggggg9gggggggggggggggggggggggggggggggggggggggggggggggggggggggggggg",
"ggggggggggggggggggggggggggggggggggggggggggggggggggggggggggggggggggg9ggggggggggggggggggggggggggggggggggggggggggggg",
"ggggggggggggggggggggggggggggggggggggggggggggggggggggggggggggggggggggggggggggggggggggggggggggggggggggggggggggggggg",
"ggggggggggggggggggggggggggggggggggggggggggggggggggggggggggggggggggggggggggggggggggggggggggggggggggggggggggggggggg",
"gggggggggggggggggggggggggggggggggggggggggggggggggggggggggggggg9gggggggggggggggggggggggggggggggggggggggggggggggggg",
"ggggggggggggggggggggggggggggggggggggggggggggggg9gggggggggggggggggggggggg9gggg9ggggggggggggggggggggggggggggggggggg",
"gggggggggggggggggggggggggggggggggggggg9ggggggggggggg9gggggggggggggggggggggggggggggggggggggggggggggggggggggggggggg",
"ggggggggggggggggggggggggggggggggggggggggggggggggggggggggggg9ggg9ggwgg9ggggggggggggggggggggggggggggggggggggggggggg",
"ggggggggggggggggggggggggggggggggggggggggggggggggggggggggegggggggggggggggggggggggggggggggggggggggggggggggggggggggg",
"ggggggggggggggggggggggggggggggggggggggggg9ggggggggggggggggggg9ggggqgggggwgg9ggggggggggggggggggggggggggggggggggggg",
"gggggggggggggggggggggggggggggggggggggggggggggggg9gg99gggggggggggggggggggggggggggggggggggggggggggggggggggggggggggg",
"ggggggggggggggggggggggggggggggggggggggggggggg9gggggq9gg9ggegg-g9ggggegqgg99g9gggggggggggggggggggggggggggggggggggg",
"ggggggggggggggggggggggggggggggggggggggggggggggggggggggg9gggggggggggggggggq9gggggggggggggggggggggggggggggggggggggg",
"ggggggggggggggggggggggggggggggggggggggggggggg9ggwg9gggggg-ggeg-g9qgg=gggwgggggggggggggggggggggggggggggggggggggggg",
"gggggggggggggggggggggggggggggggggggggggggggggggggggg9ggggggggggg99gggqggggggggggggggggggggggggggggggggggggggggggg",
"ggggggggggggggggggggggggggggggggggggg9gggg9ggegg9qgggg9g..-..q...gggggggggwgggggggggggssygggggggggggggggggggggggg",
"gggggggggggggggggggggggggggggggggggggggggggggggg99gggg.............ggegqggggggggggggyssssgggggggggggggggggggggggg",
"ggggggggggggggggggggggguuddagggggggggggggggggwggw9gg9g...-..q.....qgggg9gggggggggyssspyssyygggggggggggggggggggggg",
"ggggggggggggggggggggggguuuddaggggggggggg9ggggg9ggg9gg...O::.::.::.. gggggeggggggysspyy,ssysgggggggggggggggggggggg",
"gggggggggggggggggggggffddiuuu>>gggggggggggg9gggwgggggOOq;;.=y-: ;; q9qggggggg88%yyyrry,,,ssgggggggggggggggggggggg",
"gggggggggggggggggggggfppdfiut>>ggggggggggggggggggg99eq;;=ta-aa-t-r;99gg9ggg8844oo%%ryyy,,ssgggggggggggggggggggggg",
"gggggggggggggggggggyyffupfat>>>ggggggggggggggegggeq9qqeyiqd-dqd*iq9q9egg44442%%ooOO>,rr,>,,gggggggggggggggggggggg",
"gggggggggggggggggggyyaffu;;;>,>gggggggggggggg#%%%%%%%%%eqq=d==qqOOOOO####%%2%%%oo..:,t,>;yygggggggggggggggggggggg",
"gggggggggggggggggggyauaff;;;>>;23gggggggggg##..........%%%%%%OOO..........+%%..oo..X:>,:;yygggggggggggggggggggggg",
"ggggggggggggggggggggasuXXX;>>;X%o23ggggggg#................%%OOO............%O..oo..X::gggggggggggggggggggggggggg",
"gggggggggggggggggggggss;;:;;;X..oO#<2gg55%%....................O...O%<<3%O...##..ooo gggggggggggggggggggggggggggg",
"gggggggggggggggggggggggr:;;X...o@OO#<2O%%%......OOOOOOOO..........%<222255<%O.#..  gggggggggggggggggggggggggggggg",
"ggggggggggggggggggggggg..  ...oo..OO#2OOO.....%<<352<<<%%%%%253%O%12222233552<<##gggggggggggggggggggggggggggggggg",
"gggggggggggggggggggggggg.O  oo@......%OO....%<2752222<<<%<O<<<%O%12<<<<23333558<##ggggggggggggggggggggggggggggggg",
"gggggggggggggggggggggggggooo@ ........OO..%<27712<<<%%<<<%.O%%O.<<%%%%%<<<232668<##gggggggggggggggggggggggggggggg",
"gggggggggggggggggggggggggg.O      .......%<37<<<<1%%%OOO%O.OOO..O%%%%%%%%%<25336711gggggggggg....gggggggggggggggg",
"ggggggggggggggggggggggggggg.OOO      ..#3333<<%%%%<%%OOOOO.....O%%OOO++OO%%<32+121+#ggggggg...@@@@ggggggggggggggg",
"ggggggggggggggggggggggggggggg        .#368652%+#%%<<%%O........OOO....OOO%%31++....#gggggg...@@@@@@gggggggggggggg",
"ggggggggggggggggggggggggggggggggggg..<3686522<++<%<<%%O.............OOOO+%1%+....oo.gggg....@@@@@@@gggggggggggggg",
"ggggggggggggggggggggggggggggggggggg.#<<6<1<221<%%<<<%%O............O. .OO%%+......oo.gg....@@@@@@@@gggggggggggggg",
"gggggggggggggggggggggggggggggggggg#<<%6<11%%221<<<<%%OO...O.......O. .OOO+%........ooOO....@@@@@@@@gggggggggggggg",
"ggggggggggggggggggggggggggggggggg##12421%#+%%221<<%%OO....O.......O  OO..OO.. ......oOO....@@@@@@@@gggggggggggggg",
"gggggggggggggggggggggggggggggggg#%126222<<#+%%21%%OOO....... .OOOOO  OO....        .......ooooooooggggggggggggggg",
"gggggggggggggggggggggggggggggggg#14644111<#+#%1%%OO......O .  .....  .O....        .......ooooooogggggggggggggggg",
"gggggggggggggggggggggggggggggggOOO242%O##O..#O##O......OO.         &g  OO..        ......oooooooogggggggggggggggg",
"ggggggggggggggggggggggggggggggg        .O..+##OO. .OOOOO..&====&&&&ggg  .OO          ....oooooooggggggggggggggggg",
"ggggggggggggggggggg.......gggg .oo.oo.   .OO##OO   .....=&&gg==&&ggggggg              ..ooooooooggggggggggggggggg",
"gggggggggggggggggg@@@@@....    oo....o    .##OOO     ====&ggg==&ggggggggggg            .$$$$$$$gggggggggggggggggg",
"ggggggggggggggggg@@@@@@@..... oo.....      .OOO  ggggggg=&ggg==&ggggggggggggg          .ooooooogggggggggggggggggg",
"ggggggggggggggggg@@@@@@@@....  .o...        .O.  ggggggg=&ggg==&ggggggggggggggg        .ooooooggggggggggggggggggg",
"ggggggggggggggggg@@@@@@@@@.....  o          .   gggg&ggg*&ggg==ggg&ggggggggggggg       oooooooggggggggggggggggggg",
"ggggggggggggggggg@@@@@@@@@.....                gggg&&ggg*&gggg=ggg--ggggggggggggg      oooooogggggggggggggggggggg",
"gggggggggggggggggg@@@@@@@@@......             gggg--gggg*ggggg=ggggg-ggggggggggggg     oooooggggggggggggggggggggg",
"gggggggggggggggggg@@@@@@@oo......           ggggg--ggggg*ggggg=ggggggggggggggggggggg    ooogggggggggggggggggggggg",
"ggggggggggggggggggg@@oooooo......         gggggggggggggg*ggggg=gggggggggggggggggggggggggggggggggggggggggggggggggg",
"gggggggggggggggggggoooooooo......        ggggggggggggggg*ggggg=gggggggggggggggggggggggggggggggggggggggggggggggggg",
"ggggggggggggggggggggoooooooo..          gggggggggggggggg-ggggg-gggggggggggggggggggggggggggggggggggggggggggggggggg",
"ggggggggggggggggggggoooooooo..        gggggggggggggggggg-ggggg-gggggggggggggggggggggggggggggggggggggggggggggggggg",
"ggggggggggggggggggggg$$$$$$$$$       gggggggggg-gggggggg-gggggggggggggggggggggggggggggggggggggggggggggggggggggggg",
"gggggggggggggggggggggooooooooo       gggggggggg-gggggggg-gggggggggggggggggggggggggggggggggggggggggggggggggggggggg",
"gggggggggggggggggggggoooooooooo     gggggggggggggggggggggggggg0gggggggggggggggggggggggggggggggggggggggggggggggggg",
"ggggggggggggggggggggggooooooooo    ggggggggggggggggggggggggggg0gggggggggggggggggggggggggggggggggggggggggggggggggg",
"gggggggggggggggggggggggoooooooo   ggggggggggggggggggggggggggggggggggggggggggggggggggggggggggggggggggggggggggggggg",
"gggggggggggggggggggggggggoooooo  gggggggggggggggggggggggggggggggggggggggggggggggggggggggggggggggggggggggggggggggg",
"ggggggggggggggggggggggggggggggggggggggggggggggggggggggggggggggggggggggggggggggggggggggggggggggggggggggggggggggggg",
"ggggggggggggggggggggggggggggggggggggggggggggggggggggggggggggggggggggggggggggggggggggggggggggggggggggggggggggggggg"
};
