/* XPM */
static char * enemy_xpm[] = {
"118 109 77 1",
" 	c #980088",
".	c #383838",
"+	c #404040",
"@	c #4C4C4C",
"#	c #545454",
"$	c #484848",
"%	c #707070",
"&	c #646464",
"*	c #5C5C5C",
"=	c #282828",
"-	c #7C7C7C",
";	c #303030",
">	c #343434",
",	c #2C2C2C",
"'	c #8C8C8C",
")	c #989898",
"!	c #C0C0C0",
"~	c #A8A8A8",
"{	c #404000",
"]	c #403018",
"^	c #000000",
"/	c #585400",
"(	c #706C00",
"_	c #5C4020",
":	c #1C1C1C",
"<	c #202020",
"[	c #302410",
"}	c #905C34",
"|	c #483818",
"1	c #744C28",
"2	c #28200C",
"3	c #D08050",
"4	c #A86840",
"5	c #80502C",
"6	c #F0945C",
"7	c #FCA470",
"8	c #BC7848",
"9	c #FC9C60",
"0	c #FCB890",
"a	c #E88C58",
"b	c #DC8854",
"c	c #FCB080",
"d	c #FCFCFC",
"e	c #DCDCDC",
"f	c #D0D0D0",
"g	c #034301",
"h	c #033C01",
"i	c #ECECEC",
"j	c #B4B4B4",
"k	c #543C1C",
"l	c #046B01",
"m	c #046501",
"n	c #045E01",
"o	c #0A8206",
"p	c #057201",
"q	c #045701",
"r	c #067E02",
"s	c #3AB236",
"t	c #0E860A",
"u	c #033601",
"v	c #057901",
"w	c #045001",
"x	c #034A01",
"y	c #2AA226",
"z	c #022801",
"A	c #168E12",
"B	c #128A0E",
"C	c #1A9216",
"D	c #032F01",
"E	c #022201",
"F	c #021401",
"G	c #021B01",
"H	c #C87C4C",
"I	c #B47044",
"J	c #A0643C",
"K	c #9C6038",
"L	c #280040",
"                                                                                                                      ",
"                                                                                                                      ",
"                                                                                                                      ",
"                                                                                                                      ",
"                                                                                                                      ",
"                                                                                                                      ",
"                                                                                                                      ",
"                                                     ...+@#$$                                                         ",
"                                                   .$%%%%&&&*+.                                                       ",
"                                                  .$%%%%%*####=.                                                      ",
"                                                 .+&-%%%%&###+=..                                                     ",
"                                                 .#%-%%%%%###@;>.                                                     ",
"                                                 #*%-%%%%%*##+.,#                                                     ",
"                                                 +---%%%%%&##@+>.                                                     ",
"                                                 +-%%&&%%%&$$$@+>                                                     ",
"                                                .&'))''''--%%**#$.                                                    ",
"                                                @%!!!!!~~''%%####$                                                    ",
"                                                #+{{]]]]]]]]]]{{^.                                                    ",
"                                               .;^{/{/((__((/{/{^:.                                                   ",
"                                              .<^[}(|^#]}}]#^|(}1<<.                                                  ",
"                                              ^^^2344}567735}4431^^^                                                  ",
"                                              ^^^^}8900800800a8}^^^^                                                  ",
"                                               ^^^^4a7b}__}b7a4^^^^                                                   ",
"                                                 ^^}3769339673}^^                                                     ",
"                                                  21378_}}_8731^                                                      ",
"                                                  ^_8779009778_^                                                      ",
"                                                 ^^]4a7b44b7a4]^^                                                     ",
"                                                ^^^^]46cccc64]^^^^                                                    ",
"                                               ^^^^^^]111115]^^^^^^                                                   ",
"                                              &^^~de^^^]]]]2^^^ff^^^gh                                                ",
"                                             &&^^-ije^^2]]k^^jjff^^^ghh                                               ",
"                                          lll&&>=<)fe^^^^^^^^jf~^^ggggglmn                                            ",
"                                         lopl&&+.>:+^^^qqqq^^^^^gggqqnnnnnn                                           ",
"                                        grstt&&&&u::lggqllqoppppppptttppovmw                                          ",
"                                       gxyytt^^*&&z'^++mtgoAAApppppttttrmppqw                                         ",
"                                       lrstvpv^,#&#~qBtoBvvAACCCCCvooompmvlpn                                         ",
"                                       lyytmvrp^*&&qqBtoBvvtttttBCvooopmlrrrl                                         ",
"                                       tyttnwppu^&#..qopogooopoottpppllqzpvolg                                        ",
"                                       yytrqxplpD^##.qpmovvopqoAAAtvlgqgzmpovgg                                       ",
"                                      ostppgDwnlvh^.*+pqovvolqoooogplgquDmprvvg                                       ",
"                                     otytonEzxxpllx^<&+lpgvomugzzzzguugzuqvoovg                                       ",
"                                     oBtBmzEEuglpovn^:@.pmmvmglgplgxxxuFDxvoopu                                       ",
"                                     oorrnwuFDhqltrlq^:@+.lvqglgmpgmxuzFGwrorlu                                       ",
"                                     BlrAlwGFGDmqprvrq^^:<<.qgqgqpgmuzFFGmoovpq                                       ",
"                                     ByytrpGFFEwpvrtrwg^::<>,hxugquxuF:FEpoovnn                                       ",
"                                    vByyprnGG^^Dqprotuhm^:::^<=+gquuFFFFuxvqgrv                                       ",
"                                   vrttBplnGF^^umvottuunn<^::<=,uuzFFFF:hqzrrvv                                       ",
"                                   mooorpxuFF^^GDqlpluuorxz>^:::=zFGFF^Fhgrvvpv                                       ",
"                                   mAABtlnqFF^^FFxnlmuuoogGnu:^^^::<FFFEEunvppp                                       ",
"                                   mAABtlnqFF^^FFxnlmuuoogGnu:^^^::<FFFEEunvppp                                       ",
"                                   mAABtlnqFF^^FFxnlmuuoogGnu:^^^::<FFFEEunvppp                                       ",
"                                   poAAABwgFF^^>;$$+$..~ej~''<<,=<<<<^^EEEuqlrp                                       ",
"                                   poBBtphGGF^F;>**$+>>%e!!~~<<;;<<<<^^:unnnqq                                        ",
"                                   voBBBllhGGFF>>%%##..----%%<<..<<<<^^Exxxxxqm                                       ",
"                                    rBtrppqhGF^^^^^::::#&**++<^^^^^^^^^Gnmxgqxq                                       ",
"                                     BBonowgzFFGGzuhhhhuhzDuuuDDDzzE=EGGprvpnnn                                       ",
"                                     BtollrgEFFzpppplqxxxEDgxqxwwuuDEEEGvvpvrnn                                       ",
"                                     ttolllhzFuxnlpplnplnzDlrlpnlmnDuzGGhxvrroo                                       ",
"                                     oormmnzGGqwmpvvrpolmzupBlppppnqhzGGGhgmrrr                                       ",
"                                     owwnwEFFxqlnrrtotoplzDrAmmlrpnquDEGGzDhxqw                                       ",
"                                      uzzEEFFgwvlvrBotoplzDpCpmqnqqwzgEGGEEhhh                                        ",
"                                       77c3EFxqortAAtorplzDlCtmlmqqhzgDGGHc77                                         ",
"                                       77ccDFqqoACCtrrvplDDptottlvnhqhuGGccI6                                         ",
"                                       004cz^qqootooorrlnuFmrtrorvgmvzGGGc3Hc                                         ",
"                                       03Ic<^qqrrrrrrrrllDFmllmmmgqrnzEGGc8cc                                         ",
"                                       736}FFzEEzEEEzEEGF<FGFFFFFGEGGGGGG4Jc3                                         ",
"                                        6H3EGDDxuuuuDDDGF^FEGzzzEEEzEEGGG}K3                                          ",
"                                         bbzzmglrvvngDzEF^^zDzuhhgghhDEGGHH                                           ",
"                                          3gzxprrBvvqhDzF^^zDugmmlqgguzzGI                                            ",
"                                           zEvvrrBvlqwuzG^^zDxwprpwnxghzE                                             ",
"                                           EEvvrrBvmlnxGG^^zhlvrortpqgghz                                             ",
"                                           wnvvrrBvllmhFG^^ugpvrotBvnxghz                                             ",
"                                           qpvrorBrvlqD:G^^DnlrtotBnqqxhz                                             ",
"                                           wpoootBvppqxF:^^zmmottoBlpxxDz                                             ",
"                                           wmoootBlppxwz:^^DplrttoBvpqxDz                                             ",
"                                           wnoootBrrpwggu^:DmlorotBvnggDz                                             ",
"                                           wnpootBrrrxuuh^:zqvrotBvrqhgDz                                             ",
"                                           wnoootBprrrwzF::DqroooBovxhgDz                                             ",
"                                           wnrootBrlhxxgh::DxrrooBtpxhhDz                                             ",
"                                           gnnnotBoovDEEE:^hqottBBBlqgDuD                                             ",
"                                           gvmmmtBotomhGFF^wwtBBBtBmnuzuD                                             ",
"                                           gvvpntBtrvpnhDFFzhmnqqxBxxqDzz                                             ",
"                                           gvpvvtBtwwnhgDFFExnvvvBBwxhDzz                                             ",
"                                           hhumvvvvvpqDhGFFEhqqvtBBxx<Ezz                                             ",
"                                            hlgqpvpnxguzFFFEhplrrrrvvwEzz                                             ",
"                                            hlgqpvpnxguzFFFEhplrrrrvvwEzz                                             ",
"                                             DDhuxxuuEGFFFFGugwnnwwxxD<zz                                             ",
"                                             DDhuxxuuEGFFFFGugwnnwwxxD<zz                                             ",
"                                             DhqDuuDDFFFFFFFFzhwwuuzzGGz                                              ",
"                                             <<^^^^^^^^^^  ^^^^^^^^^^^^                                               ",
"                                             <<::^^^^^^^^  ^^:::^^^^^^^                                               ",
"                                             <<::^^^^^^^^  ^^:::^^^^^^^                                               ",
"                                             <=.,<<:::^^^  ^:<<<<<<<<:^                                               ",
"                                             <=.,<<:::^^^  ^:<<<<<<<<:^                                               ",
"                                             <<.=::::::^^  ^:<<=:<<<<:^                                               ",
"                                             <,..==::::^^  ^^<<>><<<<:^                                               ",
"                                             <,..==::::^^  ^^:>>,,<<<:^                                               ",
"                                             <=.===:::<^^  ^^:,>>,<<<^^                                               ",
"                                             <L.;==:::<^    ^:;;.;<<<:^                                               ",
"                                             <<=.,=:::<      ^<;.;<=<:^                                               ",
"                                              <,;+=<::<      ^:;.;<<:<                                                ",
"                                               <;;;=<<<      ^^,>,<:<                                                 ",
"                                               <<;,,<:<      ^^:<<::^                                                 ",
"                                              <,,+#<<::^    ^::<<<<=^^                                                ",
"                                             <<<,##==:<^^  ^^:<=,,<<<^^                                               ",
"                                            <<,.#$+>=:<:^  ^:<<<<<,<<::^                                              ",
"                                           <<=,$$+++=::^^  ^^<<<<<<<<::^^                                             ",
"                                           <:::::::::^^      <::::::::<:^                                             ",
"                                           <<<<<<<<<<^^      <<<<<<<<<<^^                                             "};
