/* XPM */
static char *_072_7e84c52386d2948bc8e077ebc2c908a9e7d6ac646d5ceb66e1163003bd4e0235[] = {
/* columns rows colors chars-per-pixel */
"64 64 256 2 ",
"   c black",
".  c #0000A8",
"X  c #00A800",
"o  c #00A8A8",
"O  c #A80000",
"+  c #A800A8",
"@  c #A85400",
"#  c gray66",
"$  c gray33",
"%  c #5454FC",
"&  c #54FC54",
"*  c #54FCFC",
"=  c #FC5454",
"-  c #FC54FC",
";  c #FCFC54",
":  c gray99",
">  c #ECECEC",
",  c gainsboro",
"<  c #D0D0D0",
"1  c #C0C0C0",
"2  c #B4B4B4",
"3  c gray66",
"4  c #989898",
"5  c gray55",
"6  c #7C7C7C",
"7  c gray44",
"8  c #646464",
"9  c gray33",
"0  c #484848",
"q  c gray22",
"w  c #2C2C2C",
"e  c #202020",
"r  c #FC0000",
"t  c #EC0000",
"y  c #E00000",
"u  c #D40000",
"i  c #C80000",
"p  c #BC0000",
"a  c #B00000",
"s  c #A40000",
"d  c #980000",
"f  c #880000",
"g  c #7C0000",
"h  c #700000",
"j  c #640000",
"k  c #580000",
"l  c #4C0000",
"z  c #400000",
"x  c #FCD8D8",
"c  c #FCB8B8",
"v  c #FC9C9C",
"b  c #FC7C7C",
"n  c #FC5C5C",
"m  c #FC4040",
"M  c #FC2020",
"N  c #FC0000",
"B  c #FCA85C",
"V  c #FC9840",
"C  c #FC8820",
"Z  c #FC7800",
"A  c #E46C00",
"S  c #CC6000",
"D  c #B45400",
"F  c #9C4C00",
"G  c #FCFCD8",
"H  c #FCFCB8",
"J  c #FCFC9C",
"K  c #FCFC7C",
"L  c #FCF85C",
"P  c #FCF440",
"I  c #FCF420",
"U  c #FCF400",
"Y  c #E4D800",
"T  c #CCC400",
"R  c #B4AC00",
"E  c #9C9C00",
"W  c #848400",
"Q  c #706C00",
"!  c #585400",
"~  c #404000",
"^  c #D0FC5C",
"/  c #C4FC40",
"(  c #B4FC20",
")  c #A0FC00",
"_  c #90E400",
"`  c #80CC00",
"'  c #74B400",
"]  c #609C00",
"[  c #D8FCD8",
"{  c #BCFCB8",
"}  c #9CFC9C",
"|  c #80FC7C",
" . c #60FC5C",
".. c #40FC40",
"X. c #20FC20",
"o. c #00FC00",
"O. c #00FC00",
"+. c #00EC00",
"@. c #00E000",
"#. c #00D400",
"$. c #04C800",
"%. c #04BC00",
"&. c #04B000",
"*. c #04A400",
"=. c #049800",
"-. c #048800",
";. c #047C00",
":. c #047000",
">. c #046400",
",. c #045800",
"<. c #044C00",
"1. c #044000",
"2. c #D8FCFC",
"3. c #B8FCFC",
"4. c #9CFCFC",
"5. c #7CFCF8",
"6. c #5CFCFC",
"7. c #40FCFC",
"8. c #20FCFC",
"9. c #00FCFC",
"0. c #00E4E4",
"q. c #00CCCC",
"w. c #00B4B4",
"e. c #009C9C",
"r. c #008484",
"t. c #007070",
"y. c #005858",
"u. c #004040",
"i. c #5CBCFC",
"p. c #40B0FC",
"a. c #20A8FC",
"s. c #009CFC",
"d. c #008CE4",
"f. c #007CCC",
"g. c #006CB4",
"h. c #005C9C",
"j. c #D8D8FC",
"k. c #B8BCFC",
"l. c #9C9CFC",
"z. c #7C80FC",
"x. c #5C60FC",
"c. c #4040FC",
"v. c #2024FC",
"b. c #0004FC",
"n. c #0000FC",
"m. c #0000EC",
"M. c #0000E0",
"N. c #0000D4",
"B. c #0000C8",
"V. c #0000BC",
"C. c #0000B0",
"Z. c #0000A4",
"A. c #000098",
"S. c #000088",
"D. c #00007C",
"F. c #000070",
"G. c #000064",
"H. c #000058",
"J. c #00004C",
"K. c #000040",
"L. c #282828",
"P. c #FCE034",
"I. c #FCD424",
"U. c #FCCC18",
"Y. c #FCC008",
"T. c #FCB400",
"R. c #B420FC",
"E. c #A800FC",
"W. c #9800E4",
"Q. c #8000CC",
"!. c #7400B4",
"~. c #60009C",
"^. c #500084",
"/. c #440070",
"(. c #340058",
"). c #280040",
"_. c #FCD8FC",
"`. c #FCB8FC",
"'. c #FC9CFC",
"]. c #FC7CFC",
"[. c #FC5CFC",
"{. c #FC40FC",
"}. c #FC20FC",
"|. c #FC00FC",
" X c #E000E4",
".X c #C800CC",
"XX c #B400B4",
"oX c #9C009C",
"OX c #840084",
"+X c #6C0070",
"@X c #580058",
"#X c #400040",
"$X c #FCE8DC",
"%X c #FCE0D0",
"&X c #FCD8C4",
"*X c #FCD4BC",
"=X c #FCCCB0",
"-X c #FCC4A4",
";X c #FCBC9C",
":X c #FCB890",
">X c #FCB080",
",X c #FCA470",
"<X c #FC9C60",
"1X c #F0945C",
"2X c #E88C58",
"3X c #DC8854",
"4X c #D08050",
"5X c #C87C4C",
"6X c #BC7848",
"7X c #B47044",
"8X c #A86840",
"9X c #A0643C",
"0X c #9C6038",
"qX c #905C34",
"wX c #885830",
"eX c #80502C",
"rX c #744C28",
"tX c #6C4824",
"yX c #5C4020",
"uX c #543C1C",
"iX c #483818",
"pX c #403018",
"aX c #382C14",
"sX c #28200C",
"dX c #600064",
"fX c #006464",
"gX c #006060",
"hX c #00001C",
"jX c #00002C",
"kX c #302410",
"lX c #480048",
"zX c #500050",
"xX c #000034",
"cX c gray11",
"vX c #4C4C4C",
"bX c gray36",
"nX c gray25",
"mX c gray19",
"MX c #343434",
"NX c #D8F4F4",
"BX c #B8E8E8",
"VX c #9CDCDC",
"CX c #74C8C8",
"ZX c #48C0C0",
"AX c #20B4B4",
"SX c #20B0B0",
"DX c #00A4A4",
"FX c #009898",
"GX c #008C8C",
"HX c #008484",
"JX c #007C7C",
"KX c #007878",
"LX c #007474",
"PX c #007070",
"IX c #006C6C",
"UX c #FFC0CB",
/* pixels */
"UXUXUXUXUXUXUXUXUXUXUXUXUXUXUXUXUXUXUXUXUXUXUXUXUXUXUXUXUXUXUXUXUXUXUXUXUXUXUXUXUXUXUXUXUXUXUXUXUXUXUXUXUXUXUXUXUXUXUXUXUXUXUXUX",
"UXUXUXUXUXUXUXUXUXUXUXUXUXUXUXUXUXUXUXUXUXUXUXUXUXUXUXUXUXUXUXUXUXUXUXUXUXUXUXUXUXUXUXUXUXUXUXUXUXUXUXUXUXUXUXUXUXUXUXUXUXUXUXUX",
"UXUXUXUXUXUXUXUXUXUXUXUXUXUXUXUXUXUXz j z 7X7Xj j j UXz z z j j z z UXF f UXUXUXUXUXUXUXf u UXUXUXUXUXUXUXUXUXUXUXUXUXUXUXUXUXUX",
"UXUXUXUXUXUXUXUXUXUXUXUXUXUXUXUXUXUXUXUXz z z UXz l z f g g j z j k z z z UXUXUXz z O UXf u UXUXUXUXUXUXUXUXUXUXUXUXUXUXUXUXUXUX",
"UXUXUXUXUXUXUXUXUXUXUXUXUXUXUXUXUXUXUXUXUXUXUXUXUXl l j f O O f k k z z z z z UXO z z UXUXUXUXUXUXUXUXUXUXUXUXUXUXUXUXUXUXUXUXUX",
"UXUXUXUXUXUXUXUXUXUXUXUXUXUXUXz z z z z z z z z z z l k k l j j g l z z z L.u i z O O z z UXUXUXUXUXUXUXUXUXUXUXUXUXUXUXUXUXUXUX",
"UXUXUXUXUXUXUXUXUXUXUXUXUXUXz z z z k j j j z k j k k h j k l k g j j z z j z z z z O j k UXUXUXUXUXUXUXUXUXUXUXUXUXUXUXUXUXUXUX",
"UXUXUXUXUXUXUXUXUXUXUXz UXz k h j g a O d f j g h l z j f g k l j f h g f j z k z z L.l j z UXUXUXUXUXUXUXUXUXUXUXUXUXUXUXUXUXUX",
"UXUXUXUXUXUXUXUXUXz h f k UXz k h f d O d f g d f h h j l l z z z l l l k k z l z z z z L.k z z z z UXUXUXUXUXUXUXUXUXUXUXUXUXUX",
"UXUXUXUXUXUXUXUXz z g UXk l z UXk d g g f d O O d f f g j k k k k k z z z k l z z z z z z l j j z z z UXUXUXUXUXUXUXUXUXUXUXUXUX",
"UXUXUXUXUXUXUXUXz UXz z h k l z l UXh g d O i i i a O O O a p a f f d d f j g g j z k j l z j z z UXz z UXUXUXUXUXUXUXUXUXUXUXUX",
"UXUXUXUXUXUXUXUXl UXz z j UXz z f l h g g d i i u u i i i i O d g f O a p f h O g k z k l l k z z z UXz z UXUXUXUXUXUXUXUXUXUXUX",
"UXUXUXUXUXUXUXUXz UXz g j k k z z j f f f d a i u u u i i p d h j j k j j g h f p g z l l k g f h k z z z UXUXUXUXUXUXUXUXUXUXUX",
"UXUXUXUXUXUXUXUXUXUXl k z z z k k f g f O O g d a p a d g g h j j h j j k k j g f g l j j z l g d d h l UXUXUXUXUXUXUXUXUXUXUXUX",
"UXUXUXUXUXUXUXUXUXl l l z z k h k f f f O d h f O O d g g h k l g O j g h z j g g g l j h z z h d d f j z UXUXUXUXUXUXUXUXUXUXUX",
"UXUXUXUXUXl UXl l l UXUXk h g g k j h f g h k g d g g d d d l k k k z k j j k k g g l k g z UXz f d d h z z z UXUXUXUXUXUXUXUXUX",
"UXUXUXUXUXUXl UXl l UXl k g f g k j h g h j k g d g g O g h k g h k l l k f g g k j k l j z z UXh f f h z z z UXUXUXUXUXUXUXUXUX",
"UXUXUXUXUXl g l k l z k d f f h l l g g k l l g d d O g z k z z k z l z z l f h g z l z l l l UXz h h k z z UXz UXUXUXUXUXUXUXUX",
"UXUXUXUXUXj h l j j k g f p p g j k g g j j g h h h j UXUXk d a f l l z d z f z f k z z z l L.UXl l h g l z UXz z UXUXUXUXUXUXUX",
"UXUXUXUXUXUXl l j f h g d p p f f h g h h g f k h l z z 8Xl j h z k z z l z f z k l l z z z L.L.l l j f j z z z z UXUXUXUXUXUXUX",
"UXUXUXUXUXUXUXl l f h h d p a g h j d h g g g k l l l 4X8Xz z z z z z z z f f h z z j z z L.z L.L.l k h g k z UXz UXUXUXUXUXUXUX",
"UXUXUXUXUXl UXl l f h h a p a j j j d g g g g k z l l z j z z z z z z z z a g O a k h z z d z l L.l z j h k z UXz UXUXUXUXUXUXUX",
"UXUXUXl UXl l z l h j j d p a g j h O O d O O g h j z 8Xz z z z z z z UXz z f g g k g z j l j z q z j l k h l UXz UXUXUXUXUXUXUX",
"UXUXUXUXl l l z l l k l h d f g j g d O O a O f g g z z z z f h l z z UXz z l z l g h j g h j f k k f h z j k UXz UXUXUXUXUXUXUX",
"UXUXUXUXl l k l UXUXl l j f g h l g f d a p O f g g l 8Xz z f f l z UXUXUXUXUXz k g h j g j h d j k d h k k l UXz UXUXUXUXUXUXUX",
"UXUXUXUXUXUXl f l j UXUXl g g j l j g g O a a d g d h z z z j h l UXUXUXz UXz l h g j g f j d p O f f h k UXz UXUXUXUXUXUXUXUXUX",
"UXUXUXUXUXUXUXf l j UXUXl g d g j l g f f d O O f d g z k z z z z z UXUXUXUXz k g g j h h g d p O d h l z UXz UXUXUXUXUXUXUXUXUX",
"UXUXUXUXl l l UXl l z z j k k k l q k h d d h h j d d l UXz z z z z UXUXUXUXz j g h k k j O d f f g j h l l z z z UXUXUXUXUXUXUX",
"UXUXUXUXUXUXUXl z UXz z g j k g l z g j h j k UXz g f j l l l z z z z UXUXUXz k h j z j g p f k g g z k h z z z z UXUXUXUXUXUXUX",
"UXUXUXUXUXUXUXl z z j z g j k j k z h eXz j z UXl l j k l l l z z z z UXUXUXz j k l j f d O j z g f l l f z z z z z UXUXUXUXUXUX",
"UXUXUXUXUXUXUXz z UXt z g g g z l l z a g UXz z UXl l l z j k l j z z z z z k z h d p p i d k z h d j l h z z z z UXUXUXUXUXUXUX",
"UXUXUXUXUXUXUXUXUXz z z g d d l l z k h z z k l z k j z UXUXUXl g k z z z z h h O p t O O O j l g O g k j z z z z UXUXUXUXUXUXUX",
"UXUXUXUXUXUXUXz z z l z h f f h l z k k l l j k z l j j UXUXUXUXg g h j j f a O O O u g k h l h d O g j UXUXl l z UXUXUXUXUXUXUX",
"UXUXUXUXUXUXUXl z l g g f f f k l j z l j j h f f f g l UXUXz z l z k j j j j h d d f h j k g g d O k l UXz z j k z UXUXUXUXUXUX",
"UXUXUXUXUXUXUXUXl g f g f g g h k j z l l l h f f d f l z z z k g h g j j z k h j k j k k g g g f f l z l UXz g j z UXUXUXUXUXUX",
"UXUXUXUXUXUXUXUXUXUXl l f g g g h k UXUXl l h f f g h j k l k k j h k l k j l z z z z k h h h j f g l z z z l d j UXUXUXUXUXUXUX",
"UXUXUXUXUXUXUXUXUXUXl g g k k g k k l k l l z h h l l j g g h j k j j h h j z z l j l j h k k d g j z l z l k g UXUXUXUXUXUXUXUX",
"UXUXUXUXUXUXUXUXUXUXUXUXl l l k k l l k z p z z z z z z l l j g g f g j k k k l z z l l j f a O h l UXUXl UXUXUXUXUXUXUXUXUXUXUX",
"UXUXUXUXUXUXUXUXUXUXUXUXUXl l l l z UXk f z z z z z z z l k j h j k k j j j k k k l z h d d k l l UXl l l UXUXUXUXUXUXUXUXUXUXUX",
"UXUXUXUXUXUXUXUXUXUXUXUXUXz l l l l UXUXl L.k g j z z z z z j j j l k j j h j k k l z h f j z z z l l UXUXUXUXUXUXUXUXUXUXUXUXUX",
"UXUXUXUXUXUXUXUXUXUXUXUXUXUXUXl l z UXz z z z k j l l l l l k g f f g g g f f g k l k l z z l UXl UXUXUXUXUXUXUXUXUXUXUXUXUXUXUX",
"UXUXUXUXUXUXUXUXUXUXUXUXUXUXUXl z z z z z z z z l z z z l k k g f d d O a a d h l j k z z l UXl UXUXUXUXUXUXUXUXUXUXUXUXUXUXUXUX",
"UXUXUXUXUXUXUXUXUXUXUXUXUXz UXUXl l z z z z g l j l j z z z l j h f O O O a h l l h g z z   z UXz z z UXUXUXUXUXUXUXUXUXUXUXUXUX",
"UXUXUXUXUXUXUXUXUXUXUXUXUXUXUXUXUXz z l l l l l l j l l h g g g l l l k l l l k k k z z L.UXUXUXUXz z UXUXUXUXUXUXUXUXUXUXUXUXUX",
"UXUXUXUXUXUXUXUXUXUXUXUXUXUXUXUXz z z j j j l j j l l l k k h k z z z z z l k k l z z j L.UXUXUXUXUXUXUXUXUXUXUXUXUXUXUXUXUXUXUX",
"UXUXUXUXUXUXUXUXUXUXUXUXUXUXUXUXUXUXz z z k j f d h h g h h h h h l l l j f f f cXk z L.L.z z UXz UXUXUXUXUXUXUXUXUXUXUXUXUXUXUX",
"UXUXUXUXUXUXUXUXUXUXUXUXUXUXUXk UXz sXf f z z eXeXp h z g z z f a f h h h z z z k z z z UXz z UXUXUXUXUXUXUXUXUXUXUXUXUXUXUXUXUX",
"UXUXUXUXUXUXUXUXUXUXUXUXUXUXUXUXUXz z cXf k g g g f f k cXcXcXcXcXh k h d z z z z cXL.UXUXz z UXUXUXUXUXUXUXUXUXUXUXUXUXUXUXUXUX",
"UXUXUXUXUXUXUXUXUXUXUXUXUXUXUXUXUXUXz z z z k O O h z h cXcXcXcXl l l z h d h z L.L.L.cXUXUXUXUXUXUXUXUXUXUXUXUXUXUXUXUXUXUXUXUX",
"UXUXUXUXUXUXUXUXUXUXUXUXUXUXUXk UXUXcXg cXj f h k z z cX  g   z cXcXl h i h h h l O g cXz UXUXUXUXUXUXUXUXUXUXUXUXUXUXUXUXUXUXUX",
"UXUXUXUXUXUXUXUXUXUXUXUXUXUXUXUXUXUXUXUXg cXj k z z z cXg cXcXz g cXl z h k h z l g h cXUXz UXUXUXUXUXUXUXUXUXUXUXUXUXUXUXUXUXUX",
"UXUXUXUXUXUXUXUXUXUXUXUXUXUXUXUXUXUXk k UXUXcXg cXcXz k k cXcXz UXcXcXh h k k h cXcX  UXUXUXUXUXUXUXUXUXUXUXUXUXUXUXUXUXUXUXUXUX",
"UXUXUXUXUXUXUXUXUXUXUXUXUXUXUXUXUXUXk k UXUXUXcX  g z cXz z cXz UXcXz z k z z z z l l UXUXUXUXUXUXUXUXUXUXUXUXUXUXUXUXUXUXUXUXUX",
"UXUXUXUXUXUXUXUXUXUXUXUXUXUXUXUXUXUXUXUXUXUXUXUXUX          cXz   L.q q q L.j L.L.l   UXUXUXUXUXUXUXUXUXUXUXUXUXUXUXUXUXUXUXUXUX",
"UXUXUXUXUXUXUXUXUXUXUXUXUXUXUXUXUXUXUXUXUXUXUXUXUXUX              L.  j q L.        UXUXUXUXUXUXUXUXUXUXUXUXUXUXUXUXUXUXUXUXUXUX",
"UXUXUXUXUXUXUXUXUXUXUXUXUXUXUXUXUXUXUXUXUXUXUXUXUXUXl           z UX              l UXUXUXUXUXUXUXUXUXUXUXUXUXUXUXUXUXUXUXUXUXUX",
"UXUXUXUXUXUXUXUXUXUXUXUXUXUXUXUXUXUXUXUXUXUXUXUXUXUX          sX  UX        jX      UXUXUXUXUXUXUXUXUXUXUXUXUXUXUXUXUXUXUXUXUXUX",
"UXUXUXUXUXUXUXUXUXUXUXUXUXUXUXUXUXUXUXUXUXUXUXUXUXUXl             UX  jXjXjX        UXUXUXUXUXUXUXUXUXUXUXUXUXUXUXUXUXUXUXUXUXUX",
"UXUXUXUXUXUXUXUXUXUXUXUXUXUXUXUXUXUXUXUXUXUXUXUXUX                UX            l UXUXUXUXUXUXUXUXUXUXUXUXUXUXUXUXUXUXUXUXUXUXUX",
"UXUXUXUXUXUXUXUXUXUXUXUXUXUXUXUXUXUXUXUXUXUXUXUXUX                          sX  l UXUXUXUXUXUXUXUXUXUXUXUXUXUXUXUXUXUXUXUXUXUXUX",
"UXUXUXUXUXUXUXUXUXUXUXUXUXUXUXUXUXUXUXUXUXUXUXUXUX              UX  K.jXjXK.      UXUXUXUXUXUXUXUXUXUXUXUXUXUXUXUXUXUXUXUXUXUXUX",
"UXUXUXUXUXUXUXUXUXUXUXUXUXUXUXUXUXUXUXUXUXUXUXUXUXUXUXUXUXUXUXUXUX  J.jXjXjXjX    UXUXUXUXUXUXUXUXUXUXUXUXUXUXUXUXUXUXUXUXUXUXUX",
"UXUXUXUXUXUXUXUXUXUXUXUXUXUXUXUXUXUXUXUXUXUXUXUXUXUXUXUXUXUXUXUXUX  K.J.J.K.jX    UXUXUXUXUXUXUXUXUXUXUXUXUXUXUXUXUXUXUXUXUXUXUX",
"UXUXUXUXUXUXUXUXUXUXUXUXUXUXUXUXUXUXUXUXUXUXUXUXUXUXUXUXUXUXUXUXUXUX  jXjXjX    UXUXUXUXUXUXUXUXUXUXUXUXUXUXUXUXUXUXUXUXUXUXUXUX"
};
