/* XPM */
static char *_1364_b8c00498eecf4dc731826caecb33e093cc742b39941e56f8fd3045e8d1753810[] = {
/* columns rows colors chars-per-pixel */
"64 64 256 2 ",
"   c black",
".  c #0000A8",
"X  c #00A800",
"o  c #00A8A8",
"O  c #A80000",
"+  c #A800A8",
"@  c #A85400",
"#  c gray66",
"$  c gray33",
"%  c #5454FC",
"&  c #54FC54",
"*  c #54FCFC",
"=  c #FC5454",
"-  c #FC54FC",
";  c #FCFC54",
":  c gray99",
">  c #ECECEC",
",  c gainsboro",
"<  c #D0D0D0",
"1  c #C0C0C0",
"2  c #B4B4B4",
"3  c gray66",
"4  c #989898",
"5  c gray55",
"6  c #7C7C7C",
"7  c gray44",
"8  c #646464",
"9  c gray33",
"0  c #484848",
"q  c gray22",
"w  c #2C2C2C",
"e  c #202020",
"r  c #FC0000",
"t  c #EC0000",
"y  c #E00000",
"u  c #D40000",
"i  c #C80000",
"p  c #BC0000",
"a  c #B00000",
"s  c #A40000",
"d  c #980000",
"f  c #880000",
"g  c #7C0000",
"h  c #700000",
"j  c #640000",
"k  c #580000",
"l  c #4C0000",
"z  c #400000",
"x  c #FCD8D8",
"c  c #FCB8B8",
"v  c #FC9C9C",
"b  c #FC7C7C",
"n  c #FC5C5C",
"m  c #FC4040",
"M  c #FC2020",
"N  c #FC0000",
"B  c #FCA85C",
"V  c #FC9840",
"C  c #FC8820",
"Z  c #FC7800",
"A  c #E46C00",
"S  c #CC6000",
"D  c #B45400",
"F  c #9C4C00",
"G  c #FCFCD8",
"H  c #FCFCB8",
"J  c #FCFC9C",
"K  c #FCFC7C",
"L  c #FCF85C",
"P  c #FCF440",
"I  c #FCF420",
"U  c #FCF400",
"Y  c #E4D800",
"T  c #CCC400",
"R  c #B4AC00",
"E  c #9C9C00",
"W  c #848400",
"Q  c #706C00",
"!  c #585400",
"~  c #404000",
"^  c #D0FC5C",
"/  c #C4FC40",
"(  c #B4FC20",
")  c #A0FC00",
"_  c #90E400",
"`  c #80CC00",
"'  c #74B400",
"]  c #609C00",
"[  c #D8FCD8",
"{  c #BCFCB8",
"}  c #9CFC9C",
"|  c #80FC7C",
" . c #60FC5C",
".. c #40FC40",
"X. c #20FC20",
"o. c #00FC00",
"O. c #00FC00",
"+. c #00EC00",
"@. c #00E000",
"#. c #00D400",
"$. c #04C800",
"%. c #04BC00",
"&. c #04B000",
"*. c #04A400",
"=. c #049800",
"-. c #048800",
";. c #047C00",
":. c #047000",
">. c #046400",
",. c #045800",
"<. c #044C00",
"1. c #044000",
"2. c #D8FCFC",
"3. c #B8FCFC",
"4. c #9CFCFC",
"5. c #7CFCF8",
"6. c #5CFCFC",
"7. c #40FCFC",
"8. c #20FCFC",
"9. c #00FCFC",
"0. c #00E4E4",
"q. c #00CCCC",
"w. c #00B4B4",
"e. c #009C9C",
"r. c #008484",
"t. c #007070",
"y. c #005858",
"u. c #004040",
"i. c #5CBCFC",
"p. c #40B0FC",
"a. c #20A8FC",
"s. c #009CFC",
"d. c #008CE4",
"f. c #007CCC",
"g. c #006CB4",
"h. c #005C9C",
"j. c #D8D8FC",
"k. c #B8BCFC",
"l. c #9C9CFC",
"z. c #7C80FC",
"x. c #5C60FC",
"c. c #4040FC",
"v. c #2024FC",
"b. c #0004FC",
"n. c #0000FC",
"m. c #0000EC",
"M. c #0000E0",
"N. c #0000D4",
"B. c #0000C8",
"V. c #0000BC",
"C. c #0000B0",
"Z. c #0000A4",
"A. c #000098",
"S. c #000088",
"D. c #00007C",
"F. c #000070",
"G. c #000064",
"H. c #000058",
"J. c #00004C",
"K. c #000040",
"L. c #282828",
"P. c #FCE034",
"I. c #FCD424",
"U. c #FCCC18",
"Y. c #FCC008",
"T. c #FCB400",
"R. c #B420FC",
"E. c #A800FC",
"W. c #9800E4",
"Q. c #8000CC",
"!. c #7400B4",
"~. c #60009C",
"^. c #500084",
"/. c #440070",
"(. c #340058",
"). c #280040",
"_. c #FCD8FC",
"`. c #FCB8FC",
"'. c #FC9CFC",
"]. c #FC7CFC",
"[. c #FC5CFC",
"{. c #FC40FC",
"}. c #FC20FC",
"|. c #FC00FC",
" X c #E000E4",
".X c #C800CC",
"XX c #B400B4",
"oX c #9C009C",
"OX c #840084",
"+X c #6C0070",
"@X c #580058",
"#X c #400040",
"$X c #FCE8DC98",
"%X c #FCE0D0",
"&X c #FCD8C4",
"*X c #FCD4BC",
"=X c #FCCCB0",
"-X c #FCC4A4",
";X c #FCBC9C",
":X c #FCB890",
">X c #FCB080",
",X c #FCA470",
"<X c #FC9C60",
"1X c #F0945C",
"2X c #E88C58",
"3X c #DC8854",
"4X c #D08050",
"5X c #C87C4C",
"6X c #BC7848",
"7X c #B47044",
"8X c #A86840",
"9X c #A0643C",
"0X c #9C6038",
"qX c #905C34",
"wX c #885830",
"eX c #80502C",
"rX c #744C28",
"tX c #6C4824",
"yX c #5C4020",
"uX c #543C1C",
"iX c #483818",
"pX c #403018",
"aX c #382C14",
"sX c #28200C",
"dX c #600064",
"fX c #006464",
"gX c #006060",
"hX c #00001C",
"jX c #00002C",
"kX c #302410",
"lX c #480048",
"zX c #500050",
"xX c #000034",
"cX c gray11",
"vX c #4C4C4C",
"bX c gray36",
"nX c gray25",
"mX c gray19",
"MX c #343434",
"NX c #D8F4F4",
"BX c #B8E8E8",
"VX c #9CDCDC",
"CX c #74C8C8",
"ZX c #48C0C0",
"AX c #20B4B4",
"SX c #20B0B0",
"DX c #00A4A4",
"FX c #009898",
"GX c #008C8C",
"HX c #008484",
"JX c #007C7C",
"KX c #007878",
"LX c #007474",
"PX c #007070",
"IX c #006C6C",
"UX c #FFC0CB",
/* pixels */
"UXUXUXUXUXUXUXUXUXUXUXUXUXUXUXUXUXUXUXUXUXUXUXUXUXUXUXUXUXUXUXUXUXUXUXUXUXUXUXUXUXUXUXUXUXUXUXUXUXUXUXUXUXUXUXUXUXUXUXUXUXUXUXUX",
"UXUXUXUXUXUXUXUXUXUXUXUXUXUXUXUXUXUXUXUXUXUXUXUXUXUXUXUXUXUXUXUXUXUXUXUXUXUXUXUXUXUXUXUXUXUXUXUXUXUXUXUXUXUXUXUXUXUXUXUXUXUXUXUX",
"UXUXUXUXUXUXUXUXUXUXUXUXUXUXUXUXUXUXUXUXUXUXUXUXUXUXUXUXUXUXUXUXUXUXUXUXUXUXUXUXUXUXUXUXUXUXUXUXUXUXUXUXUXUXUXUXUXUXUXUXUXUXUXUX",
"UXUXUXUXUXUXUXUXUXUXUXUXUXUXUXUXUXUXUXUXUXUXUXUXUXUXUXUXUXUXUXUXUXUXUXUXUXUXUXUXUXUXUXUXUXUXUXUXUXUXUXUXUXUXUXUXUXUXUXUXUXUXUXUX",
"UXUXUXUXUXUXUXUXUXUXUXUXUXUXUXUXUXUXUXUXUXUXUXUXUXUXUXUXUXUXUXUXUXUXUXUXUXUXUXUXUXUXUXUXUXUXUXUXUXUXUXUXUXUXUXUXUXUXUXUXUXUXUXUX",
"UXUXUXUXUXUXUXUXUXUXUXUXUXUXUXUXUXUXUXUXUXUXUXUXUXUXUXUXUXUXUXUXUXUXUXUXUXUXUXUXUXUXUXUXUXUXUXUXUXUXUXUXUXUXUXUXUXUXUXUXUXUXUXUX",
"UXUXUXUXUXUXUXUXUXUXUXUXUXUXUXUXUXUXUXUXUXUXUXUXUXUXUXUXUXUXUXUXUXUXUXUXUXUXUXUXUXUXUXUXUXUXUXUXUXUXUXUXUXUXUXUXUXUXUXUXUXUXUXUX",
"UXUXUXUXUXUXUXUXUXUXUXUXUXUXUXUXUXUXUXUXUXUXUXUXUXUXUXUXUXUXUXUXUXUXUXUXUXUXUXUXUXUXUXUXUXUXUXUXUXUXUXUXUXUXUXUXUXUXUXUXUXUXUXUX",
"UXUXUXUXUXUXUXUXUXUXUXUXUXUXUXUXUXUXUXUXUXUXUXUXUXUXUXUXUXUXUXUXUXUXUXUXUXUXUXUXUXUXUXUXUXUXUXUXUXUXUXUXUXUXUXUXUXUXUXUXUXUXUXUX",
"UXUXUXUXUXUXUXUXUXUXUXUXUXUXUXUXUXUXUXUXUXUXUXUXUXUXUXUXUXUXUXUXUXUXUXUXUXUXUXUXUXUXUXUXUXUXUXUXUXUXUXUXUXUXUXUXUXUXUXUXUXUXUXUX",
"UXUXUXUXUXUXUXUXUXUXUXUXUXUXUXUXUXUXUXUXUXUXUXUXUXUXUXUXUXUXUXUXUXUXUXUXUXUXUXUXUXUXUXUXUXUXUXUXUXUXUXUXUXUXUXUXUXUXUXUXUXUXUXUX",
"UXUXUXUXUXUXUXUXUXUXUXUXUXUXUXUXUXUXUXUXUXUXUXUXUXUXUXUXUXUXUXUXUXUXUXUXUXUXUXUXUXUXUXUXUXUXUXUXUXUXUXUXUXUXUXUXUXUXUXUXUXUXUXUX",
"UXUXUXUXUXUXUXUXUXUXUXUXUXUXUXUXUXUXUXUXUXUXUXUXUXUXUXUXUXUXUXUXUXUXUXUXUXUXUXUXUXUXUXUXUXUXUXUXUXUXUXUXUXUXUXUXUXUXUXUXUXUXUXUX",
"UXUXUXUXUXUXUXUXUXUXUXUXUXUXUXUXUXUXUXUXUXUXUXUXUXUXUXUXUXUXUXUXUXUXUXUXUXUXUXUXUXUXUXUXUXUXUXUXUXUXUXUXUXUXUXUXUXUXUXUXUXUXUXUX",
"UXUXUXUXUXUXUXUXUXUXUXUXUXUXUXUXUXUXUXh z UXUXUXUXUXUXUXUXUXUXUXUXUXUXUXUXUXUXUXUXUXUXUXUXUXUXUXUXUXUXUXUXUXUXUXUXUXUXUXUXUXUXUX",
"UXUXUXUXUXUXUXUXUXUXUXUXUXUXUXUXUXUXh h UXUXUXUXUXUXUXUXUXUXUXUXUXUXUXUXUXUXUXUXUXUXh UXUXUXUXUXUXUXUXUXUXUXUXUXUXUXUXUXUXUXUXUX",
"UXUXUXUXUXUXUXUXUXUXUXUXUXUXUXUXUXUXUXUXUXUXUXUXUXUXcXUXUXUXUXUXUXUXUXUXUXUXUXUXUXUXh f UXUXUXUXUXUXUXUXUXUXUXUXUXUXUXUXUXUXUXUX",
"UXUXUXUXUXUXUXUXUXUXUXUXUXUXUXUXUXUXUXf UXUXr UXUXcXUXUXUXUXUXUXUXUXUXUXUXUXUXUXUXUXj f UXUXUXu UXUXUXUXUXUXUXUXUXUXUXUXUXUXUXUX",
"UXUXUXUXUXUXUXUXUXUXUXUXUXUXUXUXUXUXz UXUXUXr cXq cXcXUXcXUXUXUXUXUXUXUXUXUXUXUXUXUXUXUXUXUXUXu u UXUXUXUXUXUXUXUXUXUXUXUXUXUXUX",
"UXUXUXUXUXUXUXUXUXUXUXUXUXUXUXUXUXUXz UXUXUXr cXq w cXcXUXUXUXUXUXUXUXUXUXUXUXUXUXUXUXUXUXUXUXg u UXUXUXUXUXUXUXUXUXUXUXUXUXUXUX",
"UXUXUXUXUXUXUXUXUXUXUXUXUXUXUXUXUXUXz z UXa a r e q w cXUXUXUXUXUXUXUXUXUXUXUXUXUXUXUXUXUXUXUXk d p UXUXUXUXUXUXUXUXUXUXUXUXUXUX",
"UXUXUXUXUXUXUXUXUXUXUXUXUXUXUXUXUXUXUXUXUXa h a y g cXcXUXUXUXUXUXUXUXUXUXUXUXUXUXUXUXUXUXUXf k k p f h UXUXUXUXUXUXUXUXUXUXUXUX",
"UXUXUXUXUXUXUXUXUXUXUXUXUXUXUXUXUXUXUXUXUXUXj k z z z cXUXUXUXUXUXUXUXUXUXUXUXUXUXUXUXUXUXUXf k k h f h w UXUXUXUXUXUXUXUXUXUXUX",
"UXUXUXUXUXUXUXUXUXUXUXUXUXUXg UXUXUXUXUXUXUXk k z z z UXUXUXUXUXUXUXUXUXUXUXUXUXUXUXUXUXUXUXz z z z p d w e UXUXUXUXUXUXUXUXUXUX",
"UXUXUXUXUXUXUXUXUXUXUXUXUXUXUXUXUXUXUXUXUXUXUXk z z z UXUXUXUXUXUXUXUXUXUXUXUXUXUXUXUXUXUXUXUXz z z z e w e UXUXUXUXUXUXUXUXUXUX",
"UXUXUXUXUXUXUXUXUXUXUXUXUXUXUXk UXUXUXUXUXUXUXj z UXUXUXUXUXUXUXUXUXUXUXUXUXUXUXUXUXUXUXUXUXUXz z z z e e cXUXUXUXUXUXUXUXUXUXUX",
"UXUXUXUXUXUXUXUXUXUXUXUXUXp UXUXUXUXUXUXUXUXUXUXUXUXUXUXUXUXUXUXUXUXUXUXUXUXUXUXUXUXUXUXUX8XO h p O z f cXcXUXUXUXUXUXUXUXUXUXUX",
"UXUXUXUXUXUXUXUXUXUXUXUXUXUXUXUXUXUXUXz z UXUXUXUXUXUXUXUXUXUXUXUXUXUXUXUXUXUXUXUXUXUXUXUX8XO eXl z f z cXUXUXUXUXUXUXUXUXUXUXUX",
"UXUXUXUXUXUXUXUXUXUXUXUXUXUXUXg UXUXUXz z UXUXUXUXUXUXUXUXUXUXUXUXUXUXUXUXUXUXUXUXUXUXUXUXf g j l l a f UXUXUXUXUXUXUXUXUXUXUXUX",
"UXUXUXUXUXUXUXUXUXUXg UXj UXUXUXUXUXUXUXUXUXUXUXUXUXUXUXUXUXUXUXUXUXUXUXUXUXUXUXUXUXUXUXUXUXj j l l h y UXUXUXUXUXUXUXUXUXUXUXUX",
"UXUXUXUXUXUXUXUXUXUXUXUXj UXUXUXUXUXUXUXUXUXUXUXUXz z UXUXUXUXUXUXUXUXUXUXUXUXUXUXUXUXUXUXUXUXj l l h a UXUXUXUXUXUXUXUXUXUXUXUX",
"UXUXUXUXUXUXUXUXUXUXUXh j UXg UXUXUXUXUXUXUXg UXUXz z UXUXUXUXUXUXUXUXUXUXUXUXUXUXUXUXUXUXl UXUXl l h d UXUXUXUXUXUXUXUXUXUXUXUX",
"UXUXUXUXUXUXUXUXUXUXUXh g O g UXUXUXUXUXUXUXUXUXUXUXUXUXUXUXUXUXUXUXUXUXUXUXUXUXUXUXUXUXUXUXUXUXUXz z UXUXUXUXUXUXUXUXUXUXUXUXUX",
"UXUXUXUXUXUXUXUXUXUXUXO h O h UXUXUXO d UXUXUXUXg UXUXUXUXUXUXUXUXUXUXl UXUXUXUXl l UXUXUXUXUXUXUXUXUXUXUXUXUXUXUXUXUXUXUXUXUXUX",
"UXUXUXUXUXUXUXUXUXUXUXO O O h UXUXa O d j z UXUXUXUXUXUXUXUXUXUXUXUXUXUXUXUXUXUXl l UXUXUXUXUXUXUXUXUXUXUXUXUXUXUXUXUXUXUXUXUXUX",
"UXUXUXUXUXUXUXUXUXUXUXg a y p UXk a i O j z UXUXUXUXUXUXz UXUXUXUXUXUXUXUXUXUXUXUXUXUXUXUXUXUXUXUXUXUXUXUXUXUXUXUXUXUXUXUXUXUXUX",
"UXUXUXUXUXUXUXUXUXUXUXUXf O UXj k l O f h UXUXUXUXUXUXz z UXUXUXUXUXUXUXUXUXUXUXUXUXUXUXUXUXUXUXUXUXUXUXUXUXUXUXUXUXUXUXUXUXUXUX",
"UXUXUXUXUXUXUXUXUXUXUXUXUXUXUXUXUXk l j UXUXUXUXUXUXUXz z z UXUXUXUXUXUXUXUXUXUXUXUXUXUXUXUXUXUXUXUXUXUXUXUXUXUXUXUXUXUXUXUXUXUX",
"UXUXUXUXUXUXUXUXUXUXUXUXUXUXUXUXUXUXUXUXUXUXUXUXUXg d z z z UXUXUXUXUXUXUXUXUXUXl l UXUXg z l UXh UXUXUXUXUXUXUXUXUXUXUXUXUXUXUX",
"UXUXUXUXUXUXUXUXUXg UXUXUXUXUXUXUXUXUXUXk UXUXUXl g d h z z UXUXUXUXUXUXUXUXUXUXl l UXg g z l UXh f h UXl UXUXUXUXUXUXUXUXUXUXUX",
"UXUXUXUXUXUXUXUXUXUXUXUXUXUXUXk UXUXUXUXUXUXUXUXl O p O l z UXUXg UXUXUXUXUXUXUXUXUXz g a g UXUXh f h O l h UXUXUXUXUXUXUXUXUXUX",
"UXUXUXUXUXUXUXUXUXUXUXUXUXUXg k UXUXUXUXUXUXUXUXz z f h z z UXUXUXUXUXUXUXUXUXUXUXUXz h g z 0X7Xf r p O O h h UXh UXUXUXUXUXUXUX",
"UXUXUXUXUXUXUXUXUXUXUXg UXUXg k UXUXk h UXUXUXUXz j j l l UXUXUXUXUXUXUXUXUXUXUXUXUXUXUXUXf 0X7X7X0XeXd u d h e h h UXUXUXUXUXUX",
"UXUXUXUXUXUXUXUXUXUXUXUXUXeXk UXUXUXk h UX0XUXUXUXk g k z UXUXUXUXUXUXUXUXUXUXUXUXUXUXUXh 0XUXUX7X7X7X0Xd g g e l UXUXUXUXUXUXUX",
"UXUXUXUXUXUXUXUXUXUXUXUXUXeX7XUXUXUXUXUXUX0XeXUXUXUXUXUXUXUXUXUXUXUXUXUXUXUXUXUXUXUXUXf h l UXUXUXUXeXeXh l k f e UXUXUXUXUXUXUX",
"UXUXUXUXUXUXUXw cXg j l j eXeXUXUXUXUXUXUXg eXUXUXUXUXUXUXUXUXUXUXUXUXUXUXUXUXUXUXUXUXf g UXUXUXUXUXz k h l h d j e UXUXUXUXUXUX",
"UXUXUXUXUXUXw w cXg j l j g 7XUXUXUXUXUXUXl 8Xd UXUXUXUXUXUXz UXUXUXUXUXUXUXUXUXz UXUXUXUXUXUXUXUXUXl k h l h d g e d UXUXUXUXUX",
"UXUXUXUXUXcXw e d O a k h 0X0XUXUXUXUXUXk g g d UXUXUXUXUXUXUXUXUXUXUXUXUXUXUXUXUXUXUXUXUXUXUXUXUXl k z z z l l l j d g UXUXUXUX",
"UXUXUXUXUXcXw d O i f g O 0X5Xh UXUXUXj k eX8XeXUXUXUXUXUXUXUXUXUXUXUXf UXUXUXUXUXUXUXUXUXUXUXUXUXl z z z z k j j d e g UXUXUXUX",
"UXUXUXUXUXcXw e cXiXg O g 0XeXh 5XeXz j k g eX0XUXz l UXUXUXUXUXUXUXUXUXUXUXUXUXUXUXUXUXUXUXUXUXUXUXz h z k z k z j e uXUXUXUXUX",
"UXUXUXUXUXcXw q e cXz l UXd f 5X5XeXz k z z f f h z l g UXUXUXUXUXUXUX8X8X8XUXUXUXUXUXUXUXUXUXUXUXUXh h k k f i n 3XeX3XUXUXUXUX",
"UXUXUXUXUXiXcXD 7Xe l k l f 0X7X7X5Xj l z z cXl h g k g k UXUXUXUXUX8X8X8X8Xg UXUXUXUXUXUXUXUXUXUXUXUXg f i n M M n 3XM UXUXUXUX",
"UXUXUXUXUXt 8XM a q z k l h l h eX8XeXl z j z cXz l cXd k k UXk UXUX8XeXf f g UXUXUXUXUXz z h UXUXUXUXg f M rXrXtXtXyXh UXUXUXUX",
"UXUXUXUXUXt n n a M h k z d l k k eX8Xf k h cXz z l f a f k h k k k eXj j g UXeXg k l z z z h UXUXUXUXl l l iXuXuXuXiXUXUXUXUXUX",
"UXUXUXUXUXUXt 8Xf n g z d O j z k k eX0Xg h g g cXl cXcXz O h k k k z z z z g eXg k UXz z f a z UXUXUXl z l z z z z g z UXUXUXUX",
"UXUXUXUXUXUXUXn M 8Xp d g f j f z k k f eXh z p g z z l cXd h l z k l l l g g l l z z z l d z z UXUXUXz z z l z z l l z UXUXUXUX",
"UXUXUXUXUXUXUXa t n p p z z cXf k eXg k g f k g z z z l k h d l h k h a k d O l 8XeXz h g z k g h k g f l O k l z l l UXUXUXUXUX",
"UXUXUXUXUXUXUXUXUXUXUXUXh z z z z k k k k z h cXcXz z z j g g d f h z h f g g h eXeXz z z z u k h k g f a O g z l z l UXUXUXUXUX",
"UXUXUXUXUXUXUXUXUXUXUXUXz z z z z k k k k z cXcXcXl l l z j z f a g z k f a a g k k z z h u d d j z l g O O d l h z   k UXUXUXUX",
"UXUXUXUXUXUXUXUXUXj g g z cXg cXj j k z z z cXg g j l l   z   j f g j z f k f k k z z z f f k i d z l k f g g h UXUXk k UXUXUXUX",
"UXUXUXUXUXUXUXUXUXUXg g z cXg g cXcXg cXcXz k k cXz l           UXz j f j j l z z z d h z cXl d k z UXz j k l z UXUXUXUXUXUXUXUX",
"UXUXUXUXUXUXUXUXUXUXUXUXUXl l l l z cXcXg z cXz UXUXUXUXUXUXUXUXUX  l j j f g z z h h h h l g z UXUXUXUXUXUXUXk z UXUXUXUXUXUXUX",
"UXUXUXUXUXUXUXUXUXUXUXUXUXUXUXUXUXUXUXUXUXUXUXUXUXUXUXUXUXUXUXUXUX  l z j f g j j z g h cXz UXUXUXUXUXUXUXUXUXg z UXUXUXUXUXUXUX",
"UXUXUXUXUXUXUXUXUXUXUXUXUXUXUXUXUXUXUXUXUXUXUXUXUXUXUXUXUXUXUXz j z l z cXj z j j z z z z l z UXUXUXUXUXUXUXUXUXUXUXUXUXUXUXUXUX"
};
