/* XPM */
static char *_0621_cfca462b7dfc4c0a65538a08187201a58b041ca22f524e4aa1c13780f6a640fa[] = {
/* columns rows colors chars-per-pixel */
"64 64 256 2 ",
"   c black",
".  c #0000A8",
"X  c #00A800",
"o  c #00A8A8",
"O  c #A80000",
"+  c #A800A8",
"@  c #A85400",
"#  c gray66",
"$  c gray33",
"%  c #5454FC",
"&  c #54FC54",
"*  c #54FCFC",
"=  c #FC5454",
"-  c #FC54FC",
";  c #FCFC54",
":  c gray99",
">  c #ECECEC",
",  c gainsboro",
"<  c #D0D0D0",
"1  c #C0C0C0",
"2  c #B4B4B4",
"3  c gray66",
"4  c #989898",
"5  c gray55",
"6  c #7C7C7C",
"7  c gray44",
"8  c #646464",
"9  c gray33",
"0  c #484848",
"q  c gray22",
"w  c #2C2C2C",
"e  c #202020",
"r  c #FC0000",
"t  c #EC0000",
"y  c #E00000",
"u  c #D40000",
"i  c #C80000",
"p  c #BC0000",
"a  c #B00000",
"s  c #A40000",
"d  c #980000",
"f  c #880000",
"g  c #7C0000",
"h  c #700000",
"j  c #640000",
"k  c #580000",
"l  c #4C0000",
"z  c #400000",
"x  c #FCD8D8",
"c  c #FCB8B8",
"v  c #FC9C9C",
"b  c #FC7C7C",
"n  c #FC5C5C",
"m  c #FC4040",
"M  c #FC2020",
"N  c #FC0000",
"B  c #FCA85C",
"V  c #FC9840",
"C  c #FC8820",
"Z  c #FC7800",
"A  c #E46C00",
"S  c #CC6000",
"D  c #B45400",
"F  c #9C4C00",
"G  c #FCFCD8",
"H  c #FCFCB8",
"J  c #FCFC9C",
"K  c #FCFC7C",
"L  c #FCF85C",
"P  c #FCF440",
"I  c #FCF420",
"U  c #FCF400",
"Y  c #E4D800",
"T  c #CCC400",
"R  c #B4AC00",
"E  c #9C9C00",
"W  c #848400",
"Q  c #706C00",
"!  c #585400",
"~  c #404000",
"^  c #D0FC5C",
"/  c #C4FC40",
"(  c #B4FC20",
")  c #A0FC00",
"_  c #90E400",
"`  c #80CC00",
"'  c #74B400",
"]  c #609C00",
"[  c #D8FCD8",
"{  c #BCFCB8",
"}  c #9CFC9C",
"|  c #80FC7C",
" . c #60FC5C",
".. c #40FC40",
"X. c #20FC20",
"o. c #00FC00",
"O. c #00FC00",
"+. c #00EC00",
"@. c #00E000",
"#. c #00D400",
"$. c #04C800",
"%. c #04BC00",
"&. c #04B000",
"*. c #04A400",
"=. c #049800",
"-. c #048800",
";. c #047C00",
":. c #047000",
">. c #046400",
",. c #045800",
"<. c #044C00",
"1. c #044000",
"2. c #D8FCFC",
"3. c #B8FCFC",
"4. c #9CFCFC",
"5. c #7CFCF8",
"6. c #5CFCFC",
"7. c #40FCFC",
"8. c #20FCFC",
"9. c #00FCFC",
"0. c #00E4E4",
"q. c #00CCCC",
"w. c #00B4B4",
"e. c #009C9C",
"r. c #008484",
"t. c #007070",
"y. c #005858",
"u. c #004040",
"i. c #5CBCFC",
"p. c #40B0FC",
"a. c #20A8FC",
"s. c #009CFC",
"d. c #008CE4",
"f. c #007CCC",
"g. c #006CB4",
"h. c #005C9C",
"j. c #D8D8FC",
"k. c #B8BCFC",
"l. c #9C9CFC",
"z. c #7C80FC",
"x. c #5C60FC",
"c. c #4040FC",
"v. c #2024FC",
"b. c #0004FC",
"n. c #0000FC",
"m. c #0000EC",
"M. c #0000E0",
"N. c #0000D4",
"B. c #0000C8",
"V. c #0000BC",
"C. c #0000B0",
"Z. c #0000A4",
"A. c #000098",
"S. c #000088",
"D. c #00007C",
"F. c #000070",
"G. c #000064",
"H. c #000058",
"J. c #00004C",
"K. c #000040",
"L. c #282828",
"P. c #FCE034",
"I. c #FCD424",
"U. c #FCCC18",
"Y. c #FCC008",
"T. c #FCB400",
"R. c #B420FC",
"E. c #A800FC",
"W. c #9800E4",
"Q. c #8000CC",
"!. c #7400B4",
"~. c #60009C",
"^. c #500084",
"/. c #440070",
"(. c #340058",
"). c #280040",
"_. c #FCD8FC",
"`. c #FCB8FC",
"'. c #FC9CFC",
"]. c #FC7CFC",
"[. c #FC5CFC",
"{. c #FC40FC",
"}. c #FC20FC",
"|. c #FC00FC",
" X c #E000E4",
".X c #C800CC",
"XX c #B400B4",
"oX c #9C009C",
"OX c #840084",
"+X c #6C0070",
"@X c #580058",
"#X c #400040",
"$X c #FCE8DC",
"%X c #FCE0D0",
"&X c #FCD8C4",
"*X c #FCD4BC",
"=X c #FCCCB0",
"-X c #FCC4A4",
";X c #FCBC9C",
":X c #FCB890",
">X c #FCB080",
",X c #FCA470",
"<X c #FC9C60",
"1X c #F0945C",
"2X c #E88C58",
"3X c #DC8854",
"4X c #D08050",
"5X c #C87C4C",
"6X c #BC7848",
"7X c #B47044",
"8X c #A86840",
"9X c #A0643C",
"0X c #9C6038",
"qX c #905C34",
"wX c #885830",
"eX c #80502C",
"rX c #744C28",
"tX c #6C4824",
"yX c #5C4020",
"uX c #543C1C",
"iX c #483818",
"pX c #403018",
"aX c #382C14",
"sX c #28200C",
"dX c #600064",
"fX c #006464",
"gX c #006060",
"hX c #00001C",
"jX c #00002C",
"kX c #302410",
"lX c #480048",
"zX c #500050",
"xX c #000034",
"cX c gray11",
"vX c #4C4C4C",
"bX c gray36",
"nX c gray25",
"mX c gray19",
"MX c #343434",
"NX c #D8F4F4",
"BX c #B8E8E8",
"VX c #9CDCDC",
"CX c #74C8C8",
"ZX c #48C0C0",
"AX c #20B4B4",
"SX c #20B0B0",
"DX c #00A4A4",
"FX c #009898",
"GX c #008C8C",
"HX c #008484",
"JX c #007C7C",
"KX c #007878",
"LX c #007474",
"PX c #007070",
"IX c #006C6C",
"UX c #FFC0CB",
/* pixels */
"UXUXUXUXUXUXUXUXUXUXUXUXUXUXUXUXUXUXUXUXUXUXUXUXUXUXUXUXUXz z UXUXUXUXUXz z z UXUXUXUXUXUXUXUXUXUXUXUXUXUXUXUXUXUXUXUXUXUXUXUXUX",
"UXUXUXUXUXUXUXUXUXUXUXUXUXUXUXUXUXz UXUXUXUXUXz z UXUXUXUXUXUXz UXUXUXz z z z z z UXUXUXUXUXUXUXUXUXUXUXUXUXUXUXUXUXUXUXUXUXUXUX",
"UXUXUXUXUXUXUXUXUXUXUXUXUXUXUXUXUXUXz z z UXUXUXUXUXUXUXz UXUXz UXUXz UXUXl k k k z UXUXUXUXz UXUXUXUXUXUXUXUXUXUXUXUXUXUXUXUXUX",
"UXUXUXUXUXUXUXUXUXUXUXUXUXUXUXUXz z z l UXUXUXUXUXz h z UXUXUXUXUXUXUXUXz z l k k z UXUXUXUXUXUXUXUXUXUXUXUXUXUXUXUXUXUXUXUXUXUX",
"UXUXUXUXUXUXUXUXUXUXUXUXUXUXz z z z z z z z z z z h h UXUXUXe e UXUXz z z UXj z UXz z UXUXUXUXUXUXUXUXUXUXUXUXUXUXUXUXUXUXUXUXUX",
"UXUXUXUXUXUXUXUXUXUXUXUXUXz l k k z z l l j j k UXUXUXUXL.L.UXUXUXUXUXUXUXUXj f UXUXUXUXUXz UXj O UXz UXUXUXUXUXUXUXUXUXUXUXUXUX",
"UXUXUXUXUXUXUXUXUXUXUXUXz z z l l l z UXz k j l z UXL.MXL.L.L.UXUXUXUXUXUXUXUXUXUXUXUXUXUXUXr UXO UXUXUXz z UXUXUXUXUXUXUXUXUXUX",
"UXUXUXUXUXUXUXUXUXUXUXUXl z z l j j z UXUXUXUXUXUXL.L.MXq MXL.j e UXUXUXUXUXUXUXUXUXUXUXUXa r UXUXUXUXUXz z l UXUXUXUXUXUXUXUXUX",
"UXUXUXUXUXUXUXUXUXUXUXz l UXz k k k z UXUXUXUXUXu L.MXq q q L.j UXUXUXUXUXUXUXUXUXUXUXUXu a i UXUXUXUXUXUXl l UXUXUXUXUXUXUXUXUX",
"UXUXUXUXUXUXUXUXUXUXUXz UXUXz k k UXz UXUXf UXu u u u r y g e j e UXUXUXUXUXUXUXUXi r r u a d UXUXUXUXUXUXUXl UXUXUXUXUXUXUXUXUX",
"UXUXUXUXUXUXUXUXUXUXUXUXUXz UXz UXUXUXUXUXUXUXUXUXl l d a d z z UXUXUXUXUXUXUXUXi i r r y u d L.UXUXUXUXUXUXUXUXUXUXUXUXUXUXUXUX",
"UXUXUXUXUXUXUXUXUXUXUXUXz UXUXUXUXUXUXUXUXUXUXj UXUXl l z z z z UXUXUXUXUXUXUXg i i u r r a L.L.UXUXUXUXUXUXUXUXz UXUXUXUXUXUXUX",
"UXUXUXUXUXUXUXUXUXUXUXUXUXUXUXUXUXUXt UXUXUXUXUXUXUXUXz z z z e UXUXUXUXUXk z g z g g a r d i L.e UXUXUXUXUXUXUXUXUXUXUXUXUXUXUX",
"UXUXUXUXUXUXUXUXUXUXUXz UXUXUXUXUXUXUXUXUXUXd UXUXUXUXUXz UXUXUXUX0X8XO i k z k z z z g p f L.L.e UXUXUXUXUXUXUXz UXUXUXUXUXUXUX",
"UXUXUXUXUXUXUXUXUXz UXz UXf UXUXUXUXUXUXUXUXUXUXUXUXUXUXUXUXUXUXUX0X8XO i O 0Xk z z z z z z L.L.e UXUXUXUXUXUXUXUXUXUXUXUXUXUXUX",
"UXUXUXUXUXUXUXUXUXUXz UXUXz UXUXUXj z UXUXUXUXUXUXl d UXUXl l UXUXeXf g eXeXeXz f z z z z f h L.hXUXUXUXUXUXUXUXz UXz UXUXUXUXUX",
"UXUXUXUXUXUXUXUXUXUXUXUXz UXUXUXh j UXUXUXUXUXUXa l d j z l l UXUXd i eXeXh d d y f z z z z z e UXUXUXUXUXUXUXUXUXUXz z UXUXUXUX",
"UXUXUXUXUXUXUXUXz UXUXz z UXUXO h g O h UXUXUXh a i O j UXl l UXUXg eXg i p a l j f z z z z z UXUXUXUXUXUXUXUXUXUXUXz z UXUXUXUX",
"UXUXUXUXUXUXz UXUXUXz UXUXUXg O O h O UXUXUXUXh f j j l UXUXUXUXUXUXUXk UXO O j f h UXz UXz i UXz UXUXUXUXUXUXUXUXUXz k UXUXUXUX",
"UXUXUXUXUXUXz UXUXUXz UXUXUXg O O O h UXUXUXUXUXj j l l d h UXUXUXUXUXUXUXUXg d UXUXUXUXUXUXUXUXz UXUXh UXUXUXUXUXz z UXUXUXUXUX",
"UXUXUXUXUXUXUXUXUXz z d UXUXg a y p UXUXUXUXUXUXUXUXl g d h l UXUXUXUXUXl z l j p O j z i i 8XUXUXUXUXh h UXUXUXUXz k UXUXUXUXUX",
"UXUXUXUXUXUXUXUXUXl l UXUXUXUXf O UXj UXUXz z UXUXk l O p O l z UXUXUXUXl z h h p O j z i 8Xj j UXUXUXl UXUXUXUXUXUXk UXUXUXUXUX",
"UXUXUXUXUXUXz z UXl k UXUXUXUXUXUXUXUXUXj z z UXUXk z z f h z z UXz z UXUXUXUXg z z z z h d a j g MXUXUXUXUXUXz UXUXUXUXUXUXUXUX",
"UXUXUXUXUXUXz z UXz k UXUXk UXUXUXUXUXUXj g UXUXUXz z j j l l UXUXz z UXl UXUXl z z z r p h h d g MXMXUXUXUXUXz z UXUXUXUXUXUXUX",
"UXUXUXUXUXz l k l l l UXUXUXUXUXUXUXUXUXUXUXeX4XUXUXeXz z z z z z z UXUXUXg d f 0X0XeXO f h d g g MXMXL.UXUXUXUXUXz UXUXUXUXUXUX",
"UXUXUXUXUXz l k k l l UXUXUXz z UXUXUXUXUX0XeX4Xg UXz z z z z z z z UXz UXUXd 0Xg 7X7X0XeXd p d d g MXL.UXUXz UXUXz UXUXUXUXUXUX",
"UXUXUXUXUXz l k l l l UXq L.z z l UXUXl g 0X4X0Xg UXUXz z z z z z UXUXUXUXUXUXUX7X0X7X7X7X0Xd g g g g MXd UXz UXUXUXUXUXUXUXUXUX",
"UXUXUXUXUXUXz z l z f q q L.g j l l l l g 0XeXh 4XUXUXUXUXz z UXUXUXUXUXUXUXUXUXUXz z g eXeXh l l l l j d g UXUXUXUXUXUXUXUXUXUX",
"UXUXUXUXUXz z l k z f q L.d O a k l l d a eXh 7X8XUXUXz z UXUXUXUXUXUXUXUXUXUXUXUXUXz z z k h l l j MXq L.g g UXUXUXUXUXUXUXUXUX",
"UXUXUXUXUXUXl k d l z q d O i f g d l d f j eX0Xl z z UXUXUXg UXUXUXUXUXUXUXUXUXUXUXz z z g z k z z z q z z z O UXUXUXUXUXUXUXUX",
"UXUXUXUXUXUXUXz UXUXz q 0 L.iXj O g z g a k z j z z z UXl UXUXUXUXUXUXUXUXUXUXUXUXUXUXl z k z z g MXMXq z z z O UXUXUXUXUXUXUXUX",
"UXUXUXUXUXUXUXUXUXUXL.q 0 0 L.k j l l z k f f j j z z k UXUXg UXUXUXUXUXUXUXUXUXUXUXUXl z k f i n 3XeXz q MXz z z UXUXUXUXUXUXUX",
"UXUXUXUXUXUXUXUXz UXUXq 4X0 $ j l UXz l f u z z z z z UXUXg g UXUXUXUXUXUXUXUXUXUXUXl UXl i n M M n 3Xz wXMXz k l UXUXUXUXUXUXUX",
"UXUXUXUXUXUXUXUXUXz z 4XM d 0 j UXUXz l h j z j z j l z z g UXUXUXUXUXUXUXUXUXUXUXUXUXUXg M rXrXtXtXyXl z z z k l UXUXUXUXUXUXUX",
"UXUXUXUXUXUXUXz z z z 8Xa a q j z UXUXUXj l l z j j z z z UXUXUXUXUXUXUXUXUXUXUXUXUXUXUXl l iXuXuXuXiXk z l z k UXUXUXUXUXUXUXUX",
"UXUXUXUXUXUXUXUXz l k a a a a g z UXz UXUXl l l l z z UXUXUXUXUXUXUXUXUXUXUXUXUXUXUXUXUXUXUXUXz z z z z l l z UXUXUXUXUXUXUXUXUX",
"UXUXUXUXUXUXUXUXUXz l M z a z z z k j UXUXUXUXUXUXUXUXUXUXUXUXUXUXUXUXUXUXUXUXUXUXUXUXUXUXUXUXUXz UXz l UXUXUXUXUXUXUXUXUXUXUXUX",
"UXUXUXUXUXUXUXUXUXt n n a M z z UXUXUXUXUXUXz z UXUXUXUXUXUXUXUXUXUXUXUX8XeXUXUXUXUXUXUXUXUXUXUXUXUXUXUXl z UXUXUXUXUXUXUXUXUXUX",
"UXUXUXUXUXUXUXUXUXUXt 8Xf n z z g g UXUXUXUXz z z UXUXUXUXUXUXUXf UXUX8X8XeXUXUXUXUXUXUXz j UXUXUXz UXUXz z UXUXUXUXUXUXUXUXUXUX",
"UXUXUXUXUXUXUXUXUXUXa z z 8Xz l z g d h UXUXz z z UXUXUXUXUXUXUXUXUX0X8Xf g UXUXUXUXUXUXz j j UXz z z z z UXUXUXUXUXUXUXUXUXUXUX",
"UXUXUXUXUXUXUXUXUXUXUXUXUXn a z z z d h UXUXUXUXUXUXk UXUXUXUXz UXUX0Xf z l UXUXUXk l UXz g j z l z UXUXUXUXUXUXUXUXUXUXUXUXUXUX",
"UXUXUXUXUXUXUXUXUXUXUXUXUXz z k g p l d z UXUXz UXUXUXUXUXUXUXz UXUXeXz z z k f g k UXUXz eXz k l UXUXk UXUXUXUXUXUXUXUXUXUXUXUX",
"UXUXUXUXUXUXUXUXUXUXUXUXUXUXz z f UXk l UXUXUXUXUXUXk UXUXUXz z z UXUXl f l k f g z UXz l z k UXUXUXk k k UXUXUXUXUXUXUXUXUXUXUX",
"UXUXUXUXUXUXUXUXUXUXUXUXUXUXUXUXUXUXh k l z z z UXz z UXf UXz l z z UXUXUXUXz f h z h z z l l g k k k k k l z UXUXUXUXUXUXUXUXUX",
"UXUXUXUXUXUXUXUXUXUXUXUXUXUXUXUXUXL.j z z l z z UXz h UXUXUXz z g j UXO g z z z z h z l j k g g j z L.L.e l z UXUXUXUXUXUXUXUXUX",
"UXUXUXUXUXUXUXUXUXUXUXUXUXUXUXUXk z z k k k l z z z h UXUXUXj g k z z z z z z k l z k z l g g j k k z z e l UXUXUXUXUXUXUXUXUXUX",
"UXUXUXUXUXUXUXUXUXUXUXUXUXUXUXUXk z z d j g l l p g z cXUXcXl j j h z z j k k k l l k O O d g h L.L.z z e UXUXUXUXUXUXUXUXUXUXUX",
"UXUXUXUXUXUXUXUXUXUXUXUXUXUXUXz cXz p d j f 0Xg z z z cXl cXd h k O h k z z z UXUXUXUXUXg g g L.L.z z cX  z UXUXUXUXUXUXUXUXUXUX",
"UXUXUXUXUXUXUXUXUXUXUXUXUXUXUXz z cXd O j f eXg f cXcXz l f a f cXd h l z h k UX8XeXz UXh k j d j z z L.UXUXk k UXUXUXUXUXUXUXUX",
"UXUXUXUXUXUXUXUXUXUXUXUXUXUXUXUXz cXg f j eXeXg h cXg cXl cXj h k h d l h f k h 8XeXz h z z d i d z L.L.UXUXk k UXUXUXUXUXUXUXUX",
"UXUXUXUXUXUXUXUXUXUXUXUXUXUXUXUXUXz z k j eXeXg h g p g l l l cXz g cXf z h k h eXeXz h k z k d k z L.cXUXz UXUXUXUXUXUXUXUXUXUX",
"UXUXUXUXUXUXUXUXUXUXUXUXUXUXUXk z f f z eXk k eXh z g z l l l cXz z f a f h k g k k z k f k z z z UXz z UXUXUXUXUXUXUXUXUXUXUXUX",
"UXUXUXUXUXUXUXUXUXUXUXUXUXUXUXz z cXf k 0XeXeXg f k cXcXl l l cXz j cXf f k z k k z z z h z L.MXUXUXz z UXUXUXUXUXUXUXUXUXUXUXUX",
"UXUXUXUXUXUXUXUXUXUXUXUXUXUXUXUXz z z z k f f h z h cXcXcXcXcXcXz   z z j j l z z z d h z L.L.L.cXUXUXUXUXUXUXUXUXUXUXUXUXUXUXUX",
"UXUXUXUXUXUXUXUXUXUXUXUXUXUXUXUXcXg cXj f h k z z cX  g z z z cX      cXj f g z z h h h h l UXUXUXUXUXUXUXUXUXUXUXUXUXUXUXUXUXUX",
"UXUXUXUXUXUXUXUXUXUXUXUXUXUXUXUXcXg g cXj k z z z cXg cX                j f g j j z g h cXUXUXUXUXUXUXUXUXUXUXUXUXUXUXUXUXUXUXUX",
"UXUXUXUXUXUXUXUXUXUXUXUXUXUXUXUXz z UXUXcXg cXcXz k k cX      sX        cXj z j j z z z UXUXUXUXUXUXUXUXUXUXUXUXUXUXUXUXUXUXUXUX",
"UXUXUXUXUXUXUXUXUXUXUXUXUXUXUXUXUXUXUXUXUXUXUXUXUXUXz z z   cXl         cXl l   k z UXUXUXUXUXUXUXUXUXUXUXUXUXUXUXUXUXUXUXUXUXUX",
"UXUXUXUXUXUXUXUXUXUXUXUXUXUXUXUXUXUXUXUXUXUXUXUXUXUXUX                            UXUXUXUXUXUXUXUXUXUXUXUXUXUXUXUXUXUXUXUXUXUXUX",
"UXUXUXUXUXUXUXUXUXUXUXUXUXUXUXUXUXUXUXUXUXUXUXUXUXUXUX                            UXUXUXUXUXUXUXUXUXUXUXUXUXUXUXUXUXUXUXUXUXUXUX",
"UXUXUXUXUXUXUXUXUXUXUXUXUXUXUXUXUXUXUXUXUXUXUXUXUXUXUX                            UXUXUXUXUXUXUXUXUXUXUXUXUXUXUXUXUXUXUXUXUXUXUX",
"UXUXUXUXUXUXUXUXUXUXUXUXUXUXUXUXUXUXUXUXUXUXUXUXUXUXUXUXUXUXUXUXUX              UXUXUXUXUXUXUXUXUXUXUXUXUXUXUXUXUXUXUXUXUXUXUXUX",
"UXUXUXUXUXUXUXUXUXUXUXUXUXUXUXUXUXUXUXUXUXUXUXUXUXUXUXUXUXUXUXUXUX              UXUXUXUXUXUXUXUXUXUXUXUXUXUXUXUXUXUXUXUXUXUXUXUX",
"UXUXUXUXUXUXUXUXUXUXUXUXUXUXUXUXUXUXUXUXUXUXUXUXUXUXUXUXUXUXUXUXUXUX          UXUXUXUXUXUXUXUXUXUXUXUXUXUXUXUXUXUXUXUXUXUXUXUXUX"
};
