/* XPM */
static char * HitlerMage_dead_xpm[] = {
"127 127 60 1",
" 	c #C12D8D",
".	c #9B0001",
"+	c #B30001",
"@	c #B90000",
"#	c #CA0000",
"$	c #EF0001",
"%	c #929201",
"&	c #9F9F01",
"*	c #830001",
"=	c #430001",
"-	c #6B6B01",
";	c #878701",
">	c #636301",
",	c #350001",
"'	c #2B230F",
")	c #434301",
"!	c #AA0000",
"~	c #7C7C01",
"{	c #5C5C01",
"]	c #535301",
"^	c #3D3D01",
"/	c #323201",
"(	c #83532F",
"_	c #373737",
":	c #2F2F2F",
"<	c #232323",
"[	c #1F1F1F",
"}	c #282828",
"|	c #0F0001",
"1	c #6F0001",
"2	c #252525",
"3	c #1D1D1D",
"4	c #151515",
"5	c #0D0D0D",
"6	c #1B1B1B",
"7	c #000000",
"8	c #8A0000",
"9	c #A70001",
"0	c #790000",
"a	c #570001",
"b	c #630001",
"c	c #770001",
"d	c #840000",
"e	c #950000",
"f	c #4B0001",
"g	c #191919",
"h	c #121212",
"i	c #272727",
"j	c #292901",
"k	c #1F1F01",
"l	c #330001",
"m	c #2B0001",
"n	c #220001",
"o	c #3C0001",
"p	c #676767",
"q	c #5B5B5B",
"r	c #737373",
"s	c #434343",
"t	c #4B4B4B",
"u	c #575757",
"                                                                                                                               ",
"                                                                                                                               ",
"                                                                                                                               ",
"                                                                                                                               ",
"                                                                                                                               ",
"                                                                                                                               ",
"                                                                                                                               ",
"                                                                                                                               ",
"                                                                                                                               ",
"                                                                                                                               ",
"                                                                                                                               ",
"                                                                                                                               ",
"                                                                                                                               ",
"                                                                                                                               ",
"                                                                                                                               ",
"                                                                                                                               ",
"                                                                                                                               ",
"                                                                                                                               ",
"                                                                                                                               ",
"                                                                                                                               ",
"                                                                                                                               ",
"                                                                                                                               ",
"                                                                                                                               ",
"                                                                                                                               ",
"                                                                                                                               ",
"                                                                                                                               ",
"                                                                                                                               ",
"                                                                                                                               ",
"                                                                                                                               ",
"                                                                                                                               ",
"                                                                                                                               ",
"                                                                                                                               ",
"                                                                                                                               ",
"                                                                                                                               ",
"                                                                                                                               ",
"                                                                                                                               ",
"                                                                                                                               ",
"                                                                                                                               ",
"                                                                                                                               ",
"                                                                                                                               ",
"                                                                                                                               ",
"                                                                                                                               ",
"                                                                                                                               ",
"                                                                                                                               ",
"                                                                                                                               ",
"                                                                                                                               ",
"                                                                                                                               ",
"                                                                                                                               ",
"                                                                                                                               ",
"                                                                                                                               ",
"                                                                                                                               ",
"                                                                                                                               ",
"                                                                                                                               ",
"                                                                                                                               ",
"                                                                                                                               ",
"                                                                                                                               ",
"                                                                                                                               ",
"                                                                                                                               ",
"                                                                                                                               ",
"                                                                                                                               ",
"                                                                                                                               ",
"                                                                                                                               ",
"                                                                                                                               ",
"                                                                                                                               ",
"                                                                                                                               ",
"                                                                                                                               ",
"                                                                                                                               ",
"                                                                                                                               ",
"                                                                                                                               ",
"                                                                                                                               ",
"                                                                                                                               ",
"                                                                                                                               ",
"                                                                                                                               ",
"                                                                                                                               ",
"                                                                                                                               ",
"                                                                                                                               ",
"                                                                                                                               ",
"                                                                                                                               ",
"                                                                                                                               ",
"                                                                                                                               ",
"                                                                                                                               ",
"                                                                                                                               ",
"                                                                                                                               ",
"                                                                                                                               ",
"                                                                                                                               ",
"                                                                                                                               ",
"                                                                                                                               ",
"                                                                                                                               ",
"                                                                                                                               ",
"                                                                                                                               ",
"                                                                                                                               ",
"                                                                                                                               ",
"                                                                                                                               ",
"                                                                                                                               ",
"                                                                                                                               ",
"                                                                                                                               ",
"                                                                                                                               ",
"                                                         ..+@#$$$#@%&&&&&&%**.=====                                            ",
"                                                        **.++@#$#-;;;%&&%;;>-=,'))'=                                           ",
"                           !+++..~~--{{])^/            ((;%&%;;;;;----------{>{)'')==                                          ",
"                         ...!!!%;~-{{]]]])/__        )]]]-;%;----------------{>{)')==                                          ",
"                        ...;&&%;-]]:___________<<   ))))]**(())))_________:<[))){)'==                                          ",
"                       .*;&&&%;-]:___________:::}[<[[[[[[[[''//'<:::::::::}<[[[))''||                                          ",
"                       *1;;;;~~]]::::::::::::}}}2<[[[[[[[[[33334'55443[<}}<[[[[[[[64|||                                        ",
"                      **-~~;~--]}::::::::::}}2222<<[[[[[[[3444455775543[<<[[[[[[[[[64|77                                       ",
"                      **>-----{]<}}}}}}}}<<899999999980111a5555==aabbccccde99edc1ba==|777                                      ",
"                      *1]]>--{])/[<<<<<<[ccc888888888001aaaf====aaaabbcccddeeddcc1baa==777                                     ",
"                      *=)))))))))[[[[[[cccc1baaaaaaaafffffff====a77777777777777==bbbbaa===7                                    ",
"                       ,=))))))))4ggggccc11baffffffffffffff=====77777777777777777==bbba==777                                   ",
"                        ,=////////4441c11bbaa==|5h[<<::::::::::i[=a1de9ed1a77777777777777777                                   ",
"                         ,=jjjjjjjj41111bba==|75h4g[[iiiiiiiiiiii[111dd1111a77777777777777777                                  ",
"                          ,,kkkkkkkk111bbaa=775h4g[[[[[[[[[[[[[[[[=aaaaaaaa=777777777777777777                                 ",
"                           =77777777=bbaa==77775hhh444444444444444l========l77777777777777777777                               ",
"                         7777=======777777777777555hhhhhhhhhhhhhhhmllllllllm777777nl===o,77777777                              ",
"                        7777=aaaaaa=m7777777777777755555555555555||mmmmmmmm777777nll=ab=o,77777777                             ",
"                       77777abccbbba=lmn777777777777777777777777777777777777777777nml=ab=oo77777777pqpprrrp                    ",
"                      77777=accccbba==lmn777777777777777777777777777777777777777777nml=a=o,777777777ssstuqprp                  ",
"                      77777=abbbbaaa=ln777777777777777777777777777777777777777777777nm==o,7777777777::::_stqpr                 ",
"                      77777==aaaaaa=lm77777777777777777777777777777777777777777777777nlo,77777777777<<<<<<:stqr                ",
"                      77777777777==lmn77777777777777777777777777777777777777777777777777777777777777[[[[[[<:_sup               ",
"                       777777777777mn77777777777777777777777777777777777777777777777777777777777777[[[[[[[<::_tqr              ",
"                        7777777777777777777774h77777777777777777777777777777777777777777777777777<[[[[[[[[<<:_tqr              ",
"                         77777777777777777777h5777777777777777777777777777777777777777777777777<<[[[[[[[[[<::_tqr              ",
"                             77777777777777777777777777777777777777777777777777777777777777<<<<<<[[[[[<<<<::_stp               ",
"                               7777777777777777777777777777777777777777777777777777777777:<<<<<<<<<<::::::_stuqr               ",
"                                     77777777777777777777777777777777777777777777_______::<<<<<<::____ssssttqpr                ",
"                                       7777777777777777777777777777777777777777s_________:::::__ssttuuuuuqqprp                 "};
