/* XPM */
static char *result[] = {
/* columns rows colors chars-per-pixel */
"126 128 89 1 ",
"  c black",
". c #000001",
"X c #00001F",
"o c gray9",
"O c gray12",
"+ c #2B0001",
"@ c #2B230F",
"# c #3B2F17",
"$ c #202020",
"% c #232323",
"& c #282828",
"* c #2C2C2C",
"= c #2F2F2F",
"- c #313131",
"; c gray22",
": c gray23",
"> c #430001",
", c #4B0001",
"< c #570001",
"1 c #630001",
"2 c #6F0001",
"3 c #770001",
"4 c #43331B",
"5 c #4B3B1B",
"6 c #573F1F",
"7 c #5F4323",
"8 c #6F4B27",
"9 c #774F2B",
"0 c #430043",
"q c #004343",
"w c #005B5B",
"e c #007373",
"r c gray25",
"t c #484848",
"y c #4B4B4B",
"u c gray34",
"i c #676767",
"p c gray45",
"a c gray50",
"s c #830001",
"d c #8F0001",
"f c #9F0001",
"g c #A70001",
"h c #B30001",
"j c #BF0001",
"k c #CB0001",
"l c #D70001",
"z c #E30001",
"x c #EF0001",
"c c #FF0001",
"v c #9F4F01",
"b c #B75701",
"n c #83532F",
"m c #8B5B33",
"M c #935F37",
"N c #9F633B",
"B c #A3673F",
"V c #CF6301",
"C c #E76F01",
"Z c #AB6B43",
"A c #B77347",
"S c #BF7B4B",
"D c #F35353",
"F c #CB7F4F",
"G c #D38353",
"H c #DF8B57",
"J c #FF9B43",
"K c #EB8F5B",
"L c #F3975F",
"P c #FF9F63",
"I c #FFA773",
"U c #C12D8D",
"Y c #008787",
"T c gray56",
"R c #9B9B9B",
"E c gray67",
"W c #B7B7B7",
"Q c #FFB383",
"! c #FFBB93",
"~ c #FFBF9F",
"^ c #FFC7A7",
"/ c #FFCFB3",
"( c #FFD7BF",
") c #C3C3C3",
"_ c #DFDFDF",
"` c #FFDBC7",
"' c #FFE3D3",
"] c #FFEBDF",
"[ c #EFEFEF",
/* pixels */
"UUUUUUUUUUUUUUUUUUUUUUUUUUUUUUUUUUUUUUUUUUUUUUUUUUUUUUUUUUUUUUUUUUUUUUUUUUUUUUUUUUUUUUUUUUUUUUUUUUUUUUUUUUUUUUUUUUUUUUUUUUUUUU",
"UUUUUUUUUUUUUUUUUUUUUUUUUUUUUUUUUUUUUUUUUUUUUUUUUUUUUUUUUUUUUUUUUUUUUUUUUUUUUUUUUUUUUUUUUUUUUUUUUUUUUUUUUUUUUUUUUUUUUUUUUUUUUU",
"UUUUUUUUUUUUUUUUUUUUUUUUUUUUUUUUUUUUUUUUUUUUUUUUUUUUUUUUUUUUUUUUUUUUUUUUUUUUUUUUUUUUUUUUUUUUUUUUUUUUUUUUUUUUUUUUUUUUUUUUUUUUUU",
"UUUUUUUUUUUUUUUUUUUUUUUUUUUUUUUUUUUUUUUUUUUUUUUUUUUUUUUUUUUUUUUUUUUUUUUUUUUUUUUUUUUUUUUUUUUUUUUUUUUUUUUUUUUUUUUUUUUUUUUUUUUUUU",
"UUUUUUUUUUUUUUUUUUUUUUUUUUUUUUUUUUUUUUUUUUUUUUUUUUUUUUUUUUUUUUUUUUUUUUUUUUUUUUUUUUUUUUUUUUUUUUUUUUUUUUUUUUUUUUUUUUUUUUUUUUUUUU",
"UUUUUUUUUUUUUUUUUUUUUUUUUUUUUUUUUUUUUUUUUUUUUUUUUUUUUUUUUUUUUUUUUUUUUUUUUUUUUUUUUUUUUUUUUUUUUUUUUUUUUUUUUUUUUUUUUUUUUUUUUUUUUU",
"UUUUUUUUUUUUUUUUUUUUUUUUUUUUUUUUUUUUUUUUUUUUUUUUUUUUUUUUUUUUUUUUUUUUUUUUUUUUUUUUUUUUUUUUUUUUUUUUUUUUUUUUUUUUUUUUUUUUUUUUUUUUUU",
"UUUUUUUUUUUUUUUUUUUUUUUUUUUUUUUUUUUUUUUUUUUUUUUUUUUUUUUUUUUUUUUUUUUUUUUUUUUUUUUUUUUUUUUUUUUUUUUUUUUUUUUUUUUUUUUUUUUUUUUUUUUUUU",
"UUUUUUUUUUUUUUUUUUUUUUUUUUUUUUUUUUUUUUUUUUUUUUUUUUUUUUUUUUUUUUUUUUUUUUUUUUUUUUUUUUUUUUUUUUUUUUUUUUUUUUUUUUUUUUUUUUUUUUUUUUUUUU",
"UUUUUUUUUUUUUUUUUUUUUUUUUUUUUUUUUUUUUUUUUUUUUUUUUUUUUUUUUUUUUUUUUUUUUUUUUUUUUUUUUUUUUUUUUUUUUUUUUUUUUUUUUUUUUUUUUUUUUUUUUUUUUU",
"UUUUUUUUUUUUUUUUUUUUUUUUUUUUUUUUUUUUUUUUUUUUUUUUUUUUUUUUUUUUUUUUUUUUUUUUUUUUUUUUUUUUUUUUUUUUUUUUUUUUUUUUUUUUUUUUUUUUUUUUUUUUUU",
"UUUUUUUUUUUUUUUUUUUUUUUUUUUUUUUUUUUUUUUUUUUUUUUUUUUUUUUUUUUUUUUUUUUUUUUUUUUUUUUUUUUUUUUUUUUUUUUUUUUUUUUUUUUUUUUUUUUUUUUUUUUUUU",
"UUUUUUUUUUUUUUUUUUUUUUUUUUUUUUUUUUUUUUUUUUUUUUUUUUUUUUUUUUUUUUUUUUUUUUUUUUUUUUUUUUUUUUUUUUUUUUUUUUUUUUUUUUUUUUUUUUUUUUUUUUUUUU",
"UUUUUUUUUUUUUUUUUUUUUUUUUUUUUUUUUUUUUUUUUUUUUUUUUUUUUUUUUUUUUUUUUUUUUUUUUUUUUUUUUUUUUUUUUUUUUUUUUUUUUUUUUUUUUUUUUUUUUUUUUUUUUU",
"UUUUUUUUUUUUUUUUUUUUUUUUUUUUUUUUUUUUUUUUUUUUUUUUUUUUUUUUUUUUUUUUUUUUUUUUUUUUUUUUUUUUUUUUUUUUUUUUUUUUUUUUUUUUUUUUUUUUUUUUUUUUUU",
"UUUUUUUUUUUUUUUUUUUUUUUUUUUUUUUUUUUUUUUUUUUUUUUUUUUUUUUUUUUUUUUUUUUUUUUUUUUUUUUUUUUUUUUUUUUUUUUUUUUUUUUUUUUUUUUUUUUUUUUUUUUUUU",
"UUUUUUUUUUUUUUUUUUUUUUUUUUUUUUUUUUUUUUUUUUUUUUUUUUUUUUUUUUUUUUUUUUUUUUUUUUUUUUUUUUUUUUUUUUUUUUUUUUUUUUUUUUUUUUUUUUUUUUUUUUUUUU",
"UUUUUUUUUUUUUUUUUUUUUUUUUUUUUUUUUUUUUUUUUUUUUUUUUUUUUUUUUUUUUUUUUUUUUUUUUUUUUUUUUUUUUUUUUUUUUUUUUUUUUUUUUUUUUUUUUUUUUUUUUUUUUU",
"UUUUUUUUUUUUUUUUUUUUUUUUUUUUUUUUUUUUUUUUUUUUUUUUUUUUUUUUUUUUUUUUUUUUUUUUUUUUUUUUUUUUUUUUUUUUUUUUUUUUUUUUUUUUUUUUUUUUUUUUUUUUUU",
"UUUUUUUUUUUUUUUUUUUUUUUUUUUUUUUUUUUUUUUUUUUUUUUUUUUUUUUUUUUUUUUUUUUUUUUUUUUUUUUUUUUUUUUUUUUUUUUUUUUUUUUUUUUUUUUUUUUUUUUUUUUUUU",
"UUUUUUUUUUUUUUUUUUUUUUUUUUUUUUUUUUUUUUUUUUUUUUUUUUUUUUUUUUUUUUUUUUUUUUUUUUUUUUUUUUUUUUUUUUUUUUUUUUUUUUUUUUUUUUUUUUUUUUUUUUUUUU",
"UUUUUUUUUUUUUUUUUUUUUUUUUUUUUUUUUUUUUUUUUUUUUUUUUUUUUUUUUUUUUUUUUUUUUUUUUUUUUUUUUUUUUUUUUUUUUUUUUUUUUUUUUUUUUUUUUUUUUUUUUUUUUU",
"UUUUUUUUUUUUUUUUUUUUUUUUUUUUUUUUUUUUUUUUUUUUUUUUUUUUUUUUUUUUUUUUUUUUUUUUUUUUUUUUUUUUUUUUUUUUUUUUUUUUUUUUUUUUUUUUUUUUUUUUUUUUUU",
"UUUUUUUUUUUUUUUUUUUUUUUUUUUUUUUUUUUUUUUUUUUUUUUUUUUUUUUUUUUUUUUUUUUUUUUUUUUUUUUUUUUUUUUUUUUUUUUUUUUUUUUUUUUUUUUUUUUUUUUUUUUUUU",
"UUUUUUUUUUUUUUUUUUUUUUUUUUUUUUUUUUUUUUUUUUUUUUUUUUUUUUUUUUUUUUUUUUUUUUUUUUUUUUUUUUUUUUUUUUUUUUUUUUUUUUUUUUUUUUUUUUUUUUUUUUUUUU",
"UUUUUUUUUUUUUUUUUUUUUUUUUUUUUUUUUUUUUUUUUUUUUUUUUUUUUUUUUUUUUUUUUUUUUUUUUUUUUUUUUUUUUUUUUUUUUUUUUUUUUUUUUUUUUUUUUUUUUUUUUUUUUU",
"UUUUUUUUUUUUUUUUUUUUUUUUUUUUUUUUUUUUUUUUUUUUUUUUUUUUUUUUUUUUUUUUUUUUUUUUUUUUUUUUUUUUUUUUUUUUUUUUUUUUUUUUUUUUUUUUUUUUUUUUUUUUUU",
"UUUUUUUUUUUUUUUUUUUUUUUUUUUUUUUUUUUUUUUUUUUUUUUUUUUUUUUUUUUUUUUUUUUUUUUUUUUUUUUUUUUUUUUUUUUUUUUUUUUUUUUUUUUUUUUUUUUUUUUUUUUUUU",
"UUUUUUUUUUUUUUUUUUUUUUUUUUUUUUUUUUUUUUUUUUUUUUUUUUUUUUUUUUUUUUUUUUUUUUUUUUUUUUUUUUUUUUUUUUUUUUUUUUUUUUUUUUUUUUUUUUUUUUUUUUUUUU",
"UUUUUUUUUUUUUUUUUUUUUUUUUUUUUUUUUUUUUUUUUUUUUUUUUUUUUUUUUUUUUUUUUUUUUUUUUUUUUUUUUUUUUUUUUUUUUUUUUUUUUUUUUUUUUUUUUUUUUUUUUUUUUU",
"UUUUUUUUUUUUUUUUUUUUUUUUUUUUUUUUUUUUUUUUUUUUUUUUUUUUUUUUUUUUUUUUUUUUUUUUUUUUUUUUUUUUUUUUUUUUUUUUUUUUUUUUUUUUUUUUUUUUUUUUUUUUUU",
"UUUUUUUUUUUUUUUUUUUUUUUUUUUUUUUUUUUUUUUUUUUUUUUUUUUUUUUUUUUUUUUUUUUUUUUUUUUUUUUUUUUUUUUUUUUUUUUUUUUUUUUUUUUUUUUUUUUUUUUUUUUUUU",
"UUUUUUUUUUUUUUUUUUUUUUUUUUUUUUUUUUUUUUUUUUUUUUUUUUUUUUUUUUUUUUUUUUUUUUUUUUUUUUUUUUUUUUUUUUUUUUUUUUUUUUUUUUUUUUUUUUUUUUUUUUUUUU",
"UUUUUUUUUUUUUUUUUUUUUUUUUUUUUUUUUUUUUUUUUUUUUUUUUUUUUUUUUUUUUUUUUUUUUUUUUUUUUUUUUUUUUUUUUUUUUUUUUUUUUUUUUUUUUUUUUUUUUUUUUUUUUU",
"UUUUUUUUUUUUUUUUUUUUUUUUUUUUUUUUUUUUUUUUUUUUUUUUUUUUUUUUUUUUUU:UUUUUUUUUUUUUUUUUUUUUUUUUUUUUUUUUUUUUUUUUUUUUUUUUUUUUUUUUUUUUUU",
"UUUUUUUUUUUUUUUUUUUUUUUUUUUUUUUUUUUUUUUUUUUUUUUUUUUUUUUUUUUUUU-*UUUUUUUUUUUUUUUUUUUUUUUUUUUUUUUUUUUUUUUUUUUUUUUUUUUUUUUUUUUUUU",
"UUUUUUUUUUUUUUUUUUUUUUUUUUUUUUUUUUUUUUUUUUUUUUUUUUUUUUUUUUUUU:-*$UUUUUUUUUUUUUUUUUUUUUUUUUUUUUUUUUUUUUUUUUUUUUUUUUUUUUUUUUUUUU",
"UUUUUUUUUUUUUUUUUUUUUUUUUUUUUUUUUUUUUUUUUUUUUUUUUUUUUUUUUUUU:-&OO$UU*UUUUUUUUUUUUUUUUUUUUUUUUUUUUUUUUUUUUUUUUUUUUUUUUUUUUUUUUU",
"UUUUUUUUUUUUUUUUUUUUUUUUUUUUUUUUUUUUUUUUUUUUUUUUUUUUUUUUU::-*&OOoo$U*UUUUUUUUUUUUUUUUUUUUUUUUUUUUUUUUUUUUUUUUUUUUUUUUUUUUUUUUU",
"UUUUUUUUUUUUUUUUUUUUUUUUUUUUUUUUUUUUUUUUUUUUUUUUUU:UUtr::-*&OOOoooO$*UUUUUUUUUUUUUUUUUUUUUUUUUUUUUUUUUUUUUUUUUUUUUUUUUUUUUUUUU",
"UUUUUUUUUUUUUUUUUUUUUUUUUUUUUUUUUUUUUUUUUUUUUUUUUUUtt:::-*&OOOooooO**$UUUUUUUUUUUUUUUUUUUUUUUUUUUUUUUUUUUUUUUUUUUUUUUUUUUUUUUU",
"UUUUUUUUUUUUUUUUUUUUUUUUUUUUUUUUUUUUUUUUUUUUUUUUUUUr:-*I'^IIIGBBBmn$$*$UUUUUUUUUUUUUUUUUUUUUUUUUUUUUUUUUUUUUUUUUUUUUUUUUUUUUUU",
"UUUUUUUUUUUUUUUUUUUUUUUUUUUUUUUUUUUUUUUUUUUUUUUUUUU;*S/]'^^!!!PGKKBB6$*UUUUUUUUUUUUUUUUUUUUUUUUUUUUUUUUUUUUUUUUUUUUUUUUUUUUUUU",
"UUUUUUUUUUUUUUUUUUUUUUUUUUUUUUUUUUUUUUUUUUUUUUUUUU;-8S!!/^PP((PKPKKKB#-*UUUUUUUUUUUUUUUUUUUUUUUUUUUUUUUUUUUUUUUUUUUUUUUUUUUUUU",
"UUUUUUUUUUUUUUUUUUUUUUUUUUUUUUUUUUUUUUUUUUUUUUUUUU;*NG`''(]!//!]'((~Hn:*UUUUUUUUUUUUUUUUUUUUUUUUUUUUUUUUUUUUUUUUUUUUUUUUUUUUUU",
"UUUUUUUUUUUUUUUUUUUUUUUUUUUUUUUUUUUUUUUUUUUUUUUUUU;*NLANNAH!KK!HANNAGn-*UUUUUUUUUUUUUUUUUUUUUUUUUUUUUUUUUUUUUUUUUUUUUUUUUUUUUU",
"UUUUUUUUUUUUUUUUUUUUUUUUUUUUUUUUUUUUUUUUUUUUUUUUUU-*NLIG999SBBS999GIGN*$UUUUUUUUUUUUUUUUUUUUUUUUUUUUUUUUUUUUUUUUUUUUUUUUUUUUUU",
"UUUUUUUUUUUUUUUUUUUUUUUUUUUUUUUUUUUUUUUUUUUUUUUUUU*$NGGg%%y%HH%y%%gvKN*$UUUUUUUUUUUUUUUUUUUUUUUUUUUUUUUUUUUUUUUUUUUUUUUUUUUUUU",
"UUUUUUUUUUUUUUUUUUUUUUUUUUUUUUUUUUUUUUUUUUUUUUUUUU$$S^bg[mmG^^Gma^^^IG$$UUUUUUUUUUUUUUUUUUUUUUUUUUUUUUUUUUUUUUUUUUUUUUUUUUUUUU",
"UUUUUUUUUUUUUUUUUUUUUUUUUUUUUUUUUUUUUUUUUUUUUUUUUUA$I]gb^^GB99BG^^(]]G$AUUUUUUUUUUUUUUUUUUUUUUUUUUUUUUUUUUUUUUUUUUUUUUUUUUUUUU",
"UUUUUUUUUUUUUUUUUUUUUUUUUUUUUUUUUUUUUUUUUUUUUUUUUUmM^/g(GGm9669mGL(`^^MAUUUUUUUUUUUUUUUUUUUUUUUUUUUUUUUUUUUUUUUUUUUUUUUUUUUUUU",
"UUUUUUUUUUUUUUUUUUUUUUUUUUUUUUUUUUUUUUUUUUUUUUUUUUmGQPg(LL866668BL(IPQGmUUUUUUUUUUUUUUUUUUUUUUUUUUUUUUUUUUUUUUUUUUUUUUUUUUUUUU",
"UUUUUUUUUUUUUUUUUUUUUUUUUUUUUUUUUUUUUUUUUUUUUUUUUUASGSK(LFn%==%MFL(KSGSmUUUUUUUUUUUUUUUUUUUUUUUUUUUUUUUUUUUUUUUUUUUUUUUUUUUUUU",
"UUUUUUUUUUUUUUUUUUUUUUUUUUUUUUUUUUUUUUUUUUUUUUUUUUAMSSK(LH8....nHL(KSSMAUUUUUUhUUUUUUUUUUUUUUUUUUUUUUUUUUUUUUUUUUUUUUUUUUUUUUU",
"UUUUUUUUUUUUUUUUUUUUUUUUUUUUUUUUUUUUUUUUUUUUUUUUUUUMZNK^LPuaRRauPL^KNZMUUUUUUUUUUUUUhUUUUUUUUUUUUUUUUUUUUUUUUUUUUUUUUUUUUUUUUU",
"UUUUUUUUUUUUUUUUUUUUUUUUUUUUUUUUUUUUUUUUUUhUUUlUUUUnNNH^LPu    uPL^HNNnUUUUUUUUhUUUUUUUUUUUUUUUUUUUUUUUUUUUUUUUUUUUUUUUUUUUUUU",
"UUUUUUUUUUUUUUUUUUUUUUUUUUUUUUUUUUUUUUUUUUUUUUUlUUU8mmGQLP     hVLQGmm8UUUUUUUUUUUhUUUUUUUUUUUUUUUUUUUUUUUUUUUUUUUUUUUUUUUUUUU",
"UUUUUUUUUUUUUUUUUUUUUUUUUUUUUUUUUUUUUUUUfUUUUhUUUUUU8mGQLP     lVLQGm8UUUUUUUUUUUUUUhUUUUUUUUUUUUUUUUUUUUUUUUUUUUUUUUUUUUUUUUU",
"UUUUUUUUUUUUUUUUUUUUUUUUUUUUUUUUUUUUUUUUUUUUUUUUUUkk4mGQLL 1shhlbLQGm4nncc77ccUUjjUUUUUUUjUUUUUUUUUUUUUUUUUUUUUUUUUUUUUUUUUUUU",
"UUUUUUUUUUUUUUUUUUUUUUUUUUUUUUUUUUhUUUUUUUUUghlUgUkk4nGPLGlVxVxllVPGn4nncc77ssUUjjhUUUUUUjUUUUhUUUUUUUUUUUUUUUUUUUUUUUUUUUUUUU",
"UUUUUUUUUUUUUUUUUUUUUUUUUUUUUUUUUUUUUfUUUUUUghhh==  4nALFvdvnjggkxVFn45511,,dddd99UUUUUUUUUUUUUUUUUUUUUUUUUUUUUUUUUUUUUUUUUUUU",
"UUUUUUUUUUUUUUUUUUUUUUUUUUUUUUUUUUUUUUUUUUUggUhhh=  4nNKHvdbFjdAkxvAn45511,,dddd99UUUUUUUUUUUUUUUUUUUUUUUUUUUUUUUUUUUUUUUUUUUU",
"UUUUUUUUUUUUUUUUUUUUUUUUUUUUUUUUhUUUUUUjfUhhsssslh  @8NGHxVbFVzcVxjv8@,,,,kksccsggmmcchhUUUUUUUUUUUUUUUUUUUUUUUUUUUUUUUUUUUUUU",
"UUUUUUUUUUUUUUUUUUUUUUUUUUUUUUUUUUUUUUjjUUhhsssshh  @@@NGxNm99kzKkjv@@,,,,kscchsggmmcchhUUUUUUUUUUUUUUUUUUUUUUUUUUUUUUUUUUUUUU",
"UUUUUUUUUUUUUUUUUUUUUUUUUUUhUUUUUUUUUUxxss5555fh%lhh @@@NNm9999kNs@@@ 1111,shsss,,mmss9977>>UUUUUUUUUUUUUUUUUUUUUUUUUUUUUUUUUU",
"UUUUUUUUUUUUUUUUUUUUUUUUUUUUUUUUUUUUUUxxssBB55hhh%hl  a@479999997@@@  1111,,ddhh,,mmss9977>>UUUUjUUUUUUUUUUUUUUUUUUUUUUUUUUUUU",
"UUUUUUUUUUUUUUUUUUUUUUUUUUUUjjUUUUsshhnnmm88sg%%ghlgggkk,,AA~~Dj33,,,,ddss,,kkggllllggss77xx33UUUUUUUUUUUUUUUUUUUUUUUUUUUUUUUU",
"UUUUUUUUUUUUUUUUUUUUUUUhUUUUjjUUUUsn88nn88ssss%llglgggkk,,AA~~Dj33,,,,ddss,,kkgglllmggss77xx33UUUUUUUUUUUUUUUUUUUUUUUUUUUUUUUU",
"UUUUUUUUUUUUUUUUUUUUUUUUUUUUUUUUzz8Bnxddsssskk>ghgsuiTTDcc,g~~~DDDhh,,kk33gghhhh,,mmssssNNhnnnhhUUUUUUUUUUUUUUUUUUUUUUUUUUUUUU",
"UUUUUUUUUUUUUUUUUUUUUUUUUUUUUUUUzzBBxxzdsssskkg>gguDDRccccg,J~~~DDhh,,kk33gghhhh,,hhssssNNhhNNhhUhUUUUUUUUUUUUUUUUUUUUUUUUUUUU",
"UUUUUUUUUUUUUUUUUUUUUUUUUUUUUUhhsshhsssszzhh,,gghuEDDccuhh3J__RRDD%%,,__EEff33,,xx,,,,,,NNhhnh99UUUhjjUUUUUUUUUUUUUUUUUUUUUUUU",
"UUUUUUUUUUUUUUUUUUUUUUUUUUUUUhhhsshhszsssshz,,gguE_pcckkhhJ__pRRDD%%,,__EEff33,,dx,dd,,,NNhhhhn9UUUUjjUUUUUUUUUUUUUUUUUUUUUUUU",
"UUUUUUUUUUUUUUUUUUUUUUUhUUUUUUAAffzf1z>>hhxzch,uEEpDJk,,3J__pyffyy,,kkkkccDDff,,,,xxhhxxddxjgg33sshUUUUUUUUUUUUUUUUUUUUUUUUUUU",
"UUUUUUUUUUUUUUUUUUUUfUUUUUUUUUAAfzff11>>hhxxch,uEpuDkk,,J__pyyffyy,,kkkkccDDff,d,,dddhxdddxxgg33ssUUUUUUUUUUUUUUUUUUUUUUUUUUUU",
"UUUUUUUUUUUUUUUUUUUUUUUUfUhhhss3ssss>>>>,,hccch=u==lJJDC__py::::pE____)pddkkgg33  ,,dd,,,,ddxxdd,,ssssssUUUUUUUUUUUUUUUUUUUUUU",
"UUUUUUUUUUUUUUUUUUUUUUUUUUkhsd33ssss>>>>,,hcccch==llJ,DC_pyy:::::pRREW)))dkkgg33d d,dd,d,,ddjxdd,,ssssssUUUUUUUUUUUUUUUUUUUUUU",
"UUUUUUUUUUUUUUUUUUcUUUUUffhssshhss,,,,,,,,kccccccczlDDyyff>>cc>>%%::yppREEddggcc  ,,,,d,,,,,gg,,ssssssUUUUssUUUUUUUUUUUUUUUUUU",
"UUUUUUUUUUUUUUUUUUcUUUUUffssdshhss,,,,,,,,kccccccllsDDyyff>>cc>>%%%%:yyypE)dgghc  ,d,,d,,,,,gg,,sjjjjsUUUUssUUUUUUUUUUUUUUUUUU",
"UUUUUUUUUUUUUUUUUUUUUUUUUUUUBB,,11,,<<,,,,kccccczlss::,,>>>>>>>>%%%%ff::yyDDdd3333,,,,hh,,11,,ffhhhhkkksUUUUUUjUsUUUUUUUUUUUUU",
"UUUUUUUUUUUUUUUUUUUjddUUUUUUBB,,11,,<<,,,,kkcccclsss::,,>>>>>>>>%%%%ff::yyDDdd3333,,,,hh,,11,,ffhhhhcckjUUUUUUjjUUUUUUUUUUUUUU",
"UUUUUUUUUUUUUUUUUUUUUUccUUUUUU,,ffssss,,,,skzzzzlsyy,,ff>>55mmkkff0000>>ccyy,,3311UUhhcchhdd,,ggzjzzzzjkssUU9UUUUUUUUUUUUUUUUU",
"UUUUUUUUUUUUUUUUUUUUUUccUUUUUU,,ffssss,,,,skzzllssyy,,ff>>55HHkkff0000>>chyy,,3311UUhhcchhdd,,jjzgzjzzzzksU97UUUUUUUUUUUUUUUUU",
"UUUUUUUUUUUUUUjUddUUUUUUzzzzzzzzhh,,hh,,,,skllhdssdd>>>>nnMM55AAff555555>>,,33ffddUUU,hh,,ffggjzzg55gjzzzz97UUUUUUUUUUUUUUUUUU",
"UUUUUUUUUUUUUUUUUUUUUUUUzzzzzzzzhh,,hh,,,Uskllgdssdd>>>>nnMM55AAffMMM555>>,,33ffddUUU,hh,,ffggzzgd5Mgggzzz76UUUUUUUUUUUUUUUUUU",
"UUUUUUUUUUUUUUUUUUUUUUUUzzhhddhhzzhhxx,,UUhklh<<ddffjjddnn77,,AAff5577755555,,hhffUUUU,,,,hh4444dd5Mddgdzg6UjjUUUUUUUUjjUUUUUU",
"UUUUUUUUUUUUUUUUUUUUUUUUzzhhddhhzzhhxx,,UUhhlg<<ddffjjddnn77,,AAff5577777454,,hhffUUUU,,,,hh4599dd5Mddddg76UjUUUUUUUUUjjUUUUUU",
"UUUUUUUUUUUUjjUUUUUUUUzzdd9977666hhhxx,,UUllg<ddxxxxkkdg,,nnHHkkHHHHZ775544,,,33hkkUUUU,UUzz49ccMM99zz66776UUUUUUUUUUUUUUUUUUU",
"UUUUUUUUUUUUjUUUUUUUUUzzdd99999766hdxx,,UUlhg<ddxxxxkkdg,,nnmmmkmmm75755,,,,,,33ckkUUUU,UUzz49ccMM99zz66766UUUUUUUUUUUUUUUUUUU",
"UUUUUUUUUUUUUUUUUUUUUUzz99zz99997666hh,,UUhhffllkkkkkkdg++kk33,z555555ffffx333ffcckfUUU,UU447MMM9999ff7766UUUUUUUUUUUUUUUUUUUU",
"UUUUUUUUUUUUUUUUUUUUUUzz99zz99999766hh,,UUhhffllkkkkkkdg++kks1,z2,,,ssffffx333ffcckfUUU,U799MMMM9999ff7766UUUUUUUUUUUUUUUUUUUU",
"UUUUUUUUUUUUUUUUUjUUUUUMM999jjggggzzh6hh,U33sskkffkkkkdg++kks12z23<<<<kkhhxdkkggkzcckkss44cchhggfd55887766zUUUUUUUjjUUUUUUUUUU",
"UUUUUUUUUUUUUUUUUjUUUUMMM999jjggggzz66hh,U3hsskkffkkkkdg++kks12z23<<<<kkhhxdkkgg3kcckkss44cchhggfds3287766zzUUUUUUjUUUUUUUUUUU",
"UUUUUUUUUUUUUUUUU3UUUUzz99jjjjgggg33336h,,llffkkffkkkkdg++kks12z23<<<<kkhhxdkkkkgg33ddNNjjggggggfds321<566UUUUUUUUUUUUUUUUUUUU",
"UUUUUUUUUUUUUUUUU3UUUUzz99jjjjgggg333366,,llffkkffkkkkdg++kks12z23<<<<kkhhxdkkkkgg33ddNNjjggggggfds3222<66UUUcUUUUUUUUUUUUUUUU",
"UUUUUUUUUUUUUUUUUUUUUU77jjjjzzgggg33ss<<>>33ffkkccddkkdg++3ks12j2,dd11ccDDxdkkkk3333ccggjjggccggfds321<3<6UUUUUUUUUUUUUUUU33UU",
"UUUUUUUUUUUUUUUUUUUUUU77jjjjzzgggg33ss<<>>33ffkkccddkkdg++3ks12j2,dd11ccDDxdkkkk3333ccggjjggccggfds321<<3<UUUUUUUUUUUUUUUU33UU",
"UUUUUUUUUUUUUUUUUUUUUU66jjjjjjgggg33ss<<>>ddffkkckkkffdd++gks12h23jjddddDDxdkkddggggggggjjggggggfds321<<3<UUUUUUUUUUUUUUUUUUUU",
"UUUUUUUUUUUUUUUUUUUUUU66jjjjjjgggg33ss<<>>ddffkkckkkfadd++gks12h23jjddddDDxdkkddggggggggjzzgggggfds321<<s<UUUUUUUUUUUUUUUUUUUU",
"UUUUUUUUUUjUUUUUUUUUUU66jj33jjggcc33ss<<UU33jjkkck__EEaa++sks12d23ddjjdd11xdhhddgg33ggggzccjggggfds321<<s<UUUUUUUUUUUUUUUUUUUU",
"UUUUUUUUUUjUUUUUUUUUUU66jj33jjggcc33ss<<UU33jjkkckpaRaaa++sks12d23ddjjdd11xdhhddgg33ggggkcckggggfds321<<s<UUUUUUUUUUUUUUUUUUUU",
"UUUUUUUUUUUUUUUUUUUUUUjjjjjjjjgggg33ss<<<UddddkkckDDDDch++sks1232hdd11DD__EEDD11kk33ggggjkkgggggfds3211<s<UUUUUUjjUUUUUUUUUUUU",
"UUUUUUUUUUUUUUUUUUUUUUjjjjjjjjgggg33ss<<<UddddkkckDDDDch+1sks1232hdd11DDEEEEDD11kk33ggggjjggggggfds321<1s<UUUUUUjjUUUUUUUUUUUU",
"UUUUUUUUUUUUUUUUUUUUUUjjjjyyyyyyyyyyss<<<<33ddkkc1ccccch+,sks12>2111113dDDDDcc11kk33gggggyyyuiiiiiuyy:<<2<UUUUUUUUUUUUUUUUUUUU",
"UUUUUUUUUUUUUUUUUUUUUUjjjyyyyyyyyyyyyyy<<<33ddkkc1ccchch+,sfs12>2111113dDDDDcc11kk33gggyyyyyyyuuuyyyyyy:1<UUUUUUUUUUUUUUUUUUUU",
"UUUUUUUUUUUUUjUUUUUUUUjyyyyy::::::::yyyy<<dd>>hhc1jjlh3h+,1fs12>21jj113fjj111111kk33ggyyyy===========yyy:<UUssUUUUUUUUUUU3UUUU",
"UUUUUUUUUUUUjjUUUUUUUUyyyyyy::::::::yyyyy<dd>>hhh1jjlh3h+,1fs12>21jj113fjj111111kk33gyyy==============yyy<UUssUUUUUUUUUU33UUUU",
"UUUUUUUUUUUUUUUUUU33yyywYYeeq======wcceeq>dd>>ffhdjjlhdh+>1fs12>2,11>>3fjj11ffhh66  wwewq===eewq====wwww==UUUUUUUUUUUUUUUUUUUU",
"UUUUUUUUUUUUUUUUUU33UywYYYeewq====wYcceewqdd>>ffhdjjlhdh+>1fs12>2,11>>3fjj13ffhh66  wYewq==Yeewq===wwwwwwqUUUUUUUUUUUUUUUUUUUU",
"UUUUUUUUUUUUUUUUUUUUyyYYYYeeww====YYYYkkww@@>>ssh,jjlh1h+,1fs12<2,11>>3fjj13>>ffffwwYYewqqYYeewq==wwYYeewqUUUUUUUUUUUUUUUUUUUU",
"UUUUUUUUUUUUUUUUUUUUyyYYYYeeww====YYYYkkww@@>>ssh,jjlh1h+,1fs12<2,11>>3fjj13>>ffffweYYewqqYYeewq==wwYYeewqUUUUUUUUUUUUUUUUUUUU",
"UUUUUUUUUUUUUUUUUUUUyyYYYYeeww====YYYYeewwXX>>ssh,jjlh>h+>1fs12,2<>>>>3fjjf3>>ffffYYeewwqqYYeewq==wwYYeewqUUUUUUUUUUUUUUUUUUUU",
"UUUUUUUUUUUUUUUUUUUUyyYYYYeeww====YYYYeewwXX>>ssh,jjlh>h+>1fs12,2<>>>>3fjjf3>>ffffYYeewwqqYYeewq==wwYYeewqUUUUUUUUUUUUUUUUUUUU",
"UUUUUUUUUUUUUUUUUUUU==YYYYeeww    YYYYeewwUU11ssh,jjlh>h+>1fs12,2>,,ff3fjjf3>>f3>>YYeewwq=YYeewq==wwYYeewqUUUUUUUUUUUUUUUUUUUU",
"UUUUUUUUUUUUUUUUUUUU==YYYYeeww    YYYYeewwUU11ssh,jjlh>h+>1fs12,2>,,ff3fjjf3>>f3>>YYeewwq=YYeewq==wwYYeewqUUUUUUUUUUUUUUUUUUUU",
"UUUUUUUUUUUUUUUUjj33==YYcceeww    YYcceewwUUXX,,h,gglh h+>1fs12,2,,,>>3fjjf3>>f3  YYeewwq=wwwwwq==wwYYeewqUUUUUUUUUUUUUUUUUUUU",
"UUUUUUUUUUUUUUUUjj33==YYcceeww    YYcceewwUUXX,,h,gglh h>>1fs12,2,,,>>3fjjf3>>f3  YYeewwq=ww% %%==wwYYeewqUUUUUUUUUUUUUUUUUUUU",
"UUUUUUUUUUUUUUUU3333UUww%%%%ww    ww%%%%ww11XX,,h,gglh h<<1fs12,2,,,>>3fjjd3  f3  YYwwwwq==w%%%%==wwYYeewqUUUUUUUUUUUUUUUUUUUU",
"UUUUUUUUUUUUUUUUUU33UUww%%%%ww    ww%%%%wq11XX,,h,gglh h<<1fs12,2,,,>>3fjjd3  f3  YYwwwwq===wwwq==wwYYeewqUUUUUUUUUUUUUUUUUUUU",
"UUUUUUUUUUUUUUUUUUUUUU=qwqqwqq    =qwqqwq1UUXX,,h fflh h<<<fs12,2,,,>>3f33d3  f3  YY%%::ww==    ==wwwwwwwqUUUUUUUUUUUUUUUUUUUU",
"UUUUUUUUUUUUUUUUUUUUUU==wwwwqq    ==wwww11UUXX,,h fflh h<<<fs12,2,,,>>3f33d3  f3  YY%%::ww==    ==wwwwwwwqUUUUUUUUUUUUUUUUUUUU",
"UUUUUUUUUUUUUUUUUUUUUUeYwwwwqqUUUUeewwwwqqUUXX,,h fflh h  <fs12,2,,,>>3fXXs3  f3    wwwwqq==qqqq%%ee%%::wqUUUUUUUUUUUUUUUUUUUU",
"UUUUUUUUUUUUUUUUUUUUUUeYwwwwqqUUUUeewwwwqqUUXX,,h fflh h  <fs12,2,,,>>3fXXs3  f3    wwww::=qqqqq%%ee%%::wqUUUUUUUUUUUUUUUUUUUU",
"UUUUUUUUUUUUUUUUUUUUUUww%%%%wwUU33ww%%%%ww33XX<<h3fflh3h<<<fs12,2,,,>>3fXXs3  f3    @:::::wwYYeeqqyywwwwyqUUUUUUUUUUUUUUUUUUUU",
"UUUUUUUUUUUUUUUUUUUUUUww%%%%wwUU33ww%%%%ww33XX<<h3fflh3h<<<fs12,2,,,>>3fXXs3  f3    @UUUU:wwYYeeqqyywwwwyyUUUUUUUUUUUUUUUUUUUU",
"UUUUUUUUUUUUUUUUUUUUUUUwwqqww333333wwqqwws333333h3fflh3h<<<f212<2<33333f11s311f3111111UUU:::wwww::UUUUUUUUUUUUUUUUUUUUUUUUUUUU",
"UUUUUUUUUUUUUUUUUUUUUUUUwwww33333333wwwwss3333333sfflh3h<<<f222<2<33333f11s311f3111111UUUUUUUUUUUUUUUUUUUUUUUUUUUUUUUUUUUUUUUU",
"UUUUUUUUUUUUUUUUUUUUUUUUUUUUUUUUUUUUUUUUUUffffffffffffffffffff2fffffffffffffffffddssUUUUUUUUUUUUUUUUUUUUUUUUUUUUUUUUUUUUUUUUUU",
"UUUUUUUUUUUUUUUUUUUUUUUUUUUUUUUUUUUUUUUUUUffffffffffffffffffffffffffffffffffffffddssUUUUUUUUUUUUUUUUUUUUUUUUUUUUUUUUUUUUUUUUUU"
};
