/* XPM */
static char *result[] = {
/* columns rows colors chars-per-pixel */
"41 34 78 1 ",
"  c black",
". c #000001",
"X c #0F0000",
"o c gray12",
"O c #3F0000",
"+ c #202020",
"@ c #232323",
"# c gray17",
"$ c #2C2C2C",
"% c #2F2F2F",
"& c #313131",
"* c #373737",
"= c gray22",
"- c #470000",
"; c #630001",
": c #670000",
"> c #770001",
", c #43331B",
"< c #533B1C",
"1 c #6B4724",
"2 c #6F4B27",
"3 c #734B28",
"4 c #774F2B",
"5 c gray25",
"6 c #414141",
"7 c gray28",
"8 c #4B4B4B",
"9 c #4E4E4E",
"0 c gray33",
"q c gray34",
"w c #676767",
"e c gray50",
"r c #830001",
"t c #A70001",
"y c #BF0001",
"u c #CB0001",
"i c #D70001",
"p c #EF0001",
"a c #B75701",
"s c #83532F",
"d c #875730",
"f c #8B5B33",
"g c #8F5B34",
"h c #935F37",
"j c #9B5F38",
"k c #9F633B",
"l c #9F633C",
"z c #A3673F",
"x c #CF6301",
"c c #A76740",
"v c #AB6B43",
"b c #B77347",
"n c #BB7748",
"m c #BF7B4B",
"M c #FF5555",
"N c #C77B4C",
"B c #CB7F4F",
"V c #CF7F50",
"C c #D38353",
"Z c #DF8B57",
"A c #EB8F5B",
"S c #EF935C",
"D c #F3975F",
"F c #FF9F63",
"G c #FFA773",
"H c #C12D8D",
"J c #9B9B9B",
"K c #FBAF80",
"L c #FFB383",
"P c #FBB790",
"I c #FFBB93",
"U c #FFC7A7",
"Y c #FFCFB3",
"T c #FFD7BF",
"R c #FFE3D3",
"E c #FFEBDF",
"W c #EFEFEF",
"Q c white",
/* pixels */
"HHHHHHHHHHHHHHHHHHHHHHHHHHHHHHHHHHHHHHHHH",
"HHHHHHHHHHHHHHHHHHHHHHHHHHHHHHHHHHHHHHHHH",
"HHHHHHHHHHHHHHHHHHHHHHHHHHHHHHHHHHHHHHHHH",
"HHHHHHHHHHHHHHHHHHHHHHHHHHHHHHHHHHHHHHHHH",
"HHHHHHHHHHHHHHHHHHHHHHHHHHHHHHHHHHHHHHHHH",
"HHHHHHHHHHHHHHHHHHHHHHHHHHHHHHHHHHHHHHHHH",
"HHHHHHHHHHHHHHHHHHHHfzzffHHHHHHHHHHHHHHHH",
"HHHHHHHHHHHHHHHHHHfzzzbzf&67909HHHHHHHHHH",
"HHHHHHHHHHHHHHHHHfkbbbff+$=577779HHHHHHHH",
"HHHHHHHHHHHHHHsffkkmmmLGmmm**65677HHHHHHH",
"HHHHHHHHHHHHkbbmmmAAAatEGGDDm***55*HHHHHH",
"HHHHHHHHHHbbVCCa>tiitt>aLLGDSmmm**#*HHHHH",
"HHHHHHHHHbBCFFLLLUULGGatiLLLLSRmg##*HHHHH",
"HHHHHHHHbBZCZZZBBbbZIDCUW>aDkLRmNoo*HHHHH",
"HHHHHHHcBZZAIDFFFZBzhDCUCa>qkDTmNoo#*HHHH",
"HHHHHHHcBZZZZZBBBBBBzzhbbPMQ4DEmNooo*HHHH",
"HHHHHHHcbtiatr;XX 7q1nn4ZKa@4DImNooo*HHHH",
"HHHHHHHcbSatiGht;   q2sZRKf@4ZYmjooo##HHH",
"HHHHHHHcbSriBTwrr;  e.@ZRKCimIYmjoooo*HHH",
"HHHHHHHcbS;TBTeutr  J.%4ZUCtzAImjo#oo*HHH",
"HHHHHHHcbSiUAGputr  J.;,hUCazAZmjo*oo*HHH",
"HHHHHHHcbSaGFAirr;  e.;2nhv@4Immjo*#o*HHH",
"HHHHHHHcbBSAIZti;   qsranIh84Cmj###*#*HHH",
"HHHHHHHfcbBbZtyttaxFFrtagllo4mg#*#H5**HHH",
"HHHHHHHHHcbnartliallar;rgd---*+++HHH5*HHH",
"HHHHHHHHHHH3tt<<ti<<r;O;O-:--:+:::HH7HHHH",
"HHHHHHHHHHHHtt::rt:::HHHHHHH:::HHHHHHHHHH",
"HHHHHHHHHHHHHHHHHHHHHHHHHHHHHHHHHHHHHHHHH",
"HHHHHHHHHHHHHHHHHHHHHHHHHHHHHHHHHHHHHHHHH",
"HHHHHHHHHHHHHHHHHHHHHHHHHHHHHHHHHHHHHHHHH",
"HHHHHHHHHHHHHHHHHHHHHHHHHHHHHHHHHHHHHHHHH",
"HHHHHHHHHHHHHHHHHHHHHHHHHHHHHHHHHHHHHHHHH",
"HHHHHHHHHHHHHHHHHHHHHHHHHHHHHHHHHHHHHHHHH",
"HHHHHHHHHHHHHHHHHHHHHHHHHHHHHHHHHHHHHHHHH"
};
