/* XPM */
static char *result[] = {
/* columns rows colors chars-per-pixel */
"128 127 91 1 ",
"  c #000001",
". c #1F0000",
"X c #370000",
"o c #2B230F",
"O c #373700",
"+ c #3B2F17",
"@ c #202020",
"# c #232323",
"$ c #2C2C2C",
"% c #2F2F2F",
"& c gray19",
"* c #313131",
"= c #353535",
"- c gray22",
"; c gray23",
": c #4B0000",
"> c #570000",
", c #630000",
"< c #6F0000",
"1 c #770000",
"2 c #43331B",
"3 c #483818",
"4 c #4B3B1B",
"5 c #573F1F",
"6 c #434300",
"7 c #4F4F00",
"8 c #5F5F00",
"9 c #777700",
"0 c #5F4323",
"q c #6F4B27",
"w c #774F2B",
"e c #004343",
"r c #005B5B",
"t c #007373",
"y c gray25",
"u c #484848",
"i c #4B4B4B",
"p c #4E4E4E",
"a c gray33",
"s c gray34",
"d c #5D5D5D",
"f c #646464",
"g c #676767",
"h c gray45",
"j c gray50",
"k c #830000",
"l c #8F0000",
"z c #9B0000",
"x c #A70000",
"c c #B30000",
"v c #BF0000",
"b c #E30000",
"n c #83532F",
"m c #875333",
"M c #885830",
"N c #8B5B33",
"B c #935F37",
"V c #9F633B",
"C c #A0623D",
"Z c #A3673F",
"A c #A4683C",
"S c #AB6B43",
"D c #B77347",
"F c #BF7B4B",
"G c #CF7945",
"H c #CB7F4F",
"J c #878700",
"K c #939300",
"L c #D38353",
"P c #DF8B57",
"I c #EB8F5B",
"U c #F0945C",
"Y c #F3975F",
"T c #FFAB5F",
"R c #FC9C60",
"E c #FF9F63",
"W c #FFA773",
"Q c #C12D8D",
"! c #008787",
"~ c #009F9F",
"^ c #9B9B9B",
"/ c #B7B7B7",
"( c #FFB383",
") c #FFBB93",
"_ c #FFBF9F",
"` c #FFC7A7",
"' c #FFCFB3",
"] c #FFD7BF",
"[ c #FFDBC7",
"{ c #FFE3D3",
"} c #FFEBDF",
/* pixels */
"QQQQQQQQQQQQQQQQQQQQQQQQQQQQQQQQQQQQQQQQQQQQQQQQQQQQQQQQQQQQQQQQQQQQQQQQQQQQQQQQQQQQQQQQQQQQQQQQQQQQQQQQQQQQQQQQQQQQQQQQQQQQQQQQ",
"QQQQQQQQQQQQQQQQQQQQQQQQQQQQQQQQQQQQQQQQQQQQQQQQQQQQQQQQQQQQQQQQQQQQQQQQQQQQQQQQQQQQQQQQQQQQQQQQQQQQQQQQQQQQQQQQQQQQQQQQQQQQQQQQ",
"QQQQQQQQQQQQQQQQQQQQQQQQQQQQQQQQQQQQQQQQQQQQQQQQQQQQQQQQQQQQQQQQQQQQQQQQQQQQQQQQQQQQQQQQQQQQQQQQQQQQQQQQQQQQQQQQQQQQQQQQQQQQQQQQ",
"QQQQQQQQQQQQQQQQQQQQQQQQQQQQQQQQQQQQQQQQQQQQQQQQQQQQQQQQQQQQQQQQQQQQQQQQQQQQQQQQQQQQQQQQQQQQQQQQQQQQQQQQQQQQQQQQQQQQQQQQQQQQQQQQ",
"QQQQQQQQQQQQQQQQQQQQQQQQQQQQQQQQQQQQQQQQQQQQQQQQQQQQQQQQQQQQQQQQQQQQQQQQQQQQQQQQQQQQQQQQQQQQQQQQQQQQQQQQQQQQQQQQQQQQQQQQQQQQQQQQ",
"QQQQQQQQQQQQQQQQQQQQQQQQQQQQQQQQQQQQQQQQQQQQQQQQQQQQQQQQQQQQQQQQQQQQQQQQQQQQQQQQQQQQQQQQQQQQQQQQQQQQQQQQQQQQQQQQQQQQQQQQQQQQQQQQ",
"QQQQQQQQQQQQQQQQQQQQQQQQQQQQQQQQQQQQQQQQQQQQQQQQQQQQQQQQQQQQQQQQQQQQQQQQQQQQQQQQQQQQQQQQQQQQQQQQQQQQQQQQQQQQQQQQQQQQQQQQQQQQQQQQ",
"QQQQQQQQQQQQQQQQQQQQQQQQQQQQQQQQQQQQQQQQQQQQQQQQQQQQQQQQQQQQQQQQQQQQQQQQQQQQQQQQQQQQQQQQQQQQQQQQQQQQQQQQQQQQQQQQQQQQQQQQQQQQQQQQ",
"QQQQQQQQQQQQQQQQQQQQQQQQQQQQQQQQQQQQQQQQQQQQQQQQQQQQQQQQQQQQQQQQQQQQQQQQQQQQQQQQQQQQQQQQQQQQQQQQQQQQQQQQQQQQQQQQQQQQQQQQQQQQQQQQ",
"QQQQQQQQQQQQQQQQQQQQQQQQQQQQQQQQQQQQQQQQQQQQQQQQQQQQQQQQQQQQQQQQQQQQQQQQQQQQQQQQQQQQQQQQQQQQQQQQQQQQQQQQQQQQQQQQQQQQQQQQQQQQQQQQ",
"QQQQQQQQQQQQQQQQQQQQQQQQQQQQQQQQQQQQQQQQQQQQQQQQQQQQQQQQQQQQQQQQQQQQQQQQQQQQQQQQQQQQQQQQQQQQQQQQQQQQQQQQQQQQQQQQQQQQQQQQQQQQQQQQ",
"QQQQQQQQQQQQQQQQQQQQQQQQQQQQQQQQQQQQQQQQQQQQQQQQQQQQQQQQQQQQQQQQQQQQQQQQQQQQQQQQQQQQQQQQQQQQQQQQQQQQQQQQQQQQQQQQQQQQQQQQQQQQQQQQ",
"QQQQQQQQQQQQQQQQQQQQQQQQQQQQQQQQQQQQQQQQQQQQQQQQQQQQQQQQQQQQQQQQQQQQQQQQQQQQQQQQQQQQQQQQQQQQQQQQQQQQQQQQQQQQQQQQQQQQQQQQQQQQQQQQ",
"QQQQQQQQQQQQQQQQQQQQQQQQQQQQQQQQQQQQQQQQQQQQQQQQQQQQQQQQQQQQQQQQQQQQQQQQQQQQQQQQQQQQQQQQQQQQQQQQQQQQQQQQQQQQQQQQQQQQQQQQQQQQQQQQ",
"QQQQQQQQQQQQQQQQQQQQQQQQQQQQQQQQQQQQQQQQQQQQQQQQQQQQQQQQQQQQQQQQQQQQQQQQQQQQQQQQQQQQQQQQQQQQQQQQQQQQQQQQQQQQQQQQQQQQQQQQQQQQQQQQ",
"QQQQQQQQQQQQQQQQQQQQQQQQQQQQQQQQQQQQQQQQQQQQQQQQQQQQQQQQQQQQQQQQQQQQQQQQQQQQQQQQQQQQQQQQQQQQQQQQQQQQQQQQQQQQQQQQQQQQQQQQQQQQQQQQ",
"QQQQQQQQQQQQQQQQQQQQQQQQQQQQQQQQQQQQQQQQQQQQQQQQQQQQQQQQQQQQQQQQQQQQQQQQQQQQQQQQQQQQQQQQQQQQQQQQQQQQQQQQQQQQQQQQQQQQQQQQQQQQQQQQ",
"QQQQQQQQQQQQQQQQQQQQQQQQQQQQQQQQQQQQQQQQQQQQQQQQQQQQQQQQQQQQQQQQQQQQQQQQQQQQQQQQQQQQQQQQQQQQQQQQQQQQQQQQQQQQQQQQQQQQQQQQQQQQQQQQ",
"QQQQQQQQQQQQQQQQQQQQQQQQQQQQQQQQQQQQQQQQQQQQQQQQQQQQQQQQQQQQQQQQQQQQQQQQQQQQQQQQQQQQQQQQQQQQQQQQQQQQQQQQQQQQQQQQQQQQQQQQQQQQQQQQ",
"QQQQQQQQQQQQQQQQQQQQQQQQQQQQQQQQQQQQQQQQQQQQQQQQQQQQQQQQQQQQQQQQQQQQQQQQQQQQQQQQQQQQQQQQQQQQQQQQQQQQQQQQQQQQQQQQQQQQQQQQQQQQQQQQ",
"QQQQQQQQQQQQQQQQQQQQQQQQQQQQQQQQQQQQQQQQQQQQQQQQQQQQQQQQQQQQQQQQQQQQQQQQQQQQQQQQQQQQQQQQQQQQQQQQQQQQQQQQQQQQQQQQQQQQQQQQQQQQQQQQ",
"QQQQQQQQQQQQQQQQQQQQQQQQQQQQQQQQQQQQQQQQQQQQQQQQQQQQQQQQQQQQQQQQQQQQQQQQQQQQQQQQQQQQQQQQQQQQQQQQQQQQQQQQQQQQQQQQQQQQQQQQQQQQQQQQ",
"QQQQQQQQQQQQQQQQQQQQQQQQQQQQQQQQQQQQQQQQQQQQQQQQQQQQQQQQffffdaaapuuu;QQQQQQQQQQQQQQQQQQQQQQQQQQQQQQQQQQQQQQQQQQQQQQQQQQQQQQQQQQQ",
"QQQQQQQQQQQQQQQQQQQQQQQQQQQQQQQQQQQQQQQQQQQQQQQQQQQQQQdffffdaapuuyy;-&$$QQQQQQQQQQQQQQQQQQQQQQQQQQQQQQQQQQQQQQQQQQQQQQQQQQQQQQQQ",
"QQQQQQQQQQQQQQQQQQQQQQQQQQQQQQQQQQQQQQQQQQQQQQQQQQQQQaaddddapuuy;-----=&@QQQQQQQQQQQQQQQQQQQQQQQQQQQQQQQQQQQQQQQQQQQQQQQQQQQQQQQ",
"QQQQQQQQQQQQQQQQQQQQQQQQQQQQQQQQQQQQQQQQQQQQQQQQQQQQpaaaaapuuuuuy;-----=$@QQQQQQQQQQQQQQQQQQQQQQQQQQQQQQQQQQQQQQQQQQQQQQQQQQQQQQ",
"QQQQQQQQQQQQQQQQQQQQQQQQQQQQQQQQQQQQQQQQQQQQQQQQQQQQyuuuyy--;yuuuuy;----=@QQQQQQQQQQQQQQQQQQQQQQQQQQQQQQQQQQQQQQQQQQQQQQQQQQQQQQ",
"QQQQQQQQQQQQQQQQQQQQQQQQQQQQQQQQQQQQQQQQQQQQQQQQQQQQ;----------;;yuu;----$QQQQQQQQQQQQQQQQQQQQQQQQQQQQQQQQQQQQQQQQQQQQQQQQQQQQQQ",
"QQQQQQQQQQQQQQQQQQQQQQQQQQQQQQQQQQQQQQQQQQQQQQQQQQQ;-$@@@@@$$**---;;y;---&@QQQQQQQQQQQQQQQQQQQQQQQQQQQQQQQQQQQQQQQQQQQQQQQQQQQQQ",
"QQQQQQQQQQQQQQQQQQQQQQQQQQQQQQQQQQQQQQQQQQQQQQQQQQQ-$@NSNw3@@@@@$$$$-yo$&&@QQQQQQQQQQQQQQQQQQQQQQQQQQQQQQQQQQQQQQQQQQQQQQQQQQQQQ",
"QQQQQQQQQQQQQQQQQQQQQQQQQQQQQQQQQQQQQQQQQQQQQQQQQQQ-@wE''`M3@@@@@@@@$-@+$$@QQQQQQQQQQQQQQQQQQQQQQQQQQQQQQQQQQQQQQQQQQQQQQQQQQQQQ",
"QQQQQQQQQQQQQQQQQQQQQQQQQQQQQQQQQQQQQQQQQQQQQQQQQQQ-@qF_'`)`WWIIHL@@@$@5+$@QQQQQQQQQQQQQQQQQQQQQQQQQQQQQQQQQQQQQQQQQQQQQQQQQQQQQ",
"QQQQQQQQQQQQQQQQQQQQQQQQQQQQQQQQQQQQQQQQQQQQQQQQQQQ*@nF_))'`)']['')L@@HZ5$@QQQQQQQQQQQQQQQQQQQQQQQQQQQQQQQQQQQQQQQQQQQQQQQQQQQQQ",
"QQQQQQQQQQQQQQQQQQQQQQQQQQQQQQQQQQQQQQQQQQQQQQQQQQQ*$VF_{]_)''}[[){]L@YDn$@QQQQQQQQQQQQQQQQQQQQQQQQQQQQQQQQQQQQQQQQQQQQQQQQQQQQQ",
"QQQQQQQQQQQQQQQQQQQQQQQQQQQQQQQQQQQQQQQQQQQQQQQQQQQ*$VI`{[[]`}[`{{{{{L(PZ$@QQQQQQQQQQQQQQQQQQQQQQQQQQQQQQQQQQQQQQQQQQQQQQQQQQQQQ",
"QQQQQQQQQQQQQQQQQQQQQQQQQQQQQQQQQQQQQQQQQQQQQQQQQQQ@$VYHHP``'W}[W{``YHHPV$@QQQQQQQQQQQQQQQQQQQQQQQQQQQQQQQQQQQQQQQQQQQQQQQQQQQQQ",
"QQQQQQQQQQQQQQQQQQQQQQQQQQQQQQQQQQQQQQQQQQQQQQQQQQQF$VYwwwCYYV``VYYCwwwLV$FQQQQQQQQQQQQQQQQQQQQQQQQQQQQQQQQQQQQQQQQQQQQQQQQQQQQQ",
"QQQQQQQQQQQQQQQQQQQQQQQQQQQQQQQQQQQQQQQQQQQQQQQQQQQF$FIm+%2I`V``V`I  +mIL$FQQQQQQQQQQQQQQQQQQQQQQQQQQQQQQQQQQQQQQQQQQQQQQQQQQQQQ",
"QQQQQQQQQQQQQQQQQQQQQQQQQQQQQQQQQQQQQQQQQQQQQQQQQQQZDLYVib  #2GG2#  biVYLDZQQQQQQQQQQQQQQQQQQQQQQQQQQQQQQQQQQQQQQQQQQQQQQQQQQQQQ",
"QQQQQQQQQQQQQQQQQQQQQQQQQQQQQQQQQQQQQQQQQQQQQQQQQQQZNLYWIVVVVBLLBZVVVIWYINZQQQQQQQQQQQQQQQQQQQQQQQQQQQQQQQQQQQQQQQQQQQQQQQQQQQQQ",
"QQQQQQQQQQQQQQQQQQQQQQQQQQQQQQQQQQQQQQQQQQQQQQQQQQQZNIY_''[`RF``FRW)['_YINZQQQQQQQQQQQQQQQQQQQQQQQQQQQQQQQQQQQQQQQQQQQQQQQQQQQQQ",
"QQQQQQQQQQQQQQQQQQQQQQQQQQQQQQQQQQQQQQQQQQQQQQQQQQQQDHIT((_WRH''HURW_(TYLDQQQQQQQQQQQQQQQQQQQQQQQQQQQQQQQQQQQQQQQQQQQQQQQQQQQQQQ",
"QQQQQQQQQQQQQQQQQQQQQQQQQQQQQQQQQQQQQQQQQQQQQQQQQQQQQZDIW)WFZB((BZFW)`(YFQQQQQQQQQQQQQQQQQQQQQQQQQQQQQQQQQQQQQQQQQQQQQQQQQQQQQQQ",
"QQQQQQQQQQQQQQQQQQQQQQQQQQQQQQQQQQQQQQQQQQQQQQQQQQQQQSZHY(FIw#nn#wIF(_EPBQQQQQQQQQQQQQQQQQQQQQQQQQQQQQQQQQQQQQQQQQQQQQQQQQQQQQQQ",
"QQQQQQQQQQQQQQQQQQQQQQQQQQQQQQQQQQQQQQQQQQQQQQQQQQQQQSSDP(FEw %% wEF(WPFnQQQQQQQQQQQQQQQQQQQQQQQQQQQQQQQQQQQQQQQQQQQQQQQQQQQQQQQ",
"QQQQQQQQQQQQQQQQQQQQQQQQQQQQQQQQQQQQQQQQQQQQQQQQQQQQQZSSLWVDwo  owDVWYHDqQQQQQQQQQQQQQQQQQQQQQQQQQQQQQQQQQQQQQQQQQQQQQQQQQQQQQQQ",
"QQQQQQQQQQQQQQQQQQQQQQQQQQQQQQQQQQQQQQQQQQQQQQQQQQQQ BSSLUZn2....2nZULDZ5 QQQQQQQQQQQQQQQQQQQQQQQQQQQQQQQQQQQQQQQQQQQQQQQQQQQQQQ",
"QQQQQQQQQQQQQQQQQQQQQQQQQQQQQQQQQQQQQQQQQQQQQQQQQQQQ mZSLUZn2....2nZULDZ4 QQQQQQQQQQQQQQQQQQQQQQQQQQQQQQQQQQQQQQQQQQQQQQQQQQQQQQ",
"QQQQQQQQQQQQQQQQQQQQQQQQQQQQQQQQQQQQQQQQQQQQQQQQQQQQ qBSHUSnsXXXXsnSULSBo 0QQQQQQQQQQQQQQQQQQQQQQQQQQQQQQQQQQQQQQQQQQQQQQQQQQQQQ",
"QQQQQQQQQQQQQQQQQQQQQQQQQQQQQQQQQQQQQQQQQQQQQQQQQQZw omZHUDnhkzzkhnDUHZmo 500QQQQQQQQQQQQQQQQQQQQQQQQQQQQQQQQQQQQQQQQQQQQQQQQQQQ",
"QQQQQQQQQQQQQQQQQQQQQQQQQQQQQQQQQQQQQQQQQQQQQ    oZw oqBSUHHh^//^hHHUSBqo +5q000QQQQQQQQQQQQQQQQQQQQQQQQQQQQQQQQQQQQQQQQQQQQQQQQ",
"QQQQQQQQQQQQQQQQQQQQQQQQQQQQQQQQQQQQQQQZFFV4 %ss oZw  5nBUPHIW))WIHPUBn5  o2w000qwwwwwwQQQQQQQQQQQQQQQQQQQQQQQQQQQQQQQQQQQQQQQQQ",
"QQQQQQQQQQQQQQQQQQQQQQQQQQQQQQQQQQQQQZFPIHB4 ;ii oZw  2qnPUPHDSSDHPUPn5o  o+nq00nZDFFDZVNqQQQQQQQQQQQQQQQQQQQQQQQQQQQQQQQQQQQQQQ",
"QQQQQQQQQQQQQQQQQQQQQQQQQQQQQQQQQQQFFYYILDD4 ;;; oZw   o5DYUPFFFFPUYD5o   o2nq0qnBSDDDDDZNNqQQQQQQQQQQQQQQQQQQQQQQQQQQQQQQQQQQQQ",
"QQQQQQQQQQQQQQQQQQQQQQQQQQQQQQQQQZZPYYLFDDF4 %%% oNw    o5DPYW((WYPD5o    +0w00qNBSDDSVNnw055QQQQQQQQQQQQQQQQQQQQQQQQQQQQQQQQQQQ",
"QQQQQQQQQQQQQQQQQQQQQQQQQQQQQQQZZZDDDDSSDFF4 ##%# wZo    o4NZDAADZN4o    o2q0n0nNBSDVBnn0q0wn555QQQQQQQQQQQQQQQQQQQQQQQQQQQQQQQQ",
"QQQQQQQQQQQQQQQQQQQQQQQQQQQQQQZZZZZSBNNSHHFw  ##% 4Z4  hj oo4nnnn4+o jh  +40nBqNBVZZBww0wqwwnn555QQQQQQQQQQQQQQQQQQQQQQQQQQQQQQQ",
"QQQQQQQQQQQQQQQQQQQQQQQQQQQQQZFLIILDVwnnZHFVo  ## oN0  ih   oo++oo   hi  +0nBZqNBVBVNw05qqqwwwn005QQQQQQQQQQQQQQQQQQQQQQQQQQQQQQ",
"QQQQQQQQQQQQQQQQQQQQQQQQQQQQVZZZZNnnnw0qwZFZ4   ## 4Z+   hj        jh   +0nBZSwnNVnVww50qqwqwnnn055QQQQQQQQQQQQQQQQQQQQQQQQQQQQQ",
"QQQQQQQQQQQQQQQQQQQQQQQQQQQVVFLLDDVVVNq0wNZFwo   # oN0+  ih   oo   hi  +0nBZSDnnnNnBw0+50qwnwwwwq5555QQQQQQQQQQQQQQQQQQQQQQQQQQQ",
"QQQQQQQQQQQQQQQQQQQQQQQQQQnvvxxlk1150Vn0qwZFZ4    # 2N0+     20o2     +0wNZZDFNNnNnBw5+000nwqNNNnwq055QQQQQQQQQQQQQQQQQQQQQQQQQQ",
"QQQQQQQQQQQQQQQQQQQQQQQQQvvvvvcx1<,,15Nw05nZD4o      oNq+   250o52   +qwNZSSFHZNnnnnw5+0000qnVvcxxzkk55QQQQQQQQQQQQQQQQQQQQQQQQQ",
"QQQQQQQQQQQQQQQQQQQQQQQQvvvvcxzl1<,>>,5w54wZDB2       oNN++25qN2V5+++wNZSSSFHHZVNnnwn5+000qnvvxxxzllk>>5QQQQQQQQQQQQQQQQQQQQQQQQ",
"QQQQQQQQQQQQQQQQQQQQQQQvvziissggi;;,>>>5425NZDq2       owZZVVNZ5NNwnVwVZFFFFFFPPPPHNn5+400qccvxxzllll>>>>QQQQQQQQQQQQQQQQQQQQQQQ",
"QQQQQQQQQQQQQQQQQQQQQQvvziissghhgii;>>>42+4nBZBqo       owZVVZZ5nnwnVVBVDDDDSZDFFFDNn5+240cvv;rrtte;o>>>>>QQQQQQQQQQQQQQQQQQQQQQ",
"QQQQQQQQQQQQQQQQQQQQQvvrtte;;;;;;;rrtte;+o+5nBVB4o       owVNqN5nnwnVNNBSSSSBnBDDDZNn5+22cciirt!~~tr%%%>>>>QQQQQQQQQQQQQQQQQQQQQ",
"QQQQQQQQQQQQQQQQQQQQQvt!~~tr%;;;;rt!~~tr;oo4qnZVN4o       owwNV5nqqnVwNNZZSBn0nBZZBNn5o++vigsr!e  ere;;;%>>QQQQQQQQQQQQQQQQQQQQQ",
"QQQQQQQQQQQQQQQQQQQQir!e  ere%;;;r!e  ereoo25qwZBN4o       o2ww5qq0nNqnNZBBBnnnBBBnNq4oooigsst~    tr;;ii;>QQQQQQQQQQQQQQQQQQQQQ",
"QQQQQQQQQQQQQQQQQQQQit!    tr#;;;t!    troo+250wnnn4o        ow5qq0qnqwNnn00nn00nnnn44ooisssit~  ##tr;;iis;QQQQQQQQQQQQQQQQQQQQQ",
"QQQQQQQQQQQQQQQQQQQQitt  ##tr#%%%tt  ##troo+2255qqqq4o        o5qq00w0wNZNwwZNwwZZq54+ooisssirte #ere;;iiis;%QQQQQQQQQQQQQQQQQQQ",
"QQQQQQQQQQQQQQQQQQQQirte #ere####rte #ereo+22244455555o         oq00w5qNZNwwZNwwBZq4++oiissi;%rrttrr#;;iiii;%QQQQQQQQQQQQQQQQQQQ",
"QQQQQQQQQQQQQQQQQQQQi;rrttrr#    %rrttrr#++444444500444+         o44w+0NNNwqZNwwNBq2+ooiisi;;#%erre##;;iiii;;QQQQQQQQQQQQQQQQQQQ",
"QQQQQQQQQQQQQQQQQQQQi;%erre#      %erre##444444450000444+          o4o5wnn00ww00qq5+o;rrtte;o##    ##;rrtte;;QQQQQQQQQQQQQQQQQQQ",
"QQQQQQQQQQQQQQQQQQQQi;;%###        #####%QQn05505400q0222+           o+00000000055+oort!~~tr;#      #rt!~~tr;QQQQQQQQQQQQQQQQQQQ",
"QQQQQQQQQQQQQQQQQQQQi;;;;%%        i%%%%%QQnn000w0+40w0222+o           o244444442+oo+r!e  ere#      %r!e  ereQQQQQQQQQQQQQQQQQQQ",
"QQQQQQQQQQQQQQQQQQQQi;;rttr%      ;rtte;;QQwww040w0++5w5+++++o            oo++++oooo+t~    tr#      ;t!    trQQQQQQQQQQQQQQQQQQQ",
"QQQQQQQQQQQQQQQQQQQQi;t!~~tr%    ;t!~~tr;QQQwnw040wq++5w5++++++              ooooooo+t~  ##tr;#    #itt  ##trQQQQQQQQQQQQQQQQQQQ",
"QQQQQQQQQQQQQQQQQQQQir!e  err%###r!e  ereQQQQ                  KKKKJ9                rte #ere;;##%;i%rte #ereQQQQQQQQQQQQQQQQQQQ",
"QQQQQQQQQQQQQQQQQQQQit!    tr%;i;t!    trQQQQ i;%#             977779           #### %rrttrr%;rrtte;%%rrttrr;QQQQQQQQQQQQQQQQQQQ",
"QQQQQQQQQQQQQQQQQQQQQtt  ##tr#%;;tt  ##trQQQQ i;%#             788887           #### Q%erre%%rt!~~tr;%%erre;#QQQQQQQQQQQQQQQQQQQ",
"QQQQQQQQQQQQQQQQQQQQQete #ere#%;;rte #ereQQQQ                  6OOOO6                QQ%%%%%;r!e  ere;;%%%%;QQQQQQQQQQQQQQQQQQQQ",
"QQQQQQQQQQQQQQQQQQQQQ;rrttrr##%;;;rrttrr#QQQ4444000000nwqqqq00000055444444444444+++2o+QQ;;;;;t!    tr;;%%%%QQQQQQQQQQQQQQQQQQQQQ",
"QQQQQQQQQQQQQQQQQQQQQk%erre##%%;;;;erre#QQQQ40qwwq0000nwqqwq554550005544222222222222oo+QQ;;iitt  ##tr;;%%%:QQQQQQQQQQQQQQQQQQQQQ",
"QQQQQQQQQQQQQQQQQQQQQc:%%###%%%;;;;;##:QQQQ0qwwq000000nwqqwww000542200q0554+ooooo244+oo+Qk;;irte #ere;%%%::QQQQQQQQQQQQQQQQQQQQQ",
"QQQQQQQQQQQQQQQQQQQQQc:::%%%%;;;;;;::::QQQQqwq00000000nwqqwnwq00044522244555555444++++++Qkkkk%rrttrr#%%::::QQQQQQQQQQQQQQQQQQQQQ",
"QQQQQQQQQQQQQQQQQQQQQQQQQLL44444444QQQQQQQ0wq00044440qwq550000qq0444552222222+++++++++o++kkkk %erre##%%::::QQQQQQQQQQQQQQQQQQQQQ",
"QQQQQQQQQQQQQQQQQQQQQQQQQLLqqqqqq55QQQQQQQ0q0044444450q05555540qq44o445555542++++oooooo++QQQQww22222222QQQQQQQQQQQQQQQQQQQQQQQQQ",
"QQQQQQQQQQQQQQQQQQQQQQQQQVV44444444QQQQQQQ00440qqqqqqwnNqq055424q44o+++44442++ooooooooo+oQQQQNN00555522QQQQQQQQQQQQQQQQQQQQQQQQQ",
"QQQQQQQQQQQQQQQQQQQQQQQQQQV0000555QQQQQQQQ040qq00000qwNNqqqwwq52444o+22222++oooooooooooo+QQQQww22222222QQQQQQQQQQQQQQQQQQQQQQQQQ",
"QQQQQQQQQQQQQQQQQQQQQQQQQQQ######QQQQQQQQQ40q000qqwwnNBnqqqwnnw5444oo22442+ooooooooooo+++QQQQQSN000002QQQQQQQQQQQQQQQQQQQQQQQQQQ",
"QQQQQQQQQQQQQQQQQQQQQQQQQQQ######QQQQQQQQ5q0qqwnwwqqwNBnqqqqwnw0444ooo+2442++ooooooo+++oooQQQQQ######QQQQQQQQQQQQQQQQQQQQQQQQQQQ",
"QQQQQQQQQQQQQQQQQQQQQQQQQQQQQQQQQQQQQQQQQ0qnnwnwq000wNBnwwq00qw042+oooo+24444+++++++ooooooQQQQQ######QQQQQQQQQQQQQQQQQQQQQQQQQQQ",
"QQQQQQQQQQQQQQQQQQQQQQQQQQQQQQQQQQQQQQQQqqnnnnq0000qwNNnwnnq040042oo++oo++444442+oooooooooQQQQQQQQQQQQQQQQQQQQQQQQQQQQQQQQQQQQQQ",
"QQQQQQQQQQQQQQQQQQQQQQQQQQQQQQQQQQQQQQQQqqwnnq000qqqwNNqwnnNq2+42+ooo++++++++oooooooooooo+oQQQQQQQQQQQQQQQQQQQQQQQQQQQQQQQQQQQQQ",
"QQQQQQQQQQQQQQQQQQQQQQQQQQQQQQQQQQQQQQQQqnnq0000qqwwnZNnnnnNq2o++oo+++++++++ooooooooooooo+oQQQQQQQQQQQQQQQQQQQQQQQQQQQQQQQQQQQQQ",
"QQQQQQQQQQQQQQQQQQQQQQQQQQQQQQQQQQQQQQQqwnqqqnNNNNNNNSNNNNnnq2oooo+2222++++oooooooooooooo+oQQQQQQQQQQQQQQQQQQQQQQQQQQQQQQQQQQQQQ",
"QQQQQQQQQQQQQQQQQQQQQQQQQQQQQQQQQQQQQQQ0qwqqnNNBVVVZZFZVVBNnqq2oooo+242++++ooooooooooooooo+oQQQQQQQQQQQQQQQQQQQQQQQQQQQQQQQQQQQQ",
"QQQQQQQQQQQQQQQQQQQQQQQQQQQQQQQQQQQQQQQ0qqnNBZZZSSZDFFFDSVBNNn02oooo24422+++ooooooooooooo++oQQQQQQQQQQQQQQQQQQQQQQQQQQQQQQQQQQQQ",
"QQQQQQQQQQQQQQQQQQQQQQQQQQQQQQQQQQQQQQQ0qnNVZZZZSSZZZDZZSSZVBNn0+oooo24444++++oooooooooo+++oQQQQQQQQQQQQQQQQQQQQQQQQQQQQQQQQQQQQ",
"QQQQQQQQQQQQQQQQQQQQQQQQQQQQQQQQQQQQQQqnNZZVVVVNNNBBNBBNNNVVVNNq5+oooo+55554++++ooooo++++oo+oQQQQQQQQQQQQQQQQQQQQQQQQQQQQQQQQQQQ",
"QQQQQQQQQQQQQQQQQQQQQQQQQQQQQQQQQQQQQQqNVZZVVNnwwnnnNnwwwnNVVBNnq5o++o+2554+ooooooooooooooo+oQQQQQQQQQQQQQQQQQQQQQQQQQQQQQQQQQQQ",
"QQQQQQQQQQQQQQQQQQQQQQQQQQQQQQQQQQQQQqqZZVVnwqqwwnnnNnnwwqnNBBNnq4oo+++2452++ooooooooooooo++oQQQQQQQQQQQQQQQQQQQQQQQQQQQQQQQQQQQ",
"QQQQQQQQQQQQQQQQQQQQQQQQQQQQQQQQQQQQQqqZZNnwqqqwwnnnNnnnwq0qNNNnq4ooo++224222+oooooooooooo+4oQQQQQQQQQQQQQQQQQQQQQQQQQQQQQQQQQQQ",
"QQQQQQQQQQQQQQQQQQQQQQQQQQQQQQQQQQQQQqqwwq0550qnnnnnNnnnnqq0qnnqq4ooooooo2542+++++oooooo+++4oQQQQQQQQQQQQQQQQQQQQQQQQQQQQQQQQQQQ",
"QQQQQQQQQQQQQQQQQQQQQQQQQQQQQQQQQQQQQq00005450qnnnnnNnnnnqq00qqq4+ooooo+o2544222++++++++++44oQQQQQQQQQQQQQQQQQQQQQQQQQQQQQQQQQQQ",
"QQQQQQQQQQQQQQQQQQQQQQQQQQQQQQQQQQQQQQ025544550qqnnnNnnqqqq00422ooQoo+o244054442222222222244oQQQQQQQQQQQQQQQQQQQQQQQQQQQQQQQQQQQ",
"QQQQQQQQQQQQQQQQQQQQQQQQQQQQQQQQQQQQQQQ024444450qnnnNnnqq00022oooQQ oo+222505554444444444444oQQQQQQQQQQQQQQQQQQQQQQQQQQQQQQQQQQQ",
"QQQQQQQQQQQQQQQQQQQQQQQQQQQQQQQQQQQQQQQQ++44444550qwNwq5542+oo oQQ     oo2+++++++++++++++oooQQQQQQQQQQQQQQQQQQQQQQQQQQQQQQQQQQQQ",
"QQQQQQQQQQQQQQQQQQQQQQQQQQQQQQQQQQQQQQQQ#++444450qwNNNwq2++oo  QQ  ##    ooooooooooooooooooQQQQQQQQQQQQQQQQQQQQQQQQQQQQQQQQQQQQQ",
"QQQQQQQQQQQQQQQQQQQQQQQQQQQQQQQQQQQQQQQQ##+++++++++++++++oo# # QQ ###      oooooooooooooQQQQQQQQQQQQQQQQQQQQQQQQQQQQQQQQQQQQQQQQ",
"QQQQQQQQQQQQQQQQQQQQQQQQQQQQQQQQQQQQQQQQ##                   # Q  ##;#                QQQQQQQQQQQQQQQQQQQQQQQQQQQQQQQQQQQQQQQQQQ",
"QQQQQQQQQQQQQQQQQQQQQQQQQQQQQQQQQQQQQQQQ#####               # QQ   #;;#              QQQQQQQQQQQQQQQQQQQQQQQQQQQQQQQQQQQQQQQQQQQ",
"QQQQQQQQQQQQQQQQQQQQQQQQQQQQQQQQQQQQQQQQ##%%####            # QQ   #%;;#     ###    QQQQQQQQQQQQQQQQQQQQQQQQQQQQQQQQQQQQQQQQQQQQ",
"QQQQQQQQQQQQQQQQQQQQQQQQQQQQQQQQQQQQQQQQQ%%%%%%####        # QQQ   #%#             QQQQQQQQQQQQQQQQQQQQQQQQQQQQQQQQQQQQQQQQQQQQQ",
"QQQQQQQQQQQQQQQQQQQQQQQQQQQQQQQQQQQQQQQQQ%%%%%%####        # QQQ   #%%       #     QQQQQQQQQQQQQQQQQQQQQQQQQQQQQQQQQQQQQQQQQQQQQ",
"QQQQQQQQQQQQQQQQQQQQQQQQQQQQQQQQQQQQQQQQQQ%%%%%####       # QQQQQQ  #%%### ##      QQQQQQQQQQQQQQQQQQQQQQQQQQQQQQQQQQQQQQQQQQQQQ",
"QQQQQQQQQQQQQQQQQQQQQQQQQQQQQQQQQQQQQQQQQQ############     QQQQQQQ   ######%%%%%%%#  QQQQQQQQQQQQQQQQQQQQQQQQQQQQQQQQQQQQQQQQQQQ",
"QQQQQQQQQQQQQQQQQQQQQQQQQQQQQQQQQQQQQQQQQQ#%#              QQQQQQQ   #                QQQQQQQQQQQQQQQQQQQQQQQQQQQQQQQQQQQQQQQQQQ",
"QQQQQQQQQQQQQQQQQQQQQQQQQQQQQQQQQQQQQQQQQQ#%####           QQQQQQQ   #                QQQQQQQQQQQQQQQQQQQQQQQQQQQQQQQQQQQQQQQQQQ",
"QQQQQQQQQQQQQQQQQQQQQQQQQQQQQQQQQQQQQQQQQQ%;%              QQQQQQQ   #                QQQQQQQQQQQQQQQQQQQQQQQQQQQQQQQQQQQQQQQQQQ",
"QQQQQQQQQQQQQQQQQQQQQQQQQQQQQQQQQQQQQQQQQQ%;;;%             QQQQQQQ                   QQQQQQQQQQQQQQQQQQQQQQQQQQQQQQQQQQQQQQQQQQ",
"QQQQQQQQQQQQQQQQQQQQQQQQQQQQQQQQQQQQQQQQQ %;;;;;;;########   QQQQQQQQQQQQQQQQQQQQQQQQQQQQQQQQQQQQQQQQQQQQQQQQQQQQQQQQQQQQQQQQQQQ",
"QQQQQQQQQQQQQQQQQQQQQQQQQQQQQQQQQQQQQQQQQ %               #  QQQQQQQQQQQQQQQQQQQQQQQQQQQQQQQQQQQQQQQQQQQQQQQQQQQQQQQQQQQQQQQQQQQ",
"QQQQQQQQQQQQQQQQQQQQQQQQQQQQQQQQQQQQQQQQQ %               #  QQQQQQQQQQQQQQQQQQQQQQQQQQQQQQQQQQQQQQQQQQQQQQQQQQQQQQQQQQQQQQQQQQQ",
"QQQQQQQQQQQQQQQQQQQQQQQQQQQQQQQQQQQQQQQQQ %               #  QQQQQQQQQQQQQQQQQQQQQQQQQQQQQQQQQQQQQQQQQQQQQQQQQQQQQQQQQQQQQQQQQQQ",
"QQQQQQQQQQQQQQQQQQQQQQQQQQQQQQQQQQQQQQQQQ %               #  QQQQQQQQQQQQQQQQQQQQQQQQQQQQQQQQQQQQQQQQQQQQQQQQQQQQQQQQQQQQQQQQQQQ",
"QQQQQQQQQQQQQQQQQQQQQQQQQQQQQQQQQQQQQQQQQQ %                QQQQQQQQQQQQQQQQQQQQQQQQQQQQQQQQQQQQQQQQQQQQQQQQQQQQQQQQQQQQQQQQQQQQ"
};
