/* XPM */
static char * marinedoom_d4_xpm[] = {
"52 52 72 1",
" 	c #FFC0CB",
".	c #937B63",
"+	c #8B735B",
"@	c #A78F77",
"#	c #6F5743",
"$	c #2F6323",
"%	c #27531B",
"&	c #1F4317",
"*	c #37732B",
"=	c #3F832F",
"-	c #4B9F3F",
";	c #AF977F",
">	c #836B57",
",	c #5B6347",
"'	c #676B4F",
")	c #439337",
"!	c #BFA78F",
"~	c #B79F87",
"{	c #636363",
"]	c #3F472B",
"^	c #53AF47",
"/	c #5FCF57",
"(	c #775F4B",
"_	c #533F2F",
":	c #9F876F",
"<	c #575757",
"[	c #53573B",
"}	c #5BBF4F",
"|	c #9B7F6B",
"1	c #17330F",
"2	c #373F27",
"3	c #474F33",
"4	c #67DF5F",
"5	c #13230B",
"6	c #5F4B37",
"7	c #232323",
"8	c #2F2F2F",
"9	c #373737",
"0	c #67533F",
"a	c #574333",
"b	c #3B3B3B",
"c	c #272727",
"d	c #774F2B",
"e	c #6B4727",
"f	c #6F7357",
"g	c #7B7F63",
"h	c #43331B",
"i	c #4F4F4F",
"j	c #434343",
"k	c #9B633B",
"l	c #CB7F4F",
"m	c #A36B3F",
"n	c #8F5F37",
"o	c #474747",
"p	c #777777",
"q	c #7F532F",
"r	c #B37347",
"s	c #BF7B4B",
"t	c #875733",
"u	c #2B230F",
"v	c #A73F3F",
"w	c #4F0000",
"x	c #730000",
"y	c #5F4323",
"z	c #AB6F43",
"A	c #3F2F17",
"B	c #332B13",
"C	c #670000",
"D	c #4B371B",
"E	c #430000",
"F	c #8B0000",
"G	c #533F1F",
"                                                    ",
"                                                    ",
"                                                    ",
"                                                    ",
"                                                    ",
"                                                    ",
"                                                    ",
"                                                    ",
"                                                    ",
"                                                    ",
"                                                    ",
"                                                    ",
"                                                    ",
"                                                    ",
"                                                    ",
"                                                    ",
"                                                    ",
"                                                    ",
"                                                    ",
"                                                    ",
"                                                    ",
"                                                    ",
"                                                    ",
"                                                    ",
"                                                    ",
"                                                    ",
"                                                    ",
"                                                    ",
"                                                    ",
"                                                    ",
"                                                    ",
"                                                    ",
"                                                    ",
"                                                    ",
"                                                    ",
"                                                    ",
"                                                    ",
"             ...++                                  ",
"           .@...++#$$$%%&    $*$$%&                 ",
"     *=---@.@;;;@>#$$$%%&$&%=$*$$%&&       ,'''     ",
"   =)*=---@@!!!~@;@>{&%**$&%=)))=$%&$%    ],'''''   ",
"  *=)^//-@;(___(:!!;+{<=====*[,'%%$$$%%$$*][[[['',  ",
" **)^}}^|!~:::::!!!!;>=}^^-=*&12['3%$$%$$**$%1&3,,[ ",
" *=^-^^-;.#(>>>((:;~~|}444//^*&12[']5&%%%%$*$%1&3,[[",
" *=^-^^#>678999870+>:;}////}}-*&12]]11$*)=*$%%%&][,[",
" $*)=))a07877b8cb80a0:-}}}^-^)$dde,fg,%***=*$%&&]],[",
"  $*$**hac9cc8iji9aha$-}}}^=-)$kllmnfg,e5&%&&&&1]2[]",
"  &%%$$%(hcb88op{a(h&%*==))*=*%qmrsmnfrlmdt111122u3 ",
"   11&&1>aoh__hva0>wx&%$$$$%*$%edqnnn,nkkmytzuu5uu  ",
"    ABAA+(0(++(0(+0wC11&&&&&%&Dqnnnee2eeyqzs        ",
"   BBBBB_h_h____h_aEF55111111DyeeeGGADGD            ",
"                                                    "};
