/* XPM */
static char * marinedoom2_xpm[] = {
"59 59 79 1",
" 	c #FFC0CB",
".	c #A78F77",
"+	c #BFA78F",
"@	c #9F876F",
"#	c #937B63",
"$	c #836B57",
"%	c #AF977F",
"&	c #B79F87",
"*	c #6F5743",
"=	c #3B3B3B",
"-	c #373737",
";	c #434343",
">	c #7B634F",
",	c #2F2F2F",
"'	c #636363",
")	c #7F7F7F",
"!	c #939393",
"~	c #6F6F6F",
"{	c #4F4F4F",
"]	c #474747",
"^	c #5B5B5B",
"/	c #777777",
"(	c #7B7F63",
"_	c #6B6B6B",
":	c #5F4B37",
"<	c #9F8363",
"[	c #8B735B",
"}	c #272727",
"|	c #574333",
"1	c #775F4B",
"2	c #43331B",
"3	c #5BBF4F",
"4	c #53AF47",
"5	c #4B9F3F",
"6	c #37732B",
"7	c #4F3B23",
"8	c #2B230F",
"9	c #3F2F17",
"0	c #232323",
"a	c #3F832F",
"b	c #575757",
"c	c #5FCF57",
"d	c #67DF5F",
"e	c #2F6323",
"f	c #1F4317",
"g	c #17330F",
"h	c #13230B",
"i	c #439337",
"j	c #27531B",
"k	c #5F4323",
"l	c #1F170B",
"m	c #6B4727",
"n	c #B37347",
"o	c #CF8353",
"p	c #D78B5B",
"q	c #DF9363",
"r	c #9B633B",
"s	c #7F532F",
"t	c #332B13",
"u	c #BF7B4B",
"v	c #CB7F4F",
"w	c #1B1B1B",
"x	c #533F1F",
"y	c #5B6347",
"z	c #131313",
"A	c #6F7357",
"B	c #474F33",
"C	c #3F472B",
"D	c #774F2B",
"E	c #4B371B",
"F	c #373F27",
"G	c #53573B",
"H	c #8F5F37",
"I	c #875733",
"J	c #232B0F",
"K	c #171F07",
"L	c #676B4F",
"M	c #0B1707",
"N	c #2F371F",
"                                                           ",
"                                                           ",
"                                                           ",
"                        ...+                               ",
"                       @...++                              ",
"                      #@#$$@++%                            ",
"                      #.%%&+++%                            ",
"                     **=-==-;#&.                           ",
"                    >*,')!)~{]%..                          ",
"                    >*=^/)/'',%(.#                         ",
"                   >*$;^'__^{@+((                          ",
"                    :@]%+&'{@+#*                           ",
"                    #%<@.@@[$#}|                           ",
"                     ||*11$1|2,*3345                       ",
"                   667228299,0{/33455a                     ",
"                  a66;,,,}}00b3cdd345ae                    ",
"                 6a5ef=-,}};a6ccc3cc35e                    ",
"                6646effghf6435i34cdd356j                   ",
"                6ae6eejgfa443d6543cd34aj                   ",
"                 aje66aee555546aaa6ii6jf                   ",
"                 kle66aae5ii5ijmnopqpnrk                   ",
"                sltjjjj6f6a66jhuqouuvrm                    ",
"                sl2gfgg6jggggjenvqppus2                    ",
"               #,ww-agaaa666a66rnoqorx                     ",
"               #;{{;5fiii55ajf((@+&%@k                     ",
"              yy,wz,]fgffjji4uqvry((AB                     ",
"              yrzwzw-00}0,,nvoponr}BC0                     ",
"              Do}0zz,]}2EmnuuunsDm}}F0G                    ",
"              Dpzwzw}nmHnuvnIDk2880,0}G                    ",
"              kr2wwwzvoonsEk988888888F                     ",
"               kE0zzwImmmk8E2l,888880                      ",
"               8220zw,,,,,BBBF,0hhhhhg                     ",
"                   ggggg8FFFFJ00ghhhggf                    ",
"                   ggggg8KJJJK}gghhhgjfe                   ",
"                    ggggh8KKK8gghhhggfee                   ",
"                    hfgggh8KK0fghgggff6f                   ",
"                    gffjfgh88ffggfffej6f                   ",
"                    fjfejgghhhgggja6ejaf                   ",
"                    hfjgjfhghhhfgjaa6ej                    ",
"                     jjjfggghhgffjeeeej                    ",
"                     jffggfhhhgfjeej6ej                    ",
"                     jffffhghhfeeej666f                    ",
"                     jjffggghhg6aje65eg                    ",
"                     jefffgghhhjL#.(Gf                     ",
"                     jjfffghhhMyAA(Lyg                     ",
"                     FLLBFNJJKhBAA(LyF                     ",
"                      BBFFNJJKhFBLLBF}F                    ",
"                       CFNJJJJJFFFBCGBF                    ",
"                        NJJJJJJCFggFGAF                    ",
"                         NJJJKJFByyyyLF                    ",
"                          FJJKJ GByyLyF                    ",
"                         FNJJKJFBGGLyG                     ",
"                        BFJJJJKF GyyGF                     ",
"                       yB8FJJJKF FAAG8                     ",
"                      FyBFNJKKK  FGLA}                     ",
"                      FLBFFJJ    0L#GFB                    ",
"                                LL#@(yB                    ",
"                               LL@@(Ly}                    ",
"                               LLAAGFB                     "};
