/* XPM */
static char * marinedoom_d3_xpm[] = {
"52 52 99 2",
"  	c #FFC0CB",
". 	c #836B57",
"+ 	c #937B63",
"@ 	c #9F876F",
"# 	c #8B735B",
"$ 	c #2F2F2F",
"% 	c #373737",
"& 	c #434343",
"* 	c #775F4B",
"= 	c #3B3B3B",
"- 	c #5B5B5B",
"; 	c #7F7F7F",
"> 	c #9F9F9F",
", 	c #838383",
"' 	c #6F6F6F",
") 	c #4F4F4F",
"! 	c #777777",
"~ 	c #6B6B6B",
"{ 	c #636363",
"] 	c #B79F87",
"^ 	c #A78F77",
"/ 	c #AF977F",
"( 	c #BFA78F",
"_ 	c #6F5743",
": 	c #E30000",
"< 	c #533F2F",
"[ 	c #9F8363",
"} 	c #43331B",
"| 	c #574333",
"1 	c #9B7F6B",
"2 	c #BF0000",
"3 	c #3F2F17",
"4 	c #272727",
"5 	c #B30000",
"6 	c #4B9F3F",
"7 	c #5BBF4F",
"8 	c #5FCF57",
"9 	c #530707",
"0 	c #9B0000",
"a 	c #D70000",
"b 	c #5F4B37",
"c 	c #53AF47",
"d 	c #3F832F",
"e 	c #4B371B",
"f 	c #533F1F",
"g 	c #7F1B1B",
"h 	c #771717",
"i 	c #37732B",
"j 	c #439337",
"k 	c #774F2B",
"l 	c #875733",
"m 	c #972F2F",
"n 	c #831F1F",
"o 	c #670B0B",
"p 	c #5B0707",
"q 	c #7F0000",
"r 	c #67DF5F",
"s 	c #27531B",
"t 	c #9B633B",
"u 	c #2F6323",
"v 	c #1F4317",
"w 	c #7F532F",
"x 	c #8F5F37",
"y 	c #A36B3F",
"z 	c #6B4727",
"A 	c #AB6F43",
"B 	c #B37347",
"C 	c #BF7B4B",
"D 	c #5F4323",
"E 	c #D78B5B",
"F 	c #17330F",
"G 	c #CB7F4F",
"H 	c #DF9363",
"I 	c #CF8353",
"J 	c #13230B",
"K 	c #0B1707",
"L 	c #2B230F",
"M 	c #676B4F",
"N 	c #53573B",
"O 	c #6F7357",
"P 	c #373F27",
"Q 	c #474F33",
"R 	c #470000",
"S 	c #5B6347",
"T 	c #3F472B",
"U 	c #9B3333",
"V 	c #8B2323",
"W 	c #430000",
"X 	c #6B0F0F",
"Y 	c #4F0000",
"Z 	c #332B13",
"` 	c #5F0707",
" .	c #171F07",
"..	c #474747",
"+.	c #1B1B1B",
"@.	c #131313",
"#.	c #232323",
"$.	c #232B0F",
"%.	c #2F371F",
"                                                                                                        ",
"                                                                                                        ",
"                                                                                                        ",
"                                                                                                        ",
"                                                                                                        ",
"                                                                                                        ",
"                                      . + @ @ @ + #                                                     ",
"                                    . . + @ @ @ + # +                                                   ",
"                                    . $ % & & % $ * + +                                                 ",
"                                  + = - ; > , ' ) & @ +                                                 ",
"                                + + ) @ @ + ! ~ { & ] . ^                                               ",
"                              . + + @ / ( ( / + + { ^ . ^ .                                             ",
"                              . . * / ( ] ] + @ _ / ^ : @ .                                             ",
"                              . _ < . ^ [ + } _ _ + | . 1 . 2                                           ",
"                                < 3 | | | | $ 4 } 5 | : . .                                             ",
"                        6 7 8 8 ) 4 } 4 4 4 $ 9 0 a } b . . c 6 d                                       ",
"                    c 7 6 7 8 8 6 $ 4 4 e $ f g h 0 i 6 7 7 c 6 d 6 d                                   ",
"                  j c 7 8 8 8 7 d 4 % % k l m n o p q i 7 8 r r 8 6 d i                                 ",
"                i j c 7 7 7 6 d i s 4 4 l t l n p 9 i d 7 7 : 8 c 6 j i i                               ",
"                i d 6 c c 6 i u d u s v s t w o 9 v d d c 7 c j 6 6 j d i                               ",
"                u i d d d i s u j d u w x y w o v u i d j j d j j j j i u                               ",
"                s s z l t t l u d i A B y l z v u d i u d d d d d d i u s                               ",
"                v f w y C C A l u A C C y z D s d j i u u i i i u u s D z                               ",
"                  z t C E E C t A C E C l D s u d i u v F F F v v f f k l z                             ",
"                  z l C E E C A G H I y D f v s u s v J K K L 3 f w t A t z                             ",
"                    k y C M x C I I I l e F F F F F F J K K K L f z t A A z                             ",
"                    z x N N y C I C l D F F F v v F F J J K K L e D w t x l O                           ",
"                      z P Q x y y x z e F F s s s F F F J K K L 3 f z w x l O                           ",
"                        P Q D w w z D F F v 9 R v F F F F J J J 3 e f z k S O                           ",
"                          T P D D D e v v s U V V u s v F J J J F P Q N S N N                           ",
"                          J v F F J J J J o 9 W v v s s v F J J J e D k x l w w                         ",
"                          v J J 9 W W p W W W W W 9 J F F F F J J e k y B A t w                         ",
"                        P Q T P F o 3 X X e X e e 3 o P P P L L P e D x A C A w                         ",
"                      P P Q T Q P R f h h f h Y Z 3 W v F F L } P P e k x C A z                         ",
"                      P P F P P J W f n n D D D D e W F F J J J P P e D x C A z                         ",
"                      P F F F J W W W W W W F W F F J J J F F F F J J e x C A z                         ",
"                      P ` v v v v F P X X P P P P F J F v v v v v F v s l I C y y                       ",
"                    v v U s s s s v F X X F P P F F F v s s s v v v F v A G t C y                       ",
"                    v s u u u s i s F J Y Y F F J F v F s s s u s v v v k k D B y                       ",
"                    s u u i u i u s F F J J J     J F s v u u u u s s v 3 e f y x                       ",
"                  s u i i i i i i u v F J J         F s s u i i i u u s e e k y                         ",
"                  s i i d d i u s v F J J             v u i i i i i u s v D y x                         ",
"                  s i d d d d i u u v J J  .4 4       F v s u i i i i u v k x v                         ",
"                  u i d d d d u v F F J  . .4 4 % % $ F s u i i d d d i s v v F                         ",
"                i u j d d d i s s v F $ % $ % % % % $ ) ..$ +.+.+.+.u d i u s v v F                     ",
"                i j d d d d j u v $ $ +.+.+.+.+.+.+.@...% ..@.@.@.u d d d i u i v F N                   ",
"                i u d d % ..) ) ) ..+.@.@.@.@.@.@.@.+.$   #.+.u d d d d i d i s v T N N                 ",
"                u s $ $ $ % ..% % % $ #.@.$ $ $ $ #.#.#.    d i u i i i u u d i u M S N                 ",
"                s $ #.+.+.+.+.#.+.#.+.+.  +.#.+.#.$.@.        i u u u u u s u u N M S N                 ",
"                  #.+.+.+.+.+.+.+.+.+.                        v u Q Q Q Q T T T Q P N T                 ",
"                    +.+.+.+.$.$.+.                              %.P P P P P P P T P Q                   ",
"                                                                    $.$.$.$.$.$. .$.                    "};
