/* XPM */
static char * marinedoom_s2_xpm[] = {
"56 57 96 2",
"  	c #FFC0CB",
". 	c #A78F77",
"+ 	c #BFA78F",
"@ 	c #9F876F",
"# 	c #937B63",
"$ 	c #836B57",
"% 	c #AF977F",
"& 	c #FF7F1B",
"* 	c #FF8F3B",
"= 	c #FFA35B",
"- 	c #6F5743",
"; 	c #AF4300",
"> 	c #373737",
", 	c #434343",
"' 	c #B79F87",
") 	c #7B634F",
"! 	c #2F2F2F",
"~ 	c #9B5B13",
"{ 	c #C39B2F",
"] 	c #7F7F7F",
"^ 	c #6F6F6F",
"/ 	c #4F4F4F",
"( 	c #474747",
"_ 	c #3B3B3B",
": 	c #AF7B1F",
"< 	c #D7BB43",
"[ 	c #777777",
"} 	c #636363",
"| 	c #7B7F63",
"1 	c #575757",
"2 	c #6B6B6B",
"3 	c #5B5B5B",
"4 	c #5F4B37",
"5 	c #8B735B",
"6 	c #9F8363",
"7 	c #272727",
"8 	c #574333",
"9 	c #DF670F",
"0 	c #B74700",
"a 	c #F37317",
"b 	c #775F4B",
"c 	c #43331B",
"d 	c #5BBF4F",
"e 	c #53AF47",
"f 	c #4B9F3F",
"g 	c #37732B",
"h 	c #4F3B23",
"i 	c #3F2F17",
"j 	c #3F832F",
"k 	c #232323",
"l 	c #5FCF57",
"m 	c #67DF5F",
"n 	c #2F6323",
"o 	c #1F4317",
"p 	c #874307",
"q 	c #732B00",
"r 	c #27531B",
"s 	c #439337",
"t 	c #5F4323",
"u 	c #1F170B",
"v 	c #6B4727",
"w 	c #DF9363",
"x 	c #D78B5B",
"y 	c #B37347",
"z 	c #9B633B",
"A 	c #7F532F",
"B 	c #332B13",
"C 	c #13230B",
"D 	c #CB5707",
"E 	c #BF7B4B",
"F 	c #CB7F4F",
"G 	c #17330F",
"H 	c #C34F00",
"I 	c #CF8353",
"J 	c #533F1F",
"K 	c #FFFF00",
"L 	c #EBDB57",
"M 	c #5B6347",
"N 	c #FFFFB3",
"O 	c #D75F0B",
"P 	c #6F7357",
"Q 	c #474F33",
"R 	c #3F472B",
"S 	c #774F2B",
"T 	c #4B371B",
"U 	c #373F27",
"V 	c #53573B",
"W 	c #2B230F",
"X 	c #1B1B1B",
"Y 	c #131313",
"Z 	c #875733",
"` 	c #232B0F",
" .	c #171F07",
"..	c #0B1707",
"+.	c #676B4F",
"@.	c #2F371F",
"                                            . . . +                                                             ",
"                                          @ . . . + +                                                           ",
"                                        # @ # $ $ @ + + %                                                       ",
"                                        # & * * * = + + %                                                       ",
"                                      - - ; ; ; ; > , # ' .                                                     ",
"                                    ) - ! ~ { { ] ^ / ( % . .                                                   ",
"                                    ) - _ : < ] [ } } ! % | . #                                                 ",
"                                  ) - $ , / / 1 2 3 / @ + | |                                                   ",
"                                    4 @ ( 5 5 5 } / @ + # -                                                     ",
"                                    # % 6 @ @ @ @ 5 $ # 7 8                                                     ",
"                                      9 0 a a a $ b 9 c ! - d e f f                                             ",
"                                    g h c 0 0 0 i i ! / [ d d e f f f j                                         ",
"                                  j g , ! ! ! 7 7 k k d l m m d e e f j n                                       ",
"                                g j { o p p ~ ~ p , j l l l d l l l d f n                                       ",
"                              g g { g o q q q o g e d { { e l m m m d f g r                                     ",
"                              g : : g n r p p : : < < < { { d l m m d e j r                                     ",
"                              g : ~ n ~ : ~ ~ { { { < < < < { { s s s g r                                       ",
"                              t u n ~ : : ~ : { { { f r v a * * w x y z t                                       ",
"                            A u B r ~ : : ~ : < < { g C D * * * E F z v t                                       ",
"                            A u c G o G G ~ : : : ~ G n D a * * x E A c G                                       ",
"                          # H & & H j G ~ : : : g g j g z a & & I z J t G                                       ",
"                          # < K K < f o { < L < { j r 9 9 a * = % @ t G                                         ",
"                        M & K N N K & o G o o r r s e & & z O * | P Q                                           ",
"                        M & K N N K & k k 7 k ! ! a * * & y z 7 Q R k                                           ",
"                        S * < K K < ; ( 7 c T H & * * & A S v 7 7 U k V                                         ",
"                        S * ; & & ; 7 y v H & & & a 9 t c W W k ! k 7 V U                                       ",
"                        t z c X X X Y F & & y A T t i W W W W W W W W U                                         ",
"                          t T k Y Y X Z v v v t W T c u ! W W W W W k W                                         ",
"                          W c c k Y X ! ! ! ! ! Q Q Q U ! k C C C C C G G                                       ",
"                                  G G G G G W U U U U ` k k G C C C G G G                                       ",
"                                  G G G G G W  .` ` `  .7 G G C C C G r o n                                     ",
"                                    G G G G C W  . . .W G G C C C G G o n n                                     ",
"                                    C o G G G C W  . .o G C G G G G o o g o                                     ",
"                                    G o o r o G C W W o G G o o o o n r g o                                     ",
"                                    o r o n r G G C C G G G r j j g n r j o                                     ",
"                                    C o r G r o C G C C o G r j j j g n r G                                     ",
"                                    C r r r o G G G C G o o r n n n n n n r                                     ",
"                                      r r r o G G G C G o r n n n r g g n r                                     ",
"                                      r o o G G o C C o n n n r r g g g g o                                     ",
"                                      r o o o o C G C G g j r n n g f f n r                                     ",
"                                      r r o o G G G C C C r { { & 9 V V o                                       ",
"                                      r n o o o G G C C ..: : 9 | +.M M G                                       ",
"                                      r r o o o G C `  .C ~ 9 D | +.M M U                                       ",
"                                      U +.+.Q U @.` `  .C U Q +.+.Q U U 7 U                                     ",
"                                        Q Q U U @.` ` ` ` ~ : { : ~ V V Q U                                     ",
"                                            U @.` ` ` ` `   U G G U V V P U                                     ",
"                                              @.` ` `  .`     Q V M M M +.U                                     ",
"                                              @.U ` `  .` `   R Q M +.+.M U                                     ",
"                                              ` @.` `  .` `     Q +.M M V                                       ",
"                                            Q U ` ` ` `  .U     R M V V U                                       ",
"                                          M Q W U ` ` `  .    U U P V V W                                       ",
"                                        U M Q U @.`  . .      U : : D D 7                                       ",
"                                        U +.Q U U ` `         k +.# V V U Q                                     ",
"                                                            : : : a D M M Q                                     ",
"                                                          D : { : a D M M 7                                     ",
"                                                          D : : a D U Q                                         ",
"                                                                                                                "};
