/* XPM */
static char * marinedoom_xpm[] = {
"57 57 78 1",
" 	c #FFC0CB",
".	c #9F876F",
"+	c #AF977F",
"@	c #9B7F6B",
"#	c #9F8363",
"$	c #8B735B",
"%	c #7B634F",
"&	c #B79F87",
"*	c #676B4F",
"=	c #3B3B3B",
"-	c #474747",
";	c #4F4F4F",
">	c #272727",
",	c #575757",
"'	c #777777",
")	c #838383",
"!	c #9F9F9F",
"~	c #636363",
"{	c #836B57",
"]	c #937B63",
"^	c #775F4B",
"/	c #BFA78F",
"(	c #6F6F6F",
"_	c #A78F77",
":	c #7B7F63",
"<	c #5F4B37",
"[	c #37732B",
"}	c #67533F",
"|	c #6F5743",
"1	c #2B230F",
"2	c #574333",
"3	c #3F832F",
"4	c #53AF47",
"5	c #5FCF57",
"6	c #67DF5F",
"7	c #434343",
"8	c #43331B",
"9	c #474F33",
"0	c #5B6347",
"a	c #6F7357",
"b	c #53573B",
"c	c #1F170B",
"d	c #5BBF4F",
"e	c #439337",
"f	c #6FEF67",
"g	c #2F2F2F",
"h	c #373F27",
"i	c #3F472B",
"j	c #17330F",
"k	c #373737",
"l	c #27531B",
"m	c #232323",
"n	c #2F6323",
"o	c #4B9F3F",
"p	c #1F4317",
"q	c #13230B",
"r	c #131313",
"s	c #1B1B1B",
"t	c #4B4B4B",
"u	c #7F532F",
"v	c #5B5B5B",
"w	c #A36B3F",
"x	c #BF7B4B",
"y	c #CF8353",
"z	c #DF9363",
"A	c #6B6B6B",
"B	c #4B371B",
"C	c #AB6F43",
"D	c #8F5F37",
"E	c #5F4323",
"F	c #B37347",
"G	c #6B4727",
"H	c #CB7F4F",
"I	c #533F1F",
"J	c #3F2F17",
"K	c #4F3B23",
"L	c #232B0F",
"M	c #2F371F",
"                                                         ",
"                          .+++.                          ",
"                         @.+++.@                         ",
"                        #@$%%%$@.                        ",
"                       ##&++++++.#                       ",
"                      ##*=-;;-=>*#                       ",
"                     ##*=,')!'~;={#                      ",
"                     #**=;~))~;;=*#]                     ",
"                      ^/@,~((~;;_:*                      ",
"                      <+_{;#+#;{/_                       ",
"                    [[}|1}{+&_{2#]                       ",
"                3456[[-7890a*b9}c]d4e                    ",
"               33456ff[g>>hiiihcjdd4e6d[        kk       ",
"              [3446f66elgg>1ccmjn46666d[[    k=>kk       ",
"              [e44o5o44oopjqqqpn3de6654e[  k>k=>mm       ",
"              n3eoen4ddddd3pp3ooo44e54oo[;gk>>rs         ",
"              pln3[jeoo4444[[oo3p34;oe7t,;g>sr           ",
"             uplpppqp33eeoe3[nr>srrg7;vv,trm             ",
"             uwxyzxlrn[[[[lsr>e33mmA~v;-=gs              ",
"             BCCxDE1rjjjsrspelvvv>gkt7gmmmm              ",
"             hwwE8>8rsqsl[o;vv777rssg>mmFFGE             ",
"            00._$birrs>l;~~;=gmmggggsr8wDuEE             ",
"            0i]HwuFrm>;v;kkmmmgggggn>mGEE81B             ",
"            sGFzzx(tv;7kgmmggggksgp[ 18B888B             ",
"            1uD----sg>gmmggggkk>rjp[  81EE               ",
"            r---kgmsggggggggmmssq].*                     ",
"            -kgmmmmsm>ggggmmIsssj*99                     ",
"             mmmmmmsk777=kBIIsssj99                      ",
"             mmmmmsc1BcsrsJ81sssp19                      ",
"              mmmmsIGGGsrs0h9sslns1l                     ",
"               mmm>88KGsss9hhsjllo[lj                    ",
"                 [nnI8Isss1gg1pnnlnnj                    ",
"                 nlee3e[[ej11pllppjpj                    ",
"                 [p[n[n3nplmq[lppppjq                    ",
"                 lplllnlpppmqjpppjjpq                    ",
"                  pjppppjljqjqqppjjpq                    ",
"                   ppppppppqqjjjjppp                     ",
"                  jjpppppppjpjjjjjpj                     ",
"                  jpppppllpjjpjjjjpq                     ",
"                   pplln[[pjjjjjjppj                     ",
"                   gi*:::*9 jjjjjpjq                     ",
"                    9b0*09g mjjjjjj                      ",
"                    i00b0bhhmjjjhhm                      ",
"                    h99999ihLLMhiim                      ",
"                    mjppjjbhLLMhi9g                      ",
"                    g99b0bihLLMiig                       ",
"                    mhiiihh iMMMMm                       ",
"                    g99009i Liii9                        ",
"                     99009g Lhihh                        ",
"                     ib000g MLMii                        ",
"                      b009  LLMMi                        ",
"                      gaa9  LLMMb                        ",
"                     b9..09 i9iii                        ",
"                     b0*ab9 ib09i                        ",
"                     b:__.bb                             ",
"                     ba._:0b                             ",
"                      0::a0                              "};
