/* XPM */
static char * marinedoom_d_xpm[] = {
"51 51 102 2",
"  	c #FFC0CB",
". 	c #9B7F6B",
"+ 	c #A78F77",
"@ 	c #AF977F",
"# 	c #2F2F2F",
"$ 	c #775F4B",
"% 	c #3B3B3B",
"& 	c #434343",
"* 	c #636363",
"= 	c #4F4F4F",
"- 	c #836B57",
"; 	c #E30000",
"> 	c #937B63",
", 	c #5B5B5B",
"' 	c #7F7F7F",
") 	c #ABABAB",
"! 	c #838383",
"~ 	c #6F6F6F",
"{ 	c #B79F87",
"] 	c #BFA78F",
"^ 	c #6B6B6B",
"/ 	c #9F876F",
"( 	c #D70000",
"_ 	c #6F5743",
": 	c #9F8363",
"< 	c #B30000",
"[ 	c #3F2F17",
"} 	c #67533F",
"| 	c #574333",
"1 	c #43331B",
"2 	c #CB0000",
"3 	c #FF0000",
"4 	c #533F2F",
"5 	c #272727",
"6 	c #5F0707",
"7 	c #530707",
"8 	c #670000",
"9 	c #4B9F3F",
"0 	c #53AF47",
"a 	c #3F832F",
"b 	c #575757",
"c 	c #777777",
"d 	c #5FCF57",
"e 	c #5BBF4F",
"f 	c #439337",
"g 	c #67DF5F",
"h 	c #37732B",
"i 	c #1F4317",
"j 	c #2F6323",
"k 	c #9B633B",
"l 	c #774F2B",
"m 	c #5F4323",
"n 	c #27531B",
"o 	c #17330F",
"p 	c #8F5F37",
"q 	c #B37347",
"r 	c #0B1707",
"s 	c #332B13",
"t 	c #533F1F",
"u 	c #6B4727",
"v 	c #7F532F",
"w 	c #875733",
"x 	c #DF9363",
"y 	c #BB5757",
"z 	c #6FEF67",
"A 	c #BF7B4B",
"B 	c #A36B3F",
"C 	c #6F7357",
"D 	c #AB6F43",
"E 	c #CF8353",
"F 	c #A73F3F",
"G 	c #9B3333",
"H 	c #4B371B",
"I 	c #D78B5B",
"J 	c #53573B",
"K 	c #7B7F63",
"L 	c #8F2B2B",
"M 	c #5B6347",
"N 	c #6B0F0F",
"O 	c #13230B",
"P 	c #474F33",
"Q 	c #771717",
"R 	c #731313",
"S 	c #373737",
"T 	c #8B735B",
"U 	c #232323",
"V 	c #8B2323",
"W 	c #474747",
"X 	c #7B634F",
"Y 	c #676B4F",
"Z 	c #5B0000",
"` 	c #4F0000",
" .	c #1B1B1B",
"..	c #CB7F4F",
"+.	c #373F27",
"@.	c #2B230F",
"#.	c #131313",
"$.	c #1F170B",
"%.	c #232B0F",
"&.	c #3F472B",
"*.	c #2F371F",
"=.	c #171F07",
"                                                      . + @ + .                                       ",
"                                                    # . + @ + . $                                     ",
"                                                  % # & * = & # $ - ;                                 ",
"                                                > % , ' ) ! ~ = & - ;                                 ",
"                                              > > { @ ] ] ! ^ * & / >                                 ",
"                                            - > @ @ ] { { @ @ - ( { - ]                               ",
"                                              - _ - + : ; > < _ @ + - ] -                             ",
"                                              _ [ } | | _ 1 2 3 > | - +                               ",
"                                              4 5 1 5 # 6 7 8 1 | | _                                 ",
"                                    9 9 9 9 9 = ' ~ ^ = % & 7 # # 1                                   ",
"                                9 0 9 9 9 9 9 a = = & = b b % ^ c * d e 0 a                           ",
"                              f 9 0 e e f 0 d g g f a 0 d d d d 0 g d e 0 a 9 h                       ",
"                              f 0 e 9 a e e d d e d e g g g g g d 0 g g d e 9 h                       ",
"                              i j h j 0 0 e e d e e e g g g g g g 9 g d d e 0 j j                     ",
"                            k l l m n a 9 9 9 9 e f e g g g d e a o i n j h f h j                     ",
"                          p k q q l i n n j h f d 0 h n n n j n i r s t u v u u t                     ",
"                        w p q x y p i i j h 0 d d z g g 0 a h h n r s u p A q B w w                   ",
"                      C w p D E F p i h a f h 9 z f y G f e 9 a h r s H p q x I B w                   ",
"                    J C K K v p L u j h 9 0 e d d d d d e h n f j o r [ u B I E D w l                 ",
"                    J B B M C w N u j 9 h j n n n n n j h 9 e a j n O o H l q B k w l                 ",
"                I B B I x B M l   P a n Q N N N N N N R S n j 0 a j i     m k T / T - J               ",
"                I B q I I B l       U U & G = V V G , Q W # U j a j n   S T X p v B p J               ",
"                k I A q B p     Y J U Z M l w w w w w l # Z ` U i i i S S S #  .D I B p               ",
"            E A q ....q v     Y Y J C C P w w w u t s H M J P +.@.+.W S U # #. .I I D p               ",
"            E A D q q ..p     Y P M K Y u w w w w w l m +.Y W = = S # # #.  U p D D k v               ",
"              E A B A D       M J Y Y P +.+.+.+.+.+.+.+.= b * , S  .#.        v p p l m               ",
"                  E D A       P +.+.+.+.[ U U #.#.S W b * , = S # % &         m l B p m E q           ",
"                            j +.n i o U #.#.#.#.U = b b = S # # # O +.        u k q E B E             ",
"                          a j j U U #.U # W b W W S # S # # # h o o i         w l l w B v             ",
"                        U a U #.U # W W b W # # U U U # # j n n o o O       D k k p k k v             ",
"                    U #.U #.U # W b b W # # U U U U U j a a j n i o O       D   k l B l A             ",
"                  S U #.U S W b W # #  . .U U U U U j a a a a j i o O           q   A                 ",
"                S S #.U S W # # U  . .U U U U     j i f a a f a n i O O                               ",
"            S = S =  .S # # U  . .U U # # U       O i f a a a f a i i O                               ",
"        S = S = = # # U U  . .U U U #  .#.O       j f h f a h a f j o o                               ",
"    # S S = = # U  . .U U U U U U j #.#.#.          i f f h h h f j o                                 ",
"    # S = # U  . . . .U # # # # n o #.#. .          f h j h h h j f j i                               ",
"      # U  . . . .     .#.#.#.$.h n #.#.O +.        h n j h h j n j o                                 ",
"       . . . . .      +.#.#.#.#.#.o o O +.+.%.        +.P P P +.i n j J                               ",
"         . .          +.C #.#.#.i O +.O +.+.%.%.      &.+.&.&.&.+.&.+.J                               ",
"                      5 P P P P +.+.5 5 +.+.+.%.5     *.+.+.+.+.+.*.*.J                               ",
"                        +.+.+.+.+.5 %.+.+.+.+.%.5       *.*.*.*.*.@.&.J                               ",
"                              =.=.%.=.=.%.%.@.%.S         =.=.=.%.*.+.J P                             ",
"                                      =.=.=.%.%.S           =.=.=.%.+.*.P                             ",
"                                    +.+.%.%.+.%.5             =.=.=.%.*.P                             ",
"                                    +.%.%.%.+.+.              %.%.+.J +.+.                            ",
"                                    +.%.%.%.+.              +.+.%.%.&.M P                             ",
"                                                            +.+.&.P M K +.                            ",
"                                                            +.&.P M C +.+.                            ",
"                                                              +.+.+.+.+.                              ",
"                                                                                                      "};
