/* XPM */
static char * marinedoom_d5_xpm[] = {
"52 52 79 1",
" 	c #FFC0CB",
".	c #937B63",
"+	c #8B735B",
"@	c #A78F77",
"#	c #6F5743",
"$	c #2F6323",
"%	c #27531B",
"&	c #1F4317",
"*	c #37732B",
"=	c #3F832F",
"-	c #4B9F3F",
";	c #AF977F",
">	c #836B57",
",	c #5B6347",
"'	c #676B4F",
")	c #439337",
"!	c #BFA78F",
"~	c #B79F87",
"{	c #636363",
"]	c #3F472B",
"^	c #53AF47",
"/	c #5FCF57",
"(	c #775F4B",
"_	c #533F2F",
":	c #9F876F",
"<	c #575757",
"[	c #53573B",
"}	c #5BBF4F",
"|	c #9B7F6B",
"1	c #17330F",
"2	c #373F27",
"3	c #474F33",
"4	c #67DF5F",
"5	c #13230B",
"6	c #5F4B37",
"7	c #232323",
"8	c #2F2F2F",
"9	c #373737",
"0	c #67533F",
"a	c #574333",
"b	c #3B3B3B",
"c	c #272727",
"d	c #774F2B",
"e	c #6B4727",
"f	c #6F7357",
"g	c #7B7F63",
"h	c #43331B",
"i	c #8F2B2B",
"j	c #474747",
"k	c #9B633B",
"l	c #CB7F4F",
"m	c #A36B3F",
"n	c #8F5F37",
"o	c #7F0000",
"p	c #AF4747",
"q	c #9B3333",
"r	c #7F532F",
"s	c #B37347",
"t	c #BF7B4B",
"u	c #875733",
"v	c #2B230F",
"w	c #771717",
"x	c #5B0000",
"y	c #9B0000",
"z	c #4F0000",
"A	c #730000",
"B	c #5F4323",
"C	c #AB6F43",
"D	c #3F2F17",
"E	c #332B13",
"F	c #972F2F",
"G	c #B30000",
"H	c #D70000",
"I	c #670000",
"J	c #4B371B",
"K	c #5B0707",
"L	c #6B0F0F",
"M	c #8B0000",
"N	c #533F1F",
"                                                    ",
"                                                    ",
"                                                    ",
"                                                    ",
"                                                    ",
"                                                    ",
"                                                    ",
"                                                    ",
"                                                    ",
"                                                    ",
"                                                    ",
"                                                    ",
"                                                    ",
"                                                    ",
"                                                    ",
"                                                    ",
"                                                    ",
"                                                    ",
"                                                    ",
"                                                    ",
"                                                    ",
"                                                    ",
"                                                    ",
"                                                    ",
"                                                    ",
"                                                    ",
"                                                    ",
"                                                    ",
"                                                    ",
"                                                    ",
"                                                    ",
"                                                    ",
"                                                    ",
"                                                    ",
"                                                    ",
"                                                    ",
"                                                    ",
"            ...++                                   ",
"          .@...++#$$$%%&    $*$$%&                  ",
"    *=-- @.@;;;@>#$$$%%&$&%=$*$$%&&       ,'''      ",
"  =)*=--@@@!!!~@;@>{&%**$&%=)))=$%&$%    ],'''''    ",
" *=)^//-@;(___(:!!;+{<=====*[,'%%$$$%%$$*][[[['',   ",
"**)^}}^|!~:::::!!!!;>=}^^-=*&12['3%$$%$$**$%1&3,,[  ",
"*=^-^^-;.#(>>>((:;~~|}444//^*&12[']5&%%%%$*$%1&3,[[ ",
"*=^-^^#>678999870+>:;}////}}-*&12]]11$*)=*$%%%&][,[ ",
"$*)=))a07877b8cb80a0:-}}}^-^)$dde,fg,%***=*$%&&]],[ ",
" $*$**hac9cc8ibj9aha$-}}}^=-)$kllmnfg,e5&%&&&&1]2[] ",
" &%%$$%(hooooopqa(h&%*==))*=*%rmstmnfslmdu111122v3  ",
"  11&&1>awxxxxya0>zA&%$$$$%*$%edrnnn,nkkmBuCvv5vv   ",
"   DEDD+(F(++GHG+0zI11&&&&&%&Jrnnnee2eeBrCtB555vhK  ",
"  EEEEE_hLh__IMI_aoMA5111111JBeeeNNDJNJ             ",
"                                                    "};
