/* XPM */
static char * marinedoom_d2_xpm[] = {
"43 43 97 2",
"  	c #FFC0CB",
". 	c #9B7F6B",
"+ 	c #A78F77",
"@ 	c #AF977F",
"# 	c #775F4B",
"$ 	c #BFA78F",
"% 	c #979797",
"& 	c #6B6B6B",
"* 	c #434343",
"= 	c #836B57",
"- 	c #937B63",
"; 	c #B79F87",
"> 	c #838383",
", 	c #4F4F4F",
"' 	c #6F5743",
") 	c #2F2F2F",
"! 	c #9F876F",
"~ 	c #3F2F17",
"{ 	c #67533F",
"] 	c #574333",
"^ 	c #43331B",
"/ 	c #D70000",
"( 	c #E30000",
"_ 	c #272727",
": 	c #530707",
"< 	c #9B0000",
"[ 	c #4B9F3F",
"} 	c #5BBF4F",
"| 	c #5FCF57",
"1 	c #7F7F7F",
"2 	c #6F6F6F",
"3 	c #B34F4F",
"4 	c #EF0000",
"5 	c #B30000",
"6 	c #53AF47",
"7 	c #3F832F",
"8 	c #439337",
"9 	c #575757",
"0 	c #5F0707",
"a 	c #DF9363",
"b 	c #B37347",
"c 	c #CB7F4F",
"d 	c #67DF5F",
"e 	c #37732B",
"f 	c #E79B6B",
"g 	c #AB6F43",
"h 	c #774F2B",
"i 	c #A36B3F",
"j 	c #9B633B",
"k 	c #875733",
"l 	c #533F1F",
"m 	c #2F6323",
"n 	c #6B4727",
"o 	c #1F4317",
"p 	c #27531B",
"q 	c #CF8353",
"r 	c #D78B5B",
"s 	c #17330F",
"t 	c #BF7B4B",
"u 	c #332B13",
"v 	c #7F532F",
"w 	c #5F4323",
"x 	c #0B1707",
"y 	c #8F5F37",
"z 	c #676B4F",
"A 	c #4B371B",
"B 	c #53573B",
"C 	c #7F1B1B",
"D 	c #9B3333",
"E 	c #831F1F",
"F 	c #13230B",
"G 	c #474F33",
"H 	c #EB9797",
"I 	c #430000",
"J 	c #6F7357",
"K 	c #373737",
"L 	c #6B0F0F",
"M 	c #670B0B",
"N 	c #7B634F",
"O 	c #8B735B",
"P 	c #5B6347",
"Q 	c #470000",
"R 	c #972F2F",
"S 	c #AF4747",
"T 	c #A73F3F",
"U 	c #8B2323",
"V 	c #373F27",
"W 	c #232323",
"X 	c #7B7F63",
"Y 	c #2B230F",
"Z 	c #1B1B1B",
"` 	c #3F472B",
" .	c #474747",
"..	c #131313",
"+.	c #232B0F",
"@.	c #2F371F",
"#.	c #171F07",
"                                        . + @ + .                                     ",
"                                    + @ . + @ + . #                                   ",
"                                  + + @ $ % % & * # =                                 ",
"                                - + @ $ ; ; > > , * = -                               ",
"                              = - ' = = = - ; @ = ) ! -                               ",
"                                = ~ { ] ] ' ^ ! / = ; = $ (                           ",
"                                ' ] ^ ^ ^ ] ] ' ' + = = $                             ",
"                              , ^ _ _ ) ) : < ^ ] ( ] +                               ",
"                    [ } | | [ , 1 2 & & 3 / 4 5 ) ^ ] ' 6 [ 7                         ",
"                8 } [ } | | [ 7 , , 9 9 , 0 < 9 8 } } } 6 [ 7 [ 7                     ",
"              8 8 } } } } a [ | b a c 7 6 } | | | 6 | d d d | [ 7 e                   ",
"            e 8 8 6 } [ [ b f f a g h 7 } | | | | d } d | } 6 [ 8 e                   ",
"            e 7 8 8 e e i b b j k h l 8 } | | | | | [ } } 6 6 6 [ 7 m                 ",
"          n o p m p b q r b k h n l m [ | | | | | [ m s s o p m m p m                 ",
"        h n h b r f r t j h l l l m 7 6 6 6 6 6 8 p s u l n v n n l o                 ",
"        h i i q r r c j h w p m e 7 6 7 m p o o s s x u n g t i v y                   ",
"        h z y g g j v n A m 7 6 | 6 | 6 8 7 e m p s x u v b t t y y                   ",
"        B z y k h w w A p e e C 7 | 8 D E e [ 7 m o F x v g t t i y                   ",
"        G B n w l A A p 7 [ 6 | d d d H 6 6 p I m p s F l y y g g y J                 ",
"          G G A   I p e e m p o o s s s o m e 8 7 p o s A n v v y k J                 ",
"                    m p K 0 0 L 0 M L M 0 0 o m 8 p o s w N ! ! O = P                 ",
"                    Q Q Q R S T D U T U L E ) Q o e o s   v y v i y B                 ",
"                  V W Q G P h k k k k k h ) Q Q Q x o x   v g r r i v                 ",
"                G V G P z G k k k n l u A P B V Q Q x x     y t r g v                 ",
"              G G z z X G h k k k k k n ~ V G z B s Y V V   h g g j                   ",
"            G G z G X X V ~ ~ ~ ~ ~ ~ ~ o G V P P p V V V ) h i y v                   ",
"            G G V V V V G B B B B B B B p o o V V s V ) ) ) h b t w                   ",
"            G m G V V s G P P P P P P B p m e m p ) W ) Z Z j a b v                   ",
"          e m m m p p p V V ` G G ` V B 7 m 7  . .) ....) p A w j b                   ",
"          e m e 7 e 7 8 p V V V V V V e [  ., 9 , K Z Z s o n A j j                   ",
"        m e 8 [ 8 7 6 7 o s F F F F s o ) ) , , K ) W m o j v h j                     ",
"      m m 7 8 [ 8 6 m m m o s F F )  .) Z Z ..) W 8 7 e m l j g                       ",
"      m 7 8 [ [ [ e e e o s x )  .) Z Z Z ..Z W 7 8 8 e m o l l                       ",
"    m 7 8 [ [ [ 7 7 e o s )  .) Z Z Z ....W W e 8 8 8 8 e p o F s                     ",
"  e m 8 [ 8 8 [ 7 e p o )  .) Z Z ....) ) W e 7 8 8 8 8 8 7 m p s s                   ",
"  e 8 7 8 8 8 8 [ 8 F s ) ..Z ....) ) W   p e 7 8 8 8 8 8 [ 8 p s s B                 ",
"  e m 8 8 8 e e 8 s p ) ) Z ....) W Z Z Z   s 7 [ 8 8 8 8 7 [ 8 e ` B B               ",
"  o o e e e o o o m  .,  .) W Z Z Z s ..Z     [ 8 7 8 8 7 e m 8 7 z P B               ",
"  V G G G V o F  ., ,  .) W Z Z F s s ..      [ 7 e e e m m p m o z P B               ",
"  _ V V V V V K , , K ) Z Z                   e e m G G G G V V V G B `               ",
"    +.@.@.@.) ) K ) Z Z                           V V V V V V V ` G G                 ",
"          ) ) ) Z Z                                 +.@.@.@.+.+.#.+.                  ",
"          W Z Z                                                                       "};
