/* XPM */
static char * MecaHitler_dead1_xpm[] = {
"128 127 75 1",
" 	c #C12D8D",
".	c #737373",
"+	c #8F8F8F",
"@	c #9B9B9B",
"#	c #B7B7B7",
"$	c #C3C3C3",
"%	c #DFDFDF",
"&	c #D3D3D3",
"*	c #EFEFEF",
"=	c #7F7F7F",
"-	c #4B4B4B",
";	c #676767",
">	c #3B3B3B",
",	c #232323",
"'	c #575757",
")	c #ABABAB",
"!	c #2F2F2F",
"~	c #000000",
"{	c #4B3B1B",
"]	c #630001",
"^	c #430001",
"/	c #2B0001",
"(	c #9F0001",
"_	c #0B0001",
":	c #FFBF9F",
"<	c #FFEBDF",
"[	c #FFE3D3",
"}	c #FFC7A7",
"|	c #D38353",
"1	c #2B230F",
"2	c #FFBB93",
"3	c #830001",
"4	c #770001",
"5	c #BF7B4B",
"6	c #FFCFB3",
"7	c #FF9F63",
"8	c #3B2F17",
"9	c #B77347",
"0	c #83532F",
"a	c #8F0001",
"b	c #9F633B",
"c	c #EB8F5B",
"d	c #DF8B57",
"e	c #570001",
"f	c #8B5B33",
"g	c #FFDBC7",
"h	c #FFB383",
"i	c #FFD7BF",
"j	c #4B0001",
"k	c #6F0001",
"l	c #F3975F",
"m	c #FFA773",
"n	c #CB7F4F",
"o	c #774F2B",
"p	c #6F4B27",
"q	c #43331B",
"r	c #AB6B43",
"s	c #573F1F",
"t	c #FFFFFF",
"u	c #A3673F",
"v	c #130001",
"w	c #935F37",
"x	c #004343",
"y	c #875333",
"z	c #5F4323",
"A	c #007F7F",
"B	c #005B5B",
"C	c #006F6F",
"D	c #008787",
"E	c #007373",
"F	c #370001",
"G	c #333333",
"H	c #1F0001",
"I	c #009F9F",
"J	c #00B7B7",
"                                                                                                                                ",
"                                                                                                                                ",
"                                                                                                                                ",
"                                                                                                                                ",
"                                                               .++@###@..                                                       ",
"                                                             $%%%%%%%%%%&##.                                                    ",
"                                                           $%**********%%&#@@.                                                  ",
"                                                    $$=--;%*****&#@-->>>>,, ==.                                                 ",
"                                                  $*&#=-.%****&#=;;----->,,, ==.                                                ",
"                                                 $*&#''-#****&@;'-------->,,  ..                                                ",
"                                                $**#@''-%***&@'->>--+$+;->>,,  ..                                               ",
"                                               $**&#+--)***&#=-!!>>@%**@;~{---->>                                               ",
"                                              $***&)=--%***##=>!!>>@%***@;~---->>                                               ",
"                                             #%**&#+;--********$;,,!;#***$@='--~~         ]]]^                                  ",
"                                             %***&#=;--*********$,,!!;#****@='-~~        ]///(^                                 ",
"                                            #****&#;_--**:<<[}&**|{11,+**&&*@;;>>        ]///(^]                                ",
"                                            %****##__--*&:<<[}}**2*|{,,$*''@@;;>>.       ]//3(^4^                               ",
"                                        4^^@****&**@ >>&5:[[6}2***67|8~+$90&*)=;;'.      _(((//(^^                              ",
"                                      ]]a^^#***&#**# >>b|:}}226***262cc'+d+**)=;;>'.      _//e4(^4^                             ",
"                                     ](ea__$**&);@## f>bc%*$@:***ggh::6ihd&**+=;) >'       _e](j4a/^                            ",
"                                    (]](kk_$*&#;;    f>b$**)@2***glm2[[ih|**&==).  >        _//4a^4^^                           ",
"                                    (4^_kk_$&#.; *&  9b%**$@m**&||m[}lnnn**&@==.;;           _eee4e]j                           ",
"                                   e](4e___$);;  +*# 5$**%@oo**b}}blloo0**&)@===;;'           _e]]/]j]                          ",
"                                   4(^/___ ).;    == #***$@pqq,qrrq,qqs**&)@=t=@;;''           //j]j]]                          ",
"                                   ^444e_  =;       @%***)=mn9u5}}5u9nm**)@=tt@@;;''           //jj]]_                          ",
"                                   ^^^/__  ;   &*   &**&)@<::**n[[nch22<}cctt%)@;;             ^^//vv_                          ",
"                                   ^^//__      )&*  &*&)@6g}d**l[[lhn7*g}h|tt%)+;;'            ^]]]vv_                          ",
"                                   vee///_     @$** @$)@l777nwowddwown777l5t%%)=;;            ]^^//vv_                          ",
"                                   vv//ee__ #   )$**t==wdd79uno,!!,onu97dd&t%)+;;;            kk^j/vv_                          ",
"                                    _vee/e__    =)$&*tt**rc&&7o~~~~o779c950%%+;;;            jjk]vj__                           ",
"                                    _vv/e4/e_#   ..=+tt**$&&&fooppoofnwdu*;%+;-;;           jkk/]vj_v                           ",
"                                     __ve/e//_       ~~s$*&$&qqqqqqqq0wn*&;;;--''          kkj]jv]_v                            ",
"                                      __v/e//___     ~~{w*$$&;=@@@@=;5n*&){~~--''        ]]/jk/]v_vv                            ",
"                                   xxxxxxxxxxxxxx&&    1y&$$c7mh22hm7cn*)y1~~!!!..xxxxxxxxxxx_j__vv                             ",
"                                 xxxxxxxxxxxxxxxx#&&   1p$$lc|99rr99|clnwp=>~!!!@.'xxxxxxxxxxxx__v                              ",
"                               x!!!!~~~~~~~~~**~~~#&&  ;;09cl*lm::ml7*&90%*.>!!~%''~~~~~~~~~~~~xx                               ",
"                              x!!~~~~~~~~~~~~**#~~~#&& ;;p0ndmh2::2hm&&0+*$.;!!%)'~~~~~~~~~~~~~v~x                              ",
"                             x!!~~~~~qpfbrr#r!##!!!u#&~~~~~w9dl**hmld9w!%*+.'qq)''q{{{{81~~~~~~~~~x                             ",
"                             !!~~~~qpoffwrrrr!!!!!!uu~~~~~~p0fu**99uf0p+%$+.>qq''q{zz{{{881~~~~~~~~~                            ",
"           kkeeee/k         x!~~~~qpfrrrwfbuu{{!!!!**u~~~@@!!!!!!!!!!!!%$+.'>zzzzzzz{zz{{qq81~~~~~~~~                           ",
"          kkeeeeee/k        x!~~~qpfrrrrrwfuu#{!!!!**uu~~@@!!!!!!!!!!!%$+.'>>zzzzzzz{zz{{{q881~~~~~~~                           ",
"         kkeeeeeeee/k       ~~~~AAAAAAAAAAAAAAAAAAAABxx!!!!@@~~~~~~~~%$+.;'>zxxxxxxBBAAAAAAAABBx~~~~~~!                         ",
"        kkeeeeeeeeee/k    ~~~~~AAAAAAAAAAAAAAAAAAAAAABxx!!!@@~~~~~~~+$+.;'>zzxxxxxBBAAAAAAAAAACxx~~~~~!                         ",
"       kk!---DDEE>>eevv,,!!~~~DDDDDDDDDDDDDDDDD**DDDDDEBxx!~~~~ooqq~..;;'>zxxxxxxBBAADDDDDDDDDDCBx~~~,,!!     k]]eeeek          ",
"      3k'---Ex,,xE>>!vv,,!!~~DDDDDDDDDDDDDDDDDD**#DD#DDABBxx~~~ooqq~~>>>zzzxxxxBBBCAADDDDDDDDDDDCxx~~,,!!    ke^^^^^^ek         ",
"     kk'->>Dx~~~~xB!>!v,,!,~BAAAAAAAAAAAAAAAAAAA##AAAAAAAAACC!!!!!!xxBBBBBBBBBBBBCCAAAAAAAAAAAAAABxx~,,!!~~ kFFFFFFvvvvk        ",
"     k'->>>Dx~~~~xB,!>!,,!,BDAAAAAAAAAAAAAAAAAAAAAAAAAAAAAACC!!!!!!xxBBBBBBBBBBBCCCAAAAAAAAAAAAAABxxx,,!!~~kFFFFFFFvvvvFk       ",
"     '->>>>Ex~~~,xB,!!>,,!,DDEECCCCCCCCCCCCCCCCCCCC##CC#CCCCC!!xxxxBBBBBBBBBBBCBCCCCCCCCCCCCCCCCCBBxx,!!!!vF!!>>------!vve      ",
"     '>>>>>!Ex,,xB,,!!!>,!BDDEECCCCCCCCCCCCCCCCCCCC##CCCCCCCC!!xxxxBBBBBBBBBBBCBCCCCCCCCCCCCCCCCCBBxx,!!!v!!>>!!!!!>--->!/e     ",
"   --->>>>>>!BBBB,,,!!!>>!EEEEEEEEEEEEEEEEEEEEEEEEEEEEEEEEEEE!!xxxxEEBBBBBBBBBCBCCCCCCCCCCCCCCCCCBBxx,>>>EEDD!!!!!!!!EEDD!ve    ",
"   -->>>>>>>>,,,,,,!!!!>>!EEEEEEEEEEEEEEEEEEEEEEEEEEEEEEEEEEE!!xxxxEEBBBBBBBBBCBCCCCCCCCCCCCCCCCCBBxx,>>Ex~~xE!!!!!!Ex~~xE!/    ",
"   --DDEE>>>,~~~,,!!!DDEE>BEEEEEEEEEEEEEEEEEEEEEEEEEEEEEEEEEE!!GGGGEBBBBBBBBBBBBBBBBBBBBBBBBBBBBBBBxx,>Bx~~~~xD!!!!Bx~~~~xD!    ",
"   -Ex,,xE>,~EEBx,,!Ex,,xEBBBBBBBBBBBBBBBBBBBBBBBBBBBBBBBBBBB!!GGGGEEBBBBBBBBBBBBBBBBBBBBBBBBBBBBBBxx,>Bx~~~~xD!!!!Bx~~~~xD-    ",
"   Dx~~~~xB~B,~~,x,Dx~~~~xBBBBBBBBBBBBBBBBBBBBBBBBBBBBBBBBBBB!!GGGGBBBBBBBBBBBBBBBBBBBBBBBBBBBBBBBBxx,-Bx~~~~xE!!!!Bx~~~~xE--   ",
"   Dx~~~~xB~x~~~~B,Dx~~~~xBxxxxxxxxxxxxxxxxxxxxxxxxxxxxxxxxxx!!GGGGBBxxxxxxxxxxxxxxxxxxxxxxxxxxxxxxx!,->Bx~~xE!,,,,!Bx~~xE>>-   ",
"   Ex~~~,xB~x,~~,B,Ex~~~,xxxxxxxxxxxxxxxxxxxxxxxxxxxxxxxxxxxx!!GGGGxxxxxxxxxxxxxxxxxxxxxxxxxxxxxxxxx!,>!!BBBB!,,~~~,!BBBB>>>--  ",
"   !Ex,,xB,,~xBBB,,!Ex,,xBxxxxxxxxxxxxxxxxxxxxxxxxxxxxxxxxxxx!!GGGGxxxxxxxxxxxxxxxxxxxxxxxxxxxxxxxxx!!!!!!!!!,,xBEE~,!!>>>>>>-  ",
"   !!BBBB,,,!~~~,,,!,BBBB,xxxxxxxxxxxxxxxxxxxxxxxxxxxxxxxxxxx!!GGGGxxxxxxxxxxxxxxxxxxxxxxxxxxxxxxxxx!!!!!!!!!,x,~~,B~!!!>>>>>-  ",
"   -,,,,,,,,!DDEE,!!!,,,,xxGGGGGGGGGGGGGGGGGGGGGGGGGGGGGGGGGG!!GGGGxxGGGGGGGGGGGGGGGGGGGGGGGGGGGGGGG!!!!!!!!!,B~~~~x~!!!!!>>>-  ",
"    !,,,,,,!Ex,,xE!!!!,,,xxGGGGGGGGGGGGGGGGGGGGGGGGGGGGGGGGGG!!GGGGxxGGGGGGGGGGGGGGGGGGGGGGGGGGGGGGG!!!!!!!!!,B,~~,x~!!!!!!>>>  ",
"     !!!!!!Dx~~~~xB!!!!,~xxGGGGGGGGGGGGGGGGGGGGGGGGGGGGGGGGGG!!GGGGxxGGGGGGGGGGGGGGGGGGGGGGGGGGGGGGG!!!!!EEDD,,BBBx~!EEDD!!!!>  ",
"     ,!!!!!Dx~~~~xB!!!,  xxGGGGGGxxxxxxxxxxxxxxxxxxxxxxxx!!GG!!GGGGxxGGGGxxxxxxxxxxxxxxxxxxxxxxGGGGG!,!!Ex~~xE!,~~~!Ex~~xE!!!   ",
"     F!!!!!Ex~~~,xB!!,_  xxGGGGGGxxxxxxxxxxxxxxxxxxxxxxxx,!GG!!GGGGxxGGGGxxxxxxxxxxxxxxxxxxxxxxGGGGG!,!Bx~~~~xD!!!!Bx~~~~xD!!   ",
"     ]],!!!!Ex,,xB,,,__   xxGGGGGGxxxxxxxxxxxxxxxxxxxxxxx,,GG!!GGGGxxGGGGxxxxxxxxxxxxxxxxxxxx,,GGGGG!!!Bx~~~~xD!!!!Bx~~~~xD!    ",
"     ]]FF,!!!BBBB,,____   xxxGGGGGGxxxxxxxxxxxxxxxxxxxxxx,,GG!!GGGGxxGGGGxxxxxxxxxxxxxxxxxxxx,,GGGGG!!!Bx~~~~xE!!!!Bx~~~~xE!    ",
"           ~~~~~~~~~~      xxxGGGGGGG!,,,,,,,,,,,,,,,,,,,,!GG!!GGGGxxGGGGGG!!!!!!!!!!,,,,,,,,,!GGGGG!! ~Bx~~xE!!!!!!Bx~~xE,H    ",
"           uuffffzzzz       xxGGGGGGG!!!!!!,,,,,,,,,,,,,,!!GG!!GGGGxxGGGGGG!!!!!!,,,,,,,,,,,,!!GGGG!!   ~BBBB!!!!!!!!BBBB!_H    ",
"       __~~~~~~~~~~~~~~~~    xxGGGGGGGGGGGGGGGGGGGGGGGGGGGGGG!!GGGGxxGGGGGGGGGGGGGGGGGGGGGGGGGGGGG!!     ~,,,!!!!!!!!!!!,__H    ",
"       __~~~~~~~~~~~~~~~~    xxGGGGGGGGGGGGGGGGGGGGGGGGGGGGGG!!GGGGxxGGGGGGGGGGGGGGGGGGGGGGGGGGGG!!!     ~~,,,,!!!!!!!,,___H    ",
"       eeFFF!--->>>>>!F__     xxGGGGGGGGGGGGGGGGGGGGGGGGGGGGG!!GGGGxxGGGGGGGGGGGGGGGGGGGGGGGGGGG!!!          uuffffffzz         ",
"       eeF!>--->!!!!!>>!_      xxGGGGGGGGGGGGGGGGGGGGGGGGGGGG!!GGGGxxGGGGGGGGGGGGGGGGGGGGGGGGGGG!!           uuffffffzz         ",
"       ee!DDEE!!!!!!!!DDEE     xxxGGGGGGGGGGGGGGGGGGGGGGGGGGG!!GGGGxxGGGGGGGGGGGGGGGGGGGGGGGGGG!!!     __~~~~~~~~~~~~~~~~       ",
"       e!Ex~~xE!!!!!!Ex~~xE     xxGGGGGGGGGGGGGGGGGGGGGGGGGGG!!GGGGxxGGGGGGGGGGGGGGGGGGGGGGGGG!!!      __~~~~~~~~~~~~~~~~_      ",
"       !Dx~~~~xB!!!!Dx~~~~xB     !!!!!!!!!!!!!!!!!!!!!!!!!!!!,,~~~~,,!!!!!!!!!!!!!!!!!!!!!!!!!!!       eeFF>>EEDD---!FF___      ",
"       -Dx~~~~xB!!!!Dx~~~~xB     !!!!!!!!!!!!!!!!!!!!!!!!!!!!,,~~~~,,!!!!!!!!!!!!!!!!!!!!!!!!!!        ee!>>Ex,,xE---'!___      ",
"      --Ex~~~~xB!!!!Ex~~~~xB   FFFF~~~~~~~~~~~~~~~~~~~~~~~~~~~~~~~~~~~~~~~~~~~~~~~~~~~~~~~~~~~~~~      e!>!Bx~~~~xD>>-'!__      ",
"      ->>Ex~~xB!,,,,!Ex~~xB>   FFFF~~~~~~~~~~~~~~~~~~~~~~~~~~~~~~~~~~~~~~~~~~~~~~~~~~~~~~~~~~~~~~      !>!,Bx~~~~xD>>>-'!_      ",
"     -->>>BBBB!,~~~,,!BBBB!!>  HH~~~~~~~~~~~~~~~~~~~~~~~~~~~~~~~~~~~~~~~~~~~~~~~~~~~~~~~~~~~~~~~~     !>!!,Bx,~~~xE>>>>-'!      ",
"     ->>>>>>!!,~EEBx,,!!!!!!!  HH~~~~~~~~~~~~~~~~~~~~~~~~~~~~~~~~~~~~~~~~~~~~~~~~~~~~~~~~~~~~~~~~     >!!!,,Bx,,xE!>>>>>'!      ",
"     ->>>>>!!!~B,~~,x,!!!!!!!      ~~~~~~~~~~~~~~~~~~~~~~~~~~~~~~~~~~~~~~~~~~~~~~~~~~~~~~~~~~~~      >>!!!,,,BBBB!>>>>>>--!     ",
"     ->>>!!!!!~x~~~~B,!!!!!!!      ~~~~~~~~~~~~~~~~~~~~~~~~~~~~~~~~~~~~~~~~~~~~~~~~~~~~~~~~~~~~      >>!!!!,,,,,,>>>>>>>>-!!    ",
"     >>>!!!!!!~x,~~,B,!!!!!!!      ~~~~~~~~~~~~~~~~~~~~~~~~~~~~~~~~~~~~~~~~~~~~~~~~~~~~~~~~~~~~     >EEDD!!!,,~~~,>>>EEDD--!    ",
"     >!!!!DDEE!~xBBB,,DDEE!!!      ~~~~~~~~~~~~~~~~~~~~~~~~~~~~~~~~~~~~~~~~~~~~~~~~~~~~~~~~~~~~     Ex,,xE!,,xBEE~,>Ex,,xE-!    ",
"      !!!Ex~~xE!~~~,!Ex~~xE!,  BBxx,,~~~~~~~~~~~~~~~~~~~~~~~~!!!!EEBBBBBBBBBBBBBBBBBBBBBBBBBBBBBB  Bx~~~~xD,x,~~,B~Bx~~~~xD!    ",
"      !!Dx~~~~xB!!!!Dx~~~~xB,  BBxx,,~~~~~~~~~~~~~~~~~~~~~~~~!!!!EEBBBBBBBBBBBBBBBBBBBBBBBBBBBBBB  Bx~~~~xD,B~~~~x~Bx~~~~xD!    ",
"       !Dx~~~~xB!!!!Dx~~~~xB   BBxx,,,,,,,,,,,,,,,,,,,,,,,,,,!!!!EEBBBBBBBBBBBBBBBBBBBBBBBBBBBBBB  Bx,~~~xE,B,~~,x~Bx,~~~xE!    ",
"       jEx~~~~xB!!!!Ex~~~~xB   BBxx,,,,,,,,,,,,,,,,,,,,,,,,,,!!!!xxxxxxxxxxxxxxxxxxxxxxxxxxxxxxxx  ,Bx,,xE!,,BBBx~,,Bx,,xE!!    ",
"       j,Ex~~xB!!!!!!Ex~~xB    BExxxxxxxxxxxxxxxxxxxxxxxxxxxxxxxxxxxxxxxxxxxxxxxxxxxxxxxxxxxxxxxx   ,BBBB,!,,,~~~!,,,BBBB!!,    ",
"       jj!BBBB!!!!!!!!BBBB     BExxxxxxxxxxxxxxxxxxxxxxxxxxxxxxxxxxxxxxxxxxxxxxxxxxxxxxxxxxxxxxxx   ,,,,,!!!,EEDD!,,,,,,,,,     ",
"       jjF,!!!!!!!!!!!,,,      xx!!!!!!!!!!!!!!!!!!!!!!!!!!!!!!,,xx!!!!!!!!!!!!!!!!!!!!!!!!!xxxxx    ,,,!!!!Ex,,xE!,,,,,,!      ",
"       jjFF,,!!!!!!!,,,~~      xx!!!!!!!!!!!!!!!!!!!!!!!!!!!!!!,,xxxxxxxxxxxxxxxxxxxxxxxxxxxxxxxx    ,,!!!!Bx~~~~xD!!!!!!!      ",
"       jjvvvv______~~~~~~      xx!!!!!!!!!!!!!!!!!!!!!!!!!!!!!!,,xxxEBBBBBBBBBBBBBBBBBBBBBBBBx!xx     ,,!!!Bx~~~~xD!!!!!,_      ",
"                               xx!!!!!!!!!!!!!!!!!!!!!!!!!!!!!!,,xxBEBBBBBBBBBBBBBBBBBBBBBBBBx!xx      ,,!!Bx,~~~xE!!!!!~_      ",
"                                 ,,,,,,,,,,,,,,,,,,,,,,,,,,,,,,,,xxBEBBBBBBBBBBBBBBBBBBBBBBBBx!xx      j,,,,Bx,,xE!!!!,~~_      ",
"                                 x,,,,,,,,,,,,,,,,,,,,,,,,,,,,,,,xxBEEEEEEEEEEEEEEEEEEEEEEEEEEEEEDE    jjF,,,BBBB!!!,FF~~_      ",
"                                 Ex!!!!!!!!!!!!!!!!!!!!!!!!!!,,  xxDDDDDDDDDDDDDDDDDDDDDDDDDDDDDDDD    jjvvvv______~~~~~~_      ",
"                                 Ex!!!!!!!!!!!!!!!!!!!!!!!!!!,,  xxDIIIIIIIIIIIIIIIIIIIIIIIIIIIIIID                             ",
"                                 Ex!!!!!!!!!!!!!!!!!!!!!!!!!!,,    IIIIIIIIIIIIIIIIIIIIIIIIIIIIIIII                             ",
"                                EEx!!!!!!!!!!!!!!!!!!!!!!!!!!,,  --IIDDDDDDDDDDDDDDDDDDDDDDDDDDDDII                             ",
"                             BBBEBx!!!!!!!!!!!!!!!!!!!!!!!!!!,,  ;;IIDDDDDDDDDDDDDDDDDDDDDDDDDDDDII;;                           ",
"                             EDEEB!!!!!!!!!!!!!!!!!!!!!!!!!!!!,  ..DIEEEEEEEEEEEEEEEEEEEEEEEEEEEEID..                           ",
"                             EDDEBGGGGGGGGGGGGGGGGGGGGGGGGGGG,!  ''DDEEEEEEEEEEEEEEEEEEEEEEEEEEEEDD''                           ",
"                             DDDEBGGGGGGGGGGGGGGGGGGGGGGGGGGG,!  >>EDBBBBBBBBBBBBBBBBBBBBBBBBBBBBDE>>                           ",
"                         DD--DDDEBxxxxxxxxxxxxxxxxxxxxxxxxxxx!!!!>>BEBBBBBBBBBBBBBBBBBBBBBBBBBBBBEB>>                           ",
"                         DD;;DDEEBBBBBBBxxxxxxxxxxxxxxxxxxxxx!!!!  BBxxxxxxxxxxxxxxxxxxxxxxxxxxxxBB                             ",
"                         DD..EDEBBBBBBBBBxxxxxxxxxxxxxxxxxxxx!>>>  xBxxxxxxxxxxxxxxxxxxxxxxxxxxxxBx                             ",
"                         DD''EEBxxxxxxxxxxxxxxxxxxxxxxxxxxxxx!>>>  xx!!!!!!!!!!!!!!!!!!!!!!!!!!!!xx                             ",
"                         DD>>BEBxxxxxxxxxxxxxxxxxxxxxxxxxxxxG!!!!  xx!!!!!!!!!!!!!!!!!!!!!!!!!!!!xx                             ",
"                         DD>>BBxGGGGGGGGGGGGGGGGGGGGGGGGGGGGG!!!!                                                               ",
"                         DDDDxBx!!!!!!!!!!!!!!!!!!!!!!!!!!!!!!,,,      DDBBBxxxxxxxxxxxxxxxxx!!                                 ",
"                         DDDDxxx!!!!!!!!!!!!!!!!!!!!!!!!!!!!!!,,,      DDEBBBxxxxxxxxxxxxxxxx!!                                 ",
"                         DDEExx!,,,,,,,,,,,,,,,,,,,,,,,,,,,,,,,,,      DDEEBBBxxxxxxxxxxxxxxx!!                                 ",
"                         DDEExx!,,,,,,,,,,,,,,,,,,,,,,,,,,,,,,,,,      DDEEEBBBxxxxxxxxxxxxxx!!                                 ",
"                         DDEEEEEEEEBBxx,,,,,,,,,,,,,,!!!!!!!!!!,,      DDEEEEBBBBxxxxxxxxxxxx!!                                 ",
"                         EIDEEEEEEEBBxx,,,,,,,,,,,,,,!!!!!!!!!!,,      EEBBBBBBBBBBBBBBBBBBBB!!                                 ",
"                         EIDEEEEEEEEBxx              !!!!!!!!!!,,      EEBBBBBBBBBBBBBBBBBBBB!!                                 ",
"                         EIDDEEEEEEEExx              !!!!!!!!!!,,      EEBBBBBBBBBBBBBBBBBBBB!!                                 ",
"                         EIDDDEEEEEEExx              !!!!!!!!!!,,EEEEEEEEBBBBBBBBBBBBBBBBBBBB!!xxxxxxxx                         ",
"                         EIDDDDDEEEEExx              !!!!!!!!!!,,EEEEEEEEBBBBBBBBBBBBBBBBBBBB!xBBBBBBBx                         ",
"                         EBx!!!!!!!!!!!              ,,,,,,,,,,,,EEEEEEEEEEEEEEEEEEEEEEEEEEEEEEEEEEEEBx                         ",
"                         Bx!!!!!!!!!!!!              ,,,,,,,,,,,,EEEEEEEEEEEEEEEEEEEEEEEEEEEEEEEEEEEEBx                         ",
"                                                                 EDEEEEEEEEEExxxxxxxxxxxxEEEEEEEEEEEEBx                         ",
"                                                                 EDEEEEEEEEEExxxxxxxxxxxxDEEEEEEEEEEEBx                         ",
"                                                                 DIEEEEEEEEEExxxxxxxxxxxxIDEEEEEEEEEEBx                         ",
"                                                                 DIIDDDDDDDEExxxxxxxxxxxxJIDDDDDDDDDDBx                         ",
"                                                                 EExxxxxxxxxx            Bxxxxxxxxxxx!!                         ",
"                                                                 EBxxxxxxxxxx            xxxxxxxxxxxx!!                         "};
