/* XPM */
static char *_27_419a6d5fd539e64bfe3998a0380ed3e502b91349d0abb1e8a5ade33e2e02aefb[] = {
/* columns rows colors chars-per-pixel */
"64 64 29 1 ",
"  c black",
". c gray11",
"X c #28200C",
"o c #202020",
"O c #2C2C2C",
"+ c gray19",
"@ c #343434",
"# c gray22",
"$ c #7C0000",
"% c #044000",
"& c #044C00",
"* c #400040",
"= c #580058",
"- c #6C0070",
"; c #484848",
": c gray33",
"> c #646464",
", c gray44",
"< c #7C7C7C",
"1 c #840084",
"2 c #28e010",
"3 c #28e010",
"4 c gray55",
"5 c #989898",
"6 c gray66",
"7 c #B4B4B4",
"8 c #C0C0C0",
"9 c gainsboro",
"0 c #ECECEC",
/* pixels */
"2222222222222222222222222222222222222222222222222222222222222222",
"2222222222222222222222222222222222222222222222222222222222222222",
"2222222222222222222222222222222222222222222222222222222222222222",
"2222222222222222222222222222222222222222222222222222222222222222",
"2222222222222222222222222222222222222222222222222222222222222222",
"2222222222222222222222222222222222222222222222222222222222222222",
"2222222222222222222222222222222222222222222222222222222222222222",
"2222222222222222222222222222222222222222222222222222222222222222",
"2222222222222222222222222222222222222222222222222222222222222222",
"2222222222222222222222222222222222222222222222222222222222222222",
"2222222222222222222222222222222222222222222222222222222222222222",
"2222222222222222222222222222222222222222222222222222222222222222",
"2222222222222222222222222222222222222222222222222222222222222222",
"2222222222222222222222222222222222222222222222222222222222222222",
"2222222222222222222222222222222222222222222222222222222222222222",
"2222222222222222222222222222222222222222222222222222222222222222",
"2222222222222222222222222222222222222222222222222222222222222222",
"2222222222222222222222222222222222222222222222222222222222222222",
"2222222222222222222222222222222222222222222222222222222222222222",
"2222222222222222222222222222222222222222222222222222222222222222",
"2222222222222222222222222222222222222222222222222222222222222222",
"2222222222222222222222222222        2222222222222222222222222222",
"2222222222222222222222222222O;;;;;; 2222222222222222222222222222",
"2222222222222222222222222222o>7755>o2222222222222222222222222222",
"2222222222222222222222222222;894798;2222222222222222222222222222",
"2222222222222222222222222222<6<4><6<2222222222222222222222222222",
"22222222222222222222222-2222<897498<2222222222222222222222222222",
"2222222222222222222222222222257667522222222-22222222222222222222",
"2222222222222222222222222222156996<22122222222222222222222222222",
"2222222222222222222222221222257777:22222322222222222222222222222",
"222222222222222222222-232222&7:,,,:&2222222222222222222222222222",
"22222222222222222222-2222&1&&#1474#1&1O222-222222222222222222222",
"222222222222222222222&&&&&&1&;;;5;&&*&@@OO2222222222222222222222",
"2222222222222222222&&&&%%%-&&>5<o,&&&&&-@@@OO2222222222222222222",
"222222222222222&&&%%%%%OOO%&->,,,#*$$1O@%@O@@OOO2222222222222222",
"2222222222222224>OOOOOOoOoO-=#####**%oo+OOOO@@O:4222222222222222",
"2222222222222268>OOooooooo1==7;###*3*o-oooXOOO@,>,22222222222222",
"222222222222229::oooo2222oo**07 ,#=*.. 2222ooOO:>:22222222222222",
"2222222222222262222222222-*1*7> O#1... 2-22222222:22222222222222",
"22222222222222222222222122o*%::;;#**  X*222222222222222222222222",
"22222222222222222222222212=O%%###Oo 1 X22=2222222222222222222222",
"222222222222222222222-2222O1%%OOOO=... =222222222222222222222222",
"2222222222222222222222222XoOOO   ....o 2222222222222222222222222",
"2222222222222222222222222X%&&&%+o ......222222222222222222222222",
"2222222222222222222222222%&&&&&+o.      222222222222222222222222",
"222222222222222222222222%&&&&%%O .....  222222222222222222222222",
"222222222222222222222222&&&&&%Oo ....... 22222222222222222222222",
"22222222222222222222222&%%%%&%Oo ..oooooo22222222222222222222222",
"22222222222222222222222    oo&Oo ..oooooo22222222222222222222222",
"2222222222222222222222 ooooo %o22  ooooooo2222222222222222222222",
"2222222222222222222222 ###oo %O222o..ooooo2222222222222222222222",
"2222222222222222222222#   o  O2222o ..oooo2222222222222222222222",
"2222222222222222222222       22222+ooooooo2222222222222222222222",
"2222222222222222222222      2222222 ooooo 2222222222222222222222",
"22222222222222222222222     2222222      22222222222222222222222",
"22222222222222222222222     2222222      22222222222222222222222",
"222222222222222222222222   222222222     22222222222222222222222",
"22222222222222222222222222222222222     222222222222222222222222",
"22222222222222222222222222222222222      22222222222222222222222",
"22222222222222222222222222222222222      22222222222222222222222",
"22222222222222222222222222222222222      22222222222222222222222",
"222222222222222222222222222222222222    222222222222222222222222",
"2222222222222222222222222222222222222222222222222222222222222222",
"2222222222222222222222222222222222222222222222222222222222222222"
};
