/* XPM */
static char *_188_4c8941b596976473e29e468f7e77c341066891e85a956eeab5f9d7a4a9b9ca33[] = {
/* columns rows colors chars-per-pixel */
"64 64 29 1 ",
"  c black",
". c gray11",
"X c #28200C",
"o c #202020",
"O c #2C2C2C",
"+ c gray19",
"@ c #343434",
"# c gray22",
"$ c #400000",
"% c #044000",
"& c #044C00",
"* c #400040",
"= c #580058",
"- c #6C0070",
"; c #484848",
": c gray33",
"> c #646464",
", c gray44",
"< c #7C7C7C",
"1 c #840084",
"2 c #28e010",
"3 c #9C009C",
"4 c gray55",
"5 c #989898",
"6 c gray66",
"7 c #B4B4B4",
"8 c #C0C0C0",
"9 c gainsboro",
"0 c #ECECEC",
/* pixels */
"2222222222222222222222222222222222222222222222222222222222222222",
"2222222222222222222222222222222222222222222222222222222222222222",
"2222222222222222222222222222222222222222222222222222222222222222",
"2222222222222222222222222222222222222222222222222222222222222222",
"2222222222222222222222222222222222222222222222222222222222222222",
"2222222222222222222222222222222222222222222222222222222222222222",
"2222222222222222222222222222222222222222222222222222222222222222",
"2222222222222222222222222222222222222222222222222222222222222222",
"2222222222222222222222222222222222222222222222222222222222222222",
"2222222222222222222222222222222222222222222222222222222222222222",
"2222222222222222222222222222222222222222222222222222222222222222",
"2222222222222222222222222222222222222222222222222222222222222222",
"2222222222222222222222222222222222222222222222222222222222222222",
"2222222222222222222222222222222222222222222222222222222222222222",
"2222222222222222222222222222222222222222222222222222222222222222",
"2222222222222222222222222222222222222222222222222222222222222222",
"2222222222222222222222222222222222222222222222222222222222222222",
"2222222222222222222222222222222222222222222222222222222222222222",
"22222222222222222222222222222oooooo22222222222222222222222222222",
"2222222222222222222222222222Ooooooo 2222222222222222222222222222",
"2222222222222222222222222222oooooooo2222222222222222222222222222",
"2222222222222222222222222222o  ooo o2222222222222222222222222222",
"2222222222222222222222222222<;#OO#;>2222222222222222222222222222",
"2222222222222222222222222222<>544<>,2222222222222222222222222222",
"2222222222222222222222222222<894798:2222222222222222222222222222",
"222222222222222222222-222222:6,4>,6#2222222222222222222222222222",
"22222222222222222222222222&&O<6746<OOOO222-222222222222222222222",
"222222222222222222222222&&&&&><<<<:@OO@@O22222222222222222222222",
"2222222222222222222222&&&-&-&#::::#@OO@-@O2222222222222222222222",
"22222222222222222222&&%&&%@%*1%%OOOo*1O@%@@O22222222222222222222",
"2222222222222222222&&&O%%oO=%%O1%*%OOoo+O@O@O2222222222222222222",
"222222222222222222&&%%OooooO-O,;=OO3oo-o@OX%@O222222222222222222",
"2222222222222222264>%OOo2ooo*;5;;.=$$. XXOo@%O222222222222222222",
"2222222222222222298>Oo222-*1*,o,o#1*.  222OO>4222222222222222222",
"222222222222222226::222222o**;####**  X22222%>222222222222222222",
"22222222222222222222222222=OO0 ,:#o 1 X22222O>222222222222222222",
"22222222222222222222222222O1O> O;O=... 2222222222222222222222222",
"2222222222222222222222222Xo%%O   ....o 2222222222222222222222222",
"2222222222222222222222222X%%%&++o.......222222222222222222222222",
"2222222222222222222222222XO@#@&+ooooo...222222222222222222222222",
"2222222222222222222222222X&&&OOO o..    222222222222222222222222",
"2222222222222222222222222&&&&%Oo    .... 22222222222222222222222",
"2222222222222222222222222&&&&%Oo ..oooooo22222222222222222222222",
"222222222222222222222222&&&&&&Oo ..oooooo22222222222222222222222",
"222222222222222222222222&&&&&%ooo  ooooooo2222222222222222222222",
"22222222222222222222222&%%%%&%Oooo ..ooooo2222222222222222222222",
"22222222222222222222222%%%%O%Ooo22o ..oooo2222222222222222222222",
"22222222222222222222222%O%%%Ooo222+ooooooo2222222222222222222222",
"22222222222222222222222    oooo2222 ooooo 2222222222222222222222",
"2222222222222222222222 ooooo o22222      22222222222222222222222",
"2222222222222222222222 ###oo 222222      22222222222222222222222",
"2222222222222222222222o##Oo 22222222     22222222222222222222222",
"2222222222222222222222ooo  22222222     222222222222222222222222",
"2222222222222222222222###o 22222222      22222222222222222222222",
"222222222222222222222O###OO 2222222      22222222222222222222222",
"222222222222222222222       2222222      22222222222222222222222",
"2222222222222222222222     222222222    222222222222222222222222",
"2222222222222222222222222222222222222222222222222222222222222222",
"2222222222222222222222222222222222222222222222222222222222222222",
"2222222222222222222222222222222222222222222222222222222222222222",
"2222222222222222222222222222222222222222222222222222222222222222",
"2222222222222222222222222222222222222222222222222222222222222222",
"2222222222222222222222222222222222222222222222222222222222222222",
"2222222222222222222222222222222222222222222222222222222222222222"
};
