/* XPM */
static char * mutant_aim2_xpm[] = {
"64 64 28 1",
" 	c #28e010",
".	c #000000",
"+	c #2C2C2C",
"@	c #484848",
"#	c #202020",
"$	c #646464",
"%	c #B4B4B4",
"&	c #989898",
"*	c #C0C0C0",
"=	c #DCDCDC",
"-	c #8C8C8C",
";	c #7C7C7C",
">	c #A8A8A8",
",	c #EC0000",
"'	c #B00000",
")	c #D0D0D0",
"!	c #FCFCFC",
"~	c #ECECEC",
"{	c #044C00",
"]	c #545454",
"^	c #044000",
"/	c #707070",
"(	c #383838",
"_	c #303030",
":	c #046400",
"<	c #343434",
"[	c #282828",
"}	c #700000",
"                                                                ",
"                                                                ",
"                                                                ",
"                                                                ",
"                                                                ",
"                                                                ",
"                                                                ",
"                                                                ",
"                                                                ",
"                                                                ",
"                                                                ",
"                                                                ",
"                                                                ",
"                                                                ",
"                                                                ",
"                                                                ",
"                                                                ",
"                                                                ",
"                                                                ",
"                           ........                             ",
"                           +@@@@@@.                             ",
"                           #$%%&&$#                             ",
"                           @*=-%=*@                             ",
"                           ;>,-$'>;                             ",
"                           ;*=%-=*;                             ",
"                            &%>>%&                              ",
"                            &)!~);                              ",
"                          {{&%**%]^+                            ",
"                        {{^{%]///]++++                          ",
"                      {{{{^^{%-%-(_+++++                        ",
"                    {{{{{^^^^@:^:++<+++++                       ",
"                   {{{^^^^^^^<@&@<<<<[++##                      ",
"                  {{^[^^<<^^^^/#/<}<}####[+                     ",
"                  {{+##+##<^^^@(([[<+#####[                     ",
"                  {{^+#  #[<</>./#[[[######                     ",
"                  {^^++$!>#[</-.+#####+^!++                     ",
"                  ^/&*!!>>+[<$-]######^{!^+                     ",
"                  ^&&!!>>^+[<@@@######^*!/+                     ",
"                   &/]]  ++++<++[[[###^*!]]                     ",
"                    /]   ++<<<<<++[[##^]/]]                     ",
"                         +++^^^++<++[# ^/]                      ",
"                         +++{{{++<<<+#                          ",
"                        ^<<{^^{++<<<+#                          ",
"                        ^^^^^^^++<<<+#                          ",
"                        ^^{{{{^#+<<<[#                          ",
"                         {{{{{{#[+####                          ",
"                         {{{{{{#[<<<<+                          ",
"                         {{{{{{+<^^^<+                          ",
"                        {{{{{{{+<^^^<+                          ",
"                        {^{{{^{+<^^^<+                          ",
"                        +<^^^^{+^^^^^<                          ",
"                        +<<<<<++^<<<^<+                         ",
"                         +<<<+++<<<<<++                         ",
"                         #++++#++<<<<+                          ",
"                         #.....+++++++                          ",
"                          ##.........                           ",
"                          ......####.                           ",
"                          #.#...+++#.                           ",
"                         #+#... ####.                           ",
"                         ###... .....                           ",
"                          ....  ....                            ",
"                               .<++#.                           ",
"                               #<++#.                           ",
"                               .####.                           "};
