/* XPM */
static char * mutant_d1_xpm[] = {
"64 64 23 1",
" 	c #28e010",
".	c #2C2C2C",
"+	c #000000",
"@	c #202020",
"#	c #7C7C7C",
"$	c #383838",
"%	c #484848",
"&	c #545454",
"*	c #044C00",
"=	c #646464",
"-	c #707070",
";	c #C0C0C0",
">	c #8C8C8C",
",	c #989898",
"'	c #044000",
")	c #343434",
"!	c #303030",
"~	c #1C1C1C",
"{	c #400000",
"]	c #28200C",
"^	c #A8A8A8",
"/	c #ECECEC",
"(	c #DCDCDC",
"                                                                ",
"                                                                ",
"                                                                ",
"                                                                ",
"                                                                ",
"                                                                ",
"                                                                ",
"                                                                ",
"                                                                ",
"                                                                ",
"                                                                ",
"                                                                ",
"                                                                ",
"                                                                ",
"                                                                ",
"                                                                ",
"                                                                ",
"                                                                ",
"                                                                ",
"                                                                ",
"                                                                ",
"                                                                ",
"                                                                ",
"                             ......                             ",
"                            .......+                            ",
"                            @.....@+                            ",
"                            @.....@+                            ",
"                            #.....@$                            ",
"                            #%++++%&                            ",
"                          **&=--=&%$...                         ",
"                        ****.;>->,#...''.                       ",
"                      *******>#>=#&@..'''.                      ",
"                    **'**')''%&&&&@@@..)'))                     ",
"                    **'''@..''.@@@@@@@@!.'.                     ",
"                    *...@@@....$~~@@@@@@)'))                    ",
"                   **'.@ @@@@%,%%~@{{~+]]'')                    ",
"                   **'@   ]@@-@-@@~~~++ ]))'                    ",
"                   *'.@   @@@%$$@$++++] @'''                    ",
"                   '^>@   @../+-&$@+++] '')'                    ",
"                   '(;%   ...=+.%$+~~~+ =>'.                    ",
"                    ^//  ]@...+++~~~~@+ /=.                     ",
"                     //  ]]!!!!!@~~~~~~~#=                      ",
"                      /  ]'''**!@@@@@~~~#                       ",
"                         ].)$)..+@~~++++                        ",
"                         .'**..@++++~~~~+                       ",
"                         ****'.@+~~@@@@@@                       ",
"                         *****.@+~~@@@@@@                       ",
"                        '*****@@@++@@@@@@@                      ",
"                        '****'.@@@+~~@@@@@                      ",
"                        **''*'@@ !@+~~@@@@                      ",
"                        '''''*++ +!@@@@@@                       ",
"                        '....'.+ ++@@@@@@                       ",
"                        ......@+ ++++++@                        ",
"                         ....@@]+++++++                         ",
"                         @@@@@+ +++++++                         ",
"                         $$$@@+ +++++                           ",
"                         $$$.@+ ++++++                          ",
"                         @$$.@+  ++++++                         ",
"                         @@@++   ++++++                         ",
"                          @+++                                  ",
"                         @$$$.+                                 ",
"                        @$$$$.+                                 ",
"                        @...@+                                  ",
"                                                                "};
