/* XPM */
static char *_5695_1b35adb5a59fea76f45212ffd47dccce26ff49d8e60b00257f4bac62b496b9a9[] = {
/* columns rows colors chars-per-pixel */
"64 64 34 1 ",
"  c black",
". c #28200C",
"X c #202020",
"o c #282828",
"O c #2C2C2C",
"+ c gray19",
"@ c #343434",
"# c gray22",
"$ c #640000",
"% c #044000",
"& c #044C00",
"* c #484848",
"= c gray33",
"- c #646464",
"; c #7C7C7C",
": c #B00000",
"> c #EC0000",
", c #B45400",
"< c #A0643C",
"1 c #FC4040",
"2 c #FC5C5C",
"3 c #FC7C7C",
"4 c #FC8820",
"5 c #FCF400",
"6 c #FCA85C",
"7 c #28e010",
"8 c gray55",
"9 c #989898",
"0 c gray66",
"q c #B4B4B4",
"w c #FC9C9C",
"e c #C0C0C0",
"r c gainsboro",
"t c #ECECEC",
/* pixels */
"7777777777777777777777777777777777777777777777777777777777777777",
"7777777777777777777777777777777777777777777777777777777777777777",
"7777777777777777777777777777777777777777777777777777777777777777",
"7777777777777777777777777777777777777777777777777777777777777777",
"7777777777777777777777777777777777777777777777777777777777777777",
"7777777777777777777777777777777777777777777777777777777777777777",
"7777777777777777777777777777777777777777777777777777777777777777",
"7777777777777777777777777777777777777777777777777777777777777777",
"777777777777777777777tt77777777777777777777777777777777777777777",
"777777777777777777777t077777777777777777777777777777777777777777",
"777777777777777777777t077777777777777777777777777777777777777777",
"777777777777777777777t077777777777777777777777777777777777777777",
"777777777777777777777t077777777777777777777777777777777777777777",
"777777777777777777777t077777777777777777777777777777777777777777",
"7777777777777777777770t87777777777777777777777777777777777777777",
"7777777777777777777770887777777777777777777777777777777777777777",
"777777777777777777777008%777777777777777777777777777777777777777",
"777777777777777777777&<OO777777777777777777777777777777777777777",
"777777777777777777777&%OO777XXXXXXX 7777777777777777777777777777",
"777777777777777777777&%OO%77O###### 7777777777777777777777777777",
"777777777777777777777&&%O%77X-qq99-X7777777777777777777777777777",
"7777777777777777777777&&OO77*er8qre*7777777777777777777777777777",
"7777777777777777777777&%OO%7;0>-*:0;7777777777777777777777777777",
"7777777777777777777777&%OX%7;erq8re;7777777777777777777777777777",
"7777777777777777777777&OXOO%79q00q977777777777777777777777777777",
"7777777777777777777777&%%&O%%9qttq;77777777777777777777777777777",
"77777777777777777777777&&%O%%-qeeq=O7777777777777777777777777777",
"77777777777777777777777&&&%OO*;;--*O7777777777777777777777777777",
"777777777777777777777777&&%O%%*===*%OO77777777777777777777777777",
"777777777777777777777777&&&%%#OO1OOO@OOO777777777777777777777777",
"7777777777777777777777777&&%&>,,3,,> %%%O77777777777777777777777",
"7777777777777777777777777&&&%$>,6,>$%%&&OO7777777777777777777777",
"7777777777777777777777777O%&&>45554,%&%&&%%777777777777777777777",
"77777777777777777777777777O%>265t52>>@O%&&%O77777777777777777777",
"77777777777777777777777777%O&,>265>, @O%&&&%O7777777777777777777",
"77777777777777777777777777&%%$24w,2$,O..%&%%O7777777777777777777",
"77777777777777777777777777&%%%$,2,$  X@.%%OO%O777777777777777777",
"77777777777777777777777777&&%%8-2#X   .77O%&%O777777777777777777",
"77777777777777777777777777%&&%-**#XXX  777%&%O777777777777777777",
"7777777777777777777777777&&%&%O  XXXXX X77%%&O777777777777777777",
"7777777777777777777777777&&%%%%%OOOXOXXX777&&%O77777777777777777",
"777777777777777777777777%%%%%%%%XOOOXOXX777%%%O77777777777777777",
"7777777777777777777777777@@@@@%OXOOOO+XX777%%%O77777777777777777",
"7777777777777777777777777&&&@OO  OOXXXXX7777t9877777777777777777",
"777777777777777777777777&&&&&OX  O+%%%XX7777t8-77777777777777777",
"777777777777777777777777&&&&%OX  O%&&&%XX777t9-77777777777777777",
"777777777777777777777777&&&&%OX X+&&&&&%X777t9777777777777777777",
"777777777777777777777777&&&&%OX77O%&&&&%X777t9777777777777777777",
"77777777777777777777777&&&&%%O 77O%%&&&%X777;9777777777777777777",
"77777777777777777777777&&&%O%X777O+%&&&&%X777;777777777777777777",
"77777777777777777777777&&&&&OX7777%&&&&&%X7777777777777777777777",
"7777777777777777777777&&%%%&OX77777&&&&&&O7777777777777777777777",
"7777777777777777777777&%%%%&O.77777.&&%%&%O777777777777777777777",
"7777777777777777777777#%%%%OX777777+%&%%%&X777777777777777777777",
"7777777777777777777777OOOOOXX7777777+ooooXX777777777777777777777",
"7777777777777777777777##XXX 77777777XXXXX  777777777777777777777",
"777777777777777777777####X  77777777X##OX  777777777777777777777",
"777777777777777777777####  7777777777 #OX X777777777777777777777",
"777777777777777777777##OO  7777777777X    7777777777777777777777",
"777777777777777777777OXX  777777777777XX   777777777777777777777",
"77777777777777777777#OO  X77777777777 ##XX 777777777777777777777",
"77777777777777777777####O 77777777777 ##OOX777777777777777777777",
"7777777777777777777X####O7777777777777###OOX77777777777777777777",
"7777777777777777777XOOOX 7777777777777 XXXXX77777777777777777777"
};
