/* XPM */
static char *_020_bd969e0cd1573cd5f5d0b92a93f51069f5f2c1656359481041756faead7c07c2[] = {
/* columns rows colors chars-per-pixel */
"64 64 33 1 ",
"  c black",
". c #28200C",
"X c #202020",
"o c #282828",
"O c #2C2C2C",
"+ c gray19",
"@ c #343434",
"# c gray22",
"$ c #640000",
"% c #044000",
"& c #044C00",
"* c #484848",
"= c gray33",
"- c #646464",
"; c #7C7C7C",
": c #B00000",
"> c #EC0000",
", c #B45400",
"< c #FC4040",
"1 c #FC5C5C",
"2 c #FC7C7C",
"3 c #FC8820",
"4 c #FCF400",
"5 c #FCA85C",
"6 c #980088",
"7 c gray55",
"8 c #989898",
"9 c gray66",
"0 c #B4B4B4",
"q c #FC9C9C",
"w c #C0C0C0",
"e c gainsboro",
"r c #ECECEC",
/* pixels */
"6666666666666666666666666666666666666666666666666666666666666666",
"6666666666666666666666666666666666666666666666666666666666666666",
"6666666666666666666666666666666666666666666666666666666666666666",
"6666666666666666666666666666666666666666666666666666666666666666",
"6666666666666666666666666666666666666666666666666666666666666666",
"66666666666666666666666666666666666666666r6666666666666666666666",
"66666666666666666666666666666666666666666rr666666666666666666666",
"66666666666666666666666666666666666666666r0666666666666666666666",
"66666666666666666666666666666666666666666r0666666666666666666666",
"66666666666666666666666666666666666666666r0666666666666666666666",
"66666666666666666666666666666666666666666r0666666666666666666666",
"66666666666666666666666666666666666666666r8766666666666666666666",
"66666666666666666666666666666666666666666rr-66666666666666666666",
"6666666666666666666666666666666666666666677-66666666666666666666",
"66666666666666666666666666666666666666666&%O66666666666666666666",
"66666666666666666666666666666666666666666&%O66666666666666666666",
"66666666666666666666666666666666666666666&%O66666666666666666666",
"6666666666666666666666666666666666666666&&%O66666666666666666666",
"6666666666666666666666666666XXXXXXX 6666&&%O66666666666666666666",
"6666666666666666666666666666O###### 6666&&@O66666666666666666666",
"6666666666666666666666666666X-0088-X666&&%@O66666666666666666666",
"6666666666666666666666666666*we70ew*666&&%O666666666666666666666",
"6666666666666666666666666666;9>-*:9;66&%%@O666666666666666666666",
"6666666666666666666666666666;we07ew;66&%OOX666666666666666666666",
"6666666666666666666666666666680990866&&&%OX666666666666666666666",
"6666666666666666666666666666680rr0;6&&&%@O6666666666666666666666",
"66666666666666666666666666666-0ww0=O&&&%@X6666666666666666666666",
"6666666666666666666666666666O*;;--*O%&%@OX6666666666666666666666",
"66666666666666666666666666&&%%*===O%%&@OX66666666666666666666666",
"666666666666666666666666&&&&%#OO<OOO@@OOX66666666666666666666666",
"66666666666666666666666&&%&&&>,,2,,> &OXX66666666666666666666666",
"6666666666666666666666&&&%@%%$>,5,>$%OOXX66666666666666666666666",
"6666666666666666666666&&%O%%&>34443,%OOX666666666666666666666666",
"666666666666666666666&&%O.@%>154r41>>OXX666666666666666666666666",
"666666666666666666666&%%O.O&&,>154>, OX6666666666666666666666666",
"66666666666666666666&&%OO..O%$13q,1$,O.6666666666666666666666666",
"66666666666666666666&OOO66.O%%$,1,$  X.6666666666666666666666666",
"66666666666666666666&%OO66XOOO7->#XXXX.6666666666666666666666666",
"6666666666666666666&&%O666O%OO-**#XXXX 6666666666666666666666666",
"6666666666666666666&&OO66.XO%OO  XXX%X X666666666666666666666666",
"6666666666666666666&&OO66.%%%%%%OOO%XXXX666666666666666666666666",
"6666666666666666666&&O666.%&%%%%OOOOXXXX666666666666666666666666",
"6666666666666666666rr7666 %&&%%%OOXX%%XX666666666666666666666666",
"6666666666666666666r8766.O@#@OO  O+%%%%X666666666666666666666666",
"6666666666666666666r7-66O%%%OOX  O%&&&%XX66666666666666666666666",
"6666666666666666666r8-66O&&&%OX  O&&&&&%X66666666666666666666666",
"6666666666666666666r8666&&&&%OX 6O%&&&&%X66666666666666666666666",
"6666666666666666666r8666&&&&%OX66O%&&&&%XO6666666666666666666666",
"6666666666666666666;866&&&&%%O 66O+%&&&&%X6666666666666666666666",
"66666666666666666666;66&&&%O%XX666+%&&&&%X6666666666666666666666",
"66666666666666666666666&&&&&OX6666+%&&&&%X6666666666666666666666",
"6666666666666666666666&%%%%&O.6666%&&&&&%X6666666666666666666666",
"6666666666666666666666#%%%%OXX66666+&%%%&%X666666666666666666666",
"6666666666666666666666OO%%OXXX66666+&%%%%XX666666666666666666666",
"6666666666666666666666XXXXX X6666666XXXXoX 666666666666666666666",
"6666666666666666666666###XX 66666666X##XX  666666666666666666666",
"666666666666666666666####X  666666666##OX 6666666666666666666666",
"666666666666666666666####  6666666666 #OX  666666666666666666666",
"666666666666666666666##OO  6666666666X     666666666666666666666",
"666666666666666666666XXX  666666666666XX   666666666666666666666",
"66666666666666666666X#   X666666666666##X  666666666666666666666",
"66666666666666666666X###O 666666666666##OOX666666666666666666666",
"6666666666666666666X####O 666666666666###OOX66666666666666666666",
"6666666666666666666XOOOX 6666666666666 XXXXX66666666666666666666"
};
