/* XPM */
static char *_394_3ef9e4e56a5804df9e73f38131786e52b2530c2b0844dfb39bf8db669e763a8e[] = {
/* columns rows colors chars-per-pixel */
"64 64 26 1 ",
"  c black",
". c #28200C",
"X c #202020",
"o c #282828",
"O c #2C2C2C",
"+ c gray19",
"@ c #343434",
"# c gray22",
"$ c #700000",
"% c #044000",
"& c #044C00",
"* c #484848",
"= c gray33",
"- c #646464",
"; c gray44",
": c #7C7C7C",
"> c #B00000",
", c #EC0000",
"< c #28e010",
"1 c gray55",
"2 c #989898",
"3 c gray66",
"4 c #B4B4B4",
"5 c #C0C0C0",
"6 c gainsboro",
"7 c #ECECEC",
/* pixels */
"<<<<<<<<<<<<<<<<<<<<<<<<<<<<<<<<<<<<<<<<<<<<<<<<<<<<<<<<<<<<<<<<",
"<<<<<<<<<<<<<<<<<<<<<<<<<<<<<<<<<<<<<<<<<<<<<<<<<<<<<<<<<<<<<<<<",
"<<<<<<<<<<<<<<<<<<<<<<<<<<<<<<<<<<<<<<<<<<<<<<<<<<<<<<<<<<<<<<<<",
"<<<<<<<<<<<<<<<<<<<<<<<<<<<<<<<<<<<<<<<<<<<<<<<<<<<<<<<<<<<<<<<<",
"<<<<<<<<<<<<<<<<<<<<<<<<<<<<<<<<<<<<<<<<<<<<<<<<<<<<<<<<<<<<<<<<",
"<<<<<<<<<<<<<<<<<<<<<<<<<<<<<<<<<<<<<<<<<<<<<<<<<<<<<<<<<<<<<<<<",
"<<<<<<<<<<<<<<<<<<<<<<<<<<<<<<<<<<<<<<<<<<<<<<<<<<<<<<<<<<<<<<<<",
"<<<<<<<<<<<<<<<<<<<<<<<<<<<<<<<<<<<<<<<<<<<<<<<<<<<<<<<<<<<<<<<<",
"<<<<<<<<<<<<<<<<<<<<<<<<<<<<<<<<<<<<<<<<<<<<<<<<<<<<<<<<<<<<<<<<",
"<<<<<<<<<<<<<<<<<<<<<<<<<<<<<<<<<<<<<<<<<<<<<<<<<<<<<<<<<<<<<<<<",
"<<<<<<<<<<<<<<<<<<<<<<<<<<<<<<<<<<<<<<<<<<<<<<<<<<<<<<<<<<<<<<<<",
"<<<<<<<<<<<<<<<<<<<<<<<<<<<<<<<<<<<<<<<<<<<<<<<<<<<<<<<<<<<<<<<<",
"<<<<<<<<<<<<<<<<<<<<<<<<<<<<<<<<<<<<<<<<<<<<<<<<<<<<<<<<<<<<<<<<",
"<<<<<<<<<<<<<<<<<<<<<<<<<<<<<<<<<<<<<<<<<<<<<<<<<<<<<<<<<<<<<<<<",
"<<<<<<<<<<<<<<<<<<<<<<<<<<<<<<<<<<<<<<<<<<<<<<<<<<<<<<<<<<<<<<<<",
"<<<<<<<<<<<<<<<<<<<<<<<<<<<<<<<<<<<<<<<<<<<<<<<<<<<<<<<<<<<<<<<<",
"<<<<<<<<<<<<<<<<<<<<<<<<<<<<<<<<<<<<<<<<<<<<<<<<<<<<<<<<<<<<<<<<",
"<<<<<<<<<<<<<<<<<<<<<<<<<<<<<<<<<<<<<<<<<<<<<<<<<<<<<<<<<<<<<<<<",
"<<<<<<<<<<<<<<<<<<<<<<<<<<<<<<<<<<<<<<<<<<<<<<<<<<<<<<<<<<<<<<<<",
"<<<<<<<<<<<<<<<<<<<<<<<<<<<<<<<<<<<<<<<<<<<<<<<<<<<<<<<<<<<<<<<<",
"<<<<<<<<<<<<<<<<<<<<<<<<<<<<XXXXXXX <<<<<<<<<<<<<<<<<<<<<<<<<<<<",
"<<<<<<<<<<<<<<<<<<<<<<<<<<<<OXXXXX  <<<<<<<<<<<<<<<<<<<<<<<<<<<<",
"<<<<<<<<<<<<<<<<<<<<<<<<<<<<X######X<<<<<<<<<<<<<<<<<<<<<<<<<<<<",
"<<<<<<<<<<<<<<<<<<<<<<<<<<<<*-4422-*<<<<<<<<<<<<<<<<<<<<<<<<<<<<",
"<<<<<<<<<<<<<<<<<<<<<<<<<<<<:561465:<<<<<<<<<<<<<<<<<<<<<<<<<<<<",
"<<<<<<<<<<<<<<<<<<<<<<<<<<<<:3,-*>3:<<<<<<<<<<<<<<<<<<<<<<<<<<<<",
"<<<<<<<<<<<<<<<<<<<<<<<<<<<<<564165<<<<<<<<<<<<<<<<<<<<<<<<<<<<<",
"<<<<<<<<<<<<<<<<<<<<<<<<<<<<<243342<<<<<<<<<<<<<<<<<<<<<<<<<<<<<",
"<<<<<<<<<<<<<<<<<<<<<<<<<<<%%24774:%%<<<<<<<<<<<<<<<<<<<<<<<<<<<",
"<<<<<<<<<<<<<<<<<<<<<<<<<%&&&-4554=O%%%%<<<<<<<<<<<<<<<<<<<<<<<<",
"<<<<<<<<<<<<<<<<<<<<<<<%&&&&&#====OO@%%%%%<<<<<<<<<<<<<<<<<<<<<<",
"<<<<<<<<<<<<<<<<<<<<<%%&&%&&&%O@XOOO@%%&&&%%<<<<<<<<<<<<<<<<<<<<",
"<<<<<<<<<<<<<<<<<<<<%&&&&%@%&&%@X@@@@%&&&&%&&<<<<<<<<<<<<<<<<<<<",
"<<<<<<<<<<<<<<<<<<<%%&&&&O%%%%%*2*$%$&O+&%&&&%<<<<<<<<<<<<<<<<<<",
"<<<<<<<<<<<<<<<<<<<&&OOOOO@%%%%;X;%%&@OX&O&&2%<<<<<<<<<<<<<<<<<<",
"<<<<<<<<<<<<<<<<<2%&&&OO<OO@@@@*##O@@@O.XOO%2-%<<<<<<<<<<<<<<<<<",
"<<<<<<<<<<<<<<<<<7-&&%O<<O.OOO17 ;XO@O..O<O%72%<<<<<<<<<<<<<<<<<",
"<<<<<<<<<<<<<<<<<72&%O<<<<.OOO1- OXXXX..<<<O721<<<<<<<<<<<<<<<<<",
"<<<<<<<<<<<<<<<<<771%<<<<<XOOO1-=#XXXX.<<<<<77-<<<<<<<<<<<<<<<<<",
"<<<<<<<<<<<<<<<<<711O<<<<<O%OO-**#XXXX <<<<<11-<<<<<<<<<<<<<<<<<",
"<<<<<<<<<<<<<<<<<731<<<<<.XO%OO  XXXXX X<<<<<<<<<<<<<<<<<<<<<<<<",
"<<<<<<<<<<<<<<<<<<<<<<<<<.%%%%%%OOOOXXXX<<<<<<<<<<<<<<<<<<<<<<<<",
"<<<<<<<<<<<<<<<<<<<<<<<<<.%&%%%%OOOOO+XX<<<<<<<<<<<<<<<<<<<<<<<<",
"<<<<<<<<<<<<<<<<<<<<<<<<< %&&%%%O%OOO+XX<<<<<<<<<<<<<<<<<<<<<<<<",
"<<<<<<<<<<<<<<<<<<<<<<<<.O@#@OO  OOXXXXX<<<<<<<<<<<<<<<<<<<<<<<<",
"<<<<<<<<<<<<<<<<<<<<<<<<O%%%OOX  O+%%%XX<<<<<<<<<<<<<<<<<<<<<<<<",
"<<<<<<<<<<<<<<<<<<<<<<<<O&&&%OX  O%&&&%XX<<<<<<<<<<<<<<<<<<<<<<<",
"<<<<<<<<<<<<<<<<<<<<<<<<&&&&%OX X+&&&&&%X<<<<<<<<<<<<<<<<<<<<<<<",
"<<<<<<<<<<<<<<<<<<<<<<<<&&&&%OX <O%&&&&%X<<<<<<<<<<<<<<<<<<<<<<<",
"<<<<<<<<<<<<<<<<<<<<<<<&&&&%%O <<O%%&&&%XO<<<<<<<<<<<<<<<<<<<<<<",
"<<<<<<<<<<<<<<<<<<<<<<<&&&%O%XX<<O+%&&&&%X<<<<<<<<<<<<<<<<<<<<<<",
"<<<<<<<<<<<<<<<<<<<<<<&&&&&&OX<<<<%&&&&&%X<<<<<<<<<<<<<<<<<<<<<<",
"<<<<<<<<<<<<<<<<<<<<<<&%%%%&O.<<<<<.%&&&&%<<<<<<<<<<<<<<<<<<<<<<",
"<<<<<<<<<<<<<<<<<<<<<<#%%%%OXX<<<<<+%&%%%XX<<<<<<<<<<<<<<<<<<<<<",
"<<<<<<<<<<<<<<<<<<<<<<OO%%OXX<<<<<<.+%%%oXX<<<<<<<<<<<<<<<<<<<<<",
"<<<<<<<<<<<<<<<<<<<<<<XXXXX X<<<<<<<XXXXX  <<<<<<<<<<<<<<<<<<<<<",
"<<<<<<<<<<<<<<<<<<<<<<###X  <<<<<<<<X##OX  <<<<<<<<<<<<<<<<<<<<<",
"<<<<<<<<<<<<<<<<<<<<<####  X<<<<<<<<< #OX  <<<<<<<<<<<<<<<<<<<<<",
"<<<<<<<<<<<<<<<<<<<<<##OO  <<<<<<<<<<X     <<<<<<<<<<<<<<<<<<<<<",
"<<<<<<<<<<<<<<<<<<<<<XXX  X<<<<<<<<<<<     <<<<<<<<<<<<<<<<<<<<<",
"<<<<<<<<<<<<<<<<<<<<<X   X<<<<<<<<<<<< XX  <<<<<<<<<<<<<<<<<<<<<",
"<<<<<<<<<<<<<<<<<<<<X###O <<<<<<<<<<< ##OOX<<<<<<<<<<<<<<<<<<<<<",
"<<<<<<<<<<<<<<<<<<<X####O <<<<<<<<<<< ###OOX<<<<<<<<<<<<<<<<<<<<",
"<<<<<<<<<<<<<<<<<<<XOOOX <<<<<<<<<<<<< XXXXX<<<<<<<<<<<<<<<<<<<<"
};
