/* XPM */
static char * priest_d2_xpm[] = {
"71 71 38 1",
" 	c #FFC0CB",
".	c #FFC0CB",
"+	c #4F0000",
"@	c #530707",
"#	c #5F0707",
"$	c #5F4B37",
"%	c #430000",
"&	c #3F2B1B",
"*	c #473323",
"=	c #4F3B2B",
"-	c #9B0000",
";	c #731313",
">	c #670B0B",
",	c #372313",
"'	c #774F2B",
")	c #7F532F",
"!	c #6B0F0F",
"~	c #5F4323",
"{	c #232323",
"]	c #1B1B1B",
"^	c #131313",
"/	c #272727",
"(	c #2F2F2F",
"_	c #070707",
":	c #2B230F",
"<	c #3B3B3B",
"[	c #874307",
"}	c #2F1B0B",
"|	c #170F07",
"1	c #4B371B",
"2	c #1F170B",
"3	c #6B4727",
"4	c #675333",
"5	c #474747",
"6	c #434343",
"7	c #5B5B5B",
"8	c #4F4F4F",
"9	c #373737",
"                                                                    ...",
"                                                                   ....",
"                                                                  .....",
"                                                                 ......",
"                                                                .......",
"                                                               ........",
"                                                              .........",
"                                                             ..........",
"                                                            ...........",
"                                                            ...........",
"                                                            ...........",
"                                                            ...........",
"                                                            ...........",
"                                                            ...........",
"                                                            ...........",
"                                             +              ...........",
"                                               @            ...........",
"                                               #            ...........",
"          @$%  $#                              &            ...........",
"              *=$@$%            @  %&     &  @  +           ...........",
"         @$-;$@ ;$$=%                 #       >  &          ...........",
"       +$$@%   ,;;')=%           #+           &  %>@        ...........",
"    %;%        ; %)$'*             &#@,&%      *   =@       ...........",
"     %       +=;;;!';$%        ,   ,% !>,%       >& >%      ...........",
"        +;=+;=+  +=~$;*         ,@@, *={{{]]      >@^#%     ...........",
"                ///////{            +%]/(/{{]   __%>+$;@    ...........",
"              = {/{{////]         %]]]]]{]]]{{]]]^_%=;;;    ...........",
"       !%  %=   ]{/{{{{{{        , ]{{]]]]]/{]/]^^::&;;;    ...........",
"                 ]///((//{      <[]{/{]]]]/]]/]^^:++:&}=    ...........",
"                ,^/(/{{{{{]    | 1{//{]]]]{]{/]^2%%:2|}}    ...........",
"          ^^^^#,^^]/{{/((/{]  ]]]]{{{{{]]]{]//]^_22__]},    ...........",
"           ^^]]]]]_]//(/{]{{_]2]]}}344}5]]]{//]^____^]2     ...........",
"            ^^^^^%%]]//{]{{]_|262}}4}}3}262{{/]^____^{      ...........",
"            ^^^^%^^^]]]]]{]]_<}}2444344]222(]{]^____^{      ...........",
"             ^^^^^^^^]]{{]]_|2^]]3{{4{{{]]22|]7<____^{      ...........",
"             ^@^^^^%^]]]]]^](]]]]]^^^^]/{]]2(]1/____^]      ...........",
"              ^^^^^^^]]]_^^^]]]/]]]22]{(/{]/||~^^___^]      ...........",
"               ^^^^^_^^^^^^]]{/{{]]2|]{(/{{/]}3^^^__^]      ...........",
"               ^^^^^^^^]]]^]{{({]]2|2]{/(/{//](8(^__^^      ...........",
"                ^^^^^^]]]^^]{/({2||^2{{/(/{{(]]]____^]      ...........",
"                _^^^^]]]]]]]//({2|^^]{{/9/{{({]]  ^^^]      ...........",
"                 _^^]]]]]{^{/(/{]2^^]{//9(/{(/]{]   ]]      ...........",
"                        ]/]{/(/{]2^^{{//9(/{//]]]   ]       ...........",
"                       ^{{]//9/{]2^]{{//(9/{/(]]{           ...........",
"                       ]{]]/(9/{]2^]{{//(9/{{/{]{]          ...........",
"                       ]{]{(9(/{]2^]]]{//(/{{]/]]{          ...........",
"                       ]]]{(9(/{]2^22}]]{{{]]]{]]{]         ...........",
"                      ^]]]{((/{]]2^||^^]]/(]]^^^]{]         ...........",
"                      ^]]]{{{]]]2^^^^^^]]{/]]]^^]]]^        ...........",
"                      ^^^]]]]{]]^^^^^^^^]]{{]]^^]/]]        ...........",
"                      ]^|]^]](/]]^^^^^____22%%22^]]^        ...........",
"                     _]^]^^]]//{]^^_____%__2%___}}]^^       ...........",
"                     _]]]^^^_______________2_2}},,,}^       ...........",
"                     ^]/]^___|2___________2_2}},|||}}       ...........",
"                     ^]]]__|2:2__________2__%}2______       ...........",
"                     ^]____2:,:__________+__%}_______       ...........",
"                     ^___2__:+:,_____________2_______       ...........",
"                     ^_+___22+2______________________       ...........",
"                     ____|:%%+_____________________^_       ...........",
"                      |:_:_22::%________________^^_         ...........",
"                      ___@_}},}_%_________^^^^___           ...........",
"                       ____}}@2__%___^^^^_^^___             ...........",
"                        _^_}}22^^::_^^^__^_                 ...........",
"                         ,_}22|_^^@^^_                      ...........",
"                           222|                             ...........",
"                           2}2|                             ...........",
"                           ,}}2                             ...........",
"                          2,}}}                             ...........",
"                         2,,2},                             ...........",
"                        },,}||                              ...........",
"                       ,1,}2                                ..........."};
