/* XPM */
static char * priest_d3_xpm[] = {
"69 71 27 1",
" 	c #FFC0CB",
".	c #670B0B",
"+	c #372313",
"@	c #6B0F0F",
"#	c #5F0707",
"$	c #2B230F",
"%	c #530707",
"&	c #473323",
"*	c #4F0000",
"=	c #731313",
"-	c #430000",
";	c #3F2B1B",
">	c #131313",
",	c #1B1B1B",
"'	c #232323",
")	c #272727",
"!	c #4F3B2B",
"~	c #2F2F2F",
"{	c #2F1B0B",
"]	c #6B4727",
"^	c #675333",
"/	c #474747",
"(	c #1F170B",
"_	c #3B3B3B",
":	c #373737",
"<	c #070707",
"[	c #170F07",
"                                                                     ",
"                                                                     ",
"                                                                     ",
"                                                                     ",
"                                                                     ",
"                                                                     ",
"                                                                     ",
"                                                                     ",
"                                                                     ",
"                                                                     ",
"                                                                     ",
"                                                                     ",
"                                                                     ",
"                                                                     ",
"                                                                     ",
"                                                                     ",
"                                                                     ",
"                                                                     ",
"                                                                     ",
"                                                  .                  ",
"                +                                                    ",
"          @       #                     $                            ",
"                  +                 $   %           & @#             ",
"      +                                           &     *            ",
"               .   %              $#=%$  $                           ",
"         #-                           .  + #       .;     ;          ",
"    + &     *$   $ +.           #$    ;$ %     @     ;  &            ",
"             %     .              *   @& #;            ;   @ @       ",
"              -    #         $-    % $=$  &             %  ;         ",
"  -@-       @    + +         #     +# @ ;+@;>,     .  . ;            ",
"   -    +#+  ;   $               #  ;+@  %@',),    $;    . !   .     ",
"       *   +  $% @                   ;;,,''')~),    $    &     &     ",
"       .   +  .  .  +.             $,,,,,,,,')~),        -.          ",
"            ; =  # .                ,''',')~)',,',        &;  @      ",
"             +.  . # +             ,,,''',')~)),,,>     # -=-  &     ",
"     #        +@;@ *            ,,'',{{]^^{/''',''~)'',,(# @&   =    ",
"              -#=@ $           >,((_({{^{{]{_{{,'~)))~~)';&%=.  @    ",
"               -.!;#(,,>      >,>~(((^^^]^^,({~{'~)~~::~',.!*=% &$   ",
"                -#@.{,'''',>>>,,>(,,,>>>>>,,,,+{,,~~::~)')+=&=@ $&   ",
"                 $;*+,,,)',',,,,>,',<<<<<,,,',,',,)::~~')'+&!==  @   ",
"                   -(',,)',,',,,,',,([>[>,,'),,')',~:~~'),$+;&&@&+   ",
"                  >[->>,',,,'>>,'',,>[>[,,')~',,'~',~))'),'(<$++     ",
"                  >[-[>,,,,,,>,')''>(([>,,')~)',,)~,,')'),',>>>,     ",
"                  >[<-><,,,,,>')~)'>(([>,,'')~)','~',,,'),)<>>>,     ",
"                  >[>[>-,',,,,)~:~),([>((,,''))',''),,,,),)>>>>'     ",
"                  ,-<>-[<',,,,)~:~),{[>[>(,,,''>,'~~,,,>,,'>>>,,     ",
"                  ,[<[>[<',,>,')~',,((>[>>>>,)',,,'~,,((,,,>>>,,     ",
"                  ,[[[<<>',((,''',,>>>>>>>>,,'~'>,'~,(++(>,>>>,>     ",
"                  ,[<<<<,'([[(,'~~)>>>>>>>>,,,)),>,,({{{{><><>,      ",
"                  ,[<>>>,'[>[>>,)_~,>>>>>>>><<<<<<<<({{{{<<<<<,      ",
"                  ,<>>> ',[,>>>,'~)',>>>>>><<<<<<<<<({{{([><><>      ",
"                  ,>>   ,<,,>>>,'~)',>>><<<<<<<<$(((((((>>><<<[      ",
"                  ,      [,',><<<<<<<<<<<<<<<<<$<-(({{(<>>><<<<      ",
"                         [,,,><<<<<<[((-[<<<<<<<<<${{{[<<>><[<<      ",
"                         [>>,<<<<<<[(--([<<<<<<<$<*(([<<<<><<<       ",
"                         [(<<<<<<[((--([<(<<<<<<<$<<<<(<><<[<        ",
"                        (((([[[[[$*-((-<<<<<<<<-<-<<<<-<<<<          ",
"                        ({{{{{([[-$$(<-(<(<<<<<<<%<<<<*>><           ",
"                        ({{{{(((($((-<((<<<<<(-<<<<<>>%>>            ",
"                         ({{(((({{$<%<<-<<<<<-<<$><<<>>              ",
"                          [[$-({{(<<.<<-<<<<<-><$>><                 ",
"                          <<%<<<<<<$<<<->><<>>>>>+<< +               ",
"                        #  <><<<-<<$>>><>>><>>><<%                   ",
"                            <><<% <($>><>><  (                       ",
"                         ;      #   +$<<     +                       ",
"                                                                     ",
"                                      +                              ",
"                            ;         #         %                    ",
"                            #                                        ",
"                                      %                              ",
"                                                                     "};
