/* XPM */
static char * priest_shoot_2_xpm[] = {
"71 71 76 1",
" 	c #FFC0CB",
".	c #FFC0CB",
"+	c #545454",
"@	c #484848",
"#	c #B4B4B4",
"$	c #404040",
"%	c #D0D0D0",
"&	c #989898",
"*	c #8C8C8C",
"=	c #303030",
"-	c #7C7C7C",
";	c #A8A8A8",
">	c #383838",
",	c #282828",
"'	c #1C1C1C",
")	c #000000",
"!	c #646464",
"~	c #202020",
"{	c #232323",
"]	c #131313",
"^	c #272727",
"/	c #707070",
"(	c #1B1B1B",
"_	c #80502C",
":	c #FCF400",
"<	c #C87C4C",
"[	c #0000BC",
"}	c #F0945C",
"|	c #9C6038",
"1	c #B4AC00",
"2	c #6C4824",
"3	c #B47044",
"4	c #FC9C60",
"5	c #FCB890",
"6	c #FCC4A4",
"7	c #FCB080",
"8	c #D08050",
"9	c #885830",
"0	c #FCBC9C",
"a	c #2F2F2F",
"b	c #FCA470",
"c	c #FCCCB0",
"d	c #FCD8C4",
"e	c #E88C58",
"f	c #FF0000",
"g	c #D70000",
"h	c #FF1F1F",
"i	c #FF5F5F",
"j	c #FF9F43",
"k	c #FF7B7B",
"l	c #2C2C2C",
"m	c #DC8854",
"n	c #F7ABAB",
"o	c #FFE74B",
"p	c #EBDB57",
"q	c #A0643C",
"r	c #905C34",
"s	c #372313",
"t	c #373737",
"u	c #4B371B",
"v	c #3B3B3B",
"w	c #6B4727",
"x	c #774F2B",
"y	c #874307",
"z	c #9B5B13",
"A	c #5F4323",
"B	c #7F532F",
"C	c #2F1B0B",
"D	c #732B00",
"E	c #070707",
"F	c #675333",
"G	c #474747",
"H	c #1F170B",
"I	c #4F4F4F",
"J	c #434343",
"K	c #170F07",
"                                                      .................",
"                                                     ..................",
"                                                    ...................",
"                                                   ....................",
"                                                   ....................",
"                                                   ....................",
"                               +++                 ....................",
"                             ++@#@@$               ....................",
"                           +@#%%%%&*==             ....................",
"                          $=$$@-;-$>=,'            ....................",
"                          ,),!+>~')))''            ....................",
"                       {   ),!+>~'))))  {          ....................",
"                      ]^   /*;***-+@,)  ^(         ....................",
"                      (^(  _:<[<}|[<12  ^{]        ....................",
"                      ]{{((34567890589((a{]        ....................",
"                      ](^(((457bbbbb8((]^(]        ....................",
"                      ]]^(](45}cdd5e8(]({]         ....................",
"                  fg gh]{^()45}bbb}e_)(^(          ....................",
"                hijkhhig({^)lbbb<beml)^{(          ....................",
"               ghnopkpokh((l>33qqrr_l)]]]((        ....................",
"               fijoojoojif{s{a^^^aaas^{^{{{((      ....................",
"                hkopkponhgtua{ttt{{u^^^hg^gf{(     ....................",
"                 gihgkjih^t^uv^^{^u^t^gihgkjih(    ....................",
"                  hgwgfx^^aa^uyz{u^vahkopkponhg(   ....................",
"                  {ABxuCa^ta^zzzz^atfijoojoojif(   ....................",
"                 ({sus]]a^t^^yzzy{a^ghnopkpokh^{]  ....................",
"                 ((]]]]]a^a^a{zz{{a^thijkhhig]{^(  ....................",
"                 {]]]]]]a^a^a^zy^^aata{fgwghx](^{  ....................",
"                 {]]](]]t^a^((yD((]{a^{a(CwxA]]{^  ....................",
"                 {]]](]]t^a^({(^({(({^{^{]E]]]](^  ....................",
"                 {]]((]]a^^(({(^{^{((a^{{]]]]]](^  ....................",
"                 {]]((]]a^^E({(asa{s(]^(^(]]E]]({  ....................",
"                 {](((]]aa^ssCCwFFCGsCH({{   ]]({  ....................",
"                ({](((] ^a^ssCCFCCwCssaH(^(   ]({  ....................",
"                {(]]]   (a^](FFFwFF((sCHE{{   ]({  ....................",
"                {((E     {a((w{{F{{{s(((s(^(   ]{  ....................",
"               {(]       ({{t{wFF{({{sIa]s({   ]{( ....................",
"               ]]        {{^t{^t^{at({HsCs ({   {( ....................",
"                         ^a{^t{^t^{at({HsCv     ({ ....................",
"                        ]a^{av{ava{at{(]HaGC    ({ ....................",
"                        (t^{av{avt^^t^((aIaDC    { ....................",
"                       E(a{{tt^tJva{at({GaDyDC     ....................",
"                       ]{^(^vt^tJtt{^t{^(sCDDDC    ....................",
"                       ({{(^vt^tJat^{t{^{{(HCIv    ....................",
"                      (({({ata^tv^ta{t^{^({(       ....................",
"                      ({((^tt^atv^^t^aa{^({(       ....................",
"                     (({({avt^tvt^{t{^t{a(({]      ....................",
"                     ({(]{ava^tvt^Ct^^t^a(({(      ....................",
"                    ((^(K^at^aava{Kta{a^a]({(]     ....................",
"                    (^{](^ta{atva{]at{a^a]({{(     ....................",
"                    (a(](aa^{asa^C]^t{^^a(E({(E    ....................",
"                    (a(](ta{^aC{(KH^a^{^a(E(^(]    ....................",
"                    {^(E^t^{^tC(K](^a^{^a{E(^{(    ....................",
"                   (^^](aa{{^tH]]((at^{^t^E({{(    ....................",
"                   (^(](a^{^atK]]({at^{^a^E](^(]   ....................",
"                   (a(]{a^{^ta(]](^ata{^a^EE(^((   ....................",
"                   {^(]^^{{^ta(]K(^ava{^a^]E(^{(   ....................",
"                   {(]K^^{{at^(]K(^ava{^t^(E({{(]  ....................",
"                  ]{(]E{({^at^(]K(^ata{at^(E(({{(  ....................",
"                  ](]]E{(^^ta^(]K(^at^{at^(E(((^(  ....................",
"                  ((]]]{(^at^^(]]K^tv^{at^(E](({(] ....................",
"                  ](]]]](^aa^{(]]K{at^(at^(EE((((] ....................",
"                  ](]]]](^aa^(](]](^t^{^a^(EE]((]] ....................",
"                  ](]]]](((((]]]]]K(a^{^t^(EE({]]] ....................",
"                   ]]]](((^((]K]]K((^{{^^(]]]((]]] ....................",
"                    ]](((^{(]]]]]]((((((]((]]]]]]  ....................",
"                    KK]({^(]]]]]]({^{(]]({(]]]     ....................",
"                 KHHCHKKHH  KK]](({^{]]]((]KHHK    ....................",
"                 HsssCHHCC                KHCCH    ....................",
"                                          KCssCK   ....................",
"                                          KsuusC   ...................."};
