/* XPM */
static char * priest_d1_xpm[] = {
"71 71 36 1",
" 	c #FFC0CB",
".	c #FFC0CB",
"+	c #670B0B",
"@	c #5F4B37",
"#	c #5F0707",
"$	c #530707",
"%	c #131313",
"&	c #6B0F0F",
"*	c #7F532F",
"=	c #4F3B2B",
"-	c #1B1B1B",
";	c #272727",
">	c #232323",
",	c #2F2F2F",
"'	c #372313",
")	c #1F170B",
"!	c #2F1B0B",
"~	c #874307",
"{	c #732B00",
"]	c #731313",
"^	c #3F2B1B",
"/	c #473323",
"(	c #170F07",
"_	c #070707",
":	c #6B4727",
"<	c #675333",
"[	c #474747",
"}	c #3B3B3B",
"|	c #373737",
"1	c #5B5B5B",
"2	c #4B371B",
"3	c #4F4F4F",
"4	c #533F1F",
"5	c #AF7B1F",
"6	c #9B5B13",
"7	c #575757",
"                                                                 ......",
"                                                                .......",
"                                                               ........",
"                                                              .........",
"                                                             ..........",
"                                                            ...........",
"                                                           ............",
"                                                          .............",
"                                                          .............",
"                                                          .............",
"                                                          .............",
"                                          +@#             .............",
"                                         +@@@$%           .............",
"                                        %&*@@=-%          .............",
"                                        -;&@@&>-%         .............",
"                                        ->,@&>>>-         .............",
"                                   ->;>>-;,>'>>>>-        .............",
"                                  ->-)%->;,->>>>>--       .............",
"                                  >-%%%'>;,->>>>>>>-      .............",
"                             %    >-%%'>;;,>%>>>>>>>-     .............",
"                             -    -%%!>;>;,;-%>>>>>;>-    .............",
"                             >%   --'>;;>;,;>%%%>>>>;-%   .............",
"                             ;>--;~~!>>;>;;,;-%%%>>>;>-   .............",
"                             -;>>;~{>>>;>>;,;-%%%>>>;;>   .............",
"                             %-->;{{>--;;>;,;-%%%;>>>;>   .............",
"          =]=^             -->->----->>-;>;,;>%%%;;>>>-   .............",
"             ]]/^--;;>>>;;>>>>->---->;>->;;;,;%%%>;>>>-   .............",
"           =@=/]]>,,,,>;;,,;;>--%->;;;>-%(>;,;-%%-,>>>>   .............",
"          &  ==/]>;;;,;>>;;>>>>_%;'!!:<<!['>;,;%% ;>>>    .............",
"            =^  ^>;>>;;>>>;>>-%(!''!!<!!:!'!-;;%  ;>-     .............",
"            &    >;>>;;>->;;>-_!![-<<<:<<--}!-;-  >>      .............",
"                 >;>>;;;>->;>'(}()-:>><>>>'%,}(_  >-      .............",
"                ->;>>;;;>->;>!(_%-|>:<<>->>}1)%   >       .............",
"                ->;>>;;>>-;;-%%>->;,;>>>>---2:%   -       .............",
"                >>;>>;;>->;>-%-;>;;,;>;;>>--%:2-          .............",
"                >>;>>;>->;;-%%>;>;,,;>;,;>>--}13}         .............",
"                >;;>>;>->;>-%-;>;;,|;>;,,;>>-[45{         .............",
"                >;;>;>>->>>%%-;>;;,|;;;,|,;>>-'{5'        .............",
"                >;;>;>->>>-%%>>;;,,|,;;,|,;;>>-{~~        .............",
"                >;;>;>->>>- ->>;,,|,;>;,,|,;>;>>{6[       .............",
"                >;;>>>---   --;;,||,,->,,|,,;>;>!{7       .............",
"                >;;>>--    _!-;,,||,,'-;,|,,;>;;- [       .............",
"                >>--       ))-;,,||,,!);,|,,;>>;;-        .............",
"                >-         ))-;,,|,,,!);,||,,>>>,>        .............",
"                          %)(>;,,|,,;));,||,,;->,,        .............",
"                          -')>,,|,;>-));,|||,;->;,-       .............",
"                          -');,,|,--)%!;,|}|,;>->,;       .............",
"                          -'-;,||;-)-%-;,|}||,>->;,       .............",
"                         %>'-;,||;-)%%-,,|}}|,;->;,       .............",
"                         ->)-;,||,-)%);,,|}}|,;-->,-      .............",
"                         ->)>;,||,-)%);,,|}}|,;-->,;      .............",
"                         ->)>;,|,-!%%-;,,|}}|,;-->,,      .............",
"                        %>-)>,,|;-)%%-;,,|}}|,;-->;,      .............",
"                        %-)-;,,,;-)%%-;,,|}}|,;>->>,>     .............",
"                        -')-;,|,;-!%%-;;,|}||,;>-->,;     .............",
"                        -))>;,|,;>-%%)-;,|}|||,;-->,;     .............",
"                        )%)>;,|,,>-)%%)-;||||,,;-->,;     .............",
"                       _(%)>;,,,>-!)%%()'>>>------>>>!    .............",
"                       _%%(->;;>-))-%%%>;,,,;--%%->;-!    .............",
"                       (%%(->,;-%%%%%%%-;;,,;--%%%-;>%    .............",
"                       --%%->,;-%%%%%%%%->,;>--%%%->-%    .............",
"                       ;-%%->;>-%%%%%%____________%%%%(   .............",
"                       ;-%______________________)))'')(   .............",
"                       >%_______________________))!22')   .............",
"                       %_____()(________________!(____    .............",
"                          ___)))_______         (___      .............",
"                            ()!)                          .............",
"                           )!)))                          .............",
"                          )'!))!                          .............",
"                        )''!)(!'                          .............",
"                       )'2')(                             ............."};
