/* XPM */
static char * priest_aim_3_xpm[] = {
"71 71 68 1",
" 	c #FFC0CB",
".	c #FFC0CB",
"+	c #545454",
"@	c #484848",
"#	c #B4B4B4",
"$	c #404040",
"%	c #D0D0D0",
"&	c #989898",
"*	c #8C8C8C",
"=	c #303030",
"-	c #7C7C7C",
";	c #A8A8A8",
">	c #383838",
",	c #282828",
"'	c #1C1C1C",
")	c #000000",
"!	c #646464",
"~	c #202020",
"{	c #232323",
"]	c #707070",
"^	c #131313",
"/	c #272727",
"(	c #B47044",
"_	c #FCF400",
":	c #C87C4C",
"<	c #0000BC",
"[	c #F0945C",
"}	c #9C6038",
"|	c #CCC400",
"1	c #885830",
"2	c #1B1B1B",
"3	c #80502C",
"4	c #FCB890",
"5	c #FCC4A4",
"6	c #FCB080",
"7	c #D08050",
"8	c #FCBC9C",
"9	c #B4AC00",
"0	c #6C4824",
"a	c #FC9C60",
"b	c #FCA470",
"c	c #2F2F2F",
"d	c #E88C58",
"e	c #BC7848",
"f	c #DC8854",
"g	c #2C2C2C",
"h	c #A0643C",
"i	c #905C34",
"j	c #1F170B",
"k	c #4B371B",
"l	c #373737",
"m	c #3B3B3B",
"n	c #874307",
"o	c #9B5B13",
"p	c #732B00",
"q	c #070707",
"r	c #170F07",
"s	c #2F1B0B",
"t	c #372313",
"u	c #6B4727",
"v	c #675333",
"w	c #474747",
"x	c #575757",
"y	c #5F4323",
"z	c #7F532F",
"A	c #838383",
"B	c #4F4F4F",
"C	c #434343",
"                                                             ..........",
"                                                            ...........",
"                                                           ............",
"                                                           ............",
"                                                           ............",
"                                   +++                     ............",
"                                 ++@#@@$                   ............",
"                               +@#%%%%&*==                 ............",
"                              $=$$@-;-$>=,'                ............",
"                              ,),!+>~')))''                ............",
"                               ),!+>~'))))                 ............",
"                           {   ]*;***-+@,)   {             ............",
"                          ^/   (_:<:[}<:|1   /2            ............",
"                          2/2  3_456718490   /{^           ............",
"                          ^{{2 (a66bbbbb71222c{^           ............",
"                          ^2/222adbeeeb(7222^/2^           ............",
"                           ^/2^2adbbbbb(722^2{^            ............",
"                            {/^2abbb:bdf32^2/2             ............",
"                         ^222{2gg((hhii33)^/{2^            ............",
"                        ^{c/2222cc{jj22{/c/22222           ............",
"                       ^2//c/{{2k{l22/{2{k22{//{2          ............",
"                       2//{///clkc{ll//lk/c/22cc22         ............",
"                      2/cc/{{/cl/km//clk/lc{22/c//2        ............",
"                     2/c/c//2{/cc/kno2k/mc{222/c/c/2       ............",
"                    ^{l/{/c/{2/cl/oooo/cl/222/cc//l{2      ............",
"                   22/l/{{/c/{/cl/noon{c/{22{///ccc/2      ............",
"                   2/clc/2/lc{cccc2oo2/c/22{/cccc//c22     ............",
"                  ^{////c2/cc/c/222on2^222{/cc/c/{cl/22    ............",
"                  2/lc2{c2//cc{^22{np22^{2{c/{2//c/c//2    ............",
"                 ^{cmc/2/{{//{2^22/2/22^2{{/{2{///{lc{2    ............",
"                 2/lllc2{/2//{q2{2c2c{22^2{/2{c//2/ll/{2   ............",
"                 2c{{{{c{c2/{rsttssuvvstsj^{///2//22{c{2   ............",
"                 c2k//w/2/2{2csxsssvssutwscr2/{//w//kc{2   ............",
"                2/2u///w//22qjstsvvvuvvstsjq^/{/w///y//2   ............",
"                2cjz))/AA/{2q2/2{u{{v{{222222/{AA/))k2c{   ............",
"                2crzt)x^^x{ 2/c2{{uvv{2{tBc^t2x^^x)tt^/{   ............",
"                {/qkutc^^^2 {c/{l{//{2{c{jtsts^^^ctk^^2/   ............",
"                {{^^22tttt^ /c{/l{/l/{cl2{jtsmtttt^^^^2/2  ............",
"                {2^^22^c{2 ^c/{cm{cmc{cl{2^jcws/2^^^^ 22/  ............",
"                2{^22q l{2 2l/{cm{cml//l/22cBcpc2^    ^2/  ............",
"                2/^^q  c{2q2c{{ll/lCmc{cl2{wcpnp/      ^c  ............",
"                2c^^   c2 ^{/2/ml/lCll{/l{/2tspp/      ^/  ............",
"                ^cq    c2 2{{2/ml/lCcl/{l{/{{2js/      ^{  ............",
"                 c     / 2222{clc/lm/lc{l/{c2/2 {       2  ............",
"                 {     { 2q22/ll/clm//l/cc{/{{2 2       2  ............",
"                 2      22^2{cml/lml/{l{/l{c{2{^           ............",
"                 2      2{^^{cmc/lml/sl//l/c22{2           ............",
"                       22/^r/cl/ccmc{rlc{c/c^2/2           ............",
"                       2/{^2/lc{clmc{^cl{c/c^2/{           ............",
"                      22c2^2cc/{ctc/s^/l{//c{q/{           ............",
"                      22c2^2lc{/cs{2rj/c/{/c/q/{           ............",
"                     ^2{/2q/l/{/ls2r^2/c/{/c/q/{           ............",
"                     22//^2cc{{/lj^^22cl/{/l/q2{q          ............",
"                    ^2{/2^2c/{/clr^^2{cl/{/c/q^{^          ............",
"                    22/c2^{c/{/lc2^^2/clc{/c/qq{2          ............",
"                   ^2{c/2^//{{/lc2^r2/cmc{/c/^q{2          ............",
"                   q{c/2^r//{{cl/2^r2/cmc{/l/2q{2          ............",
"                   ^{c{2^q{2{/cl/2^r2/clc{cl/2q{2          ............",
"                   ^/{2^^q{2//lc/2^r2/cl/{cl/2qq2          ............",
"                  ^2{22^^^{2/cl//2^^r/lm/{cl/2qq2          ............",
"                  ^{22^^^^^2/cc/{2^^r{cl/2cl/2qq2          ............",
"                  ^22^^^^^^2/cc/2^2^^2/l/{/c/2qq^          ............",
"                   ^^^^^^^^22222^^^^^r2c/{/l/2qqr          ............",
"                     ^^^^^222/22^r^^r22/{{//2^^^r          ............",
"                       ^^222/{2^^^^^^222222^22rrr          ............",
"                         ^2{/2^^^^^^2{/{2^^2{2^^           ............",
"                               rr^^22{/{^^^22^             ............",
"                                      rjjr                 ............",
"                                      jssj                 ............",
"                                      sttsr                ............",
"                                      tkkts                ............"};
