/* XPM */
static char * priest_d5_xpm[] = {
"72 72 25 1",
" 	c #FFC0CB",
".	c #372313",
"+	c #530707",
"@	c #430000",
"#	c #4F0000",
"$	c #5F0707",
"%	c #2B230F",
"&	c #170F07",
"*	c #670B0B",
"=	c #070707",
"-	c #3F2F17",
";	c #6B4727",
">	c #8F7753",
",	c #836B4B",
"'	c #1B1B1B",
")	c #131313",
"!	c #1F170B",
"~	c #533F1F",
"{	c #775F3F",
"]	c #232323",
"^	c #272727",
"/	c #2F2F2F",
"(	c #4B371B",
"_	c #2F1B0B",
":	c #6B0F0F",
"                                                                        ",
"                                                                        ",
"                                                                        ",
"                                                                        ",
"                                                                        ",
"                                                                        ",
"                                                                        ",
"                                                                        ",
"                                                                        ",
"                                                                        ",
"                                                                        ",
"                                                                        ",
"                                                                        ",
"                                                                        ",
"                                                                        ",
"                                                                        ",
"                                                                        ",
"                                                                        ",
"                                                                        ",
"                                                                        ",
"                                                                        ",
"                                                                        ",
"                                                                        ",
"                                                                        ",
"                                                                        ",
"                                                                        ",
"                                                                        ",
"                                                                        ",
"                                                                        ",
"                                                                        ",
"                                                                        ",
"                                                                        ",
"                                                                        ",
"                                                                        ",
"                                                                        ",
"                                                                        ",
"                                                                        ",
"                                                             .          ",
"                                     +                                  ",
"                                                              .@        ",
"                                          .                    #        ",
"                  .               . . .                 .      +        ",
"                                     .  .             .                 ",
"                                     +   .+               +.            ",
"                     .                                          .       ",
"               .                          #  .                  +       ",
"                                          .@                            ",
"            $    $  $    $                @.  .                         ",
"                     .         .           +        .       +.          ",
"        .  .          .             +.@    +  %     +              @    ",
"        +             #   .           .@   .& .%      .        +   .    ",
"                      $        .       .   @. %.               @.   .   ",
"                          @    +       .@   +  +            .   +   +   ",
"                       .. .            @.   .                .  .       ",
"           .      .   .   $             .   @.  @               @.      ",
"           $       .               +    +@  @#  .        #+@     +  .   ",
"@*@              . .  +                 ..  @+@ +@@       @.   @    .   ",
" @               $    .   @            =-;>,;-'''''))))    @.  +        ",
"                 +  .  +  .        )).'!!~{!!!!'']'']]'''))  .+.'   =   ",
"                 .  .  *  $      )&^!/!!(;{!!!!!/!^&^')))''''@.$']'!.!  ",
"                  +    $ .*@    ))'''''''''''''''''''/))))'']]@$..=.!&' ",
"      .            +.@ .@+*.  )))''''''')))'''']'''']''')))''''.+.&!.'& ",
"                   @.#'']'''))))'']]''))))))''']]'''']''')'))=!@+.!!#=  ",
"                    ))))))))=)'''']''')))))''''']]'''']]'')'_@.#$.=.$+@@",
"                  @.+*:+.@=='''']]'''))))&&))'''']]'''']'')''' @.+.@&   ",
"                     @.@=))))'''''))))))))===))))'')))]]^/]')))'        ",
"                       =))))))'^'')))))'')))))))))'')))]]^//^]^')       ",
"                       )))'))'^'')))))'')))))))))))'')&&&&)))))))))     ",
"                       ))'')''')&@@@@@@@@!@&====&!!!%@@#@%%!!!&))))     ",
"                       )')))&@@@##+$$+####@@@@&   &!%@@#+++###@@@@@@&   ",
"                      &@@%%@@#+#..@@                                    ",
"                                                                        "};
