/* XPM */
static char * priest_d6_xpm[] = {
"77 77 24 1",
" 	c #FFC0CB",
".	c #5F0707",
"+	c #372313",
"@	c #530707",
"#	c #430000",
"$	c #670B0B",
"%	c #070707",
"&	c #1F170B",
"*	c #8F7753",
"=	c #836B4B",
"-	c #6B4727",
";	c #3F2F17",
">	c #1B1B1B",
",	c #131313",
"'	c #232323",
")	c #775F3F",
"!	c #5F4323",
"~	c #170F07",
"{	c #272727",
"]	c #2F2F2F",
"^	c #4B371B",
"/	c #4F0000",
"(	c #6B0F0F",
"_	c #2B230F",
"                                                                             ",
"                                                                             ",
"                                                                             ",
"                                                                             ",
"                                                                             ",
"                                                                             ",
"                                                                             ",
"                                                                             ",
"                                                                             ",
"                                                                             ",
"                                                                             ",
"                                                                             ",
"                                                                             ",
"                                                                             ",
"                                                                             ",
"                                                                             ",
"                                                                             ",
"                                                                             ",
"                                                                             ",
"                                                                             ",
"                                                                             ",
"                                                                             ",
"                                                                             ",
"                                                                             ",
"                                                                             ",
"                                                                             ",
"                                                                             ",
"                                                                             ",
"                                                                             ",
"                                                                             ",
"                                                                             ",
"                                                                             ",
"                                                                             ",
"                                                                             ",
"                                                                             ",
"                                                                             ",
"                                                                             ",
"                                                                             ",
"                                                                             ",
"                                                                             ",
"                                                                             ",
"                                                                             ",
"                                                                             ",
"                                                                             ",
"                                                                             ",
"                                                                             ",
"                                                                             ",
"                                                                             ",
"                                                                             ",
"                                                                             ",
"                                                                             ",
"                                                                             ",
"                                                                             ",
"                                                                             ",
"                                      . +                      @+            ",
"                                           @  +                 +            ",
"                      #             + +     +   +                            ",
"                                                @                 +          ",
"                                         +. +                                ",
"                      +                      +   +       @ +        +        ",
"                .         +                                   $     @        ",
"                       $        +    +.+     +   +                           ",
"            +              @            +     + +#   .          +            ",
"                        +       .        +    @        +            @        ",
"                  +  .     +            %&&*=-;>, ,>>'>>,           +        ",
"               +  @     +  @+    >>>>>''>&&)!&&&&>>>''>>>>>>>>,              ",
"                       ,>>'>>,,,'>,~{&]&&^-))&&&&&]&{~{,,,,,>>'>+>>~+>,,     ",
"                   ##,,>>>>,,%,>,{,'>>>'>>,,%,,>'>>>>''>>>>,,,%%%+%+@>>,,,,  ",
"            .   ~##+@@$.@+#%%>>>>''>>>'>>,,%,,>>>'>>>>>'{'>>>>>#+.+%~,,>,+.@#",
"              ~##/@.($.@+#%,~,>''>,,,>>>>,,%,,>>>>{>,,,>>{]{',,,>#++@#%,,,,,,",
"                   ##+@+#,,,,>{>,,,,>{>,,,>{>,,,,>>{>,,,,>{]{>>,,,>#+@+#,,   ",
" +.+   +               ,,,,>'>>,,,,>'>,,,>>'>,,,,,>>>>,,,,,>>{',,,,>         ",
"                      &,,>>>>,,,,,&__+@@/#__,,,&__#@#__##//@/#___&&&         ",
"                     ~#@./++_#/@.@/++/.$./+++____#/@/#____#/@@/#_____&&      ",
"                ~##_++@.@++/@.$.@//+/@.$.@/++++_          ___/@@@/##____     ",
"                    &_#@+/@..$(..@++++__&              ##_##/#_#             ",
"                                                                             "};
