/* XPM */
static char * priest_aim_4_xpm[] = {
"72 71 70 1",
" 	c #FFC0CB",
".	c #FFC0CB",
"+	c #545454",
"@	c #484848",
"#	c #B4B4B4",
"$	c #404040",
"%	c #D0D0D0",
"&	c #989898",
"*	c #8C8C8C",
"=	c #303030",
"-	c #7C7C7C",
";	c #A8A8A8",
">	c #383838",
",	c #282828",
"'	c #1C1C1C",
")	c #000000",
"!	c #646464",
"~	c #202020",
"{	c #232323",
"]	c #131313",
"^	c #272727",
"/	c #707070",
"(	c #1B1B1B",
"_	c #80502C",
":	c #FCF400",
"<	c #C87C4C",
"[	c #0000BC",
"}	c #F0945C",
"|	c #9C6038",
"1	c #B4AC00",
"2	c #6C4824",
"3	c #B47044",
"4	c #FC9C60",
"5	c #FCB890",
"6	c #FCC4A4",
"7	c #FCB080",
"8	c #D08050",
"9	c #885830",
"0	c #FCBC9C",
"a	c #2F2F2F",
"b	c #FCA470",
"c	c #FCCCB0",
"d	c #FCD8C4",
"e	c #E88C58",
"f	c #2C2C2C",
"g	c #DC8854",
"h	c #838383",
"i	c #A0643C",
"j	c #905C34",
"k	c #575757",
"l	c #372313",
"m	c #373737",
"n	c #4B371B",
"o	c #6B4727",
"p	c #3B3B3B",
"q	c #774F2B",
"r	c #8F5F37",
"s	c #874307",
"t	c #9B5B13",
"u	c #5F4323",
"v	c #7F532F",
"w	c #2F1B0B",
"x	c #732B00",
"y	c #070707",
"z	c #675333",
"A	c #1F170B",
"B	c #474747",
"C	c #4F4F4F",
"D	c #434343",
"E	c #170F07",
"                                                       .................",
"                                                      ..................",
"                                                      ..................",
"                                                      ..................",
"                                                      ..................",
"                                                      ..................",
"                                  +++                 ..................",
"                                ++@#@@$               ..................",
"                              +@#%%%%&*==             ..................",
"                             $=$$@-;-$>=,'            ..................",
"                             ,),!+>~')))''            ..................",
"                          {   ),!+>~'))))  {          ..................",
"                         ]^   /*;***-+@,)  ^(         ..................",
"                         (^(  _:<[<}|[<12  ^{]        ..................",
"                         ]{{((34567890589((a{]        ..................",
"                         ](^(((457bbbbb8((]^(]        ..................",
"                         ]]^(](45}cdd5e8(]({]         ..................",
"                          ]{^()45}bbb}e_)(^(          ..................",
"                           ({^)fbbb<begf)^{(          ..................",
"                       hh ](((f>33iijj_f)]]]((        ..................",
"                      k]]k^^^{l{a^^^aaal^{^{{{((      ..................",
"                      ]]]a((^mna{mmm{{n^^^^{^^^{(     ..................",
"                     nllllo^^m^np^^{^n^m^^^^^^{^{(    ..................",
"                     nooqrq^^aa^nst{n^pa^^^]hh{{a{(   ..................",
"                     {uvqnwa^ma^tttt^am^a^{k]]kl^^(   ..................",
"                    ({lnl]]a^m^^stts{a^am{^]]]av(^{]  ..................",
"                    ((]]]]]a^a^a{tt{{a^ma{^llllr]{^(  ..................",
"                    {]]]]]]a^a^a^ts^^aama{anovrq](^{  ..................",
"                    {]]](]]m^a^((sx((]{a^{a(woqu]]{^  ..................",
"                    {]]](]]m^a^({(^({(({^{^{]y]]]](^  ..................",
"                    {]]((]]a^^(({(^{^{((a^{{]]]]]](^  ..................",
"                    {]]((]]a^^y({(ala{l(]^(^(]]y]]({  ..................",
"                    {](((]]aa^wllwwozzwlwA({{   ]]({  ..................",
"                   ({](((] ^a^allwwzwwoBlaA(^(   ]({  ..................",
"                   {(]]]   (a^w](zzzozzwlwAy{{   ]({  ..................",
"                   {((y     {a^((o{{z{{((((l(^(   ]{  ..................",
"                  {(]       ({a{m{ozz{({lCa]l({   ]{( ..................",
"                 {]]        ^a{^m{^m^{am{Alwl ({   {( ..................",
"                            a^{ap{apa{am({Alwp     ({ ..................",
"                           ]m^{ap{apm^^m{(]AaBw    ({ ..................",
"                           (m^{ap{apm^^m^((aCaxw    { ..................",
"                          y(a{{mm^mDpa{am({Baxsxw     ..................",
"                          ]{^(^pm^mDmm{^m{^(lwxxxw    ..................",
"                          ({{(^pm^mDam^{m{^{{(AwCp    ..................",
"                         (({({ama^mp^ma{m^{^({(       ..................",
"                         ({((^mm^amp^^m^aa{^({(       ..................",
"                        (({({apm^mpm^{m{^m{a(({]      ..................",
"                        ({(]{apa^mpm^wm^^m^a(({(      ..................",
"                       ((^(E^am^aapa{Ema{a^a]({(]     ..................",
"                       (^{](^ma{ampa{]am{a^a]({{(     ..................",
"                       (a(](aa^{ala^w]^m{^^a(y({(y    ..................",
"                       (a(](ma{^aw{(EA^a^{^a(y(^(]    ..................",
"                       {^(y^m^{^mw(E](^a^{^a{y(^{(    ..................",
"                      (^^](aa{{^mA]]((am^{^m^y({{(    ..................",
"                      (^(](a^{^amE]]({am^{^a^y](^(]   ..................",
"                      (a(]{a^{^ma(]](^ama{^a^yy(^((   ..................",
"                      {^(]^^{{^ma(]E(^apa{^a^]y(^{(   ..................",
"                      {(]E^^{{am^(]E(^apa{^m^(y({{(]  ..................",
"                     ]{(]y{({^am^(]E(^ama{am^(y(({{(  ..................",
"                     ](]]y{(^^ma^(]E(^am^{am^(y(((^(  ..................",
"                     ((]]]{(^am^^(]]E^mp^{am^(y](({(] ..................",
"                     ](]]]](^aa^{(]]E{am^(am^(yy((((] ..................",
"                     ](]]]](^aa^(](]](^m^{^a^(yy]((]] ..................",
"                     ](]]]](((((]]]]]E(a^{^m^(yy({]]] ..................",
"                      ]]]](((^((]E]]E((^{{^^(]]]((]]] ..................",
"                       ]](((^{(]]]]]]((((((]((]]]]]]  ..................",
"                       EE]({^(]]]]]]({^{(]]({(]]]     ..................",
"                    EAAwAEEAA  EE]](({^{]]]((]EAAE    ..................",
"                    AlllwAAww                EAwwA    ..................",
"                                             EwllwE   ..................",
"                                             Elnnlw   .................."};
