/* XPM */
static char * priest_aim_2_xpm[] = {
"71 71 71 1",
" 	c #FFC0CB",
".	c #FFC0CB",
"+	c #545454",
"@	c #484848",
"#	c #B4B4B4",
"$	c #404040",
"%	c #D0D0D0",
"&	c #989898",
"*	c #8C8C8C",
"=	c #303030",
"-	c #7C7C7C",
";	c #A8A8A8",
">	c #383838",
",	c #282828",
"'	c #1C1C1C",
")	c #000000",
"!	c #646464",
"~	c #202020",
"{	c #707070",
"]	c #232323",
"^	c #B47044",
"/	c #FCF400",
"(	c #C87C4C",
"_	c #0000BC",
":	c #F0945C",
"<	c #9C6038",
"[	c #CCC400",
"}	c #885830",
"|	c #131313",
"1	c #272727",
"2	c #80502C",
"3	c #FCB890",
"4	c #FCC4A4",
"5	c #FCB080",
"6	c #D08050",
"7	c #FCBC9C",
"8	c #B4AC00",
"9	c #6C4824",
"0	c #1B1B1B",
"a	c #FC9C60",
"b	c #FCA470",
"c	c #E88C58",
"d	c #BC7848",
"e	c #2F2F2F",
"f	c #DC8854",
"g	c #2C2C2C",
"h	c #A0643C",
"i	c #905C34",
"j	c #1F170B",
"k	c #070707",
"l	c #4B371B",
"m	c #373737",
"n	c #3B3B3B",
"o	c #874307",
"p	c #9B5B13",
"q	c #838383",
"r	c #575757",
"s	c #732B00",
"t	c #5F4323",
"u	c #372313",
"v	c #7F532F",
"w	c #A36B3F",
"x	c #8F5F37",
"y	c #774F2B",
"z	c #9B633B",
"A	c #170F07",
"B	c #2F1B0B",
"C	c #6B4727",
"D	c #675333",
"E	c #474747",
"F	c #4F4F4F",
"                                                         ..............",
"                                                         ..............",
"                                                         ..............",
"                                  +++                    ..............",
"                                ++@#@@$                  ..............",
"                              +@#%%%%&*==                ..............",
"                             $=$$@-;-$>=,'               ..............",
"                             ,),!+>~')))''               ..............",
"                              ),!+>~'))))                ..............",
"                              {*;***-+@,)                ..............",
"                         ]    ^/(_(:<_([}   ]            ..............",
"                        |1    2/3456}7389   10           ..............",
"                        010   ^a55bbbbb6}0  1]|          ..............",
"                        |]]0000acbdddb^60000e]|          ..............",
"                        |0100|0acbbbbb^6000010|          ..............",
"                         |10||0abbb(bcf20|00]|           ..............",
"                         0]100gg^^hhii22)||00            ..............",
"                        000]1e]0]j|k|011000|kk           ..............",
"                       01e1000ee0jj011000|000]0|         ..............",
"                      |1]1e]1]l]m001]0]l]0]]11100        ..............",
"                      0e]0]11mle]mm11ml11]1]1]1100       ..............",
"                     0]1]0011m1lnopeml1n1]11111me]|      ..............",
"                    k]01]]0]1ee1ppppl1ne1]]111e11]0|     ..............",
"                    01001]]0]1m1oppo1em1]1]]001]e100|    ..............",
"                    0]0001]0]1m1]pp]]e1]]1]00qq0]e1]0|   ..............",
"                   k]0]001]011ee]po]1e1]1]0]r||r]11]00   ..............",
"                   0]|]00]]]1]|0]os0]|0]1001|||ettu0]]|  ..............",
"                   01|0]00]110|00]0000|1]001uuuuvvt0k]0  ..............",
"                  k010|0]0]]0k00010100|0]0]10vvwxyt|k0]  ..............",
"                  0010||0]0]kk0]0eue]u0|]0]]0lxvzyu|k0]  ..............",
"                  0]]00|00]0ABuuBBCDDBuBj0]]00txCukk|0]  ..............",
"                   Bk]000]0keBuuBBDBBCuEB111000e00|k|01  ..............",
"                  u)eu]00]kkjB|0DDDCDDBuBjA]100e00|k|0e  ..............",
"                  u)1u0000kk0100C]]D]]00000j]]0e000|001  ..............",
"                  u11u|0]kk011]m]CDD]0]uFe|u0]01 00000]  ..............",
"                  y1)uk|]k|]e]1m]1m1]e1]juBu 00e    000  ..............",
"                  y1)y k0k0e1]1m]1e10]e0]juBn 01    0]   ..............",
"                  y1)y k001e]1em11mm10100|jeEB ]     ]   ..............",
"                  u1)y  k01]01me]1ene1]e00eFesB0     0   ..............",
"                  ue)u  k]1]]eme]11mne11e]EesosB         ..............",
"                  ue)u   e101me1]e]emme1110uBsssB        ..............",
"                  uEeu   e]01n1]]e0emmme]1100jBFn        ..............",
"                   Eu   0e001m101e0emenm1]11]0           ..............",
"                        ]m00]e10em01meeme]0110           ..............",
"                        ]m0001]0em]1ne0em10010           ..............",
"                       00e00|1]0en]1ne01me]0000          ..............",
"                       ]0e00|1]0en11mej]ee1]k00          ..............",
"                       10m10|1]]en11mej0em1]||0          ..............",
"                      010m10|]1]em11e1j01m110|0          ..............",
"                      0e0ee]|0101m101]jj1ee10k|          ..............",
"                      ]e0ee1|]101e1|0]|j11e]00|          ..............",
"                     k]1]1m1|010]ee0|||j]1e]00|          ..............",
"                     A0101ee0A0]01m]k|||0]e100|          ..............",
"                     |0e01em]A0]0]m10|||0]ee]0|          ..............",
"                     0ke0]em1||0]]m1]0k|k]1e100          ..............",
"                     0k1]01meA|000me10k|A0]1e]0k         ..............",
"                     0A]1]0ee0||001m1]0k|k0]110k         ..............",
"                     000e10]e10|0A]em1]0k|k0]e]|         ..............",
"                     00A]1]01m]A|0k1m1100||k0010         ..............",
"                     |0|01]0]em]|A0|1e1]0|A|k|00         ..............",
"                     |0||0]001e]||0A0em100A|Ak|0         ..............",
"                     |00|k|00]e10|00k]1e]0|AAA||         ..............",
"                     |0]||A|00110||000]1e]00|A|          ..............",
"                     |0]0||||001]0|A|00]]e100A           ..............",
"                      |000|||0011]0||00]0]10             ..............",
"                       |00||||0]1]0|||00]0|              ..............",
"                              AjjA  AAA00|               ..............",
"                              ABBj  AjBjA                ..............",
"                              juuj  jBuBj                ..............",
"                             ABuuB                       ..............",
"                             Bullu                       .............."};
