/* XPM */
static char * priest_d4_xpm[] = {
"71 71 27 1",
" 	c #FFC0CB",
".	c #372313",
"+	c #530707",
"@	c #4F0000",
"#	c #3F2B1B",
"$	c #670B0B",
"%	c #2B230F",
"&	c #430000",
"*	c #5F0707",
"=	c #731313",
"-	c #6B0F0F",
";	c #272727",
">	c #170F07",
",	c #3F2F17",
"'	c #6B4727",
")	c #8F7753",
"!	c #836B4B",
"~	c #1B1B1B",
"{	c #1F170B",
"]	c #2F1B0B",
"^	c #131313",
"/	c #775F3F",
"(	c #232323",
"_	c #4B371B",
":	c #533F1F",
"<	c #2F2F2F",
"[	c #070707",
"                                                                       ",
"                                                                       ",
"                                                                       ",
"                                                                       ",
"                                                                       ",
"                                                                       ",
"                                                                       ",
"                                                                       ",
"                                                                       ",
"                                                                       ",
"                                                                       ",
"                                                                       ",
"                                                                       ",
"                                                                       ",
"                                                                       ",
"                                                                       ",
"                                                                       ",
"                                                                       ",
"                                                                       ",
"                                                                       ",
"                                                                       ",
"                                                                       ",
"                                                                       ",
"                                                                       ",
"                                                                       ",
"                                                                       ",
"                                                                       ",
"                                                                       ",
"                                           .                           ",
"                                        +                              ",
"                                             @                         ",
"                 #                                                     ",
"                  #   +               . .     +                        ",
"              $                      +   @%   @         .  +&          ",
"                #   *                     @   %                        ",
"                                        + &           *                ",
"               #      @            $+@. . %   +                        ",
"           &#    #    $  #       .    &..     @             + .        ",
"           $     ##   =                 .& +  .           .       +    ",
"                  $   #         .        @ @   #     *&   +    *  .&   ",
"              @     $           +        . %%  #               .   .   ",
"             *      #  #            *    .& & .#%           *          ",
"   &$&           +& #& #                 &. &  +.   +       @   .   +  ",
"    &       #  $  # &#    -              @$+%.+$+;     .    >@      .  ",
"            -     &# #    *            &,')!',~..{]..        .  *      ",
"                   # $  @ @       ^~~~~@~~/~~~~~~~(;;.    +  &@ .      ",
"       #           &#- @$ &      ^~~(;.]_':(~~~~(~~;<;~    .  .  .     ",
"                     #  * .&     ^~(;(~~[[>>^~~~;(~(;<;~~~^   &.     + ",
"                     &  + &&     [~(<(~^[[[^~~~(;;~~(<;(~~((.~{*.+   . ",
"                        &  *    ^^~(<(~~^>^>^~~((<(~(;<(;(~((~.*.@     ",
"                   &*     %$.^~~^~~;<;~~^>^^>^~~(<(~~(<((;(~~~&..&[.   ",
"                     .  &#**@~(~^~~;<;(~^>^^>^~~((;(~(;;~;;(~~&.&[[[   ",
"                      @+*$*&^~~(^~((;((~^^^>^^~~~~(~~^~;<.;;~^>[[[[>   ",
"                          [~~^~;^~~~(~^^^^^^^^^^^~~<~^~~<].;~[[[[[[>   ",
"                          [^~[^(>^~~~;(~^^^^^^^^^^~;(~^~;;>(([[[[[>>   ",
"                          [^(^^~>^~(;<(~^^^^^^^^^^~~;(~>(<^^<{^^[[>>   ",
"                          [^~^^~>^~~(;(~~^^^^^^^[[[[[[[[^;~^(;^^[[>>   ",
"                          [^~~>(~^^~~(;(~^^^^^[[[[[[[[[[[[>^~<{[[[>>   ",
"                          [[^>~(~^^^[[[>{{{{{>[[[[[[>>{&>[[[[~~[[[^>   ",
"                           [^>~~(~[[[[{{{{{{{{>>[[[>{{{{{{{>[[[[[[[>   ",
"                           [[^^~~[[[[[>{&&&{{{{{[[[{&&&{&{>>[[[[[[[    ",
"                           [[~^^[[[[[[[{{&{{{&{>[[[{{&%&&{{>[[[[[[[    ",
"                             ~^[[[[[[>{{%%%{{%{{>[&&{%%@{{>[[[[[[[     ",
"                             ^^[[[[[[[&&&%&{%[{&{[[>{%%+>[[[[[[[[      ",
"                              [[[[[[[&&&[&@[%[[&>[[[[&^@[              ",
"                              [[[[[[[&[[[%@%[[%&^^^[[@[+               ",
"                              %[[[[&[+[[[%%%^^^&[[[[[+                 ",
"                               &[[[[  [[^%^^%[ &%                      ",
"                                    %       %  @      %                ",
"                          &&  +$-+.+$+   .$+&&     >%@&&  @            ",
"                                                                       "};
