/* XPM */
static char * priest_aim_1_xpm[] = {
"71 71 71 1",
" 	c #FFC0CB",
".	c #FFC0CB",
"+	c #545454",
"@	c #484848",
"#	c #B4B4B4",
"$	c #404040",
"%	c #D0D0D0",
"&	c #989898",
"*	c #8C8C8C",
"=	c #303030",
"-	c #7C7C7C",
";	c #A8A8A8",
">	c #383838",
",	c #282828",
"'	c #1C1C1C",
")	c #000000",
"!	c #646464",
"~	c #202020",
"{	c #232323",
"]	c #707070",
"^	c #131313",
"/	c #272727",
"(	c #B47044",
"_	c #FCF400",
":	c #C87C4C",
"<	c #0000BC",
"[	c #F0945C",
"}	c #9C6038",
"|	c #CCC400",
"1	c #885830",
"2	c #1B1B1B",
"3	c #80502C",
"4	c #FCB890",
"5	c #FCC4A4",
"6	c #FCB080",
"7	c #D08050",
"8	c #FCBC9C",
"9	c #B4AC00",
"0	c #6C4824",
"a	c #FC9C60",
"b	c #FCA470",
"c	c #2F2F2F",
"d	c #E88C58",
"e	c #BC7848",
"f	c #DC8854",
"g	c #2C2C2C",
"h	c #A0643C",
"i	c #905C34",
"j	c #1F170B",
"k	c #4B371B",
"l	c #373737",
"m	c #3B3B3B",
"n	c #874307",
"o	c #9B5B13",
"p	c #838383",
"q	c #575757",
"r	c #070707",
"s	c #6B4727",
"t	c #372313",
"u	c #732B00",
"v	c #170F07",
"w	c #5F4323",
"x	c #8F5F37",
"y	c #A36B3F",
"z	c #7F532F",
"A	c #9B633B",
"B	c #2F1B0B",
"C	c #675333",
"D	c #474747",
"E	c #774F2B",
"F	c #4F4F4F",
"                                                     ..................",
"                                                    ...................",
"                                                    ...................",
"                                                    ...................",
"                                 +++                ...................",
"                               ++@#@@$              ...................",
"                             +@#%%%%&*==            ...................",
"                            $=$$@-;-$>=,'           ...................",
"                            ,),!+>~')))''           ...................",
"                             ),!+>~'))))            ...................",
"                         {   ]*;***-+@,)   {        ...................",
"                        ^/   (_:<:[}<:|1   /2       ...................",
"                        2/2  3_456718490   /{^      ...................",
"                        ^{{2 (a66bbbbb71222c{^      ...................",
"                        ^2/222adbeeeb(7222^/2^      ...................",
"                         ^/2^2adbbbbb(722^2{^       ...................",
"                        22{/^2abbb:bdf32^2/2        ...................",
"                      2{c{2{2gg((hhii33)^/{2        ...................",
"                      {cc/{22{cc{jj2{c/k/2222       ...................",
"                     2{////c/{k/lmlcc{k{22{/{2      ...................",
"                     {//{2{/cm/k////{k/l//{c/{2     ...................",
"                    2cc/2222/cm/k/nok/cc/{{///{     ...................",
"                    /lc/{222{/lc/oooo/l/{2{{2{{2    ...................",
"                   2/clc/{2pp{/c{noon/l/2{/{{{{{    ...................",
"                   2{{cllcq^^q/c/cooccc{{//22{{{2   ...................",
"                  r2{{/c22^^^c2^^2on{2^{{c{222{{2   ...................",
"                  2{22c2kstttt^22{nu22^2//22v22{{   ...................",
"                  2{22/twxyzz2^22/2/222r2{22^2{{{   ...................",
"                 r2{22/tsAzxk^22/c2c22{rr222r22{{{  ...................",
"                 2{222c^vwxw2{2/c{//2{2^rr22v22{22  ...................",
"                 2{22{c2r2{BttBBsCCBtBj^^^22v222/2  ...................",
"                 2{22/c2^2/BqBBBCBBstDBcv22/D///{2  ...................",
"                 ^222l/2^{/BtBCCCsCCBtBjrr/D///E2{^ ...................",
"                 ^22{l222{/r2{s{{C{{22222/D//))w^{2 ...................",
"                  22/l2{2{/^2{{sCC{2{{Fc/D///)tt^{2 ...................",
"                  22cc /{{/22/2{{{2/2{jtpp/))tkr^2{ ...................",
"                  2{l{ 2///2{c2{/c/c2/2q^^q)t^^r^2{ ...................",
"                  r/l2 r2//2/c2{/l/c{/{^^^ctv^^r^^{ ...................",
"                   {l  2^{/2c/2{cm/c{/cttttuB^ r^^{ ...................",
"                   2l  22^/2c{2/cm/l{/c{DcunuB r^^{ ...................",
"                   r/  22^2/c2{/ll/l//l/22^uuuB r2{ ...................",
"                    2  2^22c/2{clc/l//l/2/2^BFm r2{ ...................",
"                      r22{c/{2/tcc/l{cm/2c/2^^   {2 ...................",
"                      222/c/{2/c//cc{cm/2cc{2^   {  ...................",
"                      {^{c/{2/t{2/ll{ll/2cc{2^      ...................",
"                     r2^/c/{{/t22/lc{lc/2cl{22      ...................",
"                     22^c/{2/ct2{cl/{lc/2/l{22      ...................",
"                     2r2c/{2/tj2/cl{/lc{2/l/22      ...................",
"                     22{/{22tj22/cc{cc/2{/l/22      ...................",
"                     22/{2B2B^^{/c//lc{2/cl/22      ...................",
"                     2{/222/jr2/cc{clc2r/cl/22^     ...................",
"                     2/{222{^^2/c{/ll/2^/lc{2{2     ...................",
"                     2/22{22r2{c//clc/2^{l/{2{2     ...................",
"                    r2/22{2222/c{/llc/2^/l/22/2     ...................",
"                    r{{2{{2^22//{/lc/{22/c/2{/2     ...................",
"                    r/22/2^^22/{{cl//222c/{2{{2r    ...................",
"                    ^{2{{2^^2{/{/cl/{2^{c/2{/22^    ...................",
"                    ^{2/22^^2{/{/lc{22^//{2/{2{2    ...................",
"                    r2{222^^2/{{lc/{222{{2{/2r{2    ...................",
"                    ^rr2{2r^2/{/l/{222/{2{//2^2r    ...................",
"                     v2/22v^2{/c/{222/{2{//2r^2^    ...................",
"                     ^222^^^^22{{2222/2^t2Bv^^^^    ...................",
"                       ^2vv^^22^^^^2/c{2^^^^^^^v    ...................",
"                          v^22^^^^^2/c{2^^^^^^      ...................",
"                             vvv^^222/22^^          ...................",
"                             vvvv  vjjv             ...................",
"                            vvvvv  jBBv             ...................",
"                            vjBjv  jBBv             ...................",
"                            jBtBj  jttj             ...................",
"                                   BttBv            ...................",
"                                   tkktB            ..................."};
