/* XPM */
static char * priest_d7_xpm[] = {
"70 71 24 1",
" 	c #FFC0CB",
".	c #430000",
"+	c #372313",
"@	c #5F0707",
"#	c #530707",
"$	c #4F0000",
"%	c #070707",
"&	c #1F170B",
"*	c #8F7753",
"=	c #836B4B",
"-	c #6B4727",
";	c #3F2F17",
">	c #1B1B1B",
",	c #131313",
"'	c #232323",
")	c #775F3F",
"!	c #170F07",
"~	c #2F2F2F",
"{	c #3B3B3B",
"]	c #4B371B",
"^	c #272727",
"/	c #670B0B",
"(	c #2B230F",
"_	c #6B0F0F",
"                                                                      ",
"                                                                      ",
"                                                                      ",
"                                                                      ",
"                                                                      ",
"                                                                      ",
"                                                                      ",
"                                                                      ",
"                                                                      ",
"                                                                      ",
"                                                                      ",
"                                                                      ",
"                                                                      ",
"                                                                      ",
"                                                                      ",
"                                                                      ",
"                                                                      ",
"                                                                      ",
"                                                                      ",
"                                                                      ",
"                                                                      ",
"                                                                      ",
"                                                                      ",
"                                                                      ",
"                                                                      ",
"                                                                      ",
"                                                                      ",
"                                                                      ",
"                                                                      ",
"                                                                      ",
"                                                                      ",
"                                                                      ",
"                                                                      ",
"                                                                      ",
"                                                                      ",
"                                                                      ",
"                                                                      ",
"                                                                      ",
"                                                                      ",
"                                                                      ",
"                                                                      ",
"                                                                      ",
"                                                                      ",
"                                                                      ",
"                                                                      ",
"                                                                      ",
"                                                                      ",
"                                                                      ",
"                                                                      ",
"                                                                      ",
"                                                                      ",
"                                                                      ",
"                                                                      ",
"                                                                      ",
"                                                                      ",
"                                                                      ",
"                                                                      ",
"                              .+@#+.                                  ",
"                          .+$%&&*=-;>,#,>>'>>,                        ",
"                      >>>>>''&&&)&&&&&>>>''>>>>>>>>,+#+               ",
"            ,>>'>>,,,'>,!~&{&&]-)&&&&&&{&^!^,,,,,>>%&++%!$&%!!        ",
"      .++..,>>>>,,%,>,^,'>>>'>>,,%&,>'>>>>''>>>>,,,%%%+%+.&,>,!+..    ",
"    .++#/@#/#+.,%%>>>>''>>>'>>,,%,,>>>'>>>>>'^'>>>>.++#+.!!!>&+##+..  ",
"   ++#@#++#/#.%!,!,>''>,,,>>>>,,%,,>>>>^>,,,>>^~^',,,>.+##+.!!,,,,    ",
"       .+#@/+%,,,,>^>,,,,>^>,,,>^>,,,,>>^>,,,,>^~^>>,,,.+$#$+,,,      ",
"            ,,,,>'>>,,,,>'>,,,>>'>,,,,,>>>>,,,,,>>^',,,,>..$#>,       ",
"           &,,>>>>,,,,,&((+##$.((,,,&((.#.((..$$#$.(((&&&             ",
"          !.#@$++(.$#@#$++$@/@$+++((((.$#$.((((.$##$.(((((&&          ",
"     !..(++#@#++$#@/@#$$+$#@/@#$++++(          ((($###$..((((&        ",
"         &(.#+$#@@/_@@#++++((&              ..(..$.(.                 ",
"                                                                      "};
