/* XPM */
static char *_7519_c3eb342d02145197743c815b60d32a66af1d6c38fa1f67a7b8b5b58634f11be5[] = {
/* columns rows colors chars-per-pixel */
"64 64 14 1 ",
"  c #646464",
". c gray44",
"X c #7C7C7C",
"o c #B4AC00",
"O c #CCC400",
"+ c #E4D800",
"@ c #FCA85C",
"# c #FFC0CB",
"$ c gray55",
"% c #989898",
"& c gray66",
"* c #B4B4B4",
"= c #C0C0C0",
"- c #D0D0D0",
/* pixels */
"################################################################",
"################################################################",
"################################################################",
"#####################X##########################################",
"######################&#########################################",
"#######################*########################################",
"#######################X*$######################################",
"########################&*$#####*###############################",
"################%########&*$#####*##############################",
"#################%####%###&=*####**#############################",
"##################=%###%###&=*####*%############################",
"###################=%%##%X#%*=*###$*$###########################",
"###################%==%##%% %*=*X##$*###########################",
"####################=@=%##%*&%*=*X###*#############%############",
"####################%=@o*#%-*&%*=*X###*#############%###########",
"######%##############=o+O*#*-**%*=*X#################*##########",
"#######%#############%=O+O*#*+@*%*=*X#################*X########",
"########%X############%o+O@*$*+@&%X=*##$#####$########X*X#######",
"#########*X############=O+O@*$@+@&%#=X##%#####$####%###X*X######",
"#########X*X###%#######%oO+O@**O+@&%#$X##*#####&$###*###X*X#####",
"####%#####*-*###%###-###=oO+@**@O+@&%#$###*%####&=$##*X##%*%####",
"#####=%####*-*###*X##-###*OOO@**@++@&%#$###*%####&=$##*X##%*X###",
"#%###$-=%##%*-*##X**##-##=*O+O@*&O+O@&##$##%=%.##X==%#%*X##%*###",
"##%###&-=*##%=-=##$=*#=-****O+@*&&O+O@&##*##*=%.##&=*%#*&X##%X##",
"###*$##&-=&X#&=-=##$=*X=-*&**@+=&&&O+o@*##*X#*-*X#X==*&&*&X##%##",
"###%*$##&-=&X#&=-=$#$***=-*%**@@=&&&O+o&&##**#*-=%#=**%&**%###%#",
"####%**$#=-=&*X&=-=$#%*&*=--%**=-=&&*o+o&*##==#&-=%X=*&#%**X####",
"##=##&-***=-=&%$&=-=%$&*&**=-=&*=-=&*&o+*&*#X-=X=-=&&=&%##**####",
"###=#X&-=**=-=&%$&=-=&$&*%&*=-=&&=-=&*&&+*$*#=&*&=-=&&=&.##X*###",
"####=X$*-=&&=-&&%$&=-=&$**%&*=-=&&=-=&&%&-&X**=$*&=-*X%=%####*##",
"####$=%&*-=%%**&&%$&=-=**&&%&*=-=&&=-=&&%%-&#X=*X**=-*X*=.######",
"#####$=***-=%%**#%%$%&-****&%&*=-=&&=-=*X%%-&#X*=#*&*-*#&%######",
"######$=***-=%#%*##%$%X&***=&%&*=-=&&*-**X%%-%##&*#.%&=&#X%#####",
"####X##$=*&*-=%#%*##### *-==*&%&*=-=&&*-*&#%X*%##X$##%&*&##%####",
"#####*##$=*#&-%##$*###$# *--=*&%%&=-==&*-&%###*%###X##.%*%##%###",
"#####%*##$=*#$*$###%###%# =--=**&%&=--=*&-%.###*########.%###X##",
"######**##$=##$*$###*###&$ =--=**&%&=--=&&*$ ###*#########X#####",
"#######%%###$##$*####*##$*$=-=-==*&%&=--=$**X####*##############",
"#########$###$###$###%*##&**=-=--=&&%&*=-=$$*%##################",
"##################$###%==#**-====-=&&%&*=-=#$*%#################",
"#######################*-= **-=**=-=&%X%*=-=##*X################",
"##############X######&#%=-=&**-**&==-&%.&*=-=##.################",
"###############$X#####&#*=-=&**-**&*=-&.#%&=-=##################",
"###############X*$X### &X*=-=***-*&%*=-*X#%%*-%#################",
"################$*%&X##%&%*=-=*&*-**X**=%##X%**%################",
"#################$=*&X# %&**=-=*&*-&*#%&*$###X**%###############",
"##################X=*&$#%&&**=-==&*-*=#X*&X####%%###############",
"##################X%==&$ %%&&*==-=&&-==##X%X#####X##############",
"#############$$####X%==&&&&&&&**=-=&*-**##X&####################",
"############$&*$####X%==&***&&&&*=-=**-&X##X.###################",
"############$****XX##X*==&*****&**=-=***%X###.##################",
"############$*&***%X##%*==&*==**&&*=-=*&*%######################",
"#############&$$**&%X.$%&==&*==**&&*=-=%&&X#####################",
"#############%##%**&%X.$%&==*%==**&**=-=.&&X####################",
"#############.###%**&%X.$*&==*X=***&%&=-* %&X###################",
"##################%*X&%X.%**==& $*&&&X&**&#X&X##################",
"###################$*#$##X%**==X#$%%&*#X**X#.&X#################",
"####################$*#%###$%*=*##$%%&&##%*##.$ ################",
"####################.$##X###X%*=X##X$%%.###%###$################",
"#####################.$#%X####X&$X###$%%.###X###$###############",
"######################.#*%X#####X$X### XX#######################",
"#########################*%X######$#### X#######################",
"##########################X%#############X######################",
"################################################################"
};
