/* XPM */
static char *_699_d0af7739f4b10140c270d56e47b74843c958d76e618628412a53e2aa385f4822[] = {
/* columns rows colors chars-per-pixel */
"64 64 16 1 ",
"  c gray33",
". c #646464",
"X c gray44",
"o c #7C7C7C",
"O c #FC8820",
"+ c #CCC400",
"@ c #E4D800",
"# c #FCA85C",
"$ c #FFC0CB",
"% c gray55",
"& c #989898",
"* c gray66",
"= c #B4B4B4",
"- c #C0C0C0",
"; c #D0D0D0",
": c gainsboro",
/* pixels */
"$$$$$$$$$$$$$$$$$$$$$$$$$$$$$$$$$$$$$$$$$$$$$$$$$$$$$$$$$$$$$$$$",
"$$$$$$$$$$$$$$$$$$$$$$$$$$$$$$$$$$$$$$$$$$$$$$$$$$$$$$$$$$$$$$$$",
"$$$$$$$$$$$$$$$$$$$$$$$$$$$$$$$$$$$$$$$$$$$$$$$$$$$$$$$$$$$$$$$$",
"$$$$$$$$$$$$$$$$$$$$$$$$$$$$$$$$$$$$$$$$$$$$$$$$$$$$$$$$$$$$$$$$",
"$$$$$$$$$$$$$$$$$$$$$$$$$$$$$$$$$$$$$$$$$$$$$$$$$$$$$$$$$$$$$$$$",
"$$$$$$$$$$$$$$$$$$$$$$$$$$$$$$$$$$$$$$$$$$$$$$$$$$$$$$$$$$$$$$$$",
"$$$$$$$$$$$$$$$$$$$$$$$$$$$===$$$$$$$$$$$$$$$$$$$$$$$$$$$$$$$$$$",
"$$$$$$$$$$$$$$$$$$$$$$$$$$=--==$$$$$$$$$$$$$$$$$$$$$$$$$$$$$$$$$",
"$$$$$$$$$$$$$$$$$$$$$$$$$$=--===$$$$$$$$$$$$$$$$$$$$$$$$$$$$$$$$",
"$$$$$$$$$$$$$$$$$$$$$$$$$$=-==$=$$====$$$$$$$$$$$$$$$$$$$$$$$$$$",
"$$$$$$$$$$$$$$$$$$$$$$$$$$===&==$===&&=$$$$$$$$$$$$$$$$$$$$$$$$$",
"$$$$$$$$$$$$$$$$$$$$$$$$$$$==O--===&oo=$$$$$$$$$$$$$$$$$$$$$$$$$",
"$$$$$$$$$$$$$$$$$$$$$$$$$$==*#=-*-===o=$$$$$$$$$$$$$$$$$$$$$$$$$",
"$$$$$$$$$$$$$$$$$$$$$$$$===*&+==&;===*=$$$$$$$$$$$$$$$$$$$$$$$$$",
"$$$$$$$$$$$$$$$$$$$$$$$==--&O@==O*-=**$$$$$$$$$$$$$$$$$$$$$$$$$$",
"$$$$$$$$$$$$$$$$$$$$$$$==-*O#@==#&*=**$$$$$$$$$$$$$$$$$$$$$$$$$$",
"$$$$$$$$$$$$$$$$$$$$$$$===&#+@==+O&==***$$$$$$$$$$$$$$$$$$$$$$$$",
"$$$$$*****$$$$$$$$$$$$$=.=O+@@==@#O*===**$$$$$$$$$$$$$$$$$$$$$$$",
"$$$$*=;;-==$$$$$$===$$$=.=O@@@==@+O&====*&$$$$$$$$$$$$$$$$$$$$$$",
"$$$**=;;-=-=$$$$=-==&$$$==O@@@==@@+O====*&$$$$$$===$$$$$$$$$$$$$",
"$$$**=--=-;-====;;:=o&$$$=O+@@==@@@O=*==*%$$$$$=====$$&==$$$$$$$",
"$$$****&&=-;-==;=;;=.o$$$=O#@@==@@@O=*=*%$$$$$=o%====o.&===$$$$$",
"$$$*$**o.==;-==*=-;;o.o$$=&#@+==+@+O=*=*$$$$$=%o.%=--&.&===**$$$",
"$$$*$**o.==--=**=-;;=oo&*=*O@#==#@#O***&$$$$$=%..*=;-=o=====**$$",
"$$$$$**&o=---==**=--==&&*=*O+O==O+O&*&&%$$$$===%*=---=&==*==**$$",
"$$$$$$***====****====****==&#&=-&#&**&&**$$====**==-==*===*==**$",
"$$$$$$$$==-===*&*===******=*O*=-*O*******==--=**=====**=-=*==*&$",
"$$$$$==$=-;;==*&&*=*&*=****=&===;&==**=**=---=**===***=--=**=*&$",
"$$$$====--;;-==*%&*&*=--***=**===;==*==***======*==***=;-=*&**&$",
"$$$=======----==%%&&**-;==**==*==-;====*****=--==****==--=*&**%$",
"$$$===*==***===*%%%%&*******==**==-=====****=-==**===*====*&**%$",
"$$$==**==$$***=*%..oo&*=****===**=-=*===*&*=-=***====**==**&*&%$",
"$$$==****$$$**=&o....o&*****===**====*=**&*==*****==*&****&%&%%$",
"$$$$=*$$$*$$$&*&.o%&**&&***=*===**=-==**&%&****..***&&***&&%%%$$",
"$$$$$$*$$$$$$&&&&**====****=*====*=--=**&%%%%&**..&&%%&&&&%%$$$$",
"$$$$$$$$$$$%$%%%$*===*==**===**=**==--=**&%%$$*****$%%%%%%%$$$$$",
"$$$$$$$$$$$$%%%$$*==****=*===******=--==**%$$$$***$$$$$$$$$$$$$$",
"$$$$$$$$$$$$$$$$$$==*%%****==******==--==*&$$$$$$$$$$$$$$$$$$$$$",
"$$$$$$$$$$$$$$$$$$*==%.%****=*******===-==*$****$$$$$$$$$$$$$$$$",
"$$$$$$$$$$$$$$$$$*====%%******=*******%&==*&====*$$$$$$$$$$$$$$$",
"$$$$$$$$$$$$$$$$$*=**===****=*==***==*&oo*o.&=-=*&$$$$$$$$$$$$$$",
"$$$$$$$$$$$$$$$$$**..**===*****=*&*===&o.o.o%&=*&&$$$$$$$$$$$$$$",
"$$$$$$$$$$$$$$$$$$**..**===****==**&==*&oo.%.&**%$$$$$$$$$$$$$$$",
"$$$$$$$$$$$$$$$$$$$**.%*====****==**&&%%%%o.o&&%%$$$$$$$$$$$$$$$",
"$$$$$$$$$$$$$$$$$$$$$%%*=-===***====*&%%oo%&&%%%$$$$$$$$$$$$$$$$",
"$$$$$$$$$$$$$$$$$$$$*****==-===**===**&ooXX  %$$$$$$$$$$$$$$$$$$",
"$$$$$$$$$$$$$$$$$$$**%%%%*==-;-=**===*&oXX&X$$$$$$$$$$$$$$$$$$$$",
"$$$$$$$$$$$$$======*%XXX%**=-;;-==*==**oX X&**$$$$$$$$$$$$$$$$$$",
"$$$$$$$$$$$===**====XXo&%=*==-;;-=****&&X &****$$$$$$$$$$$$$$$$$",
"$$$$$$$$$$****%%*===%%==&=**===-;==**&%%X &*X***$$$$$$$$$$$$$$$$",
"$$$$$$$$$$***%%.o**=&&===-===*==--==*&%%%XXX*==**$$$$$$$$$$$$$$$",
"$$$$$$$$$$***%...**=======---==*=-===**&%&**=-==*$$$$$$$$$$$$$$$",
"$$$$$$$$$$$%**o.%******===-;;-=**-====*&&*==--=**=$$$$$$$$$$$$$$",
"$$$$$$$$$$$$%%%%$***&&&*===-;-==***==**&o***==****$$$$$$$$$$$$$$",
"$$$$$$$$$$$$$$$$***&XXo&**=--;==*&****&o.&*****&o*$$$$$$$$$$$$$$",
"$$$$$$$$$$$$$$$$&*&X  Xo&=====-==*&&& .oo&***&&o.*$$$$$$$$$$$$$$",
"$$$$$$$$$$$$$$*$$ooo X=====*======*oo.o*o--==*&.o*$$$$$$$$$$$$$$",
"$$$$$$$$$$$$$$**$$$$$===$$***===*%o.o.o*&--=**o.o$$$$$$$$$$$$$$$",
"$$$$$$$$$$$$$$$**$$$$==$$$$*****% ..o$$**===*&$o$$$$$$$$$$$$$$$$",
"$$$$$$$$$$$$$$$$$$$$$==$$$$&&***%..o$$$$*&&&&$$$$$$$$$$$$$$$$$$$",
"$$$$$$$$$$$$$$$$$$$$$===$$$$&&&&%oo$$$$$$$$$$$$$$$$$$$$$$$$$$$$$",
"$$$$$$$$$$$$$$$$$$$$$$==$$$$$%%%%%$$$$$$$$$$$$$$$$$$$$$$$$$$$$$$",
"$$$$$$$$$$$$$$$$$$$$$$$==$$$$$$$$$$$$$$$$$$$$$$$$$$$$$$$$$$$$$$$",
"$$$$$$$$$$$$$$$$$$$$$$$$$$$$$$$$$$$$$$$$$$$$$$$$$$$$$$$$$$$$$$$$"
};
