/* XPM */
static char *_1061_e6c6a6fb6443c280128865b7501d10dae1f45d3611cb5eba663f91118df9c016[] = {
/* columns rows colors chars-per-pixel */
"64 64 14 1 ",
"  c #646464",
". c gray44",
"X c #7C7C7C",
"o c #B4AC00",
"O c #CCC400",
"+ c #E4D800",
"@ c #FCA85C",
"# c #FFC0CB",
"$ c gray55",
"% c #989898",
"& c gray66",
"* c #B4B4B4",
"= c #C0C0C0",
"- c #D0D0D0",
/* pixels */
"################################################################",
"################################################################",
"################################################################",
"################################################################",
"################################################################",
"################################################################",
"################################################################",
"################################################################",
"################################################################",
"###########################X######*#############################",
"############################%######%############################",
"###################%########X=##################################",
"####################=####.###%=X################################",
"####################%=####%$##%=X###############################",
"#####################==%###-$##%=X##############################",
"#####################%=@=##$-$##%=X##################X##########",
"######################%=+=##$&$##*=###################*#########",
"#######################=@O=##$&$#%X$##################X*X#######",
"#######################%=+O=##$@&#%#X##################X*X######",
"########################%@+O=##$@@&.#.#########X########X*X#####",
"##########$##############%@+@*##&+@&.#####%#####&#$##X###%* ####",
"###########$#####*########=@O@*#$@+@&.#####* ####&#$##*###%*####",
"######-#####*$####*#######.=+O@*#&@O@&#####%= ###X=#%#%*X##% ###",
"#######-#####=&####=#######%=@@*&#&@O@&#####%=X###&=#%#*&X##%###",
"###*####-%####=&###$=###%###%===&$ &@o@*##X #%-X##X==#&#*&X#####",
"####%###&-%####=-X##$*###%###%===&$$&@o&&##*$#%-%##%**#&#*%#####",
"#####*###%-%###&=-X##%*###-###*=-=&X%-@-&*##=$#%-%##%*&#%#X ####",
"######-*##%-%###&=-XX$&*##%=##.*=-=%X$&-*&*#X-$#%-%##%&%###X####",
"###=##%-=##%-%###&=-=X$&*##%=##.&=-&$.$&-*$*##&*#%-%##%&########",
"####=##%-=%#%-%###&#-=X$**%#*=##.%=-&$ .&-&X*##$*#%-*##%%#######",
"####$=##%-=%#%*####&#%=%*&&%#*=.#&%=-&.#.%-&#X##X*#%-###%.######",
"#####$=##%-=%#%*####%##%%**&%X*=%X&$=-=.#.%-X#X###*#%-###%######",
"######$=##%-=##%*####%##%&*=&%X*=%X&XX-*.##%-X#####.#%%###%#####",
"#######$=##%-=##%*#######%&=*&%$*=-%X#X-*$##X*X########%###X####",
"#####*##$=##&-%##$*#######%&=*&%%&=-=X#X-&%###X#########X#######",
"######*##$=##$*############%&=**&$&=--X##-%.###X################",
"##########X$###$############%&=**&X$=--$##*$####################",
"########%#######$######## ###%&==*&#$=--X##*X###################",
"##########################X###X%-=&X#$*=-####%##################",
"###################### ####*%#%X%-=&X#$%=-####%#################",
"#######################*X###*%#%#X%=&X##X=-####X################",
"#######################%=X###*-%X#X%-&X##X=-####################",
"########################%=-X#**-%X#X$-&####$-###################",
"################$######&#%=-%#**-*X##$-*####X-##################",
"#################$%####$&#%=-%#&*-*###$=%#####$#################",
"#################X&&X###$&#%=-%#&*-&###$*$#####$################",
"##################X=&X###&&#%=-=$&*-*####$######$###############",
"###################%=&$###%&#%==-%&&-=####.#####################",
"#############$$#####%=&$###&&$%*=-%&*-*####.####################",
"##############*$####X%=&$###&&$$*=-=**-&########################",
"############$##**####X*=&$###**&$*=-=#**%#######################",
"#############*##**####X*=&&###**&#*=-=#&*%######################",
"##############$##*&####X&=&&###**&#*=-=#&&######################",
"#################**&####X&=&X###**&#*=-=#&&#####################",
"##################**&####X&=&####**&##=-##%&####################",
"###################*X&#####$&$####&&&##**##X&###################",
"####################*#$#####$&$#####&*### ###X##################",
"#####################*#%#####$&$#####&####*#####################",
"########################X#####$$######%#########################",
"#########################X######$######%########################",
"##########################X#############X#######################",
"###########################X####################################",
"################################################################",
"################################################################"
};
