/* XPM */
static char *_8520_833c948116446d83c59e5fbd79f8d3738e1b5db9d0e409d5341ec0167384a6ad[] = {
/* columns rows colors chars-per-pixel */
"64 64 12 1 ",
"  c #7C7C7C",
". c #FC8820",
"X c #CCC400",
"o c #E4D800",
"O c #FCA85C",
"+ c #FFC0CB",
"@ c gray55",
"# c #989898",
"$ c gray66",
"% c #B4B4B4",
"& c #C0C0C0",
"* c #D0D0D0",
/* pixels */
"++++++++++++++++++++++++++++++++++++++++++++++++++++++++++++++++",
"++++++++++++++++++++++++++++++++++++++++++++++++++++++++++++++++",
"++++++++++++++++++++++++++++++++++++++++++++++++++++++++++++++++",
"++++++++++++++++++++++++++++++++++++++++++++++++++++++++++++++++",
"+++++++++++++++++++++++++#++++++++++++++++++++++++++++++++++++++",
"++++++++++++++++++++++++++##++++++++++++++++++++++++++++++++++++",
"++++++++++++++++++++++++++#%#+++++++++++++++++++++++++++++++++++",
"+++++++++++++++++++++++++++%% ++++++++++++++++++++++++++++++++++",
"+++++++++++++++++++++++++++%%#+++#++++++++++++++++++++++++++++++",
"++++++++++++++++++++++++#++%%%++++%+++++++++++++++++++++++++++++",
"+++++++++++++++++++++++++#+%%%%+++%#++++++++++++++++++++++++++++",
"+++++++++++++++++++++++++%+%%$%% +%%++++++++++++++++++++++++++++",
"++++++++++++++++++++++++%%+%%#%%$$$% +++++++++++++++++++++++++++",
"++++++++++++++++++++++++%%+%$.%%#%$$%++#++++++++++++++++++++++++",
"++++++++++++++++++++++++%% %#O%%.$%$%+++++++++++++++++++#+++++++",
"++++++++++++++++++++++++%%#$.X%%O#%$%#++#++++++++++++++%++++++++",
"++++++++++++++++++++++++%%%#Oo%%X.$$$%+#%++++++++++++++%++++++++",
"++++++++++++++++++++++++#%$.Xo%%oO#$#$%%+++++++++++++++% +++++++",
"++++++++++++++++++++++++ %#Ooo%%oX.$#$%+++*+++++%+++++++%+++++++",
"+++++++ %%++++ #+++++++++%.Xoo%%ooO###$++++%++++ %+%++++ % +++++",
"++++++%%%+%+%%%++++++++++%.ooX%%ooX.$##++++%+++++%%%++*++%%%++++",
"+++++%%%% +%%%%++% ++++++%.XoO%%Xoo.$##++++%%++++%&%%++% %%% +++",
"++++ %&&%% %%% + %%%+++++%.Oo.%%OXo.$$# +++#%++++&&&%$%%%%%%%+++",
"++++%&&&%%%%&&%%%%&&%+++%%#.X#%%.Oo.%$$#++++%%++#%&&%%$%%%%%%+++",
"+++%%&&*&%$%%&&%%%&&&% %%%$.O%%&#.X.%$$%#++ %%$%%%&&&%$$%%%%%+++",
"+++%%%%&&%$$%&&%%$%&&%%%&&%#.%%&$#O.%%$$$%%%%%%$%%%%%%$$%%%%%+++",
"+++$$$%%%%%$$%%$$$%%%%%%&&&%#%%%%$.#%$$%$%%%&&&$$%%%%%$#%%%% +++",
"++++$$$%%%%$$$$$$%$$%$%%%&&%$$$%%%#$%$$$%$%%&*&%$$$$$%$$%%%%++++",
"+++++$$$$%%$#$$%%%$$%$$$%%%%%%$$$$$$$%$$%%$%%&&%$$$#$$#$%%% ++++",
"+++++ $#$$$$#$$$%%%%$$$$%%%%%%%$$$$$$$$#$%$$%%&%%$$$###$%%%+++++",
"++++++$$$######$$$$$$$%%%$%&%%%%$$$$%%$$##$$%%&%&%%$$#$%$%++#+++",
"++++#++%%$$########$#$%%%%%%%$%%%$$$%%%%$###$$%%&%%$##$$$$++#+++",
"++++#++%%%$$########## $%%%&%%$%%$$$$%%%%$####$%%%$$#$%$$$ +#+++",
"++++ % &&%$$$####@@@ ++#%%&&%%$$%$$$$$%%%$## ##$$$$###$$$### +++",
"+++++%%&&%%%$$#@@@@++++#%%&*&%%$$$$$$$$%%$# ++##### +#######++++",
"+++++#%%%%%% ++@@@+#++ #%%&*&%%%$$$%$$$%$$#++++## +++ #####+++++",
"++++++%%%%%+++@+++++%+%#$%%&*&%%%$$%%$$$$$% ++++++++++ ## ++++++",
"+++++++## ++++++++++%%%$#%%&*&&%%%$$%%$$$$%% +++++++++++++++++++",
"++++++++++++++++++++%%%%#$%%&*&&%%$$%%%%%$%%%#++++++++++++++++++",
"+++++++++++++++++++++%%%$#%%&&&&%%$$%%%$%%%&&%#+++++++++++++++++",
"++++++++++++++++++++++%%%$$%%&&%%%$$$%%$%%&&&%% ++++++++++++++++",
"+++++++++++++++++++#+++%%$$$%%%%%$$$$$%$$%%%&%%#++++++++++++++++",
"++++++++++++++++++%++++ %%$$$%$%%%$%%$$%##$$%%%#++++++++++++++++",
"++++++++++++++++++% +++$%%%$$%%%%%$%%%$%$###$$% ++++++++++++++++",
"++++++++++++++++++#% + #$%%%$$%$%%%%%%%%%$#####+++++++++++++++++",
"+++++++++++++++++++%%%###$%%%$%%$%%$%%%$%$+###++++++++++++++++++",
"++++++++++++++++++ %%%$##$$%%$%%$$%%%&&%%$+##+++++++++++++++++++",
"++++++++++++++++++ %%%%$###$$$$%%$$$&&&%%$## +++++++++++++++++++",
"+++++++++++++++++++%%%%$$$$$$$$%%$$$%%%%$##$+#++++++++++++++++++",
"++++++++++++++++++++%%%$$%%%$$$$%$$$%%%$##+#$+++++++++++++++++++",
"++++++++++++++++   ++%%%$$%%%%%$%$%$%%%$##++++++++++++++++++++++",
"+++++++++++++++%%%%#++%%$$$%&&%%$$%$$%%$##++++++++++++++++++++++",
"++++++++++++++%%+%%%  %%$$%$%&&%%$$%$%%$$$ +##++++++++++++++++++",
"+++++++++++++#%+#%%%%%%%%$$%%%&&%%$%%$%%$$$$%%% ++++++++++++++++",
"+++++++++++++#%%+#%%%%%%%%$$%%&&%%%$$$$%%%#$%%%%# ++++++++++++++",
"+++++++++++++#%% +#% %% %%%%$%%%%%$$$%$$$$#$$$$$+#++++++++++++++",
"++++++++++++++#%#++#++%++%%%%%%%%$##$%%$#### ++###++++++++++++++",
"+++++++++++++++%#+++++++ %%% %%%%$###$$### +++++#+++++++++++++++",
"+++++++++++++++%#+++++++%%%++ %% ++ ##### ++++++++++++++++++++++",
"+++++++++++++++#++++++++%% ++%% +++++### +++++++++++++++++++++++",
"++++++++++++++#+++++++++%% #++%+++++++++++++++++++++++++++++++++",
"+++++++++++++++++++++++++%% +#++++++++++++++++++++++++++++++++++",
"++++++++++++++++++++++++++ +++++++++++++++++++++++++++++++++++++",
"++++++++++++++++++++++++++++++++++++++++++++++++++++++++++++++++"
};
