/* XPM */
static char *_026_22497853c993878e9110efc4fe2ebf12aa47ed8b9fd9ef0ce2f79b6df1976a89[] = {
/* columns rows colors chars-per-pixel */
"64 64 14 1 ",
"  c #646464",
". c gray44",
"X c #7C7C7C",
"o c #FC8820",
"O c #CCC400",
"+ c #E4D800",
"@ c #FCA85C",
"# c #FFC0CB",
"$ c gray55",
"% c #989898",
"& c gray66",
"* c #B4B4B4",
"= c #C0C0C0",
"- c #D0D0D0",
/* pixels */
"################################################################",
"################################################################",
"################################################################",
"################################################################",
"################################################################",
"###########################*####################################",
"##########################***######**###########################",
"#########################**&&X####**#*##########################",
"#########################*=&XX###**&############################",
"#########################*=&&X###**&#X##########################",
"#########################*==&&##**=&#X##########################",
"##########################*=*****==&&X##########################",
"#######################**#*&o*===&*&&X##########################",
"######################*==**%@&==&o&&&###########################",
"######################*===*oO%**%@%&&###########################",
"######################**$*&o+o**oOo&&&##########################",
"#######################* *%@+@**@+@%*&#**#######################",
"#####***########***####*$*oO+O**O+Oo***&&*######**##############",
"####*****######**&&*.###**o+++**+++o**&&#*########*###**########",
"###**##*&&####**&&$.$####*o+++**+++o*&&##*###########****#######",
"###*#****&####**&&$..$###*o++O**+++@*&&#############*#*=*#######",
"####***==&&###*=*&$...###*o++@**+++@*&&###############*=*#######",
"###*##&*-=**#**=*&&$..###*o@+o**O++@*&&&#####**######*==*#######",
"######&&==****=--*&&&$##**%@O%=*@O+@*&&&######*=*####=--**######",
"##*###%%&*****=--=**&&&**=&o@&=*o@+@**&&#####*=-=*#**----***####",
"#######%%&&&&**====**&&*=--%o*-=%o+@=**&&##*=---=***=-----**&&##",
"########%&&&&&*===***&&*=--&%*=-&oOo=-=*&***=--==**&=-===-=*&&*#",
"#####*##&&&***&****&&&**==-*&***=%@o==-*&&&**===**&*==***==**&%#",
"######*#**=--*&&&&*&&&&**=-**&&*=&o%**=**&&***********&&**=*&&%#",
"####*#***==--=*&%%%&&&&&*==-*&&**=%&&*****&%&***&&***&&&&**&&&$#",
"###*##**=****==&X$%&**&&&**=*&&&*=&*&&&%%&&%%&&%%***&&&&&*&&&%$#",
"###****=*&&&&***$ %&****&&****&&**--*&&%%%$$$$%%&***&%X%&&&&%%$#",
"###*****&&&&&&**& X%&****&&&**&&&*--=*&&%$$##$$%&**&&  X%&&%%$$#",
"####***&&&###&&*&%$$&*&&**&&***&*&===**&&$X%##&%*##&$  X$%%$$$##",
"#####&&&######&*&%%$&&&&**&&***&*&&***=*&& %###&*###$ X$$$$$####",
"##############&*&&%$%%%&&***&**&*&&&&&***&X%###&*####$$$$$######",
"##############&*#%%$  %%&&**&&*&**&&**&**&&####*################",
"##############*##%%$   %&&*=*&&&***&**&&*&&###*#################",
"##################%$  $%&&*=**&&&*=*&**&&&&%%###################",
"###################$$$$%&&*==*&&&*=*&&****&%%%##################",
"#####################$%&&&*=-=*&&*==*&&&**&&&%%#################",
"######################&**&&*---*&&*--**&&&&&$$%#################",
"###################*--=**&&&*--=*&**-=*****&..&%################",
"##################*---==*&&&&*-***&*=--=**&$ .&%################",
"##################*-%X%==*&&&*=&**&&*=-=**&$.$&%################",
"##################==X X*==*&&*=*&*&&**=-=*$.$%%#################",
"#################*==%X%*==**&**=&***&&**=*$$&%%%################",
"################**====**==**&&***&&*&&&&***&&%%%%###############",
"###############**=*======***&%&**&%&%&*&&**&&%%#%%##############",
"###############***&&****&&&&%%%&&*&%%&**&&&&%%%%#%##############",
"###############**&&&&*&&&&&&%%%%&&%%%&***&&%%%%%##%#############",
"################*&%%%&*&&&**&&&&&&&&&****&&%%%%%%###############",
"################&%%%%&&&**********&&&*****&%###%%###############",
"###############&&%%###%&*-=****&&**&&&&*&&%#####%###############",
"###############&%###****=-=**&&&&&***&&&%$######%###############",
"###############&###**&%%*==*&&%%%&&****&%$##$###%###############",
"################&##**%XX%***&%$###&****&&%$$###%################",
"###################*&&X X%**&%#####&**&&&%$$####################",
"####################%&%%%%**&######&&&&&%%$$####################",
"#####################%%%##**&#######%%%%%$$#####################",
"##########################**&########$$$$#######################",
"##########################****#*################################",
"###########################****#################################",
"################################################################"
};
