/* XPM */
static char *_5604_954edb4f06fad618652a3166a24f7d3df27741347b7790c5b26581b02c742e81[] = {
/* columns rows colors chars-per-pixel */
"64 64 16 1 ",
"  c #646464",
". c gray44",
"X c #7C7C7C",
"o c #FC7800",
"O c #FC8820",
"+ c #E4D800",
"@ c #FCF400",
"# c #FC9840",
"$ c #FCA85C",
"% c #FFC0CB",
"& c gray55",
"* c #989898",
"= c gray66",
"- c #B4B4B4",
"; c #C0C0C0",
": c #D0D0D0",
/* pixels */
"%%%%%%%%%%%%%%%%%%%%%%%%%%%%%%%%%%%%%%%%%%%%%%%%%%%%%%%%%%%%%%%%",
"%%%%%%%%%%%%%%%%%%%%%%%%%%%%%%%%%%%%%%%%%%%%%%%%%%%%%%%%%%%%%%%%",
"%%%%%%%%%%%%%%%%%%%%%%%%%%%%%%%%%%%%%%%%%%%%%%%%%%%%%%%%%%%%%%%%",
"%%%%%%%%%%%%%%%%%%%%%%%%%%%%%%%%%%%%%%%%%%%%%%%%%%%%%%%%%%%%%%%%",
"%%%%%%%%%%%%%%%%%%%%%%%%%%%%%%%%%%%%%%%%%%%%%%%%%%%%%%%%%%%%%%%%",
"%%%%%%%%%%%%%%%%%%%%%%%%%%%%%%%%%%%%%%%%%%%%%%%%%%%%%%%%%%%%%%%%",
"%%%%%%%%%%%%%%%%%%%%%%%%%%%%%%%%%%%%%%%%%%%%%%%%%%%%%%%%%%%%%%%%",
"%%%%%%%%%%%%%%%%%%%%%%%%%%%%%%%%%%%%%%%%%%%%%%%%%%%%%%%%%%%%%%%%",
"%%%%%%%%%%%%%%%%%%%%%%%%%%%%%%%%%%%%%%%%%%%%%%%%%%%%%%%%%%%%%%%%",
"%%%%%%%%%%%%%%%%%%%%%%%%%%%%%%%%%%%%%%%%%%%%%%%%%%%%%%%%%%%%%%%%",
"%%%%%%%%%%%%%%%%%%%%%%%%%%%%%%%%%%%%%%%%%%%%%%%%%%%%%%%%%%%%%%%%",
"%%%%%%%%%%%%%%%%%%%%%%%%%%%%%%%%%%%%%%%%%%%%%%%%%%%%%%%%%%%%%%%%",
"%%%%%%%%%%%%%%%%%%%%%%%%%%%%%%.%%%%%%%%%%%%%%%%%%%%%%%%%%%%%%%%%",
"%%%%%%%%%%%%%%%%%%%%%%%%%%%%%%%&%%%%%%%%%%%%%%%%%%%%%%%%%%%%%%%%",
"%%%%%%%%%%%%%%%%%%%%%X%%%%%%%%%%;%%%%%%%%%%%%%%%%%%%%%%%%%%%%%%%",
"%%%%%%%%%%%%%%%%%%%%%%X%%%%%.%%%%;%%%%%%%%%%%%%%%%%%%%%%%%%%%%%%",
"%%%%%%%%%%%%%%%%%%%%%%%*%%%%%&%%%%;%%%%%%%%%%%%%%%%%%%%%%%%%%%%%",
"%%%%%%%%%%%%%%%%%%%%%%%XO*%%%%=%%%%.%%%%%%%%%%%%%%%%%%%.%%%%%%%%",
"%%%%%%%%%%%%%%%%%%%%%%%%*$-%%%%=%%%%%%%%%%%%%%%%%%%%%%%%&%%%%%%%",
"%%%%%%%%%%%%%%%%%%%%%%%%%*+-%%%%o=%%%%%%%%%%%%%%%%%%%%%%%-%%%%%%",
"%%%%%%%%%%%%%%%%%%%%%%%%%%-+-%%%=o*.%%%%%%%%%%%%%%%%%%%%%%.%%%%%",
"%%%%%%%%%%%%%%%%%%%%%%%%%%%-+-%%.*$*.%%%%%%%%%%%%%%%%%.%%%%%%%%%",
"%%%%%%%%%%%%X%%%%%%%%%%%%%%*-+-%%.*@*.%%%%%%%%%%% %%.%%*%%%%%%%%",
"%%%%%%%%%%%%%*%%%%%%%%%%%%%%*-O-%%.*+*.%%%%%%%%%%%X%%*%.=%%%%%%%",
"%%%%%%%%.%%%%%*%%%%%%%%%%%%%%*;;=%%.*#*.%%%%%%X%%%%;%%.%.*%%%%%%",
"%%%%%%%%%X%%%%%;:%%%%%%%%%%%%%*;;=%%.*o%*%%%%%%&%%%X-%%%%%.%%%%%",
"%%%%%%%%%%:%%%%*%:X%%%.%%%%%%%%*:;=%%.*X%*%%%.%%=%%%X-%%%%%%%%%%",
"%%%%%%.%%%%:%%%%=%:X%%%.%%%X%%%%*:;*%%X:X%X%%%&%%:%%%X=%%%%%%%%%",
"%%%%%%%:%%%%:%%%%X%%&%%XX%%%*%%%%*:=&%%X:X%X%%%-%%=%%%X=%%%%%%%%",
"%%%%%%%%:%%%%:%%%%X%%%%%X&%%.*%%%%X:=&%%X:X%%%%%X%%&%%%X%%%%%%%%",
"%%%%%.%%*:%%%%-%%%%%%%%%%=&%%.;.%%%X==.%%%*X%%%%%%%%X%%% %%%%%%%",
"%%%%%%;%%*:%%%%.%%%%%%%%X*-&%%.;*.%%X=;.%%%*%%%%%%%%%%%%%%%%%%%%",
"%%%%%%&;%%*:%%%%%%%%%%%%%X*;&%%.;*.%%X*-.%%%.%%%%%%%%%%%%%%%%%%%",
"%%%%%%%&;%%%X%%%%%%%%%%%%%X*-&%%.;=.%%.X*%%%%.%%%%%%%%%%%%%%%%%%",
"%%%%%%%%%.%%%.%%%%%%%%%%%%%X*-.%%.*=&%%%.X%%%%%%%%%%%%%%%%%%%%%%",
"%%%%%%%%%%%%%%%%%%%%%%%%%%%%X*-&%%%*=&%%%%X%%%%%%%%%%%%%%%%%%%%%",
"%%%%%%%%%%%%%%%%%%%%%%%%%%%%%XX-&%%%*=&%%%%.%%%%%%%%%%%%%%%%%%%%",
"%%%%%%%%%%%%%%%%%%%%%%%%%%%%%%%X;&%%%*=&%%%%%%%%%%%%%%%%%%%%%%%%",
"%%%%%%%%%%%%%%%%%%%%%%%%%%%%%%%%X;&%%%*=&%%%%%%%%%%%%%%%%%%%%%%%",
"%%%%%%%%%%%%%%%%%%%%%%%%%%%%%%%%%X;&%%%*=.%%%%%%%%%%%%%%%%%%%%%%",
"%%%%%%%%%%%%%%%%%%%%%%%%%%%%%%%%%%*;X%%%X=.%%%%%%%%%%%%%%%%%%%%%",
"%%%%%%%%%%%%%%%%%%%%%%%%%%%%%..%%%%*:.%%%.=%%%%%%%%%%%%%%%%%%%%%",
"%%%%%%%%%%%%%%%%%%%%%%%%%X%%%%-&%%%%&=.%%%%.%%%%%%%%%%%%%%%%%%%%",
"%%%%%%%%%%%%%%%%%%%%%%%%%%;X%%%-&%%%%&*%%%%%%%%%%%%%%%%%%%%%%%%%",
"%%%%%%%%%%%%%%%%%%%%%%%%%%%;*%%%-&%%%%..%%%%%%%%%%%%%%%%%%%%%%%%",
"%%%%%%%%%%%%%%%%%%X%%%%%%%%%;*%%%-&%%%%%.%%%%%%%%%%%%%%%%%%%%%%%",
"%%%%%%%%%%%%%%%%%%%&%%%%%%%%%;*%%%-&%%%%%%%%%%%%%%%%%%%%%%%%%%%%",
"%%%%%%%%%%%%%%%%%%%%;&%%%%% %%;=%%%=&%%%%%%%%%%%%%%%%%%%%%%%%%%%",
"%%%%%%%%%%%%%%%%%%%%&;&%%%%%X%%-=%%%-&%%%%%%%%%%%%%%%%%%%%%%%%%%",
"%%%%%%%%%%%%%%%%%%%%%&;&%%%%%=%%-=%%%.&%%%%%%%%%%%%%%%%%%%%%%%%%",
"%%%%%%%%%%%%%%% %%%%%%&;&%%%%%-%%-=%%%%&%%%%%%%%%%%%%%%%%%%%%%%%",
"%%%%%%%%%%%%%%%%X%%%%%%&;&%%%%%-%%X=%%%%&%%%%%%%%%%%%%%%%%%%%%%%",
"%%%%%%%%%%%%%%%%%*X%%%%%&;&%%%%%-%%X*%%%%.%%%%%%%%%%%%%%%%%%%%%%",
"%%%%%%%%%%%%%%%%%%*X%%%%%&;%%%%%%-%%XX%%%%.%%%%%%%%%%%%%%%%%%%%%",
"%%%%%%%%%%%%%%%%%%%*X%%%%%%&%%%%%%X%%%.%%%%%%%%%%%%%%%%%%%%%%%%%",
"%%%%%%%%%%%%%%%%%%%%X=%%%%%%X%%%%%%X%%%%%%%%%%%%%%%%%%%%%%%%%%%%",
"%%%%%%%%%%%%%%%%%%%%%%&%%%%%%%%%%%%% %%%%%%%%%%%%%%%%%%%%%%%%%%%",
"%%%%%%%%%%%%%%%%%%%%%%% %%%%%%%%%%%%%%%%%%%%%%%%%%%%%%%%%%%%%%%%",
"%%%%%%%%%%%%%%%%%%%%%%%%%%%%%%%%%%%%%%%%%%%%%%%%%%%%%%%%%%%%%%%%",
"%%%%%%%%%%%%%%%%%%%%%%%%%%%%%%%%%%%%%%%%%%%%%%%%%%%%%%%%%%%%%%%%",
"%%%%%%%%%%%%%%%%%%%%%%%%%%%%%%%%%%%%%%%%%%%%%%%%%%%%%%%%%%%%%%%%",
"%%%%%%%%%%%%%%%%%%%%%%%%%%%%%%%%%%%%%%%%%%%%%%%%%%%%%%%%%%%%%%%%",
"%%%%%%%%%%%%%%%%%%%%%%%%%%%%%%%%%%%%%%%%%%%%%%%%%%%%%%%%%%%%%%%%",
"%%%%%%%%%%%%%%%%%%%%%%%%%%%%%%%%%%%%%%%%%%%%%%%%%%%%%%%%%%%%%%%%"
};
