/* XPM */
static char *_7494_400428b4e36c997e310da3127baabc29c1b05e62c5e5f8a617bf5fc782447df9[] = {
/* columns rows colors chars-per-pixel */
"64 64 15 1 ",
"  c gray33",
". c #646464",
"X c gray44",
"o c #7C7C7C",
"O c #FC8820",
"+ c #CCC400",
"@ c #E4D800",
"# c #FCA85C",
"$ c #FFC0CB",
"% c gray55",
"& c #989898",
"* c gray66",
"= c #B4B4B4",
"- c #C0C0C0",
"; c #D0D0D0",
/* pixels */
"$$$$$$$$$$$$$$$$$$$$$$$$$$$$$$$$$$$$$$$$$$$$$$$$$$$$$$$$$$$$$$$$",
"$$$$$$$$$$$$$$$$$$$$$$$$$$$$$$$$$$$$$$$$$$$$$$$$$$$$$$$$$$$$$$$$",
"$$$$$$$$$$$$$$$$$$$$$$$$$$$$$$$$$$$$$$$$$$$$$$$$$$$$$$$$$$$$$$$$",
"$$$$$$$$$$$$$$$$$$$$$$$$$$$$$$$$$$$$$$$$$$$$$$$$$$$$$$$$$$$$$$$$",
"$$$$$$$$$$$$$$$$$$$$$$$$$=$$$$$$$$$$$$$$$$$$$$$$$$$$$$$$$$$$$$$$",
"$$$$$$$$$$$$$$$$$$$$$$$$$$$$$$$$$$$$$$$$$$$$$$$$$$$$$$$$$$$$$$$$",
"$$$$$$$$$$$$$$$$$$$$$$$$=$$$$$$$$$$$$$$$$$$$$$$$$$$$$$$$$$$$$$$$",
"$$$$$$$$$$$$$$$$$$$$$$$$$=====$$$$$$$$$$$$$$$$$$$$$$$$$$$$$$$$$$",
"$$$$$$$$$$$$$$$$$$$$$$$$$$=====$$$$$$$$$$$$$$$$$$$$$$$$$$$$$$$$$",
"$$$$$$$$$$$$$$$$$$$$$$$$$$$$===$=%*$$$$$$$$$$$$$$$$$$$$$$$$$$$$$",
"$$$$$$$$$$$$$$$$$$$$$$$$$$$$=====X=*$$$$$$$$$$$$$$$$$$$$$$$$$$$$",
"$$$$$$$$$$$$$$$$$$$$$$$$$=$$=====X=**$$$$$$$$$$$$$$$$$$$$$$$$$$$",
"$$$$$$$$$$$$$$$$$$$$$$$$$=$=O&==&%==*$$$$$$$$$$$$$$$$$$$$$$$$$$$",
"$$$$$$$$$$$$$$$$$$$$$$$$$=$=#O==O&*==*$$$$$$$$$$$$$$$$$$$$$$$$$$",
"$$$$$$$$$$$$$$$$$$$$$$$$===&##==#*=*=*%$$$$$$$$$$$$$$$$$$$$$$$$$",
"$$$$$$$$$$$$$$$$$$$$$$$=--=O++==+&==**X*$$$$$$$$$$$$$$$$$$$$$$$$",
"$$$$$$$$$$$$$$$$$$$$$$$=--*O@+==@O*=**X*$$$$$$$$$$$$$$$$$$$$$$$$",
"$$$$$$$$$$$$$$$$$$$$$$$=--&O@@==@#&=**%*$$$$$$$$$$$$$$$$$$$$$$$$",
"$$$$$$====$$$$$$$$$$$$$$==O#@@==@+O==*&*$$$$$$$$$===$$$$$$$$$$$$",
"$$$$==----==$$$$$$$$$$$$==O#@@==@@O*=***$$$$$$$$=====$$$=$$$$$$$",
"$$$==--;;--==**$$$===$$$$=O#@@==+@O&==*$$$$==$$=$$=-=$$=$$$$$$$$",
"$$==-------===**$=====$$$=O#@@==#@#O==*$$$%===$$$$=-==$==$$$$$$$",
"$$==-====---===**======$==O#@+==O@#O==**$%X====$$=---=$==$$$$$$$",
"$$==========-==**==**==*==&O+#==&+#O==**$X&====**=---=**===$$$$$",
"$$$===***======**********==O#O==*##O=***======***=--==**=--==*$$",
"$$$$==***=====**&*********=&O&=*=O#O==*===---==**====***=--==*&$",
"$$$$$=****==***&***=*==****=&*=**&O&==**===--==*&*===**==--=**&$",
"$$$$$$$=*&&&&&&&**======*****===****===****====*&******=====**%$",
"$$$$$**$==*&&&&**======*****======**=***==**===*&************&%$",
"$$$$**&*===*&&&**=****=*&*=*=====*******===&&=**&&***=**&**&&%$$",
"$$$$*o.o===*&%&&**&&&**&*===**=-==**=*******&**&%&*====**&&%%$$$",
"$$$$*&o&===&&&%&&&&%%&&&*====*==-==**=*====*%&&%%*==--==*&. .o$$",
"$$$$*=====*&&%%%%&%$$$&&*=======-===*=**===*&%%%&*==-;-==*o.o$$$",
"$$$$**===*&&&%%%%%$=$$$&*=====*==-==*==*===**&%$$**==-;-==&o&$$$",
"$$$$$****&$o.%%%%$=$$$$&**=======--==*=*====*&$$$$&**=---==&=$$$",
"$$$$$$&&&$$oo.%%$$=$$$=***=======--==*=**===*$$$$$&*=*=====**$$$",
"$$$$$$$$$$$$o%%$$$==$===*******===--=***&*===**$$$$&*******&$$$$",
"$$$$$$$$$$$$$$$$$$========*****===--=*&*&&=====*$$$$&&&&&&&$$$$$",
"$$$$$$$$$$$$$$$$$$$=======*******=-;==*&*&=====&$$$$$%%%%%$$$$$$",
"$$$$$$$$$$$$$$$$$$$===&&===**=***=-;-=*=*&*===*%$$$$$$$$$$$$$$$$",
"$$$$$$$$$$$$$$$$$$$$&&oo&===*==**=-;-=**=*&***&%$$$$$$$$$$$$$$$$",
"$$$$$$$$$$$$$$$$$$$***&oo&==*==**==;-==**=%&&%%$$$$$$$$$$$$$$$$$",
"$$$$$$$$$$$$$$$$$$*****&&&==**=**==--===*&%%$$$$$$$$$$$$$$$$$$$$",
"$$$$$$$$$$$$$$$$$*XX****&&===****===--===*%$$$$$$$$$$$$$$$$$$$$$",
"$$$$$$$$$$$$$$$$$$==X****&====****=======*%$$$$$$$$$$$$$$$$$$$$$",
"$$$$$$$$$$$$$$$$$====******====***==-=====&$$$$$$$$$$$$$$$$$$$$$",
"$$$$$$$$$$$$$$$$$====*&&*****==****==-==*&&$$$$$$$$$$$$$$$$$$$$$",
"$$$$$$$$$$$$$$$$$$==*&&&***==******====*&XX&$$$$$$$$$$$$$$$$$$$$",
"$$$$$$$$$$$$$$$$$$$$$$%&*=*=-=*===**===*&X..$$$$$$$$$$$$$$$$$$$$",
"$$$$$$$$$$$$$$$===*$$$$&***====*===**==***..o$$$$$$$$$$$$$$$$$$$",
"$$$$$$$$$$$$$$=====*$$***=*=--==*===**&**=====$$$$$$$$$$$$$$$$$$",
"$$$$$$$$$$$$$======********==-==*=====*&&*=====$$$$$$$$$$$$$$$$$",
"$$$$$$$$$$$$$==**==****==**==;-=*=====**&&**====$$$$$$$$$$$$$$$$",
"$$$$$$$$$$$$$$=***=***===***--;-=****===%%&**===$$$$$$$$$$$$$$$$",
"$$$$$$$$$$$$$$$$***%%======*=--===****==$$%&*===$$$$$$$$$$$$$$$$",
"$$$$$$$$$$$$$&$$&&o.%*======*====*====*$$$$%*===$$$$$$$$$$$$$$$$",
"$$$$$$$$$$$$$o&&&o.o*%..o======**=====*$$$$$*==$$$$$$$$$$$$$$$$$",
"$$$$$$$$$$$$$$ooo$$$o..o**====*%%*==**&$$$$$*==$$$$$$$$$$$$$$$$$",
"$$$$$$$$$$$$$$$$$$$$$$$&****&%%$$%%**&%$$$=*==$$$$$$$$$$$$$$$$$$",
"$$$$$$$$$$$$$$$$$$$$$$$&&&&&%$$$$$%%%%$$$$$==$$$$$$$$$$$$$$$$$$$",
"$$$$$$$$$$$$$$$$$$$$$$$$&%%%$$$$$$$$$$$$$$$$$$$$$$$$$$$$$$$$$$$$",
"$$$$$$$$$$$$$$$$$$$$$$$$$$$$$$$$$$$$$$$$$$$$$$$$$$$$$$$$$$$$$$$$",
"$$$$$$$$$$$$$$$$$$$$$$$$$$$$$$$$$$$$$$$$$$$$$$$$$$$$$$$$$$$$$$$$",
"$$$$$$$$$$$$$$$$$$$$$$$$$$$$$$$$$$$$$$$$$$$$$$$$$$$$$$$$$$$$$$$$"
};
