/* XPM */
static char *_1083_f07b9a602381c1c0c0824bb47133ebd8f41aa9d627ce13726c486826fa831753[] = {
/* columns rows colors chars-per-pixel */
"64 64 43 1 ",
"  c black",
". c gray11",
"X c #002800",
"o c #003800",
"O c #202020",
"+ c #282828",
"@ c #2C2C2C",
"# c gray19",
"$ c #343434",
"% c gray22",
"& c #580000",
"* c #044000",
"= c #044C00",
"- c #045800",
"; c #046400",
": c #047000",
"> c #047C00",
", c #5C4020",
"< c #004040",
"1 c #005858",
"2 c #007070",
"3 c gray25",
"4 c #484848",
"5 c #4C4C4C",
"6 c gray33",
"7 c gray36",
"8 c #646464",
"9 c gray44",
"0 c #7C7C7C",
"q c #880000",
"w c #905C34",
"e c #FFC0CB",
"r c #008484",
"t c gray55",
"y c #989898",
"u c gray66",
"i c #B4B4B4",
"p c #FCB8B8",
"a c #C0C0C0",
"s c #D0D0D0",
"d c gainsboro",
"f c #ECECEC",
"g c gray99",
/* pixels */
"eeeeeeeeeeeeeeeeeeeeeeeeeeeeeeeeeeeeeeeeeeeeeeeeeeeeeeeeeeeeeeee",
"eeeeeeeeeeeeeeeeeeeeeeeeeeeO@%%%%%%%%@@eeeeeeeeeeeeeeeeeeeeeeeee",
"eeeeeeeeeeeeeeeeeeeeeeeeee@%%%%%%%%%%%@Oeeeeeeeeeeeeeeeeeeeeeeee",
"eeeeeeeeeeeeeeeeeeeeeeeeee@OO@@%%%%@@OOOeeeeeeeeeeeeeeeeeeeeeeee",
"eeeeeeeeeeeeeeeeeeeeeeeeee@OOOOOOOOOOOOOeeeeeeeeeeeeeeeeeeeeeeee",
"eeeeeeeeeeeeeeeeeeeeeeeeee@994OOOOOO499Oeeeeeeeeeeeeeeeeeeeeeeee",
"eeeeeeeeeeeeeeeeeeeeeeeeee@ugggggggggguOeeeeeeeeeeeeeeeeeeeeeeee",
"eeeeeeeeeeeeeeeeeeeeeeeeee@9fdaaggaadf9Oeeeeeeeeeeeeeeeeeeeeeeee",
"eeeeeeeeeeeeeeeeeeeeeeeee9O9agddaaddga9O9eeeeeeeeeeeeeeeeeeeeeee",
"eeeeeeeeeeeeeeeeeeeeeeeeeiO9u0udyagu0u9Oteeeeeeeeeeeeeeeeeeeeeee",
"eeeeeeeeeeeeeeeeeeeeeeeee0yap&q606%&&pt99eeeeeeeeeeeeeeeeeeeeeee",
"eeeeeeeeeeeeeeeeeeeeeeeeeiygauaaduaauau9teeeeeeeeeeeeeeeeeeeeeee",
"eeeeeeeeeeeeeeeeeeeeeeeeeeyggggggsfgggi9eeeeeeeeeeeeeeeeeeeeeeee",
"eeeeeeeeeeeeeeeeeeeee------tagauy0tufa6eeeeeeeeeeeeeeeeeeeeeeeee",
"eeeeeeeeeeeeeeeeee--;;;;;;*ytgudiddti08Xeyy9eeeeeeeeeeeeeeeeeeee",
"eeeeeeeeeeeeeeee--;;;-;;;;*its0yyyy0i08Xfy99eeeeeeeeeeeeeeeeeeee",
"eeeeeeeeeeeeee--;;;;-;;;;;*ussuggggtiy4Xf999XXeeeeeeeeeeeeeeeeee",
"eeeeeeeeeeeee-;--;;;-;;:::;ossuaauuti9XXf999XXXXeeeeeeeeeeeeeeee",
"eeeeeeeeeeee-;;;=-;=-;::::::tsggggssyXXos999ooooXeeeeeeeeeeeeeee",
"eeeeeeeeeee-;;;--==*;;::::::=0yyyyyy4Xoos999===ooXeeeeeeeeeeeeee",
"eeeeeeeeee::-==o-=o;;=:::;;%%%%%< <=====i999---=ooXeeeeeeeeeeeee",
"eeeeeeeee:::;;;=o=o-*;;:;r21OO<r21 @<Xooi999-=oXXXXeeeeeeeeeeeee",
"eeeeeeeee::>>;=;=oo*;;;;r  2<Or  2< @<XXy9y9=oX***ooeeeeeeeeeeee",
"eeeeeeee;:>>>:;*ooX*-0aa2  2<Oyy02<O @<XooX9oX*=;;;oeeeeeeeeeeee",
"eeeeeeee;:>>>:;=*X0aaffiO22<syyyy<OOO @XX9w,9>>>;;--oeeeeeeeeeee",
"eeeeeeee;0yyy0=0aaaffi9r2<OOsyyyy02<O @8yii094-->-==-eeeeeeeeeee",
"eeeeeee0yyyaawaaffi9oor  2<10syyy0 2< @8yy8884==--oo=oeeeeeeeeee",
"eeeeeeeyyaay0,=fi9XX=o2  2<1<syyyy 2< @8yy8884***oooXXeeeeeeeeee",
"eeeeeeeyay0000==eeeyyy922<OO1syyyy8<O @8yy8884***oooXXeeeeeeeeee",
"eeeeee>t00000==e900yiddOOr2<O0syyy0OO @8yy8884ooooXoXXeeeeeeeeee",
"eeeeee>;t0044o990yid9==%r  2<Osyyyy8 @<*99884*ooooXoXeeeeeeeeeee",
"eeeee0aa866649fy9eee=o**2  2<O0syyy9 <<XXoooX**XXXXXeeeeeeeeeeee",
"eeeeeayt86664,eeeeeeo===%22<OOOsy<yy@<X=-;--oXXoXXXXeeeeeeeeeeee",
"eeeeeat98664oeeeeeee*****oOOOOOOOO8y99--;;;*-oXXXXXeeeeeeeeeeeee",
"eeeeet69844eeeeeeeee========oXXX69,,66%=*o*-XoXXXXXeeeeeeeeeeeee",
"eeeeeee66eeeeeeeeee=*=-----**ooXy998644%oXooXXoXXXeeeeeeeeeeeeee",
"eeeeeeeeeeeeeeeeeee*=-----===*oXyy64444%oXXXXXXXXeeeeeeeeeeeeeee",
"eeeeeeeeeeeeeeeeeee=*******ooX*oX084444%XXXXXXXXeeeeeeeeeeeeeeee",
"eeeeeeeeeeeeeeeeee=*=-----==**Xoo08444%%XXXXXXXXeeeeeeeeeeeeeeee",
"eeeeeeeeeeeeeeeeee*=---------=*Xoo04%%oXXXXXXXXXXeeeeeeeeeeeeeee",
"eeeeeeeeeeeeeeeeee*=-------=*-=XX  Xoo*ooooXXXXXXeeeeeeeeeeeeeee",
"eeeeeeeeeeeeeeeeee=--;;;----=*=*X Xo**oXooooXXXXXeeeeeeeeeeeeeee",
"eeeeeeeeeeeeeeeee==-;;;;;---==**X Xoo*o*XXooXXXXXXeeeeeeeeeeeeee",
"eeeeeeeeeeeeeeeee=--;:::;--===**X XX***ooXXXXXXXXXeeeeeeeeeeeeee",
"eeeeeeeeeeeeeeeee---;:::;-===-=*X XXoooooXXXXXXXXXeeeeeeeeeeeeee",
"eeeeeeeeeeeeeeeee=:;-;;;--==--=o eeXX**oooXoXXXXXXeeeeeeeeeeeeee",
"eeeeeeeeeeeeeeee-:;==----===--*o eeXoXX*oooXXXXXXXeeeeeeeeeeeeee",
"eeeeeeeeeeeeeeee--=*=======*==*ooe oX**oXXXXXXXXXXeeeeeeeeeeeeee",
"eeeeeeeeeeeeeeeeo=**=====******ooe oooXooXXXXXXXXXeeeeeeeeeeeeee",
"eeeeeeeeeeeeeeeee**=--=****==X**oe . oXXXX      Xeeeeeeeeeeeeeee",
"eeeeeeeeeeeeeeeee*=-=======oooXoee O. oXXXXXXX  eeeeeeeeeeeeeeee",
"eeeeeeeeeeeeeeeee**ooooooooooXXeee @O          eeeeeeeeeeeeeeeee",
"eeeeeeeeeeeeeeeeeoXX        XXXeeee@@..       eeeeeeeeeeeeeeeeee",
"eeeeeeeeeeeeeeeeeX   .. . .O XXeeeeO        eeeeeeeeeeeeeeeeeeee",
"eeeeeeeeeeeeeeeeee  .@++.OO.. eeee.@#@OO.. . eeeeeeeeeeeeeeeeeee",
"eeeeeeeeeeeeeeeeee .+%+ . O   eeeeO@@O.       eeeeeeeeeeeeeeeeee",
"eeeeeeeeeeeeeeeeee    .O.OO   eeeeOOOO.       eeeeeeeeeeeeeeeeee",
"eeeeeeeeeeeeeeeeeee ... . O  eeee6 OO.        eeeeeeeeeeeeeeeeee",
"eeeeeeeeeeeeeeeeeee  .+O...  ee6643          @%4668eeeeeeeeeeeee",
"eeeeeeeeeeeeeeeeee .+%%@+OO.  443%%$##@@@@@@@#$%4478eeeeeeeeeeee",
"eeeeeeeeeeeeeeeeee .+%%@+OOO   %$##@@@@@@@@@#$%3468eeeeeeeeeeeee",
"eeeeeeeeeeeeeeeeee .++OOOOO..  @@@@@@@@@@@#$%%3468eeeeeeeeeeeeee",
"eeeeeeeeeeeeeeeeee ..          ##$%%33456778eeeeeeeeeeeeeeeeeeee",
"eeeeeeeeeeeeeeeeeee           @$%333456678eeeeeeeeeeeeeeeeeeeeee"
};
