/* XPM */
static char *_0272_edbb2244c7694638c778593b3681e1abe096e73038fe41026ff27cca78d671de[] = {
/* columns rows colors chars-per-pixel */
"64 64 45 1 ",
"  c black",
". c gray11",
"X c #002800",
"o c #003800",
"O c #202020",
"+ c #282828",
"@ c #2C2C2C",
"# c gray19",
"$ c #343434",
"% c gray22",
"& c #580000",
"* c #044000",
"= c #044C00",
"- c #045800",
"; c #046400",
": c #047000",
"> c #047C00",
", c #5C4020",
"< c #004040",
"1 c #005858",
"2 c #007070",
"3 c gray25",
"4 c #484848",
"5 c #4C4C4C",
"6 c gray33",
"7 c gray36",
"8 c #646464",
"9 c gray44",
"0 c #7C7C7C",
"q c #880000",
"w c #80502C",
"e c #905C34",
"r c #B47044",
"t c #FFC0CB",
"y c #008484",
"u c gray55",
"i c #989898",
"p c gray66",
"a c #B4B4B4",
"s c #FCB8B8",
"d c #C0C0C0",
"f c #D0D0D0",
"g c gainsboro",
"h c #ECECEC",
"j c gray99",
/* pixels */
"tttttttttttttttttttttttttttO@%%%%%%%%@@ttttttttttttttttttttttttt",
"tttttttttttttttttttttttttt@%%%%%%%%%%%@Otttttttttttttttttttttttt",
"tttttttttttttttttttttttttt@OO@@%%%%@@OOOtttttttttttttttttttttttt",
"tttttttttttttttttttttttttt@OOOOOOOOOOOOOtttttttttttttttttttttttt",
"tttttttttttttttttttttttttt@994OOOOOO499Otttttttttttttttttttttttt",
"tttttttttttttttttttttttttt@pjjjjjjjjjjpOtttttttttttttttttttttttt",
"tttttttttttttttttttttttttt@9hgddjjddgh9Otttttttttttttttttttttttt",
"ttttttttttttttttttttttttt9O9djggddggjd9O9ttttttttttttttttttttttt",
"tttttttttttttttttttttttttaO9p0pgidjp0p9Outtttttttttttttttttttttt",
"ttttttttttttttttttttttttt0ids&q606%&&su99ttttttttttttttttttttttt",
"tttttttttttttttttttttttttaijdpddgpddpdp9uttttttttttttttttttttttt",
"ttttttttttttttttttttttttttijjjjjjfhjjja9tttttttttttttttttttttttt",
"tttttttttttttttttttttttttttudjdpi0uphd6ttttttttttttttttttttttttt",
"ttttttttttttttttttttttt---*iujpgaggua08XXttttttttttttttttttttttt",
"ttttttttttttttttttt-----;;*auf0iiii0a08XXXXXXXtttttttttttttttttt",
"ttttttttttttttttt-----;;;;*pffpjjjjuai4XXXXXXXXXXttttttttttttttt",
"ttttttttttttttt---=-;;-----offpddppua9XXXXXXXXXXXXXttttttttttttt",
"tttttttttttttt--;;-=-------=ufjjjjffiXXXXXXXXXoXXXXXXttttttttttt",
"ttttttttttttt-;::;;*=---=====0iiiiii4XXXXXXXo=XXXXXXXXtttttttttt",
"tttttttttttt-;:::;-==========00008844**ooooo=XXXXXXXooXttttttttt",
"ttttttttttt-::----*===i=====0y2OOOOy2O**ooo*=Xo XXXoXXXoXttttttt",
"tttttttttt-:::;;-=*==iig===0y  1OOy  1O*oXoo*oX XX6XXooooXtttttt",
"ttttttttt-;;:::;=*X*iig===082  <OO2  <OXooXXo*   696ooXXXXtttttt",
"tttttttt;;;--=*-**Xiig===804O1<OOOO1<OOOXooX     p99oXXooXXttttt",
"tttttttt;:::;-***Xiigo*==06y2OOO11OOOy2OXXXoXXoXopu96=ooXXXttttt",
"ttttttt=-:>>;;=**aigXo***0y  1O1<<1Oy  1OXXXXoooX9p98o===oXXtttt",
"ttttttt=;>>>:;--aigXXoooo82  <O1<<1O2  <OXXXXooXoop986====oXtttt",
"ttttttt=:::;iiig6g*XXo==*8O1<OOO11OOO1<OOXXXXXXooo9p98=ooooXtttt",
"tttttt;=;;=iiire***XX*==*4OOOOy2OOOy2OOOXXXXXXXo==op988664oXtttt",
"ttttt;;=;;iiidww**Xoooo**oOOOy  1Oy  1OOXXXXXXo=***9pXi,6%%XXttt",
"ttttt;;=;iiid996*ttooo===*oOO2  <O2  <OXXXXoXXo**===p0,,8%%%Xttt",
"tttt;-;;-iid9996tttto*===*ooOO1<OOO1<OXXXXXXoXXX=*XXXu006%%%Xttt",
"tttt-;;;=id9996ttttiiio==*ooXOOOOOOOOXio*==*ooXX*Xooouu864%%%ttt",
"tttt-;;;--9996t000iggg******ooXXX XXXi9iooooXooXX*****u8864%%ttt",
"tttt-;uddd-660000ig=*=======**oXX XXi9999===oXoXo---***u884%tttt",
"ttttuddddu9w0ggtttt*=========**oX Xji99999---oXX=--=-**oXttttttt",
"ttttddu9989wttttttt*=ooooooXXXooX  Xgi99999---Xo----=*ooXttttttt",
"ttttu9989986ttttttt*o********oXXX XXog099999-*Xo--==ooXXtttttttt",
"ttttu89986tttttttttX*========*oXX XX**g099999Xii6%=ooXXttttttttt",
"ttttt986ttttttttttt-=--=====-=*oX XXX==d999969,864%XXXXttttttttt",
"tttttttttttttttttt-=-----===-oooX XXX*=-a99*i,86444oXXtttttttttt",
"tttttttttttttttttt-*--=======*ooX XX*==--p-=ii644444Xttttttttttt",
"tttttttttttttttttt*========*==ooX  X**=--;;-=0864444tttttttttttt",
"tttttttttttttttttt*=*=--====**=oX  XX*==-;;-=*06644ttttttttttttt",
"ttttttttttttttttttt*=;---===***oX    X;;-;;-=*o9644ttttttttttttt",
"tttttttttttttttttt=;;======***==ootXX-o;----=*oXXXtttttttttttttt",
"tttttttttttttttttt-;==********X*=*tX=oo;====*ooXXXtttttttttttttt",
"tttttttttttttttttt--**********oXoo X*=;;****ooXXXXtttttttttttttt",
"tttttttttttttttttt*oX*=====**oooXo. o*XooXXXXXXXXttttttttttttttt",
"tttttttttttttttttt@X*oooooXXXXXXXtO X**XXXXXooX tttttttttttttttt",
"tttttttttttttttttttooo*====**ooXXtO  XXoooooXX ttttttttttttttttt",
"tttttttttttttttttttooXXXXXXXXXXXtt..  XXXXX   tttttttttttttttttt",
"tttttttttttttttttttX           tttt.        tttttttttttttttttttt",
"ttttttttttttttttttt O+$#+O...  ttttO         ttttttttttttttttttt",
"ttttttttttttttttttt  +% . ..   ttt.O.        ttttttttttttttttttt",
"ttttttttttttttttttt            ttt.+..       ttttttttttttttttttt",
"tttttttttttttttttttt O+ + ..  tttt.+..       ttttttttttttttttttt",
"tttttttttttttttttttt          tttt O.        ttttttttttttttttttt",
"tttttttttttttttttttt.O@@+..O.. t%%%         $$%344578ttttttttttt",
"ttttttttttttttttttt .#%%#+OO..  @@@@       @@#$%334578tttttttttt",
"ttttttttttttttttttt..+#$+OOO..  @@@@@@@@@@@##$%334678ttttttttttt",
"tttttttttttttttttt8..O       .. @@@##$$%%33455667788tttttttttttt",
"tttttttttttttttttt88           $$%%%%%33556677888ttttttttttttttt",
"ttttttttttttttttttt887776655444444445556677888tttttttttttttttttt"
};
