/* XPM */
static char *_7604_114feb1e4d33d1641895d9ca64ac312fea7ef63fb3751b0e8c534f5e99c3f29e[] = {
/* columns rows colors chars-per-pixel */
"64 64 65 1 ",
"  c black",
". c gray11",
"X c #002800",
"o c #003800",
"O c #202020",
"+ c #282828",
"@ c #2C2C2C",
"# c gray19",
"$ c #343434",
"% c gray22",
"& c #580000",
"* c #640000",
"= c #700000",
"- c #7C0000",
"; c #044000",
": c #044C00",
"> c #045800",
", c #046400",
"< c #047000",
"1 c #047C00",
"2 c #6C4824",
"3 c #744C28",
"4 c #004040",
"5 c #005858",
"6 c gray25",
"7 c #484848",
"8 c #4C4C4C",
"9 c gray33",
"0 c gray36",
"q c #646464",
"w c gray44",
"e c #7C7C7C",
"r c #880000",
"t c #980000",
"y c #A40000",
"u c #B00000",
"i c #BC0000",
"p c #C80000",
"a c #D40000",
"s c #E00000",
"d c #FC0000",
"f c #80502C",
"g c #905C34",
"h c #A86840",
"j c #B47044",
"k c #BC7848",
"l c #FC4040",
"z c #FC5C5C",
"x c #FC7C7C",
"c c #E4D800",
"v c #FCF420",
"b c #FCF440",
"n c #FFC0CB",
"m c #008484",
"M c gray55",
"N c #989898",
"B c gray66",
"V c #B4B4B4",
"C c #FC9C9C",
"Z c #FCB8B8",
"A c #C0C0C0",
"S c #D0D0D0",
"D c gainsboro",
"F c #ECECEC",
"G c gray99",
/* pixels */
"nnnnnnnnnnnnnnnnnnnnnnnnnnnnnnnnnnnnnnnnnnnnnnnnnnnnnnnnnNnnnnnn",
"nnnnnnnnnnnnnnnnnnnnnnnnnnnnnnnnnnnnnnnnnnnnnnnnnnnnnnnnnNwnnnnn",
"nnnnnnnnnnnnnnnnGnnnnnnnnnnO@%%%%%%%%@@nnnnnnnnnnnnnnnnnnVwnnnnn",
"nnnnnnnnnnnnnnnwGwnnnnnnnn@%OOOOOOOOOO@OnnnnnnnnnnnnnnnnnSwqnnnn",
"nnnnnnnnnnnnnnnGBennnnnnnn@Ow7OOOOOO7wOOnnnnnnnnnnnnnnnnnFwqnnnn",
"nnnnnnnnnnnnnnwGBznnnnnnnn@OGGGGGGGGGGOOnnnnnnnnnnnnnnnnnVVVennn",
"nnnnnnnnnnnnnnGBeznnnnnnnn@wFDAAGGAADFwOnnnnnnnnnnnnnnnqVVVVe9nn",
"nnnnnnnnnnnnnnGBeznnnnnnnn@BAGDDAADDGABOnnnnnnnnnnnnnnneVNNNeq7n",
"nnnnnnnnnnnnnnnDeznnnnnnnn@wBeBFNAGBeBwOnnnnnnnnnnnnnnnMVNNNwq7n",
"nnnnnnnnnnnnAABBeznnnnnnnwOwZ&r9e9%&&ZwOwnnnnnnnnnnnnnnMVNNNqq7n",
"nnnnnnnnnnnNAADVqnnnnnnnnVOwABAADBAABAwOMnnnnnnnnnnnnn>7Nqqqqq%n",
"nnnnnnnnnnnAADANMnnnnnnnneNAGGGGGSFGGGMwwnnnnnnnnnnnnn>XNq7779%n",
"nnnnnnnnnnNAADANMnnnnnnnnVNSGGGBNeMGFGBwMnnnnnnnnnnnn>>X77337%nn",
"nnnnnnnnnnNAADNNennnnnnnnnNSSGBDVDDMSSVwnnnnnnnnnnnn>>>>X%g3%;nn",
"nnnnnnnnnnBNNNNeqnnnnnnnnnnMVGeAGDAeSB9nnnnnnnnnnnn:>>::>;XXXnnn",
"nnnnnnnnnnNwggeqennnnnnn,>;NVGe9&&9eSNqXXXXoonoo:>n>>::;:;XXXnnn",
"nnnnnnnnnn1Njgqe%>n,,,,,>,;VVGe&l&&eSNqXXXXXXoo:>>,,>::ooXXXnnnn",
"nnnnnnnnnn1X%%%X:>,,,,,,,>;eSGBFxDAMSN7XXXXXoo:>>,:,,,;oXXXXnnnn",
"nnnnnnnnnn1:XXX;;:>,,,,,,>>oSSBAzBBMVwXXoXoo,,::>,o,;o;;XXXXnnnn",
"nnnnnnnnnn>1,>;;;o:,,,>>>>>:eSGGxGSSNXXo;Xo;,o,:>,X:,oo;oXXnnnnn",
"nnnnnnnnnn1::;;;;o:,>>>::>>>:qezlzNe7Xoo:;;;:,o::oXoooXXXXXnnnnn",
"nnnnnnnnnn<>::;;;o;,,>:>::l>:eedzdq77;p:>;;:,,>o:oXo;oXXXXnnnnnn",
"nnnnnnnnnn1<>:;;;o;>,>;:>::di=ilxlimpp;:>::,oooXooXXooXXXXnnnnnn",
"nnnnnnnnnn,11,>;o;;oo,;;>>;ipddlZlppppO:;::o:;,ooooXXXXXXnnnnnnn",
"nnnnnnnnnn,,>::;;;oo;,:;;;-idzdlclizp=Oo;:;;>,o>:;XXXXXXXnnnnnnn",
"nnnnnnnnn::,,>::;;ooo;::;qiitdzxcxzartOOXo;;,,>>>:oXXXXXnnnnnnnn",
"nnnnnnnn:::,,:::;;;oo::::uusllxcbcxlutr=*o;:,,,,>::oXXXnnnnnnnnn",
"nnnnnnnn:>>,,,:;;;;o--yyddlzxvvbbbvvxzluy-*-,,1,,:::nnnnnnnnnnnn",
"nnnnnnn>,,>>,,>:;;XXXXXo:uuualxcbcxliytr*XX;><:,>,::;nnnnnnnnnnn",
"nnnnnnn>,,,>,,,;oooXXXoX:q-trdzxZxzitt-OOXXX;,,>1:::;nnnnnnnnnnn",
"nnnnnn>,<<<<>,,>XooXXXoXo7-razdlxlizi=OOXXoXX::;;;;:;;nnnnnnnnnn",
"nnnnnn><,:::>>;;XXXXooXoXoOudadlzdtiarOOXXXooo;>11>::;nnnnnnnnnn",
"nnnnn>><<<<>X>oXoXXXXoo;;o=aurtdlit=ruOXXXXXX >;;;:::;onnnnnnnnn",
"nnnnn><<<<::>XXXXoXX;Xo;;;u**O5iliO54O*XXXXXX;:,11:;:;onnnnnnnnn",
"nnnnn,<<,,,,:oX;oo:X:XXo;*;oXOO*l*OOOXXXooooX:>,1;>:;oonnnnnnnnn",
"nnnnn<<::::,:oXoXo::X:Xo;;o;oXXXt XXXXXXXXXX;:,,,>;:;oonnnnnnnnn",
"nnnn,,:BAABo,oX;oXXXoX:Xo;oXoXXXt XXXoooo:,;111>>,;:oXnnnnnnnnnn",
"nnnn,:BAANeeoXXnnXXXXXXXXo;XXoXX= XXoo:::,:SSBeq::;oXonnnnnnnnnn",
"nnnn,BAABBNeoXnnoooooooXXXXXXXX    o::ooo,SBBMeqo:oXXnnnnnnnnnnn",
"nnnn,BBBe7q:oXn::;;oooooXXX XX     :oo;;:SBBMMwqX;XXnnnnnnnnnnnn",
"nnnn,wBN7h2qoXn>::;ooo::oXXX        X;:>>SkkMeqqXXonnnnnnnnnnnnn",
"nnnnn;Be72Cqon>>::;ooo:X;oXXX       o:>>>qMfMwq9Xonnnnnnnnnnnnnn",
"nnnnn;7eqqCNon>>::;;oo;;XXoXXX  nXXXo>:>>CMfqq9XoXnnnnnnnnnnnnnn",
"nnnnnn;7qMANnn>,>:;;oooo;XXXX  nnnXX::>>wCq:q9XXoXXnnnnnnnnnnnnn",
"nnnnnnnnnMACn>>,>::;;ooooXXXX nnnnnXo:>>Ce,;;oooooXnnnnnnnnnnnnn",
"nnnnnnnnnMACn>>>>::;;oooooXX  nnnnnX;::wCe>,;;ooooXXnnnnnnnnnnnn",
"nnnnnnnnnMAMn>>>>::;;;;ooXXX nnnnnnX;;,Cee:>>;ooooXXnnnnnnnnnnnn",
"nnnnnnnnnnAM,,:>>>::;;;::;X Xnnnnnnn;>,Ce9::::;;oooXnnnnnnnnnnnn",
"nnnnnnnnnnMw,,::>:;;;;o:X  Xnnnnnnnn>X>ee;;;;;;;;;;::nnnnnnnnnnn",
"nnnnnnnnnnwn::;;;:;;oooooX nnnnnnnnnn>;e9>;;ooooooXoonnnnnnnnnnn",
"nnnnnnnnnnnn:;XooooooXXXoX nnnnnnnnnn;oeoo;>:::ooooXonnnnnnnnnnn",
"nnnnnnnnnnnn:;oXXXXXXXX    nnnnnnnnnn@o9;;;:XXXXXXXXnnnnnnnnnnnn",
"nnnnnnnnnnnnn XXXXXXXXX   nnnnnnnnnnnno;;oooooooooXXnnnnnnnnnnnn",
"nnnnnnnnnnnnnn XXXXXXX   nnnnnnnnnnnnnooX        XXXnnnnnnnnnnnn",
"nnnnnnnnnnnnnn           nnnnnnnnnnnnnoX +@@ .     Xnnnnnnnnnnnn",
"nnnnnnnnnnnnn...         nnnnnnnnnnnnnn O+@@++O .  nnnnnnnnnnnnn",
"nnnnnnnnnnnn.+@++       @nnnnnnnnnnnnnn O+@@ .  .  nnnnnnnnnnnnn",
"nnnnnnnnnnnn.+%%+.       nnnnnnnnnnnnnn @ OO++O    nnnnnnnnnnnnn",
"nnnnnnnnnnnn..+++..     67788900qqqnnnnn O++ . .  nnnnnnnnnnnnnn",
"nnnnnnnnnnnn .....      ##$$$%%%%%6679qq  @@O.O   nnnnnnnnnnnnnn",
"nnnnnnnnnnq09          @@@@@@@@@@@$$$%%%.O+%%@+O.. nnnnnnnnnnnnn",
"nnnnnnnnnnnq09988777776666%%%$$##@@@@@@..O+@@@+O..  %7nnnnnnnnnn",
"nnnnnnnnnnnnnnnqq009998877776666%%###@@..O+++++O..  @%9nnnnnnnnn",
"nnnnnnnnnnnnnnnnnnnnnnnnnnnnnnnnnqq007%@.O       ..@@%9qnnnnnnnn"
};
