/* XPM */
static char *_8109_553fa726db650f47607ba56a7ae195ad72e713b368bde0342a50d1cf59194ded[] = {
/* columns rows colors chars-per-pixel */
"64 64 51 1 ",
"  c black",
". c gray11",
"X c #002800",
"o c #003800",
"O c #202020",
"+ c #282828",
"@ c #2C2C2C",
"# c gray22",
"$ c #044000",
"% c #044C00",
"& c #045800",
"* c #046400",
"= c #047000",
"- c #047C00",
"; c #744C28",
": c #400040",
"> c #580058",
", c #6C0070",
"< c #004040",
"1 c #005858",
"2 c #007070",
"3 c gray25",
"4 c #484848",
"5 c #4C4C4C",
"6 c gray33",
"7 c #646464",
"8 c gray44",
"9 c #7C7C7C",
"0 c #A40000",
"q c #905C34",
"w c #B47044",
"e c #FC4040",
"r c #048800",
"t c #840084",
"y c #FFC0CB",
"u c #9C009C",
"i c #B400B4",
"p c #C800CC",
"a c #008484",
"s c #009C9C",
"d c #00B4B4",
"f c gray55",
"g c #989898",
"h c gray66",
"j c #B4B4B4",
"k c #FCB8B8",
"l c #C0C0C0",
"z c #D0D0D0",
"x c gainsboro",
"c c #ECECEC",
"v c gray99",
/* pixels */
"yyyyyyyyyyyyyyyyyyyyyyyyyyyyyyyyyyyyyyyyyyyyyyyyyyyyyyyyyyyyyyyy",
"yyyyyyyyyyyyyyyyyyyyyyyyyyyyyyyyyyyyyyyyyyyyyyyyyyyyyyyyyyyyyyyy",
"yyyyyyyyyyyyyyyyyyyyyyyyyyyyyyyyyyyyyyyyyyyyyyyyyyyyyyyyyyyyyyyy",
"yyyyyyyyyyyyyyyyyyyyyyyyyyyyyyyyyyyyyyyyyyyyyyyyyyyyyyyyyyyyyyyy",
"yyyyyyyyyyyyyyyyyyyyyyyyyyyyyyyyyyyyyyyyyyyyyyyyyyyyyyyyyyyyyyyy",
"yyyyyyyyyyyyyyyyyyyyyyyyyyyyyyyyyyyyyyyyyyyyyyyyyyyyyyyyyyyyyyyy",
"yyyyyyyyyyyyyyyyyyyyyyyyyyyyyyyyyyyyyyyyyyyyyyyyyyyyyyyyyyyyyyyy",
"yyyyyyyyyyyyyyyyyyyyyyyyyyyyyyyyyyyyyyyyyyyyyyyyyyyyyyyyyyyyyyyy",
"yyyyyyyyyyyyyyyyyyyyyyyyyyyyyyyyyyyyyyyyyyyyyyyyyyyyyyyyyyyyyyyy",
"yyyyyyyyyyyyyyyyyyyyyyyyyyyyyyyyyyyyyyyyyyyyyyyyyyyyyyyyyyyyyyyy",
"yyyyyyyyyyyyyyyyyyyxyyyyyyyyyyyyyyyyyyyyyyyyyyyyyyyyjyyyyyyyyyyy",
"yyyyyyyyyyyyyyyyyyx9yyyypyyyypyyyyyyyyyyyyyyyyyyyyyyz8yyyyyyyyyy",
"yyyyyyyyyyyyyyyyyx99yyyyyyyyyyyyyyyyyyyypyyyyyyyyyyyc8yyyyyyyyyy",
"yyyyyyyyyyyyygllhh99yyyyyyyyyyyypyyyyyyyppyyyyyyyyyyjjgyyyyyyyyy",
"yyyyyyyyyyyygllxlgf9yyyyppyyyfhvp7vhfyyyyyyyyyyyyy7jjjj9yyyyyyyy",
"yyyyyyyyyyy=gllxgg9yyypyyyyOp7e0vle07fOyyyyyyyyyyy9jggg77yyyyyyy",
"yyyyyyyyyyy=hg99g97yiyyyyi4OkdsvggcdsvOOyyypyyyyyyfg77777yyyyyyy",
"yyyyyyyyyg=$g8qq97yyyyytipp8d<<299d<<18Oyyyyyyyyyyyg74446Xyyyyyy",
"yyyyyyyy9l-$9gwq7Xyyypyty9Odsa2<44<a1daO7yyyyygyyy*44;;4#Xyyyyyy",
"yyyyyyyyxg-$u9uuXXtupyyiyjs<<2>>44<<d<<1fyuyuyc8yy*##q;4$Xyyyyyy",
"yyyyyyyyx7-=$ou,Xyyuyy,yy82a2<da111d2a1@iiiyyygc8y*X####XXyyyyyy",
"yyyyyyygll8=*XXXo,*p-$pp-72<<s  a<s  u<@iiyyy9jjj9#oXXXXXXXyyyyy",
"yyyyyyglllg*&%%$oot>u&p-u211u>22<1<22@<@Oyiyijjjj74XoXXXoXXyyyyy",
"yyyyyglllg8&-,$:Xpu>$ppiu22u>>1<<#<<<@@Ouo%&igjjj74#=%$oXXXyyyyy",
"yyyyrglhhg8&%XX::pu>p>>u>*2,<>-<OOOOOOOO@>i%*gj9644#%=$oXXXyyyyy",
"yyyrog8qq68r%$:>p,t>p>oot*u2&->>Oo$OOiOt@$%$i7i4;;4XX$ooXXyyyyyy",
"yyyrog6wq6%**$>::pXX tiiXou>-%o>OX$&#@OO@itpiX9#q;4X$XoXXXyyyyyy",
"yyyro9g66XX%*::XXXXi tu> uu,>ot>OoO$&&Ooitopitt&##iXXX$XXyyyyyyy",
"yyyr%o999XXX:Xo$%%%%%%o>uut,i >> X$X$&=i>tpti%%iXXXXXX$XXyyyyyyy",
"yyy*roXXXXo:oo%&*i****&>ut,>t t  >X Xt%&i>i>t$iXXXoXXX$XXyyyyyyy",
"yyy**rXXXXXo*----=**ii**>ti> >>         t i>tiotoiXtoXXXyyyyyyyy",
"yyyy***%$o*-----===*i>&&>>tXi  t  , Xt>,,>t>tXXXoiitX,XXyyyyyyyy",
"yyyyy**%%o=-====--==&&&i%:t:>X >  Xo,tuu>>::i>>$iXXXXXXyyyyyyyyy",
"yyyyyy**%-**====****&%$$$iX:t>   Xootut,*=t=**&>$XXXXXXyyyyyyyyy",
"yyyyyyyy%-&***&&&&&%%*=&$::::X>> Xo,u,&=i----t=&%oi,XXXyyyyyyyyy",
"yyyyyyyyy***=====&%$X%& o::,:o  Xo%=,%=t-t---,--=&XXXXyyyyyyyyyy",
"yyyyyyyyy********&%$X&%XX:X::X  Xo>%,=->*------*&*&X,yyyyyyyyyyy",
"yyyyyyyyy&==---===*o$Xo  :X::   Xo%o=X**********&$oyyyyyyyyyyyyy",
"yyyyyyyy&=**-*%$$$$*$Xo X:X::   XoooXX*$%%&&&&&%%o%yyyyyyyyyyyyy",
"yyyyyyyy&========&%$X$ X ::::   XXooX=%$$%%%%%%$$o$oyyyyyyyyyyyy",
"yyyyyyyy&=&XXXX&&=%$$X XXX:::yy XXXoXX$o$%&*&$$ooXXoyyyyyyyyyyyy",
"yyyyyyyy&X.++..  o$$XX XXXy:yyyy XXXX$&*====*&%$$oXXyyyyyyyyyyyy",
"yyyyyyyy .+ . ..  XXXXyyyyy:yyyyyyXXXXX%*=%%&XXXXXXyyyyyyyyyyyyy",
"yyyyyyyy .#++..    XXXyyy:y:yyyyyyyyo$&==&&&&%%$ooXyyyyyyyyyyyyy",
"yyyyyyyy   . ...    Xyyyyyy:yyyyyyyyXo%%&$oXXXXXXX yyyyyyyyyyyyy",
"yyyyyy+##@+  ..     yyyyyyyyyyyyyyyyyoo%%%%$$oooXX yyyyyyyyyyyyy",
"yyyyy+++++++.       yyyyyyy:yyyyyyyyyy  XXXXXXXXX  yyyyyyyyyyyyy",
"yyyy...........    yyyyyyyy:yyyyyyyyyy            yyyyyyyyyyyyyy",
"yyyy..       ..    yyyyyyyyyyyyyyyyyyy            yyyyyyyyyyyyyy",
"yyyy          ..   yyyyyyyy:yyyyyyyyyyy O        yyyyyyyyyyyyyyy",
"yyyyy              yyyyyyyyyyyyyyyyyyyy          yyyyyyyyyyyyyyy",
"yyyyyy             yyyyyyyyyyyyyyyyyyyy  .++...   yyyyyyyyyyyyyy",
"yyyyyyyyy         yyyyyyyyyyyyyyyyyyyy  .+@@+O..   yyyyyyyyyyyyy",
"yyyyyyyyyyyyyyyyyyyyyyyyyyyyyyyyyyyyyy  .O++OO..   yyyyyyyyyyyyy",
"yyyyyyyyyyyyyyyyyyyyyyyyyyyyyyyyyyyyyy  ..OOO..    yyyyyyyyyyyyy",
"yyyyyyyyyyyyyyyyyyyyyyyyyyyyyyyyyyyyyyy  .....    yyyyyyyyyyyyyy",
"yyyyyyyyyyyyyyyyyyyyyyyyyyyyyyyyyyyyyyyy         yyyyyyyyyyyyyyy",
"yyyyyyyyyyyyyyyyyyyyyyyyyyyyyyyyyyyyyyyyyyyyyyyyyyyyyyyyyyyyyyyy",
"yyyyyyyyyyyyyyyyyyyyyyyyyyyyyyyyyyyyyyyyyyyyyyyyyyyyyyyyyyyyyyyy",
"yyyyyyyyyyyyy66665555555555555555555555555555556666yyyyyyyyyyyyy",
"yyyyyyyyyyy6665543333#######################334455666yyyyyyyyyyy",
"yyyyyyyyy6665554333###########################334455666yyyyyyyyy",
"yyyyyyyyyyy666555544444444444444444444444444455555566yyyyyyyyyyy",
"yyyyyyyyyyyyyyyyyyyyyyyyyyyyyyyyyyyyyyyyyyyyyyyyyyyyyyyyyyyyyyyy"
};
