/* XPM */
static char *_399_72fc2512c0ca81ce07f6b09d7a2afd9f8f185ab6deefe9d14a6162f9dfcbd4aa[] = {
/* columns rows colors chars-per-pixel */
"64 64 51 1 ",
"  c black",
". c gray11",
"X c #002800",
"o c #003800",
"O c #202020",
"+ c #282828",
"@ c #2C2C2C",
"# c #343434",
"$ c gray22",
"% c #4C0000",
"& c #580000",
"* c #700000",
"= c #044000",
"- c #044C00",
"; c #045800",
": c #046400",
"> c #047000",
", c #047C00",
"< c #5C4020",
"1 c #400040",
"2 c #580058",
"3 c #6C0070",
"4 c #004040",
"5 c #005858",
"6 c #007070",
"7 c gray25",
"8 c #484848",
"9 c #4C4C4C",
"0 c gray33",
"q c gray36",
"w c #646464",
"e c gray44",
"r c #7C7C7C",
"t c #880000",
"y c #B00000",
"u c #80502C",
"i c #B47044",
"p c #840084",
"a c #FFC0CB",
"s c #9C009C",
"d c #008484",
"f c gray55",
"g c #989898",
"h c gray66",
"j c #B4B4B4",
"k c #FCB8B8",
"l c #C0C0C0",
"z c #D0D0D0",
"x c gainsboro",
"c c #ECECEC",
"v c gray99",
/* pixels */
"aaaaaaaaaaaaaaaaaaaaaaaaaaaOOOOOOOOOOO@aaaaaaaaaaaaaaaaaaaaaaaaa",
"aaaaaaaaaaaaaaaaaaaaaaaaaa@$e8OOOOOO8e@Oaaaaaaaaaaaaaaaaaaaaaaaa",
"aaaaaaaaaaaaaaaaaaaaaaaaaa@OvvvvvvvvvvOOaaaaaaaaaaaaaaaaaaaaaaaa",
"aaaaaaaaaaaaaaaaaaaaaaaaaa@OcxllvvllxcOOaaaaaaaaaaaaaaaaaaaaaaaa",
"aaaaaaaaaaaaaaaaaaaaaaaaaa@elvxxllxxvleOaaaaaaaaaaaaaaaaaaaaaaaa",
"aaaaaaaaaaaaaaaaaaaaaaaaaa@hhrhxglvhrhhOaaaaaaaaaaaaaaaaaaaaaaaa",
"aaaaaaaaaaaaaaaaaaaaaaaaaa@ekty0r0$y&keOaaaaaaaaaaaaaaaaaaaaaaaa",
"aaaaaaaaaaaaaaaaaaaaaaaaaeOelhllxhllhleOeaaaaaaaaaaaaaaaaaaaaaaa",
"aaaaaaaaaaaaaaaaaaaaaasaajOevvvvvzcvvveOfaaaaaaaaaaaaaaaaaaaaaaa",
"aaaaaaaaaaaaaaaaaaaaaaaaa3gllvlhgrfhclfeeaaaaaaaaaaaaaaaaaaaaaaa",
"aaaaaaaaaaaaaaaaaaaaaaaasjgzlvhxjxxfjghefaaaaaaaaaaaaagaaaaaaaaa",
"aaaaaaaaaaaaaaaaaaaaaa3aaagflvrlgglrjgjeaaaaaaaaaaaaacraaaaaaaaa",
"aaaaaaaaaaaaaaaaaaaaaaaa3aaflvr0&&0rjg0aaaaaaaaaaaaaacraaaaaaaaa",
"aaaaaaaaaaaaaaaaaaaaaaas2;=flvr&%%&rjfwXXXXXXaaaaaaaacr0aaaaaaaa",
"aaaaaaaaaaaaaaaaa::::::32:=flvr*%%*rjf0XXXoXXXXXXXaaahcraaaaaaaa",
"aaaaaaaaaaaaaa::::::::::2:=wzvhvvvvfjr8XXo-Xpo==---oarcraaaaaaaa",
"aaaaaaaaaaaa::::::-;::;;;;;ozvhllhhfj0XXXo-op;=------acraaaaaaaa",
"aaaaaaaaaa::>>>>::;ge;:p::;-wrrrrrrrgXXXo=-o=;-p;;;;;-hr0aaaaaaa",
"aaaaaaaaa:>>>;:>>:gle;;;--;-rd6$$$$d6O--o=;=-3;;=::;==rhraaaaaaa",
"aaaaaaaaa:>>>:;->glles-p-p;rd  5$$d  5@=-2;p-2;=::-=::;hroaaaaaa",
"aaaaaaaa;>,,::-=gllle-;3:3rw6  4$$6  4$@;;;=--;o2Xo::-wwg08oaaaa",
"aaaaaaaa;,,,>:;glllle;::p0w8$54$$$$54$$@-;32==3ooX=:;hr$<0$$Xaaa",
"aaaaaaaa;>:gjjxllllx=p:p:r0d6$$$55$$$d6$@o32o2=XoX-;;hrrrw$$Xaaa",
"aaaaaa:-;:ggjiglllxo=;3s-rd  5$5445$d  5@21;=1XXXX-;;efww0$$Xaaa",
"aaaaa::-;wggluullxXXo2232r6  4$5445$6  4@111;XoXoX=--ofww08$$aaa",
"aaaaa::-;gglgewlxXXXX212:r$54$$$55$$$54$@11o-=XheX==-=fww08$$aaa",
"aaaa:;::;glgeewxXXXs3X2--w$$$$d6$$$d6$$$@11=oohee0oo===fww8$aaaa",
"aaaa;:::-gleee0ooXX32-==s5$$$d  5$d  5$@XX=-12heee-oooXXaaaaaaaa",
"aaaa;:lll;eee0o--oooX=---5@$$6  4$6  4$@XX==23oxee0--ooXXaaaaaaa",
"aaaa;lllfl;00aaaa--==X-::-5@$$54$$$54$@XXXo=-;-rxee0;-oXXXaaaaaa",
"aaaaflfewfeaaaaaaa;;==-2--$5@@$s$$$@@OOXX12XXX1;hre0--ooXXaaaaaa",
"aaaalfeeew0aaaaaaa;;-ooooo=s44@@@@OO@@@Xo23oXXX;oxee0oooXXaaaaaa",
"aaaafeewew0aaaaaaaa-:::::-XX@@$$$$@@@XXo====o2XXohxexgg0$Xaaaaaa",
"aaaafweew0aaaaaaaa::-===-:;;ooXXX sXXo==--p-=oX2X;h0e<w08Xaaaaaa",
"aaaaaew0aaaaaaaaa:-=XXXXXooo;3o3X Xoo=-;2;;;p=oXX==g<w088oaaaaaa",
"aaaaaaaaaaaaaaaa:=o=-;;;;-==o-oX  Xoo-2poo2oo-oXXo=gg08888aaaaaa",
"aaaaaaaaaaaaaaaa:=::::::;;-3=3sX  Xo=XX22XXXXooXXX=-rw0888aaaaaa",
"aaaaaaaaaaaaaaaa=:::::::;;--32X   XoX===p2=2oXXXXXa=rw088aaaaaaa",
"aaaaaaaaaaaaaaaa:>>>>>::;;--12X3  XX=p-211-==ooXXaaaae088aaaaaaa",
"aaaaaaaaaaaaaaa:>>>>>>::;;-=;;oX  Xo=--p113-==ooXaaaaaaaaaaaaaaa",
"aaaaaaaaaaaaaaa:>>>>>:::;--=;X=XX Xo-=----3p==2pXaaaaaaaaaaaaaaa",
"aaaaaaaaaaaaa>>>>>>>>>>;--==ooXXX Xo=-;;;p---1oXXaaaaaaaaaaaaaaa",
"aaaaaaaaaaaaa:::>>>>:::--=ooooXO  Xo=-;;;;;--=ooXaaaaaaaaaaaaaaa",
"aaaaaaaaaaaaa;;;-;:::;---;;-oXX X Xo==;;;;;--==oXaaaaaaaaaaaaaaa",
"aaaaaaaaaaaaa--=o=-;;---=--= XX a o=--;:::;;-==oooaaaaaaaaaaaaaa",
"aaaaaaaaaaaaaa==o===ooo-=oXoXXXaaao=;;;:::;;-====oaaaaaaaaaaaaaa",
"aaaaaaaaaaaaaa-========oooXXXaaaaaoXX-;;:;;-===--oaaaaaaaaaaaaaa",
"aaaaaaaaaaaaaa--==ooooo=ooXX aaaaaXXX==----==oX===aaaaaaaaaaaaaa",
"aaaaaaaaaaaaaaa =o=====XX    aaaaa@XXoo=====oooXoaaaaaaaaaaaaaaa",
"aaaaaaaaaaaaaaa              aaaaaaXXXooooooooXXXaaaaaaaaaaaaaaa",
"aaaaaaaaaaaaaaaa             aaaaaaXoXXXXXXXXXoXXaaaaaaaaaaaaaaa",
"aaaaaaaaaaaaaaaaa           aaaaaaaXXoooooooooXXXaaaaaaaaaaaaaaa",
"aaaaaaaaaaaaaaaaa           aaaaaaa OXXXXXXXXXXXaaaaaaaaaaaaaaaa",
"aaaaaaaaaaaaaaaa            aaaaaaa O+@ . ..   aaaaaaaaaaaaaaaaa",
"aaaaaaaaaaaaaaaa             aaaaaa            aaaaaaaaaaaaaaaaa",
"aaaaaaaaaaaaaaaa             aaaaaaa OO . ..  aaaaaaaaaaaaaaaaaa",
"aaaaaaaaaaaaaaaa             aaaaaaa          aaaaaaaaaaaaaaaaaa",
"aaaaaaaaaaaaaaaa             aaaaaa$.OOOOOOO.. aaaaaaaaaaaaaaaaa",
"aaaaaaaaaaaaaaaaa           aaaaaaa .O@@@OOO..  aaaaaaaaaaaaaaaa",
"aaaaaaaaaaaaaaaaaa         88888888..OO++OOO..  80wwaaaaaaaaaaaa",
"aaaaaaaaaaaaaaaaww098777777$$$$$$##..O       .. $800waaaaaaaaaaa",
"aaaaaaaaaaaaaaawwwq0987777$$$$$$$$##           $$800wwaaaaaaaaaa",
"aaaaaaaaaaaaaaaaawwq0008888888888888888888888888800wwaaaaaaaaaaa",
"aaaaaaaaaaaaaaaaaaaaaaaaaaaaaaaaaaaaaaaaaaaaaaaaaaaaaaaaaaaaaaaa"
};
