/* XPM */
static char *_018_63794474dfc4e3491160fefda5114fed037f1c4f6591679593cab798bc18793a[] = {
/* columns rows colors chars-per-pixel */
"64 64 47 1 ",
"  c black",
". c gray11",
"X c #002800",
"o c #003800",
"O c #202020",
"+ c #282828",
"@ c #2C2C2C",
"# c gray19",
"$ c #343434",
"% c gray22",
"& c #044000",
"* c #044C00",
"= c #045800",
"- c #046400",
"; c #047000",
": c #047C00",
"> c #744C28",
", c #400040",
"< c #580058",
"1 c #6C0070",
"2 c #004040",
"3 c #005858",
"4 c #007070",
"5 c gray25",
"6 c #484848",
"7 c #4C4C4C",
"8 c gray33",
"9 c #646464",
"0 c gray44",
"q c #7C7C7C",
"w c #905C34",
"e c #B47044",
"r c #048800",
"t c #840084",
"y c #FFC0CB",
"u c #9C009C",
"i c #B400B4",
"p c #C800CC",
"a c #E000E4",
"s c #008484",
"d c #009C9C",
"f c #00B4B4",
"g c #989898",
"h c gray66",
"j c #B4B4B4",
"k c #C0C0C0",
"l c gainsboro",
/* pixels */
"yyyyyyyyyyyyyyyyyyyyyyyyyyyyyyyyyyyyyyyyyyyyyyyyyyyyyyyyyyyyyyyy",
"yyyyyyyyyyyyyyyyyyyyyyyyyyyyyyyyyyyyyyyyyyyyyyyyyyyyyyyyyyyyyyyy",
"yyyyyyyyyyyyyyyyyyyyyyyyyyyyyyyyyyyyyyyyyyyyyyyyyyyyyyyyyyyyyyyy",
"yyyyyyyyyyyyyyyyyyyyyyyyyyyyyyyyyyyyyyyyyyyyyyyyyyyyyyyyyyyyyyyy",
"yyyyyyyyyyyyyyyyyyyyyyyyyyyyyyyyyyyyyyyyyyyyyyyyyyyyyyyyyyyyyyyy",
"yyyyyyyyyyyyyyyyyyyyyyyyyyyyyyyyyyyyyyyyyyyyyyyyyyyyyyyyyyyyyyyy",
"yyyyyyyyyyyyyyyyyyyyyyyyyyyyyyyyyyyyyyyyyyyyyyyyyyyyyyyyyyyyyyyy",
"yyyyyyyyyyyyyyyyyyyyyyyyyyyyyyyyyyyyyyyyyyyyyyyyyyyyyyyyyyyyyyyy",
"yyyyyyyyyyyyyyyyyyyyyyyyyyyyyyyyyyyyyyyyyyyyyyyyyyyyyyyyyyyyyyyy",
"yyyyyyyyyyyyyyyyyyyyyyyyyyyyyyyyyyyyyyyyyyyyyyyyyyyyyyyyyyyyyyyy",
"yyyyyyyyyyyyyyyyyyyyyyyyyyyyyyyyyyyyyyyyyyyyyyyyyyyyyyyyyyyyyyyy",
"yyyyyyyyyyyyyyyyyyyyyyyyyyyyyyyyyyyyyyyyyyyyyyyyyyyyyyyyyyyyyyyy",
"yyyyyyyyyyyyyyyyyyyyyyyyyyyyyyyyyyyyyyyyyyyyyyyyyyyyyyyyyyyyyyyy",
"yyyyyyyyyyyyyyyyyyyyyyyyyyyyyyyyyyyyyyyyyyyyyyyyyyyyyyyyyyyyyyyy",
"yyyyyyyyyyyyyyyyyyyyyyyyyyyyyyyyyyyyyyyyyyyyyyyyyyyyyyyyyyyyyyyy",
"yyyyyyyyyyyyyyyyyyyyyyyyyyyyyyyyyyyyyyyyyyyyyyyyyyyyyyyyyyyyyyyy",
"yyyyyyyyyyyyyyyyyyyyyyyyyyyyyyyyyyyyyyyyyyyyyyyyyyyyyyyyyyyyyyyy",
"yyyyyyyyyyyyyyyyyyyyyyyyyyyyyyyyyyyyyyyyyyyyyyyyyyyyyyyyyyyyyyyy",
"yyyyyyyyyyyyyyyyyyyyyyyyyyyyyyyyyyyyyyyyyyyyyyyyyyyyyyyyyyyyyyyy",
"yyyyyyyyyyyyyyyyyyyyyyyyyyyyyyyyyyyyyyyyyyyyyyyyyyyyyyyyyyyyyyyy",
"yyyyyyyyyyyyyyyyyyyyyyyyyyyyyyyyyyyyyypyyyyyyyyyyyyyyyyyyyyyyyyy",
"yyyyyyyyyyyyyyyyyyyyyyyyyyyyyyyyyyyyyyyyyyyyyyyyyyyyyyyyyyyyyyyy",
"yyyyyyyyyyyyyyyyyyyyyyyyyyyyyyyyyyyyyyyyyyyyyyyyyyyyyyyyyyyyyyyy",
"yyyyyyyyyyyyyyyyyyyyyyyyypyyyyyyyyyyyyyyyyyyyyyyyyyyyyyyyyyyyyyy",
"yyyyyyyyyyyyyyyyyyyqlyyyyyyyyypyyyypyyyyyyyyyyyyyyyyyyyyyyyyyyyy",
"yyyyyyyyyyyyyyyyyyqlyyyyiyyyyyyyyyyyyyyyylpjgqyyyyyyyyyyyyyyyyyy",
"yyyyyyyyyyyyyyy=gkkg9uiyyyyyyyyyyyyyyyyyyylgjjgyyyyyyyyyyyyyyyyy",
"yyyyyyyyyyyyyyrgkggggphuhyiyyiyyppyyyyyyyyggg999yyyyyyyyyyyyyyyy",
"yyyyyyyyyyyy-rrg0ww8ghpuiqiyiyyyyyyyyyiyyggg96668*yyyyyyyyyyyyyy",
"yyyyyyyyy=--rrrg8ew8X6p<quypyypyiyyyiyyylqgggq%6%X*&yyyyyyyyyyyy",
"yyyyyyyy*=-r:::;qp8pXu<698yiyffdyydffyyyyjjpgq66XX*o*oyyyyyyyyyy",
"yyyyyyyy*-rrr:;-*oop,<,6ppiiufuiiyssiffyygj9886%XooX*ooyyyyyyyyy",
"yyyyyyyy*r:r:;&*oopXp,ppppiuifufyy3ffp3@ygq8>>6o=XoXoX*&yyyyyyyy",
"yyyyyyyy-::r--*&X,,,<ppu:ii::ui323p4u2u@Ogq8w>6o=*oXXX&&oyyyyyyy",
"yyyyyyy-:;;-==-X,,*:::uu*ai*uu4t2%243ppOt*8866Xo*&=XXXXooyyyyyyy",
"yyyyyyy-;=;-***,,::-ouXXXXXXt432iOOpp2pO@ouXXXo*Xo&=XXXoXyyyyyyy",
"yyyyyyy*===;=*o,:-oX  a t 1i1*@@@@u@ptpp;i-==ooXXXo*=oXXXyyyyyyy",
"yyyyyyyo*****oXX:*        aputitOOOtptp*it*i*oXXXXXo**XXyyyyyyyy",
"yyyyyyyooooXXX*o&******iaXuii1it=tupptuXipi:;ooooXXo*oXyyyyyyyyy",
"yyyyyyyyoXXXX*o--::::;--<<,<u < *tXpu1utXppXX;ooXXXXoXXyyyyyyyyy",
"yyyyyyyyyoXX*-::::::::a-ti<a,it 1   Xtp1pooXoXXoooXXXXXyyyyyyyyy",
"yyyyyyy7775#-;;;;;-*&=::=<,<,it < uXpu1<p<<<<<<XXXXXXXXyyyyyyyyy",
"yyyyyy75$$$##.;;;-==***::a,,<<  t XXpptu<:::::;*&XXXXXyyyyyyyyyy",
"yyyyy7#.   .@# &&*;=*oo=X,,<ttX< XXpttut::-----;=&XXyyyyyyyyyyyy",
"yyyy5#.      @..@@&-*o11X,,<< & <XX*tpt:p-;;;;;;==&yyyyyyyyyyyyy",
"yyyy#O         ..@@*&&oX ,,<<o<  Xo-put=-;==*&&&&&&yyyyyyyyyyyyy",
"yyyy#.          ..@.&&oX ,,<,X   1*t:*t=;&*oo... XXXyyyyyyyyyyyy",
"yyyy#O        .   .@ XXX ,X<,X1  oXt;ot*&=o.... .  Xyyyyyyyyyyyy",
"yyyyy#        .    . XXX ,X,,    X*t=Xt*&o.. ..#555##+yyyyyyyyyy",
"yyyyy#        .    . XX  , ,,    XX1*Xt&o.....#55######yyyyyyyyy",
"yyyyyy#        .   .     , ,, y  XX1oXt&X.. .+5#+....   yyyyyyyy",
"yyyyyyy            .   X , ,,yyyXXX1XX=&X.  .+#+         yyyyyyy",
"yyyyyyyy            XXXyy,y,,yyyyXX1XX&&X. . #.          yyyyyyy",
"yyyyyyyyy ......   XXyyyy,y,,yyyyyy<XooXX  ..+           yyyyyyy",
"yyyyyyyyy ......  yyyyyyy,y,,yyyyyy<yyoXX   ..           yyyyyyy",
"yyyyyyyyyy        yyyyyyyyy,,yyyyyyyyyyXX   ..          yyyyyyyy",
"yyyyyyyyyyy      yyyyyyyy,y,yyyyyyy1yyyyXX  .+         yyyyyyyyy",
"yyyyyyyyyyyyyyyyyyyyyyyyyyy,yyyyyyyyyyyyyyy .+.       yyyyyyyyyy",
"yyyyyyyyyyyyyyyyyyyyyyyyyyy,yyyyyyyyyyyyyyy +.......yyyyyyyyyyyy",
"yyyyyyyyyyyy888877775555555,555555555555555        yyyyyyyyyyyyy",
"yyyyyyyyyy8887765555%%%$$$$$$$$$$$$$$$$$$$@@      @5668888yyyyyy",
"yyyyyyyy8887776555%%@@,,,,,,,,,,,,,@@@@@@@OOOOOOOOO@56677888yyyy",
"yyyyyyyyyy888777766555555,,,,,,677777776665555566677777788yyyyyy",
"yyyyyyyyyyyyyyyyyyyyyyyyyyyyyyyyyyyyyyyyyyyyyyyyyyyyyyyyyyyyyyyy"
};
