/* XPM */
static char *_408_af2f21911264c1db70da2f1bfb94f5c9b1036997adcb455150afcc4c860c0419[] = {
/* columns rows colors chars-per-pixel */
"64 64 64 1 ",
"  c black",
". c gray11",
"X c #002800",
"o c #003800",
"O c #202020",
"+ c #282828",
"@ c #2C2C2C",
"# c gray19",
"$ c #343434",
"% c gray22",
"& c #580000",
"* c #640000",
"= c #700000",
"- c #044000",
"; c #044C00",
": c #045800",
"> c #046400",
", c #047000",
"< c #047C00",
"1 c #5C4020",
"2 c #744C28",
"3 c #004040",
"4 c #005858",
"5 c #007070",
"6 c gray25",
"7 c #484848",
"8 c #4C4C4C",
"9 c gray33",
"0 c gray36",
"q c #646464",
"w c gray44",
"e c #7C7C7C",
"r c #880000",
"t c #980000",
"y c #A40000",
"u c #BC0000",
"i c #C80000",
"p c #D40000",
"a c #EC0000",
"s c #FC0000",
"d c #FC2020",
"f c #80502C",
"g c #905C34",
"h c #BC7848",
"j c #FC4040",
"k c #FC5C5C",
"l c #FC7C7C",
"z c #049800",
"x c #E4D800",
"c c #FCF420",
"v c #FFC0CB",
"b c #008484",
"n c gray55",
"m c #989898",
"M c gray66",
"N c #B4B4B4",
"B c #FC9C9C",
"V c #FCB8B8",
"C c #C0C0C0",
"Z c #D0D0D0",
"A c gainsboro",
"S c #FCFCD8",
"D c #ECECEC",
"F c gray99",
/* pixels */
"vvvvvvvvvvvvvvvvvvvvvvvvvvvvvvvvvvvvvvvvvvvvvvvvvvvvvvvvvvvvvvvv",
"vvvvvvvvvvvvvvvvvvvvvvvvvvvvvvvvvvvvvvvvvvvvvvvvvvvvvvvvvvvvvvvv",
"vvvvvvvvvvvvvvvvvvvvvvvvvvvvvvvvvvvvvvvvvvvvvvvvvvvvvvvvvvvvvvvv",
"vvvvvvvvvvvvvvvvvvvvvvvvvvvO@%%%%%%%%@@vvvvvvvvvvvvvvvvvvvvvvvvv",
"vvvvvvvvvvvvvvvvvvvvvvvvvv@%OOOOOOOOOO@Ovvvvvvvvvvvvvvvvvvvvvvvv",
"vvvvvvvvvvvvvvvvvvvvvvvvvv@OOOOOOOOOOOOOvvvvvvvvvvvvvvvvvvvvvvvv",
"vvvvvvvvvvvvvvvvvvvvvvvvvv@Ow7OOOOOO7wOOvvvvvvvvvvvvvvvvvvvvvvvv",
"vvvvvvvvvvvvvvvvvvvvvvvvvv@wFFFFFFFFFFwOvvvvvvvvvvvvvvvvvvvvvvvv",
"vvvvvvvvvvvvvvvvvvvvvvvvvv@MDACCFFCCADMOvvvvvvvvvvvvvvvvvvvvvvvv",
"vvvvvvvvvvvvvvvvvvvvvvvvvv@wCFAACCAAFCwOvvvvvvvvvvvvvvvvvvvvvvvv",
"vvvvvvvvvvvvvvvvvvvvvvvvvwOwMeMDmCFMeMwOwvvvvvvvvvvvvvvvvvvvvvvv",
"vvvvvvvvvvvvvvvvvvvvvvvvvNOwV&r9e9%&&VwOnvvvvvvvvvvvvvvvveevvvvv",
"vvvvvvvvvvvvvvvvvvvvvvvvvemCCMCCAMCCMCnwwvvvvvvvvvvvvvvvvmqvvvvv",
"vvvvvvvvvvvvvvvvvvvvvvvvvNmZFFFFFZDFFFMwnvvvvvvvvvvvvvvvmeqvvvvv",
"vvvvvvvnvvvvvvvvvvvvvvvvvvmZFFFMmenFDFNwvvvvvvvvvvvvvvvvMwqvvvvv",
"vvvvvvMnvvvvvvvvvvvvvvvvvvvnZFMANAAnZZ9vvvvvvvvvvvvvvvvvDwqvvvvv",
"vvvvvvMwvvvvvvvvvvvvvvBvvv-mNFeCFACeZMqXvvvvvvvvvvvvvvvvDwqvvvvv",
"vvvvvAnwvvvvvvvvvvvvvNB>:>-NNFe&&&&eZmqXXXXXvvvNmvvvvvvvDwqvvvvv",
"vvvvvAnwvvvvvvvvvv:>mNB>>:-eZFMDFACnZm7XXXXooo;NNvvvvvvvDwqvvvvv",
"vvvvvAnlvvvvvvv::>wmNNB>>::oZZMCCMMnNwXXXoo--;:BN::vvvvvDwqvvvvv",
"vvvvvCnlvvv<<<wMMCmmNNB>:::;eZFFFFZZmXXo-r-;;-;BFo:::::vDwqvvvvv",
"vvvvvCBlvv<zzwMMhMmmNZZ>:;;;;qemmmme7Xorp-;:::;BD-o-:;::Dwq;vvvv",
"vvvvvCBkv>zzwCAehwmmZD>>--r-;eeeeqq77-par;:::::BD;-;;::;Dmqwovvv",
"vvvvvCBk>,z:CCMeffmNDw;;;-;ppb5OOOObrpkp;::;;::BD:;-;XqmNw9w9ovv",
"vvvvvCBk,<z:MMMeooCCwo--;--pkjp4pOrpkBjr;:;;:::BD:;-;:eNNg1wq7vv",
"vvvv<NBk<<z;MMnqqqXXoX;---epjBkpsppkxkp*;:-;;:;mZwoo-:nNNNeeq7vv",
"vvv<<Nw9<<,:-neqq9X XX-;;qe7pkxBkkBckurOX;-:-qmw9w9oo:nNmmmeq7vv",
"vv<mChh2M,,:;---oooXXXX;;e9bpuBcxxcBjr5OXo-;-eNg1wq7o:7mnnne9%vv",
"vvmACh22me->:;--oooXoXX-;ebyiskxSSxksyi4OoXo;nNNeeq7ooXmeeew9%vv",
"vvmCAAmmeeXo:;--ooXooXX-rpddjjkxSSxkjjdur*XoXnNmmeq7XoX7eee7%Xvv",
"vvmCCCAmeqXXoooooooooXoXoqOyijBcxxcBsiyOOXXoXeNmme9%XX:X%%%%-vvv",
"vvMCCCCeqqXXXoo-ooooXXooo7OOpjxBkkBxjpOOXXXXXqNmmw9%XXv:-XXXXvvv",
"vvqMCMMeq7XXXoXXXXXX--X--oOOjkjprrijkj*OXXXX 7wnnq7XXXvvvvvvvvvv",
"vv>qMMmqqXXXXvvv-oooo--;;;orjj  3OtpjjrXXXXXX;7qq7XXXvvvvvvvvvvv",
"vvv>qqqq7XXXvvvv;-oooXo----prO43OOO4ttptXXXXX ;XXXXoXvvvvvvvvvvv",
"vvv>-XXXX;;vvvvv;;------;;r-oOOOOOOOOXr=ooooo  ;oXXXvvvvvvvvvvvv",
"vvvv>----vvvvvvvvXooooo-----ooXXX XXXXXX=XXXXXX vvvvvvvvvvvvvvvv",
"vvvvvvvvvvvvvvvvv:;;-------ooooXX XXXo;;;;;;ooXXvvvvvvvvvvvvvvvv",
"vvvvvvvvvvvvvvvv;XXXXXXXo;--ooXoX XXo;oooooXXXXXXvvvvvvvvvvvvvvv",
"vvvvvvvvvvvvvvvvoooooooXXXoooXX X  o;o--;;;;---oXXvvvvvvvvvvvvvv",
"vvvvvvvvvvvvvvv;;;;--ooooXXXoXX    ;o-;::::::;--oXvvvvvvvvvvvvvv",
"vvvvvvvvvvvvvv;:>>::;-;;ooXX        X-;:::>>>:;;-oXvvvvvvvvvvvvv",
"vvvvvvvvvvvvvv:>>>>:;-;X-ooXX       o;:::>>>>>:;-oovvvvvvvvvvvvv",
"vvvvvvvvvvvvv:>>>>>::---XXoXXX  XXXX-;:;:>>>>>>:;;oXvvvvvvvvvvvv",
"vvvvvvvvvvvv:>>>>>>::-ooX X X XvvvXX-;;::>>>>>>>:;-ovvvvvvvvvvvv",
"vvvvvvvvvvvv:>>>>>>:;ooooX    vvvvXX--;;:>>>>>>>;;;-Xvvvvvvvvvvv",
"vvvvvvvvvv>>>>>>>>>:;-ooXXX  vvvvvvX--->>>>>>>>>;;;-ovvvvvvvvvvv",
"vvvvvvvvvv>>:;:>>>:;--:;-X  Xvvvvvv--::>>;;;>>>:--;---vvvvvvvvvv",
"vvvvvvvvvvv:;;;:::;--o;X  XXvvvvvvvvXXX:---;;;;---Xooovvvvvvvvvv",
"vvvvvvvvvvv;;---;--oooooX XvvvvvvvvvX-:-:::-------XXXXvvvvvvvvvv",
"vvvvvvvvvvv;-XooooooXXXoX vvvvvvvvvvvXXoooo-:;;;ooXXXovvvvvvvvvv",
"vvvvvvvvvvvv;-oXXXXXXX    vvvvvvvvvvv-o-;;-;oooooXXXovvvvvvvvvvv",
"vvvvvvvvvvvv XXXXXXXXX   vvvvvvvvvvvvvo-;;oXXXXXXXXXvvvvvvvvvvvv",
"vvvvvvvvvvvvv XXXXXXX    vvvvvvvvvvvvvoXoX        XXvvvvvvvvvvvv",
"vvvvvvvvvvvvvv           vvvvvvvvvvvvvvXX +@@ .     vvvvvvvvvvvv",
"vvvvvvvvvvvvv...         vvvvvvvvvvvvvvX O+@@++O .  vvvvvvvvvvvv",
"vvvvvvvvvvvv.+@++       @vvvvvvvvvvvvvvv O+@@ .  .  vvvvvvvvvvvv",
"vvvvvvvvvvvv.+%%+.       vvvvvvvvvvvvvvv @O        vvvvvvvvvvvvv",
"vvvvvvvvvvvv..+++..     67788900qqqvvvvv O++ . .   vvvvvvvvvvvvv",
"vvvvvvvvvvvv .....      ##$$$%%%%%6679qq  @@O.O   vvvvvvvvvvvvvv",
"vvvvvvvvvvq09          @@@@@@@@@@@$$$%%%.O+%%@+O.. vvvvvvvvvvvvv",
"vvvvvvvvvvvq09988777776666%%%$$##@@@@@@..O+@@@+O..  %7vvvvvvvvvv",
"vvvvvvvvvvvvvvvqq009998877776666%%###@@..O+++++O..  @%9vvvvvvvvv",
"vvvvvvvvvvvvvvvvvvvvvvvvvvvvvvvvvqq007%@.O       ..@@%9qvvvvvvvv"
};
