/* XPM */
static char *_4242_d1ef15ed6d11e4913f1b1a2ee2886d149babe0eb8c06bf80bfc3eb2cf0eb8ee5[] = {
/* columns rows colors chars-per-pixel */
"64 64 44 1 ",
"  c black",
". c gray11",
"X c #002800",
"o c #003800",
"O c #202020",
"+ c #282828",
"@ c #2C2C2C",
"# c gray19",
"$ c #343434",
"% c gray22",
"& c #044000",
"* c #044C00",
"= c #045800",
"- c #046400",
"; c #047000",
": c #047C00",
"> c #744C28",
", c #400040",
"< c #580058",
"1 c #6C0070",
"2 c #004040",
"3 c #005858",
"4 c #007070",
"5 c gray25",
"6 c #484848",
"7 c #4C4C4C",
"8 c gray33",
"9 c gray36",
"0 c #646464",
"q c gray44",
"w c #7C7C7C",
"e c #905C34",
"r c #B47044",
"t c #840084",
"y c #FFC0CB",
"u c #9C009C",
"i c #B400B4",
"p c #C800CC",
"a c #E000E4",
"s c #008484",
"d c #00B4B4",
"f c #989898",
"g c #B4B4B4",
"h c #C0C0C0",
/* pixels */
"yyyyyyyyyyyyyyyyyyyyyyyyyyyyyyyyyyyyyyyyyyyyyyyyyyyyyyyyyyyyyyyy",
"yyyyyyyyyyyyyyyyyyyyyyyyyyyyyyyyyyyyyyyyyyyyyyyyyyyyyyyyyyyyyyyy",
"yyyyyyyyyyyyyyyyyyyyyyyyyyyyyyyyyyyyyyyyyyyyyyyyyyyyyyyyyyyyyyyy",
"yyyyyyyyyyyyyyyyyyyyyyyyyyyyyyyyyyyyyyyyyyyyyyyyyyyyyyyyyyyyyyyy",
"yyyyyyyyyyyyyyyyyyyyyyyyyyyyyyyyyyyyyyyyyyyyyyyyyyyyyyyyyyyyyyyy",
"yyyyyyyyyyyyyyyyyyyyyyyyyyyyyyyyyyyyyyyyyyyyyyyyyyyyyyyyyyyyyyyy",
"yyyyyyyyyyyyyyyyyyyyyyyyyyyyyyyyyyyyyyyyyyyyyyyyyyyyyyyyyyyyyyyy",
"yyyyyyyyyyyyyyyyyyyyyyyyyyyyyyyyyyyyyyyyyyyyyyyyyyyyyyyyyyyyyyyy",
"yyyyyyyyyyyyyyyyyyyyyyyyyyyyyyyyyyyyyyyyyyyyyyyyyyyyyyyyyyyyyyyy",
"yyyyyyyyyyyyyyyyyyyyyyyyyyyyyyyyyyyyyyyyyyyyyyyyyyyyyyyyyyyyyyyy",
"yyyyyyyyyyyyyyyyyyyyyyyyyyyyyyyyyyyyyyyyyyyyyyyyyyyyyyyyyyyyyyyy",
"yyyyyyyyyyyyyyyyyyyyyyyyyyyyyyyyyyyyyyyyyyyyyyyyyyyyyyyyyyyyyyyy",
"yyyyyyyyyyyyyyyyyyyyyyyyyyyyyyyyyyyyyyyyyyyyyyyyyyyyyyyyyyyyyyyy",
"yyyyyyyyyyyyyyyyyyyyyyyyyyyyyyyyyyyyyyyyyyyyyyyyyyyyyyyyyyyyyyyy",
"yyyyyyyyyyyyyyyyyyyyyyyyyyyyyyyyyyyyyyyyyyyyyyyyyyyyyyyyyyyyyyyy",
"yyyyyyyyyyyyyyyyyyyyyyyyyyyyyyyyyyyyyyyyyyyyyyyyyyyyyyyyyyyyyyyy",
"yyyyyyyyyyyyyyyyyyyyyyyyyyyyyyyyyyyyyyyyyyyyyyyyyyyyyyyyyyyyyyyy",
"yyyyyyyyyyyyyyyyyyyyyyyyyyyyyyyyyyyyyyyyyyyyyyyyyyyyyyyyyyyyyyyy",
"yyyyyyyyyyyyyyyyyyyyyyyyyyyyyyyyyyyyyyyyyyyyyyyyyyyyyyyyyyyyyyyy",
"yyyyyyyyyyyyyyyyyyyyyyyyyyyyyyyyyyyyyyyyyyyyyyyyyyyyyyyyyyyyyyyy",
"yyyyyyyyyyyyyyyyyyyyyyyyyyyyyyyyyyyyyyyyyyyyyyyyyyyyyyyyyyyyyyyy",
"yyyyyyyyyyyyyyyyyyyyyyyyyyyyyyyyyyyyyyyyyyyyyyyyyyyyyyyyyyyyyyyy",
"yyyyyyyyyyyyyyyyyyyyyyyyyyyyyyyyyyyyyyyyyyyyyyyyyyyyyyyyyyyyyyyy",
"yyyyyyyyyyyyyyyyyyyyyyyyyyyyyyyyyyyyyyyyyyyyyyyyyyyyyyyyyyyyyyyy",
"yyyyyyyyyyyyyyyyyyyyyyyyyyyyyyyyyyyyyyyyyyyyyyyyyyyyyyyyyyyyyyyy",
"yyyyyyyyyyyyyyyyyyyyyyyyyyyyyyyyyyyyyyyyyyyyyyyyyyyyyyyyyyyyyyyy",
"yyyyyyyyyyyyyyyyyyyyyyyyyyyyyyyyyyyyyyyyyyyyyyyyyyyyyyyyyyyyyyyy",
"yyyyyyyyyyyyyyyyyyyyyyyyyyyyyyyyyyyyyyyyyyyyyyyyyyyyyyyyyyyyyyyy",
"yyyyyyyyyyyyyyyyyyyyyyyyyyyyyyyyyyyyyyyyyyyyyyyyyyyyyyyyyyyyyyyy",
"yyyyyyyyyyyyyyyyyyyyyyyyyyyyyyyyyyyyyyyyyyyyyyyyyyyyyyyyyyyyyyyy",
"yyyyyyyyyyyyyyyyyyyyyyyyyyyyyyyyyyyyyyyyyyyyyyyyyyyyyyyyyyyyyyyy",
"yyyyyyyyyyyyyyyyyyyyyyyyyyyyyyyyyyyyyyyyyyyyyyyyyyyyyyyyyyyyyyyy",
"yyyyyyyyyyyyyyyyyyyyyyyyyyyyyyyyyyyyyyyyyyyyyyyyyyyyyyyyyyyyyyyy",
"yyyyyyyyyyyyyyyyyyyyyyyyyyyyyyyyyyyyyyyyyyyyyyyyyyyyyyyyyyyyyyyy",
"yyyyyyyyyyyyyyyyyyyyyyyyyyyyyyyyyyyyyyyyyyyyyyyyyyyyyyyyyyyyyyyy",
"yyyyyyyyyyyyyyyyyyyyyyyyyyyyyyyyyyyyyyyyyyyyyyyyyyyyyyyyyyyyyyyy",
"yyyyyyyyyyyyyyyyyyyyyyyyyyyyyyyyyyyyyyyyyyyyyyyyyyyyyyyyyyyyyyyy",
"yyyyyyyyyyyyyyyyyyyyyyyyyyyyyyyyyyyyyyyyyyyyyyyyyyyyyyyyyyyyyyyy",
"yyyyyyyyyyyyyyyyyyyyyyyyyyyyyyyyyyyyyyyyyyyyyyyyyyyyyyyyyyyyyyyy",
"yyyyyyyyyyyyyyyyyyyyyyyyyyyyyyyyyyyyyyyyyyyyyyyyyyyyyyyyyyyyyyyy",
"yyyyyyyyyyyyyyyyyyyyyfhhfyyyyyyyyyyyyyyyyyyyyyyyyyyyyyyyyyyyyyyy",
"yyyyyyyyyyyyyyyyy--ofhqqq8yyddddsyyddddsyyyyyyyyyyyyyyyyyyyyyyyy",
"yyyyyyyyyyyyyyy;;;;Xfqee88yy343322334422yywfffw=;yyyyyyyyyyyyyyy",
"yyyyyyyyyyyyy:::p-=of8re86o2343322%3432@Oyfg0886=;pyyyyyyyyyyyyy",
"yyyyyyyyyyy;:::-:-&-tw8<uuuut4332OO2432OO@fw8>>6X&==;yyyyyyyyyyy",
"yyyyyyyyy;--t-:-****-------tu1<@@@@,@@Opp;fw8e>6XX=&;=yyyyyyyyyy",
"yyyyyyyy;----=*p**ppppppt1*-*o1, OOOOpX:*:*8866XooXX==oXyyyyyyyy",
"yyyyyyy7775==**-:tt:::uuutt<Xto,, <@O==<tuuoXoXXoooXXXXXyyyyyyyy",
"yyyyyy75$$$##*;ta-*&:a-uuutt<XXo,  Xouauauaatt-=XX#5555#yyyyyyyy",
"yyyyy7#.   .@#=--=t*a::=uu111X<X,<  uauuua;;*ooooX55#    yyyyyyy",
"yyyy5#.      @&&*;=t**::u,<<<oX ,  iuuuuu;=ootXX 55       yyyyyy",
"yyyy#O        .@@&-*ot=X,,,<,<X ,  uiiui=;oa. ..#5         yyyyy",
"yyyy#.        ..@@*&o*oX,,,<,<,X, tit1ii=;X.++.#5.         yyyyy",
"yyyy#         ...@.&&oX ,o,<,<<,,Xtit:1i*&.+#++#5          yyyyy",
"yyyy#         .  .@ &o< ,o,,,<, ,Xti1*ti*X.#+.+#+          yyyyy",
"yyyyy         .   . XXX ,X,,,<, ,Xtu1Xui&X +. #5.          yyyyy",
"yyyyy         .   . XXX ,X,,,,, ,Xtt1Xi1&   ..++          yyyyyy",
"yyyyyy        .   . XX  ,X,X,,, ,Xt1,Xi*X    ...          yyyyyy",
"yyyyyy            .     , ,X,,, ,Xt<, 1*X   ##           yyyyyyy",
"yyyyyyy                 , ,X,,, , 1<, o&X   # ..       yyyyyyyyy",
"yyyyyyyy ......         , ,X,,, , 1<,X oXX     ..    68yyyyyyyyy",
"yyyyyyyy                ,,,,,,,,,,<<,   XXX     ..  @%689yyyyyyy",
"yyyyyyyyy        ,,,,,,,,,,,,,,,,,,,,,,,         . @$%5689yyyyyy",
"yyyyyyyyyy      ,,,,,,<<11880yyyyyyyyy,,,,yyy     @@@$%56890yyyy"
};
