/* XPM */
static char *_1569_d2607912d2d93cc27f6665ef33b021d0a637f08e89743fd5d6cc933ddc380218[] = {
/* columns rows colors chars-per-pixel */
"64 64 52 1 ",
"  c black",
". c gray11",
"X c #002800",
"o c #003800",
"O c #202020",
"+ c #282828",
"@ c #2C2C2C",
"# c gray22",
"$ c #580000",
"% c #700000",
"& c #483818",
"* c #044000",
"= c #044C00",
"- c #045800",
"; c #046400",
": c #047000",
"> c #047C00",
", c #5C4020",
"< c #400040",
"1 c #580058",
"2 c #6C0070",
"3 c #004040",
"4 c #005858",
"5 c #007070",
"6 c gray25",
"7 c #484848",
"8 c #4C4C4C",
"9 c gray33",
"0 c gray36",
"q c #646464",
"w c gray44",
"e c #7C7C7C",
"r c #880000",
"t c #885830",
"y c #905C34",
"u c #9C6038",
"i c #840084",
"p c #FFC0CB",
"a c #9C009C",
"s c #B400B4",
"d c #E000E4",
"f c #008484",
"g c #009C9C",
"h c gray55",
"j c #989898",
"k c gray66",
"l c #B4B4B4",
"z c #FCB8B8",
"x c #C0C0C0",
"c c gainsboro",
"v c #ECECEC",
"b c gray99",
/* pixels */
"pppppppppppppppppppppppppppppppppppppppppppppppppppppppppppppppp",
"pppppppppppppppppppppppppppppppppppppppppppppppppppppppppppppppp",
"pppppppppppppppppppppppppppppppppppppppppppppppppppppppppppppppp",
"pppppppppppppppppppppppppppppppppppppppppppppppppppppppppppppppp",
"ppppppppppppppppppppppppppppp@hkkkkkhhOppppppppppppppjqppppppppp",
"pppppppppppppppppppppppppppp#hebbjxbbew@pppppppppppppcjeqppppppp",
"ppppppppppppppppppppppppppp7Ozwr9e9#%9bOpppppppppppppcjeeppppppp",
"ppppppppppppppppppppppppppp@7xkxbbxxxkv7Oppppppppppppclee#pppppp",
"ppppppppppppppppppppppppppp@wxbbbjjvbbxwOppppppppppppecje9pppppp",
"ppppppppppppppcppppppppppppOkbbckeehcvbkOpppppppppppppcjeqpppppp",
"ppppppppppppppcppppppdppspl7xdbxbcbcxczx7hppppppppppppcjeepppppp",
"pppppppppppppcjpppppppppppsjhxbkw$$wkcxwwhppppppppppppppkepppppp",
"pppppppppppppceppppppppsppldhxbk$$$$kcbwwhappi1ppvppppkkeq#ppppp",
"pppppppppppppcqppppdpiipippjxxgf####gfjlwpppi1pppvwppkkwq9##pppp",
"ppppppppppppceqppppppiidpppjeg  f##g  f@ppppa1appvwp;kkwq97#pppp",
"ppppppppppppcjjpppppiipii>-eqf335##f334#@Xpai21*pvw::wkwq97#pppp",
"pppppppppppjxjjjppp-;>i>i;e9ggf53443f4gf#@Xoo1;a-vw:;Xke##7#pppp",
"pppppppppxpxjjjjp--=>s--;;eg  f343343g  f@oi*1=--lw;-Xhqu,##pppp",
"pppppppppxpxjjjj->>=sdiisief335#4334#f334@o21;o-*lw==XX9t&##pppp",
"pppppppppxwxwwwjo-s>s2s:s:sii53gf44#g5f43O*2*;isojw=**XXXXXppppp",
"pppppppppxwwu,9qXoos22si:>i#i3g  f#g  43@1<11*X*ool*=*ooooXppppp",
"pppppppppxwwt&#9XXis2di1is5@##f334#5334#OO<s1<XXaolceXXXXXpppppp",
"pppppppppcww##9XXXXXi<1<1=ii@#3443#3443OO@<<<*aseccje#XXpppppppp",
"pppppppjxjjw99XXXXX<11dsii55@@@33###33OOOio<a-ssclee97Xppppppppp",
"ppppppjxxxjj--oXo*s>>ii-i;515@@@O@OOOOi1@1oioa:-jle977Xppppppppp",
"ppppppjxxxjwo=-oX*=>o1<d-==5543#O@OOOO1<@XX<o-:-jle977Xppppppppp",
"ppppp:jxxxjwXo=-Xo*o=<=;-s13i2133#3###@@Xio*<-=-qlq977Xppppppppp",
"ppppp:jxxxjwXo*oXXoo1;>>:;*o21333s3##@@XXXo*Xoi-*eq977oppppppppp",
"ppppp:jhhww7XXoXXX=;:=***1:1oo1s1X XXXioooi22X1=-X9##Xpppppppppp",
"ppppp:ewyy97XXXXXo;=*XXXXXo21*-21X Xoooos***11oX*-XXX*pppppppppp",
"pppppp-eee7XX*XXX;*ooooooXXX--12X11ioos=1i2s21*iX****ppppppppppp",
"ppppppp-XXXX*Xoo;-=-----==io1is1ii  X=*oo11*1i111Xpppppppppppppp",
"pppppppp--=*ooo;::::::;;-=s1<1s 1    XXaXXX1<X1=Xipppipppppppppp",
"pppppppppppppp::::::::;-=*=1*i1i     XXoos1si<1aXXpppppppppppppp",
"ppppppppppppp;;;::::;;-;:*=*i*<XX  iXo***i1i111XXXi1pppppppppppp",
"ppppppppppppp--=;;;;--==--*oo*iXX  Xo**===11<*1oXXpppppppppppppp",
"ppppppppppppp=*o=======*= Xooo<oX  Xi*==a==i<i*ooXpppppppppppppp",
"ppppppppppppp*******oo=*oX=XXo<oX  Xo=*=======*ioXpp1ppppppppppp",
"ppppppppppppp**======o=*oX XXX<XX  XXo*=-i--==i*oXXppppppppppppp",
"pppppppppppppp=********oXo XXX<X   XXo*=-----==*ooXppppppppppppp",
"ppppppppppppp=;;-===***ooX  XXXX X XXo*=-----==**oXppppppppppppp",
"ppppppppppppp=-=**oooXXXXX   X   p Xo*==-;;1--=**ooopppppppppppp",
"ppppppppppppp==--==***oXX      XpppXo=;--;;;--=****opppppppppppp",
"ppppppppppppp  oooooXXX   XXXXpppppp= ==--;--=***==opppppppppppp",
"ppppppppppppp O           pppppppppp =X**====**oX***pppppppppppp",
"ppppppppppppp  O O OO..   pppppppppp XXoo*****oooXoppppppppppppp",
"pppppppppppppp  OOOOO.   ppppppppppppXXXooooooooXXXppppppppppppp",
"pppppppppppppp O O O.    ppppppppppppXoXXXXXXXXXoXXppppppppppppp",
"pppppppppppppp            ppppppppppp XoooooooooXX ppppppppppppp",
"ppppppppppppp O+++O.      ppppppppppp  XXXXXXXXXX pppppppppppppp",
"pppppppppppp O+++++O.     ppppppppppp             pppppppppppppp",
"pppppppppppp O+++++O.     ppppppppppp            ppppppppppppppp",
"pppppppppppp .OOOOOO.    ppppppppppppp O        pppppppppppppppp",
"pppppppppppp  ......    pppppppppppppp          pppppppppppppppp",
"ppppppppppppp          pppppppppppppp#  ......   ppppppppppppppp",
"ppppppppppppppppppppppppppppppppppppp  ..OOO...   pppppppppppppp",
"ppppppppppppppppppppppppppppppppppppp  .O++OO..   pppppppppppppp",
"ppppppppppppppppppppppppppppppppppppp  ..OOO..    pppppppppppppp",
"ppppppppppppppppppppppppppppppppppppp6  .....     pppppppppppppp",
"pppppppppppppppp00998888888888888888888          ppppppppppppppp",
"pppppppppppppp000988766666##############@       @#690ppppppppppp",
"ppppppppppppppp00999877666666###################6778900ppppppppp",
"pppppppppppppppppp00099999777777777777779999990000pppppppppppppp",
"pppppppppppppppppppppppppppppppppppppppppppppppppppppppppppppppp"
};
