/* XPM */
static char *_3532_005f47ee5cb2ac2e29fc362a7a5870530281406186b7cc7924192992a36b4d9d[] = {
/* columns rows colors chars-per-pixel */
"64 64 42 1 ",
"  c black",
". c gray11",
"X c #002800",
"o c #003800",
"O c #202020",
"+ c #282828",
"@ c #2C2C2C",
"# c gray22",
"$ c #580000",
"% c #044000",
"& c #044C00",
"* c #045800",
"= c #046400",
"- c #047000",
"; c #047C00",
": c #5C4020",
"> c #004040",
", c #005858",
"< c #007070",
"1 c gray25",
"2 c #484848",
"3 c gray33",
"4 c gray36",
"5 c #646464",
"6 c gray44",
"7 c #7C7C7C",
"8 c #880000",
"9 c #80502C",
"0 c #905C34",
"q c #B47044",
"w c #FFC0CB",
"e c #008484",
"r c gray55",
"t c #989898",
"y c gray66",
"u c #B4B4B4",
"i c #FCB8B8",
"p c #C0C0C0",
"a c #D0D0D0",
"s c gainsboro",
"d c #ECECEC",
"f c gray99",
/* pixels */
"wwwwwwwwwwwwwwwwwwwwwwwwwwwO@########@@wwwwwwwwwwwwwwwwwwwwwwwww",
"wwwwwwwwwwwwwwwwwwwwwwwwww@###########@Owwwwwwwwwwwwwwwwwwwwwwww",
"wwwwwwwwwwwwwwwwwwwwwwwwww@OO@@####@@OOOwwwwwwwwwwwwwwwwwwwwwwww",
"wwwwwwwwwwwwwwwwwwwwwwwwww@OOOOOOOOOOOOOwwwwwwwwwwwwwwwwwwwwwwww",
"wwwwwwwwwwwwwwwwwwwwwwwwww@662OOOOOO266Owwwwwwwwwwwwwwwwwwwwwwww",
"wwwwwwwwwwwwwwwwwwwwwwwwww@yffffffffffyOwwwwwwwwwwwwwwwwwwwwwwww",
"wwwwwwwwwwwwwwwwwwwwwwwwww@6dsppffppsd6Owwwwwwwwwwwwwwwwwwwwwwww",
"wwwwwwwwwwwwwwwwwwwwwwwww6O6pfssppssfp6O6wwwwwwwwwwwwwwwwwwwwwww",
"wwwwwwwwwwwwwwwwwwwwwwwwwuO6y7ystpfy7y6Orwwwwwwwwwwwwwwwwwwwwwww",
"wwwwwwwwwwwwwwwwwwwwwwwww7tpi$8373#$$ir66wwwwwwwwwwwwwwwwwwwwwww",
"wwwwwwwwwwwwwwwwwwwwwwwwwutfpyppsyppypy6rwwwwwwwwwwwwwwwwwwwwwww",
"wwwwwwwwwwwwwwwwwwwwwwwwwwtffffffadfffu6wwwwwwwwwwwwwwwwwwwwwwww",
"wwwwwwwwwwwwwwwwwwwwwwwwwwwrpfpyt7rydp3wwwwwwwwwwwwwwwwwwwwwwwww",
"wwwwwwwwwwwwwwwwwwwwwww***%trfysussru75XXwwwwwwwwwwwwwwwwwwwwwww",
"wwwwwwwwwwwwwwwwwww*****==%ura7tttt7u75XXXXXXXwwwwwwwwwwwwwwwwww",
"wwwwwwwwwwwwwwwww*****====%yaayffffrut2XXXXXXXXXXwwwwwwwwwwwwwww",
"wwwwwwwwwwwwwww***&*==*****oaayppyyru6XXXXXXXXXXXXXwwwwwwwwwwwww",
"wwwwwwwwwwwwww**==*&*******&raffffaatXXXXXXXXXoXXXXXXwwwwwwwwwww",
"wwwwwwwwwwwww*=--==%&***&&&&&7tttttt2XXXXXXXo&XXXXXXXXwwwwwwwwww",
"wwwwwwwwwwww*=---=*&&&&&&&&&&77775522%%ooooo&XXXXXXXooXwwwwwwwww",
"wwwwwwwwwww*--****%&&&t&&&&&7e<OOOOe<O%%ooo%&Xo XXXoXXXoXwwwwwww",
"wwwwwwwwww*---==*&%&&tts&&&7e  ,OOe  ,O%oXoo%oX XX3XXooooXwwwwww",
"wwwwwwwww*==---=&%X%tts&&&75<  >OO<  >OXooXXo%   363ooXXXXwwwwww",
"wwwwwwww===**&%*%%Xtts&&&572O,>OOOO,>OOOXooX     y66oXXooXXwwwww",
"wwwwwwww=---=*%%%Xttso%&&73e<OOO,,OOOe<OXXXoXXoXoyr63&ooXXXwwwww",
"wwwwwww&*-;;==&%%utsXo%%%7e  ,O,>>,Oe  ,OXXXXoooXXy65o&&&oXXwwww",
"wwwwwww&=;;;-=**utsXXoooo5<  >O,>>,O<  >OXXXXooXooy653&&&&oXwwww",
"wwwwwww&---=ttts3s%XXo%%o5O,>OOO,,OOO,>OOXXXXXXooo6y65&ooooXwwww",
"wwwwww=&==&tttq0%%%XX%%%o2OOOOe<OOOe<OOOXXXXXXXo&&oy655332oXwwww",
"wwwww==&==tttp99%%XoooooooOOOe  ,Oe  ,OOXXXXXXo&%%%6yXt:3##XXwww",
"wwwww==&=tttp663%wwooo%%%ooOO<  >O<  >OXXXXoXXo%%&&&y7::5###Xwww",
"wwww=*==*ttp6663wwwwo%%%ooooOO,>OOO,>OXXXXXXoXXX&%XXXr773###Xwww",
"wwww*===&tp6663wwwwtttoooXXXXOOOOOOOOXtXXoXoooXX%Xooorr532###www",
"wwww*===**6663w777tsss%%%%%%ooXXX XXXt6tXoooooXXX%%%%%r5532##www",
"wwww*=rppp*337777ts&%&&&&&&&&%oXX XXt6666%%oooXXo***%%%r552#wwww",
"wwwwrppppr697sswwww%&oooooooo&ooX Xf666666%oooXX&**&*%%oXwwwwwww",
"wwwwppr66569wwwwww%&o%%%%%%%%oooX Xost66666oooXo****&%ooXwwwwwww",
"wwwwr6656653wwwwww%o%&&&&&&&&%oX  Xoos766666o%Xo**&&ooXXwwwwwwww",
"wwwwr56653wwwwwwww%%&&****&&&%oXX XX%%s766666Xtt3#&ooXXwwwwwwwww",
"wwwww653wwwwwwwwww%********&&%oXX Xo%&&p666636:532#XXXXwwwwwwwww",
"wwwwwwwwwwwwwwwwww&*===****&*&%XX Xo&%&&u66%t:53222oXXwwwwwwwwww",
"wwwwwwwwwwwwwwwwww*=--==**&*&oXXX Xo%&&&&y&&tt322222Xwwwwwwwwwww",
"wwwwwwwwwwwwwwwww&*----=**&&%%oO  Xo%&&***&&&7532222wwwwwwwwwwww",
"wwwwwwwwwwwwwwwww&=----=*&&%ooo X Xo%&&****&&%73322wwwwwwwwwwwww",
"wwwwwwwwwwwwwwww==----===&&**&o X Xo%%&****&%%%6322wwwwwwwwwwwww",
"wwwwwwwwwwwwwwww**&*===*&&%&&%  X o%&&****&%%%%ooowwwwwwwwwwwwww",
"wwwwwwwwwwwwwwww*&o%&**&&&%XXoX X o%o%%&&&&%%%X%&%wwwwwwwwwwwwww",
"wwwwwwwwwwwwwwwwoooooooooooXXXX . oXXoo%%%%%%%oXoowwwwwwwwwwwwww",
"wwwwwwwwwwwwwwwww&ooooXXXXXXXX  . XXXoo&&**&&oooXowwwwwwwwwwwwww",
"wwwwwwwwwwwwwwwwww&XooooooXXX   . @XXXXoooXXXXXXXwwwwwwwwwwwwwww",
"wwwwwwwwwwwwwwwwwww& XXXXXX    .  wXoo&&***&&ooXXwwwwwwwwwwwwwww",
"wwwwwwwwwwwwwwwwwwwww             wooXXXXXXXXXXXwwwwwwwwwwwwwwww",
"wwwwwwwwwwwwwwwwwwwwwww           wX           wwwwwwwwwwwwwwwww",
"wwwwwwwwwwwwwwwwwwwwwww.... .    ww O+@+.O...  wwwwwwwwwwwwwwwww",
"wwwwwwwwwwwwwwwwwwwwww           ww O+@ . ..   wwwwwwwwwwwwwwwww",
"wwwwwwwwwwwwwwwwwwwwww +++.      ww            wwwwwwwwwwwwwwwww",
"wwwwwwwwwwwwwwwwwwwwww ++....    www OO . ..  wwwwwwwwwwwwwwwwww",
"wwwwwwwwwwwwwwwwwwwwww ......    www          wwwwwwwwwwwwwwwwww",
"wwwwwwwwwwwwwwwwwwww555         #22#.O+@@+OO.. wwwwwwwwwwwwwwwww",
"wwwwwwwwwwwwwwwwww543222      @@@@@ .O@@@+OO..  2355wwwwwwwwwwww",
"wwwwwwwwwwwwwwwwwww55432211###@@@@@..OO++OOO..  #2335wwwwwwwwwww",
"wwwwwwwwwwwwwwwwwwwww554332211#####..O       .. #23355wwwwwwwwww",
"wwwwwwwwwwwwwwwwwwwwwww5543332222211           #23355wwwwwwwwwww",
"wwwwwwwwwwwwwwwwwwwwwwwwwwwwwwwwwwwwwwwwwwwwwwwwwwwwwwwwwwwwwwww"
};
