/* XPM */
static char *_721_398153a51dfa448fc69951edadd2933c291ca2b525ea305cb6a24813564c56a7[] = {
/* columns rows colors chars-per-pixel */
"64 64 48 1 ",
"  c black",
". c gray11",
"X c #002800",
"o c #003800",
"O c #202020",
"+ c #282828",
"@ c #2C2C2C",
"# c gray19",
"$ c #343434",
"% c gray22",
"& c #580000",
"* c #044000",
"= c #044C00",
"- c #045800",
"; c #046400",
": c #047000",
"> c #047C00",
", c #6C4824",
"< c #004040",
"1 c #005858",
"2 c #007070",
"3 c gray25",
"4 c #484848",
"5 c #4C4C4C",
"6 c gray33",
"7 c gray36",
"8 c #646464",
"9 c gray44",
"0 c #7C7C7C",
"q c #880000",
"w c #80502C",
"e c #905C34",
"r c #A86840",
"t c #B47044",
"y c #BC7848",
"u c #FC7C7C",
"i c #FCC0CB",
"p c #008484",
"a c gray55",
"s c #989898",
"d c gray66",
"f c #B4B4B4",
"g c #FCB8B8",
"h c #C0C0C0",
"j c #D0D0D0",
"k c gainsboro",
"l c #ECECEC",
"z c gray99",
/* pixels */
"iiiiiiiiizdiiiiiiiiiiiiiiiiiiiiiiiiiiiiiiiiiiiiiiiiiiiiiiiiiiiii",
"iiiiiiiiizdiiiiiiiiiiiiiiiiiiiiiiiiiiiiiissstiiiiiiiiiiiiiiiiiii",
"iiiiiiiizzuiiiiiiiiiiiiiiiiO@%%%%%%%%@@is00te,iiiiiiiiiiiiiiiiii",
"iiiiiiiizhuiiiiiiiiiiiiiii@%OOOOOOOOOO@O008ee,iiiiiiiiiiiiiiiiii",
"iiiiiiizhuuiiiiiiiiiiiiiii@O94OOOOOO49OO084,,8iiiiiiiiiiiiiiiiii",
"iiiiiiiikuuiiiiiiiiiiiiiii@OzzzzzzzzzzOO8486==*iiiiiiiiiiiiiiiii",
"iiiiihhddd0iiiiiiiiiiiiiii@9lkhhzzhhkl9O886====*iiiiiiiiiiiiiiii",
"iiiishhkf0iiiiiiiiiiiiiiii@dhzkkhhkkzhdOi86==--=*iiiiiiiiiiiiiii",
"iiishhkssaiiiiiiiiiiiiiiii@9d0dlshzd0d9Oii*=-;;--*iiiiiiiiiiiiii",
"iiihhhkssaiiiiiiiiiiiiiii9O9g&q606%&&g9O9i*=;--=***iiiiiiiiiiiii",
"iishhkss08iiiiiiiiiiiiiiifO9hdhhkdhhdh9Oai*-=---==**iiiiiiiiiiii",
"iidsssss89iiiiiiiiiiiiiii0shzzzzzjlzzza99ii-=-----=*iiiiiiiiiiii",
"iis9ees8a4iiiiiiiiiiiiiiifsjzzzds0azlzd9aii**--;:;-=*iiiiiiiiiii",
"iiiste8a9X;iiiiiiiiiiiiiiisjjzdkfkkajjf9iiii*=-;-==-**iiiiiiiiii",
"iiii99994X-iiiiiiiii------iafz0hzkh0jd6iiiii*;--=====*iiiiiiiiii",
"iii;XXXXX=-;ii----;;;;;-;-*sfz06&&60js8Xiiii;;====****oiiiiiiiii",
"iii;=XXX**=-i-;;;;;;-;;;-;*ffz0&&&&0js8XXXXi;;===;****Xiiiiiiiii",
"iii-;;-****=;;=-;;-;;=-;;-*0jzdlkkhajs4XXXXXX--===***oXiiiiiiiii",
"iii>==*****==;-*=-==;-=-;--ojjdhdddaf9XXXoo**=--==***oXiiiiiiiii",
"iii:-==******-;-==-==;-*---=0jzzzzjjsXXo==X--*===*o*oXiiiiiiiiii",
"iii>:-=****o*=-==****--=*====80ssss04Xo==X*-*-===ooooXiiiiiiiiii",
"iiii>>;-****o==*=oo*o*=-**o*=00008844**-*X;-*-=o=oXoXiiiiiiiiiii",
"iiii;-==****o**o*=Xo***==*=o0p2OOOOp2O*-X=*-Xo=XooXXXiiiiiiiiiii",
"iiii;;-==****ooXoo*XX=**=**0p  1OOp  1O*X=X-XXoooXXXiiiiiiiiiiii",
"iiiii;===***ooooXXXX**=***082  <OO2  <OXX=X*XoXoXXXXiiiiiiiiiiii",
"iiiiii;***oooooXXXooX*==*804O1<OOOO1<OOOXoXoXXooXXXXXiiiiiiiiiii",
"iiiiiii-=oooii*ooooo*====06p2OOO11OOOp2OXoXoXXoXXXXXXiiiiiiiiiii",
"iiiiiiiiiiiii***====oo===0p  1O1<<1Op  1OXXoXoXX XXXXXiiiiiiiiii",
"iiiiiiiiiiii-=*==***oooo*82  <O1<<1O2  <OXXoXXX XXXXXXXiiiiiiiii",
"iiiiiiiiiiii-==*===****oo8O1<OOO11OOO1<OOXXoX  XooXXXXXiiiiiiiii",
"iiiiiiiiiii--;=-=*XXXXo*o4OOOOp2OOOp2OOOXXXXX  XooooXXXiiiiiiiii",
"iiiiiiiiiii-;;-*oXXXooo**oOOOp  1Op  1OOXXXX   XoXXXXXXXiiiiiiii",
"iiiiiiiiii-;;-*ooooXXo*===*OO2  <O2  <OXXXXXX  XX XoooXXiiiiiiii",
"iiiiiiiiii-;-ooXXoXXoXo*****OO1<OOO1<OXXXXXXXX X XooXXXXiiiiiiii",
"iiiiiiiii---;;=*o X Xo**===*oOOOOOOOOXXXooooXXX XooXoooXXiiiiiii",
"iiiiiiiii--==*ooXo XXXo*****ooXXX XXXXXXXXXXXXX XXXoo**XXiiiiiii",
"iiiiiiiii-;;;;=*oX XXoo****ooooXX XXXooooooooXXXXXo***oXXiiiiiii",
"iiiiiiiii-;;;-==oXXoXo**==**ooXoX XXoo======ooXXXo*==**oXiiiiiii",
"iiiiiiiii-;;-===ooXXXXXXXXXXXXX X  o==oooooXXXXXXo====oXXiiiiiii",
"iiiiiiiiii-;=;;-oo***ooXXXXXXXX    =oo**====**XoX==;ooooXiiiiiii",
"iiiiiiiiii-;;-**ooo=**==oXXX        X*=-----===oX=;*999oXiiiiiii",
"iiiiiiiiii-;-*dhhdo==*=X*oXXX       o=-------===o;=jjd08Xiiiiiii",
"iiiiiiiiiii-*dhhs00==***XXoXXX  iXXXo-=---;;--==o;jdda08Xiiiiiii",
"iiiiiiiiiii*dhhdds00=**o*XXXX  iiiXX==----;;;;-==jddaa98Xiiiiiii",
"iiiiiiiiiii*ahhdd048=**ooXXXX iiiiiXo=--=-;;;;;-=jyya088iiiiiiii",
"iiiiiiiiiiii9ahds4r,8=ooooXX  iiiiiX*==--=-;;;-==8awa986iiiiiiii",
"iiiiiiiiiiii*9dh04,h8**ooXXX iiiiiiX**;;;==---===gaw886iiiiiiiii",
"iiiiiiiiiiii;;9d088su**==*X iiiiiiii*-;;=*====**8u8=86iiiiiiiiii",
"iiiiiiiiiiii;;==88**huo=X  iiiiiiiii-X-*********ga*==iiiiiiiiiii",
"iiiiiiiiiiii==***=*shhuooX iiiiiiiiii-*---*****8u9Xooiiiiiiiiiii",
"iiiiiiiiiiii=*XooooshhhuoXXiiiiiiiiii*oooo*-===ga9oXoiiiiiiiiiii",
"iiiiiiiiiiii=*oXXXXhhhhs0X iiiiiiiiii@o****=XXXua0XXiiiiiiiiiiii",
"iiiiiiiiiiiii XXXXX0hhhh0 iiiiiiiiiiiio**oooooohd6XXiiiiiiiiiiii",
"iiiiiiiiiiiiii XXXX0hhhsoiiiiiiiiiiiiiooX      hdXXXiiiiiiiiiiii",
"iiiiiiiiiiiiii      0hs0 iiiiiiiiiiiiioX +@@ . k6  Xiiiiiiiiiiii",
"iiiiiiiiiiiii...     hs  iiiiiiiiiiiiii O+@@++Ok.  iiiiiiiiiiiii",
"iiiiiiiiiiii.+@++        iiiiiiiiiiiiii O+@@ . 6.  iiiiiiiiiiiii",
"iiiiiiiiiiii.+%%+.       iiiiiiiiiiiiii @ OO++O    iiiiiiiiiiiii",
"iiiiiiiiiiii..+++..     34455677888iiiii O++ . .  iiiiiiiiiiiiii",
"iiiiiiiiiiii .....      ##$$$%%%%%334688  @@O.O   iiiiiiiiiiiiii",
"iiiiiiiiii876          @@@@@@@@@@@$$$%%%.O+%%@+O.. iiiiiiiiiiiii",
"iiiiiiiiiii876655444443333%%%$$##@@@@@@..O+@@@+O..  %4iiiiiiiiii",
"iiiiiiiiiiiiiii88776665544443333%%###@@..O+++++O..  @%6iiiiiiiii",
"iiiiiiiiiiiiiiiiiiiiiiiiiiiiiiiii88774%@.O       ..@@%68iiiiiiii"
};
