/* XPM */
static char *result[] = {
/* columns rows colors chars-per-pixel */
"64 64 51 1 ",
"  c #806554",
". c #6D5647",
"X c #8F715E",
"o c #886B59",
"O c #775E4E",
"+ c #7E6352",
"@ c #584539",
"# c #675143",
"$ c #A87C64",
"% c #B38D76",
"& c #846857",
"* c #7F6050",
"= c #7B6151",
"- c #725A4A",
"; c #8B6E5C",
": c #90715E",
"> c #866A58",
", c #765D4D",
"< c #755D4D",
"1 c #BC9B84",
"2 c #604B3E",
"3 c #665042",
"4 c #745B4B",
"5 c #7D6352",
"6 c #AE856D",
"7 c #B8947D",
"8 c #B28B74",
"9 c #826756",
"0 c #876B59",
"q c #705949",
"w c #7E6453",
"e c #735B4B",
"r c #8D6F5D",
"t c #876857",
"y c #735A4B",
"u c #886957",
"i c #785F4F",
"p c #806654",
"a c #7C6251",
"s c #71594A",
"d c #896C5A",
"f c #836857",
"g c #856957",
"h c #836756",
"j c #5F4B3E",
"k c #725A4B",
"l c #876A58",
"z c #705849",
"x c #7D6252",
"c c #755C4C",
"v c #745B4C",
/* pixels */
"********u:::::::t******t:::::::uu:::::::t******t:::::::u********",
"*********u:::::::t****t:::::::u**u:::::::t****t:::::::u*********",
"**$$$$$$$$6%%%%%718$$817%%%%%6$$$$6%%%%%718$$817%%%%%6$$$$$$$$**",
"**$$$$$$$$$6%%%%%718817%%%%%6$$$$$$6%%%%%718817%%%%%6$$$$$$$$$**",
"**$$11118$$$6%%%%%7117%%%%%6$$$88$$$6%%%%%7117%%%%%6$$$81111$$**",
"**$$111118$$$6%%%%%77%%%%%6$$$8118$$$6%%%%%77%%%%%6$$$811111$$**",
"@@..    oX+...O          O...+XooX+...O          O...+Xo    ..@@",
"@@..     oX+...O        O...+Xo  oX+...O        O...+Xo     ..@@",
"3@..O     oX+...O      O...+Xo OO oX+...O      O...+Xo     O..@3",
"43...O     oX+...O    O...+Xo O..O oX+...O    O...+Xo     O...34",
".4+...O     oX+...O  O...+Xo O....O oX+...O  O...+Xo     O...+4.",
"#.X+...O     oX+...OO...+Xo O......O oX+...OO...+Xo     O...+X.#",
"##oX+...O     oX+......+Xo O..<>><..O oX+......+Xo     O...+Xo##",
"## oX+...O     oX+....+Xo O.e>XXXX>e.O oX+....+Xo     O...+Xo ##",
"##  oX+...O     oX+..+Xo O-pXX;&&;XXp-O oX+..+Xo     O...+Xo  ##",
"##   oX+...O     oX++Xo ==0X;&    &;X0== oX++Xo     O...+Xo   ##",
"2#    oX+...O     oXXo   0;& 5OqqO5 &;0   oXXo     O...+Xo    #2",
"@2     oX+...O     oo   &&5Oq......qO5&&   oo     O...+Xo     2@",
"@@O     oX+...O        5Oq..-i....O-..qO5        O...+Xo     O@@",
"@@.O     oX+...O    5Oq...kpr,....,rpk...qO5    O...+Xo     O.@@",
"@@.,      ow...,   5....egXX&..<,..fXXge....5   ,...wo      ,.@@",
"@@+0      O...+0   O..c>XX;&-..>>..-&;XX>c..O   0+...O      0+@@",
"@3Xo     O...+Xo   s.<XX;& =..<;;,..= &;XX,.q   oX+...O     oX3@",
"34o     O...+Xo   5..>;&   -..>&&>..-   &;>..5   oX+...O     o43",
"4.     O...+Xo =  O.<;    =..<;  ;,..=    ;,.O  = oX+...O     .4",
".#    O...+Xo O=  s.>&    -..>&  &>..-    &>.q  =O oX+...O    #.",
"##   O...+Xo O-& 5.<;   =-..<; == ;,..-=   ;,.5 &-O oX+...O   ##",
"##  O...+Xo O.p& O.>& =-....>& -- &>....-= &>., &p.O oX+...O  ##",
"## O...+Xo O.e;  q<;=-....<>; =..= ;><....-=;,q  ;v.O oX+...O ##",
"##O...+Xo O..>& 5.we....<>XX& -..- &XX><....ew.5 &>..O oX+...O##",
"#2...+Xo O..<;  O.....<>XX;&=-....-=&;XX><.....,  ;,..O oX+...2#",
"2@..+Xo O...>&  q...<>XX;&=-........-=&;XX><...q  &>...O oX+..@2",
"j@..wo  ,...f   s...,l;&  =-........-=  &;l,...s   &...,  ow..@j",
".3...O  0+..e   x.....-=  &;><....<>;&  =-.....x   e..+0  O...3.",
".4+...O oX+..=  o.+<....-=&;XX,..<XX;&=-....<w.o  =..+Xo O...+4.",
"#.X+...O oX+.-  oy,X><....-=&;>..>;&=-....<>X,yo  -.+Xo O...+X.#",
"##oX+...O oX+.= 9+.fXX><....= ;,<; =....<>XX&.+9 =.+Xo O...+Xo##",
"## oX+...O oXa-  o.-&;XX><..- &>>& -..<>XX;&-.o  -aXo O...+Xo ##",
"##  oX+...O oXi= oy.= &;XX,..= ;; =..<XX;& =.yo =iXo O...+Xo  ##",
"##   oX+...O o;= 9w.-   &;>..- && -..>;&   -.+9 =;o O...+Xo   ##",
"2#    oX+...O o&  o..=    ;,..=  =..<;    =..o  &o O...+Xo    #2",
"@2     oX+...O &  0y.-    &>..-  -..>&    -.yo  & O...+Xo     2@",
"@@O     oX+...O   9w..-=   ;,..==..<;   =-..+9   O...+Xo     O@@",
"@@.O     oX+...O   o....-= &>..--..>& =-....o   O...+Xo     O.@@",
"@@.,      ow...,   0d+-...-=;,....<;=-...-+do   ,...wo      ,.@@",
"@@+0      O...+0   9XXXdas..ew....we..sadXXX9   0+...O      0+@@",
"@3Xo     O...+Xo    9orXXX>iz......zi>XXXro9    oX+...O     oX3@",
"34o     O...+Xo        9orXX;h+yy+h;XXro9        oX+...O     o43",
"4.     O...+Xo     OO   ==9orXXXXXXro9==   OO     oX+...O     .4",
".#    O...+Xo     O..O   ,-= 9orro9 =-,   O..O     oX+...O    #.",
"##   O...+Xo     O....O &&,.-=    =-.,&& O....O     oX+...O   ##",
"##  O...+Xo     O......O o;i..-==-..i;o O......O     oX+...O  ##",
"## O...+Xo     O...++...O oXa......aXo O...++...O     oX+...O ##",
"##O...+Xo     O...+XX+...O oX+....+Xo O...+XX+...O     oX+...O##",
"#2...+Xo     O...+XooX+...O oX+..+Xo O...+XooX+...O     oX+...2#",
"2@..+Xo     O...+Xo  oX+...O oX++Xo O...+Xo  oX+...O     oX+..@2",
"@@..Xo     O...+Xo    oX+...O oXXo O...+Xo    oX+...O     oX..@@",
"@@..o     O...+Xo      oX+...O oo O...+Xo      oX+...O     o..@@",
"@@..     O...+Xo        oX+...O  O...+Xo        oX+...O     ..@@",
"@@..    O...+Xo          oX+...OO...+Xo          oX+...O    ..@@",
"@@.........+Xo     OO     oX+......+Xo     OO     oX+.........@@",
"@@........+Xo     O..O     oX+....+Xo     O..O     oX+........@@",
"@@@@@@@@@34.#####2@@@@2#####.43@@34.#####2@@@@2#####.43@@@@@@@@@",
"@@@@@@@@34.#####2@@@@@@2#####.4334.#####2@@@@@@2#####.43@@@@@@@@"
};
