/* XPM */
static char *result[] = {
/* columns rows colors chars-per-pixel */
"64 64 215 2 ",
"   c #130F09",
".  c #141009",
"X  c #14100A",
"o  c #16110A",
"O  c #17110A",
"+  c #16120A",
"@  c #17120A",
"#  c #17120B",
"$  c #18130B",
"%  c #19130B",
"&  c #1A130B",
"*  c #1A140C",
"=  c #1A140D",
"-  c #1A150D",
";  c #1B150D",
":  c #1B160D",
">  c #1C160D",
",  c #1D170E",
"<  c #1E170E",
"1  c #1F180E",
"2  c #1F190F",
"3  c #20190F",
"4  c #201A0F",
"5  c #211A0F",
"6  c #221A0F",
"7  c #201A10",
"8  c #211A10",
"9  c #221A10",
"0  c #221B10",
"q  c #231B10",
"w  c #231C11",
"e  c #241C10",
"r  c #241C11",
"t  c #261D11",
"y  c #271E11",
"u  c #261D12",
"i  c #261E12",
"p  c #271E12",
"a  c #271E13",
"s  c #271F13",
"d  c #281E12",
"f  c #281F12",
"g  c #291F12",
"h  c #281F13",
"j  c #291F13",
"k  c #292012",
"l  c #282013",
"z  c #292013",
"x  c #2A2113",
"c  c #292014",
"v  c #2A2114",
"b  c #2B2114",
"n  c #2A2015",
"m  c #2A2115",
"M  c #2B2115",
"N  c #2B2214",
"B  c #2B2215",
"V  c #2B2216",
"C  c #2C2214",
"Z  c #2C2215",
"A  c #2D2315",
"S  c #2E2315",
"D  c #2C2216",
"F  c #2C2316",
"G  c #2D2316",
"H  c #2E2415",
"J  c #2D2416",
"K  c #2D2417",
"L  c #2E2416",
"P  c #2E2516",
"I  c #2F2516",
"U  c #2E2417",
"Y  c #2E2517",
"T  c #2F2517",
"R  c #2F2616",
"E  c #2F2518",
"W  c #302516",
"Q  c #312516",
"!  c #302517",
"~  c #302616",
"^  c #312616",
"/  c #302617",
"(  c #312617",
")  c #322616",
"_  c #322617",
"`  c #322717",
"'  c #332717",
"]  c #342817",
"[  c #302618",
"{  c #312618",
"}  c #312718",
"|  c #312719",
" . c #322718",
".. c #322719",
"X. c #332818",
"o. c #322819",
"O. c #332819",
"+. c #33281A",
"@. c #33291A",
"#. c #342818",
"$. c #352918",
"%. c #342819",
"&. c #342919",
"*. c #352919",
"=. c #342A19",
"-. c #352A19",
";. c #372B19",
":. c #34291A",
">. c #35291A",
",. c #352A1A",
"<. c #352A1B",
"1. c #352B1B",
"2. c #362A1A",
"3. c #362B1A",
"4. c #362A1B",
"5. c #362B1B",
"6. c #372B1B",
"7. c #372C1B",
"8. c #362B1C",
"9. c #372B1C",
"0. c #372C1C",
"q. c #382B1B",
"w. c #382C1B",
"e. c #392D1B",
"r. c #3A2D1A",
"t. c #3A2E1B",
"y. c #3B2E1B",
"u. c #3C2E1B",
"i. c #382C1C",
"p. c #392C1C",
"a. c #382D1C",
"s. c #392D1C",
"d. c #392D1D",
"f. c #3A2D1C",
"g. c #3A2D1D",
"h. c #392E1D",
"j. c #3A2E1C",
"k. c #3B2E1C",
"l. c #3A2E1D",
"z. c #3B2E1D",
"x. c #3B2F1D",
"c. c #3B2F1E",
"v. c #3C2F1D",
"b. c #3D2F1D",
"n. c #3C2F1E",
"m. c #3D301D",
"M. c #3E301C",
"N. c #3E301D",
"B. c #3E311D",
"V. c #3D301E",
"C. c #3D311E",
"Z. c #3D301F",
"A. c #3D311F",
"S. c #3E301E",
"D. c #3E311E",
"F. c #3E301F",
"G. c #3E311F",
"H. c #3F311F",
"J. c #3F321F",
"K. c #3F3220",
"L. c #40321F",
"P. c #40331F",
"I. c #41331F",
"U. c #42331E",
"Y. c #42341F",
"T. c #43351F",
"R. c #403220",
"E. c #403320",
"W. c #413320",
"Q. c #423320",
"!. c #413420",
"~. c #413421",
"^. c #423420",
"/. c #433420",
"(. c #423421",
"). c #433421",
"_. c #423521",
"`. c #433521",
"'. c #443520",
"]. c #443521",
"[. c #463621",
"{. c #463721",
"}. c #443522",
"|. c #443622",
" X c #453622",
".X c #453722",
"XX c #463622",
"oX c #463722",
"OX c #463723",
"+X c #473723",
"@X c #473823",
"#X c #483823",
"$X c #483923",
"%X c #493923",
"&X c #493924",
"*X c #493A24",
"=X c #4A3A24",
"-X c #4B3A24",
";X c #4B3A25",
":X c #4B3B25",
">X c #4C3B25",
",X c #4D3C24",
"<X c #4D3D24",
"1X c #4C3C25",
"2X c #4D3C25",
"3X c #4D3D25",
"4X c #4E3D25",
"5X c #4F3E25",
"6X c #4F3F25",
"7X c #4D3C26",
"8X c #4D3D26",
"9X c #4E3D26",
"0X c #524026",
"qX c #534127",
"wX c #584529",
/* pixels */
"p q q e u u q 1 $ $ $ A M.M.M.;.C C C C C C z b C A #.( C l b C 5XwXwXwXqX0X0X0X0X0X0X<X4X0X0XqX3X-.C C C r.M.M.M.( C C C C C f ",
"C j f b ^ ^ i 3 # .   6 ) ) ) S q q q q q < * * 0 C ) ) f q q q t.{.{.{.T.U.U.U.U.U.m.I R B.T.{.{._ q q q H $.u.M.( C C C C z r ",
"C C C S ^ ^ y ;       < ) ) ) W q q q q 9 * % % 9 ) ) ) W r q q  .{.{.{.T.U.U.U.U.U.&.L L e.[.{.{.k.r q q H ) ) ) A C C C C f q ",
"C C C A ^ f 4 > X     * ) ) ) ) r q q q < % % % f ) ` ` ` p q q L Y.{.{.'.U.U.U.U.U.( L L t.{.{.{.k.j q q L ` ` ) g e C A S N e ",
"C C C C q q 1 > o = 8 a { %.%.%.,.i.s.s.6.6.6...[ F Z L [ ..{ { O.2.w.w.7.i.j.C.H.H.x.z.z.G.g./ ! G K { [  .X.` ) x q q ~ ^ ~ t ",
"C C C r q q 3 7 s m V O.:.:.i.V.G.G.G.G.V.:.D m m T O.:.:.:.:.:.:.:.:.:.:.:.:.:.6.c.G.G.G.G.G.l.F m m V O.:.:.:.' j q q g ^ ^ u ",
"( ( A k x j s m m F @.:.<.c.G.G.G.G.Z.:.V m m T @.:.:.:.:.:.:.:.:.:.:.:.:.:.:.:.:.:.5.n.G.G.G.G.c.F m m V O.:.:.:.n 3 1 4 y p q ",
"M.M.) ) ) Q m m G :.H.].2X9X9X9X9X X6.:.:.i.J.W.W.W.W.W.W.W.W.W.W.W.W.W.W.W.W.W.W.W.W.W.@X9X9X9X9X&X,.:.:.>.:.:.:.:.0 > > : 3 1 ",
"M.y.) ` ` B m K w.W.].7X9X9X9X>Xn.:.:.,.V.W.W.W.W.).].|.`.P.G.S.H.R.W.W.W.W.W.W.W.W.W.W.W.`.1X9X9X9X`.:.:.:.f.w.:.:.E + X   @ $ ",
"M.] ) ` I m G :.W.].7X9X9X9XXX4.:.:.i.L.W. X&X>X9X9X9X9X9X9X=X`.g.:.4.s.G.W.W.W.W.W.W.W.W.W.(.>X9X9X9Xz.:.:.:.H.:.:.:.,     . $ ",
"r.H H L Z F :.H.(.2X9X9X9XW.:.:.:.z.Q.@X2X9X9X9X9X9X9X9X9X9X9X9X9X#Xl.:.:.6.D.W.W.W.W.W.W.W.W.(.2X9X9X#X,.:.:.f.H.:.:.s       $ ",
"C q q q c +.:.^.>X9X9X7XV.:.:.>.V. X2X9X9X9X9X9X@XW.G.G.W.OX>X9X9X9X9X|.<.:.:.s.R.W.W.W.W.W.W.W. X9X9X1XV.:.:.2.W.:.:.J * < 9 A ",
"C q q q / :.:.=X9X9X7Xv.:.:.,.G.$X9X9X9X9X>XL.5.:.,.z.L.W.W.W.(.@X2X9X9X:Xa.:.:.4.J.W.W.W.W.W.W.W.=X9X9X).w.:.:.J.:.:.O.) ) ) M.",
"C q r z O.:.d.9X9X7XS.:.:.>.H.=X9X9X9X2XL.,.:.>.z.E.W.W.W.W.W.W.W.Q.&X9X9X2Xv.:.:.,.J.W.W.W.W.W.W.].9X9XoXG.:.:.n.:.:.%.) ) ) M.",
"*.( k.k.>.0.G.9X9XW.:.:.:.S.=X9X9X9XOX6.:.:.i.L.W.W.W.W.W.W.W.W.W.W.W.oX9X9X1XV.:.:.2.R.W.W.W.W.W.W.:X9X$XW.6.:.f.:.:.%.) ) ) M.",
"4X{.{.{.i.A.G.9X X>.:.:.v.$X9X9X9X/.:.:.:.z.W.W.W.W.W.W.W.W.W.W.W.W.W.W.+X9X9X=Xz.:.:.w.W.W.W.W.W.W.oX9X:XW.v.:.6.:.:.%.) ~ H ;.",
"qX{.{.{.F.G.G.&X6.:.:.s.oX9X9X9X].:.:.:.z.W.W.W.W.W.W.W.W.W.W.W.W.W.W.W.W.$X9X9X+Xf.:.:.x.W.W.W.W.W.(.9X9XW.J.:.:.:.:...r q q C ",
"0X'.{.{.J.G.V.v.:.:.2._.8X9X9X%X>.:.:.s.W.W.W.W.W.W.W.W.W.W.W.W.W.W.W.W.W.W.:X9X7X^.6.:.>.L.W.W.W.W.W.2X9X].W.,.:...:.} q q q C ",
"0XN.e.t.G.G.2.>.:.:.D.:X9X9X>Xi.:.:.4.E.W.W.W.].&X1X9X9X1X#XL.6.,.w.z.L.W.W.).9X9X$XJ.>.:.f.W.W.W.W.W.:X9XXXW.6.:.[ :.} q q q C ",
"<XI L L x.l.F :.:.s.XX9X9X9XJ.:.:.>.H.W.W.W.&X9X9X9X9X9X9X9X9X9X`.,.:.:.f.E.W.&X9X8XQ.s.:.>.E.W.W.W.W.-X9XOXW.6.:.[ :.} q q q C ",
",XP L L l.} m :.,.R.>X9X9X#X4.:.:.l.W.W.W.=X9X9X9X9X9X=X&X=X8X9X9X$X>.:.:.6.W. X9X9XXXV.:.:.n.W.W.W.W.=X9X@XW.w.:.E :.E < 9 q C ",
"0Xm.=.` 6.V m :.v. X9X9X1XD.:.:.2.E.W.W.#X9X9X9X:XV.<.:.4.n.W.@X9X9X$Xz.:.:.f.Q.9X9X&XE.:.:.s.W.W.W.W.-X9X@XW.w.:.E :./ % * < C ",
"0XU.U.U.O.m m 4.W.=X9X9X+Xi.:.:.x.W.W.).9X9X9X@X>.:.:.l.W.W.W.W.oX9X9X`.v.:.:.H.>X9X1XW.4.:.4.W.W.W.W.:X9XoXW.6.:.[ :.[ % % & l ",
"0XU.U.U.T m m V.W.9X9X9X!.>.:.>.R.W.W.=X9X9X#Xi.:.:.l.].].^.W.G.D.:X9X&XW.6.:.s.=X9X9XW.w.:.:.W.W.W.W.:X9XoXW.6.:.[ :.} % % * v ",
"0XU.U.U.U m V W.|.9X9X=XS.:.:.i.W.W.`.9X9X>XH.:.:.x.>X9X9X9XoX6.:.R.9X1XW.z.:.2.&X9X9X(.s.:.:.J.W.W.W.>X9X XW.4.:.} :.5.f 9 9 C ",
"0XU.U.U.U m [ W.@X9X9XoXz.:.:.n.W.W.#X9X9X Xl.:.6.2X9X9X9X9X9X&X:.l.9X9X(.D.:.:.@X9X9X`.f.:.:.H.W.W.W.7X9X].W.,.:...:.w.) ) C A ",
"0XU.U.U.U B :.W.=X9X9X(.i.:.:.L.W.W.:X9X7XW.6.:. X9X8XoXz.i.=X9XL.!.9X9X|.J.:.:.oX9X9X`.l.:.:.H.W.W.^.9X9X^.R.:.:.@.:.s.` ) ) #.",
"qXT.T.'.T Y :.W.>X9X1XW.4.:.2.W.W.W.9X9X:XW.:.,.7X9X@XE.>.:.+X2XW.`.9X9X XH.:.:.@X9X9X).s.:.:.J.W.W.].9X7XW.G.:.,.:.:.l.` ) ) ` ",
"wX{.{.{.T O.:.W.8X9X=XW.>.:.i.W.W.).9X9X=XJ.:.s.9X9X^.G.:.:.1XoXW. X9X9X XV.:.:.$X9X9XW.i.:.:.W.W.W.oX9X-XW.n.:.6.:.:.n.` ~ h C ",
"wX{.{.{.} :.:.Q.9X9X$XE.:.:.f.W.W.`.9X9X&XH.:.s.9X9X(.G.:.:./.W.W.&X9X9X].s.:.:.;X9X2XW.6.:.,.W.W.W.&X9X#XW.s.:.f.:.6.z.d r q l ",
"wX{.{.Y.o.:.:.^.9X9X@XL.:.:.z.W.W.Q.9X9X=XE.:.,.2X9XoXW.>.:.v.W.^.7X9X9XL.>.:.2.9X9X=XE.>.:.w.W.W.W.1X9X XW.2.:.V.:.s.s.q q q b ",
"6Xt. .L ..:.:.).9X9X@XJ.:.:.z.W.W.W.>X9X=XW.5.:.].9X2X^.f.:.2.R.=X9X9X&Xw.:.:.L.9X9X@XV.:.:.z.W.W.`.9X7XW.H.:.>.W.:.n.s.q q q C ",
"C q q q } :.:.^.9X9X#XR.:.:.l.W.W.W.#X9X1XW.l.:.q.2X9X=XW.,.i.#X9X9X7Xk.:.:.>.=X9X9X].w.:.:.D.W.W.#X9X&XW.f.:.p.W.<.G.x.L  .t.6X",
"b q q q } :.:.W.9X9X&XE.:.:.s.W.W.W.`.9X9X].G.:.:.(.9X9X9X2X9X9X9X8Xv.:.:.:.R.9X9X2XG.:.:.,.W.W.Q.7X9X|.E.,.:.S.W.s.G.D.Y.{.{.wX",
"l q r d O.:.:.W.7X9X=XW.>.:.w.W.W.W.W.-X9X=XW.6.:.p. X7X9X9X9X9X=Xg.:.:.4.G.:X9X9X#X6.:.:.f.W.W.@X9X>XW.z.:.4.W.W.V.G.J.{.{.{.wX",
"C h ~ ` &.:.:.W.>X9X1XW.4.:.2.W.W.W.W.].9X9X].D.:.:.G.^.+X&X#X}.x.s.f.V.W.&X9X9X9Xv.:.:.:.J.W.^.7X9X+XR.,.:.z.W. XG.G.F.{.{.{.wX",
"` ) ) ` &.:.:.W.=X9X9XQ.i.:.:.~.(.W.W.L.&X9X>XQ.p.:.5.E.W.W.W.W.W.W.W.W.@X9X9X9XoX:.:.:.f.W.W.#X9X7X^.l.:.>.R.W.>XG.G.h.'.T.T.qX",
"#.) ) ` &.:.:.W.#X9X9X].l.:.:.`.:XW.W.V.p.1X9X=XI.2.:.w.E.W.W.W.W.W.W.$X9X9X9X>X4.:.:.2.L.W.`.9X9X#XH.:.:.l.W.oX9XG.V.O.U.U.U.0X",
"A C ) ) %.:.T J. X9X9X+XV.:.:.V.9X XW.L.:.L.7X9X>XW.>.:.6.H.W.W.W.oX1X9X9X9X1Xs.:.:.,.G.W.W.:X9X7X^.6.:.,.R.^.2X9XG.0.T U.U.U.0X",
"C 9 9 f O.O.m D.^.9X9X=XR.:.:.i.=X>XW.W.w.5.].2X9X9X#Xv.0.g.W.%X7X9X9X9X9X=Xi.:.:.2.H.W.W.+X9X9XoXx.:.:.v.W.&X9X9Xn.K U U.U.U.0X",
"v * % % T | m D.W.:X9X8XQ.6.:.>.|.9X+XW.V.:.z.^.=X9X9X9X9X9X9X9X9X9X9X7XQ.<.:.>.l.E.W.W.`.9X9X:XG.>.:.6.W. X9X9X9X:.m U U.U.U.0X",
"l & % % T [ m G.W.+X9X9XoXz.:.:.v.-X9X`.W.6.>.H.W.|.-X9X9X9X9X9X9X=XW.5.:.4.l.L.W.W.W.^.1X9X7XQ.2.:.,.J.).7X9X9X$Xm m U U.U.U.0X",
"C < * % T [ m S.W.(.9X9X>XL.:.:.5.`.9X2X).H.:.2.J.W.W.^. XoXoX].H.n.n.V.L.W.W.W.W.W.^.:X9X9X}.6.:.:.S.W.:X9X9X2Xp.m m A ` =.m.0X",
"C q 9 < E [ m V.W.W.=X9X9XoXi.:.:.n.oX9X2X].v.:.,.G.W.W.W.W.W.W.W.W.W.W.W.W.W.W.W.^.:X9X9XoX6.:.:.v.W.#X9X9X9XH.:.m m 1.L L P ,X",
"C q q q } [ m z.W.W.].9X9X2XK.:.:.,.L.#X9X9X$Xx.:.:.f.E.W.W.W.W.W.W.W.W.W.W.W.W.).>X9X9XoX5.:.:.z.W.oX9X9X9X X:.:.m } x.L L I <X",
"C q q q } | m i.W.W.W.=X9X9X=Xi.:.:.i.W.&X9X9X1XJ.:.:.2.V.W.W.W.W.W.W.W.W.W.W.oX7X9X9X].>.:.:.z.W.].9X9X9X&X:.:.:.G c.G.t.e.N.0X",
"C q q q } @.m >.E.W.W.).7X9X9X.X>.:.:.v.W.#X9X9X9X*Xn.>.:.6.V.W.W.W.W.W.Q.oX>X9X9X2XV.:.:.,.V.W.].7X9X9X>X4.:.:.4.a.G.J.{.{.'.0X",
"C q q r ,.:.F :.v.W.W.W.oX9X9X9XR.:.:.:.D.W. X2X9X9X9X1X`.n.i.s.V.(.oX=X8X9X9X9XoX6.:.:.i.L.W.].7X9X9X1Xs.:.:.,.^.G.G.H.{.{.{.qX",
";.H ~ ) z.:.{ :.,.E.W.W.W.$X9X9X7Xb.:.:.,.J.W.^.@X7X9X9X9X9X9X9X9X9X9X9X9X8X Xs.:.:.i.G.W.W. X8X9X9X2Xs.:.:.,.R.2XG.G.w.{.{.{.4X",
"M.) ) ) v.d.:.4.:.f.W.W.W.W.=X9X9X1Xl.:.:.2.L.W.W.W. X&X2X9X9X9X9X9X2XoXG.4.>.i.v.L.W.W.W.$X9X9X9X2Xs.:.:.,.J.:X9XG.8.U k.k.( *.",
"M.) ) ) v.G.6.V.:.:.V.W.W.W.W.=X9X9X>Xl.:.:.4.L.W.W.W.W.W.(.].|.].^.D.V.D.J.W.W.W.W.W. X1X9X9X9X:Xi.:.:.2.L.:X9X9X9.D M z r q C ",
"M.) ) ) 9.G.G.].f.:.>.G.W.W.W.W.&X9X9X2XV.:.:.2.G.W.W.W.W.W.W.W.W.W.W.W.W.W.W.W.W.).=X9X9X9X9X&X6.:.:.6.^.>X9X9X XV m c q q q C ",
"A 9 < * B c.G.7X].6.:.,.D.W.W.W.W.+X9X9X9X).:.:.:.v.W.W.W.W.W.W.W.W.W.W.W.W.W.(.$X9X9X9X9X9X].<.:.:.s.|.7X9X9X].,.m m G q q q C ",
"$       w >.n.>X9X X6.:.>.n.W.W.W.W.|.2X9X9X=Xv.:.:.6.S.W.W.W.W.W.W.W.W.W.).#X8X9X9X9X9X1XV.:.:.>.V.#X9X9X9X!.:...m [  .L H H r.",
"$ .     - @.:.x.9X9X&Xf.:.:.p.L.W.W.W.^.=X9X9X9X=XJ.i.:.6.x.H.W.W.). X@X:X9X9X9X9X9X9X`.5.:.:.s.`.>X9X9X9XG.:.:.m { :.X.` ) ] M.",
"$ @   X + B :.:.D.9X9X7X^.>.:.,.v.W.W.W.W.|.>X9X9X9X9X2X-X&X-X>X9X9X9X9X9X9X9X9X8X Xi.:.:.s.W.&X9X9X9X2Xl.:.:.U | :.:.` ` ) y.M.",
"1 3 : > > 2 O.:.:.0.;X9X9X>XL.4.:.2.x.R.W.W.W. X-X9X9X9X9X9X9X9X9X9X9X9X9X9X#XJ.5.:.6.x.^.&X9X9X9X9X&Xi.:...V O.:.:.' ) ) ) M.M.",
"q p y 5 1 3 a :.:.:.<.c.G.G.G.A.0.{ B m K { :.:.:.<.i.l.c.n.c.c.z.d.9.:.{ K K T | :.i.c.G.G.G.G.G.<.B m m U :.:.:.m g x k A ( ( ",
"u ^ ^ g q q g ( :.:.:.:.i.V.G.G.G.G.A.d.:.T V F T ..@.:.:.:.:.:.:.:.:.:.:.:.4.i.c.G.G.G.G.G.G.s.U m m F ..:.:.E w 3 q q r C C C ",
"t ~ ^ ~ q q x ) ` X. .[ { O.a.H.L.L.G.z.z.x.H.V.k.i.4.3.5.5.>.O.} o.4.i.s.z.v.z.6.6.6.6.s.:.G c Z J } O.L a , O > 1 q q C C C C ",
"e N S A C e g ) ` ` L q q j k.{.{.{.t.L L ( U.U.U.U.U.'.{.{.Y.L q q p ` ` ` ) f % % % < q q q r ) ) ) ) *     X > 4 f ^ A C C C ",
"q f C C C C A ) ) ) H q q r k.{.{.[.e.L L &.U.U.U.U.U.T.{.{.{. .q q r W ) ) ) 9 % % * 9 q q q q W ) ) ) <       ; y ^ ^ S C C C ",
"r z C C C C ( M.u.] H q q q _ {.{.T.B.R I m.U.U.U.U.U.T.{.{.{.t.q q q f ) ) C 0 * * < q q q q q S ) ) ) 6   . # 3 i ^ ^ b f z C ",
"f C C C C C ( M.M.M.r.C C C -.3XqX0X0X4X<X0X0X0X0X0X0XqXwXwXwX5XC b l C ( #.A C b z C C C C C C ;.M.M.M.A $ $ $ 1 q u u e q q z "
};
