/* XPM */
static char *f90bc9dec88c46fcc35e4804b0a18283jEyzlFW8VUncztMs[] = {
/* columns rows colors chars-per-pixel */
"62 55 130 2 ",
"   c #00FF00",
".  c #161615",
"X  c #181816",
"o  c #1A1A18",
"O  c #1C1C1A",
"+  c #1D1D1B",
"@  c #1E1E1C",
"#  c #1F1F1D",
"$  c #21211E",
"%  c #222220",
"&  c #232321",
"*  c #242422",
"=  c #262623",
"-  c #272724",
";  c #282826",
":  c #2A2A27",
">  c #2B2B28",
",  c #2C2C29",
"<  c #2D2D2A",
"1  c #2E2F2B",
"2  c #30302D",
"3  c #31312E",
"4  c #32322F",
"5  c #333330",
"6  c #343531",
"7  c #353632",
"8  c #373734",
"9  c #383835",
"0  c #393A36",
"q  c #3A3B37",
"w  c #3B3C38",
"e  c #3C3D39",
"r  c #3D3E3A",
"t  c #3F403C",
"y  c #40413D",
"u  c #41423E",
"i  c #42433F",
"p  c #444540",
"a  c #454641",
"s  c #464743",
"d  c #474844",
"f  c #484945",
"g  c #4A4B46",
"h  c #4B4C47",
"j  c #4C4D48",
"k  c #4D4E49",
"l  c #4E4F4A",
"z  c #4F504C",
"x  c #51524C",
"c  c #52534E",
"v  c #53544F",
"b  c #545550",
"n  c #555651",
"m  c #565752",
"M  c #585953",
"N  c #595A54",
"B  c #5A5B56",
"V  c #5B5C56",
"C  c #5C5D58",
"Z  c #5D5E59",
"A  c #5E5F5A",
"S  c #5F605B",
"D  c #61625C",
"F  c #62635D",
"G  c #63645E",
"H  c #64655F",
"J  c #656660",
"K  c #666762",
"L  c #676863",
"P  c #696A63",
"I  c #696A65",
"U  c #6B6C66",
"Y  c #6C6D67",
"T  c #6D6E68",
"R  c #6E6F69",
"E  c #6F706A",
"W  c #70716B",
"Q  c #71726C",
"!  c #72736D",
"~  c #73746E",
"^  c #75766F",
"/  c #767771",
"(  c #777871",
")  c #787973",
"_  c #797A74",
"`  c #7A7B75",
"'  c #7B7C76",
"]  c #7C7D77",
"[  c #7D7E78",
"{  c #7E7F79",
"}  c #7F807A",
"|  c #80817B",
" . c #81827C",
".. c #82837D",
"X. c #83847E",
"o. c #B7A567",
"O. c #BEAD69",
"+. c #BFAC6A",
"@. c #C5B36D",
"#. c #CCBB6F",
"$. c #D6C575",
"%. c #E0CE7A",
"&. c #E2D07B",
"*. c #868781",
"=. c #8A8B84",
"-. c #8B8C85",
";. c #8B8C86",
":. c #8F9089",
">. c #92938C",
",. c #95968F",
"<. c #A6A7A0",
"1. c #A7A8A2",
"2. c #A8A9A3",
"3. c #ABACA6",
"4. c #ACADA7",
"5. c #AEAFA8",
"6. c #AFB0AA",
"7. c #B0B1AB",
"8. c #B0B2AC",
"9. c #B0B4AD",
"0. c #B0B4AE",
"q. c #B1B6B0",
"w. c #B1B7B1",
"e. c #B2B8B2",
"r. c #B2B8B3",
"t. c #B2B8B4",
"y. c #B3B8B5",
"u. c #B3B9B6",
"i. c #B3B9B7",
"p. c #B4B9B8",
/* pixels */
"  n Z ^ ! ~ ! ( ` [ ` 8 Z                                                                         $ d  .( ( ! ! ( ( ~ Z n z ",
"g n V ^ ( [ [  . .} ( 6 B                                                                         < h ( ~ E R Y U U U n x g ",
"v Z D ) } | | [ [ ' ` 0 V                                                                         2 z ^ ! ! E E R R ! Z B n ",
"k n V ` ` ' ] [ }  . .y V                                                                         4 g ` '  .} ' ] [ ` D B l ",
"& : : 6 0 w 0 0 t.' ` r Z                                                                         1 d ^ ! < > , > > > = = * ",
"6 0 r k z z n G w.[ ` r Z                                                                         4 d  ./ 4 B K K Z B d y t ",
"9 p g Z S G L K t.} ( y Z                                                                         4 h ) ! < x n k x n y r 0 ",
"x B S / [ [ [ ] t.' ` y Z                                                                         4 h ^ W < m S D x B d g x ",
"x C D ) [  .[ [ t.] ) 6 C                                                                         0 h ^ ! , B Y R Y Y Z B v ",
"k b Z / ! ^ ~ ) w.[ ] 6 B                                                                         0 g  ./ 2 B R ( ( ~ C n k ",
"d b B ^ ) [ [  .t.| ) 0 C                                                                         0 d ) ! , Z Y U U U v x p ",
"x Z D / [ | | [ t.] ) y C                                                                         0 g ^ ! < B R R W W Z B x ",
"k n Z ~ ! ` ` ` 0.) ) w C                                                                         0 g [ ` 8 D [ | | } G n g ",
"n B D ] ] ] ` ` w.` ] r Z                                                                         0 g ` ` 8 N ' [ | | K Z n ",
"^  .:.0.0.w.w.0.0.( ^ y Z                                                                         w h U ^ w.w.0.0.w.e.,.;.[ ",
"k n B ] ` ] [ [ [ ..X.y Z                                                                         0 x ' '  .[ [ ] ] ] D N k ",
"x B A / [ [ [ [ [ ] ` y Z                                                                         w b ( ~ E E E E E E Z B b ",
"O & * 3 5 9 0 r i.[ / d D                                                                         w m ( ~ , , : ; ; ; # O o ",
"q r d V V V B B <.R R d A                                                                         r b E R < b M n m n i r 0 ",
"q p Z ! ! ! U R 3.! ! d D                                                                         r v ( ~ 2 b S D S V h t h ",
"8 q m / ! ! ! / w.[ ` 0 D                                                                         t v | ( 2 V C G m v m d k ",
"8 p B R ! R ! R <.R W q D                                                                         y x E R 2 B Z n V D B v h ",
"8 k D / ^ ! R R 3.! ! q G                                                                         s x ( ^ 2 V U I E E m v z ",
"r x B ^ ! / ! / w.[ ` q D                                                                         s x  .( 2 B I / ( ~ V b k ",
"z V D [ [ ] ` ` w.` [ 0 D                                                                         g x ` [ 8 b R ' } } K C v ",
"d n B / ) ` ` ` 0./ / q G                                                                         d k U / 6 m ! ( ` [ G V z ",
"/  .;.w.w.w.y.w.y. .*.r D                                                                         g k ` ] 0 i.t.e.e.e.>.*.( ",
"b B A ` [  .| [ [ ` ` p G                                                                         d d / ! ! E E E E E Z m v ",
"k x B ^ ! ~ ! ( ` [ ` y D                                                                         g y | ( ( ! ! ( ( ~ V b k ",
"d x B ^ ) ' [  .O.&.#.r G                                                                         d > +.&.#.R U I I I z h p ",
"& = ; 5 q w 0 0 o.&.$.4 D                                                                         d < o.%.$.> < > > , = & = ",
"5 9 y K U Z k B @.%.O.5 G                                                                         g < @.%.O.B k z k z w 9 6 ",
"q p h G G D m z w.[ ` 6 D                                                                         g <  .( 4 z b K K R n z 6 ",
"r z B ~ / ` ~ Z p.} ( 6 D                                                                         g 4 ( ! > n n P U U x h 9 ",
"k B Z ) } } ` z y.] ` 4 H                                                                         d 4 ^ ! < R R R E E Z m p ",
"k x B ` ` ' ^ Z t. . .1 D                                                                         d 4 ` ' q } ' ] ] ' S m d ",
"x V Z ` [  .[ [ y.` ` < D                                                                         g 4 ^ ! < E E R E E C n x ",
"! | ;.5.5.5.5.w.w.[ ` , H                                                                         d 4  ./ 4 5.3.0.6.6.-.} ( ",
"f x B ^ ( [ [  . .[ ` < D                                                                         g 5 ( ! E R R Y U U v k p ",
"x B Z ` |  .[ [ [ ] ' 6 Z                                                                         d 4 ^ ! ! E E E E E C m x ",
"x N S ( } } | [ [ ' ( 6 B                                                                         g 4 ^ ! E R E R R R C m x ",
"+ $ & 2 4 4 < 4 w.[ ` 0 Z                                                                         d 4 | / 4 1 1 5 5 4 * & @ ",
"0 i h G D n P | t.[ ) y V                                                                         g 5 ( ! > b k z k x r q 6 ",
"8 0 t x z z P ] t.[ [ w Z                                                                         d 5 ^ W < k k Z U A g p y ",
"4 w i S L ! ) ) 0.( ^ r Z                                                                         g 5 [ ' 8 z x `  .[ Z x d ",
"4 z C ` ' ] ' ` e.' X.y Z                                                                         g 4 ` [ 8 x C ' } } K B b ",
"4 k V ) ) ` ] ) 0.^ ) y Z                                                                         h 4 U / 6 x x ! ` ] D M k ",
"4 k N ' ' ] ] ] u...) y S                                                                         h 4 ` ] 0 x Z ` ] ' Z n h ",
"y N Z ) | | } [ t.] R ; U                                                                         k 6 / ! < B K R R E B n z ",
"W ] *.7.0.e.u.p.t.| ! ; U                                                                         k 6 ` ! > 2.1.<.<.<. .` R ",
"d x m W ! W W R Y R ` : R                                                                         k 6 R R ! ~ ^ / ( ! M k g ",
"k B S ^ ^ ! R W R ! R & R                                                                         x 5 ( ^ ~ ~ ^ ! E ! b z k ",
"h x N ^ ! ! ! ) ` [ ! # !                                                                         x < | ( ( ! ! ( ( / M x h ",
"d v m W ! W W Y Y R ` @ )                                                                         k = R R ! ! ^ ( / ! M z g ",
". X X + # + + X O @ 2 & /                                                                         x $ = < 4 4 < > < > @ @ O "
};
