/* XPM */
static char *ace602dc9ec6403e888a8a62fc8d1923zvZsm6JjJPXl0Xud[] = {
/* columns rows colors chars-per-pixel */
"62 55 104 2 ",
"   c #1A1A18",
".  c #1C1C1A",
"X  c #1D1D1B",
"o  c #1F1F1D",
"O  c #21211E",
"+  c #222220",
"@  c #242422",
"#  c #262623",
"$  c #272724",
"%  c #282826",
"&  c #2A2A27",
"*  c #2B2B28",
"=  c #2C2C29",
"-  c #2E2F2B",
";  c #30302D",
":  c #31312E",
">  c #32322F",
",  c #343531",
"<  c #353632",
"1  c #373734",
"2  c #383835",
"3  c #393A36",
"4  c #3A3B37",
"5  c #3B3C38",
"6  c #3C3D39",
"7  c #3D3E3A",
"8  c #3F403C",
"9  c #41423E",
"0  c #42433F",
"q  c #464743",
"w  c #474844",
"e  c #484945",
"r  c #4A4B46",
"t  c #4B4C47",
"y  c #4D4E49",
"u  c #4E4F4A",
"i  c #4F504C",
"p  c #51524C",
"a  c #52534E",
"s  c #53544F",
"d  c #545550",
"f  c #555651",
"g  c #565752",
"h  c #585953",
"j  c #595A54",
"k  c #5A5B56",
"l  c #5B5C56",
"z  c #5C5D58",
"x  c #5D5E59",
"c  c #5F605B",
"v  c #61625C",
"b  c #63645E",
"n  c #64655F",
"m  c #666762",
"M  c #676863",
"N  c #696A63",
"B  c #696A65",
"V  c #6B6C66",
"C  c #6C6D67",
"Z  c #6E6F69",
"A  c #6F706A",
"S  c #70716B",
"D  c #72736D",
"F  c #73746E",
"G  c #75766F",
"H  c #767771",
"J  c #777871",
"K  c #787973",
"L  c #7A7B75",
"P  c #7B7C76",
"I  c #7C7D77",
"U  c #7E7F79",
"Y  c #7F807A",
"T  c #80817B",
"R  c #81827C",
"E  c #83847E",
"W  c #85867F",
"Q  c #B7A567",
"!  c #BEAD69",
"~  c #C5B36D",
"^  c #CCBB6F",
"/  c #D6C575",
"(  c #E0CE7A",
")  c #E2D07B",
"_  c #A2A39C",
"`  c #A6A7A0",
"'  c #A7A8A2",
"]  c #A8A9A3",
"[  c #A9AAA4",
"{  c #ABACA6",
"}  c #ADAEA7",
"|  c #AEAFA8",
" . c #AFB0AA",
".. c #B0B1AB",
"X. c #B0B2AC",
"o. c #B0B4AD",
"O. c #B0B4AE",
"+. c #B1B6B0",
"@. c #B1B7B1",
"#. c #B2B8B2",
"$. c #B2B8B3",
"%. c #B2B8B4",
"&. c #B3B9B6",
"*. c #B3B9B7",
/* pixels */
"w R J J D S J J F F H K L L _ Z H H D D H F D D D H L U L 1 j O w E J G F A J J F F J J P P E Y P H F F G G F F A K P Y K < ",
"t K D Z Z Z V V V V Z V V Z Z v v m Z D D H H U U R R Y H 1 l = t J F A A A V V V V A V V A A c m M A A A J G Y Y Y Y Y K < ",
"i G D D A A Z A A J L U L J I P Y R I U L K U R U U U L L 2 l : i F F F A A A A A J P P P P K Y Y Y Y Y P J Y Y Y Y Y Y P 4 ",
"r L I T Y I I I P L L J H D D H F H H D D L P I U P U R E 9 l : t P P Y Y P P P P P P J J A A G F J G F A P K P P K Y Y Y 8 ",
"w G F = = = * * = : 1 2 1 o.P U 5 6 1 2 1 , 2 7 2 2 @.I L 6 x : q G F = : % % % % : < 3 <  .P Y 8 3 3 < < > 3 8 3 3 @.P K 8 ",
"w R H : j m n x j j j x x @.R U 2 j p p u u u p g n @.U L 5 x - w E G : h M b c l l l c c @.Y Y < l i i i i i i f c $.Y P 8 ",
"t K D * s g u s g g g h l ] C v @ z d j j x x v M M *.U K 7 x : t J A * s f i f f f f j l ' V c @ j s c l c c c M m @.Y G 8 ",
"t G D = h x v p j j b H m @.L I 5 j K L K H U U T L %.I L 9 x : t H F - f c b i h l b J m @.P Y 3 l J P J G Y Y Y Y &.P P 8 ",
"t G D = j Z C C C G K I x @.L U 8 l P Y K P Y Y U T *.L K 1 h 2 t J A - j A C C V J J P c $.J Y 5 l K P P J Y Y Y Y $.P K < ",
"r R H : l Z K H G D H H x @.E I , g A F G J F A D H @.I I 1 l 2 t Y J : j A J J F F J J c $.Y Y 3 f A F F H F F F J $.P K < ",
"w K D * x Z C B B C C B g ] V v @ h V A A J J Y U U *.U J 4 l 2 q J A - c B V V V V V N f ' A c + j A F F F H Y Y Y &.Y K 3 ",
"r G D = l C Z S S H L I x o.L U 5 l P Y P J Y Y T U *.I P 0 l 4 r H A - j A A A A J P P l @.J Y 7 j P Y P J Y Y Y Y *.P P 0 ",
"r P L 1 v U T T T I K S j ..Z S = f H J F A A J P P  .J J 8 l 2 t K K < c Y Y Y Y Y J A l  .A A - f H F J F A P L J  .K K 8 ",
"r L L 1 g U U T T T T T D ..G K < P Y Y Y Y Y Y P P $.P P 6 c 4 t Y Y < h Y Y Y Y Y Y Y J  .F J 3 K Y Y P P Y P P L @.Y K 8 ",
"t B H @.@.X.o.@.$.@.$.$.o...D S [ ' '  . .$. .$.$. . .J J 8 l 4 t N G &. . . .$.$.*.*.$.$. .A A { ` [ {  . .%.@.$. . .K H 8 ",
"p P P R U I I I I I L H J D D G J J F H A L Y K Y Y Y E E 8 l 6 i K Y Y Y Y P Y P P P J J A F G H H H H F P P P P Y Y Y Y 8 ",
"s J A A A A A A A J J Y L L Y Y Y Y Y Y K J Y Y Y P Y I K 8 c 7 f F F F A A A A A J P Y P P K Y Y Y Y Y K H Y Y Y P Y P K 8 ",
"h J F : * % % % % % & % $ ' V c @ @ % - : : : 3 3 5 *.Y J w c 3 h J F % % * % % $ % % % = ] A c @ @ % - - : : 3 3 8 *.Y J w ",
"s A A = f h g g h f f f c [ N A % i f h l j l l l l ' A A q c 8 s A A - s j h h f f f h c ] A A % i f j l j c l l j ' A A t ",
"i J F : f x c c h c j J V @.J Y 3 i j l J J A A V C [ A A w c 7 s J F - s c c c h c l F V  .J Y 3 i z j P A A A B A [ A A q ",
"f Y J : l c c f s A b J L $._ L 3 f f i A F F F A J $.Y P 4 c 8 s Y J : l c b h s A M J J $.E Y 1 f f i A J A H A P @.Y P 3 ",
"s A V : j c f c c A A F A ' c M % u f c A A J A A A ' A A 5 c 8 i A A : l c s l c A A F A ' V V % i f c A A F A A A _ A A 4 ",
"i K F : l V B A A A J P Y  .J Y 3 i f B Y J F A A A [ A F 3 m q s J F : j V M A A A F P Y  .J P 3 s f B K J J J A A [ A A 8 ",
"i Y K : l M J J F F J J L $.E Y 1 f c F J F F F F J @.Y P 3 c q i Y J : l B J J F F J J P $._ A 3 f c A H J A A A J *.Y J 8 ",
"s Y Y < s A Y Y Y Y Y Y J | J L 2 j J Y Y U P Y P P *.Y Y 3 c t i P Y < f A P Y Y Y Y Y K  .H K 1 h K Y P Y P P P L $.P Y 3 ",
"i N F < h F J J Y Y Y L L  .A Z = V A G G H J L P J  .J F 3 c w i N G , l A J P Y Y Y Y P  .A A : V A H H J J P L L  .J J 3 ",
"i J Y 8 $.$.$.$.$.$.$. . . .A J :  . . . .$.@.@.*.@.*.Y E 8 b t i K P 8 $.*.$.$.@.$.$. . . .A H -  . . . .%.@.@.*.$.*.Y Y 6 ",
"w F A A A A V A A J P Y P L L Y Y Y P Y L J Y Y Y Y Y J J 0 c w w F F A A A A A A G J Y P K K I Y Y Y Y P J Y Y Y Y Y P J q ",
"8 Y J J G A K J F F J J J J _ P Y H F F F H D D F J L Y P 8 c t 8 E J J A A J J A J H K P P _ P P J F F G G F F A J K Y L 8 ",
": P K A A V N N N M V V V M c b M M A A D H G Y Y Y ! ) ^ 8 c w * ! ) ^ A V V N N N V B B A c j M B V A F G G P Y Y Y Y J 8 ",
"= J G = - % = * & : , 3 > @.P P 2 8 2 2 , , 3 3 2 5 Q ) / , b w = Q ( / - = % * = > < < 3  .P Y 3 5 3 3 3 : 3 8 3 3 $.L J : ",
": K G - h i i i i i i i h  .P P 8 i i i g b V c u h ^ / ! , c t - ~ ( ! h i i i i i i i j  .P P 3 i i i f b m c i l $.P P , ",
"- Y J : i s b M V A A s i *.W Y 3 t z b c b b c h i @.I K , c w - Y J : i f M M A A A s i $._ A 1 i l c c b b c h i @.Y K 1 ",
": J F = f h N V V V V h f ' V c @ i c A A F J P D z *.Y H , b t : P A = f f M N N N M f h ' M l @ i c A A F J P F c *.Y J 1 ",
": H A : V V A V A J K M b @.Y Y 5 l J Y P J Y Y P i *.P P : c w : H F = V C A A A J K M M  .L L 3 l J Y P J Y Y L i @.P L : ",
": P P 3 Y P Y Y P P P C c } A F : F F F F P P P F l *.E E : b t : K P 8 Y Y K Y Y P P A c  .A J : F G G F P P P G c *.Y Y - ",
": G F - A A A A D J J Y J @.L Y 3 E P Y P J Y Y Y P @.P K = c w : J F = A A A A A K K Y J  .Y Y 3 R Y Y P J Y Y Y P $.K P * ",
": Y J >  .[ @. .|  . .@.@.@.E Y 1  . . . . . . . . .+.Y P = b w , Y J :  . . . . . . . .$.@.Y Y 3  .}  . . . . . . .$.Y P = ",
"> J F A A A B V V V V N Z V V v B M A F F J J Y Y Y E Y K = b w : J F A A V V V A V V V V V V c M M A A F F J Y Y Y Y Y L * ",
"> H F A A A A A F F L Y P J L Y Y E P P P J Y Y Y Y Y P P , l t , F F A A A A A A J P Y P J Y Y Y Y Y Y P K Y Y Y Y Y P L 1 ",
": J D A Z A Z A A G P Y L J P Y Y Y Y K I J I Y Y Y U P J 1 h w > J F A A A A A A K J Y K K Y Y Y Y Y Y J J U Y Y Y P P J < ",
"> R J : - - > > - : > > > $.E Y 3 : : : : : : : = : o.Y K 3 x w > Y J ; - - > > - - : , < @.Y Y 4 : : : : : : : = : $.Y J 3 ",
"> J D * s i p y p s s s h [ V v @ f f c c c c h V Y *.Y J 9 h t > K D * i i i i i f i f j ' A c @ s h c x b b s M Y *.Y J q ",
": J D * y y c M c c b b A o.P P 3 h f s f f i i M Y $.P P 6 l t > J G * y y c B c c c M A @.J Y 3 f g s f s i i N Y $.P P 5 ",
"> Y L < i p L E Y P J A F  .D Z - i i f l c B A J J  .J J 4 c t > Y J , i i Y Y Y Y F A A  .A A : i i s l c M A J J  .J J 4 ",
"> P T < p j P Y Y Y R Y J  .F J 3 f i A J P P P P P *.P T 9 z t > Y Y < i c J Y Y Y Y Y J  .H J < l i A L L P Y P P *.P E 8 ",
": N F > i s F P Y P P P L  .F A = f t A J J J P P J  .J J 0 z t > N F , i i A K Y Y J Y J  .F A = i i A J J J L P J  .J L 8 ",
"> L Y 4 i c L P P P P J J [ D J : i i A F P P P Y Y $.E J 9 c t > K Y 4 i c Y Y K J Y H K  .A G - i i A F K L P Y Y *.E J 0 ",
"< J D - h M Z A S J L Y P @.P I 4 s V P P J Y T Y I $.P A % B i , J J - h V C A A J P Y P @.P Y 3 f V P P K Y Y Y Y $.L A $ ",
"1 K D * ' ' ' _ ] _ ] _ _ ] Z b @ _ ' | }  .o.$.*.*.*.Y F % N i , K Z - ' _ ] _ ' _ ] _ ' ] Z b O _ ]  .[  .@.$.*.*.*.Y D % ",
"> Z Z D D G K J F D D F J V Z S Z N D J F A F A A A V A L % A i , A Z Z G G K J F F F F D C Z A A N A J D Z F A A A V A L * ",
"> J J F F G D D D A D L Y J G Y T J J Y P J J F A A A F Z O A i > J J G F J F A A A F P Y J G Y Y J J Y P J J F A A A F A O ",
"* R L J D D F J G D J K L L W Y P J F G G G F F F J P P A o F i * E G G A A J K F F J J L P W Y P J D D J J D D F J P P F O ",
"@ Z Z D F J J J D D D D D Z C A A N A K F A F A A A V A P o J i # A A D G G K G F F F F D V Z Z V M D J D Z F A A A V A P X ",
"O $ = > - - * - * * = = * * * - & $ @ @ O . . . .   . o : O J p o $ - > > - * * * % * - * * * - * $ $ $ O X X X .   . o - O "
};
