/* XPM */
static char *_3039d4c7f5541ddf80d04c672e142cbfqi1zjqMZMtFPOWG[] = {
/* columns rows colors chars-per-pixel */
"64 64 7 1 ",
"  c #10141F",
". c #151D28",
"X c #19332D",
"o c #25562E",
"O c #468232",
"+ c #75A743",
"@ c #C7CFCC",
/* pixels */
"................................................................",
"OOOOOOOOOOOOOOOOOOOOOOOOOOOOOOOOOOOOOOOOOOOOOOOOOOOOOOOOOOOOOOOO",
"OOOOOOOOOOOOOOOOOOOOOOOOOOOOOOOOOOOOOOOOOOOOOOOOOOOOOOOOOOOOOOOO",
"OOOOOOOOOOOOOOOO++++OOOOOOOOOOOOO+++OOOOOOOOOOOOOOOOOOOOOOOOOOOO",
"OOOOOOOOOOOOOOOOO++OOOOOOOOOOOOO O+OOOOOOOOOOOOOOOOOOOO+OOOOOOOO",
"OOOOOOOOOOOOOOOO.....OOOOOOOOO  o OOOOOOOOOOOOOOOOOO+++++OOOOOOO",
"OOOOO++++OOOOO..XXXXX.OOOOOOO oooo OOOOOOOOOOOOOOOOOO++++++OOOOO",
"OOO+++++OOOO..XXX....X.OOOOO oXXXoo OOOOOOOOO++OOOOOOOO++OOOOOOO",
"OO++++OOOOO.XXXoooooo..OOOO oX   Xoo OOOOOOOOOOOOOOOOOOOOOOOOOOO",
"OOOOOOOOOOO.XXooooooooo.OOO X OOO Xoo OOOOOOOO   OOOOOOOOOOOOOOO",
"OOOOOOOOOO.XXXo.....ooo.OOOO OOOO Xoo OO++++  ooo   OOOOOOOOOOOO",
"OOOOOOOOOO.XXo.OOO++..oo.OOOOOOOO Xoo OOOOO oooooooo OOOOOOOOOOO",
"OOOOO.OOO.ooo.OOOOOOOO..OOOOOOOOO Xo OO++O oo....ooo OOOOOOOOOOO",
"OOOO.X...ooo.OOOOOOOOOOOOOOOOOOO ooo OOO+  oooXXX.oo O  OOOO+OOO",
"OOOO.Xoooooo.OOOOOOOOOO++++OOOO ooo OOOOO+ ooooooX.oo oo   +++OO",
"OOO.Xooooooo.OOOOOOOOOOO+++OOOO oo OOOOOOOO   oooooo oooooo +++O",
"OO.XX..ooooo.OOOOOOOOOOOOOOOOO ooo OOOOOOOOOOO oooooooo..oo ++OO",
"OO.XX.O. oooo.OOOOOOOO   OOOOO ooX OOOOOOOOOOOO oooooooooooo OOO",
"OOO..OOOO oooo.OOOOOO ooo  OO ooXX      OOOOOOOO oooXXX  ooo OOO",
"OOO++OOOOO ooo.OOO++ oooooo O oXXX ooooo OOOOO++ ooo   OO  o OOO",
"OOOOO+++OO oooo.++O oooo.ooo XXXX ooooooo OOOOOO oo OOOOOOO OOOO",
"OOOOOOOOOOO ooo.OO oooo.Xoooo XXX ooooo.oo OOOO ooo OOOO...OOOOO",
".OOOOOO..OO ooo..O ooo.Xooooo X.. oooooX.oo OOO..o OOOO.XXX.OOO.",
"@.OOOO.@@.O ooo@@. ooo.Xooooo .@@ oooooX.ooo O.@@o OO.....oX.O.@",
"@.OOOO.@@.O oo.@@. ooo.Xooooo .@@  ooooX.ooo O.@@.OOOO.@@.oo.O.@",
"@......@@......@@. Xoo.Xoooo ..@@.  ooo.ooo ...@@......@@.oo...@",
"@@@@@@@@@@@@@@@@@@ XXo.Xooo @@@@@@@@ oo.ooo @@@@@@@@@@@@.ooo.@@@",
"@@@@@@@@@@@@@@@@@@ XXoooooo @@@@@@@@ oooooo @@@@@@@@@@@.oooo.@@@",
"@......@@......@@..XXooooo ....@@... ooooo.....@@......oooX....@",
"@.OOOO.@@.O oo.@@.O XXoooo ooo.@@.OO oooo.OOOo.@@.OOO.oooXX.OO.@",
"@.OOOO.@@.O oo.@@.OO Xooo Oooo.@@.O+ ooo .OOOo.@@.OO.oooXX.OOO.@",
"@.++OO.@@.O oo.@@.OO XXoo OOoo.@@.+O oo @.OOOo.@@.OO.ooXX.OO++.@",
"@.+++O.@@.O ooo @.O+O XXo OOOo.@@.OOO  @@.OOOo.@@.OO.oXX..OOOO.@",
"@.OOOO.@@.O oooo .OOOO XX OOOo.@@.OOOO.@@.OOoo.@@.O.ooX.@.OOOO.@",
"@......@@....ooo ......   .....@@......@@......@@...oXX.@......@",
"@@@@@@@@@@@@@ oo @@@@@@@ @@@@@@@@@@@@@@@@@@@@@@@@@.ooXX.@@@@@@@@",
"@@@@@@@@@@@@@ oo @@@@@@@@@@@@@@@@@@@@@@@@@@@@@@@@@.ooX.@@@@@@@@@",
"@......@@.... oo ......@@......@@......@@......@@..ooX.@@......@",
"@.OOOO.@@.OOO oo .OOOO.@@.O oo.@@.OOOO.@@.oo O.@@..ooX.@@.OOOO.@",
"@.OOOO.@@.OOO oo .OOOO.@@. ooo.@@.OOOO.@@.o OO.@@..ooX.@@.OOOO.@",
"@.OO+O.@@.  Oooo .OOOO.@@.ooo .@@.OOO .@@. OOO.@@..ooo.@@.OOOO.@",
"@.OO+ .@@.oo ooo .OOO .@@.oo O.@@.O  o.@@.OOOO.@@..ooo.@@.OOOO.@",
"@.OO o.@@.ooooo @.OO o.@@.o OO.@@  ooo.@@.OOOO.@@..ooo.@@.OOOO.@",
"@.O oo.@@.ooooo @.O oo.@@. OOO.  oooo .@@.OOOO.@@.O.oo.@@.OOOO.@",
"@. ooo.@@.Xooo.@@. ooo.@@.OO+  XXoo  O.@@.OOOO.@@.OO.o.@@..OOO.@",
"@.oooo.@@.XXXo.@@.ooo .@@.O  XXoo  OOO.@@.OOO+.@@.OO.o.@@..OOO.@",
"@.oooX.@@.XXX .@@.ooo .@@. XXooo .OOOO.@@.OO++.@@.+OO..@@.X.OO.@",
"@.ooXX.@@.   O.@@.oo O.@@. Xoo. @.OOOO.@@.O+++.@@.++O..@@.XX. .@",
"@.ooX .@@.OOOO.@@.oo O.@@.ooo  @@.OOOO.@@.OOOO.@@.+OOO.@@.XX o.@",
"@.oX O.@@.OOOO.@@.oo O.@@.oo O.@@.OOOO.@@.OOOO.@@.OOOO.@@.X oo.@",
"@.X OO.@@.OOOO.@@.ooo .@@.o OO.@@.OOOO.@@.OOOO.@@.OOOO.@@.X oo.@",
"@.X OO.@@.OOOO.@@.ooo .@@.o OO.@@.OOOO.@@.OOOO.@@.OOOO.@@.XXoo.@",
"@. OOO.@@.OOOO.@@.Xooo.@@.o OO.@@.OOOO.@@.OOOO.@@.OOOO.@@. ooo.@",
"@. OOO.@@.OOOO.@@.Xooo.@@.o OO.@@.OOOO.@@.OOOO.@@.OOOO.@@.oooo.@",
"@.OOOO.@@.OOOO.@@.XXoo.@@.o OO.@@.O++O.@@.OOOO.@@.OOOO.@@.oooo.@",
"@.OOOO.@@.OOOO.@@. Xoo.@@.oo O.@@.+OOO.@@.OOOO.@@.OOOO.@@.oooo.@",
"@.OOOO.@@.OOOO.@@. XXo.@@.oo O.@@.OOOO.@@.OOO+.@@.OOOO.@@.oooo.@",
"@.OOOO.@@.OOOO.@@.O Xo.@@.oo O.@@.OOOO.@@.OOOO.@@.OOOO.@@.oooo.@",
"@.OOOO.@@.OOOO.@@.O Xo.@@.oo O.@@.OOOO.@@.O++O.@@.O++O.@@.oooo.@",
"@.OOOO.@@.OOOO.@@.O Xo.@@.ooo .@@.OOOO.@@.OOOO.@@.OOOO.@@.oooX.@",
"@.OOOO.@@.O++O.@@.OO o.@@.ooo .@@.OOOO.@@.OOOO.@@.OOOO.@@.oooX.@",
"@.OOOO.@@.OOOO.@@.OO o.@@.ooo .@@.OOOO.@@.OOOO.@@.OOO .@@.ooXX.@",
"@.OOOO.@@.OOOO.@@.OO o.@@.oooo.@@.OOOO.@@.OOOO.@@.OOO .@@.ooXX.@",
"@.OOOO.@@.OOOO.@@.OO o.@@.oooo.@@.OOOO.@@.OOOO.@@.OOO .@@.oXXX.@"
};
