/* XPM */
static char *c7a2666f0c1a4d3cfdc80062d68e4180YP8RlFyPBjOzVY98[] = {
/* columns rows colors chars-per-pixel */
"64 64 6 1 ",
"  c #FFC0CB",
". c #10141F",
"X c #577277",
"o c #75A743",
"O c #A8B5B2",
"+ c #C7CFCC",
/* pixels */
"                                                                ",
"                                                                ",
"                                                                ",
"                                                                ",
"           ....                                   ....          ",
"          ..X.....                             ........         ",
"          ..XX.....        ...........        ....XX...         ",
"           ..XX......    ...............    .....XXX..          ",
"            .XXX................................XXX..           ",
"            ..X..................................X...           ",
"             .......................................            ",
"             .......................................            ",
"              .....................................             ",
"              .....................................             ",
"              .....................................             ",
"              ........ooo...............ooo........             ",
"              .......ooo.o.............o.ooo.......             ",
"             .......ooo...o...........o...ooo.......            ",
"             .......ooo...oo.........oo...ooo.......            ",
"            .........oo...ooo.......ooo...oo.........           ",
"            ..........o...oooo.....oooo...o..........           ",
"            .........................................           ",
"            .........................................           ",
"            .............................++++........           ",
"            ...............XXXXXXXXXXX..+++++........           ",
"            ................XXXXXXXXX+++++++++.......           ",
"            .................XXXXXXX++++++++++.......           ",
"    ....     .................XXXXX+++++++++++......            ",
"   ......    ..................XXX++++++++++++......            ",
"  ........   .+++++++..........++++++++++++++.......            ",
"  .........   .+++++++........+++++++++++++++......             ",
"  .O.......    ..+++++++...++++++++++++++++++.....              ",
"   .+++..++.     ...+++++++++++++++++++++++++...                ",
"    .++++++.      .....+++++++++++++++++++.....                 ",
"     ..++++.      ..+++...+++++++++++++...+++..                 ",
"       .++++.  ...++.+++++...+++++++...+++++.++...              ",
"        .+++. ...+++.++++++++.......++++++++.+++++.             ",
"        .+++.....++++.+++++++++++++++++++++.+++++++.            ",
"       .++++.....++++.+++++++++++++++++++++.++++++...           ",
"       .+++......++++.++++++++++.++++++++++.++++++....          ",
"       .++........++++.+++++++++.+++++++++.+++++++.....         ",
"       .++........++++.+++++++++.+++++++++.++++++++....         ",
"       .++........+++++.++++++++.++++++++.+++++++++....         ",
"       .++........+++++.++++++++.++++++++.++++++++++...         ",
"       .++........+++++.++++++++.++++++++.++++++++++...         ",
"        ..........++++++.+++++++.+++++++.+++++++++++...         ",
"          ........++++++.+++++++.+++++++.+++++++++++...         ",
"          ........++++++.++++++++.++++++.++++++++++....         ",
"         ........++++++++.+++++++.+++++.+++++++++++.....        ",
"         ........++++++++.+++++++.+++++.+++++++++++.....        ",
"         .......+++++++++.+++++++.+++++.+++++++++++.....        ",
"         ......++++++++++.+++++++.+++++.+++++++++++.....        ",
"          ....+++++++++++.+++++++.+++++.+++++++++++....         ",
"          ...++++++++++++.+++++++.+++++.++++++++++++...         ",
"          .++++++++++++++.+++++++.+++++.++++++++++++...         ",
"           .+++++++.....+.++++++.++++++.+.....+++++++.          ",
"           .++++++.+++++....+++++++++....+++++.++++++.          ",
"            .++++.++++++++++.+++++++.++++++++++.++++.           ",
"            .+++.++++++++++++.+++++.++++++++++++.+++.           ",
"             .++.++++++++++++.+++++.++++++++++++.++.            ",
"              .+.+++++++++++++.+++.+++++++++++++.+.             ",
"               . .++++++++++++.+++.++++++++++++. .              ",
"                 .+++++++++++.+++++.+++++++++++.                ",
"                  ..+++++++++.+++++.+++++++++..                 "
};
