/* XPM */
static char *_2949_b40c38ce636f6672ecf1b31a1909978bfea04876c41c9994fecf4f92f901956a[] = {
/* columns rows colors chars-per-pixel */
"64 64 256 2 ",
"   c black",
".  c #0000A8",
"X  c #00A800",
"o  c #00A8A8",
"O  c #A80000",
"+  c #A800A8",
"@  c #A85400",
"#  c gray66",
"$  c gray33",
"%  c #5454FC",
"&  c #54FC54",
"*  c #54FCFC",
"=  c #FC5454",
"-  c #FC54FC",
";  c #FCFC54",
":  c gray99",
">  c #ECECEC",
",  c gainsboro",
"<  c #D0D0D0",
"1  c #C0C0C0",
"2  c #B4B4B4",
"3  c gray66",
"4  c #989898",
"5  c gray55",
"6  c #7C7C7C",
"7  c gray44",
"8  c #646464",
"9  c gray33",
"0  c #484848",
"q  c gray22",
"w  c #2C2C2C",
"e  c #202020",
"r  c #FC0000",
"t  c #EC0000",
"y  c #E00000",
"u  c #D40000",
"i  c #C80000",
"p  c #BC0000",
"a  c #B00000",
"s  c #A40000",
"d  c #980000",
"f  c #880000",
"g  c #7C0000",
"h  c #700000",
"j  c #640000",
"k  c #580000",
"l  c #4C0000",
"z  c #400000",
"x  c #FCD8D8",
"c  c #FCB8B8",
"v  c #FC9C9C",
"b  c #FC7C7C",
"n  c #FC5C5C",
"m  c #FC4040",
"M  c #FC2020",
"N  c #FC0000",
"B  c #FCA85C",
"V  c #FC9840",
"C  c #FC8820",
"Z  c #FC7800",
"A  c #E46C00",
"S  c #CC6000",
"D  c #B45400",
"F  c #9C4C00",
"G  c #FCFCD8",
"H  c #FCFCB8",
"J  c #FCFC9C",
"K  c #FCFC7C",
"L  c #FCF85C",
"P  c #FCF440",
"I  c #FCF420",
"U  c #FCF400",
"Y  c #E4D800",
"T  c #CCC400",
"R  c #B4AC00",
"E  c #9C9C00",
"W  c #848400",
"Q  c #706C00",
"!  c #585400",
"~  c #404000",
"^  c #D0FC5C",
"/  c #C4FC40",
"(  c #B4FC20",
")  c #A0FC00",
"_  c #90E400",
"`  c #80CC00",
"'  c #74B400",
"]  c #609C00",
"[  c #D8FCD8",
"{  c #BCFCB8",
"}  c #9CFC9C",
"|  c #80FC7C",
" . c #60FC5C",
".. c #40FC40",
"X. c #20FC20",
"o. c #00FC00",
"O. c #00FC00",
"+. c #00EC00",
"@. c #00E000",
"#. c #00D400",
"$. c #04C800",
"%. c #04BC00",
"&. c #04B000",
"*. c #04A400",
"=. c #049800",
"-. c #048800",
";. c #047C00",
":. c #047000",
">. c #046400",
",. c #045800",
"<. c #044C00",
"1. c #044000",
"2. c #D8FCFC",
"3. c #B8FCFC",
"4. c #9CFCFC",
"5. c #7CFCF8",
"6. c #5CFCFC",
"7. c #40FCFC",
"8. c #20FCFC",
"9. c #00FCFC",
"0. c #00E4E4",
"q. c #00CCCC",
"w. c #00B4B4",
"e. c #009C9C",
"r. c #008484",
"t. c #007070",
"y. c #005858",
"u. c #004040",
"i. c #5CBCFC",
"p. c #40B0FC",
"a. c #20A8FC",
"s. c #009CFC",
"d. c #008CE4",
"f. c #007CCC",
"g. c #006CB4",
"h. c #005C9C",
"j. c #D8D8FC",
"k. c #B8BCFC",
"l. c #9C9CFC",
"z. c #7C80FC",
"x. c #5C60FC",
"c. c #4040FC",
"v. c #2024FC",
"b. c #0004FC",
"n. c #0000FC",
"m. c #0000EC",
"M. c #0000E0",
"N. c #0000D4",
"B. c #0000C8",
"V. c #0000BC",
"C. c #0000B0",
"Z. c #0000A4",
"A. c #000098",
"S. c #000088",
"D. c #00007C",
"F. c #000070",
"G. c #000064",
"H. c #000058",
"J. c #00004C",
"K. c #000040",
"L. c #282828",
"P. c #FCE034",
"I. c #FCD424",
"U. c #FCCC18",
"Y. c #FCC008",
"T. c #FCB400",
"R. c #003800",
"E. c #002800",
"W. c #9800E4",
"Q. c #8000CC",
"!. c #7400B4",
"~. c #60009C",
"^. c #500084",
"/. c #440070",
"(. c #340058",
"). c #280040",
"_. c #FCD8FC",
"`. c #FCB8FC",
"'. c #FC9CFC",
"]. c #FC7CFC",
"[. c #FC5CFC",
"{. c #FC40FC",
"}. c #FC20FC",
"|. c #FC00FC",
" X c #E000E4",
".X c #C800CC",
"XX c #B400B4",
"oX c #9C009C",
"OX c #840084",
"+X c #6C0070",
"@X c #580058",
"#X c #400040",
"$X c #FCE8DC",
"%X c #FCE0D0",
"&X c #FCD8C4",
"*X c #FCD4BC",
"=X c #FCCCB0",
"-X c #FCC4A4",
";X c #FCBC9C",
":X c #FCB890",
">X c #FCB080",
",X c #FCA470",
"<X c #FC9C60",
"1X c #F0945C",
"2X c #E88C58",
"3X c #DC8854",
"4X c #D08050",
"5X c #C87C4C",
"6X c #BC7848",
"7X c #B47044",
"8X c #A86840",
"9X c #A0643C",
"0X c #9C6038",
"qX c #905C34",
"wX c #885830",
"eX c #80502C",
"rX c #744C28",
"tX c #6C4824",
"yX c #5C4020",
"uX c #543C1C",
"iX c #483818",
"pX c #403018",
"aX c #382C14",
"sX c #28200C",
"dX c #600064",
"fX c #006464",
"gX c #006060",
"hX c #00001C",
"jX c #00002C",
"kX c #302410",
"lX c #480048",
"zX c #500050",
"xX c #000034",
"cX c gray11",
"vX c #4C4C4C",
"bX c gray36",
"nX c gray25",
"mX c gray19",
"MX c #343434",
"NX c #D8F4F4",
"BX c #B8E8E8",
"VX c #9CDCDC",
"CX c #74C8C8",
"ZX c #48C0C0",
"AX c #20B4B4",
"SX c #20B0B0",
"DX c #00A4A4",
"FX c #009898",
"GX c #008C8C",
"HX c #008484",
"JX c #007C7C",
"KX c #007878",
"LX c #007474",
"PX c #007070",
"IX c #006C6C",
"UX c #ff0000",
/* pixels */
"UXUXUXUXUXUXUXUXUXUXUXUXUXUXUXUXUXUXUX# # 7 UXUXUXUXUXUXUXUXUXUXUXUXUXUXUXUXUXUXUXUXUXUXUXUXUXUXUXUXUXUXUXUXUXUXUXUXUXUXUXUXUXUX",
"UXUXUXUXUXUXUXUXUXUXUXUXUXUXUXUXUXUX# 1 1 4 5 UXUXUXUXUXUXUXUXUXUXUXUXUXUXUXUXUXUXUXUXUXUXUXUXUXUXUXUXUXUXUXUXUXUXUXUXUXUXUXUXUX",
"UXUXUXUXUXUXUXUXUXUXUXUXUXUXUXUXUXUX2 2 1 2 4 UXUXUXUXUXUXUXUXUXUXUXUXUXUXUXUXUXUXUXUXUXUXUXUXUXUXUXUXUXUXUXUXUXUXUXUXUXUXUXUXUX",
"UXUXUXUXUXUXUXUXUXUXUXUXUXUXUX$ 4 4 # 1 2 2 # 7 UXUXUXUXUXUXUXUXUXUXUXUXUXUXUXUXUXUXUXUXUXUXUXUXUXUXUXUXUXUXUXUXUXUXUXUXUXUXUXUX",
"UXUXUXUXUXUXUXUXUXUXUXUXUXUX$ 4 1 4 6 4 4 2 2 5 UXUXUXUXUXUXUXUXUXUXUXUXUXUXUXUXUXUXUXUXUXUXUXUXUXUXUXUXUXUX6 7 7 UXUXUXUXUXUXUX",
"UXUXUXUXUXUXUXUXUXUXUXUXUXUX$ 4 1 5 6 8 4 2 < 2 4 UXUXUXUXUXUXUXUXUXUXUXUXUXUXUXUXUXUXUXUXUXUXUXUXUXUXUXUX5 6 8 8 7 UXUXUXUXUXUX",
"UXUXUXUXUXUXUXUXUXUXUXUXUXUX$ 5 < 6 6 8 6 4 < 2 # UXUXUXUXUXUXUXUXUXUXUXUXUXUXUXUXUXUXUXUXUXUXUXUXUXUXUX2 4 6 $ vX8 UXUXUXUXUXUX",
"UXUXUXUXUXUXUXUXUXUXUXUXUXUX4 , 3 6 7 6 e 4 2 < 2 4 UXUXUXUXUXUXUXUXUXUXUXUXUXUXUXUXUXUXUXUXUXUXUXUXUX4 2 5 7 vX0 $ 7 7 UXUXUXUX",
"UXUXUXUXUXUXUXUXUXUXUXUXUX4 , 3 6 7 7 e   8 # < > > 2 2 UXUXUXUXUXUX2 , , , 2 UXUXUXUXUXUXUXUXUXUXUX5 2 6 8 $     0 8 8 7 UXUXUX",
"UXUXUXUXUXUXUXUXUXUXUXUX4 , 3 7 7 7 9     bX4 < > : < > > > > > > > > > > > > 2 UXUXUXUXUXUXUXUX5 4 2 4 $ vX    e e 9 8 7 UXUXUX",
"UXUXUXUXUXUXUXUXUXUX5 4 1 5 8 8 7 7 9   e bX6 < > : < , , , , , , , , , : > > 1 UXUXUXUXUX5 4 2 2 2 5 $ q     e e q 0 9 7 UXUXUX",
"UXUXUXUXUXUXUX# # 5 4 # 5 $ 8 8 6 7 9   w 8 4 < > : : < < < < < < < < < : > < 2 vX5 5 4 # 2 2 # 4 5 $ q q   e e w q 0 $ 7 UXUXUX",
"UXUXUXUXUXUXUX# 4 6 6 8 8 vXe 8 5 7 9   w 8 4 < < : : < 1 1 1 1 1 1 1 1 > < 2 6 q vX4 2 2 4 5 6 7 nX0 0 q e e w q q 0 bX8 UXUXUX",
"UXUXUXUXUXUX4 4 6 8 $ $ 0 e   7 4 7 9   MX6 4 < 2 > : : 2 2 2 2 2 2 2 > < 2 6   w vXnXnX7 e e e e nX8 vXe w w q q q $ 7 8 UXUXUX",
"UXUXUXUXUXUX4 4 6 8 7 8 e     7 4 7 9   MX4 4 < 5 < : : < 3 3 3 3 3 2 < 2 6 e   0 8 vXnXe     w nX8 $ 0 w w q q e q $ 7 9 UXUXUX",
"UXUXUXUXUXUX4 5 6 6 7 e     e 7 4 7 9   MX4 4 < 5 6 > : < 3 3 3 3 3 2 2 6 e   e 7 8 vXe       nX4 7 0 w w q q e e q $ 7 UXUXUXUX",
"UXUXUXUXUXUX4 6 6 6 8     e e 7 4 7 9   MX5 4 < 2 6 7 : : 5 5 5 5 3 2 6 e   e e 7 8 e       e $ 4 8 0 w q q   e e q vX7 UXUXUXUX",
"UXUXUXUXUXUXUX5 6 7 $   e MXe 7 4 7 9   MX5 4 < , < 7 8 : 3 7 7 8 2 3 e   e 5 w 9 e       e e 5 5 nX$ q q   e e e q vX7 UXUXUXUX",
"UXUXUXUXUXUXUX5 5 7 $ e MXMXe 7 4 7 9   MX6 4 < > > > 7 7 3 8 8 9 3 e w e 5 5 w e       e e vX2 6 $ nX0     e e w q vX7 UXUXUXUX",
"UXUXUXUXUXUXUX5 5 6 8 vX0 vX$ 4 < < < < < < 6 , >   < > 8 8 9 9 0 q q q 5 7   w e       e vX2 5 8 vXvX    e e e w q vX7 UXUXUXUX",
"UXUXUXUXUXUXUXUX5 6 6 2 2 4 4 2 > > , < 1 # 6 , ,   z < < 9 0 0 q w w 5 9 z   w e   e vXvX2 5 8 $ vX      e e e w q vX7 UXUXUXUX",
"UXUXUXUXUXUXUXUX5 5 2 > 2 4 # 2 2 2 2 2 2 # 6 , < 0 z i < 2 0 0 w e 5 9 i z w w e   e 4 3 5 7 8 vX      e e e e w q 0 7 UXUXUXUX",
"UXUXUXUXUXUXUXUX4 4 2 > , # 4 4 4 4 4 4 4 6 6 3 3 3 w l z 2 2 6 6 5 9 z z   q w e   e 6 5 3 5 $         e e e e w q $ 7 UXUXUXUX",
"UXUXUXUXUXUXUXUX4 # 5 , > 2 6 8 8 6 6 6 6 6 8 3 4 7 5 8 8 w 6 4 6 9 e 8 8 0 w w e   e 9 6 5 3 6 vX    e e e e e w q $ 6 UXUXUXUX",
"UXUXUXUXUXUXUXUX, 5 5 5 2 2 4 6 7 8 8 8 8 8 vX8 5 8 vX7 4 > , 3 4 5 0 0 w w w w e   e q 9 6 6 6 6 6 8 e e e e e w q 0 vX6 UXUXUX",
"UXUXUXUXUXUXUX< , 3 5 5 5 4 4 6 7 8 7 7 8 8 vXe nX8 vX4 > 8 q 6 q 8 8 0 w w w q     e e q 9 6 5 4 5 6 6 e e e e e e e e vX6 UXUX",
"UXUXUXUXUXUX< > < 2 3 5 6 6 6 6 7 7 7 7 7 8 0 e   nX8 4 , e q 2 q e 7 0 q w q       e e e q 6 4 3 4 5 6 6 e e e e e q q q 8 UXUX",
"UXUX2 5 UX< > < < 2 2 6 6 6 6 8 8 8 8 8 8 8 0 q e   5 3 6 2 2 6 2 2 6 3 5 q     e e q q q q 6 1 1 4 6 8 bX0 e e w w q q 8 UXUXUX",
"UXUX2 1 < > < 2 2 4 5 5 7 8 $ e q vX8 8 8 8 8 0 q e < 3 5           5 > <     e w 0 8 7 6 5 1 < 2 5 8 9 0 0 e e w q $ $ 8 UXUXUX",
"UXUX2 < , # 4 4 5 6 7 7 8 9   e e q vX9 9 9 9 9 0 q > 3 7 8 9 0 9 8 7 > 2   e w 0 8 8 7 6 4 1 2 5 8 9 0 0 nX$ e w w UXUXUXUXUXUX",
"UXUX1 , > , 6 8 8 8 8 $ e hXe e q w q vX9 9 9 9 0 q < 3 e q q q q q e 5 3 e w q nXnX0 9 6 3 4 5 8 9 0 0 0 0 9 $ w UXUXUXUXUXUXUX",
"UXUX1 , > , 2 6 9 9 $ e hX    e q q w q vX0 0 0 vXnXmX3 4 e e   e e 4 3 e e w q q q q q 9 8 8 0 0 0 0 0 0 $ bX7 UXUXUXUXUXUXUXUX",
"UXUX1 , > , 2 4 7 7 UX6 w       e q 9 0 mXmXmX0 0 0 0 0 e e e   e e q q q q q q q mXmXq q q q 0 0 0 0 0 $ bX8 7 $ UXUXUXUXUXUXUX",
"UXUX1 , > , 2 4 7 7 UXUX6 w     e q 0 0 0 0 nXmXmXmXmXmXw e       e w w mXmXmXmXmXmX0 9 0 e 9 9 9 $ 8 8 8 8 8 7 $ UXUXUXUXUXUXUX",
"UXUX1 , > , 4 7 7 UXUXUXUX6 vX  e q 0 0 q q q q q q q q q q e   e q q q q q q q q 9 9 q e e 0 8 bX8 6 6 6 7 bX7 $ UXUXUXUXUXUXUX",
"UXUX1 > > 2 4 6 UXUXUXUXUXUXbX$ q 9 9 9 q w e                     e w q 0 0 0 0 0 q e       e 0 8 6 4 # 4 6 bX7 $ UXUXUXUXUXUXUX",
"UXUX1 > , 4 4 2 6 UXUXUXUXUXUX6 8 8 9 0 q w w w e                                             e 0 6 4 < # 7 8 7 $ UXUXUXUXUXUXUX",
"UX4 > > : 4 6 2 4 UXUXUXUXUXUX6 6 8 9 0 q q w w w e       e e e e e                             0 0 4 < 1 7 7 5 7 9 9 8 UXUXUXUX",
"UX, > # : < 4 , 7 UXUXUXUXUX5 3 6 8 9 $ 0 q q q q w   w w w UXUXUXnXe e     w w e           0 7 5 2 < < < 5 6 6 8 9 9 9 UXUXUXUX",
"UX> # 4 # 4 7 4 7 UXUXUXUXUX5 3 4 6 8 8 7 8 8 0 q w e w w UXUXUXUXUXnXe e < < < 6 MXMXMXMX7 5 2 2 < < < 1 4 6 7 9 9 9 UXUXUXUXUX",
"UX1 4 # 1 bXbX6 UXUXUXUXUXUX4 , 4 7 8 6 6 7 8 9 0 q q w nXUXUXUXUXUXUXvX4 < < < 2 2 2 2 2 2 < < < < < # # 6 7 8 9 9 UXUXUXUXUXUX",
"UXUX1 # bXbX6 UXUXUXUXUXUX5 2 > 5 8 8 4 5 6 8 9 0 vXq w nXUXUXUXUXUXUX, < < 3 3 3 3 3 3 3 3 3 3 3 4 4 4 6 7 8 9 9 9 UXUXUXUXUXUX",
"UXUXUXUXUXUXUXUXUXUXUXUXUX5 2 2 6 8 8 2 5 7 8 9 0 8 q w nXUXUXUXUXUXUX2 6 5 6 6 6 6 6 6 5 5 5 5 5 5 5 6 7 8 9 9 $ UXUXUXUXUXUXUX",
"UXUXUXUXUXUXUXUXUXUXUXUXUX5 6 6 7 9 $ 8 7 8 9 0 $ 8 vXnXUXUXUXUXUXUXUX2 5 6 8 8 bXbX$ 8 8 8 8 8 8 8 7 7 7 8 8 $ UXUXUXUXUXUXUXUX",
"UXUXUXUXUXUXUXUXUXUXUXUXUXUX7 8 9 $ vXvX$ 9 nXnXq $ nXnXUXUXUXUXUXUXUXUX4 5 6 8 bX$ 0 nXnX0 vX$ $ $ $ $ $ $ UXUXUXUXUXUXUXUXUXUX",
"UXUXUXUXUXUXUXUXUXUXUXUXUXUX6 9 8 8 bXvXvX$ vXnXq nXnXUXUXUXUXUXUXUXUXUXUX4 5 6 7 8                   e e nXUXUXUXUXUXUXUXUXUXUX",
"UXUXUXUXUXUXUXUXUXUXUXUXUXUXUX6 2 4 6 9 0 7 $ vXq nXq UXUXUXUXUXUXUXUXUXUXUXUXUXnXw e e             e w nXUXUXUXUXUXUXUXUXUXUXUX",
"UXUXUXUXUXUXUXUXUXUXUXUXUXUXUX# 2 5 6 9 0 8 8 vXnXnXq 4 4 4 4 4 4 4 4 4 4 4 4 4 0 nXq q MXe     e w w nXUXUXUXUXUXUXUXUXUXUXUXUX",
"UXUXUXUXUXUXUXUXUXUXUXUXUXUX< 2 5 5 6 9 0 7 8 $ vX$ 0 5 # 1 1 1 1 1 1 1 1 1 1 5 8 8 bXbX$ nXw w q q 0 UXUXUXUXUXUXUXUXUXUXUXUXUX",
"UXUXUXUXUXUXUXUXUXUXUXUXUXUX< 2 # 4 5 6 8 8 8 8 bXbX8 7 4 # 2 1 1 , , , 1 1 2 5 5 5 6 6 8 $ 0 0 0 nXUXUXUXUXUXUXUXUXUXUXUXUXUXUX",
"UXUXUXUXUXUXUXUXUXUXUXUXUXUX3 < # # # 5 5 6 7 8 8 8 7 6 5 5 4 # 1 1 1 1 1 1 1 1 4 4 4 5 6 8 $ 9 nXUXUXUXUXUXUXUXUXUXUXUXUXUXUXUX",
"UXUXUXUXUXUXUXUXUXUXUXUXUXUX3 3 1 : : 1 2 # 5 5 5 5 5 4 4 2 2 2 1 1 1 1 1 1 2 2 1 # # # 5 7 8 nXw UXUXUXUXUXUXUXUXUXUXUXUXUXUXUX",
"UXUXUXUXUXUXUXUXUXUXUXUXUXUX3 3 1 > > : : : < 1 1 1 1 1 1 1 1 1 1 1 1 1 1 1 1 1 1 1 1 4 5 bXe e w UXUXUXUXUXUXUXUXUXUXUXUXUXUXUX",
"UXUXUXUXUXUXUXUXUXUXUXUXUXUX3 3 1 > > : : : < : : < 1 1 2 3 3 4 5 6 6 7 8 8 0 9 9 nXq q w e e e w UXUXUXUXUXUXUXUXUXUXUXUXUXUXUX",
"UXUXUXUXUXUXUXUXUXUXUXUXUX2 2 3 1 : : : : : > , , < 1 1 2 4 4 2 5 6 6 7 8 8 9 0 0 nXq q w q q e e w w UXUXUXUXUXUXUXUXUXUXUXUXUX",
"UXUXUXUXUXUXUXUXUXUXUXUX2 > > > : : : : : : > , , < 1 1 2 3 3 4 5 6 6 7 8 8 9 0 0 nXw w q w w e e e e w w w UXUXUXUXUXUXUXUXUXUX",
"UXUXUXUXUXUXUXUXUX1 1 1 : > > : : : : > > > : : : , , , < 1 1 1 3 3 3 4 5 5 6 7 7 8 9 9 nXq q w e e e e w w w w w nXnXnX0 0 vX9 ",
"UXUXUXUXUXUXUXUX1 , , , : > > : : > > > > > , , , < < < 1 1 1 2 2 3 3 4 5 5 6 7 7 8 9 9 0 nXnXw q e e e w w w w w q q q q q nX0 ",
"UXUXUXUXUXUXUXUX, , > > > : : : : > > > < < < < < 1 1 1 2 2 2 3 3 5 5 3 6 6 6 7 7 8 8 8 9 nXnX0 w w w e e e w w w q q q q q q q ",
"UXUXUXUXUXUXUXUX, > > > : : : : : : : : > > , < < 1 1 1 2 2 2 3 3 4 4 5 6 6 6 7 7 8 8 8 7 8 8 vXvXq q w e e w w w q q q q q q q ",
"UXUXUXUXUXUXUXUXUX> : : : : : : > > > > : : : : : , , , < 1 1 1 2 2 2 3 4 4 4 5 5 6 6 6 7 bXbXnXbXq q q e e w q q q q q q q nXnX",
"UXUXUXUXUXUXUXUXUXUX1 1 : : : > > > > , , , , < < < < < 1 2 2 < 2 3 3 4 4 4 5 6 6 5 7 7 8 bXbX0 nXq q q w w nXnXnXnXnXnX0 0 0 0 ",
"UXUXUXUXUXUXUXUXUXUXUXUXUX3 3 3 , , , < < < < 1 1 1 1 1 2 2 2 3 3 4 4 4 5 5 5 6 6 7 7 7 8 9 9 0 nXnXnX0 9 9 bXbXbXbXbXbX8 8 8 8 ",
"UXUXUXUXUXUXUXUXUXUXUXUXUXUXUX6 $ 7 6 4 3 3 3 3 3 3 5 5 5 5 5 5 5 5 5 5 7 7 7 7 7 7 8 8 9 nXnXnX0 9 9 bX8 8 8 UXUXUXUXUXUXUXUXUX"
};
